G04*
G04 #@! TF.GenerationSoftware,Altium Limited,Altium Designer,23.0.1 (38)*
G04*
G04 Layer_Physical_Order=3*
G04 Layer_Color=16440176*
%FSLAX44Y44*%
%MOMM*%
G71*
G04*
G04 #@! TF.SameCoordinates,056E7371-CA95-4066-80D9-C2616C4CE960*
G04*
G04*
G04 #@! TF.FilePolarity,Positive*
G04*
G01*
G75*
%ADD17C,1.5000*%
%ADD18C,2.0000*%
%ADD51C,1.8000*%
%ADD52R,2.0000X2.0000*%
%ADD53C,7.0000*%
%ADD54C,1.5240*%
G04:AMPARAMS|DCode=55|XSize=2mm|YSize=2mm|CornerRadius=0.5mm|HoleSize=0mm|Usage=FLASHONLY|Rotation=90.000|XOffset=0mm|YOffset=0mm|HoleType=Round|Shape=RoundedRectangle|*
%AMROUNDEDRECTD55*
21,1,2.0000,1.0000,0,0,90.0*
21,1,1.0000,2.0000,0,0,90.0*
1,1,1.0000,0.5000,0.5000*
1,1,1.0000,0.5000,-0.5000*
1,1,1.0000,-0.5000,-0.5000*
1,1,1.0000,-0.5000,0.5000*
%
%ADD55ROUNDEDRECTD55*%
G04:AMPARAMS|DCode=56|XSize=1.8mm|YSize=1.8mm|CornerRadius=0.45mm|HoleSize=0mm|Usage=FLASHONLY|Rotation=270.000|XOffset=0mm|YOffset=0mm|HoleType=Round|Shape=RoundedRectangle|*
%AMROUNDEDRECTD56*
21,1,1.8000,0.9000,0,0,270.0*
21,1,0.9000,1.8000,0,0,270.0*
1,1,0.9000,-0.4500,-0.4500*
1,1,0.9000,-0.4500,0.4500*
1,1,0.9000,0.4500,0.4500*
1,1,0.9000,0.4500,-0.4500*
%
%ADD56ROUNDEDRECTD56*%
G04:AMPARAMS|DCode=57|XSize=1.8mm|YSize=1.8mm|CornerRadius=0.45mm|HoleSize=0mm|Usage=FLASHONLY|Rotation=180.000|XOffset=0mm|YOffset=0mm|HoleType=Round|Shape=RoundedRectangle|*
%AMROUNDEDRECTD57*
21,1,1.8000,0.9000,0,0,180.0*
21,1,0.9000,1.8000,0,0,180.0*
1,1,0.9000,-0.4500,0.4500*
1,1,0.9000,0.4500,0.4500*
1,1,0.9000,0.4500,-0.4500*
1,1,0.9000,-0.4500,-0.4500*
%
%ADD57ROUNDEDRECTD57*%
%ADD58C,0.7000*%
%ADD59C,0.5000*%
%ADD60C,0.6000*%
G36*
X452523Y948730D02*
X448090Y947290D01*
X442825Y944607D01*
X438044Y941134D01*
X433866Y936956D01*
X430393Y932175D01*
X427710Y926910D01*
X425884Y921291D01*
X424960Y915454D01*
Y909546D01*
X425884Y903709D01*
X427710Y898090D01*
X430393Y892825D01*
X433866Y888044D01*
X438044Y883866D01*
X442825Y880393D01*
X448090Y877710D01*
X453709Y875884D01*
X459546Y874960D01*
X465454D01*
X471291Y875884D01*
X476910Y877710D01*
X482175Y880393D01*
X486956Y883866D01*
X491134Y888044D01*
X494607Y892825D01*
X497290Y898090D01*
X498730Y902522D01*
X500000Y902321D01*
Y47679D01*
X498730Y47478D01*
X497290Y51910D01*
X494607Y57175D01*
X491134Y61956D01*
X486956Y66134D01*
X482175Y69607D01*
X476910Y72290D01*
X471291Y74116D01*
X465454Y75040D01*
X459546D01*
X453709Y74116D01*
X448090Y72290D01*
X442825Y69607D01*
X438044Y66134D01*
X433866Y61956D01*
X430393Y57175D01*
X427710Y51910D01*
X425884Y46291D01*
X424960Y40455D01*
Y34546D01*
X425884Y28709D01*
X427710Y23090D01*
X430393Y17825D01*
X433866Y13044D01*
X438044Y8866D01*
X442825Y5393D01*
X448090Y2710D01*
X452523Y1270D01*
X452321Y-0D01*
X47679D01*
X47477Y1270D01*
X51910Y2710D01*
X57175Y5393D01*
X61956Y8866D01*
X66134Y13044D01*
X69607Y17825D01*
X72290Y23090D01*
X74116Y28709D01*
X75040Y34546D01*
Y40455D01*
X74116Y46291D01*
X72290Y51910D01*
X69607Y57175D01*
X66134Y61956D01*
X61956Y66134D01*
X57175Y69607D01*
X51910Y72290D01*
X46291Y74116D01*
X40455Y75040D01*
X34546D01*
X28709Y74116D01*
X23090Y72290D01*
X17825Y69607D01*
X13044Y66134D01*
X8866Y61956D01*
X5393Y57175D01*
X2710Y51910D01*
X1270Y47478D01*
X0Y47679D01*
Y902321D01*
X1270Y902523D01*
X2710Y898090D01*
X5393Y892825D01*
X8866Y888044D01*
X13044Y883866D01*
X17825Y880393D01*
X23090Y877710D01*
X28709Y875884D01*
X34546Y874960D01*
X40455D01*
X46291Y875884D01*
X51910Y877710D01*
X57175Y880393D01*
X61956Y883866D01*
X66134Y888044D01*
X69607Y892825D01*
X72290Y898090D01*
X74116Y903709D01*
X75040Y909546D01*
Y915454D01*
X74116Y921291D01*
X72290Y926910D01*
X69607Y932175D01*
X66134Y936956D01*
X61956Y941134D01*
X57175Y944607D01*
X51910Y947290D01*
X47478Y948730D01*
X47679Y950000D01*
X452321D01*
X452523Y948730D01*
D02*
G37*
%LPC*%
G36*
X173888Y911440D02*
X171112D01*
X168432Y910722D01*
X166028Y909334D01*
X164066Y907372D01*
X162678Y904968D01*
X161960Y902288D01*
Y899512D01*
X162678Y896832D01*
X164066Y894428D01*
X166028Y892466D01*
X168432Y891078D01*
X171112Y890360D01*
X173888D01*
X176568Y891078D01*
X178972Y892466D01*
X180934Y894428D01*
X182322Y896832D01*
X183040Y899512D01*
Y902288D01*
X182322Y904968D01*
X180934Y907372D01*
X178972Y909334D01*
X176568Y910722D01*
X173888Y911440D01*
D02*
G37*
G36*
X98888D02*
X96112D01*
X93432Y910722D01*
X91028Y909334D01*
X89066Y907372D01*
X87678Y904968D01*
X86960Y902288D01*
Y899512D01*
X87678Y896832D01*
X89066Y894428D01*
X91028Y892466D01*
X93432Y891078D01*
X96112Y890360D01*
X98888D01*
X101568Y891078D01*
X103972Y892466D01*
X105934Y894428D01*
X107322Y896832D01*
X108040Y899512D01*
Y902288D01*
X107322Y904968D01*
X105934Y907372D01*
X103972Y909334D01*
X101568Y910722D01*
X98888Y911440D01*
D02*
G37*
G36*
X291102Y893040D02*
X288898D01*
X286862Y892197D01*
X285303Y890638D01*
X284460Y888602D01*
Y886398D01*
X285303Y884362D01*
X286862Y882803D01*
X288898Y881960D01*
X291102D01*
X293138Y882803D01*
X294697Y884362D01*
X295540Y886398D01*
Y888602D01*
X294697Y890638D01*
X293138Y892197D01*
X291102Y893040D01*
D02*
G37*
G36*
X421102Y868040D02*
X418898D01*
X416862Y867197D01*
X415303Y865638D01*
X414460Y863602D01*
Y861398D01*
X415303Y859362D01*
X416862Y857803D01*
X418898Y856960D01*
X421102D01*
X423138Y857803D01*
X424697Y859362D01*
X425540Y861398D01*
Y863602D01*
X424697Y865638D01*
X423138Y867197D01*
X421102Y868040D01*
D02*
G37*
G36*
X422500Y846059D02*
Y842500D01*
X426059D01*
X426057Y842509D01*
X425201Y843991D01*
X423991Y845201D01*
X422509Y846057D01*
X422500Y846059D01*
D02*
G37*
G36*
X417500D02*
X417491Y846057D01*
X416009Y845201D01*
X414799Y843991D01*
X413943Y842509D01*
X413941Y842500D01*
X417500D01*
Y846059D01*
D02*
G37*
G36*
X426059Y837500D02*
X422500D01*
Y833941D01*
X422509Y833943D01*
X423991Y834799D01*
X425201Y836009D01*
X426057Y837491D01*
X426059Y837500D01*
D02*
G37*
G36*
X417500D02*
X413941D01*
X413943Y837491D01*
X414799Y836009D01*
X416009Y834799D01*
X417491Y833943D01*
X417500Y833941D01*
Y837500D01*
D02*
G37*
G36*
X405000Y875090D02*
X177500D01*
X176509Y874893D01*
X175669Y874331D01*
X175107Y873491D01*
X174910Y872500D01*
Y842223D01*
X174151Y841640D01*
X170849D01*
X167660Y840785D01*
X164800Y839135D01*
X162465Y836800D01*
X160815Y833940D01*
X160635Y833270D01*
X159365D01*
X159185Y833940D01*
X157535Y836800D01*
X155200Y839135D01*
X152340Y840785D01*
X149151Y841640D01*
X145849D01*
X142660Y840785D01*
X139800Y839135D01*
X137465Y836800D01*
X135815Y833940D01*
X135635Y833270D01*
X134365D01*
X134185Y833940D01*
X132535Y836800D01*
X130200Y839135D01*
X127340Y840785D01*
X124151Y841640D01*
X120849D01*
X117660Y840785D01*
X114800Y839135D01*
X112465Y836800D01*
X110815Y833940D01*
X110635Y833270D01*
X109365D01*
X109185Y833940D01*
X107535Y836800D01*
X105200Y839135D01*
X102340Y840785D01*
X99151Y841640D01*
X95849D01*
X92660Y840785D01*
X89800Y839135D01*
X87465Y836800D01*
X85815Y833940D01*
X84960Y830751D01*
Y827449D01*
X85815Y824260D01*
X87465Y821400D01*
X89800Y819065D01*
X91824Y817897D01*
X91562Y816582D01*
X90532Y816446D01*
X88698Y815686D01*
X87122Y814478D01*
X85914Y812903D01*
X85154Y811068D01*
X84895Y809100D01*
Y799100D01*
X85154Y797132D01*
X85914Y795297D01*
X87122Y793722D01*
X88698Y792514D01*
X90532Y791754D01*
X92500Y791495D01*
X102500D01*
X104468Y791754D01*
X106303Y792514D01*
X107878Y793722D01*
X109086Y795297D01*
X109846Y797132D01*
X109982Y798162D01*
X111297Y798424D01*
X112465Y796400D01*
X114800Y794065D01*
X117660Y792415D01*
X120849Y791560D01*
X124151D01*
X127340Y792415D01*
X130200Y794065D01*
X132535Y796400D01*
X134185Y799260D01*
X134365Y799930D01*
X135635D01*
X135815Y799260D01*
X137465Y796400D01*
X139800Y794065D01*
X142660Y792415D01*
X145849Y791560D01*
X149151D01*
X152340Y792415D01*
X155200Y794065D01*
X157535Y796400D01*
X159185Y799260D01*
X159365Y799930D01*
X160635D01*
X160815Y799260D01*
X162465Y796400D01*
X164800Y794065D01*
X167660Y792415D01*
X170849Y791560D01*
X174151D01*
X174910Y790977D01*
Y707500D01*
X175107Y706509D01*
X175669Y705669D01*
X176509Y705107D01*
X177500Y704910D01*
X217410D01*
Y663604D01*
X217460Y663354D01*
Y663099D01*
X217558Y662863D01*
X217607Y662613D01*
X217749Y662401D01*
X217847Y662165D01*
X218027Y661985D01*
X218169Y661773D01*
X217803Y660638D01*
X216960Y658602D01*
Y656398D01*
X217803Y654362D01*
X219362Y652803D01*
X221398Y651960D01*
X223602D01*
X224412Y652296D01*
X224738Y651509D01*
X225300Y650669D01*
X226140Y650107D01*
X227131Y649910D01*
X287410D01*
Y582500D01*
X287607Y581509D01*
X288169Y580669D01*
X289009Y580107D01*
X290000Y579910D01*
X345369D01*
X346360Y580107D01*
X347201Y580669D01*
X347762Y581509D01*
X348088Y582296D01*
X348898Y581960D01*
X351102D01*
X351912Y582296D01*
X352238Y581509D01*
X352799Y580669D01*
X353640Y580107D01*
X354631Y579910D01*
X425000D01*
X425991Y580107D01*
X426831Y580669D01*
X427393Y581509D01*
X427590Y582500D01*
Y616686D01*
X427579Y616743D01*
X427587Y616800D01*
X427480Y617237D01*
X427393Y617677D01*
X427360Y617725D01*
X427347Y617781D01*
X427081Y618144D01*
X426831Y618517D01*
X426783Y618549D01*
X426749Y618596D01*
X426365Y618829D01*
X425991Y619079D01*
X425934Y619090D01*
X425885Y619120D01*
X425645Y619207D01*
X425205Y620589D01*
X425540Y621398D01*
Y623602D01*
X425205Y624411D01*
X425645Y625793D01*
X425885Y625880D01*
X425934Y625910D01*
X425991Y625921D01*
X426365Y626171D01*
X426749Y626404D01*
X426783Y626451D01*
X426831Y626483D01*
X427081Y626856D01*
X427347Y627219D01*
X427360Y627275D01*
X427393Y627323D01*
X427480Y627763D01*
X427587Y628200D01*
X427579Y628257D01*
X427590Y628314D01*
Y699910D01*
X480000D01*
X480991Y700107D01*
X481831Y700669D01*
X482393Y701509D01*
X482590Y702500D01*
Y812500D01*
X482393Y813491D01*
X481831Y814331D01*
X480991Y814893D01*
X480000Y815090D01*
X428641D01*
X427935Y816146D01*
X428040Y816398D01*
Y818602D01*
X427197Y820638D01*
X425638Y822197D01*
X423602Y823040D01*
X421398D01*
X419362Y822197D01*
X417803Y820638D01*
X416960Y818602D01*
Y816398D01*
X417065Y816146D01*
X416359Y815090D01*
X407590D01*
Y872500D01*
X407393Y873491D01*
X406831Y874331D01*
X405991Y874893D01*
X405000Y875090D01*
D02*
G37*
G36*
X180000Y688559D02*
Y685000D01*
X183559D01*
X183557Y685009D01*
X182701Y686491D01*
X181491Y687701D01*
X180009Y688557D01*
X180000Y688559D01*
D02*
G37*
G36*
X175000D02*
X174991Y688557D01*
X173509Y687701D01*
X172299Y686491D01*
X171443Y685009D01*
X171441Y685000D01*
X175000D01*
Y688559D01*
D02*
G37*
G36*
X442500Y683559D02*
Y680000D01*
X446059D01*
X446057Y680009D01*
X445201Y681491D01*
X443991Y682701D01*
X442509Y683557D01*
X442500Y683559D01*
D02*
G37*
G36*
X437500D02*
X437491Y683557D01*
X436009Y682701D01*
X434799Y681491D01*
X433943Y680009D01*
X433941Y680000D01*
X437500D01*
Y683559D01*
D02*
G37*
G36*
X183559Y680000D02*
X180000D01*
Y676441D01*
X180009Y676443D01*
X181491Y677299D01*
X182701Y678509D01*
X183557Y679991D01*
X183559Y680000D01*
D02*
G37*
G36*
X175000D02*
X171441D01*
X171443Y679991D01*
X172299Y678509D01*
X173509Y677299D01*
X174991Y676443D01*
X175000Y676441D01*
Y680000D01*
D02*
G37*
G36*
X102500Y678559D02*
Y675000D01*
X106059D01*
X106057Y675009D01*
X105201Y676491D01*
X103991Y677701D01*
X102509Y678557D01*
X102500Y678559D01*
D02*
G37*
G36*
X97500D02*
X97491Y678557D01*
X96009Y677701D01*
X94799Y676491D01*
X93943Y675009D01*
X93941Y675000D01*
X97500D01*
Y678559D01*
D02*
G37*
G36*
X446059Y675000D02*
X442500D01*
Y671441D01*
X442509Y671443D01*
X443991Y672299D01*
X445201Y673509D01*
X446057Y674991D01*
X446059Y675000D01*
D02*
G37*
G36*
X437500D02*
X433941D01*
X433943Y674991D01*
X434799Y673509D01*
X436009Y672299D01*
X437491Y671443D01*
X437500Y671441D01*
Y675000D01*
D02*
G37*
G36*
X131102Y678040D02*
X128898D01*
X126862Y677197D01*
X125303Y675638D01*
X124460Y673602D01*
Y671398D01*
X125303Y669362D01*
X126862Y667803D01*
X128898Y666960D01*
X131102D01*
X133138Y667803D01*
X134697Y669362D01*
X135540Y671398D01*
Y673602D01*
X134697Y675638D01*
X133138Y677197D01*
X131102Y678040D01*
D02*
G37*
G36*
X106059Y670000D02*
X102500D01*
Y666441D01*
X102509Y666443D01*
X103991Y667299D01*
X105201Y668509D01*
X106057Y669991D01*
X106059Y670000D01*
D02*
G37*
G36*
X97500D02*
X93941D01*
X93943Y669991D01*
X94799Y668509D01*
X96009Y667299D01*
X97491Y666443D01*
X97500Y666441D01*
Y670000D01*
D02*
G37*
G36*
X473602Y650540D02*
X471398D01*
X469362Y649697D01*
X467803Y648138D01*
X466960Y646102D01*
Y643898D01*
X467803Y641862D01*
X469362Y640303D01*
X471398Y639460D01*
X473602D01*
X475638Y640303D01*
X477197Y641862D01*
X478040Y643898D01*
Y646102D01*
X477197Y648138D01*
X475638Y649697D01*
X473602Y650540D01*
D02*
G37*
G36*
X443602D02*
X441398D01*
X439362Y649697D01*
X437803Y648138D01*
X436960Y646102D01*
Y643898D01*
X437803Y641862D01*
X439362Y640303D01*
X441398Y639460D01*
X443602D01*
X445638Y640303D01*
X447197Y641862D01*
X448040Y643898D01*
Y646102D01*
X447197Y648138D01*
X445638Y649697D01*
X443602Y650540D01*
D02*
G37*
G36*
X250000Y616059D02*
Y612500D01*
X253559D01*
X253557Y612509D01*
X252701Y613991D01*
X251491Y615201D01*
X250009Y616057D01*
X250000Y616059D01*
D02*
G37*
G36*
X245000D02*
X244991Y616057D01*
X243509Y615201D01*
X242299Y613991D01*
X241443Y612509D01*
X241441Y612500D01*
X245000D01*
Y616059D01*
D02*
G37*
G36*
X49019Y629840D02*
X45981D01*
X43046Y629054D01*
X40414Y627534D01*
X38266Y625386D01*
X36746Y622754D01*
X35960Y619819D01*
Y616781D01*
X36746Y613846D01*
X38266Y611214D01*
X40414Y609066D01*
X43046Y607547D01*
X45981Y606760D01*
X49019D01*
X51954Y607547D01*
X54586Y609066D01*
X56734Y611214D01*
X58254Y613846D01*
X59040Y616781D01*
Y619819D01*
X58254Y622754D01*
X56734Y625386D01*
X54586Y627534D01*
X51954Y629054D01*
X49019Y629840D01*
D02*
G37*
G36*
X253559Y607500D02*
X250000D01*
Y603941D01*
X250009Y603943D01*
X251491Y604799D01*
X252701Y606009D01*
X253557Y607491D01*
X253559Y607500D01*
D02*
G37*
G36*
X245000D02*
X241441D01*
X241443Y607491D01*
X242299Y606009D01*
X243509Y604799D01*
X244991Y603943D01*
X245000Y603941D01*
Y607500D01*
D02*
G37*
G36*
X473602Y608040D02*
X471398D01*
X469362Y607197D01*
X467803Y605638D01*
X466960Y603602D01*
Y601398D01*
X467803Y599362D01*
X469362Y597803D01*
X471398Y596960D01*
X473602D01*
X475638Y597803D01*
X477197Y599362D01*
X478040Y601398D01*
Y603602D01*
X477197Y605638D01*
X475638Y607197D01*
X473602Y608040D01*
D02*
G37*
G36*
X443602D02*
X441398D01*
X439362Y607197D01*
X437803Y605638D01*
X436960Y603602D01*
Y601398D01*
X437803Y599362D01*
X439362Y597803D01*
X441398Y596960D01*
X443602D01*
X445638Y597803D01*
X447197Y599362D01*
X448040Y601398D01*
Y603602D01*
X447197Y605638D01*
X445638Y607197D01*
X443602Y608040D01*
D02*
G37*
G36*
X213602D02*
X211398D01*
X209362Y607197D01*
X207803Y605638D01*
X206960Y603602D01*
Y601398D01*
X207803Y599362D01*
X209362Y597803D01*
X211398Y596960D01*
X213602D01*
X215638Y597803D01*
X217197Y599362D01*
X218040Y601398D01*
Y603602D01*
X217197Y605638D01*
X215638Y607197D01*
X213602Y608040D01*
D02*
G37*
G36*
X183602D02*
X181398D01*
X179362Y607197D01*
X177803Y605638D01*
X176960Y603602D01*
Y601398D01*
X177803Y599362D01*
X179362Y597803D01*
X181398Y596960D01*
X183602D01*
X185638Y597803D01*
X187197Y599362D01*
X188040Y601398D01*
Y603602D01*
X187197Y605638D01*
X185638Y607197D01*
X183602Y608040D01*
D02*
G37*
G36*
X172500Y598559D02*
Y595000D01*
X176059D01*
X176057Y595009D01*
X175201Y596491D01*
X173991Y597701D01*
X172509Y598557D01*
X172500Y598559D01*
D02*
G37*
G36*
X167500D02*
X167491Y598557D01*
X166009Y597701D01*
X164799Y596491D01*
X163943Y595009D01*
X163941Y595000D01*
X167500D01*
Y598559D01*
D02*
G37*
G36*
X135000Y591059D02*
Y587500D01*
X138559D01*
X138557Y587509D01*
X137701Y588991D01*
X136491Y590201D01*
X135009Y591057D01*
X135000Y591059D01*
D02*
G37*
G36*
X130000D02*
X129991Y591057D01*
X128509Y590201D01*
X127299Y588991D01*
X126443Y587509D01*
X126441Y587500D01*
X130000D01*
Y591059D01*
D02*
G37*
G36*
X198602Y598040D02*
X196398D01*
X194362Y597197D01*
X192803Y595638D01*
X191960Y593602D01*
Y591398D01*
X192803Y589362D01*
X194362Y587803D01*
X196398Y586960D01*
X198602D01*
X200638Y587803D01*
X202197Y589362D01*
X203040Y591398D01*
Y593602D01*
X202197Y595638D01*
X200638Y597197D01*
X198602Y598040D01*
D02*
G37*
G36*
X176059Y590000D02*
X172500D01*
Y586441D01*
X172509Y586443D01*
X173991Y587299D01*
X175201Y588509D01*
X176057Y589991D01*
X176059Y590000D01*
D02*
G37*
G36*
X167500D02*
X163941D01*
X163943Y589991D01*
X164799Y588509D01*
X166009Y587299D01*
X167491Y586443D01*
X167500Y586441D01*
Y590000D01*
D02*
G37*
G36*
X95000Y586059D02*
Y582500D01*
X98559D01*
X98557Y582509D01*
X97701Y583991D01*
X96491Y585201D01*
X95009Y586057D01*
X95000Y586059D01*
D02*
G37*
G36*
X90000D02*
X89991Y586057D01*
X88509Y585201D01*
X87299Y583991D01*
X86443Y582509D01*
X86441Y582500D01*
X90000D01*
Y586059D01*
D02*
G37*
G36*
X49019Y604440D02*
X45981D01*
X43046Y603654D01*
X40414Y602134D01*
X38266Y599986D01*
X36746Y597354D01*
X35960Y594419D01*
Y591381D01*
X36746Y588446D01*
X38266Y585814D01*
X40414Y583666D01*
X43046Y582146D01*
X45981Y581360D01*
X49019D01*
X51954Y582146D01*
X54586Y583666D01*
X56734Y585814D01*
X58254Y588446D01*
X59040Y591381D01*
Y594419D01*
X58254Y597354D01*
X56734Y599986D01*
X54586Y602134D01*
X51954Y603654D01*
X49019Y604440D01*
D02*
G37*
G36*
X138559Y582500D02*
X135000D01*
Y578941D01*
X135009Y578943D01*
X136491Y579799D01*
X137701Y581009D01*
X138557Y582491D01*
X138559Y582500D01*
D02*
G37*
G36*
X130000D02*
X126441D01*
X126443Y582491D01*
X127299Y581009D01*
X128509Y579799D01*
X129991Y578943D01*
X130000Y578941D01*
Y582500D01*
D02*
G37*
G36*
X98559Y577500D02*
X95000D01*
Y573941D01*
X95009Y573943D01*
X96491Y574799D01*
X97701Y576009D01*
X98557Y577491D01*
X98559Y577500D01*
D02*
G37*
G36*
X90000D02*
X86441D01*
X86443Y577491D01*
X87299Y576009D01*
X88509Y574799D01*
X89991Y573943D01*
X90000Y573941D01*
Y577500D01*
D02*
G37*
G36*
X338602Y573040D02*
X336398D01*
X334362Y572197D01*
X332803Y570638D01*
X331960Y568602D01*
Y566398D01*
X332803Y564362D01*
X334362Y562803D01*
X336398Y561960D01*
X338602D01*
X340638Y562803D01*
X342197Y564362D01*
X343040Y566398D01*
Y568602D01*
X342197Y570638D01*
X340638Y572197D01*
X338602Y573040D01*
D02*
G37*
G36*
X49019Y579040D02*
X45981D01*
X43046Y578254D01*
X40414Y576734D01*
X38266Y574586D01*
X36746Y571954D01*
X35960Y569019D01*
Y565981D01*
X36746Y563046D01*
X38266Y560414D01*
X40414Y558266D01*
X43046Y556746D01*
X45981Y555960D01*
X49019D01*
X51954Y556746D01*
X54586Y558266D01*
X56734Y560414D01*
X58254Y563046D01*
X59040Y565981D01*
Y569019D01*
X58254Y571954D01*
X56734Y574586D01*
X54586Y576734D01*
X51954Y578254D01*
X49019Y579040D01*
D02*
G37*
G36*
X473602Y565540D02*
X471398D01*
X469362Y564697D01*
X467803Y563138D01*
X466960Y561102D01*
Y558898D01*
X467803Y556862D01*
X469362Y555303D01*
X471398Y554460D01*
X473602D01*
X475638Y555303D01*
X477197Y556862D01*
X478040Y558898D01*
Y561102D01*
X477197Y563138D01*
X475638Y564697D01*
X473602Y565540D01*
D02*
G37*
G36*
X443602Y565540D02*
X441398D01*
X439362Y564697D01*
X437803Y563138D01*
X436960Y561102D01*
Y558898D01*
X437803Y556862D01*
X439362Y555303D01*
X441398Y554460D01*
X443602D01*
X445638Y555303D01*
X447197Y556862D01*
X448040Y558898D01*
Y561102D01*
X447197Y563138D01*
X445638Y564697D01*
X443602Y565540D01*
D02*
G37*
G36*
X52000Y554669D02*
X50000D01*
Y544600D01*
X60069D01*
Y546600D01*
X59794Y548688D01*
X58988Y550634D01*
X57706Y552306D01*
X56034Y553588D01*
X54088Y554394D01*
X52000Y554669D01*
D02*
G37*
G36*
X45000D02*
X43000D01*
X40912Y554394D01*
X38965Y553588D01*
X37294Y552306D01*
X36012Y550634D01*
X35206Y548688D01*
X34931Y546600D01*
Y544600D01*
X45000D01*
Y554669D01*
D02*
G37*
G36*
X306102Y553040D02*
X303898D01*
X301862Y552197D01*
X300303Y550638D01*
X299460Y548602D01*
Y546398D01*
X300303Y544362D01*
X301862Y542803D01*
X303898Y541960D01*
X306102D01*
X308138Y542803D01*
X309697Y544362D01*
X310540Y546398D01*
Y548602D01*
X309697Y550638D01*
X308138Y552197D01*
X306102Y553040D01*
D02*
G37*
G36*
X261102D02*
X258898D01*
X256862Y552197D01*
X255303Y550638D01*
X254460Y548602D01*
Y546398D01*
X255303Y544362D01*
X256862Y542803D01*
X258898Y541960D01*
X261102D01*
X263138Y542803D01*
X264697Y544362D01*
X265540Y546398D01*
Y548602D01*
X264697Y550638D01*
X263138Y552197D01*
X261102Y553040D01*
D02*
G37*
G36*
X243602D02*
X241398D01*
X239362Y552197D01*
X237803Y550638D01*
X236960Y548602D01*
Y546398D01*
X237803Y544362D01*
X239362Y542803D01*
X241398Y541960D01*
X243602D01*
X245638Y542803D01*
X247197Y544362D01*
X248040Y546398D01*
Y548602D01*
X247197Y550638D01*
X245638Y552197D01*
X243602Y553040D01*
D02*
G37*
G36*
X60069Y539600D02*
X50000D01*
Y529531D01*
X52000D01*
X54088Y529806D01*
X56034Y530612D01*
X57706Y531894D01*
X58988Y533565D01*
X59794Y535512D01*
X60069Y537600D01*
Y539600D01*
D02*
G37*
G36*
X45000D02*
X34931D01*
Y537600D01*
X35206Y535512D01*
X36012Y533565D01*
X37294Y531894D01*
X38965Y530612D01*
X40912Y529806D01*
X43000Y529531D01*
X45000D01*
Y539600D01*
D02*
G37*
G36*
X228602Y540540D02*
X226398D01*
X224362Y539697D01*
X222803Y538138D01*
X221960Y536102D01*
Y533898D01*
X222803Y531862D01*
X224362Y530303D01*
X226398Y529460D01*
X228602D01*
X230638Y530303D01*
X232197Y531862D01*
X233040Y533898D01*
Y536102D01*
X232197Y538138D01*
X230638Y539697D01*
X228602Y540540D01*
D02*
G37*
G36*
X443602Y523040D02*
X441398D01*
X439362Y522197D01*
X438330Y521164D01*
X437500Y520779D01*
X436670Y521164D01*
X435638Y522197D01*
X433602Y523040D01*
X431398D01*
X429362Y522197D01*
X427803Y520638D01*
X426960Y518602D01*
Y516398D01*
X427803Y514362D01*
X428620Y513545D01*
X428509Y512701D01*
X427299Y511491D01*
X426443Y510009D01*
X426441Y510000D01*
X438559D01*
X438557Y510009D01*
X437701Y511491D01*
X436537Y512656D01*
X436662Y513399D01*
X437906Y514032D01*
X438330Y513836D01*
X439362Y512803D01*
X441398Y511960D01*
X443602D01*
X445638Y512803D01*
X447197Y514362D01*
X448040Y516398D01*
Y518602D01*
X447197Y520638D01*
X445638Y522197D01*
X443602Y523040D01*
D02*
G37*
G36*
X283602Y525540D02*
X281398D01*
X279362Y524697D01*
X277803Y523138D01*
X276960Y521102D01*
Y518898D01*
X277803Y516862D01*
X279362Y515303D01*
X281398Y514460D01*
X283602D01*
X285638Y515303D01*
X287197Y516862D01*
X288040Y518898D01*
Y521102D01*
X287197Y523138D01*
X285638Y524697D01*
X283602Y525540D01*
D02*
G37*
G36*
X338602Y524270D02*
X336398D01*
X334362Y523427D01*
X332803Y521868D01*
X331960Y519832D01*
Y517628D01*
X332803Y515592D01*
X332803Y515587D01*
X332239Y515261D01*
X331029Y514051D01*
X330173Y512569D01*
X330171Y512560D01*
X342289D01*
X342287Y512569D01*
X341431Y514051D01*
X341044Y514439D01*
X342197Y515592D01*
X343040Y517628D01*
Y519832D01*
X342197Y521868D01*
X340638Y523427D01*
X338602Y524270D01*
D02*
G37*
G36*
X473602Y523040D02*
X471398D01*
X469362Y522197D01*
X467803Y520638D01*
X466960Y518602D01*
Y516398D01*
X467803Y514362D01*
X469362Y512803D01*
X471398Y511960D01*
X473602D01*
X475638Y512803D01*
X477197Y514362D01*
X478040Y516398D01*
Y518602D01*
X477197Y520638D01*
X475638Y522197D01*
X473602Y523040D01*
D02*
G37*
G36*
X108602Y520540D02*
X106398D01*
X104362Y519697D01*
X102803Y518138D01*
X101960Y516102D01*
Y513898D01*
X102803Y511862D01*
X104362Y510303D01*
X105242Y509939D01*
X105154Y508601D01*
X104991Y508557D01*
X103509Y507701D01*
X102299Y506491D01*
X101443Y505009D01*
X101441Y505000D01*
X113559D01*
X113557Y505009D01*
X112701Y506491D01*
X111491Y507701D01*
X110009Y508557D01*
X109846Y508601D01*
X109758Y509939D01*
X110638Y510303D01*
X112197Y511862D01*
X113040Y513898D01*
Y516102D01*
X112197Y518138D01*
X110638Y519697D01*
X108602Y520540D01*
D02*
G37*
G36*
X342289Y507560D02*
X338730D01*
Y504001D01*
X338739Y504003D01*
X340221Y504859D01*
X341431Y506069D01*
X342287Y507551D01*
X342289Y507560D01*
D02*
G37*
G36*
X333730D02*
X330171D01*
X330173Y507551D01*
X331029Y506069D01*
X332239Y504859D01*
X333721Y504003D01*
X333730Y504001D01*
Y507560D01*
D02*
G37*
G36*
X438559Y505000D02*
X435000D01*
Y501441D01*
X435009Y501443D01*
X436491Y502299D01*
X437701Y503509D01*
X438557Y504991D01*
X438559Y505000D01*
D02*
G37*
G36*
X430000D02*
X426441D01*
X426443Y504991D01*
X427299Y503509D01*
X428509Y502299D01*
X429991Y501443D01*
X430000Y501441D01*
Y505000D01*
D02*
G37*
G36*
X113559Y500000D02*
X110000D01*
Y496441D01*
X110009Y496443D01*
X111491Y497299D01*
X112701Y498509D01*
X113557Y499991D01*
X113559Y500000D01*
D02*
G37*
G36*
X105000D02*
X101441D01*
X101443Y499991D01*
X102299Y498509D01*
X103509Y497299D01*
X104991Y496443D01*
X105000Y496441D01*
Y500000D01*
D02*
G37*
G36*
X46102Y503040D02*
X43898D01*
X41862Y502197D01*
X40303Y500638D01*
X39460Y498602D01*
Y496398D01*
X40303Y494362D01*
X41862Y492803D01*
X43898Y491960D01*
X46102D01*
X48138Y492803D01*
X49697Y494362D01*
X50540Y496398D01*
Y498602D01*
X49697Y500638D01*
X48138Y502197D01*
X46102Y503040D01*
D02*
G37*
G36*
X223602Y503040D02*
X221398D01*
X219362Y502197D01*
X217803Y500638D01*
X216960Y498602D01*
Y496398D01*
X217803Y494362D01*
X218836Y493330D01*
X219221Y492500D01*
X218836Y491670D01*
X217803Y490638D01*
X216960Y488602D01*
Y486398D01*
X217803Y484362D01*
X219362Y482803D01*
X221398Y481960D01*
X223602D01*
X225638Y482803D01*
X227197Y484362D01*
X228040Y486398D01*
Y488602D01*
X227197Y490638D01*
X226164Y491670D01*
X225779Y492500D01*
X226164Y493330D01*
X227197Y494362D01*
X228040Y496398D01*
Y498602D01*
X227197Y500638D01*
X225638Y502197D01*
X223602Y503040D01*
D02*
G37*
G36*
X136102Y485540D02*
X133898D01*
X131862Y484697D01*
X130303Y483138D01*
X129460Y481102D01*
Y478898D01*
X130303Y476862D01*
X131862Y475303D01*
X133898Y474460D01*
X136102D01*
X138138Y475303D01*
X139697Y476862D01*
X140540Y478898D01*
Y481102D01*
X139697Y483138D01*
X138138Y484697D01*
X136102Y485540D01*
D02*
G37*
G36*
X303602Y513040D02*
X301398D01*
X299362Y512197D01*
X297803Y510638D01*
X296960Y508602D01*
Y506398D01*
X297803Y504362D01*
X298836Y503330D01*
X299221Y502500D01*
X298836Y501670D01*
X297803Y500638D01*
X296960Y498602D01*
Y496398D01*
X297803Y494362D01*
X298836Y493330D01*
X299221Y492500D01*
X298836Y491670D01*
X297803Y490638D01*
X296960Y488602D01*
Y486398D01*
X297803Y484362D01*
X298836Y483330D01*
X299221Y482500D01*
X298836Y481670D01*
X297803Y480638D01*
X296960Y478602D01*
Y476398D01*
X297803Y474362D01*
X299362Y472803D01*
X301398Y471960D01*
X303602D01*
X305638Y472803D01*
X307197Y474362D01*
X308040Y476398D01*
Y478602D01*
X307197Y480638D01*
X306164Y481670D01*
X305779Y482500D01*
X306164Y483330D01*
X307197Y484362D01*
X308040Y486398D01*
Y488602D01*
X307197Y490638D01*
X306164Y491670D01*
X305779Y492500D01*
X306164Y493330D01*
X307197Y494362D01*
X308040Y496398D01*
Y498602D01*
X307197Y500638D01*
X306164Y501670D01*
X305779Y502500D01*
X306164Y503330D01*
X307197Y504362D01*
X308040Y506398D01*
Y508602D01*
X307197Y510638D01*
X305638Y512197D01*
X303602Y513040D01*
D02*
G37*
G36*
X281102Y483040D02*
X278898D01*
X276862Y482197D01*
X275303Y480638D01*
X274460Y478602D01*
Y476398D01*
X275303Y474362D01*
X276862Y472803D01*
X278898Y471960D01*
X281102D01*
X283138Y472803D01*
X284697Y474362D01*
X285540Y476398D01*
Y478602D01*
X284697Y480638D01*
X283138Y482197D01*
X281102Y483040D01*
D02*
G37*
G36*
X473602Y480540D02*
X471398D01*
X469362Y479697D01*
X467803Y478138D01*
X466960Y476102D01*
Y473898D01*
X467803Y471862D01*
X469362Y470303D01*
X471398Y469460D01*
X473602D01*
X475638Y470303D01*
X477197Y471862D01*
X478040Y473898D01*
Y476102D01*
X477197Y478138D01*
X475638Y479697D01*
X473602Y480540D01*
D02*
G37*
G36*
X443602D02*
X441398D01*
X439362Y479697D01*
X437803Y478138D01*
X436960Y476102D01*
Y473898D01*
X437803Y471862D01*
X439362Y470303D01*
X441398Y469460D01*
X443602D01*
X445638Y470303D01*
X447197Y471862D01*
X448040Y473898D01*
Y476102D01*
X447197Y478138D01*
X445638Y479697D01*
X443602Y480540D01*
D02*
G37*
G36*
X351102D02*
X348898D01*
X346862Y479697D01*
X345303Y478138D01*
X344460Y476102D01*
Y473898D01*
X345303Y471862D01*
X346862Y470303D01*
X348898Y469460D01*
X351102D01*
X353138Y470303D01*
X354697Y471862D01*
X355540Y473898D01*
Y476102D01*
X354697Y478138D01*
X353138Y479697D01*
X351102Y480540D01*
D02*
G37*
G36*
X236102Y478040D02*
X233898D01*
X231862Y477197D01*
X230303Y475638D01*
X229460Y473602D01*
Y471398D01*
X230303Y469362D01*
X231862Y467803D01*
X233898Y466960D01*
X236102D01*
X238138Y467803D01*
X239697Y469362D01*
X240540Y471398D01*
Y473602D01*
X239697Y475638D01*
X238138Y477197D01*
X236102Y478040D01*
D02*
G37*
G36*
X338602Y478040D02*
X336398D01*
X334362Y477197D01*
X332803Y475638D01*
X331960Y473602D01*
Y471398D01*
X332803Y469362D01*
X334362Y467803D01*
X336398Y466960D01*
X338602D01*
X340638Y467803D01*
X342197Y469362D01*
X343040Y471398D01*
Y473602D01*
X342197Y475638D01*
X340638Y477197D01*
X338602Y478040D01*
D02*
G37*
G36*
X188602Y483540D02*
X186398D01*
X184362Y482697D01*
X182803Y481138D01*
X181960Y479102D01*
Y476898D01*
X182803Y474862D01*
X183836Y473830D01*
X184221Y473000D01*
X183836Y472170D01*
X182803Y471138D01*
X181960Y469102D01*
Y466898D01*
X182803Y464862D01*
X184362Y463303D01*
X186398Y462460D01*
X188602D01*
X190638Y463303D01*
X192197Y464862D01*
X193040Y466898D01*
Y469102D01*
X192197Y471138D01*
X191164Y472170D01*
X190779Y473000D01*
X191164Y473830D01*
X192197Y474862D01*
X193040Y476898D01*
Y479102D01*
X192197Y481138D01*
X190638Y482697D01*
X188602Y483540D01*
D02*
G37*
G36*
X73602Y470540D02*
X71398D01*
X69362Y469697D01*
X67803Y468138D01*
X66960Y466102D01*
Y463898D01*
X67803Y461862D01*
X69362Y460303D01*
X71398Y459460D01*
X73602D01*
X75638Y460303D01*
X77197Y461862D01*
X78040Y463898D01*
Y466102D01*
X77197Y468138D01*
X75638Y469697D01*
X73602Y470540D01*
D02*
G37*
G36*
X321102Y460540D02*
X318898D01*
X316862Y459697D01*
X315303Y458138D01*
X314460Y456102D01*
Y453898D01*
X315303Y451862D01*
X316862Y450303D01*
X318898Y449460D01*
X321102D01*
X323138Y450303D01*
X324697Y451862D01*
X325540Y453898D01*
Y456102D01*
X324697Y458138D01*
X323138Y459697D01*
X321102Y460540D01*
D02*
G37*
G36*
X147500Y451059D02*
Y447500D01*
X151059D01*
X151057Y447509D01*
X150201Y448991D01*
X148991Y450201D01*
X147509Y451057D01*
X147500Y451059D01*
D02*
G37*
G36*
X142500D02*
X142491Y451057D01*
X141009Y450201D01*
X139799Y448991D01*
X138943Y447509D01*
X138941Y447500D01*
X142500D01*
Y451059D01*
D02*
G37*
G36*
X151059Y442500D02*
X147500D01*
Y438941D01*
X147509Y438943D01*
X148991Y439799D01*
X150201Y441009D01*
X151057Y442491D01*
X151059Y442500D01*
D02*
G37*
G36*
X142500D02*
X138941D01*
X138943Y442491D01*
X139799Y441009D01*
X141009Y439799D01*
X142491Y438943D01*
X142500Y438941D01*
Y442500D01*
D02*
G37*
G36*
X343602Y443040D02*
X341398D01*
X339362Y442197D01*
X337803Y440638D01*
X336960Y438602D01*
Y436398D01*
X337803Y434362D01*
X339362Y432803D01*
X341398Y431960D01*
X343602D01*
X345638Y432803D01*
X347197Y434362D01*
X348040Y436398D01*
Y438602D01*
X347197Y440638D01*
X345638Y442197D01*
X343602Y443040D01*
D02*
G37*
G36*
X71102D02*
X68898D01*
X66862Y442197D01*
X65303Y440638D01*
X64460Y438602D01*
Y436398D01*
X65303Y434362D01*
X66862Y432803D01*
X68898Y431960D01*
X71102D01*
X73138Y432803D01*
X74697Y434362D01*
X75540Y436398D01*
Y438602D01*
X74697Y440638D01*
X73138Y442197D01*
X71102Y443040D01*
D02*
G37*
G36*
X473602Y435540D02*
X471398D01*
X469362Y434697D01*
X467803Y433138D01*
X466960Y431102D01*
Y428898D01*
X467803Y426862D01*
X469362Y425303D01*
X471398Y424460D01*
X473602D01*
X475638Y425303D01*
X477197Y426862D01*
X478040Y428898D01*
Y431102D01*
X477197Y433138D01*
X475638Y434697D01*
X473602Y435540D01*
D02*
G37*
G36*
X443602D02*
X441398D01*
X439362Y434697D01*
X437803Y433138D01*
X436960Y431102D01*
Y428898D01*
X437803Y426862D01*
X439362Y425303D01*
X441398Y424460D01*
X443602D01*
X445638Y425303D01*
X447197Y426862D01*
X448040Y428898D01*
Y431102D01*
X447197Y433138D01*
X445638Y434697D01*
X443602Y435540D01*
D02*
G37*
G36*
X222500Y429771D02*
Y420000D01*
X232271D01*
X231648Y422325D01*
X230002Y425175D01*
X227675Y427502D01*
X224825Y429148D01*
X222500Y429771D01*
D02*
G37*
G36*
X217500Y429771D02*
X215175Y429148D01*
X212325Y427502D01*
X209998Y425175D01*
X208352Y422325D01*
X207729Y420000D01*
X217500D01*
Y429771D01*
D02*
G37*
G36*
X196119Y429040D02*
X193081D01*
X190146Y428254D01*
X187514Y426734D01*
X185366Y424586D01*
X183846Y421954D01*
X183060Y419019D01*
Y415981D01*
X183846Y413046D01*
X185366Y410414D01*
X187514Y408266D01*
X190146Y406746D01*
X193081Y405960D01*
X196119D01*
X199054Y406746D01*
X201686Y408266D01*
X203834Y410414D01*
X205354Y413046D01*
X206140Y415981D01*
Y419019D01*
X205354Y421954D01*
X203834Y424586D01*
X201686Y426734D01*
X199054Y428254D01*
X196119Y429040D01*
D02*
G37*
G36*
X170719D02*
X167681D01*
X164746Y428254D01*
X162114Y426734D01*
X159966Y424586D01*
X158446Y421954D01*
X157660Y419019D01*
Y415981D01*
X158446Y413046D01*
X159966Y410414D01*
X162114Y408266D01*
X164746Y406746D01*
X167681Y405960D01*
X170719D01*
X173654Y406746D01*
X176286Y408266D01*
X178434Y410414D01*
X179953Y413046D01*
X180740Y415981D01*
Y419019D01*
X179953Y421954D01*
X178434Y424586D01*
X176286Y426734D01*
X173654Y428254D01*
X170719Y429040D01*
D02*
G37*
G36*
X145319D02*
X142281D01*
X139346Y428254D01*
X136714Y426734D01*
X134566Y424586D01*
X133046Y421954D01*
X132260Y419019D01*
Y415981D01*
X133046Y413046D01*
X134566Y410414D01*
X136714Y408266D01*
X139346Y406746D01*
X142281Y405960D01*
X145319D01*
X148254Y406746D01*
X150886Y408266D01*
X153034Y410414D01*
X154553Y413046D01*
X155340Y415981D01*
Y419019D01*
X154553Y421954D01*
X153034Y424586D01*
X150886Y426734D01*
X148254Y428254D01*
X145319Y429040D01*
D02*
G37*
G36*
X249900Y429101D02*
X240900D01*
X239062Y428859D01*
X237350Y428149D01*
X235879Y427021D01*
X234751Y425550D01*
X234041Y423838D01*
X233799Y422000D01*
Y413000D01*
X234041Y411162D01*
X234751Y409450D01*
X235879Y407979D01*
X237350Y406851D01*
X239062Y406141D01*
X240900Y405899D01*
X249900D01*
X251738Y406141D01*
X253450Y406851D01*
X254921Y407979D01*
X256049Y409450D01*
X256759Y411162D01*
X257001Y413000D01*
Y422000D01*
X256759Y423838D01*
X256049Y425550D01*
X254921Y427021D01*
X253450Y428149D01*
X251738Y428859D01*
X249900Y429101D01*
D02*
G37*
G36*
X232271Y415000D02*
X222500D01*
Y405229D01*
X224825Y405852D01*
X227675Y407497D01*
X230002Y409825D01*
X231648Y412675D01*
X232271Y415000D01*
D02*
G37*
G36*
X217500D02*
X207729D01*
X208352Y412675D01*
X209998Y409825D01*
X212325Y407497D01*
X215175Y405852D01*
X217500Y405229D01*
Y415000D01*
D02*
G37*
G36*
X353602Y398040D02*
X351398D01*
X349362Y397197D01*
X347803Y395638D01*
X346960Y393602D01*
Y391398D01*
X347803Y389362D01*
X349362Y387803D01*
X351398Y386960D01*
X353602D01*
X355638Y387803D01*
X357197Y389362D01*
X358040Y391398D01*
Y393602D01*
X357197Y395638D01*
X355638Y397197D01*
X353602Y398040D01*
D02*
G37*
G36*
X301102D02*
X298898D01*
X296862Y397197D01*
X295303Y395638D01*
X294460Y393602D01*
Y391398D01*
X295303Y389362D01*
X296862Y387803D01*
X298898Y386960D01*
X301102D01*
X303138Y387803D01*
X304697Y389362D01*
X305540Y391398D01*
Y393602D01*
X304697Y395638D01*
X303138Y397197D01*
X301102Y398040D01*
D02*
G37*
G36*
X443822Y385840D02*
X441178D01*
X438625Y385156D01*
X436335Y383834D01*
X434466Y381965D01*
X433144Y379675D01*
X432460Y377122D01*
Y374478D01*
X433144Y371925D01*
X434466Y369635D01*
X436335Y367766D01*
X438625Y366444D01*
X441178Y365760D01*
X443822D01*
X446375Y366444D01*
X448665Y367766D01*
X450534Y369635D01*
X451856Y371925D01*
X452540Y374478D01*
Y377122D01*
X451856Y379675D01*
X450534Y381965D01*
X448665Y383834D01*
X446375Y385156D01*
X443822Y385840D01*
D02*
G37*
G36*
X251102Y375540D02*
X248898D01*
X246862Y374697D01*
X245303Y373138D01*
X244460Y371102D01*
Y368898D01*
X245303Y366862D01*
X246862Y365303D01*
X248898Y364460D01*
X251102D01*
X253138Y365303D01*
X254697Y366862D01*
X255540Y368898D01*
Y371102D01*
X254697Y373138D01*
X253138Y374697D01*
X251102Y375540D01*
D02*
G37*
G36*
X196102D02*
X193898D01*
X191862Y374697D01*
X190303Y373138D01*
X189460Y371102D01*
Y368898D01*
X190303Y366862D01*
X191862Y365303D01*
X193898Y364460D01*
X196102D01*
X198138Y365303D01*
X199697Y366862D01*
X200540Y368898D01*
Y371102D01*
X199697Y373138D01*
X198138Y374697D01*
X196102Y375540D01*
D02*
G37*
G36*
X443822Y360440D02*
X441178D01*
X438625Y359756D01*
X436335Y358434D01*
X434466Y356565D01*
X433144Y354275D01*
X432460Y351722D01*
Y349078D01*
X433144Y346525D01*
X434466Y344235D01*
X436335Y342366D01*
X438625Y341044D01*
X441178Y340360D01*
X443822D01*
X446375Y341044D01*
X448665Y342366D01*
X450534Y344235D01*
X451856Y346525D01*
X452540Y349078D01*
Y351722D01*
X451856Y354275D01*
X450534Y356565D01*
X448665Y358434D01*
X446375Y359756D01*
X443822Y360440D01*
D02*
G37*
G36*
X445000Y335718D02*
Y327500D01*
X453218D01*
X452750Y329246D01*
X451302Y331754D01*
X449254Y333802D01*
X446746Y335250D01*
X445000Y335718D01*
D02*
G37*
G36*
X440000Y335718D02*
X438254Y335250D01*
X435746Y333802D01*
X433698Y331754D01*
X432250Y329246D01*
X431782Y327500D01*
X440000D01*
Y335718D01*
D02*
G37*
G36*
X238602Y328040D02*
X236398D01*
X234362Y327197D01*
X232803Y325638D01*
X231960Y323602D01*
Y321398D01*
X232803Y319362D01*
X234362Y317803D01*
X236398Y316960D01*
X238602D01*
X240638Y317803D01*
X242197Y319362D01*
X243040Y321398D01*
Y323602D01*
X242197Y325638D01*
X240638Y327197D01*
X238602Y328040D01*
D02*
G37*
G36*
X326102Y325540D02*
X323898D01*
X321862Y324697D01*
X320303Y323138D01*
X319460Y321102D01*
Y318898D01*
X320303Y316862D01*
X321862Y315303D01*
X323898Y314460D01*
X326102D01*
X328138Y315303D01*
X329697Y316862D01*
X330540Y318898D01*
Y321102D01*
X329697Y323138D01*
X328138Y324697D01*
X326102Y325540D01*
D02*
G37*
G36*
X276102D02*
X273898D01*
X271862Y324697D01*
X270303Y323138D01*
X269460Y321102D01*
Y318898D01*
X270303Y316862D01*
X271862Y315303D01*
X273898Y314460D01*
X276102D01*
X278138Y315303D01*
X279697Y316862D01*
X280540Y318898D01*
Y321102D01*
X279697Y323138D01*
X278138Y324697D01*
X276102Y325540D01*
D02*
G37*
G36*
X203602D02*
X201398D01*
X199362Y324697D01*
X197803Y323138D01*
X196960Y321102D01*
Y318898D01*
X197803Y316862D01*
X199362Y315303D01*
X201398Y314460D01*
X203602D01*
X205638Y315303D01*
X207197Y316862D01*
X208040Y318898D01*
Y321102D01*
X207197Y323138D01*
X205638Y324697D01*
X203602Y325540D01*
D02*
G37*
G36*
X156102D02*
X153898D01*
X151862Y324697D01*
X150303Y323138D01*
X149460Y321102D01*
Y318898D01*
X150303Y316862D01*
X151862Y315303D01*
X153898Y314460D01*
X156102D01*
X158138Y315303D01*
X159697Y316862D01*
X160540Y318898D01*
Y321102D01*
X159697Y323138D01*
X158138Y324697D01*
X156102Y325540D01*
D02*
G37*
G36*
X453218Y322500D02*
X445000D01*
Y314282D01*
X446746Y314750D01*
X449254Y316198D01*
X451302Y318246D01*
X452750Y320754D01*
X453218Y322500D01*
D02*
G37*
G36*
X440000D02*
X431782D01*
X432250Y320754D01*
X433698Y318246D01*
X435746Y316198D01*
X438254Y314750D01*
X440000Y314282D01*
Y322500D01*
D02*
G37*
G36*
X141102Y298040D02*
X138898D01*
X136862Y297197D01*
X135303Y295638D01*
X134460Y293602D01*
Y291398D01*
X135303Y289362D01*
X136862Y287803D01*
X138898Y286960D01*
X141102D01*
X143138Y287803D01*
X144697Y289362D01*
X145540Y291398D01*
Y293602D01*
X144697Y295638D01*
X143138Y297197D01*
X141102Y298040D01*
D02*
G37*
G36*
X376519Y281740D02*
X373481D01*
X370546Y280954D01*
X367914Y279434D01*
X365766Y277286D01*
X364246Y274654D01*
X363460Y271719D01*
Y268681D01*
X364246Y265746D01*
X365766Y263114D01*
X367914Y260966D01*
X370546Y259446D01*
X373481Y258660D01*
X376519D01*
X379454Y259446D01*
X382086Y260966D01*
X384234Y263114D01*
X385754Y265746D01*
X386540Y268681D01*
Y271719D01*
X385754Y274654D01*
X384234Y277286D01*
X382086Y279434D01*
X379454Y280954D01*
X376519Y281740D01*
D02*
G37*
G36*
X116102Y255540D02*
X113898D01*
X111862Y254697D01*
X110303Y253138D01*
X109460Y251102D01*
Y248898D01*
X110303Y246862D01*
X111862Y245303D01*
X113898Y244460D01*
X116102D01*
X118138Y245303D01*
X119697Y246862D01*
X120540Y248898D01*
Y251102D01*
X119697Y253138D01*
X118138Y254697D01*
X116102Y255540D01*
D02*
G37*
G36*
X26102D02*
X23898D01*
X21862Y254697D01*
X20303Y253138D01*
X19460Y251102D01*
Y248898D01*
X20303Y246862D01*
X21862Y245303D01*
X23898Y244460D01*
X26102D01*
X28138Y245303D01*
X29697Y246862D01*
X30540Y248898D01*
Y251102D01*
X29697Y253138D01*
X28138Y254697D01*
X26102Y255540D01*
D02*
G37*
G36*
X136430Y248666D02*
X134226D01*
X132189Y247823D01*
X130631Y246265D01*
X129788Y244228D01*
Y242024D01*
X130631Y239988D01*
X132189Y238430D01*
X134226Y237586D01*
X136430D01*
X138466Y238430D01*
X140024Y239988D01*
X140868Y242024D01*
Y244228D01*
X140024Y246265D01*
X138466Y247823D01*
X136430Y248666D01*
D02*
G37*
G36*
X351102Y248040D02*
X348898D01*
X346862Y247197D01*
X345303Y245638D01*
X344460Y243602D01*
Y241398D01*
X345303Y239362D01*
X346862Y237803D01*
X348898Y236960D01*
X351102D01*
X353138Y237803D01*
X354697Y239362D01*
X355540Y241398D01*
Y243602D01*
X354697Y245638D01*
X353138Y247197D01*
X351102Y248040D01*
D02*
G37*
G36*
X298602D02*
X296398D01*
X294362Y247197D01*
X292803Y245638D01*
X291960Y243602D01*
Y241398D01*
X292803Y239362D01*
X294362Y237803D01*
X296398Y236960D01*
X298602D01*
X300638Y237803D01*
X302197Y239362D01*
X303040Y241398D01*
Y243602D01*
X302197Y245638D01*
X300638Y247197D01*
X298602Y248040D01*
D02*
G37*
G36*
X248602D02*
X246398D01*
X244362Y247197D01*
X242803Y245638D01*
X241960Y243602D01*
Y241398D01*
X242803Y239362D01*
X244362Y237803D01*
X246398Y236960D01*
X248602D01*
X250638Y237803D01*
X252197Y239362D01*
X253040Y241398D01*
Y243602D01*
X252197Y245638D01*
X250638Y247197D01*
X248602Y248040D01*
D02*
G37*
G36*
X186102D02*
X183898D01*
X181862Y247197D01*
X180303Y245638D01*
X179460Y243602D01*
Y241398D01*
X180303Y239362D01*
X181862Y237803D01*
X183898Y236960D01*
X186102D01*
X188138Y237803D01*
X189697Y239362D01*
X190540Y241398D01*
Y243602D01*
X189697Y245638D01*
X188138Y247197D01*
X186102Y248040D01*
D02*
G37*
G36*
X376519Y256340D02*
X373481D01*
X370546Y255553D01*
X367914Y254034D01*
X365766Y251886D01*
X364246Y249254D01*
X363460Y246319D01*
Y243281D01*
X364246Y240346D01*
X365766Y237714D01*
X367914Y235566D01*
X370546Y234046D01*
X373481Y233260D01*
X376519D01*
X379454Y234046D01*
X382086Y235566D01*
X384234Y237714D01*
X385754Y240346D01*
X386540Y243281D01*
Y246319D01*
X385754Y249254D01*
X384234Y251886D01*
X382086Y254034D01*
X379454Y255553D01*
X376519Y256340D01*
D02*
G37*
G36*
X116102Y218040D02*
X113898D01*
X111862Y217197D01*
X110303Y215638D01*
X109460Y213602D01*
Y211398D01*
X110303Y209362D01*
X111862Y207803D01*
X113898Y206960D01*
X116102D01*
X118138Y207803D01*
X119697Y209362D01*
X120540Y211398D01*
Y213602D01*
X119697Y215638D01*
X118138Y217197D01*
X116102Y218040D01*
D02*
G37*
G36*
X26102D02*
X23898D01*
X21862Y217197D01*
X20303Y215638D01*
X19460Y213602D01*
Y211398D01*
X20303Y209362D01*
X21862Y207803D01*
X23898Y206960D01*
X26102D01*
X28138Y207803D01*
X29697Y209362D01*
X30540Y211398D01*
Y213602D01*
X29697Y215638D01*
X28138Y217197D01*
X26102Y218040D01*
D02*
G37*
G36*
X411719Y224040D02*
X408681D01*
X405746Y223253D01*
X403114Y221734D01*
X400966Y219586D01*
X399446Y216954D01*
X398660Y214019D01*
Y210981D01*
X399446Y208046D01*
X400966Y205414D01*
X403114Y203266D01*
X405746Y201746D01*
X408681Y200960D01*
X411719D01*
X414654Y201746D01*
X417286Y203266D01*
X419434Y205414D01*
X420954Y208046D01*
X421740Y210981D01*
Y214019D01*
X420954Y216954D01*
X419434Y219586D01*
X417286Y221734D01*
X414654Y223253D01*
X411719Y224040D01*
D02*
G37*
G36*
X386319D02*
X383281D01*
X380346Y223253D01*
X377714Y221734D01*
X375566Y219586D01*
X374047Y216954D01*
X373260Y214019D01*
Y210981D01*
X374047Y208046D01*
X375566Y205414D01*
X377714Y203266D01*
X380346Y201746D01*
X383281Y200960D01*
X386319D01*
X389254Y201746D01*
X391886Y203266D01*
X394034Y205414D01*
X395554Y208046D01*
X396340Y210981D01*
Y214019D01*
X395554Y216954D01*
X394034Y219586D01*
X391886Y221734D01*
X389254Y223253D01*
X386319Y224040D01*
D02*
G37*
G36*
X456102Y208040D02*
X453898D01*
X451862Y207197D01*
X450303Y205638D01*
X449460Y203602D01*
Y201398D01*
X450303Y199362D01*
X451862Y197803D01*
X453898Y196960D01*
X456102D01*
X458138Y197803D01*
X459697Y199362D01*
X460540Y201398D01*
Y203602D01*
X459697Y205638D01*
X458138Y207197D01*
X456102Y208040D01*
D02*
G37*
G36*
X138096Y177171D02*
X135892D01*
X133856Y176328D01*
X132298Y174769D01*
X131454Y172733D01*
Y170529D01*
X132298Y168493D01*
X133856Y166935D01*
X135892Y166091D01*
X138096D01*
X140133Y166935D01*
X141691Y168493D01*
X142534Y170529D01*
Y172733D01*
X141691Y174769D01*
X140133Y176328D01*
X138096Y177171D01*
D02*
G37*
G36*
X323602Y173040D02*
X321398D01*
X319362Y172197D01*
X317803Y170638D01*
X316960Y168602D01*
Y166398D01*
X317803Y164362D01*
X319362Y162803D01*
X321398Y161960D01*
X323602D01*
X325638Y162803D01*
X327197Y164362D01*
X328040Y166398D01*
Y168602D01*
X327197Y170638D01*
X325638Y172197D01*
X323602Y173040D01*
D02*
G37*
G36*
X273602D02*
X271398D01*
X269362Y172197D01*
X267803Y170638D01*
X266960Y168602D01*
Y166398D01*
X267803Y164362D01*
X269362Y162803D01*
X271398Y161960D01*
X273602D01*
X275638Y162803D01*
X277197Y164362D01*
X278040Y166398D01*
Y168602D01*
X277197Y170638D01*
X275638Y172197D01*
X273602Y173040D01*
D02*
G37*
G36*
X178602D02*
X176398D01*
X174362Y172197D01*
X172803Y170638D01*
X171960Y168602D01*
Y166398D01*
X172803Y164362D01*
X174362Y162803D01*
X176398Y161960D01*
X178602D01*
X180638Y162803D01*
X182197Y164362D01*
X183040Y166398D01*
Y168602D01*
X182197Y170638D01*
X180638Y172197D01*
X178602Y173040D01*
D02*
G37*
G36*
X226852Y171790D02*
X224648D01*
X222612Y170947D01*
X221053Y169388D01*
X220210Y167352D01*
Y165148D01*
X221053Y163112D01*
X222612Y161553D01*
X224648Y160710D01*
X226852D01*
X228888Y161553D01*
X230447Y163112D01*
X231290Y165148D01*
Y167352D01*
X230447Y169388D01*
X228888Y170947D01*
X226852Y171790D01*
D02*
G37*
G36*
X331651Y152540D02*
X328349D01*
X325160Y151685D01*
X322300Y150035D01*
X319965Y147700D01*
X318315Y144840D01*
X318135Y144170D01*
X316865D01*
X316685Y144840D01*
X315035Y147700D01*
X312700Y150035D01*
X309840Y151685D01*
X306651Y152540D01*
X303349D01*
X300160Y151685D01*
X297300Y150035D01*
X294965Y147700D01*
X293315Y144840D01*
X293135Y144170D01*
X291865D01*
X291685Y144840D01*
X290035Y147700D01*
X287700Y150035D01*
X284840Y151685D01*
X281651Y152540D01*
X278349D01*
X275160Y151685D01*
X272300Y150035D01*
X269965Y147700D01*
X268315Y144840D01*
X268135Y144170D01*
X266865D01*
X266685Y144840D01*
X265035Y147700D01*
X262700Y150035D01*
X259840Y151685D01*
X256651Y152540D01*
X253349D01*
X250160Y151685D01*
X247300Y150035D01*
X244965Y147700D01*
X243315Y144840D01*
X243135Y144170D01*
X241865D01*
X241685Y144840D01*
X240035Y147700D01*
X237700Y150035D01*
X234840Y151685D01*
X231651Y152540D01*
X228349D01*
X225160Y151685D01*
X222300Y150035D01*
X219965Y147700D01*
X218315Y144840D01*
X218135Y144170D01*
X216865D01*
X216685Y144840D01*
X215035Y147700D01*
X212700Y150035D01*
X209840Y151685D01*
X206651Y152540D01*
X203349D01*
X200160Y151685D01*
X197300Y150035D01*
X194965Y147700D01*
X193315Y144840D01*
X193135Y144170D01*
X191865D01*
X191685Y144840D01*
X190035Y147700D01*
X187700Y150035D01*
X184840Y151685D01*
X181651Y152540D01*
X178349D01*
X175160Y151685D01*
X172300Y150035D01*
X169965Y147700D01*
X168810Y145698D01*
X167540Y146039D01*
Y152540D01*
X142460D01*
Y127460D01*
X148961D01*
X149302Y126190D01*
X147300Y125035D01*
X144965Y122700D01*
X143315Y119840D01*
X142460Y116651D01*
Y113349D01*
X143315Y110160D01*
X144965Y107300D01*
X147300Y104965D01*
X150160Y103315D01*
X153349Y102460D01*
X156651D01*
X159840Y103315D01*
X162700Y104965D01*
X165035Y107300D01*
X166685Y110160D01*
X166865Y110830D01*
X168135D01*
X168315Y110160D01*
X169965Y107300D01*
X172300Y104965D01*
X175160Y103315D01*
X178349Y102460D01*
X181651D01*
X184840Y103315D01*
X187700Y104965D01*
X190035Y107300D01*
X191685Y110160D01*
X191865Y110830D01*
X193135D01*
X193315Y110160D01*
X194965Y107300D01*
X197300Y104965D01*
X200160Y103315D01*
X203349Y102460D01*
X206651D01*
X209840Y103315D01*
X212700Y104965D01*
X215035Y107300D01*
X216685Y110160D01*
X216865Y110830D01*
X218135D01*
X218315Y110160D01*
X219965Y107300D01*
X222300Y104965D01*
X225160Y103315D01*
X228349Y102460D01*
X231651D01*
X234840Y103315D01*
X237700Y104965D01*
X240035Y107300D01*
X241685Y110160D01*
X241865Y110830D01*
X243135D01*
X243315Y110160D01*
X244965Y107300D01*
X247300Y104965D01*
X250160Y103315D01*
X253349Y102460D01*
X256651D01*
X259840Y103315D01*
X262700Y104965D01*
X265035Y107300D01*
X266685Y110160D01*
X266865Y110830D01*
X268135D01*
X268315Y110160D01*
X269965Y107300D01*
X272300Y104965D01*
X275160Y103315D01*
X278349Y102460D01*
X281651D01*
X284840Y103315D01*
X287700Y104965D01*
X290035Y107300D01*
X291244Y109395D01*
X291402Y109448D01*
X292679Y109341D01*
X294197Y106711D01*
X296711Y104197D01*
X299789Y102420D01*
X302500Y101694D01*
Y115000D01*
X307500D01*
Y101694D01*
X310211Y102420D01*
X313289Y104197D01*
X315803Y106711D01*
X317321Y109341D01*
X318598Y109448D01*
X318756Y109395D01*
X319965Y107300D01*
X322300Y104965D01*
X325160Y103315D01*
X328349Y102460D01*
X331651D01*
X334840Y103315D01*
X337700Y104965D01*
X340034Y107300D01*
X341685Y110160D01*
X342540Y113349D01*
Y116651D01*
X341685Y119840D01*
X340034Y122700D01*
X337700Y125035D01*
X334840Y126685D01*
X334170Y126865D01*
Y128135D01*
X334840Y128315D01*
X337700Y129965D01*
X340034Y132300D01*
X341685Y135160D01*
X342540Y138349D01*
Y141651D01*
X341685Y144840D01*
X340034Y147700D01*
X337700Y150035D01*
X334840Y151685D01*
X331651Y152540D01*
D02*
G37*
G36*
X108602Y110540D02*
X106398D01*
X104362Y109697D01*
X102803Y108138D01*
X101960Y106102D01*
Y103898D01*
X102803Y101862D01*
X104362Y100303D01*
X106398Y99460D01*
X108602D01*
X110638Y100303D01*
X112197Y101862D01*
X113040Y103898D01*
Y106102D01*
X112197Y108138D01*
X110638Y109697D01*
X108602Y110540D01*
D02*
G37*
G36*
X330509Y54150D02*
X327471D01*
X324536Y53363D01*
X321904Y51844D01*
X319756Y49696D01*
X318236Y47064D01*
X317450Y44129D01*
Y41091D01*
X318236Y38156D01*
X319756Y35524D01*
X321904Y33376D01*
X324536Y31856D01*
X327471Y31070D01*
X330509D01*
X333444Y31856D01*
X336076Y33376D01*
X338224Y35524D01*
X339743Y38156D01*
X340530Y41091D01*
Y44129D01*
X339743Y47064D01*
X338224Y49696D01*
X336076Y51844D01*
X333444Y53363D01*
X330509Y54150D01*
D02*
G37*
G36*
X156519D02*
X153481D01*
X150546Y53363D01*
X147914Y51844D01*
X145766Y49696D01*
X144246Y47064D01*
X143460Y44129D01*
Y41091D01*
X144246Y38156D01*
X145766Y35524D01*
X147914Y33376D01*
X150546Y31856D01*
X153481Y31070D01*
X156519D01*
X159454Y31856D01*
X162086Y33376D01*
X164234Y35524D01*
X165753Y38156D01*
X166540Y41091D01*
Y44129D01*
X165753Y47064D01*
X164234Y49696D01*
X162086Y51844D01*
X159454Y53363D01*
X156519Y54150D01*
D02*
G37*
G36*
X351201Y41040D02*
X348799D01*
X346579Y40121D01*
X344879Y38421D01*
X343960Y36201D01*
Y33799D01*
X344879Y31579D01*
X346579Y29880D01*
X348799Y28960D01*
X351201D01*
X353421Y29880D01*
X355121Y31579D01*
X356040Y33799D01*
Y36201D01*
X355121Y38421D01*
X353421Y40121D01*
X351201Y41040D01*
D02*
G37*
%LPD*%
G36*
X405000Y812500D02*
X420094D01*
X421398Y811960D01*
X423602D01*
X424906Y812500D01*
X480000D01*
Y702500D01*
X425000D01*
Y628314D01*
X423730Y627852D01*
X422509Y628557D01*
X422500Y628559D01*
Y622500D01*
Y616441D01*
X422509Y616443D01*
X423730Y617148D01*
X425000Y616686D01*
Y582500D01*
X354631D01*
X354105Y583770D01*
X354697Y584362D01*
X355540Y586398D01*
Y588602D01*
X354697Y590638D01*
X353138Y592197D01*
X351102Y593040D01*
X348898D01*
X346862Y592197D01*
X345303Y590638D01*
X344460Y588602D01*
Y586398D01*
X345303Y584362D01*
X345895Y583770D01*
X345369Y582500D01*
X290000D01*
Y652500D01*
X227131D01*
X226605Y653770D01*
X227197Y654362D01*
X228040Y656398D01*
Y658602D01*
X227197Y660638D01*
X225638Y662197D01*
X223602Y663040D01*
X221398D01*
X221056Y662898D01*
X220000Y663604D01*
Y707500D01*
X177500D01*
Y792507D01*
X180200Y794065D01*
X182535Y796400D01*
X184185Y799260D01*
X185040Y802449D01*
Y805751D01*
X184185Y808940D01*
X182535Y811800D01*
X180200Y814135D01*
X177500Y815693D01*
Y817507D01*
X180200Y819065D01*
X182535Y821400D01*
X184185Y824260D01*
X185040Y827449D01*
Y830751D01*
X184185Y833940D01*
X182535Y836800D01*
X180200Y839135D01*
X177500Y840693D01*
Y872500D01*
X405000D01*
Y812500D01*
D02*
G37*
%LPC*%
G36*
X392500Y853559D02*
Y850000D01*
X396059D01*
X396057Y850009D01*
X395201Y851491D01*
X393991Y852701D01*
X392509Y853557D01*
X392500Y853559D01*
D02*
G37*
G36*
X387500D02*
X387491Y853557D01*
X386009Y852701D01*
X384799Y851491D01*
X383943Y850009D01*
X383941Y850000D01*
X387500D01*
Y853559D01*
D02*
G37*
G36*
X243602Y855540D02*
X241398D01*
X239362Y854697D01*
X237803Y853138D01*
X236960Y851102D01*
Y848898D01*
X237803Y846862D01*
X239362Y845303D01*
X241398Y844460D01*
X243602D01*
X245638Y845303D01*
X247197Y846862D01*
X248040Y848898D01*
Y851102D01*
X247197Y853138D01*
X245638Y854697D01*
X243602Y855540D01*
D02*
G37*
G36*
X396059Y845000D02*
X392500D01*
Y841441D01*
X392509Y841443D01*
X393991Y842299D01*
X395201Y843509D01*
X396057Y844991D01*
X396059Y845000D01*
D02*
G37*
G36*
X387500D02*
X383941D01*
X383943Y844991D01*
X384799Y843509D01*
X386009Y842299D01*
X387491Y841443D01*
X387500Y841441D01*
Y845000D01*
D02*
G37*
G36*
X333503Y835040D02*
X331497D01*
X329645Y834273D01*
X328750Y833378D01*
X327855Y834273D01*
X326003Y835040D01*
X323997D01*
X322145Y834273D01*
X321250Y833378D01*
X320355Y834273D01*
X318503Y835040D01*
X316497D01*
X314645Y834273D01*
X313227Y832855D01*
X312460Y831003D01*
Y828997D01*
X313227Y827145D01*
X314645Y825727D01*
X314868Y825635D01*
Y824365D01*
X314645Y824273D01*
X313227Y822855D01*
X312460Y821003D01*
Y818997D01*
X313227Y817145D01*
X314645Y815727D01*
X314868Y815635D01*
Y814365D01*
X314645Y814273D01*
X313227Y812855D01*
X312460Y811003D01*
Y808997D01*
X313227Y807145D01*
X314645Y805727D01*
X314868Y805635D01*
Y804365D01*
X314645Y804273D01*
X313227Y802855D01*
X312460Y801003D01*
Y798997D01*
X313227Y797145D01*
X314645Y795727D01*
X314868Y795635D01*
Y794365D01*
X314645Y794273D01*
X313750Y793378D01*
X312855Y794273D01*
X311003Y795040D01*
X308997D01*
X307145Y794273D01*
X305727Y792855D01*
X304960Y791003D01*
Y788997D01*
X305727Y787145D01*
X307145Y785727D01*
X307368Y785635D01*
Y784365D01*
X307145Y784273D01*
X305727Y782855D01*
X304960Y781003D01*
Y778997D01*
X305727Y777145D01*
X307145Y775727D01*
X307368Y775635D01*
Y774365D01*
X307145Y774273D01*
X305727Y772855D01*
X304960Y771003D01*
Y768997D01*
X305727Y767145D01*
X307145Y765727D01*
X307368Y765635D01*
Y764365D01*
X307145Y764273D01*
X305727Y762855D01*
X304960Y761003D01*
Y758997D01*
X305727Y757145D01*
X307145Y755727D01*
X307368Y755635D01*
Y754365D01*
X307145Y754273D01*
X305727Y752855D01*
X304960Y751003D01*
Y748997D01*
X305727Y747145D01*
X307145Y745727D01*
X307368Y745635D01*
Y744365D01*
X307145Y744273D01*
X305727Y742855D01*
X304960Y741003D01*
Y738997D01*
X305727Y737145D01*
X307145Y735727D01*
X307368Y735635D01*
Y734365D01*
X307145Y734273D01*
X305727Y732855D01*
X304960Y731003D01*
Y728997D01*
X305727Y727145D01*
X307145Y725727D01*
X307368Y725635D01*
Y724365D01*
X307145Y724273D01*
X305727Y722855D01*
X304960Y721003D01*
Y718997D01*
X305727Y717145D01*
X307145Y715727D01*
X308997Y714960D01*
X311003D01*
X312855Y715727D01*
X313750Y716622D01*
X314645Y715727D01*
X316497Y714960D01*
X318503D01*
X320355Y715727D01*
X321250Y716622D01*
X322145Y715727D01*
X323997Y714960D01*
X326003D01*
X327855Y715727D01*
X328750Y716622D01*
X329645Y715727D01*
X331497Y714960D01*
X333503D01*
X335355Y715727D01*
X336250Y716622D01*
X337145Y715727D01*
X338997Y714960D01*
X341003D01*
X342855Y715727D01*
X343750Y716622D01*
X344645Y715727D01*
X346497Y714960D01*
X348503D01*
X350355Y715727D01*
X351250Y716622D01*
X352145Y715727D01*
X353997Y714960D01*
X356003D01*
X357855Y715727D01*
X358750Y716622D01*
X359645Y715727D01*
X361497Y714960D01*
X363503D01*
X365355Y715727D01*
X366773Y717145D01*
X367540Y718997D01*
Y721003D01*
X366773Y722855D01*
X365355Y724273D01*
X365132Y724365D01*
Y725635D01*
X365355Y725727D01*
X366773Y727145D01*
X367540Y728997D01*
Y731003D01*
X366773Y732855D01*
X365355Y734273D01*
X365132Y734365D01*
Y735635D01*
X365355Y735727D01*
X366773Y737145D01*
X367540Y738997D01*
Y741003D01*
X366773Y742855D01*
X365355Y744273D01*
X365132Y744365D01*
Y745635D01*
X365355Y745727D01*
X366773Y747145D01*
X367540Y748997D01*
Y751003D01*
X366773Y752855D01*
X365355Y754273D01*
X365132Y754365D01*
Y755635D01*
X365355Y755727D01*
X366773Y757145D01*
X367540Y758997D01*
Y761003D01*
X366773Y762855D01*
X365355Y764273D01*
X365132Y764365D01*
Y765635D01*
X365355Y765727D01*
X366773Y767145D01*
X367540Y768997D01*
Y771003D01*
X366773Y772855D01*
X365355Y774273D01*
X365132Y774365D01*
Y775635D01*
X365355Y775727D01*
X366773Y777145D01*
X367540Y778997D01*
Y781003D01*
X366773Y782855D01*
X365355Y784273D01*
X365132Y784365D01*
Y785635D01*
X365355Y785727D01*
X366773Y787145D01*
X367540Y788997D01*
Y791003D01*
X366773Y792855D01*
X365355Y794273D01*
X365132Y794365D01*
Y795635D01*
X365355Y795727D01*
X366773Y797145D01*
X367540Y798997D01*
Y801003D01*
X366773Y802855D01*
X365355Y804273D01*
X365132Y804365D01*
Y805635D01*
X365355Y805727D01*
X366773Y807145D01*
X367540Y808997D01*
Y811003D01*
X366773Y812855D01*
X365355Y814273D01*
X363503Y815040D01*
X361497D01*
X359645Y814273D01*
X358750Y813378D01*
X357855Y814273D01*
X356003Y815040D01*
X353997D01*
X352145Y814273D01*
X351250Y813378D01*
X350355Y814273D01*
X348503Y815040D01*
X346497D01*
X344645Y814273D01*
X343750Y813378D01*
X342855Y814273D01*
X341003Y815040D01*
X338997D01*
X337145Y814273D01*
X336250Y813378D01*
X335355Y814273D01*
X335132Y814365D01*
Y815635D01*
X335355Y815727D01*
X336773Y817145D01*
X337540Y818997D01*
Y821003D01*
X336773Y822855D01*
X335355Y824273D01*
X335132Y824365D01*
Y825635D01*
X335355Y825727D01*
X336773Y827145D01*
X337540Y828997D01*
Y831003D01*
X336773Y832855D01*
X335355Y834273D01*
X333503Y835040D01*
D02*
G37*
G36*
X227500Y823559D02*
Y820000D01*
X231059D01*
X231057Y820009D01*
X230201Y821491D01*
X228991Y822701D01*
X227509Y823557D01*
X227500Y823559D01*
D02*
G37*
G36*
X222500D02*
X222491Y823557D01*
X221009Y822701D01*
X219799Y821491D01*
X218943Y820009D01*
X218941Y820000D01*
X222500D01*
Y823559D01*
D02*
G37*
G36*
X231059Y815000D02*
X227500D01*
Y811441D01*
X227509Y811443D01*
X228991Y812299D01*
X230201Y813509D01*
X231057Y814991D01*
X231059Y815000D01*
D02*
G37*
G36*
X222500D02*
X218941D01*
X218943Y814991D01*
X219799Y813509D01*
X221009Y812299D01*
X222491Y811443D01*
X222500Y811441D01*
Y815000D01*
D02*
G37*
G36*
X296102Y815540D02*
X293898D01*
X291862Y814697D01*
X290303Y813138D01*
X289460Y811102D01*
Y808898D01*
X290303Y806862D01*
X291862Y805303D01*
X293898Y804460D01*
X296102D01*
X298138Y805303D01*
X299697Y806862D01*
X300540Y808898D01*
Y811102D01*
X299697Y813138D01*
X298138Y814697D01*
X296102Y815540D01*
D02*
G37*
G36*
X303602Y805540D02*
X301398D01*
X299362Y804697D01*
X297803Y803138D01*
X296960Y801102D01*
Y798898D01*
X297803Y796862D01*
X299362Y795303D01*
X301398Y794460D01*
X303602D01*
X305638Y795303D01*
X307197Y796862D01*
X308040Y798898D01*
Y801102D01*
X307197Y803138D01*
X305638Y804697D01*
X303602Y805540D01*
D02*
G37*
G36*
X201102Y785540D02*
X198898D01*
X196862Y784697D01*
X195303Y783138D01*
X194460Y781102D01*
Y778898D01*
X195303Y776862D01*
X196862Y775303D01*
X198898Y774460D01*
X201102D01*
X203138Y775303D01*
X204697Y776862D01*
X205540Y778898D01*
Y781102D01*
X204697Y783138D01*
X203138Y784697D01*
X201102Y785540D01*
D02*
G37*
G36*
X406102Y775540D02*
X403898D01*
X401862Y774697D01*
X400303Y773138D01*
X399460Y771102D01*
Y768898D01*
X400303Y766862D01*
X401862Y765303D01*
X403898Y764460D01*
X406102D01*
X408138Y765303D01*
X409697Y766862D01*
X410540Y768898D01*
Y771102D01*
X409697Y773138D01*
X408138Y774697D01*
X406102Y775540D01*
D02*
G37*
G36*
X468602Y765540D02*
X466398D01*
X464362Y764697D01*
X462803Y763138D01*
X461960Y761102D01*
Y758898D01*
X462803Y756862D01*
X464362Y755303D01*
X466398Y754460D01*
X468602D01*
X470638Y755303D01*
X472197Y756862D01*
X473040Y758898D01*
Y761102D01*
X472197Y763138D01*
X470638Y764697D01*
X468602Y765540D01*
D02*
G37*
G36*
X226102Y758040D02*
X223898D01*
X221862Y757197D01*
X220303Y755638D01*
X219460Y753602D01*
Y751398D01*
X220303Y749362D01*
X221862Y747803D01*
X223898Y746960D01*
X226102D01*
X228138Y747803D01*
X229697Y749362D01*
X230540Y751398D01*
Y753602D01*
X229697Y755638D01*
X228138Y757197D01*
X226102Y758040D01*
D02*
G37*
G36*
X406102Y755540D02*
X403898D01*
X401862Y754697D01*
X400303Y753138D01*
X399460Y751102D01*
Y748898D01*
X400303Y746862D01*
X401862Y745303D01*
X403898Y744460D01*
X406102D01*
X408138Y745303D01*
X409697Y746862D01*
X410540Y748898D01*
Y751102D01*
X409697Y753138D01*
X408138Y754697D01*
X406102Y755540D01*
D02*
G37*
G36*
X202500Y738559D02*
Y735000D01*
X206059D01*
X206057Y735009D01*
X205201Y736491D01*
X203991Y737701D01*
X202509Y738557D01*
X202500Y738559D01*
D02*
G37*
G36*
X197500D02*
X197491Y738557D01*
X196009Y737701D01*
X194799Y736491D01*
X193943Y735009D01*
X193941Y735000D01*
X197500D01*
Y738559D01*
D02*
G37*
G36*
X470000Y736059D02*
Y732500D01*
X473559D01*
X473557Y732509D01*
X472701Y733991D01*
X471491Y735201D01*
X470009Y736057D01*
X470000Y736059D01*
D02*
G37*
G36*
X465000D02*
X464991Y736057D01*
X463509Y735201D01*
X462299Y733991D01*
X461443Y732509D01*
X461441Y732500D01*
X465000D01*
Y736059D01*
D02*
G37*
G36*
X206059Y730000D02*
X202500D01*
Y726441D01*
X202509Y726443D01*
X203991Y727299D01*
X205201Y728509D01*
X206057Y729991D01*
X206059Y730000D01*
D02*
G37*
G36*
X197500D02*
X193941D01*
X193943Y729991D01*
X194799Y728509D01*
X196009Y727299D01*
X197491Y726443D01*
X197500Y726441D01*
Y730000D01*
D02*
G37*
G36*
X473559Y727500D02*
X470000D01*
Y723941D01*
X470009Y723943D01*
X471491Y724799D01*
X472701Y726009D01*
X473557Y727491D01*
X473559Y727500D01*
D02*
G37*
G36*
X465000D02*
X461441D01*
X461443Y727491D01*
X462299Y726009D01*
X463509Y724799D01*
X464991Y723943D01*
X465000Y723941D01*
Y727500D01*
D02*
G37*
G36*
X406102Y725540D02*
X403898D01*
X401862Y724697D01*
X400303Y723138D01*
X399460Y721102D01*
Y718898D01*
X400303Y716862D01*
X401862Y715303D01*
X403898Y714460D01*
X406102D01*
X408138Y715303D01*
X409697Y716862D01*
X410540Y718898D01*
Y721102D01*
X409697Y723138D01*
X408138Y724697D01*
X406102Y725540D01*
D02*
G37*
G36*
X201102Y723040D02*
X198898D01*
X196862Y722197D01*
X195303Y720638D01*
X194460Y718602D01*
Y716398D01*
X195303Y714362D01*
X196862Y712803D01*
X198898Y711960D01*
X201102D01*
X203138Y712803D01*
X204697Y714362D01*
X205540Y716398D01*
Y718602D01*
X204697Y720638D01*
X203138Y722197D01*
X201102Y723040D01*
D02*
G37*
G36*
X269339Y722442D02*
X267135D01*
X265099Y721599D01*
X263541Y720040D01*
X262697Y718004D01*
Y715800D01*
X263541Y713764D01*
X265099Y712206D01*
X267135Y711362D01*
X269339D01*
X271375Y712206D01*
X272934Y713764D01*
X273777Y715800D01*
Y718004D01*
X272934Y720040D01*
X271375Y721599D01*
X269339Y722442D01*
D02*
G37*
G36*
X301102Y708040D02*
X298898D01*
X296862Y707197D01*
X295303Y705638D01*
X294460Y703602D01*
Y701398D01*
X295303Y699362D01*
X296862Y697803D01*
X298898Y696960D01*
X301102D01*
X303138Y697803D01*
X304697Y699362D01*
X305540Y701398D01*
Y703602D01*
X304697Y705638D01*
X303138Y707197D01*
X301102Y708040D01*
D02*
G37*
G36*
X247500Y688559D02*
Y685000D01*
X251059D01*
X251057Y685009D01*
X250201Y686491D01*
X248991Y687701D01*
X247509Y688557D01*
X247500Y688559D01*
D02*
G37*
G36*
X242500D02*
X242491Y688557D01*
X241009Y687701D01*
X239799Y686491D01*
X238943Y685009D01*
X238941Y685000D01*
X242500D01*
Y688559D01*
D02*
G37*
G36*
X301102Y693040D02*
X298898D01*
X296862Y692197D01*
X295303Y690638D01*
X294460Y688602D01*
Y686398D01*
X295303Y684362D01*
X296862Y682803D01*
X298898Y681960D01*
X301102D01*
X303138Y682803D01*
X304697Y684362D01*
X305540Y686398D01*
Y688602D01*
X304697Y690638D01*
X303138Y692197D01*
X301102Y693040D01*
D02*
G37*
G36*
X251059Y680000D02*
X247500D01*
Y676441D01*
X247509Y676443D01*
X248991Y677299D01*
X250201Y678509D01*
X251057Y679991D01*
X251059Y680000D01*
D02*
G37*
G36*
X242500D02*
X238941D01*
X238943Y679991D01*
X239799Y678509D01*
X241009Y677299D01*
X242491Y676443D01*
X242500Y676441D01*
Y680000D01*
D02*
G37*
G36*
X365000Y638559D02*
Y635000D01*
X368559D01*
X368557Y635009D01*
X367701Y636491D01*
X366491Y637701D01*
X365009Y638557D01*
X365000Y638559D01*
D02*
G37*
G36*
X360000D02*
X359991Y638557D01*
X358509Y637701D01*
X357299Y636491D01*
X356443Y635009D01*
X356441Y635000D01*
X360000D01*
Y638559D01*
D02*
G37*
G36*
X368559Y630000D02*
X365000D01*
Y626441D01*
X365009Y626443D01*
X366491Y627299D01*
X367701Y628509D01*
X368557Y629991D01*
X368559Y630000D01*
D02*
G37*
G36*
X360000D02*
X356441D01*
X356443Y629991D01*
X357299Y628509D01*
X358509Y627299D01*
X359991Y626443D01*
X360000Y626441D01*
Y630000D01*
D02*
G37*
G36*
X417500Y628559D02*
X417491Y628557D01*
X416009Y627701D01*
X414799Y626491D01*
X413943Y625009D01*
X413941Y625000D01*
X417500D01*
Y628559D01*
D02*
G37*
G36*
Y620000D02*
X413941D01*
X413943Y619991D01*
X414799Y618509D01*
X416009Y617299D01*
X417491Y616443D01*
X417500Y616441D01*
Y620000D01*
D02*
G37*
G36*
X325000Y608559D02*
Y605000D01*
X328559D01*
X328557Y605009D01*
X327701Y606491D01*
X326491Y607701D01*
X325009Y608557D01*
X325000Y608559D01*
D02*
G37*
G36*
X320000D02*
X319991Y608557D01*
X318509Y607701D01*
X317299Y606491D01*
X316443Y605009D01*
X316441Y605000D01*
X320000D01*
Y608559D01*
D02*
G37*
G36*
X328559Y600000D02*
X325000D01*
Y596441D01*
X325009Y596443D01*
X326491Y597299D01*
X327701Y598509D01*
X328557Y599991D01*
X328559Y600000D01*
D02*
G37*
G36*
X320000D02*
X316441D01*
X316443Y599991D01*
X317299Y598509D01*
X318509Y597299D01*
X319991Y596443D01*
X320000Y596441D01*
Y600000D01*
D02*
G37*
%LPD*%
D17*
X442500Y325000D02*
D03*
Y375800D02*
D03*
Y350400D02*
D03*
D18*
X255000Y140000D02*
D03*
X280000D02*
D03*
X155000Y115000D02*
D03*
X180000D02*
D03*
X205000D02*
D03*
X230000D02*
D03*
X255000D02*
D03*
X280000D02*
D03*
X305000D02*
D03*
X330000D02*
D03*
X180000Y140000D02*
D03*
X205000D02*
D03*
X230000D02*
D03*
X305000D02*
D03*
X330000D02*
D03*
X122500Y804100D02*
D03*
X147500D02*
D03*
X172500D02*
D03*
X97500Y829100D02*
D03*
X122500D02*
D03*
X147500D02*
D03*
X172500D02*
D03*
D51*
X155000Y42610D02*
D03*
X328990D02*
D03*
X143800Y417500D02*
D03*
X169200D02*
D03*
X194600D02*
D03*
X220000D02*
D03*
X410200Y212500D02*
D03*
X384800D02*
D03*
X47500Y618300D02*
D03*
Y592900D02*
D03*
Y567500D02*
D03*
X375000Y244800D02*
D03*
Y270200D02*
D03*
D52*
X155000Y140000D02*
D03*
D53*
X462500Y912500D02*
D03*
X462500Y37500D02*
D03*
X37500D02*
D03*
Y912500D02*
D03*
D54*
X172500Y900900D02*
D03*
X97500D02*
D03*
D55*
Y804100D02*
D03*
D56*
X245400Y417500D02*
D03*
D57*
X47500Y542100D02*
D03*
D58*
X350000Y35000D02*
D03*
X292500Y847500D02*
D03*
X465000Y940000D02*
D03*
X485000Y932500D02*
D03*
X445000D02*
D03*
X437500Y912500D02*
D03*
X445000Y892500D02*
D03*
X465000Y885000D02*
D03*
X485000Y892500D02*
D03*
X492500Y912500D02*
D03*
X272500Y867500D02*
D03*
Y857500D02*
D03*
Y847500D02*
D03*
X292500Y867500D02*
D03*
Y857500D02*
D03*
X282500Y847500D02*
D03*
Y857500D02*
D03*
Y867500D02*
D03*
X462500Y65000D02*
D03*
X482500Y57500D02*
D03*
X490000Y37500D02*
D03*
X482500Y17500D02*
D03*
X462500Y10000D02*
D03*
X442500Y17500D02*
D03*
X435000Y37500D02*
D03*
X442500Y57500D02*
D03*
X57500Y932500D02*
D03*
X65000Y912500D02*
D03*
X57500Y892500D02*
D03*
X37500Y885000D02*
D03*
X17500Y892500D02*
D03*
X10000Y912500D02*
D03*
X17500Y932500D02*
D03*
X37500Y940000D02*
D03*
Y65000D02*
D03*
X57500Y57500D02*
D03*
X65000Y37500D02*
D03*
X17500Y17500D02*
D03*
X37500Y10000D02*
D03*
X17500Y57500D02*
D03*
X57500Y17500D02*
D03*
X10000Y37500D02*
D03*
D59*
X317500Y820000D02*
D03*
X332500D02*
D03*
X325000D02*
D03*
Y830000D02*
D03*
X332500D02*
D03*
X317500D02*
D03*
Y810000D02*
D03*
X332500D02*
D03*
X325000D02*
D03*
X347500D02*
D03*
X340000D02*
D03*
X362500D02*
D03*
X355000D02*
D03*
Y800000D02*
D03*
X362500D02*
D03*
X340000D02*
D03*
X347500D02*
D03*
X325000D02*
D03*
X332500D02*
D03*
X317500D02*
D03*
X310000Y760000D02*
D03*
X317500D02*
D03*
X332500D02*
D03*
X325000D02*
D03*
X347500D02*
D03*
X340000D02*
D03*
X362500D02*
D03*
X355000D02*
D03*
Y770000D02*
D03*
X362500D02*
D03*
X340000D02*
D03*
X347500D02*
D03*
X325000D02*
D03*
X332500D02*
D03*
X317500D02*
D03*
X310000D02*
D03*
Y790000D02*
D03*
X317500D02*
D03*
X332500D02*
D03*
X325000D02*
D03*
X347500D02*
D03*
X340000D02*
D03*
X362500D02*
D03*
X355000D02*
D03*
Y780000D02*
D03*
X362500D02*
D03*
X340000D02*
D03*
X347500D02*
D03*
X325000D02*
D03*
X332500D02*
D03*
X317500D02*
D03*
X310000D02*
D03*
Y740000D02*
D03*
X317500D02*
D03*
X332500D02*
D03*
X325000D02*
D03*
X347500D02*
D03*
X340000D02*
D03*
X362500D02*
D03*
X355000D02*
D03*
Y750000D02*
D03*
X362500D02*
D03*
X340000D02*
D03*
X347500D02*
D03*
X325000D02*
D03*
X332500D02*
D03*
X317500D02*
D03*
X310000D02*
D03*
Y730000D02*
D03*
X317500D02*
D03*
X332500D02*
D03*
X325000D02*
D03*
X347500D02*
D03*
X340000D02*
D03*
X362500D02*
D03*
X355000D02*
D03*
Y720000D02*
D03*
X362500D02*
D03*
X340000D02*
D03*
X347500D02*
D03*
X325000D02*
D03*
X332500D02*
D03*
X317500D02*
D03*
X310000D02*
D03*
D60*
X302500Y800000D02*
D03*
X295000Y810000D02*
D03*
X405000Y770000D02*
D03*
X300000Y702500D02*
D03*
X290000Y887500D02*
D03*
X200000Y780000D02*
D03*
X107500Y502500D02*
D03*
Y515000D02*
D03*
X302500Y507500D02*
D03*
X280000Y477500D02*
D03*
X337500Y472500D02*
D03*
X342500Y437500D02*
D03*
X132500Y585000D02*
D03*
X92500Y580000D02*
D03*
X222500Y657500D02*
D03*
X100000Y672500D02*
D03*
X420000Y862500D02*
D03*
X225000Y752500D02*
D03*
X300000Y687500D02*
D03*
X268237Y716902D02*
D03*
X247500Y610000D02*
D03*
X130000Y672500D02*
D03*
X242500Y850000D02*
D03*
X420000Y840000D02*
D03*
X467500Y760000D02*
D03*
X45000Y497500D02*
D03*
X135000Y480000D02*
D03*
X145000Y445000D02*
D03*
X432500Y517500D02*
D03*
Y507500D02*
D03*
X337500Y518730D02*
D03*
X390000Y847500D02*
D03*
X200000Y717500D02*
D03*
X467500Y730000D02*
D03*
X405000Y720000D02*
D03*
Y750000D02*
D03*
X245000Y682500D02*
D03*
X322500Y602500D02*
D03*
X177500Y682500D02*
D03*
X362500Y632500D02*
D03*
X420000Y622500D02*
D03*
X225000Y817500D02*
D03*
X455000Y202500D02*
D03*
X350000Y475000D02*
D03*
Y587500D02*
D03*
X200000Y732500D02*
D03*
X297500Y242500D02*
D03*
X247500D02*
D03*
X135328Y243127D02*
D03*
X185000Y242500D02*
D03*
X350000D02*
D03*
X352500Y392500D02*
D03*
X300000D02*
D03*
X250000Y370000D02*
D03*
X195000D02*
D03*
X140000Y292500D02*
D03*
X72500Y465000D02*
D03*
X235000Y472500D02*
D03*
X70000Y437500D02*
D03*
X302500Y477500D02*
D03*
Y487500D02*
D03*
Y497500D02*
D03*
X187500Y478000D02*
D03*
X222500Y487500D02*
D03*
X187500Y468000D02*
D03*
X222500Y497500D02*
D03*
X336230Y510060D02*
D03*
X260000Y547500D02*
D03*
X242500D02*
D03*
X212500Y602500D02*
D03*
X182500D02*
D03*
X320000Y455000D02*
D03*
X472500Y517500D02*
D03*
Y645000D02*
D03*
Y602500D02*
D03*
Y560000D02*
D03*
Y475000D02*
D03*
Y430000D02*
D03*
X305000Y547500D02*
D03*
X282500Y520000D02*
D03*
X337500Y567500D02*
D03*
X440000Y677500D02*
D03*
X442500Y430000D02*
D03*
Y475000D02*
D03*
Y517500D02*
D03*
Y645000D02*
D03*
Y602500D02*
D03*
Y560000D02*
D03*
X225750Y166250D02*
D03*
X115000Y212500D02*
D03*
X237500Y322500D02*
D03*
X227500Y535000D02*
D03*
X197500Y592500D02*
D03*
X170000D02*
D03*
X25000Y250000D02*
D03*
X115000D02*
D03*
X325000Y320000D02*
D03*
X275000D02*
D03*
X422500Y817500D02*
D03*
X155000Y320000D02*
D03*
X25000Y212500D02*
D03*
X322500Y167500D02*
D03*
X177500D02*
D03*
X107500Y105000D02*
D03*
X136994Y171631D02*
D03*
X202500Y320000D02*
D03*
X272500Y167500D02*
D03*
M02*
