G04*
G04 #@! TF.GenerationSoftware,Altium Limited,Altium Designer,23.0.1 (38)*
G04*
G04 Layer_Color=2752767*
%FSLAX44Y44*%
%MOMM*%
G71*
G04*
G04 #@! TF.SameCoordinates,056E7371-CA95-4066-80D9-C2616C4CE960*
G04*
G04*
G04 #@! TF.FilePolarity,Positive*
G04*
G01*
G75*
%ADD86C,0.1270*%
%ADD87C,0.1693*%
D86*
X249920Y134920D02*
Y145080D01*
X260080D01*
Y134920D01*
X249920D01*
X274920D02*
Y145080D01*
X285080D01*
Y134920D01*
X274920D01*
X152460Y40070D02*
Y37530D01*
X157540D01*
Y40070D01*
X160080D01*
Y45150D01*
X157540D01*
Y47690D01*
X152460D01*
Y45150D01*
X149920D01*
Y40070D01*
X152460D01*
X326450D02*
Y37530D01*
X331530D01*
Y40070D01*
X334070D01*
Y45150D01*
X331530D01*
Y47690D01*
X326450D01*
Y45150D01*
X323910D01*
Y40070D01*
X326450D01*
X149920Y109920D02*
Y120080D01*
X160080D01*
Y109920D01*
X149920D01*
X174920D02*
Y120080D01*
X185080D01*
Y109920D01*
X174920D01*
X199920D02*
Y120080D01*
X210080D01*
Y109920D01*
X199920D01*
X224920D02*
Y120080D01*
X235080D01*
Y109920D01*
X224920D01*
X249920D02*
Y120080D01*
X260080D01*
Y109920D01*
X249920D01*
X274920D02*
Y120080D01*
X285080D01*
Y109920D01*
X274920D01*
X299920D02*
Y120080D01*
X310080D01*
Y109920D01*
X299920D01*
X324920D02*
Y120080D01*
X335080D01*
Y109920D01*
X324920D01*
X149920Y134920D02*
Y145080D01*
X160080D01*
Y134920D01*
X149920D01*
X174920D02*
Y145080D01*
X185080D01*
Y134920D01*
X174920D01*
X199920D02*
Y145080D01*
X210080D01*
Y134920D01*
X199920D01*
X224920D02*
Y145080D01*
X235080D01*
Y134920D01*
X224920D01*
X299920D02*
Y145080D01*
X310080D01*
Y134920D01*
X299920D01*
X324920D02*
Y145080D01*
X335080D01*
Y134920D01*
X324920D01*
X167420Y900900D02*
X172500Y905980D01*
X177580Y900900D01*
X172500Y895820D01*
X167420Y900900D01*
X92420D02*
X97500Y905980D01*
X102580Y900900D01*
X97500Y895820D01*
X92420Y900900D01*
Y799020D02*
Y809180D01*
X102580D01*
Y799020D01*
X92420D01*
X117420D02*
Y809180D01*
X127580D01*
Y799020D01*
X117420D01*
X142420D02*
Y809180D01*
X152580D01*
Y799020D01*
X142420D01*
X167420D02*
Y809180D01*
X177580D01*
Y799020D01*
X167420D01*
X92420Y824020D02*
Y834180D01*
X102580D01*
Y824020D01*
X92420D01*
X117420D02*
Y834180D01*
X127580D01*
Y824020D01*
X117420D01*
X142420D02*
Y834180D01*
X152580D01*
Y824020D01*
X142420D01*
X167420D02*
Y834180D01*
X177580D01*
Y824020D01*
X167420D01*
X442500Y319920D02*
X445040Y322460D01*
X447580D01*
X445040Y325000D01*
X447580Y327540D01*
X445040D01*
X442500Y330080D01*
X439960Y327540D01*
X437420D01*
X439960Y325000D01*
X437420Y322460D01*
X439960D01*
X442500Y319920D01*
Y370720D02*
X445040Y373260D01*
X447580D01*
X445040Y375800D01*
X447580Y378340D01*
X445040D01*
X442500Y380880D01*
X439960Y378340D01*
X437420D01*
X439960Y375800D01*
X437420Y373260D01*
X439960D01*
X442500Y370720D01*
Y345320D02*
X445040Y347860D01*
X447580D01*
X445040Y350400D01*
X447580Y352940D01*
X445040D01*
X442500Y355480D01*
X439960Y352940D01*
X437420D01*
X439960Y350400D01*
X437420Y347860D01*
X439960D01*
X442500Y345320D01*
X143800Y412420D02*
X138720Y422580D01*
X148880D01*
X143800Y412420D01*
X169200D02*
X164120Y422580D01*
X174280D01*
X169200Y412420D01*
X194600D02*
X189520Y422580D01*
X199680D01*
X194600Y412420D01*
X220000D02*
X214920Y422580D01*
X225080D01*
X220000Y412420D01*
X245400D02*
X240320Y422580D01*
X250480D01*
X245400Y412420D01*
X410200Y207420D02*
X405120Y217580D01*
X415280D01*
X410200Y207420D01*
X384800D02*
X379720Y217580D01*
X389880D01*
X384800Y207420D01*
X47500Y613220D02*
X42420Y623380D01*
X52580D01*
X47500Y613220D01*
Y587820D02*
X42420Y597980D01*
X52580D01*
X47500Y587820D01*
Y562420D02*
X42420Y572580D01*
X52580D01*
X47500Y562420D01*
Y537020D02*
X42420Y547180D01*
X52580D01*
X47500Y537020D01*
X375000Y239720D02*
X369920Y249880D01*
X380080D01*
X375000Y239720D01*
Y265120D02*
X369920Y275280D01*
X380080D01*
X375000Y265120D01*
X344920Y29920D02*
X347460Y35000D01*
X344920Y40080D01*
X350000Y37540D01*
X355080Y40080D01*
X352540Y35000D01*
X355080Y29920D01*
X350000Y32460D01*
X344920Y29920D01*
X312420Y814920D02*
Y825080D01*
X322580D01*
Y814920D01*
X312420D01*
X314452Y816952D02*
Y823048D01*
X320548D01*
Y816952D01*
X314452D01*
X327420Y814920D02*
Y825080D01*
X337580D01*
Y814920D01*
X327420D01*
X329452Y816952D02*
Y823048D01*
X335548D01*
Y816952D01*
X329452D01*
X319920Y814920D02*
Y825080D01*
X330080D01*
Y814920D01*
X319920D01*
X321952Y816952D02*
Y823048D01*
X328048D01*
Y816952D01*
X321952D01*
X319920Y824920D02*
Y835080D01*
X330080D01*
Y824920D01*
X319920D01*
X321952Y826952D02*
Y833048D01*
X328048D01*
Y826952D01*
X321952D01*
X327420Y824920D02*
Y835080D01*
X337580D01*
Y824920D01*
X327420D01*
X329452Y826952D02*
Y833048D01*
X335548D01*
Y826952D01*
X329452D01*
X312420Y824920D02*
Y835080D01*
X322580D01*
Y824920D01*
X312420D01*
X314452Y826952D02*
Y833048D01*
X320548D01*
Y826952D01*
X314452D01*
X312420Y804920D02*
Y815080D01*
X322580D01*
Y804920D01*
X312420D01*
X314452Y806952D02*
Y813048D01*
X320548D01*
Y806952D01*
X314452D01*
X327420Y804920D02*
Y815080D01*
X337580D01*
Y804920D01*
X327420D01*
X329452Y806952D02*
Y813048D01*
X335548D01*
Y806952D01*
X329452D01*
X319920Y804920D02*
Y815080D01*
X330080D01*
Y804920D01*
X319920D01*
X321952Y806952D02*
Y813048D01*
X328048D01*
Y806952D01*
X321952D01*
X342420Y804920D02*
Y815080D01*
X352580D01*
Y804920D01*
X342420D01*
X344452Y806952D02*
Y813048D01*
X350548D01*
Y806952D01*
X344452D01*
X334920Y804920D02*
Y815080D01*
X345080D01*
Y804920D01*
X334920D01*
X336952Y806952D02*
Y813048D01*
X343048D01*
Y806952D01*
X336952D01*
X357420Y804920D02*
Y815080D01*
X367580D01*
Y804920D01*
X357420D01*
X359452Y806952D02*
Y813048D01*
X365548D01*
Y806952D01*
X359452D01*
X349920Y804920D02*
Y815080D01*
X360080D01*
Y804920D01*
X349920D01*
X351952Y806952D02*
Y813048D01*
X358048D01*
Y806952D01*
X351952D01*
X349920Y794920D02*
Y805080D01*
X360080D01*
Y794920D01*
X349920D01*
X351952Y796952D02*
Y803048D01*
X358048D01*
Y796952D01*
X351952D01*
X357420Y794920D02*
Y805080D01*
X367580D01*
Y794920D01*
X357420D01*
X359452Y796952D02*
Y803048D01*
X365548D01*
Y796952D01*
X359452D01*
X334920Y794920D02*
Y805080D01*
X345080D01*
Y794920D01*
X334920D01*
X336952Y796952D02*
Y803048D01*
X343048D01*
Y796952D01*
X336952D01*
X342420Y794920D02*
Y805080D01*
X352580D01*
Y794920D01*
X342420D01*
X344452Y796952D02*
Y803048D01*
X350548D01*
Y796952D01*
X344452D01*
X319920Y794920D02*
Y805080D01*
X330080D01*
Y794920D01*
X319920D01*
X321952Y796952D02*
Y803048D01*
X328048D01*
Y796952D01*
X321952D01*
X327420Y794920D02*
Y805080D01*
X337580D01*
Y794920D01*
X327420D01*
X329452Y796952D02*
Y803048D01*
X335548D01*
Y796952D01*
X329452D01*
X312420Y794920D02*
Y805080D01*
X322580D01*
Y794920D01*
X312420D01*
X314452Y796952D02*
Y803048D01*
X320548D01*
Y796952D01*
X314452D01*
X304920Y754920D02*
Y765080D01*
X315080D01*
Y754920D01*
X304920D01*
X306952Y756952D02*
Y763048D01*
X313048D01*
Y756952D01*
X306952D01*
X312420Y754920D02*
Y765080D01*
X322580D01*
Y754920D01*
X312420D01*
X314452Y756952D02*
Y763048D01*
X320548D01*
Y756952D01*
X314452D01*
X327420Y754920D02*
Y765080D01*
X337580D01*
Y754920D01*
X327420D01*
X329452Y756952D02*
Y763048D01*
X335548D01*
Y756952D01*
X329452D01*
X319920Y754920D02*
Y765080D01*
X330080D01*
Y754920D01*
X319920D01*
X321952Y756952D02*
Y763048D01*
X328048D01*
Y756952D01*
X321952D01*
X342420Y754920D02*
Y765080D01*
X352580D01*
Y754920D01*
X342420D01*
X344452Y756952D02*
Y763048D01*
X350548D01*
Y756952D01*
X344452D01*
X334920Y754920D02*
Y765080D01*
X345080D01*
Y754920D01*
X334920D01*
X336952Y756952D02*
Y763048D01*
X343048D01*
Y756952D01*
X336952D01*
X357420Y754920D02*
Y765080D01*
X367580D01*
Y754920D01*
X357420D01*
X359452Y756952D02*
Y763048D01*
X365548D01*
Y756952D01*
X359452D01*
X349920Y754920D02*
Y765080D01*
X360080D01*
Y754920D01*
X349920D01*
X351952Y756952D02*
Y763048D01*
X358048D01*
Y756952D01*
X351952D01*
X349920Y764920D02*
Y775080D01*
X360080D01*
Y764920D01*
X349920D01*
X351952Y766952D02*
Y773048D01*
X358048D01*
Y766952D01*
X351952D01*
X357420Y764920D02*
Y775080D01*
X367580D01*
Y764920D01*
X357420D01*
X359452Y766952D02*
Y773048D01*
X365548D01*
Y766952D01*
X359452D01*
X334920Y764920D02*
Y775080D01*
X345080D01*
Y764920D01*
X334920D01*
X336952Y766952D02*
Y773048D01*
X343048D01*
Y766952D01*
X336952D01*
X342420Y764920D02*
Y775080D01*
X352580D01*
Y764920D01*
X342420D01*
X344452Y766952D02*
Y773048D01*
X350548D01*
Y766952D01*
X344452D01*
X319920Y764920D02*
Y775080D01*
X330080D01*
Y764920D01*
X319920D01*
X321952Y766952D02*
Y773048D01*
X328048D01*
Y766952D01*
X321952D01*
X327420Y764920D02*
Y775080D01*
X337580D01*
Y764920D01*
X327420D01*
X329452Y766952D02*
Y773048D01*
X335548D01*
Y766952D01*
X329452D01*
X312420Y764920D02*
Y775080D01*
X322580D01*
Y764920D01*
X312420D01*
X314452Y766952D02*
Y773048D01*
X320548D01*
Y766952D01*
X314452D01*
X304920Y764920D02*
Y775080D01*
X315080D01*
Y764920D01*
X304920D01*
X306952Y766952D02*
Y773048D01*
X313048D01*
Y766952D01*
X306952D01*
X304920Y784920D02*
Y795080D01*
X315080D01*
Y784920D01*
X304920D01*
X306952Y786952D02*
Y793048D01*
X313048D01*
Y786952D01*
X306952D01*
X312420Y784920D02*
Y795080D01*
X322580D01*
Y784920D01*
X312420D01*
X314452Y786952D02*
Y793048D01*
X320548D01*
Y786952D01*
X314452D01*
X327420Y784920D02*
Y795080D01*
X337580D01*
Y784920D01*
X327420D01*
X329452Y786952D02*
Y793048D01*
X335548D01*
Y786952D01*
X329452D01*
X319920Y784920D02*
Y795080D01*
X330080D01*
Y784920D01*
X319920D01*
X321952Y786952D02*
Y793048D01*
X328048D01*
Y786952D01*
X321952D01*
X342420Y784920D02*
Y795080D01*
X352580D01*
Y784920D01*
X342420D01*
X344452Y786952D02*
Y793048D01*
X350548D01*
Y786952D01*
X344452D01*
X334920Y784920D02*
Y795080D01*
X345080D01*
Y784920D01*
X334920D01*
X336952Y786952D02*
Y793048D01*
X343048D01*
Y786952D01*
X336952D01*
X357420Y784920D02*
Y795080D01*
X367580D01*
Y784920D01*
X357420D01*
X359452Y786952D02*
Y793048D01*
X365548D01*
Y786952D01*
X359452D01*
X349920Y784920D02*
Y795080D01*
X360080D01*
Y784920D01*
X349920D01*
X351952Y786952D02*
Y793048D01*
X358048D01*
Y786952D01*
X351952D01*
X349920Y774920D02*
Y785080D01*
X360080D01*
Y774920D01*
X349920D01*
X351952Y776952D02*
Y783048D01*
X358048D01*
Y776952D01*
X351952D01*
X357420Y774920D02*
Y785080D01*
X367580D01*
Y774920D01*
X357420D01*
X359452Y776952D02*
Y783048D01*
X365548D01*
Y776952D01*
X359452D01*
X334920Y774920D02*
Y785080D01*
X345080D01*
Y774920D01*
X334920D01*
X336952Y776952D02*
Y783048D01*
X343048D01*
Y776952D01*
X336952D01*
X342420Y774920D02*
Y785080D01*
X352580D01*
Y774920D01*
X342420D01*
X344452Y776952D02*
Y783048D01*
X350548D01*
Y776952D01*
X344452D01*
X319920Y774920D02*
Y785080D01*
X330080D01*
Y774920D01*
X319920D01*
X321952Y776952D02*
Y783048D01*
X328048D01*
Y776952D01*
X321952D01*
X327420Y774920D02*
Y785080D01*
X337580D01*
Y774920D01*
X327420D01*
X329452Y776952D02*
Y783048D01*
X335548D01*
Y776952D01*
X329452D01*
X312420Y774920D02*
Y785080D01*
X322580D01*
Y774920D01*
X312420D01*
X314452Y776952D02*
Y783048D01*
X320548D01*
Y776952D01*
X314452D01*
X304920Y774920D02*
Y785080D01*
X315080D01*
Y774920D01*
X304920D01*
X306952Y776952D02*
Y783048D01*
X313048D01*
Y776952D01*
X306952D01*
X304920Y734920D02*
Y745080D01*
X315080D01*
Y734920D01*
X304920D01*
X306952Y736952D02*
Y743048D01*
X313048D01*
Y736952D01*
X306952D01*
X312420Y734920D02*
Y745080D01*
X322580D01*
Y734920D01*
X312420D01*
X314452Y736952D02*
Y743048D01*
X320548D01*
Y736952D01*
X314452D01*
X327420Y734920D02*
Y745080D01*
X337580D01*
Y734920D01*
X327420D01*
X329452Y736952D02*
Y743048D01*
X335548D01*
Y736952D01*
X329452D01*
X319920Y734920D02*
Y745080D01*
X330080D01*
Y734920D01*
X319920D01*
X321952Y736952D02*
Y743048D01*
X328048D01*
Y736952D01*
X321952D01*
X342420Y734920D02*
Y745080D01*
X352580D01*
Y734920D01*
X342420D01*
X344452Y736952D02*
Y743048D01*
X350548D01*
Y736952D01*
X344452D01*
X334920Y734920D02*
Y745080D01*
X345080D01*
Y734920D01*
X334920D01*
X336952Y736952D02*
Y743048D01*
X343048D01*
Y736952D01*
X336952D01*
X357420Y734920D02*
Y745080D01*
X367580D01*
Y734920D01*
X357420D01*
X359452Y736952D02*
Y743048D01*
X365548D01*
Y736952D01*
X359452D01*
X349920Y734920D02*
Y745080D01*
X360080D01*
Y734920D01*
X349920D01*
X351952Y736952D02*
Y743048D01*
X358048D01*
Y736952D01*
X351952D01*
X349920Y744920D02*
Y755080D01*
X360080D01*
Y744920D01*
X349920D01*
X351952Y746952D02*
Y753048D01*
X358048D01*
Y746952D01*
X351952D01*
X357420Y744920D02*
Y755080D01*
X367580D01*
Y744920D01*
X357420D01*
X359452Y746952D02*
Y753048D01*
X365548D01*
Y746952D01*
X359452D01*
X334920Y744920D02*
Y755080D01*
X345080D01*
Y744920D01*
X334920D01*
X336952Y746952D02*
Y753048D01*
X343048D01*
Y746952D01*
X336952D01*
X342420Y744920D02*
Y755080D01*
X352580D01*
Y744920D01*
X342420D01*
X344452Y746952D02*
Y753048D01*
X350548D01*
Y746952D01*
X344452D01*
X319920Y744920D02*
Y755080D01*
X330080D01*
Y744920D01*
X319920D01*
X321952Y746952D02*
Y753048D01*
X328048D01*
Y746952D01*
X321952D01*
X327420Y744920D02*
Y755080D01*
X337580D01*
Y744920D01*
X327420D01*
X329452Y746952D02*
Y753048D01*
X335548D01*
Y746952D01*
X329452D01*
X312420Y744920D02*
Y755080D01*
X322580D01*
Y744920D01*
X312420D01*
X314452Y746952D02*
Y753048D01*
X320548D01*
Y746952D01*
X314452D01*
X304920Y744920D02*
Y755080D01*
X315080D01*
Y744920D01*
X304920D01*
X306952Y746952D02*
Y753048D01*
X313048D01*
Y746952D01*
X306952D01*
X304920Y724920D02*
Y735080D01*
X315080D01*
Y724920D01*
X304920D01*
X306952Y726952D02*
Y733048D01*
X313048D01*
Y726952D01*
X306952D01*
X312420Y724920D02*
Y735080D01*
X322580D01*
Y724920D01*
X312420D01*
X314452Y726952D02*
Y733048D01*
X320548D01*
Y726952D01*
X314452D01*
X327420Y724920D02*
Y735080D01*
X337580D01*
Y724920D01*
X327420D01*
X329452Y726952D02*
Y733048D01*
X335548D01*
Y726952D01*
X329452D01*
X319920Y724920D02*
Y735080D01*
X330080D01*
Y724920D01*
X319920D01*
X321952Y726952D02*
Y733048D01*
X328048D01*
Y726952D01*
X321952D01*
X342420Y724920D02*
Y735080D01*
X352580D01*
Y724920D01*
X342420D01*
X344452Y726952D02*
Y733048D01*
X350548D01*
Y726952D01*
X344452D01*
X334920Y724920D02*
Y735080D01*
X345080D01*
Y724920D01*
X334920D01*
X336952Y726952D02*
Y733048D01*
X343048D01*
Y726952D01*
X336952D01*
X357420Y724920D02*
Y735080D01*
X367580D01*
Y724920D01*
X357420D01*
X359452Y726952D02*
Y733048D01*
X365548D01*
Y726952D01*
X359452D01*
X349920Y724920D02*
Y735080D01*
X360080D01*
Y724920D01*
X349920D01*
X351952Y726952D02*
Y733048D01*
X358048D01*
Y726952D01*
X351952D01*
X349920Y714920D02*
Y725080D01*
X360080D01*
Y714920D01*
X349920D01*
X351952Y716952D02*
Y723048D01*
X358048D01*
Y716952D01*
X351952D01*
X357420Y714920D02*
Y725080D01*
X367580D01*
Y714920D01*
X357420D01*
X359452Y716952D02*
Y723048D01*
X365548D01*
Y716952D01*
X359452D01*
X334920Y714920D02*
Y725080D01*
X345080D01*
Y714920D01*
X334920D01*
X336952Y716952D02*
Y723048D01*
X343048D01*
Y716952D01*
X336952D01*
X342420Y714920D02*
Y725080D01*
X352580D01*
Y714920D01*
X342420D01*
X344452Y716952D02*
Y723048D01*
X350548D01*
Y716952D01*
X344452D01*
X319920Y714920D02*
Y725080D01*
X330080D01*
Y714920D01*
X319920D01*
X321952Y716952D02*
Y723048D01*
X328048D01*
Y716952D01*
X321952D01*
X327420Y714920D02*
Y725080D01*
X337580D01*
Y714920D01*
X327420D01*
X329452Y716952D02*
Y723048D01*
X335548D01*
Y716952D01*
X329452D01*
X312420Y714920D02*
Y725080D01*
X322580D01*
Y714920D01*
X312420D01*
X314452Y716952D02*
Y723048D01*
X320548D01*
Y716952D01*
X314452D01*
X304920Y714920D02*
Y725080D01*
X315080D01*
Y714920D01*
X304920D01*
X306952Y716952D02*
Y723048D01*
X313048D01*
Y716952D01*
X306952D01*
X297420Y794920D02*
X299960Y800000D01*
X297420Y805080D01*
X302500Y802540D01*
X307580Y805080D01*
X305040Y800000D01*
X307580Y794920D01*
X302500Y797460D01*
X297420Y794920D01*
X289920Y804920D02*
X292460Y810000D01*
X289920Y815080D01*
X295000Y812540D01*
X300080Y815080D01*
X297540Y810000D01*
X300080Y804920D01*
X295000Y807460D01*
X289920Y804920D01*
X399920Y764920D02*
X402460Y770000D01*
X399920Y775080D01*
X405000Y772540D01*
X410080Y775080D01*
X407540Y770000D01*
X410080Y764920D01*
X405000Y767460D01*
X399920Y764920D01*
X287420Y842420D02*
X289960Y847500D01*
X287420Y852580D01*
X292500Y850040D01*
X297580Y852580D01*
X295040Y847500D01*
X297580Y842420D01*
X292500Y844960D01*
X287420Y842420D01*
X294920Y697420D02*
X297460Y702500D01*
X294920Y707580D01*
X300000Y705040D01*
X305080Y707580D01*
X302540Y702500D01*
X305080Y697420D01*
X300000Y699960D01*
X294920Y697420D01*
X459920Y934920D02*
X462460D01*
X465000Y937460D01*
X467540Y934920D01*
X470080D01*
Y937460D01*
X467540Y940000D01*
X470080Y942540D01*
Y945080D01*
X467540D01*
X465000Y942540D01*
X462460Y945080D01*
X459920D01*
Y942540D01*
X462460Y940000D01*
X459920Y937460D01*
Y934920D01*
X479920Y927420D02*
X482460D01*
X485000Y929960D01*
X487540Y927420D01*
X490080D01*
Y929960D01*
X487540Y932500D01*
X490080Y935040D01*
Y937580D01*
X487540D01*
X485000Y935040D01*
X482460Y937580D01*
X479920D01*
Y935040D01*
X482460Y932500D01*
X479920Y929960D01*
Y927420D01*
X439920D02*
X442460D01*
X445000Y929960D01*
X447540Y927420D01*
X450080D01*
Y929960D01*
X447540Y932500D01*
X450080Y935040D01*
Y937580D01*
X447540D01*
X445000Y935040D01*
X442460Y937580D01*
X439920D01*
Y935040D01*
X442460Y932500D01*
X439920Y929960D01*
Y927420D01*
X432420Y907420D02*
X434960D01*
X437500Y909960D01*
X440040Y907420D01*
X442580D01*
Y909960D01*
X440040Y912500D01*
X442580Y915040D01*
Y917580D01*
X440040D01*
X437500Y915040D01*
X434960Y917580D01*
X432420D01*
Y915040D01*
X434960Y912500D01*
X432420Y909960D01*
Y907420D01*
X439920Y887420D02*
X442460D01*
X445000Y889960D01*
X447540Y887420D01*
X450080D01*
Y889960D01*
X447540Y892500D01*
X450080Y895040D01*
Y897580D01*
X447540D01*
X445000Y895040D01*
X442460Y897580D01*
X439920D01*
Y895040D01*
X442460Y892500D01*
X439920Y889960D01*
Y887420D01*
X459920Y879920D02*
X462460D01*
X465000Y882460D01*
X467540Y879920D01*
X470080D01*
Y882460D01*
X467540Y885000D01*
X470080Y887540D01*
Y890080D01*
X467540D01*
X465000Y887540D01*
X462460Y890080D01*
X459920D01*
Y887540D01*
X462460Y885000D01*
X459920Y882460D01*
Y879920D01*
X479920Y887420D02*
X482460D01*
X485000Y889960D01*
X487540Y887420D01*
X490080D01*
Y889960D01*
X487540Y892500D01*
X490080Y895040D01*
Y897580D01*
X487540D01*
X485000Y895040D01*
X482460Y897580D01*
X479920D01*
Y895040D01*
X482460Y892500D01*
X479920Y889960D01*
Y887420D01*
X487420Y907420D02*
X489960D01*
X492500Y909960D01*
X495040Y907420D01*
X497580D01*
Y909960D01*
X495040Y912500D01*
X497580Y915040D01*
Y917580D01*
X495040D01*
X492500Y915040D01*
X489960Y917580D01*
X487420D01*
Y915040D01*
X489960Y912500D01*
X487420Y909960D01*
Y907420D01*
X267420Y862420D02*
X269960Y867500D01*
X267420Y872580D01*
X272500Y870040D01*
X277580Y872580D01*
X275040Y867500D01*
X277580Y862420D01*
X272500Y864960D01*
X267420Y862420D01*
Y852420D02*
X269960Y857500D01*
X267420Y862580D01*
X272500Y860040D01*
X277580Y862580D01*
X275040Y857500D01*
X277580Y852420D01*
X272500Y854960D01*
X267420Y852420D01*
Y842420D02*
X269960Y847500D01*
X267420Y852580D01*
X272500Y850040D01*
X277580Y852580D01*
X275040Y847500D01*
X277580Y842420D01*
X272500Y844960D01*
X267420Y842420D01*
X287420Y862420D02*
X289960Y867500D01*
X287420Y872580D01*
X292500Y870040D01*
X297580Y872580D01*
X295040Y867500D01*
X297580Y862420D01*
X292500Y864960D01*
X287420Y862420D01*
Y852420D02*
X289960Y857500D01*
X287420Y862580D01*
X292500Y860040D01*
X297580Y862580D01*
X295040Y857500D01*
X297580Y852420D01*
X292500Y854960D01*
X287420Y852420D01*
X277420Y842420D02*
X279960Y847500D01*
X277420Y852580D01*
X282500Y850040D01*
X287580Y852580D01*
X285040Y847500D01*
X287580Y842420D01*
X282500Y844960D01*
X277420Y842420D01*
Y852420D02*
X279960Y857500D01*
X277420Y862580D01*
X282500Y860040D01*
X287580Y862580D01*
X285040Y857500D01*
X287580Y852420D01*
X282500Y854960D01*
X277420Y852420D01*
Y862420D02*
X279960Y867500D01*
X277420Y872580D01*
X282500Y870040D01*
X287580Y872580D01*
X285040Y867500D01*
X287580Y862420D01*
X282500Y864960D01*
X277420Y862420D01*
X284920Y882420D02*
X287460Y887500D01*
X284920Y892580D01*
X290000Y890040D01*
X295080Y892580D01*
X292540Y887500D01*
X295080Y882420D01*
X290000Y884960D01*
X284920Y882420D01*
X457420Y59920D02*
X459960D01*
X462500Y62460D01*
X465040Y59920D01*
X467580D01*
Y62460D01*
X465040Y65000D01*
X467580Y67540D01*
Y70080D01*
X465040D01*
X462500Y67540D01*
X459960Y70080D01*
X457420D01*
Y67540D01*
X459960Y65000D01*
X457420Y62460D01*
Y59920D01*
X477420Y52420D02*
X479960D01*
X482500Y54960D01*
X485040Y52420D01*
X487580D01*
Y54960D01*
X485040Y57500D01*
X487580Y60040D01*
Y62580D01*
X485040D01*
X482500Y60040D01*
X479960Y62580D01*
X477420D01*
Y60040D01*
X479960Y57500D01*
X477420Y54960D01*
Y52420D01*
X484920Y32420D02*
X487460D01*
X490000Y34960D01*
X492540Y32420D01*
X495080D01*
Y34960D01*
X492540Y37500D01*
X495080Y40040D01*
Y42580D01*
X492540D01*
X490000Y40040D01*
X487460Y42580D01*
X484920D01*
Y40040D01*
X487460Y37500D01*
X484920Y34960D01*
Y32420D01*
X477420Y12420D02*
X479960D01*
X482500Y14960D01*
X485040Y12420D01*
X487580D01*
Y14960D01*
X485040Y17500D01*
X487580Y20040D01*
Y22580D01*
X485040D01*
X482500Y20040D01*
X479960Y22580D01*
X477420D01*
Y20040D01*
X479960Y17500D01*
X477420Y14960D01*
Y12420D01*
X457420Y4920D02*
X459960D01*
X462500Y7460D01*
X465040Y4920D01*
X467580D01*
Y7460D01*
X465040Y10000D01*
X467580Y12540D01*
Y15080D01*
X465040D01*
X462500Y12540D01*
X459960Y15080D01*
X457420D01*
Y12540D01*
X459960Y10000D01*
X457420Y7460D01*
Y4920D01*
X437420Y12420D02*
X439960D01*
X442500Y14960D01*
X445040Y12420D01*
X447580D01*
Y14960D01*
X445040Y17500D01*
X447580Y20040D01*
Y22580D01*
X445040D01*
X442500Y20040D01*
X439960Y22580D01*
X437420D01*
Y20040D01*
X439960Y17500D01*
X437420Y14960D01*
Y12420D01*
X429920Y32420D02*
X432460D01*
X435000Y34960D01*
X437540Y32420D01*
X440080D01*
Y34960D01*
X437540Y37500D01*
X440080Y40040D01*
Y42580D01*
X437540D01*
X435000Y40040D01*
X432460Y42580D01*
X429920D01*
Y40040D01*
X432460Y37500D01*
X429920Y34960D01*
Y32420D01*
X437420Y52420D02*
X439960D01*
X442500Y54960D01*
X445040Y52420D01*
X447580D01*
Y54960D01*
X445040Y57500D01*
X447580Y60040D01*
Y62580D01*
X445040D01*
X442500Y60040D01*
X439960Y62580D01*
X437420D01*
Y60040D01*
X439960Y57500D01*
X437420Y54960D01*
Y52420D01*
X194920Y774920D02*
X197460Y780000D01*
X194920Y785080D01*
X200000Y782540D01*
X205080Y785080D01*
X202540Y780000D01*
X205080Y774920D01*
X200000Y777460D01*
X194920Y774920D01*
X52420Y927420D02*
X54960D01*
X57500Y929960D01*
X60040Y927420D01*
X62580D01*
Y929960D01*
X60040Y932500D01*
X62580Y935040D01*
Y937580D01*
X60040D01*
X57500Y935040D01*
X54960Y937580D01*
X52420D01*
Y935040D01*
X54960Y932500D01*
X52420Y929960D01*
Y927420D01*
X59920Y907420D02*
X62460D01*
X65000Y909960D01*
X67540Y907420D01*
X70080D01*
Y909960D01*
X67540Y912500D01*
X70080Y915040D01*
Y917580D01*
X67540D01*
X65000Y915040D01*
X62460Y917580D01*
X59920D01*
Y915040D01*
X62460Y912500D01*
X59920Y909960D01*
Y907420D01*
X52420Y887420D02*
X54960D01*
X57500Y889960D01*
X60040Y887420D01*
X62580D01*
Y889960D01*
X60040Y892500D01*
X62580Y895040D01*
Y897580D01*
X60040D01*
X57500Y895040D01*
X54960Y897580D01*
X52420D01*
Y895040D01*
X54960Y892500D01*
X52420Y889960D01*
Y887420D01*
X32420Y879920D02*
X34960D01*
X37500Y882460D01*
X40040Y879920D01*
X42580D01*
Y882460D01*
X40040Y885000D01*
X42580Y887540D01*
Y890080D01*
X40040D01*
X37500Y887540D01*
X34960Y890080D01*
X32420D01*
Y887540D01*
X34960Y885000D01*
X32420Y882460D01*
Y879920D01*
X12420Y887420D02*
X14960D01*
X17500Y889960D01*
X20040Y887420D01*
X22580D01*
Y889960D01*
X20040Y892500D01*
X22580Y895040D01*
Y897580D01*
X20040D01*
X17500Y895040D01*
X14960Y897580D01*
X12420D01*
Y895040D01*
X14960Y892500D01*
X12420Y889960D01*
Y887420D01*
X4920Y907420D02*
X7460D01*
X10000Y909960D01*
X12540Y907420D01*
X15080D01*
Y909960D01*
X12540Y912500D01*
X15080Y915040D01*
Y917580D01*
X12540D01*
X10000Y915040D01*
X7460Y917580D01*
X4920D01*
Y915040D01*
X7460Y912500D01*
X4920Y909960D01*
Y907420D01*
X12420Y927420D02*
X14960D01*
X17500Y929960D01*
X20040Y927420D01*
X22580D01*
Y929960D01*
X20040Y932500D01*
X22580Y935040D01*
Y937580D01*
X20040D01*
X17500Y935040D01*
X14960Y937580D01*
X12420D01*
Y935040D01*
X14960Y932500D01*
X12420Y929960D01*
Y927420D01*
X102420Y497420D02*
X104960Y502500D01*
X102420Y507580D01*
X107500Y505040D01*
X112580Y507580D01*
X110040Y502500D01*
X112580Y497420D01*
X107500Y499960D01*
X102420Y497420D01*
Y509920D02*
X104960Y515000D01*
X102420Y520080D01*
X107500Y517540D01*
X112580Y520080D01*
X110040Y515000D01*
X112580Y509920D01*
X107500Y512460D01*
X102420Y509920D01*
X297420Y502420D02*
X299960Y507500D01*
X297420Y512580D01*
X302500Y510040D01*
X307580Y512580D01*
X305040Y507500D01*
X307580Y502420D01*
X302500Y504960D01*
X297420Y502420D01*
X274920Y472420D02*
X277460Y477500D01*
X274920Y482580D01*
X280000Y480040D01*
X285080Y482580D01*
X282540Y477500D01*
X285080Y472420D01*
X280000Y474960D01*
X274920Y472420D01*
X332420Y467420D02*
X334960Y472500D01*
X332420Y477580D01*
X337500Y475040D01*
X342580Y477580D01*
X340040Y472500D01*
X342580Y467420D01*
X337500Y469960D01*
X332420Y467420D01*
X337420Y432420D02*
X339960Y437500D01*
X337420Y442580D01*
X342500Y440040D01*
X347580Y442580D01*
X345040Y437500D01*
X347580Y432420D01*
X342500Y434960D01*
X337420Y432420D01*
X127420Y579920D02*
X129960Y585000D01*
X127420Y590080D01*
X132500Y587540D01*
X137580Y590080D01*
X135040Y585000D01*
X137580Y579920D01*
X132500Y582460D01*
X127420Y579920D01*
X87420Y574920D02*
X89960Y580000D01*
X87420Y585080D01*
X92500Y582540D01*
X97580Y585080D01*
X95040Y580000D01*
X97580Y574920D01*
X92500Y577460D01*
X87420Y574920D01*
X217420Y652420D02*
X219960Y657500D01*
X217420Y662580D01*
X222500Y660040D01*
X227580Y662580D01*
X225040Y657500D01*
X227580Y652420D01*
X222500Y654960D01*
X217420Y652420D01*
X94920Y667420D02*
X97460Y672500D01*
X94920Y677580D01*
X100000Y675040D01*
X105080Y677580D01*
X102540Y672500D01*
X105080Y667420D01*
X100000Y669960D01*
X94920Y667420D01*
X414920Y857420D02*
X417460Y862500D01*
X414920Y867580D01*
X420000Y865040D01*
X425080Y867580D01*
X422540Y862500D01*
X425080Y857420D01*
X420000Y859960D01*
X414920Y857420D01*
X219920Y747420D02*
X222460Y752500D01*
X219920Y757580D01*
X225000Y755040D01*
X230080Y757580D01*
X227540Y752500D01*
X230080Y747420D01*
X225000Y749960D01*
X219920Y747420D01*
X294920Y682420D02*
X297460Y687500D01*
X294920Y692580D01*
X300000Y690040D01*
X305080Y692580D01*
X302540Y687500D01*
X305080Y682420D01*
X300000Y684960D01*
X294920Y682420D01*
X263157Y711822D02*
X265697Y716902D01*
X263157Y721982D01*
X268237Y719442D01*
X273317Y721982D01*
X270777Y716902D01*
X273317Y711822D01*
X268237Y714362D01*
X263157Y711822D01*
X242420Y604920D02*
X244960Y610000D01*
X242420Y615080D01*
X247500Y612540D01*
X252580Y615080D01*
X250040Y610000D01*
X252580Y604920D01*
X247500Y607460D01*
X242420Y604920D01*
X124920Y667420D02*
X127460Y672500D01*
X124920Y677580D01*
X130000Y675040D01*
X135080Y677580D01*
X132540Y672500D01*
X135080Y667420D01*
X130000Y669960D01*
X124920Y667420D01*
X237420Y844920D02*
X239960Y850000D01*
X237420Y855080D01*
X242500Y852540D01*
X247580Y855080D01*
X245040Y850000D01*
X247580Y844920D01*
X242500Y847460D01*
X237420Y844920D01*
X414920Y834920D02*
X417460Y840000D01*
X414920Y845080D01*
X420000Y842540D01*
X425080Y845080D01*
X422540Y840000D01*
X425080Y834920D01*
X420000Y837460D01*
X414920Y834920D01*
X462420Y754920D02*
X464960Y760000D01*
X462420Y765080D01*
X467500Y762540D01*
X472580Y765080D01*
X470040Y760000D01*
X472580Y754920D01*
X467500Y757460D01*
X462420Y754920D01*
X39920Y492420D02*
X42460Y497500D01*
X39920Y502580D01*
X45000Y500040D01*
X50080Y502580D01*
X47540Y497500D01*
X50080Y492420D01*
X45000Y494960D01*
X39920Y492420D01*
X129920Y474920D02*
X132460Y480000D01*
X129920Y485080D01*
X135000Y482540D01*
X140080Y485080D01*
X137540Y480000D01*
X140080Y474920D01*
X135000Y477460D01*
X129920Y474920D01*
X139920Y439920D02*
X142460Y445000D01*
X139920Y450080D01*
X145000Y447540D01*
X150080Y450080D01*
X147540Y445000D01*
X150080Y439920D01*
X145000Y442460D01*
X139920Y439920D01*
X427420Y512420D02*
X429960Y517500D01*
X427420Y522580D01*
X432500Y520040D01*
X437580Y522580D01*
X435040Y517500D01*
X437580Y512420D01*
X432500Y514960D01*
X427420Y512420D01*
Y502420D02*
X429960Y507500D01*
X427420Y512580D01*
X432500Y510040D01*
X437580Y512580D01*
X435040Y507500D01*
X437580Y502420D01*
X432500Y504960D01*
X427420Y502420D01*
X332420Y513650D02*
X334960Y518730D01*
X332420Y523810D01*
X337500Y521270D01*
X342580Y523810D01*
X340040Y518730D01*
X342580Y513650D01*
X337500Y516190D01*
X332420Y513650D01*
X384920Y842420D02*
X387460Y847500D01*
X384920Y852580D01*
X390000Y850040D01*
X395080Y852580D01*
X392540Y847500D01*
X395080Y842420D01*
X390000Y844960D01*
X384920Y842420D01*
X194920Y712420D02*
X197460Y717500D01*
X194920Y722580D01*
X200000Y720040D01*
X205080Y722580D01*
X202540Y717500D01*
X205080Y712420D01*
X200000Y714960D01*
X194920Y712420D01*
X462420Y724920D02*
X464960Y730000D01*
X462420Y735080D01*
X467500Y732540D01*
X472580Y735080D01*
X470040Y730000D01*
X472580Y724920D01*
X467500Y727460D01*
X462420Y724920D01*
X399920Y714920D02*
X402460Y720000D01*
X399920Y725080D01*
X405000Y722540D01*
X410080Y725080D01*
X407540Y720000D01*
X410080Y714920D01*
X405000Y717460D01*
X399920Y714920D01*
Y744920D02*
X402460Y750000D01*
X399920Y755080D01*
X405000Y752540D01*
X410080Y755080D01*
X407540Y750000D01*
X410080Y744920D01*
X405000Y747460D01*
X399920Y744920D01*
X239920Y677420D02*
X242460Y682500D01*
X239920Y687580D01*
X245000Y685040D01*
X250080Y687580D01*
X247540Y682500D01*
X250080Y677420D01*
X245000Y679960D01*
X239920Y677420D01*
X317420Y597420D02*
X319960Y602500D01*
X317420Y607580D01*
X322500Y605040D01*
X327580Y607580D01*
X325040Y602500D01*
X327580Y597420D01*
X322500Y599960D01*
X317420Y597420D01*
X172420Y677420D02*
X174960Y682500D01*
X172420Y687580D01*
X177500Y685040D01*
X182580Y687580D01*
X180040Y682500D01*
X182580Y677420D01*
X177500Y679960D01*
X172420Y677420D01*
X357420Y627420D02*
X359960Y632500D01*
X357420Y637580D01*
X362500Y635040D01*
X367580Y637580D01*
X365040Y632500D01*
X367580Y627420D01*
X362500Y629960D01*
X357420Y627420D01*
X414920Y617420D02*
X417460Y622500D01*
X414920Y627580D01*
X420000Y625040D01*
X425080Y627580D01*
X422540Y622500D01*
X425080Y617420D01*
X420000Y619960D01*
X414920Y617420D01*
X219920Y812420D02*
X222460Y817500D01*
X219920Y822580D01*
X225000Y820040D01*
X230080Y822580D01*
X227540Y817500D01*
X230080Y812420D01*
X225000Y814960D01*
X219920Y812420D01*
X449920Y197420D02*
X452460Y202500D01*
X449920Y207580D01*
X455000Y205040D01*
X460080Y207580D01*
X457540Y202500D01*
X460080Y197420D01*
X455000Y199960D01*
X449920Y197420D01*
X344920Y469920D02*
X347460Y475000D01*
X344920Y480080D01*
X350000Y477540D01*
X355080Y480080D01*
X352540Y475000D01*
X355080Y469920D01*
X350000Y472460D01*
X344920Y469920D01*
Y582420D02*
X347460Y587500D01*
X344920Y592580D01*
X350000Y590040D01*
X355080Y592580D01*
X352540Y587500D01*
X355080Y582420D01*
X350000Y584960D01*
X344920Y582420D01*
X194920Y727420D02*
X197460Y732500D01*
X194920Y737580D01*
X200000Y735040D01*
X205080Y737580D01*
X202540Y732500D01*
X205080Y727420D01*
X200000Y729960D01*
X194920Y727420D01*
X32420Y934920D02*
X34960D01*
X37500Y937460D01*
X40040Y934920D01*
X42580D01*
Y937460D01*
X40040Y940000D01*
X42580Y942540D01*
Y945080D01*
X40040D01*
X37500Y942540D01*
X34960Y945080D01*
X32420D01*
Y942540D01*
X34960Y940000D01*
X32420Y937460D01*
Y934920D01*
X292420Y237420D02*
X294960Y242500D01*
X292420Y247580D01*
X297500Y245040D01*
X302580Y247580D01*
X300040Y242500D01*
X302580Y237420D01*
X297500Y239960D01*
X292420Y237420D01*
X242420D02*
X244960Y242500D01*
X242420Y247580D01*
X247500Y245040D01*
X252580Y247580D01*
X250040Y242500D01*
X252580Y237420D01*
X247500Y239960D01*
X242420Y237420D01*
X130248Y238046D02*
X132788Y243127D01*
X130248Y248207D01*
X135328Y245667D01*
X140408Y248207D01*
X137868Y243127D01*
X140408Y238046D01*
X135328Y240586D01*
X130248Y238046D01*
X179920Y237420D02*
X182460Y242500D01*
X179920Y247580D01*
X185000Y245040D01*
X190080Y247580D01*
X187540Y242500D01*
X190080Y237420D01*
X185000Y239960D01*
X179920Y237420D01*
X344920D02*
X347460Y242500D01*
X344920Y247580D01*
X350000Y245040D01*
X355080Y247580D01*
X352540Y242500D01*
X355080Y237420D01*
X350000Y239960D01*
X344920Y237420D01*
X347420Y387420D02*
X349960Y392500D01*
X347420Y397580D01*
X352500Y395040D01*
X357580Y397580D01*
X355040Y392500D01*
X357580Y387420D01*
X352500Y389960D01*
X347420Y387420D01*
X294920D02*
X297460Y392500D01*
X294920Y397580D01*
X300000Y395040D01*
X305080Y397580D01*
X302540Y392500D01*
X305080Y387420D01*
X300000Y389960D01*
X294920Y387420D01*
X244920Y364920D02*
X247460Y370000D01*
X244920Y375080D01*
X250000Y372540D01*
X255080Y375080D01*
X252540Y370000D01*
X255080Y364920D01*
X250000Y367460D01*
X244920Y364920D01*
X189920D02*
X192460Y370000D01*
X189920Y375080D01*
X195000Y372540D01*
X200080Y375080D01*
X197540Y370000D01*
X200080Y364920D01*
X195000Y367460D01*
X189920Y364920D01*
X134920Y287420D02*
X137460Y292500D01*
X134920Y297580D01*
X140000Y295040D01*
X145080Y297580D01*
X142540Y292500D01*
X145080Y287420D01*
X140000Y289960D01*
X134920Y287420D01*
X67420Y459920D02*
X69960Y465000D01*
X67420Y470080D01*
X72500Y467540D01*
X77580Y470080D01*
X75040Y465000D01*
X77580Y459920D01*
X72500Y462460D01*
X67420Y459920D01*
X229920Y467420D02*
X232460Y472500D01*
X229920Y477580D01*
X235000Y475040D01*
X240080Y477580D01*
X237540Y472500D01*
X240080Y467420D01*
X235000Y469960D01*
X229920Y467420D01*
X64920Y432420D02*
X67460Y437500D01*
X64920Y442580D01*
X70000Y440040D01*
X75080Y442580D01*
X72540Y437500D01*
X75080Y432420D01*
X70000Y434960D01*
X64920Y432420D01*
X297420Y472420D02*
X299960Y477500D01*
X297420Y482580D01*
X302500Y480040D01*
X307580Y482580D01*
X305040Y477500D01*
X307580Y472420D01*
X302500Y474960D01*
X297420Y472420D01*
Y482420D02*
X299960Y487500D01*
X297420Y492580D01*
X302500Y490040D01*
X307580Y492580D01*
X305040Y487500D01*
X307580Y482420D01*
X302500Y484960D01*
X297420Y482420D01*
Y492420D02*
X299960Y497500D01*
X297420Y502580D01*
X302500Y500040D01*
X307580Y502580D01*
X305040Y497500D01*
X307580Y492420D01*
X302500Y494960D01*
X297420Y492420D01*
X182420Y472920D02*
X184960Y478000D01*
X182420Y483080D01*
X187500Y480540D01*
X192580Y483080D01*
X190040Y478000D01*
X192580Y472920D01*
X187500Y475460D01*
X182420Y472920D01*
X217420Y482420D02*
X219960Y487500D01*
X217420Y492580D01*
X222500Y490040D01*
X227580Y492580D01*
X225040Y487500D01*
X227580Y482420D01*
X222500Y484960D01*
X217420Y482420D01*
X182420Y462920D02*
X184960Y468000D01*
X182420Y473080D01*
X187500Y470540D01*
X192580Y473080D01*
X190040Y468000D01*
X192580Y462920D01*
X187500Y465460D01*
X182420Y462920D01*
X217420Y492420D02*
X219960Y497500D01*
X217420Y502580D01*
X222500Y500040D01*
X227580Y502580D01*
X225040Y497500D01*
X227580Y492420D01*
X222500Y494960D01*
X217420Y492420D01*
X331150Y504980D02*
X333690Y510060D01*
X331150Y515140D01*
X336230Y512600D01*
X341310Y515140D01*
X338770Y510060D01*
X341310Y504980D01*
X336230Y507520D01*
X331150Y504980D01*
X254920Y542420D02*
X257460Y547500D01*
X254920Y552580D01*
X260000Y550040D01*
X265080Y552580D01*
X262540Y547500D01*
X265080Y542420D01*
X260000Y544960D01*
X254920Y542420D01*
X237420D02*
X239960Y547500D01*
X237420Y552580D01*
X242500Y550040D01*
X247580Y552580D01*
X245040Y547500D01*
X247580Y542420D01*
X242500Y544960D01*
X237420Y542420D01*
X207420Y597420D02*
X209960Y602500D01*
X207420Y607580D01*
X212500Y605040D01*
X217580Y607580D01*
X215040Y602500D01*
X217580Y597420D01*
X212500Y599960D01*
X207420Y597420D01*
X177420D02*
X179960Y602500D01*
X177420Y607580D01*
X182500Y605040D01*
X187580Y607580D01*
X185040Y602500D01*
X187580Y597420D01*
X182500Y599960D01*
X177420Y597420D01*
X314920Y449920D02*
X317460Y455000D01*
X314920Y460080D01*
X320000Y457540D01*
X325080Y460080D01*
X322540Y455000D01*
X325080Y449920D01*
X320000Y452460D01*
X314920Y449920D01*
X467420Y512420D02*
X469960Y517500D01*
X467420Y522580D01*
X472500Y520040D01*
X477580Y522580D01*
X475040Y517500D01*
X477580Y512420D01*
X472500Y514960D01*
X467420Y512420D01*
Y639920D02*
X469960Y645000D01*
X467420Y650080D01*
X472500Y647540D01*
X477580Y650080D01*
X475040Y645000D01*
X477580Y639920D01*
X472500Y642460D01*
X467420Y639920D01*
Y597420D02*
X469960Y602500D01*
X467420Y607580D01*
X472500Y605040D01*
X477580Y607580D01*
X475040Y602500D01*
X477580Y597420D01*
X472500Y599960D01*
X467420Y597420D01*
Y554920D02*
X469960Y560000D01*
X467420Y565080D01*
X472500Y562540D01*
X477580Y565080D01*
X475040Y560000D01*
X477580Y554920D01*
X472500Y557460D01*
X467420Y554920D01*
Y469920D02*
X469960Y475000D01*
X467420Y480080D01*
X472500Y477540D01*
X477580Y480080D01*
X475040Y475000D01*
X477580Y469920D01*
X472500Y472460D01*
X467420Y469920D01*
Y424920D02*
X469960Y430000D01*
X467420Y435080D01*
X472500Y432540D01*
X477580Y435080D01*
X475040Y430000D01*
X477580Y424920D01*
X472500Y427460D01*
X467420Y424920D01*
X299920Y542420D02*
X302460Y547500D01*
X299920Y552580D01*
X305000Y550040D01*
X310080Y552580D01*
X307540Y547500D01*
X310080Y542420D01*
X305000Y544960D01*
X299920Y542420D01*
X277420Y514920D02*
X279960Y520000D01*
X277420Y525080D01*
X282500Y522540D01*
X287580Y525080D01*
X285040Y520000D01*
X287580Y514920D01*
X282500Y517460D01*
X277420Y514920D01*
X332420Y562420D02*
X334960Y567500D01*
X332420Y572580D01*
X337500Y570040D01*
X342580Y572580D01*
X340040Y567500D01*
X342580Y562420D01*
X337500Y564960D01*
X332420Y562420D01*
X434920Y672420D02*
X437460Y677500D01*
X434920Y682580D01*
X440000Y680040D01*
X445080Y682580D01*
X442540Y677500D01*
X445080Y672420D01*
X440000Y674960D01*
X434920Y672420D01*
X437420Y424920D02*
X439960Y430000D01*
X437420Y435080D01*
X442500Y432540D01*
X447580Y435080D01*
X445040Y430000D01*
X447580Y424920D01*
X442500Y427460D01*
X437420Y424920D01*
Y469920D02*
X439960Y475000D01*
X437420Y480080D01*
X442500Y477540D01*
X447580Y480080D01*
X445040Y475000D01*
X447580Y469920D01*
X442500Y472460D01*
X437420Y469920D01*
Y512420D02*
X439960Y517500D01*
X437420Y522580D01*
X442500Y520040D01*
X447580Y522580D01*
X445040Y517500D01*
X447580Y512420D01*
X442500Y514960D01*
X437420Y512420D01*
Y639920D02*
X439960Y645000D01*
X437420Y650080D01*
X442500Y647540D01*
X447580Y650080D01*
X445040Y645000D01*
X447580Y639920D01*
X442500Y642460D01*
X437420Y639920D01*
Y597420D02*
X439960Y602500D01*
X437420Y607580D01*
X442500Y605040D01*
X447580Y607580D01*
X445040Y602500D01*
X447580Y597420D01*
X442500Y599960D01*
X437420Y597420D01*
Y554920D02*
X439960Y560000D01*
X437420Y565080D01*
X442500Y562540D01*
X447580Y565080D01*
X445040Y560000D01*
X447580Y554920D01*
X442500Y557460D01*
X437420Y554920D01*
X220670Y161170D02*
X223210Y166250D01*
X220670Y171330D01*
X225750Y168790D01*
X230830Y171330D01*
X228290Y166250D01*
X230830Y161170D01*
X225750Y163710D01*
X220670Y161170D01*
X109920Y207420D02*
X112460Y212500D01*
X109920Y217580D01*
X115000Y215040D01*
X120080Y217580D01*
X117540Y212500D01*
X120080Y207420D01*
X115000Y209960D01*
X109920Y207420D01*
X232420Y317420D02*
X234960Y322500D01*
X232420Y327580D01*
X237500Y325040D01*
X242580Y327580D01*
X240040Y322500D01*
X242580Y317420D01*
X237500Y319960D01*
X232420Y317420D01*
X222420Y529920D02*
X224960Y535000D01*
X222420Y540080D01*
X227500Y537540D01*
X232580Y540080D01*
X230040Y535000D01*
X232580Y529920D01*
X227500Y532460D01*
X222420Y529920D01*
X192420Y587420D02*
X194960Y592500D01*
X192420Y597580D01*
X197500Y595040D01*
X202580Y597580D01*
X200040Y592500D01*
X202580Y587420D01*
X197500Y589960D01*
X192420Y587420D01*
X164920D02*
X167460Y592500D01*
X164920Y597580D01*
X170000Y595040D01*
X175080Y597580D01*
X172540Y592500D01*
X175080Y587420D01*
X170000Y589960D01*
X164920Y587420D01*
X19920Y244920D02*
X22460Y250000D01*
X19920Y255080D01*
X25000Y252540D01*
X30080Y255080D01*
X27540Y250000D01*
X30080Y244920D01*
X25000Y247460D01*
X19920Y244920D01*
X109920D02*
X112460Y250000D01*
X109920Y255080D01*
X115000Y252540D01*
X120080Y255080D01*
X117540Y250000D01*
X120080Y244920D01*
X115000Y247460D01*
X109920Y244920D01*
X319920Y314920D02*
X322460Y320000D01*
X319920Y325080D01*
X325000Y322540D01*
X330080Y325080D01*
X327540Y320000D01*
X330080Y314920D01*
X325000Y317460D01*
X319920Y314920D01*
X269920D02*
X272460Y320000D01*
X269920Y325080D01*
X275000Y322540D01*
X280080Y325080D01*
X277540Y320000D01*
X280080Y314920D01*
X275000Y317460D01*
X269920Y314920D01*
X417420Y812420D02*
X419960Y817500D01*
X417420Y822580D01*
X422500Y820040D01*
X427580Y822580D01*
X425040Y817500D01*
X427580Y812420D01*
X422500Y814960D01*
X417420Y812420D01*
X149920Y314920D02*
X152460Y320000D01*
X149920Y325080D01*
X155000Y322540D01*
X160080Y325080D01*
X157540Y320000D01*
X160080Y314920D01*
X155000Y317460D01*
X149920Y314920D01*
X19920Y207420D02*
X22460Y212500D01*
X19920Y217580D01*
X25000Y215040D01*
X30080Y217580D01*
X27540Y212500D01*
X30080Y207420D01*
X25000Y209960D01*
X19920Y207420D01*
X317420Y162420D02*
X319960Y167500D01*
X317420Y172580D01*
X322500Y170040D01*
X327580Y172580D01*
X325040Y167500D01*
X327580Y162420D01*
X322500Y164960D01*
X317420Y162420D01*
X32420Y59920D02*
X34960D01*
X37500Y62460D01*
X40040Y59920D01*
X42580D01*
Y62460D01*
X40040Y65000D01*
X42580Y67540D01*
Y70080D01*
X40040D01*
X37500Y67540D01*
X34960Y70080D01*
X32420D01*
Y67540D01*
X34960Y65000D01*
X32420Y62460D01*
Y59920D01*
X52420Y52420D02*
X54960D01*
X57500Y54960D01*
X60040Y52420D01*
X62580D01*
Y54960D01*
X60040Y57500D01*
X62580Y60040D01*
Y62580D01*
X60040D01*
X57500Y60040D01*
X54960Y62580D01*
X52420D01*
Y60040D01*
X54960Y57500D01*
X52420Y54960D01*
Y52420D01*
X59920Y32420D02*
X62460D01*
X65000Y34960D01*
X67540Y32420D01*
X70080D01*
Y34960D01*
X67540Y37500D01*
X70080Y40040D01*
Y42580D01*
X67540D01*
X65000Y40040D01*
X62460Y42580D01*
X59920D01*
Y40040D01*
X62460Y37500D01*
X59920Y34960D01*
Y32420D01*
X12420Y12420D02*
X14960D01*
X17500Y14960D01*
X20040Y12420D01*
X22580D01*
Y14960D01*
X20040Y17500D01*
X22580Y20040D01*
Y22580D01*
X20040D01*
X17500Y20040D01*
X14960Y22580D01*
X12420D01*
Y20040D01*
X14960Y17500D01*
X12420Y14960D01*
Y12420D01*
X172420Y162420D02*
X174960Y167500D01*
X172420Y172580D01*
X177500Y170040D01*
X182580Y172580D01*
X180040Y167500D01*
X182580Y162420D01*
X177500Y164960D01*
X172420Y162420D01*
X32420Y4920D02*
X34960D01*
X37500Y7460D01*
X40040Y4920D01*
X42580D01*
Y7460D01*
X40040Y10000D01*
X42580Y12540D01*
Y15080D01*
X40040D01*
X37500Y12540D01*
X34960Y15080D01*
X32420D01*
Y12540D01*
X34960Y10000D01*
X32420Y7460D01*
Y4920D01*
X12420Y52420D02*
X14960D01*
X17500Y54960D01*
X20040Y52420D01*
X22580D01*
Y54960D01*
X20040Y57500D01*
X22580Y60040D01*
Y62580D01*
X20040D01*
X17500Y60040D01*
X14960Y62580D01*
X12420D01*
Y60040D01*
X14960Y57500D01*
X12420Y54960D01*
Y52420D01*
X102420Y99920D02*
X104960Y105000D01*
X102420Y110080D01*
X107500Y107540D01*
X112580Y110080D01*
X110040Y105000D01*
X112580Y99920D01*
X107500Y102460D01*
X102420Y99920D01*
X52420Y12420D02*
X54960D01*
X57500Y14960D01*
X60040Y12420D01*
X62580D01*
Y14960D01*
X60040Y17500D01*
X62580Y20040D01*
Y22580D01*
X60040D01*
X57500Y20040D01*
X54960Y22580D01*
X52420D01*
Y20040D01*
X54960Y17500D01*
X52420Y14960D01*
Y12420D01*
X4920Y32420D02*
X7460D01*
X10000Y34960D01*
X12540Y32420D01*
X15080D01*
Y34960D01*
X12540Y37500D01*
X15080Y40040D01*
Y42580D01*
X12540D01*
X10000Y40040D01*
X7460Y42580D01*
X4920D01*
Y40040D01*
X7460Y37500D01*
X4920Y34960D01*
Y32420D01*
X131914Y166551D02*
X134454Y171631D01*
X131914Y176711D01*
X136994Y174171D01*
X142074Y176711D01*
X139534Y171631D01*
X142074Y166551D01*
X136994Y169091D01*
X131914Y166551D01*
X197420Y314920D02*
X199960Y320000D01*
X197420Y325080D01*
X202500Y322540D01*
X207580Y325080D01*
X205040Y320000D01*
X207580Y314920D01*
X202500Y317460D01*
X197420Y314920D01*
X267420Y162420D02*
X269960Y167500D01*
X267420Y172580D01*
X272500Y170040D01*
X277580Y172580D01*
X275040Y167500D01*
X277580Y162420D01*
X272500Y164960D01*
X267420Y162420D01*
D87*
X467580Y912500D02*
G03*
X467580Y912500I-5080J0D01*
G01*
X467580Y37500D02*
G03*
X467580Y37500I-5080J0D01*
G01*
X42580D02*
G03*
X42580Y37500I-5080J0D01*
G01*
Y912500D02*
G03*
X42580Y912500I-5080J0D01*
G01*
M02*
