G04*
G04 #@! TF.GenerationSoftware,Altium Limited,Altium Designer,23.0.1 (38)*
G04*
G04 Layer_Color=16711935*
%FSLAX44Y44*%
%MOMM*%
G71*
G04*
G04 #@! TF.SameCoordinates,056E7371-CA95-4066-80D9-C2616C4CE960*
G04*
G04*
G04 #@! TF.FilePolarity,Negative*
G04*
G01*
G75*
%ADD32C,1.7032*%
%ADD33C,2.2032*%
%ADD34R,2.1532X1.6032*%
%ADD35R,1.8032X1.4032*%
%ADD36R,1.4032X1.8032*%
%ADD37R,1.6032X2.1532*%
G04:AMPARAMS|DCode=41|XSize=1.9032mm|YSize=2.7032mm|CornerRadius=0.5266mm|HoleSize=0mm|Usage=FLASHONLY|Rotation=0.000|XOffset=0mm|YOffset=0mm|HoleType=Round|Shape=RoundedRectangle|*
%AMROUNDEDRECTD41*
21,1,1.9032,1.6500,0,0,0.0*
21,1,0.8500,2.7032,0,0,0.0*
1,1,1.0532,0.4250,-0.8250*
1,1,1.0532,-0.4250,-0.8250*
1,1,1.0532,-0.4250,0.8250*
1,1,1.0532,0.4250,0.8250*
%
%ADD41ROUNDEDRECTD41*%
%ADD44C,2.0032*%
%ADD45R,2.2032X2.2032*%
%ADD46C,7.2032*%
%ADD47C,1.7272*%
G04:AMPARAMS|DCode=48|XSize=2.2032mm|YSize=2.2032mm|CornerRadius=0.6016mm|HoleSize=0mm|Usage=FLASHONLY|Rotation=90.000|XOffset=0mm|YOffset=0mm|HoleType=Round|Shape=RoundedRectangle|*
%AMROUNDEDRECTD48*
21,1,2.2032,1.0000,0,0,90.0*
21,1,1.0000,2.2032,0,0,90.0*
1,1,1.2032,0.5000,0.5000*
1,1,1.2032,0.5000,-0.5000*
1,1,1.2032,-0.5000,-0.5000*
1,1,1.2032,-0.5000,0.5000*
%
%ADD48ROUNDEDRECTD48*%
G04:AMPARAMS|DCode=49|XSize=2.0032mm|YSize=2.0032mm|CornerRadius=0.5516mm|HoleSize=0mm|Usage=FLASHONLY|Rotation=270.000|XOffset=0mm|YOffset=0mm|HoleType=Round|Shape=RoundedRectangle|*
%AMROUNDEDRECTD49*
21,1,2.0032,0.9000,0,0,270.0*
21,1,0.9000,2.0032,0,0,270.0*
1,1,1.1032,-0.4500,-0.4500*
1,1,1.1032,-0.4500,0.4500*
1,1,1.1032,0.4500,0.4500*
1,1,1.1032,0.4500,-0.4500*
%
%ADD49ROUNDEDRECTD49*%
G04:AMPARAMS|DCode=50|XSize=2.0032mm|YSize=2.0032mm|CornerRadius=0.5516mm|HoleSize=0mm|Usage=FLASHONLY|Rotation=180.000|XOffset=0mm|YOffset=0mm|HoleType=Round|Shape=RoundedRectangle|*
%AMROUNDEDRECTD50*
21,1,2.0032,0.9000,0,0,180.0*
21,1,0.9000,2.0032,0,0,180.0*
1,1,1.1032,-0.4500,0.4500*
1,1,1.1032,0.4500,0.4500*
1,1,1.1032,0.4500,-0.4500*
1,1,1.1032,-0.4500,-0.4500*
%
%ADD50ROUNDEDRECTD50*%
G04:AMPARAMS|DCode=72|XSize=3.5032mm|YSize=2.5032mm|CornerRadius=0.6766mm|HoleSize=0mm|Usage=FLASHONLY|Rotation=0.000|XOffset=0mm|YOffset=0mm|HoleType=Round|Shape=RoundedRectangle|*
%AMROUNDEDRECTD72*
21,1,3.5032,1.1500,0,0,0.0*
21,1,2.1500,2.5032,0,0,0.0*
1,1,1.3532,1.0750,-0.5750*
1,1,1.3532,-1.0750,-0.5750*
1,1,1.3532,-1.0750,0.5750*
1,1,1.3532,1.0750,0.5750*
%
%ADD72ROUNDEDRECTD72*%
G04:AMPARAMS|DCode=73|XSize=0.8032mm|YSize=2.1032mm|CornerRadius=0.2516mm|HoleSize=0mm|Usage=FLASHONLY|Rotation=180.000|XOffset=0mm|YOffset=0mm|HoleType=Round|Shape=RoundedRectangle|*
%AMROUNDEDRECTD73*
21,1,0.8032,1.6000,0,0,180.0*
21,1,0.3000,2.1032,0,0,180.0*
1,1,0.5032,-0.1500,0.8000*
1,1,0.5032,0.1500,0.8000*
1,1,0.5032,0.1500,-0.8000*
1,1,0.5032,-0.1500,-0.8000*
%
%ADD73ROUNDEDRECTD73*%
G04:AMPARAMS|DCode=74|XSize=1.2032mm|YSize=2.3032mm|CornerRadius=0.3516mm|HoleSize=0mm|Usage=FLASHONLY|Rotation=90.000|XOffset=0mm|YOffset=0mm|HoleType=Round|Shape=RoundedRectangle|*
%AMROUNDEDRECTD74*
21,1,1.2032,1.6000,0,0,90.0*
21,1,0.5000,2.3032,0,0,90.0*
1,1,0.7032,0.8000,0.2500*
1,1,0.7032,0.8000,-0.2500*
1,1,0.7032,-0.8000,-0.2500*
1,1,0.7032,-0.8000,0.2500*
%
%ADD74ROUNDEDRECTD74*%
G04:AMPARAMS|DCode=75|XSize=3.5032mm|YSize=2.3032mm|CornerRadius=0.6266mm|HoleSize=0mm|Usage=FLASHONLY|Rotation=90.000|XOffset=0mm|YOffset=0mm|HoleType=Round|Shape=RoundedRectangle|*
%AMROUNDEDRECTD75*
21,1,3.5032,1.0500,0,0,90.0*
21,1,2.2500,2.3032,0,0,90.0*
1,1,1.2532,0.5250,1.1250*
1,1,1.2532,0.5250,-1.1250*
1,1,1.2532,-0.5250,-1.1250*
1,1,1.2532,-0.5250,1.1250*
%
%ADD75ROUNDEDRECTD75*%
G04:AMPARAMS|DCode=76|XSize=0.8532mm|YSize=1.9032mm|CornerRadius=0.2641mm|HoleSize=0mm|Usage=FLASHONLY|Rotation=90.000|XOffset=0mm|YOffset=0mm|HoleType=Round|Shape=RoundedRectangle|*
%AMROUNDEDRECTD76*
21,1,0.8532,1.3750,0,0,90.0*
21,1,0.3250,1.9032,0,0,90.0*
1,1,0.5282,0.6875,0.1625*
1,1,0.5282,0.6875,-0.1625*
1,1,0.5282,-0.6875,-0.1625*
1,1,0.5282,-0.6875,0.1625*
%
%ADD76ROUNDEDRECTD76*%
%ADD77R,1.1032X1.5032*%
G04:AMPARAMS|DCode=78|XSize=1.5032mm|YSize=1.3032mm|CornerRadius=0.3766mm|HoleSize=0mm|Usage=FLASHONLY|Rotation=90.000|XOffset=0mm|YOffset=0mm|HoleType=Round|Shape=RoundedRectangle|*
%AMROUNDEDRECTD78*
21,1,1.5032,0.5500,0,0,90.0*
21,1,0.7500,1.3032,0,0,90.0*
1,1,0.7532,0.2750,0.3750*
1,1,0.7532,0.2750,-0.3750*
1,1,0.7532,-0.2750,-0.3750*
1,1,0.7532,-0.2750,0.3750*
%
%ADD78ROUNDEDRECTD78*%
%ADD79R,1.5032X2.4032*%
G04:AMPARAMS|DCode=80|XSize=1.9532mm|YSize=1.4532mm|CornerRadius=0.4141mm|HoleSize=0mm|Usage=FLASHONLY|Rotation=270.000|XOffset=0mm|YOffset=0mm|HoleType=Round|Shape=RoundedRectangle|*
%AMROUNDEDRECTD80*
21,1,1.9532,0.6250,0,0,270.0*
21,1,1.1250,1.4532,0,0,270.0*
1,1,0.8282,-0.3125,-0.5625*
1,1,0.8282,-0.3125,0.5625*
1,1,0.8282,0.3125,0.5625*
1,1,0.8282,0.3125,-0.5625*
%
%ADD80ROUNDEDRECTD80*%
D32*
X442500Y325000D02*
D03*
Y375800D02*
D03*
Y350400D02*
D03*
D33*
X255000Y140000D02*
D03*
X280000D02*
D03*
X155000Y115000D02*
D03*
X180000D02*
D03*
X205000D02*
D03*
X230000D02*
D03*
X255000D02*
D03*
X280000D02*
D03*
X305000D02*
D03*
X330000D02*
D03*
X180000Y140000D02*
D03*
X205000D02*
D03*
X230000D02*
D03*
X305000D02*
D03*
X330000D02*
D03*
X122500Y804100D02*
D03*
X147500D02*
D03*
X172500D02*
D03*
X97500Y829100D02*
D03*
X122500D02*
D03*
X147500D02*
D03*
X172500D02*
D03*
D34*
X192500Y356250D02*
D03*
Y384250D02*
D03*
X237500Y356000D02*
D03*
Y384000D02*
D03*
X147500Y254000D02*
D03*
Y282000D02*
D03*
X192500Y254000D02*
D03*
Y282000D02*
D03*
X237500Y253750D02*
D03*
Y281750D02*
D03*
X283250Y433750D02*
D03*
Y405750D02*
D03*
X325750Y433750D02*
D03*
Y405750D02*
D03*
X147500Y384250D02*
D03*
Y356250D02*
D03*
X283250Y282250D02*
D03*
Y254250D02*
D03*
X325750Y282250D02*
D03*
Y254250D02*
D03*
X283250Y383750D02*
D03*
Y355750D02*
D03*
X325750Y383750D02*
D03*
Y355750D02*
D03*
X125000Y626500D02*
D03*
Y598500D02*
D03*
X95000Y626500D02*
D03*
Y598500D02*
D03*
X307500Y617500D02*
D03*
Y645500D02*
D03*
X337500Y617500D02*
D03*
Y645500D02*
D03*
X367500Y617500D02*
D03*
Y645500D02*
D03*
X277500Y617500D02*
D03*
Y645500D02*
D03*
D35*
X192500Y302500D02*
D03*
Y333500D02*
D03*
X237500Y302250D02*
D03*
Y333250D02*
D03*
X283250Y332750D02*
D03*
Y301750D02*
D03*
X325750Y332750D02*
D03*
Y301750D02*
D03*
X380000Y832000D02*
D03*
Y863000D02*
D03*
X405000Y832000D02*
D03*
Y863000D02*
D03*
X52500Y454500D02*
D03*
Y485500D02*
D03*
X80000Y454500D02*
D03*
Y485500D02*
D03*
X350000Y530500D02*
D03*
Y499500D02*
D03*
X400000Y530500D02*
D03*
Y499500D02*
D03*
X147500Y302500D02*
D03*
Y333500D02*
D03*
X70000Y250500D02*
D03*
Y219500D02*
D03*
X375000Y499500D02*
D03*
Y530500D02*
D03*
D36*
X167000Y627500D02*
D03*
X198000D02*
D03*
X167500Y605000D02*
D03*
X198500D02*
D03*
D37*
X441000Y446403D02*
D03*
X469000D02*
D03*
X441000Y491403D02*
D03*
X469000D02*
D03*
X441000Y533903D02*
D03*
X469000D02*
D03*
X441000Y576403D02*
D03*
X469000D02*
D03*
X441000Y618903D02*
D03*
X469000D02*
D03*
X441000Y661403D02*
D03*
X469000D02*
D03*
D41*
X193250Y185750D02*
D03*
Y225250D02*
D03*
X238250Y185500D02*
D03*
Y225000D02*
D03*
X283250Y225250D02*
D03*
Y185750D02*
D03*
X148250D02*
D03*
Y225250D02*
D03*
X325750Y185750D02*
D03*
Y225250D02*
D03*
D44*
X155000Y42610D02*
D03*
X328990D02*
D03*
X143800Y417500D02*
D03*
X169200D02*
D03*
X194600D02*
D03*
X220000D02*
D03*
X410200Y212500D02*
D03*
X384800D02*
D03*
X47500Y618300D02*
D03*
Y592900D02*
D03*
Y567500D02*
D03*
X375000Y244800D02*
D03*
Y270200D02*
D03*
D45*
X155000Y140000D02*
D03*
D46*
X462500Y912500D02*
D03*
X462500Y37500D02*
D03*
X37500D02*
D03*
Y912500D02*
D03*
D47*
X172500Y900900D02*
D03*
X97500D02*
D03*
D48*
Y804100D02*
D03*
D49*
X245400Y417500D02*
D03*
D50*
X47500Y542100D02*
D03*
D72*
X380000Y83500D02*
D03*
Y151500D02*
D03*
D73*
X214650Y657500D02*
D03*
X201950D02*
D03*
X189250D02*
D03*
X176550D02*
D03*
X163850D02*
D03*
X151150D02*
D03*
X138450D02*
D03*
X125750D02*
D03*
X113050D02*
D03*
X100350D02*
D03*
X214650Y752500D02*
D03*
X201950D02*
D03*
X189250D02*
D03*
X176550D02*
D03*
X163850D02*
D03*
X151150D02*
D03*
X138450D02*
D03*
X125750D02*
D03*
X113050D02*
D03*
X100350D02*
D03*
D74*
X352400Y871580D02*
D03*
Y848580D02*
D03*
Y825580D02*
D03*
D75*
X289400Y848580D02*
D03*
D76*
X107000Y450950D02*
D03*
Y463650D02*
D03*
Y476350D02*
D03*
Y489050D02*
D03*
X163000Y450950D02*
D03*
Y463650D02*
D03*
Y476350D02*
D03*
Y489050D02*
D03*
D77*
X417000Y327500D02*
D03*
X398000D02*
D03*
X435500Y215000D02*
D03*
X454500D02*
D03*
D78*
X435000Y185000D02*
D03*
X400000D02*
D03*
D79*
X399183Y298933D02*
D03*
X455750Y246000D02*
D03*
D80*
X393250Y352500D02*
D03*
X421750D02*
D03*
M02*
