M48
;Layer_Color=9474304
;FILE_FORMAT=4:4
METRIC,LZ
;TYPE=PLATED
T01F00S00C0.3000
T02F00S00C0.5000
T03F00S00C1.2500
T04F00S00C3.2000
T05F00S00C4.2000
;TYPE=NON_PLATED
T06F00S00C1.2000
%
T01
X001Y0005
X0015
X00175Y001
X00225
X00275
X00325
X0033147Y0013843
X0032258Y0014732
X0025Y0015
X002
X0015
X001
X0005
X00075Y001
X00125
Y002
X00175
X00225
X00275
X0029826Y0021825
X003Y0025
X0025
X002
X0015
X00175Y003
X00225
X00275
X003Y0035
X0035
X0025
X002
X0015
X001
X00125Y003
X00075
X0035306Y0024384
X00388967Y00218134
X00375Y001
X0035Y0005
X003
X0025
X004
X00425Y002
X0045Y0025
X005
X00525Y003
X00575
X006Y0035
X0055
X005
X0048133Y0036195
X0045Y0035
X004
X0041529Y0030734
X0040005Y0026924
X0039751Y0025781
X00475Y003
X0049403Y0039624
X005Y0015
X0055
X006
X0065
X0062992Y0019304
Y0020574
Y0021844
X0065Y0025
X0061087Y0025527
X0059817Y0024003
X007Y0025
X0075
X00775Y003
X00725
X0075Y0005
X007
X0065
X006
X0058293Y0010033
X0056985Y001005
X00625Y001
X008Y0005
X009
X0095
X01
X01020001Y0006
X01040001
X0105Y0005
X01050001Y0004
X01070001
X01090001
X011Y0005
X01100001Y0006
X01080001
X01060001
X01070001Y0008
X01090001
X01110001
Y0012
X01130001
Y0016
X011Y0015
X01100001Y0014
X01080001
X01090001Y0012
X01070001
X01050001
X01030001
Y0008
X01050001
X01030001Y0004
X01110001
X01130001
X01170001
X01190001
Y0012
X01180001Y0014
X01160001
Y0018
X01100001Y0022
X01060001
X01020001Y0018
X01Y0025
X0095
X009
X00875Y003
X00825
X008Y0025
X00975Y003
X01025
X01075
X01125
X01175
X01225
X01275
X01325
X0131826Y0023495
X0132987Y0022479
X01330001Y0016
X0133604Y0013589
X01330001Y0008
X01310001
X01290001
X01270001
Y0012
X01210001
X01240001Y0018
X01280001
X0123444Y0023876
X012Y0035
X013
X0135
X013814Y0037374
X0141732Y0037592
X014224Y0030861
X0145Y0025
Y0015
X01475Y001
X01525
Y002
Y003
X0139418Y0019022
X01325Y004
X01275
X01225
Y005
X01275
X01325
X01375
X01425
X015Y0045
X01525Y004
X0135Y0045
X0128905Y0044867
X01175Y004
X01125
X01075
X01025
X0105Y0045
X01075Y005
X01125
X01175
X01025
X00925
X009Y0045
X00925Y004
X00875
X00825
X008Y0045
X00725Y005
X00675
X00625
X00575
X00525
X00475
X00425
X0041783Y0043434
X004Y0045
X0046609Y0040259
X00475Y004
X0035Y0045
X003
X0025
X002
X0015
X001
X0005
X00075Y004
X00125
X00175
X00225
X00275
Y005
X00325
X00375
X00125
T02
X0003Y0003
X0005Y000225
X0007Y0003
X000775Y0005
X0007Y0007
X0005Y000775
X0003Y0007
X000225Y0005
X001725
X0018Y0003
X002Y000225
X0022Y0003
X002275Y0005
X0022Y0007
X002Y000775
X0018Y0007
X0083
X008225Y0005
X0083Y0003
X0085Y000225
X0087Y0003
X008775Y0005
X0087Y0007
X0085Y000775
X0148Y0007
X015Y000775
X0152Y0007
X015275Y0005
X0152Y0003
X015Y000225
X0148Y0003
X014725Y0005
X0148Y0048
X014725Y005
X0148Y0052
X015Y005275
X0152Y0052
X015275Y005
X0152Y0048
X015Y004725
X0087Y0048
X0085Y004725
X0083Y0048
X008225Y005
X0083Y0052
X0085Y005275
X0087Y0052
X008775Y005
X002275
X0022Y0048
X002Y004725
X0018Y0048
X001725Y005
X0018Y0052
X002Y005275
X0022Y0052
X0007
X000775Y005
X0007Y0048
X0005Y004725
X0003Y0048
X000225Y005
X0003Y0052
X0005Y005275
T03
X0112562Y000565
X0115062
X0117562
Y000815
X0115062
X0112562
X0099528Y0038942
X0097028
X0146979Y0038782
Y0036282
Y0033782
Y0031282
X0149479
Y0033782
Y0036282
Y0038782
X0149225Y0025828
X0146725
Y0023328
Y0020828
Y0018328
Y0015828
Y0013328
X0149225
Y0015828
Y0018328
Y0020828
Y0023328
X0125062Y000815
Y000565
X0122562
X0120062
Y000815
X0122562
X0146979Y0041282
Y0043782
X0149479
Y0041282
X0099528Y0041442
Y0043942
X0097028
Y0041442
Y0046442
X0099528
Y0048942
Y0051442
X0097028
Y0048942
T04
X002Y0005
X0085
Y005
X002
T05
X0005Y0005
X015
Y005
X0005
T06
X0118812Y000949
X0150565Y0019578
X0150819Y0037532
X0095688Y0045192
M30
