M48
;Layer_Color=9474304
;FILE_FORMAT=4:4
METRIC,LZ
;TYPE=PLATED
T01F00S00C0.3000
T02F00S00C0.5000
T03F00S00C1.2500
T04F00S00C3.2000
T05F00S00C4.2000
;TYPE=NON_PLATED
T06F00S00C1.2000
%
T01
X0012Y0004
X0016
X0014Y0008
X001
X0008Y0012
X0012
X0016
X002
X0024
X0028
X0032
X0036
X0038Y0016
X0034
X003
X0026
X0022
X0018
X0014
X001
X0006
X0004Y002
X0008
X0012
X0016
X002
X0024
X0028
X003Y0024
X0026
X0022
X0018
X0014
X001
X0006
X0004Y0028
X0008
X0012
X0016
X002
X0024
X0028
X003Y0032
X0034
X0038
X0036Y0036
X0032
X0028
X0024
X002
X0016
X0012
X0008
X0004
X0006Y0032
X001
X0014
X0018
X0022
X0026
Y0008
X003
X0034
X0038
X0036Y0004
X0032
X0028
X0024
X0004Y0012
X004
X0042Y0016
X0044Y002
X0048
X0052
X0056
X006
X0064
X0068
X0072
X0076
X0078Y0016
X0074
X007
X0066
X0062
X0058
X0054
X005
Y0008
X0054
X0058
X0062
X0066
X007
X0074
X0072Y0004
X0076
X0068
X0064
X006
X0056
X0052
X0048
X0044
X004
X0042Y0008
X0046
X0044Y0028
X0048
X0052
X0056
X006
X0054Y0032
X005
X0046
X0044Y0036
X004
X007Y0032
X0074
X0078
X0082
X0086
X009
X0094
X0098
X0102
X0106
X011
X0114
X0112Y002
X0116
Y0012
Y0004
X0112
X0108
X0104
X01
X0096
X0092
X0088
X0084
X0086Y0008
X009
X0094
X0098
X0102
X0106
X011
X0108Y0012
X0104
Y002
X0108
X0096
X0092
X0088
X0084
X008
X0082Y0016
X0086
X009
X0096Y0012
X0124
X0128
X0133604Y0013589
X0134Y0008
X0138
X0142
X0146
X0144Y0004
X014
X0136
X012
X0123444Y0023841
X013Y0024
X0132987Y0022479
X0139418Y0019022
X0144Y002
X0148
X0152
X0154Y0024
X0152Y0028
X0154Y0032
X0152Y0036
X013814Y0037374
X0132Y0036
X013Y0032
X0126
X0122
X0154Y0016
X0152Y0012
X0154Y0008
Y004
X0152Y0044
X0154Y0048
X0146
X0142
X0138
X0134
X013
X0126
X0122
X012Y0052
X0124
X0128
X0132
X0136
X014
X0144
Y0044
X0124
X012
X0122Y004
X0118
X0114
X011
X0106
X0102
X0104Y0044
X0108
X0112
X0116
X0118Y0048
X0114
X011
X0108Y0052
X0112
X0116
X0104
X0102Y0048
X0092Y0044
X0088
Y0052
X0084
X008Y0044
X0076
X0072
X0068
X0064
X0066Y0048
X007
X0074
X0072Y0052
X0076
X0064
X006
X0056
X0052
X0048
X0044
X004
X0042Y0048
X0046
X005
X0054
X0058
X0062
X0056Y0044
X0052
X0048
X0044
X004
X0042Y004
X0038
X0034
X003
X0026
X0022
X0018
X0014
X001
X0006
X0004Y0044
X0008
X0012
X0016
X002
X0024
X0028
X0032
X0036
X0038Y0048
X0034
X003
X0026
X0024Y0052
X0028
X0032
X0036
X0016
X0012
X0014Y0048
X001
T02
X0003Y0003
X0005Y000225
X0007Y0003
X000775Y0005
X0007Y0007
X0005Y000775
X0003Y0007
X000225Y0005
X001725
X0018Y0003
X002Y000225
X0022Y0003
X002275Y0005
X0022Y0007
X002Y000775
X0018Y0007
X003429Y0017018
X0034163Y0018415
X0035052Y0021717
X0037973Y0022652
X00380892Y00238279
X00394934Y00230916
X0042037Y0023241
X004177Y0024498
X0048133Y0036195
X0049403Y0039624
X0059817Y0025084
X0064262Y0026035
Y0027432
X0069723Y0029845
X0069088Y003175
X0078Y0007
X007725Y0005
X0078Y0003
X0040386Y0005969
X008Y000775
X0082Y0007
X008275Y0005
X0082Y0003
X008Y000225
X00824436Y0009398
X0082677Y0033782
X0130556Y0036576
X0129159Y0039624
X0140081Y0039497
X0148Y0007
X015Y000775
X0152Y0007
X015275Y0005
X0152Y0003
X015Y000225
X0148Y0003
X014725Y0005
X0148Y0048
X014725Y005
X0148Y0052
X015Y005275
X0152Y0052
X015275Y005
X0152Y0048
X015Y004725
X0127889Y0044867
X0082Y0048
X008Y004725
X008275Y005
X0082Y0052
X008Y005275
X0078Y0052
X007725Y005
X0078Y0048
X0046482Y0040132
X0022Y0048
X002275Y005
X0022Y0052
X002Y005275
X0018Y0052
X001725Y005
X0018Y0048
X002Y004725
X0007Y0048
X000775Y005
X0007Y0052
X0005Y005275
X0003Y0052
X000225Y005
X0003Y0048
X0005Y004725
T03
X0112562Y000565
X0115062
X0117562
Y000815
X0115062
X0112562
X0099528Y0038942
X0097028
X0146979Y0038782
Y0036282
Y0033782
Y0031282
X0149479
Y0033782
Y0036282
Y0038782
X0149225Y0025828
X0146725
Y0023328
Y0020828
Y0018328
Y0015828
Y0013328
X0149225
Y0015828
Y0018328
Y0020828
Y0023328
X0125062Y000815
Y000565
X0122562
X0120062
Y000815
X0122562
X0146979Y0041282
Y0043782
X0149479
Y0041282
X0099528Y0041442
Y0043942
X0097028
Y0041442
Y0046442
X0099528
Y0048942
Y0051442
X0097028
Y0048942
T04
X002Y0005
X008
Y005
X002
T05
X0005Y0005
X015
Y005
X0005
T06
X0118812Y000949
X0150565Y0019578
X0150819Y0037532
X0095688Y0045192
M30
