M48
;Layer_Color=9474304
;FILE_FORMAT=4:4
METRIC,LZ
;TYPE=PLATED
T01F00S00C0.3000
T02F00S00C0.5000
T03F00S00C1.2500
T04F00S00C3.2000
T05F00S00C4.2000
;TYPE=NON_PLATED
T06F00S00C1.2000
%
T01
X0028194Y0013335
X0029591Y0019177
X0034671Y0022733
X0039116Y0026543
X0034544Y0030988
X0027051Y0030861
X0046355Y0029972
X0047625Y0030226
Y0032766
X0046228Y0032893
X0045847Y0036449
X0048006Y0036576
X0047879Y0038989
X004953Y0038481
X0047752Y0027432
X0046863Y0027051
X0047879Y0024765
X0050673Y0023241
X004826Y0020574
X0046863Y0020193
X0068072Y0023114
X00686764Y001524
X00756948Y001447
X00968621Y0017145
X00967455Y00181865
X0099568Y0010795
X0103632Y0007239
X0118237Y0016256
X0105156Y0033909
X0078232Y0043815
X0046609Y004241
X0039624
T02
X0003207Y0003207
X0005207Y0002457
X0007207Y0003207
X0007957Y0005207
X0007207Y0007207
X0005207Y0007957
X0003207Y0007207
X0002457Y0005207
X00105Y0006
X0012Y0003
X0015Y0009
X0018
X0021
X0024
X00255Y0012
X00285
X003Y0015
X0027
Y0021
X0024
X00255Y0024
X00285
X00345
X00375
X0039Y0021
X0036
Y0027
X00375Y003
X00345
X00315
X00255
X00225
X00195
X00165
X00135
X0015Y0027
X0018
X0020447Y002667
X0024Y0027
X0018Y0021
X0015
X0012
Y0027
X0009
X0006
X0003
X00045Y003
X0006Y0033
X0003
X00045Y0036
X0003Y0039
X00045Y0024
X0003Y0021
X0019812Y0018415
X0021Y0015
X00225Y0012
X00195
X00165
X00135
X00345
X00375
X0039Y0015
X0036
Y0009
X0039
Y0003
X0036
X0045
X0048
X0051
X0053306Y0002616
X0055306Y0001866
X0057306Y0002616
X0058056Y0004616
X0057306Y0006616
X0055306Y0007366
X0053306Y0006616
X0052556Y0004616
X00525Y0012
X00555
X0054Y0015
X0051
X0048
X00495Y0012
X00465
X0048Y0009
X0045
X00465Y0024
X00525
X00555
X00585
X00615
X00645
X00675
Y0021
X0063
X006
X0057
X0054
X00555Y0018
X00585
X00615
X0063Y0015
X006
X00615Y0012
X00645
Y0006
X00675
X0069Y0003
X0072
X0075
X0078
Y0012
X0075
Y0018
X0078
X00765Y0021
X0072Y0024
Y0018
Y0033
X0066
X0063
X00645Y003
X00675
X0066Y0027
X0063
X006
X0057
X00585Y003
X00615
X00525
X0042Y0027
X00615Y0006
X0063Y0003
X0066
X006
X0075Y0039
X0081Y0036
X0084
X00855Y0033
X00885
X0095885Y0031623
X0094742Y0030353
X0095885Y0029083
X0095758Y002654
X00945Y0027
X0094361Y002527
X0096Y0024
X0096139Y002146
X00945Y0021
X0096Y0018
X0093
Y0012
X009
X0087
X0081
X0080899Y0010033
X0079502Y0009906
X0081Y0003
X0084
X0087
X009
X0093
X0096
X0099
X0102
X0105
X0108
X0111
X0113306Y0002616
X0115306Y0001866
X0117306Y0002616
X0118056Y0004616
X0117306Y0006616
X0117Y0009
X0114
X0115306Y0007366
X0113306Y0006616
X0112556Y0004616
X01095Y0006
Y0009
X01065
X01035
X01005
X00975
X0099Y0006
X0096
X0105
Y0024
X0108
X0111
X0114
X0117
X01185Y0033
X01155
X01125
X01095
X01065
X00975
X0097536Y0027813
X0102Y0024
X01155Y0039
X01185
X01215
X01245
X0126Y0036
Y003
Y0024
X0123
X012
X01215Y0033
X01365
X01395
X0144
X0147
X01485Y0036
X01455
X01425
X0144Y0039
X0147
X01485Y003
X01455
X0147Y0027
X0144
X01455Y0024
X01485
X0147Y0021
X0144
X01425
X01395
X0141Y0024
X0138
X01365Y0027
X0138Y003
X0141
Y0018
Y0015
X0144
X0147
X01485Y0018
X01455
X0138
Y0015
X0135
Y0009
X0138
X0141
X0143Y0007
X0145Y000775
X0147Y0007
X014775Y0005
X0147Y0003
X0145Y000225
X0143Y0003
X014225Y0005
X01395Y0006
X0132Y0009
X0129
X0126
X0123
X012
X01215Y0006
X01245
X0123Y0003
X012
X0132Y0024
X01305Y0027
X0132Y0045
X0135
X0138
X0141
X0144
X0147
X0147Y0048
X014775Y005
X0147Y0052
X0145Y005275
X0143Y0052
X014225Y005
X0143Y0048
X0145Y004725
X01395Y0048
X01365
X01335
X01305
X01275
X01245
X01215
Y0045
X01245
X01275
X0129Y0051
X0132
X0135
X0138
X0126
X0123
X012
X0117306Y0051616
X0115306Y0052366
X0113306Y0051616
X0112556Y0049616
X0113306Y0047616
X0115306Y0046866
X01155Y0045
X01185
X0117306Y0047616
X0118056Y0049616
X0111Y0051
X0108
X0105
X0102
X0099
X0096
X0093
X009
X0087
X0084
X0081
X00825Y0048
X00855
X00885
X00915
X00945
X00975
X01005
X01035
X01065
X01095
Y0045
X01125
X01065
X01035
X01005
X00975
X00945
X00795Y0048
X00765
X00735
X00705
X00675
X00645
X00615
X0063Y0051
X0066
X0069
X0072
X0075
X0078
X00765Y0042
X00705
X00675
X00645
X00615
X00585
X00555
X00525
X0053306Y0047616
X0055306Y0046866
X0057306Y0047616
X0058056Y0049616
X0057306Y0051616
X0055306Y0052366
X0053306Y0051616
X0052556Y0049616
X0051Y0051
X0048
X0045
X0042
X00435Y0048
X00465
X00495
X00405
Y0042
X00435
X006Y0051
X0039
X0036
X0033
X003
X0027
X0024
X0021
X0018
X0015
X0012
X00135Y0048
X00165
X00195
X00225
X00255
X00285
X00315
X00345
X00375
Y0042
X00345
X00315
X00285
X00255
X00225
X0018Y0045
X0015
X00105Y0048
X0007Y0048
X000775Y005
X0007Y0052
X0005Y005275
X0003Y0052
X000225Y005
X0003Y0048
X0005Y004725
X0006Y0045
X0003
X00045Y0042
T03
X000565Y0012479
Y0014979
Y0017479
Y0019979
Y0022479
Y0024979
X000815
Y0022479
Y0019979
Y0017479
Y0014979
Y0012479
X0008255Y0029377
Y0031877
Y0034377
Y0036877
Y0039377
X0010755
Y0036877
Y0034377
Y0031877
Y0029377
X0127989Y0035884
Y0038384
X0130489
X0132989
X0135489
X0137989
X0140489
Y0035884
X0137989
X0135489
X0132989
X0130489
X013087Y0022028
Y0019528
X012837
Y0022028
X013337
Y0019528
X013587
X013837
X014087
Y0022028
X013837
X013587
X0010755Y0041877
X0008255
T04
X0055306Y0004616
X0115306
Y0049616
X0055306
T05
X0005Y0005
X0145
Y005
X0005
T06
X000949Y0018729
X0006915Y0035627
X0134239Y0034544
X013462Y0023368
M30
