G04*
G04 #@! TF.GenerationSoftware,Altium Limited,Altium Designer,19.1.8 (144)*
G04*
G04 Layer_Color=32896*
%FSLAX44Y44*%
%MOMM*%
G71*
G01*
G75*
%ADD10C,0.2000*%
%ADD12C,0.2500*%
%ADD14C,0.1000*%
%ADD17R,0.6187X3.9500*%
%ADD18C,0.0500*%
%ADD40C,0.4000*%
G36*
X602890Y370213D02*
X603016Y370170D01*
X603073Y370142D01*
X603115Y370128D01*
X603143Y370100D01*
X603157D01*
X604074Y369522D01*
X604130Y369494D01*
X604158Y369451D01*
X604215Y369367D01*
X604229Y369296D01*
Y369282D01*
Y369268D01*
Y368436D01*
X604215Y368366D01*
X604201Y368324D01*
X604158Y368295D01*
X604045D01*
X604031Y368310D01*
X604017D01*
X603016Y368873D01*
Y363940D01*
X603002Y363869D01*
X602988Y363813D01*
X602946Y363784D01*
X602904Y363756D01*
X602833Y363728D01*
X601931D01*
X601861Y363742D01*
X601804Y363756D01*
X601790Y363770D01*
X601776D01*
X601748Y363813D01*
X601734Y363869D01*
Y363925D01*
Y363940D01*
Y370029D01*
X601748Y370100D01*
X601762Y370156D01*
X601804Y370184D01*
X601832Y370213D01*
X601917Y370241D01*
X602763D01*
X602890Y370213D01*
D02*
G37*
G36*
X600380Y370227D02*
X600437Y370213D01*
X600479Y370170D01*
X600507Y370142D01*
X600535Y370058D01*
Y370043D01*
Y370029D01*
Y366815D01*
X600521Y366745D01*
X600493Y366702D01*
X600423Y366646D01*
X600338Y366618D01*
X599478D01*
X599422Y366632D01*
X599365Y366646D01*
X599267Y366731D01*
X599210Y366801D01*
X599182Y366815D01*
Y366829D01*
X599126Y366900D01*
X599055Y366956D01*
X598999Y366984D01*
X598928Y367013D01*
X598872Y367027D01*
X598830Y367041D01*
X598181D01*
X598068Y367013D01*
X597970Y366998D01*
X597899Y366970D01*
X597857Y366942D01*
X597815Y366914D01*
X597786Y366900D01*
Y366886D01*
X597730Y366815D01*
X597702Y366731D01*
X597645Y366533D01*
Y366435D01*
X597631Y366364D01*
Y366308D01*
Y366294D01*
Y365391D01*
Y365279D01*
X597660Y365180D01*
X597674Y365095D01*
X597702Y365039D01*
X597730Y364983D01*
X597758Y364954D01*
X597772Y364940D01*
X597786Y364926D01*
X597857Y364884D01*
X597927Y364856D01*
X598083Y364813D01*
X598153D01*
X598209Y364799D01*
X598858D01*
X598942Y364813D01*
X599027Y364842D01*
X599083Y364870D01*
X599140Y364884D01*
X599168Y364912D01*
X599196Y364926D01*
X599239Y364983D01*
X599281Y365053D01*
X599323Y365208D01*
Y365279D01*
X599337Y365335D01*
Y365377D01*
Y365391D01*
Y365575D01*
X599351Y365645D01*
X599365Y365702D01*
X599408Y365744D01*
X599436Y365772D01*
X599520Y365800D01*
X600409D01*
X600479Y365786D01*
X600535Y365772D01*
X600564Y365730D01*
X600592Y365687D01*
X600620Y365617D01*
Y365589D01*
Y365575D01*
Y365377D01*
X600606Y365095D01*
X600550Y364842D01*
X600479Y364630D01*
X600394Y364461D01*
X600324Y364334D01*
X600253Y364235D01*
X600197Y364165D01*
X600183Y364151D01*
X600000Y364010D01*
X599802Y363911D01*
X599605Y363827D01*
X599394Y363784D01*
X599224Y363756D01*
X599069Y363742D01*
X599013Y363728D01*
X598054D01*
X597772Y363742D01*
X597533Y363798D01*
X597321Y363869D01*
X597138Y363940D01*
X597011Y364024D01*
X596912Y364080D01*
X596842Y364137D01*
X596828Y364151D01*
X596687Y364334D01*
X596574Y364532D01*
X596504Y364729D01*
X596447Y364926D01*
X596419Y365109D01*
X596391Y365251D01*
Y365307D01*
Y365349D01*
Y365363D01*
Y365377D01*
Y366491D01*
X596405Y366773D01*
X596461Y367013D01*
X596532Y367224D01*
X596631Y367407D01*
X596757Y367562D01*
X596884Y367689D01*
X597025Y367788D01*
X597166Y367873D01*
X597321Y367943D01*
X597462Y367985D01*
X597589Y368028D01*
X597716Y368042D01*
X597815Y368056D01*
X597885Y368070D01*
X598393D01*
X598618Y368042D01*
X598815Y367985D01*
X598956Y367915D01*
X599069Y367816D01*
X599154Y367718D01*
X599196Y367647D01*
X599224Y367591D01*
X599239Y367562D01*
Y369057D01*
X596786D01*
X596715Y369071D01*
X596659Y369085D01*
X596631Y369127D01*
X596602Y369169D01*
X596574Y369240D01*
Y369254D01*
Y369268D01*
Y370029D01*
X596588Y370100D01*
X596602Y370156D01*
X596645Y370184D01*
X596673Y370213D01*
X596757Y370241D01*
X600310D01*
X600380Y370227D01*
D02*
G37*
G36*
X607965D02*
X608218Y370170D01*
X608430Y370114D01*
X608599Y370029D01*
X608740Y369959D01*
X608839Y369888D01*
X608909Y369832D01*
X608923Y369818D01*
X609064Y369649D01*
X609177Y369451D01*
X609247Y369240D01*
X609304Y369043D01*
X609332Y368873D01*
X609346Y368718D01*
X609360Y368662D01*
Y368634D01*
Y368606D01*
Y368591D01*
Y365377D01*
X609346Y365095D01*
X609290Y364842D01*
X609219Y364630D01*
X609134Y364461D01*
X609064Y364334D01*
X608994Y364235D01*
X608937Y364165D01*
X608923Y364151D01*
X608740Y364010D01*
X608543Y363911D01*
X608345Y363827D01*
X608134Y363784D01*
X607965Y363756D01*
X607809Y363742D01*
X607753Y363728D01*
X606583D01*
X606301Y363742D01*
X606047Y363798D01*
X605836Y363869D01*
X605667Y363940D01*
X605526Y364024D01*
X605427Y364080D01*
X605356Y364137D01*
X605342Y364151D01*
X605201Y364334D01*
X605089Y364532D01*
X605018Y364729D01*
X604962Y364926D01*
X604934Y365109D01*
X604905Y365251D01*
Y365307D01*
Y365349D01*
Y365363D01*
Y365377D01*
Y365857D01*
X604920Y365927D01*
X604934Y365984D01*
X604976Y366026D01*
X605018Y366054D01*
X605089Y366082D01*
X605977D01*
X606047Y366068D01*
X606104Y366054D01*
X606132Y366012D01*
X606160Y365969D01*
X606188Y365899D01*
Y365871D01*
Y365857D01*
Y365434D01*
Y365321D01*
X606217Y365222D01*
X606231Y365138D01*
X606259Y365081D01*
X606287Y365025D01*
X606301Y364997D01*
X606329Y364983D01*
Y364968D01*
X606386Y364926D01*
X606456Y364898D01*
X606611Y364856D01*
X606682D01*
X606738Y364842D01*
X607598D01*
X607683Y364856D01*
X607767Y364884D01*
X607823Y364912D01*
X607880Y364926D01*
X607908Y364954D01*
X607936Y364968D01*
X607979Y365025D01*
X608007Y365095D01*
X608049Y365251D01*
Y365321D01*
X608063Y365377D01*
Y365420D01*
Y365434D01*
Y368535D01*
Y368648D01*
X608049Y368746D01*
X608021Y368817D01*
X607993Y368887D01*
X607979Y368930D01*
X607950Y368958D01*
X607936Y368986D01*
X607880Y369029D01*
X607809Y369071D01*
X607654Y369113D01*
X607584Y369127D01*
X606682D01*
X606583Y369099D01*
X606498Y369085D01*
X606442Y369057D01*
X606386Y369029D01*
X606357Y369014D01*
X606329Y368986D01*
X606287Y368930D01*
X606245Y368859D01*
X606202Y368718D01*
X606188Y368648D01*
Y368591D01*
Y368549D01*
Y368535D01*
Y368112D01*
X606174Y368042D01*
X606160Y367985D01*
X606118Y367943D01*
X606076Y367915D01*
X606005Y367887D01*
X605131D01*
X605061Y367901D01*
X605004Y367929D01*
X604962Y367957D01*
X604934Y367999D01*
X604905Y368084D01*
Y368098D01*
Y368112D01*
Y368591D01*
X604920Y368873D01*
X604976Y369113D01*
X605046Y369324D01*
X605117Y369494D01*
X605201Y369635D01*
X605272Y369719D01*
X605328Y369790D01*
X605342Y369804D01*
X605526Y369945D01*
X605723Y370058D01*
X605920Y370128D01*
X606132Y370184D01*
X606301Y370213D01*
X606456Y370241D01*
X607683D01*
X607965Y370227D01*
D02*
G37*
G36*
X478470Y326793D02*
X478526Y326779D01*
X478569Y326736D01*
X478583Y326694D01*
Y326624D01*
Y326595D01*
Y326581D01*
X477004Y320505D01*
X476976Y320435D01*
X476948Y320379D01*
X476905Y320350D01*
X476863Y320322D01*
X476778Y320294D01*
X475425D01*
X475355Y320308D01*
X475298Y320322D01*
X475228Y320407D01*
X475200Y320477D01*
X475186Y320491D01*
Y320505D01*
X473607Y326581D01*
Y326652D01*
X473621Y326708D01*
X473649Y326750D01*
X473691Y326779D01*
X473776Y326807D01*
X474763D01*
X474833Y326793D01*
X474889Y326779D01*
X474974Y326708D01*
X475002Y326624D01*
X475016Y326609D01*
Y326595D01*
X476074Y321605D01*
X476116D01*
X477187Y326595D01*
X477201Y326666D01*
X477230Y326722D01*
X477272Y326750D01*
X477314Y326779D01*
X477399Y326807D01*
X478386D01*
X478470Y326793D01*
D02*
G37*
G36*
X482981D02*
X483037Y326779D01*
X483066Y326736D01*
X483094Y326708D01*
X483122Y326624D01*
Y326609D01*
Y326595D01*
Y325905D01*
X483108Y325834D01*
X483094Y325778D01*
X483052Y325750D01*
X483009Y325721D01*
X482939Y325693D01*
X481755D01*
X481684Y325679D01*
X481656Y325637D01*
X481642Y325594D01*
Y325580D01*
Y320505D01*
X481628Y320435D01*
X481600Y320379D01*
X481571Y320350D01*
X481529Y320322D01*
X481445Y320294D01*
X480556D01*
X480486Y320308D01*
X480430Y320322D01*
X480401Y320364D01*
X480373Y320407D01*
X480345Y320477D01*
Y320491D01*
Y320505D01*
Y325580D01*
X480331Y325651D01*
X480289Y325679D01*
X480246Y325693D01*
X479076D01*
X479006Y325707D01*
X478949Y325721D01*
X478907Y325764D01*
X478879Y325806D01*
X478851Y325876D01*
Y325891D01*
Y325905D01*
Y326595D01*
X478865Y326666D01*
X478879Y326722D01*
X478921Y326750D01*
X478964Y326779D01*
X479034Y326807D01*
X482911D01*
X482981Y326793D01*
D02*
G37*
G36*
X471563D02*
X471816Y326736D01*
X472028Y326666D01*
X472211Y326595D01*
X472352Y326511D01*
X472451Y326440D01*
X472507Y326384D01*
X472535Y326370D01*
X472676Y326201D01*
X472789Y326003D01*
X472859Y325792D01*
X472916Y325594D01*
X472944Y325425D01*
X472958Y325270D01*
X472972Y325214D01*
Y325186D01*
Y325158D01*
Y325143D01*
Y324791D01*
X472958Y324565D01*
X472930Y324368D01*
X472902Y324199D01*
X472845Y324044D01*
X472803Y323931D01*
X472775Y323832D01*
X472747Y323776D01*
X472733Y323762D01*
X472634Y323621D01*
X472535Y323508D01*
X472437Y323424D01*
X472352Y323353D01*
X472267Y323297D01*
X472197Y323254D01*
X472155Y323240D01*
X472141Y323226D01*
X471873Y323128D01*
X471746Y323099D01*
X471633Y323057D01*
X471520Y323029D01*
X471450Y323015D01*
X471393Y323001D01*
X471379D01*
X471083Y322944D01*
X470942Y322930D01*
X470830Y322916D01*
X470731Y322902D01*
X470660Y322888D01*
X470604D01*
X470364Y322846D01*
X470266Y322817D01*
X470181Y322775D01*
X470111Y322747D01*
X470054Y322719D01*
X470026Y322705D01*
X470012Y322691D01*
X469927Y322620D01*
X469871Y322550D01*
X469829Y322479D01*
X469800Y322408D01*
X469786Y322338D01*
X469772Y322282D01*
Y322253D01*
Y322239D01*
Y322127D01*
Y321986D01*
X469800Y321859D01*
X469814Y321760D01*
X469843Y321675D01*
X469871Y321619D01*
X469899Y321577D01*
X469913Y321563D01*
X469927Y321549D01*
X469998Y321506D01*
X470082Y321464D01*
X470266Y321422D01*
X470350D01*
X470421Y321408D01*
X471097D01*
X471210Y321436D01*
X471309Y321450D01*
X471393Y321478D01*
X471450Y321506D01*
X471492Y321520D01*
X471506Y321549D01*
X471520D01*
X471577Y321605D01*
X471605Y321690D01*
X471661Y321859D01*
Y321943D01*
X471675Y322014D01*
Y322056D01*
Y322070D01*
Y322155D01*
X471689Y322225D01*
X471703Y322282D01*
X471746Y322310D01*
X471774Y322338D01*
X471859Y322366D01*
X472747D01*
X472817Y322352D01*
X472874Y322338D01*
X472902Y322296D01*
X472930Y322268D01*
X472958Y322183D01*
Y322169D01*
Y322155D01*
Y321957D01*
X472944Y321675D01*
X472888Y321422D01*
X472817Y321210D01*
X472733Y321041D01*
X472662Y320900D01*
X472592Y320802D01*
X472535Y320731D01*
X472521Y320717D01*
X472338Y320576D01*
X472141Y320477D01*
X471929Y320393D01*
X471732Y320350D01*
X471549Y320322D01*
X471408Y320308D01*
X471351Y320294D01*
X470167D01*
X469885Y320308D01*
X469645Y320364D01*
X469434Y320435D01*
X469251Y320505D01*
X469124Y320590D01*
X469025Y320646D01*
X468955Y320703D01*
X468941Y320717D01*
X468785Y320900D01*
X468673Y321097D01*
X468602Y321295D01*
X468546Y321506D01*
X468518Y321675D01*
X468489Y321831D01*
Y321887D01*
Y321929D01*
Y321943D01*
Y321957D01*
Y322296D01*
X468503Y322507D01*
X468532Y322705D01*
X468560Y322874D01*
X468602Y323029D01*
X468659Y323142D01*
X468687Y323226D01*
X468715Y323283D01*
X468729Y323297D01*
X468828Y323438D01*
X468926Y323550D01*
X469025Y323649D01*
X469110Y323720D01*
X469194Y323776D01*
X469265Y323818D01*
X469307Y323846D01*
X469321D01*
X469575Y323945D01*
X469843Y324016D01*
X470097Y324072D01*
X470336Y324114D01*
X470533Y324142D01*
X470703Y324171D01*
X470759D01*
X470801Y324185D01*
X470844D01*
X470985Y324199D01*
X471111Y324227D01*
X471224Y324255D01*
X471323Y324297D01*
X471408Y324340D01*
X471478Y324396D01*
X471577Y324481D01*
X471633Y324580D01*
X471661Y324664D01*
X471675Y324720D01*
Y324735D01*
Y324932D01*
Y325087D01*
X471647Y325214D01*
X471633Y325327D01*
X471605Y325411D01*
X471577Y325468D01*
X471563Y325510D01*
X471534Y325524D01*
Y325538D01*
X471464Y325594D01*
X471379Y325623D01*
X471196Y325679D01*
X471111D01*
X471041Y325693D01*
X470435D01*
X470322Y325665D01*
X470223Y325651D01*
X470153Y325623D01*
X470097Y325594D01*
X470054Y325580D01*
X470026Y325552D01*
X469970Y325496D01*
X469941Y325411D01*
X469885Y325228D01*
Y325143D01*
X469871Y325087D01*
Y325031D01*
Y325017D01*
Y324960D01*
X469857Y324890D01*
X469829Y324833D01*
X469800Y324805D01*
X469758Y324777D01*
X469674Y324749D01*
X468785D01*
X468715Y324763D01*
X468659Y324777D01*
X468630Y324819D01*
X468602Y324861D01*
X468574Y324932D01*
Y324946D01*
Y324960D01*
Y325143D01*
X468588Y325425D01*
X468644Y325679D01*
X468715Y325891D01*
X468800Y326060D01*
X468884Y326201D01*
X468955Y326285D01*
X469011Y326356D01*
X469025Y326370D01*
X469208Y326511D01*
X469406Y326624D01*
X469617Y326694D01*
X469814Y326750D01*
X469998Y326779D01*
X470139Y326807D01*
X471281D01*
X471563Y326793D01*
D02*
G37*
G36*
X306787Y633019D02*
X307041Y632962D01*
X307253Y632906D01*
X307422Y632821D01*
X307563Y632751D01*
X307661Y632680D01*
X307732Y632624D01*
X307746Y632610D01*
X307887Y632441D01*
X308000Y632243D01*
X308070Y632046D01*
X308127Y631849D01*
X308155Y631665D01*
X308169Y631525D01*
X308183Y631468D01*
Y631426D01*
Y631412D01*
Y631398D01*
Y631045D01*
X308169Y630975D01*
X308141Y630918D01*
X308113Y630890D01*
X308070Y630862D01*
X307986Y630834D01*
X307097D01*
X307027Y630848D01*
X306971Y630862D01*
X306942Y630904D01*
X306914Y630947D01*
X306886Y631017D01*
Y631031D01*
Y631045D01*
Y631369D01*
Y631482D01*
X306872Y631581D01*
X306844Y631651D01*
X306816Y631722D01*
X306801Y631764D01*
X306773Y631792D01*
X306759Y631820D01*
X306703Y631863D01*
X306632Y631905D01*
X306477Y631947D01*
X306407Y631962D01*
X305829D01*
X305730Y631933D01*
X305646Y631919D01*
X305575Y631891D01*
X305519Y631863D01*
X305490Y631849D01*
X305462Y631820D01*
X305406Y631764D01*
X305378Y631694D01*
X305321Y631553D01*
Y631482D01*
X305307Y631426D01*
Y631384D01*
Y631369D01*
Y631073D01*
X305321Y630918D01*
X305378Y630763D01*
X305448Y630622D01*
X305533Y630495D01*
X305631Y630397D01*
X305702Y630326D01*
X305758Y630270D01*
X305772Y630256D01*
X307633Y628677D01*
X307802Y628522D01*
X307929Y628353D01*
X308014Y628184D01*
X308070Y628028D01*
X308113Y627902D01*
X308127Y627789D01*
X308141Y627718D01*
Y627690D01*
Y626731D01*
X308127Y626661D01*
X308113Y626605D01*
X308070Y626576D01*
X308028Y626548D01*
X307957Y626520D01*
X304264D01*
X304193Y626534D01*
X304137Y626548D01*
X304109Y626590D01*
X304081Y626633D01*
X304053Y626703D01*
Y626717D01*
Y626731D01*
Y627436D01*
X304067Y627507D01*
X304081Y627563D01*
X304123Y627591D01*
X304151Y627620D01*
X304236Y627648D01*
X306689D01*
Y627817D01*
X306675Y627902D01*
X306632Y627986D01*
X306590Y628042D01*
X306576Y628057D01*
X304659Y629678D01*
X304546Y629776D01*
X304461Y629889D01*
X304306Y630101D01*
X304193Y630326D01*
X304123Y630524D01*
X304081Y630707D01*
X304067Y630862D01*
X304053Y630918D01*
Y630961D01*
Y630975D01*
Y630989D01*
Y631398D01*
X304067Y631680D01*
X304123Y631919D01*
X304193Y632131D01*
X304264Y632300D01*
X304349Y632441D01*
X304419Y632525D01*
X304475Y632596D01*
X304490Y632610D01*
X304673Y632751D01*
X304870Y632850D01*
X305068Y632934D01*
X305279Y632976D01*
X305448Y633005D01*
X305603Y633033D01*
X306505D01*
X306787Y633019D01*
D02*
G37*
G36*
X302911D02*
X302967Y633005D01*
X303009Y632962D01*
X303038Y632934D01*
X303066Y632850D01*
Y632836D01*
Y632821D01*
Y629607D01*
X303052Y629537D01*
X303023Y629495D01*
X302953Y629438D01*
X302868Y629410D01*
X302008D01*
X301952Y629424D01*
X301896Y629438D01*
X301797Y629523D01*
X301741Y629593D01*
X301712Y629607D01*
Y629621D01*
X301656Y629692D01*
X301586Y629748D01*
X301529Y629776D01*
X301459Y629805D01*
X301402Y629819D01*
X301360Y629833D01*
X300712D01*
X300599Y629805D01*
X300500Y629791D01*
X300430Y629762D01*
X300387Y629734D01*
X300345Y629706D01*
X300317Y629692D01*
Y629678D01*
X300261Y629607D01*
X300232Y629523D01*
X300176Y629325D01*
Y629227D01*
X300162Y629156D01*
Y629100D01*
Y629086D01*
Y628184D01*
Y628071D01*
X300190Y627972D01*
X300204Y627887D01*
X300232Y627831D01*
X300261Y627775D01*
X300289Y627747D01*
X300303Y627732D01*
X300317Y627718D01*
X300387Y627676D01*
X300458Y627648D01*
X300613Y627606D01*
X300683D01*
X300740Y627591D01*
X301388D01*
X301473Y627606D01*
X301557Y627634D01*
X301614Y627662D01*
X301670Y627676D01*
X301698Y627704D01*
X301726Y627718D01*
X301769Y627775D01*
X301811Y627845D01*
X301853Y628000D01*
Y628071D01*
X301868Y628127D01*
Y628169D01*
Y628184D01*
Y628367D01*
X301882Y628437D01*
X301896Y628494D01*
X301938Y628536D01*
X301966Y628564D01*
X302051Y628592D01*
X302939D01*
X303009Y628578D01*
X303066Y628564D01*
X303094Y628522D01*
X303122Y628479D01*
X303150Y628409D01*
Y628381D01*
Y628367D01*
Y628169D01*
X303136Y627887D01*
X303080Y627634D01*
X303009Y627422D01*
X302925Y627253D01*
X302854Y627126D01*
X302784Y627028D01*
X302727Y626957D01*
X302713Y626943D01*
X302530Y626802D01*
X302333Y626703D01*
X302135Y626619D01*
X301924Y626576D01*
X301755Y626548D01*
X301600Y626534D01*
X301543Y626520D01*
X300585D01*
X300303Y626534D01*
X300063Y626590D01*
X299852Y626661D01*
X299668Y626731D01*
X299541Y626816D01*
X299443Y626872D01*
X299372Y626929D01*
X299358Y626943D01*
X299217Y627126D01*
X299104Y627324D01*
X299034Y627521D01*
X298978Y627718D01*
X298949Y627902D01*
X298921Y628042D01*
Y628099D01*
Y628141D01*
Y628155D01*
Y628169D01*
Y629283D01*
X298935Y629565D01*
X298992Y629805D01*
X299062Y630016D01*
X299161Y630199D01*
X299288Y630354D01*
X299415Y630481D01*
X299556Y630580D01*
X299697Y630665D01*
X299852Y630735D01*
X299993Y630777D01*
X300119Y630820D01*
X300246Y630834D01*
X300345Y630848D01*
X300415Y630862D01*
X300923D01*
X301149Y630834D01*
X301346Y630777D01*
X301487Y630707D01*
X301600Y630608D01*
X301684Y630509D01*
X301726Y630439D01*
X301755Y630383D01*
X301769Y630354D01*
Y631849D01*
X299316D01*
X299245Y631863D01*
X299189Y631877D01*
X299161Y631919D01*
X299133Y631962D01*
X299104Y632032D01*
Y632046D01*
Y632060D01*
Y632821D01*
X299119Y632892D01*
X299133Y632948D01*
X299175Y632976D01*
X299203Y633005D01*
X299288Y633033D01*
X302840D01*
X302911Y633019D01*
D02*
G37*
G36*
X313371D02*
X313427Y633005D01*
X313455Y632962D01*
X313483Y632934D01*
X313512Y632850D01*
Y632836D01*
Y632821D01*
Y626731D01*
X313498Y626661D01*
X313483Y626605D01*
X313441Y626576D01*
X313399Y626548D01*
X313328Y626520D01*
X312426D01*
X312356Y626534D01*
X312299Y626548D01*
X312271Y626590D01*
X312243Y626633D01*
X312215Y626703D01*
Y626717D01*
Y626731D01*
Y628804D01*
X312201Y628874D01*
X312158Y628903D01*
X312116Y628917D01*
X311411D01*
X310396Y626731D01*
X310354Y626647D01*
X310312Y626590D01*
X310283Y626562D01*
X310269Y626548D01*
X310185Y626534D01*
X310100Y626520D01*
X309184D01*
X309099Y626534D01*
X309043Y626562D01*
X309015Y626590D01*
X309001Y626647D01*
Y626717D01*
X309015Y626746D01*
Y626760D01*
X310100Y629015D01*
Y629058D01*
X309945Y629142D01*
X309804Y629227D01*
X309677Y629339D01*
X309579Y629452D01*
X309494Y629579D01*
X309424Y629706D01*
X309311Y629960D01*
X309240Y630199D01*
X309226Y630298D01*
X309212Y630397D01*
X309198Y630467D01*
Y630524D01*
Y630566D01*
Y630580D01*
Y631369D01*
X309212Y631651D01*
X309268Y631905D01*
X309339Y632117D01*
X309424Y632286D01*
X309508Y632427D01*
X309579Y632511D01*
X309635Y632582D01*
X309649Y632596D01*
X309832Y632737D01*
X310030Y632850D01*
X310227Y632920D01*
X310424Y632976D01*
X310608Y633005D01*
X310749Y633033D01*
X313300D01*
X313371Y633019D01*
D02*
G37*
G36*
X331933D02*
X332187Y632962D01*
X332399Y632906D01*
X332568Y632821D01*
X332709Y632751D01*
X332807Y632680D01*
X332878Y632624D01*
X332892Y632610D01*
X333033Y632441D01*
X333146Y632243D01*
X333216Y632046D01*
X333273Y631849D01*
X333301Y631665D01*
X333315Y631525D01*
X333329Y631468D01*
Y631426D01*
Y631412D01*
Y631398D01*
Y631045D01*
X333315Y630975D01*
X333287Y630918D01*
X333259Y630890D01*
X333216Y630862D01*
X333132Y630834D01*
X332243D01*
X332173Y630848D01*
X332117Y630862D01*
X332088Y630904D01*
X332060Y630947D01*
X332032Y631017D01*
Y631031D01*
Y631045D01*
Y631369D01*
Y631482D01*
X332018Y631581D01*
X331990Y631651D01*
X331962Y631722D01*
X331948Y631764D01*
X331919Y631792D01*
X331905Y631820D01*
X331849Y631863D01*
X331778Y631905D01*
X331623Y631947D01*
X331553Y631962D01*
X330975D01*
X330876Y631933D01*
X330792Y631919D01*
X330721Y631891D01*
X330665Y631863D01*
X330636Y631849D01*
X330608Y631820D01*
X330552Y631764D01*
X330524Y631694D01*
X330467Y631553D01*
Y631482D01*
X330453Y631426D01*
Y631384D01*
Y631369D01*
Y631073D01*
X330467Y630918D01*
X330524Y630763D01*
X330594Y630622D01*
X330679Y630495D01*
X330777Y630397D01*
X330848Y630326D01*
X330904Y630270D01*
X330918Y630256D01*
X332779Y628677D01*
X332948Y628522D01*
X333075Y628353D01*
X333160Y628184D01*
X333216Y628028D01*
X333259Y627902D01*
X333273Y627789D01*
X333287Y627718D01*
Y627690D01*
Y626731D01*
X333273Y626661D01*
X333259Y626605D01*
X333216Y626576D01*
X333174Y626548D01*
X333103Y626520D01*
X329410D01*
X329339Y626534D01*
X329283Y626548D01*
X329255Y626590D01*
X329227Y626633D01*
X329199Y626703D01*
Y626717D01*
Y626731D01*
Y627436D01*
X329213Y627507D01*
X329227Y627563D01*
X329269Y627591D01*
X329297Y627620D01*
X329382Y627648D01*
X331835D01*
Y627817D01*
X331821Y627902D01*
X331778Y627986D01*
X331736Y628042D01*
X331722Y628057D01*
X329805Y629678D01*
X329692Y629776D01*
X329607Y629889D01*
X329452Y630101D01*
X329339Y630326D01*
X329269Y630524D01*
X329227Y630707D01*
X329213Y630862D01*
X329199Y630918D01*
Y630961D01*
Y630975D01*
Y630989D01*
Y631398D01*
X329213Y631680D01*
X329269Y631919D01*
X329339Y632131D01*
X329410Y632300D01*
X329495Y632441D01*
X329565Y632525D01*
X329622Y632596D01*
X329636Y632610D01*
X329819Y632751D01*
X330016Y632850D01*
X330214Y632934D01*
X330425Y632976D01*
X330594Y633005D01*
X330749Y633033D01*
X331651D01*
X331933Y633019D01*
D02*
G37*
G36*
X338517D02*
X338573Y633005D01*
X338601Y632962D01*
X338629Y632934D01*
X338658Y632850D01*
Y632836D01*
Y632821D01*
Y626731D01*
X338643Y626661D01*
X338629Y626605D01*
X338587Y626576D01*
X338545Y626548D01*
X338474Y626520D01*
X337572D01*
X337502Y626534D01*
X337445Y626548D01*
X337417Y626590D01*
X337389Y626633D01*
X337361Y626703D01*
Y626717D01*
Y626731D01*
Y628804D01*
X337347Y628874D01*
X337304Y628903D01*
X337262Y628917D01*
X336557D01*
X335542Y626731D01*
X335500Y626647D01*
X335458Y626590D01*
X335429Y626562D01*
X335415Y626548D01*
X335331Y626534D01*
X335246Y626520D01*
X334330D01*
X334245Y626534D01*
X334189Y626562D01*
X334161Y626590D01*
X334147Y626647D01*
Y626717D01*
X334161Y626746D01*
Y626760D01*
X335246Y629015D01*
Y629058D01*
X335091Y629142D01*
X334950Y629227D01*
X334823Y629339D01*
X334725Y629452D01*
X334640Y629579D01*
X334570Y629706D01*
X334457Y629960D01*
X334386Y630199D01*
X334372Y630298D01*
X334358Y630397D01*
X334344Y630467D01*
Y630524D01*
Y630566D01*
Y630580D01*
Y631369D01*
X334358Y631651D01*
X334414Y631905D01*
X334485Y632117D01*
X334570Y632286D01*
X334654Y632427D01*
X334725Y632511D01*
X334781Y632582D01*
X334795Y632596D01*
X334978Y632737D01*
X335176Y632850D01*
X335373Y632920D01*
X335570Y632976D01*
X335754Y633005D01*
X335895Y633033D01*
X338446D01*
X338517Y633019D01*
D02*
G37*
G36*
X325970D02*
X326041Y633005D01*
X326097Y632976D01*
X326111Y632962D01*
X326182Y632906D01*
X326238Y632821D01*
X326281Y632751D01*
X326295Y632737D01*
Y632723D01*
X328325Y628973D01*
X328381Y628818D01*
X328409Y628649D01*
X328423Y628578D01*
Y628522D01*
Y628479D01*
Y628465D01*
Y628071D01*
X328409Y627958D01*
X328367Y627873D01*
X328339Y627817D01*
X328325Y627803D01*
X328226Y627747D01*
X328141Y627718D01*
X328071Y627704D01*
X325533D01*
Y626731D01*
X325519Y626661D01*
X325491Y626605D01*
X325463Y626576D01*
X325421Y626548D01*
X325336Y626520D01*
X324518D01*
X324448Y626534D01*
X324392Y626548D01*
X324377Y626562D01*
X324363D01*
X324335Y626605D01*
X324321Y626661D01*
Y626717D01*
Y626731D01*
Y627704D01*
X323588D01*
X323517Y627718D01*
X323475Y627747D01*
X323419Y627817D01*
X323391Y627902D01*
Y627916D01*
Y627930D01*
Y628620D01*
X323405Y628691D01*
X323419Y628733D01*
X323489Y628790D01*
X323560Y628818D01*
X324321D01*
Y632666D01*
X324335Y632779D01*
X324377Y632864D01*
X324420Y632920D01*
X324434Y632934D01*
X324518Y632991D01*
X324603Y633019D01*
X324673Y633033D01*
X325858D01*
X325970Y633019D01*
D02*
G37*
G36*
X276947D02*
X277201Y632962D01*
X277412Y632906D01*
X277582Y632821D01*
X277723Y632751D01*
X277821Y632680D01*
X277892Y632624D01*
X277906Y632610D01*
X278047Y632441D01*
X278160Y632243D01*
X278230Y632046D01*
X278286Y631849D01*
X278315Y631665D01*
X278329Y631525D01*
X278343Y631468D01*
Y631426D01*
Y631412D01*
Y631398D01*
Y631116D01*
X278329Y631045D01*
X278315Y630989D01*
X278272Y630961D01*
X278230Y630932D01*
X278160Y630904D01*
X277272D01*
X277201Y630918D01*
X277145Y630932D01*
X277102Y630975D01*
X277074Y631017D01*
X277046Y631087D01*
Y631102D01*
Y631116D01*
Y631369D01*
Y631482D01*
X277032Y631581D01*
X277004Y631651D01*
X276975Y631722D01*
X276961Y631764D01*
X276933Y631792D01*
X276919Y631820D01*
X276863Y631863D01*
X276792Y631905D01*
X276651Y631947D01*
X276581Y631962D01*
X275862D01*
X275763Y631933D01*
X275679Y631919D01*
X275608Y631891D01*
X275552Y631863D01*
X275523Y631849D01*
X275495Y631820D01*
X275439Y631764D01*
X275411Y631694D01*
X275354Y631553D01*
Y631482D01*
X275340Y631426D01*
Y631384D01*
Y631369D01*
Y630904D01*
Y630791D01*
X275368Y630693D01*
X275383Y630608D01*
X275411Y630552D01*
X275439Y630495D01*
X275467Y630467D01*
X275481Y630453D01*
X275495Y630439D01*
X275552Y630397D01*
X275622Y630368D01*
X275791Y630326D01*
X275862D01*
X275918Y630312D01*
X276496D01*
X276567Y630298D01*
X276623Y630284D01*
X276651Y630242D01*
X276679Y630199D01*
X276708Y630129D01*
Y630101D01*
Y630087D01*
Y629480D01*
X276694Y629410D01*
X276679Y629354D01*
X276637Y629325D01*
X276595Y629297D01*
X276524Y629269D01*
X275862D01*
X275763Y629241D01*
X275679Y629227D01*
X275608Y629198D01*
X275552Y629170D01*
X275523Y629156D01*
X275495Y629128D01*
X275439Y629072D01*
X275411Y629001D01*
X275354Y628846D01*
Y628790D01*
X275340Y628733D01*
Y628691D01*
Y628677D01*
Y628184D01*
Y628071D01*
X275368Y627972D01*
X275383Y627887D01*
X275411Y627831D01*
X275439Y627775D01*
X275467Y627747D01*
X275481Y627732D01*
X275495Y627718D01*
X275552Y627676D01*
X275622Y627648D01*
X275791Y627606D01*
X275862D01*
X275918Y627591D01*
X276581D01*
X276679Y627606D01*
X276750Y627634D01*
X276821Y627662D01*
X276863Y627676D01*
X276891Y627704D01*
X276919Y627718D01*
X276961Y627775D01*
X276990Y627845D01*
X277032Y628000D01*
Y628071D01*
X277046Y628127D01*
Y628169D01*
Y628184D01*
Y628437D01*
X277060Y628508D01*
X277074Y628564D01*
X277117Y628606D01*
X277159Y628635D01*
X277229Y628663D01*
X278132D01*
X278202Y628649D01*
X278258Y628635D01*
X278286Y628592D01*
X278315Y628550D01*
X278343Y628479D01*
Y628451D01*
Y628437D01*
Y628155D01*
X278329Y627873D01*
X278272Y627634D01*
X278202Y627422D01*
X278117Y627253D01*
X278047Y627112D01*
X277976Y627028D01*
X277920Y626957D01*
X277906Y626943D01*
X277723Y626802D01*
X277525Y626703D01*
X277328Y626619D01*
X277117Y626576D01*
X276947Y626548D01*
X276792Y626534D01*
X276736Y626520D01*
X275763D01*
X275481Y626534D01*
X275228Y626590D01*
X275016Y626661D01*
X274847Y626731D01*
X274706Y626816D01*
X274607Y626872D01*
X274537Y626929D01*
X274523Y626943D01*
X274382Y627112D01*
X274269Y627309D01*
X274198Y627507D01*
X274142Y627704D01*
X274114Y627887D01*
X274086Y628028D01*
Y628085D01*
Y628127D01*
Y628141D01*
Y628155D01*
Y628677D01*
X274100Y628846D01*
X274114Y628987D01*
X274156Y629128D01*
X274212Y629241D01*
X274269Y629339D01*
X274339Y629438D01*
X274480Y629579D01*
X274635Y629678D01*
X274762Y629734D01*
X274819Y629748D01*
X274861Y629762D01*
X274875Y629776D01*
X274889D01*
X274748Y629833D01*
X274621Y629903D01*
X274523Y629974D01*
X274424Y630058D01*
X274339Y630143D01*
X274283Y630242D01*
X274184Y630425D01*
X274128Y630608D01*
X274100Y630749D01*
X274086Y630806D01*
Y630848D01*
Y630876D01*
Y630890D01*
Y631398D01*
X274100Y631680D01*
X274156Y631919D01*
X274227Y632131D01*
X274297Y632300D01*
X274382Y632441D01*
X274452Y632525D01*
X274508Y632596D01*
X274523Y632610D01*
X274706Y632751D01*
X274903Y632850D01*
X275101Y632934D01*
X275312Y632976D01*
X275481Y633005D01*
X275636Y633033D01*
X276665D01*
X276947Y633019D01*
D02*
G37*
G36*
X281895D02*
X282149Y632962D01*
X282361Y632906D01*
X282530Y632821D01*
X282671Y632751D01*
X282769Y632680D01*
X282840Y632624D01*
X282854Y632610D01*
X282995Y632441D01*
X283108Y632243D01*
X283178Y632046D01*
X283235Y631849D01*
X283263Y631665D01*
X283277Y631525D01*
X283291Y631468D01*
Y631426D01*
Y631412D01*
Y631398D01*
Y631045D01*
X283277Y630975D01*
X283249Y630918D01*
X283221Y630890D01*
X283178Y630862D01*
X283094Y630834D01*
X282206D01*
X282135Y630848D01*
X282079Y630862D01*
X282050Y630904D01*
X282022Y630947D01*
X281994Y631017D01*
Y631031D01*
Y631045D01*
Y631369D01*
Y631482D01*
X281980Y631581D01*
X281952Y631651D01*
X281924Y631722D01*
X281910Y631764D01*
X281881Y631792D01*
X281867Y631820D01*
X281811Y631863D01*
X281740Y631905D01*
X281585Y631947D01*
X281515Y631962D01*
X280937D01*
X280838Y631933D01*
X280753Y631919D01*
X280683Y631891D01*
X280627Y631863D01*
X280598Y631849D01*
X280570Y631820D01*
X280514Y631764D01*
X280486Y631694D01*
X280429Y631553D01*
Y631482D01*
X280415Y631426D01*
Y631384D01*
Y631369D01*
Y631073D01*
X280429Y630918D01*
X280486Y630763D01*
X280556Y630622D01*
X280641Y630495D01*
X280739Y630397D01*
X280810Y630326D01*
X280866Y630270D01*
X280880Y630256D01*
X282741Y628677D01*
X282910Y628522D01*
X283037Y628353D01*
X283122Y628184D01*
X283178Y628028D01*
X283221Y627902D01*
X283235Y627789D01*
X283249Y627718D01*
Y627690D01*
Y626731D01*
X283235Y626661D01*
X283221Y626605D01*
X283178Y626576D01*
X283136Y626548D01*
X283065Y626520D01*
X279372D01*
X279301Y626534D01*
X279245Y626548D01*
X279217Y626590D01*
X279189Y626633D01*
X279161Y626703D01*
Y626717D01*
Y626731D01*
Y627436D01*
X279175Y627507D01*
X279189Y627563D01*
X279231Y627591D01*
X279259Y627620D01*
X279344Y627648D01*
X281797D01*
Y627817D01*
X281783Y627902D01*
X281740Y627986D01*
X281698Y628042D01*
X281684Y628057D01*
X279767Y629678D01*
X279654Y629776D01*
X279569Y629889D01*
X279414Y630101D01*
X279301Y630326D01*
X279231Y630524D01*
X279189Y630707D01*
X279175Y630862D01*
X279161Y630918D01*
Y630961D01*
Y630975D01*
Y630989D01*
Y631398D01*
X279175Y631680D01*
X279231Y631919D01*
X279301Y632131D01*
X279372Y632300D01*
X279457Y632441D01*
X279527Y632525D01*
X279583Y632596D01*
X279598Y632610D01*
X279781Y632751D01*
X279978Y632850D01*
X280175Y632934D01*
X280387Y632976D01*
X280556Y633005D01*
X280711Y633033D01*
X281613D01*
X281895Y633019D01*
D02*
G37*
G36*
X288479D02*
X288535Y633005D01*
X288563Y632962D01*
X288591Y632934D01*
X288620Y632850D01*
Y632836D01*
Y632821D01*
Y626731D01*
X288605Y626661D01*
X288591Y626605D01*
X288549Y626576D01*
X288507Y626548D01*
X288436Y626520D01*
X287534D01*
X287464Y626534D01*
X287407Y626548D01*
X287379Y626590D01*
X287351Y626633D01*
X287323Y626703D01*
Y626717D01*
Y626731D01*
Y628804D01*
X287309Y628874D01*
X287266Y628903D01*
X287224Y628917D01*
X286519D01*
X285504Y626731D01*
X285462Y626647D01*
X285420Y626590D01*
X285391Y626562D01*
X285377Y626548D01*
X285293Y626534D01*
X285208Y626520D01*
X284292D01*
X284207Y626534D01*
X284151Y626562D01*
X284123Y626590D01*
X284109Y626647D01*
Y626717D01*
X284123Y626746D01*
Y626760D01*
X285208Y629015D01*
Y629058D01*
X285053Y629142D01*
X284912Y629227D01*
X284785Y629339D01*
X284687Y629452D01*
X284602Y629579D01*
X284531Y629706D01*
X284419Y629960D01*
X284348Y630199D01*
X284334Y630298D01*
X284320Y630397D01*
X284306Y630467D01*
Y630524D01*
Y630566D01*
Y630580D01*
Y631369D01*
X284320Y631651D01*
X284376Y631905D01*
X284447Y632117D01*
X284531Y632286D01*
X284616Y632427D01*
X284687Y632511D01*
X284743Y632582D01*
X284757Y632596D01*
X284940Y632737D01*
X285138Y632850D01*
X285335Y632920D01*
X285532Y632976D01*
X285716Y633005D01*
X285857Y633033D01*
X288408D01*
X288479Y633019D01*
D02*
G37*
G36*
X511958Y315363D02*
X512212Y315306D01*
X512423Y315250D01*
X512592Y315165D01*
X512733Y315095D01*
X512832Y315024D01*
X512902Y314968D01*
X512916Y314954D01*
X513057Y314785D01*
X513170Y314587D01*
X513241Y314390D01*
X513297Y314193D01*
X513325Y314009D01*
X513339Y313868D01*
X513353Y313812D01*
Y313770D01*
Y313756D01*
Y313742D01*
Y313389D01*
X513339Y313319D01*
X513311Y313262D01*
X513283Y313234D01*
X513241Y313206D01*
X513156Y313178D01*
X512268D01*
X512197Y313192D01*
X512141Y313206D01*
X512113Y313248D01*
X512085Y313291D01*
X512057Y313361D01*
Y313375D01*
Y313389D01*
Y313713D01*
Y313826D01*
X512042Y313925D01*
X512014Y313995D01*
X511986Y314066D01*
X511972Y314108D01*
X511944Y314136D01*
X511930Y314165D01*
X511873Y314207D01*
X511803Y314249D01*
X511648Y314291D01*
X511577Y314305D01*
X510999D01*
X510901Y314277D01*
X510816Y314263D01*
X510746Y314235D01*
X510689Y314207D01*
X510661Y314193D01*
X510633Y314165D01*
X510576Y314108D01*
X510548Y314038D01*
X510492Y313897D01*
Y313826D01*
X510478Y313770D01*
Y313727D01*
Y313713D01*
Y313417D01*
X510492Y313262D01*
X510548Y313107D01*
X510619Y312966D01*
X510703Y312839D01*
X510802Y312741D01*
X510872Y312670D01*
X510929Y312614D01*
X510943Y312600D01*
X512804Y311021D01*
X512973Y310866D01*
X513100Y310697D01*
X513184Y310527D01*
X513241Y310372D01*
X513283Y310245D01*
X513297Y310133D01*
X513311Y310062D01*
Y310034D01*
Y309076D01*
X513297Y309005D01*
X513283Y308949D01*
X513241Y308920D01*
X513198Y308892D01*
X513128Y308864D01*
X509435D01*
X509364Y308878D01*
X509308Y308892D01*
X509279Y308934D01*
X509251Y308977D01*
X509223Y309047D01*
Y309061D01*
Y309076D01*
Y309780D01*
X509237Y309851D01*
X509251Y309907D01*
X509294Y309935D01*
X509322Y309964D01*
X509406Y309992D01*
X511859D01*
Y310161D01*
X511845Y310245D01*
X511803Y310330D01*
X511760Y310387D01*
X511746Y310401D01*
X509829Y312022D01*
X509716Y312120D01*
X509632Y312233D01*
X509477Y312445D01*
X509364Y312670D01*
X509294Y312868D01*
X509251Y313051D01*
X509237Y313206D01*
X509223Y313262D01*
Y313305D01*
Y313319D01*
Y313333D01*
Y313742D01*
X509237Y314023D01*
X509294Y314263D01*
X509364Y314475D01*
X509435Y314644D01*
X509519Y314785D01*
X509590Y314869D01*
X509646Y314940D01*
X509660Y314954D01*
X509843Y315095D01*
X510041Y315194D01*
X510238Y315278D01*
X510449Y315320D01*
X510619Y315349D01*
X510774Y315377D01*
X511676D01*
X511958Y315363D01*
D02*
G37*
G36*
X506953D02*
X507207Y315306D01*
X507419Y315250D01*
X507588Y315165D01*
X507729Y315095D01*
X507827Y315024D01*
X507898Y314968D01*
X507912Y314954D01*
X508053Y314785D01*
X508166Y314587D01*
X508236Y314390D01*
X508293Y314193D01*
X508321Y314009D01*
X508335Y313868D01*
X508349Y313812D01*
Y313770D01*
Y313756D01*
Y313742D01*
Y313389D01*
X508335Y313319D01*
X508307Y313262D01*
X508279Y313234D01*
X508236Y313206D01*
X508152Y313178D01*
X507263D01*
X507193Y313192D01*
X507137Y313206D01*
X507108Y313248D01*
X507080Y313291D01*
X507052Y313361D01*
Y313375D01*
Y313389D01*
Y313713D01*
Y313826D01*
X507038Y313925D01*
X507010Y313995D01*
X506982Y314066D01*
X506968Y314108D01*
X506939Y314136D01*
X506925Y314165D01*
X506869Y314207D01*
X506798Y314249D01*
X506643Y314291D01*
X506573Y314305D01*
X505995D01*
X505896Y314277D01*
X505812Y314263D01*
X505741Y314235D01*
X505685Y314207D01*
X505657Y314193D01*
X505628Y314165D01*
X505572Y314108D01*
X505544Y314038D01*
X505487Y313897D01*
Y313826D01*
X505473Y313770D01*
Y313727D01*
Y313713D01*
Y313417D01*
X505487Y313262D01*
X505544Y313107D01*
X505614Y312966D01*
X505699Y312839D01*
X505797Y312741D01*
X505868Y312670D01*
X505924Y312614D01*
X505938Y312600D01*
X507799Y311021D01*
X507968Y310866D01*
X508095Y310697D01*
X508180Y310527D01*
X508236Y310372D01*
X508279Y310245D01*
X508293Y310133D01*
X508307Y310062D01*
Y310034D01*
Y309076D01*
X508293Y309005D01*
X508279Y308949D01*
X508236Y308920D01*
X508194Y308892D01*
X508123Y308864D01*
X504430D01*
X504360Y308878D01*
X504303Y308892D01*
X504275Y308934D01*
X504247Y308977D01*
X504219Y309047D01*
Y309061D01*
Y309076D01*
Y309780D01*
X504233Y309851D01*
X504247Y309907D01*
X504289Y309935D01*
X504317Y309964D01*
X504402Y309992D01*
X506855D01*
Y310161D01*
X506841Y310245D01*
X506798Y310330D01*
X506756Y310387D01*
X506742Y310401D01*
X504825Y312022D01*
X504712Y312120D01*
X504627Y312233D01*
X504472Y312445D01*
X504360Y312670D01*
X504289Y312868D01*
X504247Y313051D01*
X504233Y313206D01*
X504219Y313262D01*
Y313305D01*
Y313319D01*
Y313333D01*
Y313742D01*
X504233Y314023D01*
X504289Y314263D01*
X504360Y314475D01*
X504430Y314644D01*
X504515Y314785D01*
X504585Y314869D01*
X504641Y314940D01*
X504656Y314954D01*
X504839Y315095D01*
X505036Y315194D01*
X505234Y315278D01*
X505445Y315320D01*
X505614Y315349D01*
X505769Y315377D01*
X506671D01*
X506953Y315363D01*
D02*
G37*
G36*
X518541D02*
X518597Y315349D01*
X518626Y315306D01*
X518654Y315278D01*
X518682Y315194D01*
Y315180D01*
Y315165D01*
Y309076D01*
X518668Y309005D01*
X518654Y308949D01*
X518612Y308920D01*
X518569Y308892D01*
X518499Y308864D01*
X517597D01*
X517526Y308878D01*
X517470Y308892D01*
X517442Y308934D01*
X517413Y308977D01*
X517385Y309047D01*
Y309061D01*
Y309076D01*
Y311148D01*
X517371Y311218D01*
X517329Y311246D01*
X517286Y311261D01*
X516582D01*
X515567Y309076D01*
X515524Y308991D01*
X515482Y308934D01*
X515454Y308906D01*
X515440Y308892D01*
X515355Y308878D01*
X515271Y308864D01*
X514354D01*
X514270Y308878D01*
X514213Y308906D01*
X514185Y308934D01*
X514171Y308991D01*
Y309061D01*
X514185Y309090D01*
Y309104D01*
X515271Y311359D01*
Y311402D01*
X515116Y311486D01*
X514975Y311571D01*
X514848Y311683D01*
X514749Y311796D01*
X514664Y311923D01*
X514594Y312050D01*
X514481Y312304D01*
X514411Y312543D01*
X514397Y312642D01*
X514383Y312741D01*
X514368Y312811D01*
Y312868D01*
Y312910D01*
Y312924D01*
Y313713D01*
X514383Y313995D01*
X514439Y314249D01*
X514509Y314461D01*
X514594Y314630D01*
X514678Y314771D01*
X514749Y314855D01*
X514805Y314926D01*
X514819Y314940D01*
X515003Y315081D01*
X515200Y315194D01*
X515397Y315264D01*
X515595Y315320D01*
X515778Y315349D01*
X515919Y315377D01*
X518471D01*
X518541Y315363D01*
D02*
G37*
G36*
X290961Y346603D02*
X291088Y346561D01*
X291144Y346532D01*
X291186Y346518D01*
X291214Y346490D01*
X291229D01*
X292145Y345912D01*
X292201Y345884D01*
X292229Y345841D01*
X292286Y345757D01*
X292300Y345686D01*
Y345672D01*
Y345658D01*
Y344827D01*
X292286Y344756D01*
X292272Y344714D01*
X292229Y344686D01*
X292117D01*
X292103Y344700D01*
X292088D01*
X291088Y345263D01*
Y340330D01*
X291073Y340259D01*
X291059Y340203D01*
X291017Y340174D01*
X290975Y340146D01*
X290904Y340118D01*
X290002D01*
X289932Y340132D01*
X289875Y340146D01*
X289861Y340160D01*
X289847D01*
X289819Y340203D01*
X289805Y340259D01*
Y340316D01*
Y340330D01*
Y346419D01*
X289819Y346490D01*
X289833Y346546D01*
X289875Y346575D01*
X289903Y346603D01*
X289988Y346631D01*
X290834D01*
X290961Y346603D01*
D02*
G37*
G36*
X295711Y346617D02*
X295965Y346561D01*
X296177Y346504D01*
X296346Y346419D01*
X296487Y346349D01*
X296585Y346278D01*
X296656Y346222D01*
X296670Y346208D01*
X296811Y346039D01*
X296924Y345841D01*
X296994Y345644D01*
X297051Y345447D01*
X297079Y345263D01*
X297093Y345123D01*
X297107Y345066D01*
Y345024D01*
Y345010D01*
Y344996D01*
Y344643D01*
X297093Y344573D01*
X297065Y344516D01*
X297036Y344488D01*
X296994Y344460D01*
X296910Y344432D01*
X296021D01*
X295951Y344446D01*
X295895Y344460D01*
X295866Y344502D01*
X295838Y344545D01*
X295810Y344615D01*
Y344629D01*
Y344643D01*
Y344967D01*
Y345080D01*
X295796Y345179D01*
X295768Y345249D01*
X295740Y345320D01*
X295725Y345362D01*
X295697Y345390D01*
X295683Y345419D01*
X295627Y345461D01*
X295556Y345503D01*
X295401Y345546D01*
X295331Y345560D01*
X294753D01*
X294654Y345531D01*
X294569Y345517D01*
X294499Y345489D01*
X294443Y345461D01*
X294414Y345447D01*
X294386Y345419D01*
X294330Y345362D01*
X294302Y345292D01*
X294245Y345151D01*
Y345080D01*
X294231Y345024D01*
Y344982D01*
Y344967D01*
Y344672D01*
X294245Y344516D01*
X294302Y344361D01*
X294372Y344220D01*
X294457Y344094D01*
X294555Y343995D01*
X294626Y343924D01*
X294682Y343868D01*
X294696Y343854D01*
X296557Y342275D01*
X296726Y342120D01*
X296853Y341951D01*
X296938Y341782D01*
X296994Y341627D01*
X297036Y341500D01*
X297051Y341387D01*
X297065Y341316D01*
Y341288D01*
Y340330D01*
X297051Y340259D01*
X297036Y340203D01*
X296994Y340174D01*
X296952Y340146D01*
X296881Y340118D01*
X293188D01*
X293118Y340132D01*
X293061Y340146D01*
X293033Y340189D01*
X293005Y340231D01*
X292977Y340301D01*
Y340316D01*
Y340330D01*
Y341034D01*
X292991Y341105D01*
X293005Y341161D01*
X293047Y341189D01*
X293075Y341218D01*
X293160Y341246D01*
X295613D01*
Y341415D01*
X295599Y341500D01*
X295556Y341584D01*
X295514Y341641D01*
X295500Y341655D01*
X293583Y343276D01*
X293470Y343374D01*
X293385Y343487D01*
X293230Y343699D01*
X293118Y343924D01*
X293047Y344122D01*
X293005Y344305D01*
X292991Y344460D01*
X292977Y344516D01*
Y344559D01*
Y344573D01*
Y344587D01*
Y344996D01*
X292991Y345278D01*
X293047Y345517D01*
X293118Y345729D01*
X293188Y345898D01*
X293273Y346039D01*
X293343Y346124D01*
X293400Y346194D01*
X293414Y346208D01*
X293597Y346349D01*
X293794Y346448D01*
X293992Y346532D01*
X294203Y346575D01*
X294372Y346603D01*
X294527Y346631D01*
X295429D01*
X295711Y346617D01*
D02*
G37*
G36*
X302295D02*
X302351Y346603D01*
X302379Y346561D01*
X302407Y346532D01*
X302436Y346448D01*
Y346434D01*
Y346419D01*
Y340330D01*
X302421Y340259D01*
X302407Y340203D01*
X302365Y340174D01*
X302323Y340146D01*
X302252Y340118D01*
X301350D01*
X301280Y340132D01*
X301223Y340146D01*
X301195Y340189D01*
X301167Y340231D01*
X301139Y340301D01*
Y340316D01*
Y340330D01*
Y342402D01*
X301125Y342472D01*
X301082Y342500D01*
X301040Y342515D01*
X300335D01*
X299320Y340330D01*
X299278Y340245D01*
X299236Y340189D01*
X299207Y340160D01*
X299193Y340146D01*
X299109Y340132D01*
X299024Y340118D01*
X298108D01*
X298023Y340132D01*
X297967Y340160D01*
X297939Y340189D01*
X297925Y340245D01*
Y340316D01*
X297939Y340344D01*
Y340358D01*
X299024Y342613D01*
Y342656D01*
X298869Y342740D01*
X298728Y342825D01*
X298601Y342938D01*
X298503Y343050D01*
X298418Y343177D01*
X298347Y343304D01*
X298235Y343558D01*
X298164Y343797D01*
X298150Y343896D01*
X298136Y343995D01*
X298122Y344065D01*
Y344122D01*
Y344164D01*
Y344178D01*
Y344967D01*
X298136Y345249D01*
X298192Y345503D01*
X298263Y345715D01*
X298347Y345884D01*
X298432Y346025D01*
X298503Y346109D01*
X298559Y346180D01*
X298573Y346194D01*
X298756Y346335D01*
X298954Y346448D01*
X299151Y346518D01*
X299348Y346575D01*
X299532Y346603D01*
X299673Y346631D01*
X302224D01*
X302295Y346617D01*
D02*
G37*
G36*
X311359Y367650D02*
X311415Y367636D01*
X311444Y367594D01*
X311472Y367551D01*
X311500Y367481D01*
Y366579D01*
X311486Y366508D01*
X311472Y366452D01*
X311430Y366424D01*
X311387Y366395D01*
X311317Y366367D01*
X311303D01*
X311289D01*
X309216D01*
X309146Y366353D01*
X309118Y366311D01*
X309104Y366269D01*
Y365564D01*
X311289Y364549D01*
X311373Y364506D01*
X311430Y364464D01*
X311458Y364436D01*
X311472Y364422D01*
X311486Y364337D01*
X311500Y364253D01*
Y363336D01*
X311486Y363252D01*
X311458Y363195D01*
X311430Y363167D01*
X311373Y363153D01*
X311303D01*
X311274Y363167D01*
X311260D01*
X309005Y364253D01*
X308962D01*
X308878Y364098D01*
X308793Y363957D01*
X308681Y363830D01*
X308568Y363731D01*
X308441Y363647D01*
X308314Y363576D01*
X308060Y363463D01*
X307821Y363393D01*
X307722Y363379D01*
X307623Y363364D01*
X307553Y363350D01*
X307496D01*
X307454D01*
X307440D01*
X306651D01*
X306369Y363364D01*
X306115Y363421D01*
X305903Y363491D01*
X305734Y363576D01*
X305593Y363661D01*
X305509Y363731D01*
X305438Y363787D01*
X305424Y363801D01*
X305283Y363985D01*
X305170Y364182D01*
X305100Y364380D01*
X305044Y364577D01*
X305015Y364760D01*
X304987Y364901D01*
Y367453D01*
X305001Y367523D01*
X305015Y367579D01*
X305058Y367608D01*
X305086Y367636D01*
X305170Y367664D01*
X305184D01*
X305199D01*
X311289D01*
X311359Y367650D01*
D02*
G37*
G36*
X307045Y362321D02*
X307102Y362293D01*
X307130Y362265D01*
X307158Y362223D01*
X307186Y362138D01*
Y361250D01*
X307172Y361180D01*
X307158Y361123D01*
X307116Y361095D01*
X307073Y361067D01*
X307003Y361039D01*
X306989D01*
X306975D01*
X306651D01*
X306538D01*
X306439Y361024D01*
X306369Y360996D01*
X306298Y360968D01*
X306256Y360954D01*
X306228Y360926D01*
X306199Y360912D01*
X306157Y360855D01*
X306115Y360785D01*
X306073Y360630D01*
X306059Y360559D01*
Y359981D01*
X306087Y359883D01*
X306101Y359798D01*
X306129Y359728D01*
X306157Y359671D01*
X306171Y359643D01*
X306199Y359615D01*
X306256Y359558D01*
X306326Y359530D01*
X306467Y359474D01*
X306538D01*
X306594Y359460D01*
X306637D01*
X306651D01*
X306947D01*
X307102Y359474D01*
X307257Y359530D01*
X307398Y359601D01*
X307525Y359685D01*
X307623Y359784D01*
X307694Y359854D01*
X307750Y359911D01*
X307764Y359925D01*
X309343Y361786D01*
X309498Y361955D01*
X309667Y362082D01*
X309837Y362166D01*
X309992Y362223D01*
X310119Y362265D01*
X310231Y362279D01*
X310302Y362293D01*
X310330D01*
X311289D01*
X311359Y362279D01*
X311415Y362265D01*
X311444Y362223D01*
X311472Y362180D01*
X311500Y362110D01*
Y358416D01*
X311486Y358346D01*
X311472Y358290D01*
X311430Y358261D01*
X311387Y358233D01*
X311317Y358205D01*
X311303D01*
X311289D01*
X310584D01*
X310513Y358219D01*
X310457Y358233D01*
X310429Y358275D01*
X310400Y358304D01*
X310372Y358388D01*
Y360841D01*
X310203D01*
X310119Y360827D01*
X310034Y360785D01*
X309977Y360742D01*
X309963Y360728D01*
X308342Y358811D01*
X308244Y358698D01*
X308131Y358614D01*
X307919Y358459D01*
X307694Y358346D01*
X307496Y358275D01*
X307313Y358233D01*
X307158Y358219D01*
X307102Y358205D01*
X307059D01*
X307045D01*
X307031D01*
X306622D01*
X306341Y358219D01*
X306101Y358275D01*
X305889Y358346D01*
X305720Y358416D01*
X305579Y358501D01*
X305495Y358572D01*
X305424Y358628D01*
X305410Y358642D01*
X305269Y358825D01*
X305170Y359023D01*
X305086Y359220D01*
X305044Y359431D01*
X305015Y359601D01*
X304987Y359756D01*
Y360658D01*
X305001Y360940D01*
X305058Y361194D01*
X305114Y361405D01*
X305199Y361574D01*
X305269Y361715D01*
X305340Y361814D01*
X305396Y361884D01*
X305410Y361898D01*
X305579Y362039D01*
X305777Y362152D01*
X305974Y362223D01*
X306171Y362279D01*
X306355Y362307D01*
X306496Y362321D01*
X306552Y362335D01*
X306594D01*
X306608D01*
X306622D01*
X306975D01*
X307045Y362321D01*
D02*
G37*
G36*
X310133Y357204D02*
X310386Y357148D01*
X310598Y357077D01*
X310767Y356993D01*
X310894Y356922D01*
X310993Y356852D01*
X311063Y356795D01*
X311077Y356781D01*
X311218Y356598D01*
X311317Y356401D01*
X311401Y356203D01*
X311444Y356006D01*
X311472Y355823D01*
X311486Y355682D01*
X311500Y355625D01*
Y354540D01*
X311486Y354258D01*
X311430Y354004D01*
X311359Y353793D01*
X311289Y353624D01*
X311204Y353483D01*
X311148Y353384D01*
X311091Y353313D01*
X311077Y353299D01*
X310894Y353158D01*
X310697Y353046D01*
X310499Y352975D01*
X310302Y352919D01*
X310119Y352891D01*
X309977Y352862D01*
X309921D01*
X309879D01*
X309865D01*
X309851D01*
X306637D01*
X306355Y352876D01*
X306115Y352933D01*
X305903Y353003D01*
X305734Y353074D01*
X305593Y353158D01*
X305509Y353229D01*
X305438Y353285D01*
X305424Y353299D01*
X305283Y353483D01*
X305170Y353680D01*
X305100Y353877D01*
X305044Y354089D01*
X305015Y354258D01*
X304987Y354413D01*
Y355555D01*
X305001Y355837D01*
X305058Y356076D01*
X305114Y356288D01*
X305199Y356457D01*
X305269Y356598D01*
X305340Y356697D01*
X305396Y356767D01*
X305410Y356781D01*
X305579Y356922D01*
X305777Y357035D01*
X305988Y357105D01*
X306185Y357162D01*
X306355Y357190D01*
X306510Y357204D01*
X306566Y357218D01*
X306594D01*
X306622D01*
X306637D01*
X309851D01*
X310133Y357204D01*
D02*
G37*
G36*
X478176Y582303D02*
X478302Y582260D01*
X478359Y582232D01*
X478401Y582218D01*
X478429Y582190D01*
X478443D01*
X479360Y581612D01*
X479416Y581584D01*
X479444Y581541D01*
X479501Y581457D01*
X479515Y581386D01*
Y581372D01*
Y581358D01*
Y580526D01*
X479501Y580456D01*
X479487Y580414D01*
X479444Y580385D01*
X479332D01*
X479317Y580400D01*
X479303D01*
X478302Y580963D01*
Y576030D01*
X478288Y575959D01*
X478274Y575903D01*
X478232Y575874D01*
X478190Y575846D01*
X478119Y575818D01*
X477217D01*
X477146Y575832D01*
X477090Y575846D01*
X477076Y575860D01*
X477062D01*
X477034Y575903D01*
X477020Y575959D01*
Y576015D01*
Y576030D01*
Y582119D01*
X477034Y582190D01*
X477048Y582246D01*
X477090Y582274D01*
X477118Y582303D01*
X477203Y582331D01*
X478049D01*
X478176Y582303D01*
D02*
G37*
G36*
X484505Y582317D02*
X484562Y582303D01*
X484590Y582260D01*
X484618Y582232D01*
X484646Y582148D01*
Y582133D01*
Y582119D01*
Y576030D01*
X484632Y575959D01*
X484618Y575903D01*
X484576Y575874D01*
X484533Y575846D01*
X484463Y575818D01*
X483561D01*
X483490Y575832D01*
X483434Y575846D01*
X483406Y575888D01*
X483377Y575931D01*
X483349Y576001D01*
Y576015D01*
Y576030D01*
Y578102D01*
X483335Y578172D01*
X483293Y578200D01*
X483251Y578214D01*
X482546D01*
X481531Y576030D01*
X481488Y575945D01*
X481446Y575888D01*
X481418Y575860D01*
X481404Y575846D01*
X481319Y575832D01*
X481235Y575818D01*
X480318D01*
X480234Y575832D01*
X480177Y575860D01*
X480149Y575888D01*
X480135Y575945D01*
Y576015D01*
X480149Y576044D01*
Y576058D01*
X481235Y578313D01*
Y578355D01*
X481080Y578440D01*
X480939Y578525D01*
X480812Y578637D01*
X480713Y578750D01*
X480629Y578877D01*
X480558Y579004D01*
X480445Y579258D01*
X480375Y579497D01*
X480361Y579596D01*
X480346Y579695D01*
X480332Y579765D01*
Y579822D01*
Y579864D01*
Y579878D01*
Y580667D01*
X480346Y580949D01*
X480403Y581203D01*
X480473Y581414D01*
X480558Y581584D01*
X480643Y581725D01*
X480713Y581809D01*
X480769Y581880D01*
X480784Y581894D01*
X480967Y582035D01*
X481164Y582148D01*
X481362Y582218D01*
X481559Y582274D01*
X481742Y582303D01*
X481883Y582331D01*
X484435D01*
X484505Y582317D01*
D02*
G37*
G36*
X474440D02*
X474694Y582274D01*
X474905Y582204D01*
X475074Y582133D01*
X475215Y582063D01*
X475314Y581992D01*
X475384Y581950D01*
X475398Y581936D01*
X475539Y581767D01*
X475638Y581584D01*
X475723Y581386D01*
X475765Y581203D01*
X475793Y581034D01*
X475807Y580893D01*
X475821Y580836D01*
Y580794D01*
Y580780D01*
Y580766D01*
Y580329D01*
X475807Y580160D01*
X475793Y580005D01*
X475765Y579864D01*
X475723Y579737D01*
X475610Y579511D01*
X475483Y579356D01*
X475370Y579230D01*
X475257Y579145D01*
X475187Y579103D01*
X475159Y579089D01*
X475272Y579032D01*
X475370Y578947D01*
X475539Y578778D01*
X475652Y578567D01*
X475737Y578370D01*
X475779Y578172D01*
X475807Y578017D01*
X475821Y577947D01*
Y577904D01*
Y577876D01*
Y577862D01*
Y577397D01*
X475807Y577115D01*
X475751Y576875D01*
X475680Y576678D01*
X475610Y576509D01*
X475525Y576382D01*
X475469Y576283D01*
X475413Y576227D01*
X475398Y576213D01*
X475215Y576086D01*
X475018Y575987D01*
X474821Y575917D01*
X474609Y575874D01*
X474440Y575846D01*
X474285Y575818D01*
X473073D01*
X472790Y575832D01*
X472537Y575874D01*
X472325Y575945D01*
X472156Y576015D01*
X472015Y576086D01*
X471931Y576156D01*
X471860Y576199D01*
X471846Y576213D01*
X471705Y576382D01*
X471592Y576565D01*
X471522Y576763D01*
X471465Y576960D01*
X471437Y577129D01*
X471409Y577270D01*
Y577326D01*
Y577369D01*
Y577383D01*
Y577397D01*
Y577848D01*
Y578017D01*
X471437Y578186D01*
X471465Y578327D01*
X471508Y578454D01*
X471620Y578666D01*
X471733Y578835D01*
X471860Y578947D01*
X471973Y579032D01*
X472043Y579074D01*
X472057Y579089D01*
X472072D01*
X471959Y579131D01*
X471874Y579201D01*
X471719Y579342D01*
X471663Y579399D01*
X471620Y579455D01*
X471606Y579497D01*
X471592Y579511D01*
X471536Y579638D01*
X471479Y579779D01*
X471451Y579920D01*
X471437Y580047D01*
X471423Y580160D01*
X471409Y580244D01*
Y580315D01*
Y580329D01*
Y580766D01*
X471423Y581034D01*
X471479Y581273D01*
X471550Y581471D01*
X471620Y581640D01*
X471705Y581767D01*
X471776Y581866D01*
X471832Y581922D01*
X471846Y581936D01*
X472015Y582063D01*
X472212Y582162D01*
X472424Y582232D01*
X472621Y582289D01*
X472790Y582317D01*
X472946Y582331D01*
X474158D01*
X474440Y582317D01*
D02*
G37*
G36*
X447386Y578386D02*
X447513Y578344D01*
X447570Y578315D01*
X447612Y578301D01*
X447640Y578273D01*
X447654D01*
X448571Y577695D01*
X448627Y577667D01*
X448655Y577625D01*
X448712Y577540D01*
X448726Y577469D01*
Y577455D01*
Y577441D01*
Y576610D01*
X448712Y576539D01*
X448697Y576497D01*
X448655Y576469D01*
X448542D01*
X448528Y576483D01*
X448514D01*
X447513Y577047D01*
Y572113D01*
X447499Y572042D01*
X447485Y571986D01*
X447443Y571958D01*
X447401Y571929D01*
X447330Y571901D01*
X446428D01*
X446357Y571915D01*
X446301Y571929D01*
X446287Y571944D01*
X446273D01*
X446245Y571986D01*
X446231Y572042D01*
Y572099D01*
Y572113D01*
Y578203D01*
X446245Y578273D01*
X446259Y578330D01*
X446301Y578358D01*
X446329Y578386D01*
X446414Y578414D01*
X447259D01*
X447386Y578386D01*
D02*
G37*
G36*
X453716Y578400D02*
X453772Y578386D01*
X453801Y578344D01*
X453829Y578315D01*
X453857Y578231D01*
Y578217D01*
Y578203D01*
Y572113D01*
X453843Y572042D01*
X453829Y571986D01*
X453786Y571958D01*
X453744Y571929D01*
X453674Y571901D01*
X452771D01*
X452701Y571915D01*
X452645Y571929D01*
X452616Y571972D01*
X452588Y572014D01*
X452560Y572085D01*
Y572099D01*
Y572113D01*
Y574185D01*
X452546Y574255D01*
X452504Y574284D01*
X452461Y574298D01*
X451757D01*
X450742Y572113D01*
X450699Y572028D01*
X450657Y571972D01*
X450629Y571944D01*
X450615Y571929D01*
X450530Y571915D01*
X450446Y571901D01*
X449529D01*
X449445Y571915D01*
X449388Y571944D01*
X449360Y571972D01*
X449346Y572028D01*
Y572099D01*
X449360Y572127D01*
Y572141D01*
X450446Y574396D01*
Y574439D01*
X450290Y574523D01*
X450149Y574608D01*
X450023Y574721D01*
X449924Y574833D01*
X449839Y574960D01*
X449769Y575087D01*
X449656Y575341D01*
X449585Y575580D01*
X449571Y575679D01*
X449557Y575778D01*
X449543Y575848D01*
Y575905D01*
Y575947D01*
Y575961D01*
Y576751D01*
X449557Y577033D01*
X449614Y577286D01*
X449684Y577498D01*
X449769Y577667D01*
X449853Y577808D01*
X449924Y577892D01*
X449980Y577963D01*
X449994Y577977D01*
X450178Y578118D01*
X450375Y578231D01*
X450572Y578301D01*
X450770Y578358D01*
X450953Y578386D01*
X451094Y578414D01*
X453646D01*
X453716Y578400D01*
D02*
G37*
G36*
X443651D02*
X443904Y578344D01*
X444116Y578287D01*
X444285Y578203D01*
X444426Y578132D01*
X444525Y578062D01*
X444595Y578005D01*
X444609Y577991D01*
X444750Y577822D01*
X444863Y577625D01*
X444934Y577413D01*
X444990Y577216D01*
X445018Y577047D01*
X445032Y576892D01*
X445046Y576835D01*
Y576807D01*
Y576779D01*
Y576765D01*
Y573551D01*
X445032Y573269D01*
X444976Y573015D01*
X444905Y572803D01*
X444821Y572634D01*
X444750Y572507D01*
X444680Y572409D01*
X444623Y572338D01*
X444609Y572324D01*
X444426Y572183D01*
X444229Y572085D01*
X444031Y572000D01*
X443820Y571958D01*
X443651Y571929D01*
X443496Y571915D01*
X443439Y571901D01*
X442382D01*
X442100Y571915D01*
X441846Y571972D01*
X441635Y572042D01*
X441466Y572113D01*
X441325Y572197D01*
X441226Y572254D01*
X441156Y572310D01*
X441141Y572324D01*
X441001Y572493D01*
X440888Y572691D01*
X440817Y572902D01*
X440761Y573100D01*
X440733Y573269D01*
X440704Y573424D01*
Y573480D01*
Y573522D01*
Y573536D01*
Y573551D01*
Y574368D01*
X440718Y574650D01*
X440775Y574904D01*
X440845Y575115D01*
X440916Y575285D01*
X441001Y575425D01*
X441071Y575510D01*
X441127Y575580D01*
X441141Y575595D01*
X441325Y575736D01*
X441522Y575848D01*
X441719Y575919D01*
X441931Y575975D01*
X442100Y576003D01*
X442255Y576032D01*
X443764D01*
Y576708D01*
Y576821D01*
X443735Y576920D01*
X443721Y576990D01*
X443693Y577061D01*
X443665Y577103D01*
X443651Y577131D01*
X443623Y577159D01*
X443566Y577202D01*
X443496Y577244D01*
X443341Y577286D01*
X443270Y577300D01*
X441297D01*
X441226Y577314D01*
X441170Y577329D01*
X441141Y577371D01*
X441113Y577413D01*
X441085Y577484D01*
Y577498D01*
Y577512D01*
Y578203D01*
X441099Y578273D01*
X441113Y578330D01*
X441156Y578358D01*
X441184Y578386D01*
X441268Y578414D01*
X443369D01*
X443651Y578400D01*
D02*
G37*
G36*
X501798Y582303D02*
X501924Y582260D01*
X501981Y582232D01*
X502023Y582218D01*
X502051Y582190D01*
X502065D01*
X502982Y581612D01*
X503038Y581584D01*
X503066Y581541D01*
X503123Y581457D01*
X503137Y581386D01*
Y581372D01*
Y581358D01*
Y580526D01*
X503123Y580456D01*
X503109Y580414D01*
X503066Y580385D01*
X502953D01*
X502939Y580400D01*
X502925D01*
X501924Y580963D01*
Y576030D01*
X501910Y575959D01*
X501896Y575903D01*
X501854Y575874D01*
X501812Y575846D01*
X501741Y575818D01*
X500839D01*
X500769Y575832D01*
X500712Y575846D01*
X500698Y575860D01*
X500684D01*
X500656Y575903D01*
X500642Y575959D01*
Y576015D01*
Y576030D01*
Y582119D01*
X500656Y582190D01*
X500670Y582246D01*
X500712Y582274D01*
X500740Y582303D01*
X500825Y582331D01*
X501671D01*
X501798Y582303D01*
D02*
G37*
G36*
X508127Y582317D02*
X508184Y582303D01*
X508212Y582260D01*
X508240Y582232D01*
X508268Y582148D01*
Y582133D01*
Y582119D01*
Y576030D01*
X508254Y575959D01*
X508240Y575903D01*
X508198Y575874D01*
X508155Y575846D01*
X508085Y575818D01*
X507183D01*
X507112Y575832D01*
X507056Y575846D01*
X507028Y575888D01*
X506999Y575931D01*
X506971Y576001D01*
Y576015D01*
Y576030D01*
Y578102D01*
X506957Y578172D01*
X506915Y578200D01*
X506872Y578214D01*
X506168D01*
X505153Y576030D01*
X505110Y575945D01*
X505068Y575888D01*
X505040Y575860D01*
X505026Y575846D01*
X504941Y575832D01*
X504857Y575818D01*
X503940D01*
X503856Y575832D01*
X503799Y575860D01*
X503771Y575888D01*
X503757Y575945D01*
Y576015D01*
X503771Y576044D01*
Y576058D01*
X504857Y578313D01*
Y578355D01*
X504702Y578440D01*
X504561Y578525D01*
X504434Y578637D01*
X504335Y578750D01*
X504250Y578877D01*
X504180Y579004D01*
X504067Y579258D01*
X503997Y579497D01*
X503983Y579596D01*
X503969Y579695D01*
X503954Y579765D01*
Y579822D01*
Y579864D01*
Y579878D01*
Y580667D01*
X503969Y580949D01*
X504025Y581203D01*
X504095Y581414D01*
X504180Y581584D01*
X504264Y581725D01*
X504335Y581809D01*
X504391Y581880D01*
X504406Y581894D01*
X504589Y582035D01*
X504786Y582148D01*
X504983Y582218D01*
X505181Y582274D01*
X505364Y582303D01*
X505505Y582331D01*
X508057D01*
X508127Y582317D01*
D02*
G37*
G36*
X497202D02*
X497272Y582303D01*
X497329Y582274D01*
X497343Y582260D01*
X497413Y582204D01*
X497470Y582119D01*
X497512Y582049D01*
X497526Y582035D01*
Y582021D01*
X499556Y578271D01*
X499613Y578116D01*
X499641Y577947D01*
X499655Y577876D01*
Y577820D01*
Y577777D01*
Y577763D01*
Y577369D01*
X499641Y577256D01*
X499598Y577171D01*
X499570Y577115D01*
X499556Y577101D01*
X499458Y577044D01*
X499373Y577016D01*
X499302Y577002D01*
X496765D01*
Y576030D01*
X496751Y575959D01*
X496723Y575903D01*
X496694Y575874D01*
X496652Y575846D01*
X496568Y575818D01*
X495750D01*
X495680Y575832D01*
X495623Y575846D01*
X495609Y575860D01*
X495595D01*
X495567Y575903D01*
X495553Y575959D01*
Y576015D01*
Y576030D01*
Y577002D01*
X494820D01*
X494749Y577016D01*
X494707Y577044D01*
X494650Y577115D01*
X494622Y577200D01*
Y577214D01*
Y577228D01*
Y577919D01*
X494636Y577989D01*
X494650Y578031D01*
X494721Y578088D01*
X494791Y578116D01*
X495553D01*
Y581964D01*
X495567Y582077D01*
X495609Y582162D01*
X495651Y582218D01*
X495665Y582232D01*
X495750Y582289D01*
X495835Y582317D01*
X495905Y582331D01*
X497089D01*
X497202Y582317D01*
D02*
G37*
G36*
X525674Y582303D02*
X525800Y582260D01*
X525857Y582232D01*
X525899Y582218D01*
X525927Y582190D01*
X525941D01*
X526858Y581612D01*
X526914Y581584D01*
X526942Y581541D01*
X526999Y581457D01*
X527013Y581386D01*
Y581372D01*
Y581358D01*
Y580526D01*
X526999Y580456D01*
X526985Y580414D01*
X526942Y580385D01*
X526829D01*
X526815Y580400D01*
X526801D01*
X525800Y580963D01*
Y576030D01*
X525786Y575959D01*
X525772Y575903D01*
X525730Y575874D01*
X525688Y575846D01*
X525617Y575818D01*
X524715D01*
X524645Y575832D01*
X524588Y575846D01*
X524574Y575860D01*
X524560D01*
X524532Y575903D01*
X524518Y575959D01*
Y576015D01*
Y576030D01*
Y582119D01*
X524532Y582190D01*
X524546Y582246D01*
X524588Y582274D01*
X524616Y582303D01*
X524701Y582331D01*
X525547D01*
X525674Y582303D01*
D02*
G37*
G36*
X522037Y582317D02*
X522290Y582260D01*
X522502Y582204D01*
X522671Y582119D01*
X522812Y582049D01*
X522911Y581978D01*
X522981Y581922D01*
X522995Y581908D01*
X523136Y581739D01*
X523249Y581541D01*
X523319Y581344D01*
X523376Y581147D01*
X523404Y580963D01*
X523418Y580822D01*
X523432Y580766D01*
Y580724D01*
Y580710D01*
Y580696D01*
Y580343D01*
X523418Y580273D01*
X523390Y580216D01*
X523362Y580188D01*
X523319Y580160D01*
X523235Y580132D01*
X522347D01*
X522276Y580146D01*
X522220Y580160D01*
X522192Y580202D01*
X522163Y580244D01*
X522135Y580315D01*
Y580329D01*
Y580343D01*
Y580667D01*
Y580780D01*
X522121Y580879D01*
X522093Y580949D01*
X522065Y581020D01*
X522051Y581062D01*
X522023Y581090D01*
X522008Y581119D01*
X521952Y581161D01*
X521881Y581203D01*
X521726Y581245D01*
X521656Y581259D01*
X521078D01*
X520979Y581231D01*
X520895Y581217D01*
X520824Y581189D01*
X520768Y581161D01*
X520740Y581147D01*
X520711Y581119D01*
X520655Y581062D01*
X520627Y580992D01*
X520570Y580851D01*
Y580780D01*
X520556Y580724D01*
Y580681D01*
Y580667D01*
Y580371D01*
X520570Y580216D01*
X520627Y580061D01*
X520697Y579920D01*
X520782Y579793D01*
X520881Y579695D01*
X520951Y579624D01*
X521007Y579568D01*
X521022Y579554D01*
X522882Y577975D01*
X523051Y577820D01*
X523178Y577651D01*
X523263Y577481D01*
X523319Y577326D01*
X523362Y577200D01*
X523376Y577087D01*
X523390Y577016D01*
Y576988D01*
Y576030D01*
X523376Y575959D01*
X523362Y575903D01*
X523319Y575874D01*
X523277Y575846D01*
X523207Y575818D01*
X519513D01*
X519443Y575832D01*
X519386Y575846D01*
X519358Y575888D01*
X519330Y575931D01*
X519302Y576001D01*
Y576015D01*
Y576030D01*
Y576734D01*
X519316Y576805D01*
X519330Y576861D01*
X519372Y576889D01*
X519400Y576918D01*
X519485Y576946D01*
X521938D01*
Y577115D01*
X521924Y577200D01*
X521881Y577284D01*
X521839Y577341D01*
X521825Y577355D01*
X519908Y578976D01*
X519795Y579074D01*
X519711Y579187D01*
X519556Y579399D01*
X519443Y579624D01*
X519372Y579822D01*
X519330Y580005D01*
X519316Y580160D01*
X519302Y580216D01*
Y580259D01*
Y580273D01*
Y580287D01*
Y580696D01*
X519316Y580978D01*
X519372Y581217D01*
X519443Y581429D01*
X519513Y581598D01*
X519598Y581739D01*
X519668Y581823D01*
X519725Y581894D01*
X519739Y581908D01*
X519922Y582049D01*
X520119Y582148D01*
X520317Y582232D01*
X520528Y582274D01*
X520697Y582303D01*
X520852Y582331D01*
X521755D01*
X522037Y582317D01*
D02*
G37*
G36*
X532003D02*
X532060Y582303D01*
X532088Y582260D01*
X532116Y582232D01*
X532144Y582148D01*
Y582133D01*
Y582119D01*
Y576030D01*
X532130Y575959D01*
X532116Y575903D01*
X532074Y575874D01*
X532031Y575846D01*
X531961Y575818D01*
X531059D01*
X530988Y575832D01*
X530932Y575846D01*
X530904Y575888D01*
X530875Y575931D01*
X530847Y576001D01*
Y576015D01*
Y576030D01*
Y578102D01*
X530833Y578172D01*
X530791Y578200D01*
X530748Y578214D01*
X530044D01*
X529029Y576030D01*
X528986Y575945D01*
X528944Y575888D01*
X528916Y575860D01*
X528902Y575846D01*
X528817Y575832D01*
X528733Y575818D01*
X527816D01*
X527732Y575832D01*
X527675Y575860D01*
X527647Y575888D01*
X527633Y575945D01*
Y576015D01*
X527647Y576044D01*
Y576058D01*
X528733Y578313D01*
Y578355D01*
X528578Y578440D01*
X528437Y578525D01*
X528310Y578637D01*
X528211Y578750D01*
X528126Y578877D01*
X528056Y579004D01*
X527943Y579258D01*
X527873Y579497D01*
X527859Y579596D01*
X527845Y579695D01*
X527830Y579765D01*
Y579822D01*
Y579864D01*
Y579878D01*
Y580667D01*
X527845Y580949D01*
X527901Y581203D01*
X527971Y581414D01*
X528056Y581584D01*
X528140Y581725D01*
X528211Y581809D01*
X528267Y581880D01*
X528282Y581894D01*
X528465Y582035D01*
X528662Y582148D01*
X528859Y582218D01*
X529057Y582274D01*
X529240Y582303D01*
X529381Y582331D01*
X531933D01*
X532003Y582317D01*
D02*
G37*
G36*
X549296Y582303D02*
X549422Y582260D01*
X549479Y582232D01*
X549521Y582218D01*
X549549Y582190D01*
X549563D01*
X550480Y581612D01*
X550536Y581584D01*
X550564Y581541D01*
X550621Y581457D01*
X550635Y581386D01*
Y581372D01*
Y581358D01*
Y580526D01*
X550621Y580456D01*
X550607Y580414D01*
X550564Y580385D01*
X550452D01*
X550437Y580400D01*
X550423D01*
X549422Y580963D01*
Y576030D01*
X549408Y575959D01*
X549394Y575903D01*
X549352Y575874D01*
X549310Y575846D01*
X549239Y575818D01*
X548337D01*
X548266Y575832D01*
X548210Y575846D01*
X548196Y575860D01*
X548182D01*
X548154Y575903D01*
X548140Y575959D01*
Y576015D01*
Y576030D01*
Y582119D01*
X548154Y582190D01*
X548168Y582246D01*
X548210Y582274D01*
X548238Y582303D01*
X548323Y582331D01*
X549169D01*
X549296Y582303D01*
D02*
G37*
G36*
X555625Y582317D02*
X555681Y582303D01*
X555710Y582260D01*
X555738Y582232D01*
X555766Y582148D01*
Y582133D01*
Y582119D01*
Y576030D01*
X555752Y575959D01*
X555738Y575903D01*
X555696Y575874D01*
X555653Y575846D01*
X555583Y575818D01*
X554681D01*
X554610Y575832D01*
X554554Y575846D01*
X554526Y575888D01*
X554497Y575931D01*
X554469Y576001D01*
Y576015D01*
Y576030D01*
Y578102D01*
X554455Y578172D01*
X554413Y578200D01*
X554370Y578214D01*
X553666D01*
X552651Y576030D01*
X552608Y575945D01*
X552566Y575888D01*
X552538Y575860D01*
X552524Y575846D01*
X552439Y575832D01*
X552355Y575818D01*
X551438D01*
X551354Y575832D01*
X551297Y575860D01*
X551269Y575888D01*
X551255Y575945D01*
Y576015D01*
X551269Y576044D01*
Y576058D01*
X552355Y578313D01*
Y578355D01*
X552200Y578440D01*
X552059Y578525D01*
X551932Y578637D01*
X551833Y578750D01*
X551749Y578877D01*
X551678Y579004D01*
X551565Y579258D01*
X551495Y579497D01*
X551481Y579596D01*
X551466Y579695D01*
X551452Y579765D01*
Y579822D01*
Y579864D01*
Y579878D01*
Y580667D01*
X551466Y580949D01*
X551523Y581203D01*
X551593Y581414D01*
X551678Y581584D01*
X551763Y581725D01*
X551833Y581809D01*
X551889Y581880D01*
X551903Y581894D01*
X552087Y582035D01*
X552284Y582148D01*
X552481Y582218D01*
X552679Y582274D01*
X552862Y582303D01*
X553003Y582331D01*
X555555D01*
X555625Y582317D01*
D02*
G37*
G36*
X545560D02*
X545799Y582260D01*
X546011Y582204D01*
X546180Y582119D01*
X546321Y582049D01*
X546420Y581978D01*
X546490Y581922D01*
X546504Y581908D01*
X546645Y581739D01*
X546758Y581541D01*
X546829Y581330D01*
X546885Y581133D01*
X546913Y580963D01*
X546927Y580808D01*
X546941Y580752D01*
Y580724D01*
Y580696D01*
Y580681D01*
Y577467D01*
X546927Y577185D01*
X546871Y576932D01*
X546800Y576720D01*
X546716Y576551D01*
X546645Y576424D01*
X546575Y576325D01*
X546519Y576255D01*
X546504Y576241D01*
X546321Y576100D01*
X546124Y576001D01*
X545926Y575917D01*
X545729Y575874D01*
X545546Y575846D01*
X545405Y575832D01*
X545348Y575818D01*
X544263D01*
X543981Y575832D01*
X543727Y575888D01*
X543516Y575959D01*
X543347Y576030D01*
X543206Y576114D01*
X543107Y576170D01*
X543036Y576227D01*
X543022Y576241D01*
X542881Y576424D01*
X542769Y576622D01*
X542698Y576819D01*
X542642Y577016D01*
X542614Y577200D01*
X542585Y577341D01*
Y577397D01*
Y577439D01*
Y577453D01*
Y577467D01*
Y580681D01*
X542599Y580963D01*
X542656Y581203D01*
X542726Y581414D01*
X542797Y581584D01*
X542881Y581725D01*
X542952Y581809D01*
X543008Y581880D01*
X543022Y581894D01*
X543206Y582035D01*
X543403Y582148D01*
X543600Y582218D01*
X543812Y582274D01*
X543981Y582303D01*
X544136Y582331D01*
X545278D01*
X545560Y582317D01*
D02*
G37*
G36*
X579755D02*
X579812Y582303D01*
X579840Y582260D01*
X579868Y582232D01*
X579896Y582148D01*
Y582133D01*
Y582119D01*
Y576030D01*
X579882Y575959D01*
X579868Y575903D01*
X579826Y575874D01*
X579783Y575846D01*
X579713Y575818D01*
X578811D01*
X578740Y575832D01*
X578684Y575846D01*
X578656Y575888D01*
X578627Y575931D01*
X578599Y576001D01*
Y576015D01*
Y576030D01*
Y578102D01*
X578585Y578172D01*
X578543Y578200D01*
X578501Y578214D01*
X577796D01*
X576781Y576030D01*
X576738Y575945D01*
X576696Y575888D01*
X576668Y575860D01*
X576654Y575846D01*
X576569Y575832D01*
X576485Y575818D01*
X575568D01*
X575484Y575832D01*
X575427Y575860D01*
X575399Y575888D01*
X575385Y575945D01*
Y576015D01*
X575399Y576044D01*
Y576058D01*
X576485Y578313D01*
Y578355D01*
X576330Y578440D01*
X576189Y578525D01*
X576062Y578637D01*
X575963Y578750D01*
X575878Y578877D01*
X575808Y579004D01*
X575695Y579258D01*
X575625Y579497D01*
X575611Y579596D01*
X575597Y579695D01*
X575582Y579765D01*
Y579822D01*
Y579864D01*
Y579878D01*
Y580667D01*
X575597Y580949D01*
X575653Y581203D01*
X575723Y581414D01*
X575808Y581584D01*
X575892Y581725D01*
X575963Y581809D01*
X576019Y581880D01*
X576034Y581894D01*
X576217Y582035D01*
X576414Y582148D01*
X576612Y582218D01*
X576809Y582274D01*
X576992Y582303D01*
X577133Y582331D01*
X579685D01*
X579755Y582317D01*
D02*
G37*
G36*
X573073D02*
X573327Y582274D01*
X573538Y582204D01*
X573708Y582133D01*
X573848Y582063D01*
X573947Y581992D01*
X574018Y581950D01*
X574032Y581936D01*
X574173Y581767D01*
X574271Y581584D01*
X574356Y581386D01*
X574398Y581203D01*
X574426Y581034D01*
X574441Y580893D01*
X574455Y580836D01*
Y580794D01*
Y580780D01*
Y580766D01*
Y580329D01*
X574441Y580160D01*
X574426Y580005D01*
X574398Y579864D01*
X574356Y579737D01*
X574243Y579511D01*
X574116Y579356D01*
X574004Y579230D01*
X573891Y579145D01*
X573820Y579103D01*
X573792Y579089D01*
X573905Y579032D01*
X574004Y578947D01*
X574173Y578778D01*
X574286Y578567D01*
X574370Y578370D01*
X574412Y578172D01*
X574441Y578017D01*
X574455Y577947D01*
Y577904D01*
Y577876D01*
Y577862D01*
Y577397D01*
X574441Y577115D01*
X574384Y576875D01*
X574314Y576678D01*
X574243Y576509D01*
X574159Y576382D01*
X574102Y576283D01*
X574046Y576227D01*
X574032Y576213D01*
X573848Y576086D01*
X573651Y575987D01*
X573454Y575917D01*
X573242Y575874D01*
X573073Y575846D01*
X572918Y575818D01*
X571706D01*
X571424Y575832D01*
X571170Y575874D01*
X570959Y575945D01*
X570789Y576015D01*
X570648Y576086D01*
X570564Y576156D01*
X570493Y576199D01*
X570479Y576213D01*
X570338Y576382D01*
X570226Y576565D01*
X570155Y576763D01*
X570099Y576960D01*
X570070Y577129D01*
X570042Y577270D01*
Y577326D01*
Y577369D01*
Y577383D01*
Y577397D01*
Y577848D01*
Y578017D01*
X570070Y578186D01*
X570099Y578327D01*
X570141Y578454D01*
X570254Y578666D01*
X570367Y578835D01*
X570493Y578947D01*
X570606Y579032D01*
X570677Y579074D01*
X570691Y579089D01*
X570705D01*
X570592Y579131D01*
X570508Y579201D01*
X570352Y579342D01*
X570296Y579399D01*
X570254Y579455D01*
X570240Y579497D01*
X570226Y579511D01*
X570169Y579638D01*
X570113Y579779D01*
X570085Y579920D01*
X570070Y580047D01*
X570056Y580160D01*
X570042Y580244D01*
Y580315D01*
Y580329D01*
Y580766D01*
X570056Y581034D01*
X570113Y581273D01*
X570183Y581471D01*
X570254Y581640D01*
X570338Y581767D01*
X570409Y581866D01*
X570465Y581922D01*
X570479Y581936D01*
X570648Y582063D01*
X570846Y582162D01*
X571057Y582232D01*
X571255Y582289D01*
X571424Y582317D01*
X571579Y582331D01*
X572791D01*
X573073Y582317D01*
D02*
G37*
G36*
X414655Y532279D02*
X414711Y532265D01*
X414740Y532222D01*
X414768Y532194D01*
X414796Y532110D01*
Y532095D01*
Y532081D01*
Y525992D01*
X414782Y525921D01*
X414768Y525865D01*
X414726Y525836D01*
X414683Y525808D01*
X414613Y525780D01*
X413711D01*
X413640Y525794D01*
X413584Y525808D01*
X413556Y525850D01*
X413527Y525893D01*
X413499Y525963D01*
Y525977D01*
Y525992D01*
Y528064D01*
X413485Y528134D01*
X413443Y528162D01*
X413400Y528176D01*
X412696D01*
X411681Y525992D01*
X411638Y525907D01*
X411596Y525850D01*
X411568Y525822D01*
X411554Y525808D01*
X411469Y525794D01*
X411385Y525780D01*
X410468D01*
X410384Y525794D01*
X410327Y525822D01*
X410299Y525850D01*
X410285Y525907D01*
Y525977D01*
X410299Y526006D01*
Y526020D01*
X411385Y528275D01*
Y528317D01*
X411230Y528402D01*
X411089Y528487D01*
X410962Y528599D01*
X410863Y528712D01*
X410779Y528839D01*
X410708Y528966D01*
X410595Y529220D01*
X410525Y529459D01*
X410511Y529558D01*
X410496Y529657D01*
X410482Y529727D01*
Y529784D01*
Y529826D01*
Y529840D01*
Y530629D01*
X410496Y530911D01*
X410553Y531165D01*
X410623Y531376D01*
X410708Y531546D01*
X410793Y531687D01*
X410863Y531771D01*
X410919Y531842D01*
X410933Y531856D01*
X411117Y531997D01*
X411314Y532110D01*
X411511Y532180D01*
X411709Y532236D01*
X411892Y532265D01*
X412033Y532293D01*
X414585D01*
X414655Y532279D01*
D02*
G37*
G36*
X407113D02*
X407184Y532265D01*
X407240Y532236D01*
X407254Y532222D01*
X407325Y532166D01*
X407381Y532081D01*
X407423Y532011D01*
X407438Y531997D01*
Y531983D01*
X409467Y528233D01*
X409524Y528078D01*
X409552Y527909D01*
X409566Y527838D01*
Y527782D01*
Y527739D01*
Y527725D01*
Y527331D01*
X409552Y527218D01*
X409510Y527133D01*
X409482Y527077D01*
X409467Y527063D01*
X409369Y527006D01*
X409284Y526978D01*
X409214Y526964D01*
X406676D01*
Y525992D01*
X406662Y525921D01*
X406634Y525865D01*
X406606Y525836D01*
X406563Y525808D01*
X406479Y525780D01*
X405661D01*
X405591Y525794D01*
X405534Y525808D01*
X405520Y525822D01*
X405506D01*
X405478Y525865D01*
X405464Y525921D01*
Y525977D01*
Y525992D01*
Y526964D01*
X404731D01*
X404660Y526978D01*
X404618Y527006D01*
X404562Y527077D01*
X404534Y527161D01*
Y527176D01*
Y527190D01*
Y527881D01*
X404548Y527951D01*
X404562Y527993D01*
X404632Y528050D01*
X404703Y528078D01*
X405464D01*
Y531926D01*
X405478Y532039D01*
X405520Y532124D01*
X405563Y532180D01*
X405577Y532194D01*
X405661Y532251D01*
X405746Y532279D01*
X405816Y532293D01*
X407001D01*
X407113Y532279D01*
D02*
G37*
G36*
X430678D02*
X430932Y532222D01*
X431143Y532166D01*
X431312Y532081D01*
X431453Y532011D01*
X431552Y531940D01*
X431622Y531884D01*
X431636Y531870D01*
X431777Y531701D01*
X431890Y531503D01*
X431961Y531306D01*
X432017Y531109D01*
X432045Y530925D01*
X432059Y530784D01*
X432073Y530728D01*
Y530686D01*
Y530672D01*
Y530658D01*
Y530305D01*
X432059Y530235D01*
X432031Y530178D01*
X432003Y530150D01*
X431961Y530122D01*
X431876Y530094D01*
X430988D01*
X430918Y530108D01*
X430861Y530122D01*
X430833Y530164D01*
X430805Y530206D01*
X430776Y530277D01*
Y530291D01*
Y530305D01*
Y530629D01*
Y530742D01*
X430762Y530841D01*
X430734Y530911D01*
X430706Y530982D01*
X430692Y531024D01*
X430664Y531052D01*
X430650Y531081D01*
X430593Y531123D01*
X430523Y531165D01*
X430368Y531207D01*
X430297Y531221D01*
X429719D01*
X429621Y531193D01*
X429536Y531179D01*
X429465Y531151D01*
X429409Y531123D01*
X429381Y531109D01*
X429353Y531081D01*
X429296Y531024D01*
X429268Y530954D01*
X429212Y530813D01*
Y530742D01*
X429198Y530686D01*
Y530644D01*
Y530629D01*
Y530333D01*
X429212Y530178D01*
X429268Y530023D01*
X429339Y529882D01*
X429423Y529755D01*
X429522Y529657D01*
X429592Y529586D01*
X429649Y529530D01*
X429663Y529516D01*
X431524Y527937D01*
X431693Y527782D01*
X431820Y527613D01*
X431904Y527443D01*
X431961Y527288D01*
X432003Y527161D01*
X432017Y527049D01*
X432031Y526978D01*
Y526950D01*
Y525992D01*
X432017Y525921D01*
X432003Y525865D01*
X431961Y525836D01*
X431918Y525808D01*
X431848Y525780D01*
X428154D01*
X428084Y525794D01*
X428028Y525808D01*
X427999Y525850D01*
X427971Y525893D01*
X427943Y525963D01*
Y525977D01*
Y525992D01*
Y526696D01*
X427957Y526767D01*
X427971Y526823D01*
X428013Y526851D01*
X428042Y526880D01*
X428126Y526908D01*
X430579D01*
Y527077D01*
X430565Y527161D01*
X430523Y527246D01*
X430480Y527303D01*
X430466Y527317D01*
X428549Y528938D01*
X428436Y529036D01*
X428352Y529149D01*
X428197Y529361D01*
X428084Y529586D01*
X428013Y529784D01*
X427971Y529967D01*
X427957Y530122D01*
X427943Y530178D01*
Y530221D01*
Y530235D01*
Y530249D01*
Y530658D01*
X427957Y530939D01*
X428013Y531179D01*
X428084Y531391D01*
X428154Y531560D01*
X428239Y531701D01*
X428310Y531785D01*
X428366Y531856D01*
X428380Y531870D01*
X428563Y532011D01*
X428761Y532110D01*
X428958Y532194D01*
X429169Y532236D01*
X429339Y532265D01*
X429494Y532293D01*
X430396D01*
X430678Y532279D01*
D02*
G37*
G36*
X437261D02*
X437318Y532265D01*
X437346Y532222D01*
X437374Y532194D01*
X437402Y532110D01*
Y532095D01*
Y532081D01*
Y525992D01*
X437388Y525921D01*
X437374Y525865D01*
X437332Y525836D01*
X437289Y525808D01*
X437219Y525780D01*
X436317D01*
X436246Y525794D01*
X436190Y525808D01*
X436162Y525850D01*
X436133Y525893D01*
X436105Y525963D01*
Y525977D01*
Y525992D01*
Y528064D01*
X436091Y528134D01*
X436049Y528162D01*
X436007Y528176D01*
X435302D01*
X434287Y525992D01*
X434244Y525907D01*
X434202Y525850D01*
X434174Y525822D01*
X434160Y525808D01*
X434075Y525794D01*
X433991Y525780D01*
X433074D01*
X432990Y525794D01*
X432933Y525822D01*
X432905Y525850D01*
X432891Y525907D01*
Y525977D01*
X432905Y526006D01*
Y526020D01*
X433991Y528275D01*
Y528317D01*
X433836Y528402D01*
X433695Y528487D01*
X433568Y528599D01*
X433469Y528712D01*
X433385Y528839D01*
X433314Y528966D01*
X433201Y529220D01*
X433131Y529459D01*
X433117Y529558D01*
X433102Y529657D01*
X433088Y529727D01*
Y529784D01*
Y529826D01*
Y529840D01*
Y530629D01*
X433102Y530911D01*
X433159Y531165D01*
X433229Y531376D01*
X433314Y531546D01*
X433399Y531687D01*
X433469Y531771D01*
X433525Y531842D01*
X433540Y531856D01*
X433723Y531997D01*
X433920Y532110D01*
X434118Y532180D01*
X434315Y532236D01*
X434498Y532265D01*
X434639Y532293D01*
X437191D01*
X437261Y532279D01*
D02*
G37*
G36*
X377072Y390505D02*
X377199Y390462D01*
X377255Y390434D01*
X377298Y390420D01*
X377326Y390392D01*
X377340D01*
X378256Y389814D01*
X378313Y389786D01*
X378341Y389743D01*
X378397Y389659D01*
X378411Y389588D01*
Y389574D01*
Y389560D01*
Y388728D01*
X378397Y388658D01*
X378383Y388616D01*
X378341Y388587D01*
X378228D01*
X378214Y388601D01*
X378200D01*
X377199Y389165D01*
Y384231D01*
X377185Y384161D01*
X377171Y384105D01*
X377128Y384076D01*
X377086Y384048D01*
X377016Y384020D01*
X376114D01*
X376043Y384034D01*
X375987Y384048D01*
X375973Y384062D01*
X375958D01*
X375930Y384105D01*
X375916Y384161D01*
Y384217D01*
Y384231D01*
Y390321D01*
X375930Y390392D01*
X375944Y390448D01*
X375987Y390476D01*
X376015Y390505D01*
X376099Y390533D01*
X376945D01*
X377072Y390505D01*
D02*
G37*
G36*
X392283Y390519D02*
X392537Y390462D01*
X392748Y390406D01*
X392917Y390321D01*
X393058Y390251D01*
X393157Y390180D01*
X393227Y390124D01*
X393241Y390110D01*
X393382Y389941D01*
X393495Y389743D01*
X393566Y389546D01*
X393622Y389349D01*
X393650Y389165D01*
X393664Y389024D01*
X393678Y388968D01*
Y388926D01*
Y388912D01*
Y388898D01*
Y388545D01*
X393664Y388475D01*
X393636Y388418D01*
X393608Y388390D01*
X393566Y388362D01*
X393481Y388334D01*
X392593D01*
X392522Y388348D01*
X392466Y388362D01*
X392438Y388404D01*
X392410Y388447D01*
X392381Y388517D01*
Y388531D01*
Y388545D01*
Y388869D01*
Y388982D01*
X392367Y389081D01*
X392339Y389151D01*
X392311Y389222D01*
X392297Y389264D01*
X392269Y389292D01*
X392254Y389320D01*
X392198Y389363D01*
X392128Y389405D01*
X391973Y389447D01*
X391902Y389462D01*
X391324D01*
X391226Y389433D01*
X391141Y389419D01*
X391070Y389391D01*
X391014Y389363D01*
X390986Y389349D01*
X390958Y389320D01*
X390901Y389264D01*
X390873Y389194D01*
X390817Y389053D01*
Y388982D01*
X390802Y388926D01*
Y388884D01*
Y388869D01*
Y388573D01*
X390817Y388418D01*
X390873Y388263D01*
X390943Y388122D01*
X391028Y387995D01*
X391127Y387897D01*
X391197Y387826D01*
X391254Y387770D01*
X391268Y387756D01*
X393129Y386177D01*
X393298Y386022D01*
X393425Y385853D01*
X393509Y385684D01*
X393566Y385528D01*
X393608Y385401D01*
X393622Y385289D01*
X393636Y385218D01*
Y385190D01*
Y384231D01*
X393622Y384161D01*
X393608Y384105D01*
X393566Y384076D01*
X393523Y384048D01*
X393453Y384020D01*
X389759D01*
X389689Y384034D01*
X389632Y384048D01*
X389604Y384090D01*
X389576Y384133D01*
X389548Y384203D01*
Y384217D01*
Y384231D01*
Y384936D01*
X389562Y385007D01*
X389576Y385063D01*
X389618Y385091D01*
X389647Y385120D01*
X389731Y385148D01*
X392184D01*
Y385317D01*
X392170Y385401D01*
X392128Y385486D01*
X392085Y385542D01*
X392071Y385557D01*
X390154Y387178D01*
X390041Y387276D01*
X389957Y387389D01*
X389802Y387601D01*
X389689Y387826D01*
X389618Y388024D01*
X389576Y388207D01*
X389562Y388362D01*
X389548Y388418D01*
Y388461D01*
Y388475D01*
Y388489D01*
Y388898D01*
X389562Y389179D01*
X389618Y389419D01*
X389689Y389631D01*
X389759Y389800D01*
X389844Y389941D01*
X389914Y390025D01*
X389971Y390096D01*
X389985Y390110D01*
X390168Y390251D01*
X390365Y390350D01*
X390563Y390434D01*
X390774Y390476D01*
X390943Y390505D01*
X391099Y390533D01*
X392001D01*
X392283Y390519D01*
D02*
G37*
G36*
X388406D02*
X388462Y390505D01*
X388505Y390462D01*
X388533Y390434D01*
X388561Y390350D01*
Y390336D01*
Y390321D01*
Y387107D01*
X388547Y387037D01*
X388519Y386995D01*
X388448Y386938D01*
X388364Y386910D01*
X387504D01*
X387448Y386924D01*
X387391Y386938D01*
X387292Y387023D01*
X387236Y387093D01*
X387208Y387107D01*
Y387121D01*
X387151Y387192D01*
X387081Y387248D01*
X387024Y387276D01*
X386954Y387305D01*
X386898Y387319D01*
X386855Y387333D01*
X386207D01*
X386094Y387305D01*
X385995Y387290D01*
X385925Y387262D01*
X385883Y387234D01*
X385840Y387206D01*
X385812Y387192D01*
Y387178D01*
X385756Y387107D01*
X385728Y387023D01*
X385671Y386825D01*
Y386727D01*
X385657Y386656D01*
Y386600D01*
Y386586D01*
Y385684D01*
Y385571D01*
X385685Y385472D01*
X385699Y385387D01*
X385728Y385331D01*
X385756Y385275D01*
X385784Y385246D01*
X385798Y385232D01*
X385812Y385218D01*
X385883Y385176D01*
X385953Y385148D01*
X386108Y385106D01*
X386179D01*
X386235Y385091D01*
X386884D01*
X386968Y385106D01*
X387053Y385134D01*
X387109Y385162D01*
X387165Y385176D01*
X387194Y385204D01*
X387222Y385218D01*
X387264Y385275D01*
X387307Y385345D01*
X387349Y385500D01*
Y385571D01*
X387363Y385627D01*
Y385669D01*
Y385684D01*
Y385867D01*
X387377Y385937D01*
X387391Y385994D01*
X387433Y386036D01*
X387462Y386064D01*
X387546Y386092D01*
X388434D01*
X388505Y386078D01*
X388561Y386064D01*
X388589Y386022D01*
X388618Y385979D01*
X388646Y385909D01*
Y385881D01*
Y385867D01*
Y385669D01*
X388632Y385387D01*
X388575Y385134D01*
X388505Y384922D01*
X388420Y384753D01*
X388350Y384626D01*
X388279Y384528D01*
X388223Y384457D01*
X388209Y384443D01*
X388025Y384302D01*
X387828Y384203D01*
X387631Y384119D01*
X387419Y384076D01*
X387250Y384048D01*
X387095Y384034D01*
X387039Y384020D01*
X386080D01*
X385798Y384034D01*
X385559Y384090D01*
X385347Y384161D01*
X385164Y384231D01*
X385037Y384316D01*
X384938Y384372D01*
X384868Y384429D01*
X384854Y384443D01*
X384713Y384626D01*
X384600Y384823D01*
X384529Y385021D01*
X384473Y385218D01*
X384445Y385401D01*
X384417Y385542D01*
Y385599D01*
Y385641D01*
Y385655D01*
Y385669D01*
Y386783D01*
X384431Y387065D01*
X384487Y387305D01*
X384558Y387516D01*
X384656Y387699D01*
X384783Y387854D01*
X384910Y387981D01*
X385051Y388080D01*
X385192Y388164D01*
X385347Y388235D01*
X385488Y388277D01*
X385615Y388320D01*
X385742Y388334D01*
X385840Y388348D01*
X385911Y388362D01*
X386418D01*
X386644Y388334D01*
X386841Y388277D01*
X386982Y388207D01*
X387095Y388108D01*
X387180Y388009D01*
X387222Y387939D01*
X387250Y387883D01*
X387264Y387854D01*
Y389349D01*
X384811D01*
X384741Y389363D01*
X384684Y389377D01*
X384656Y389419D01*
X384628Y389462D01*
X384600Y389532D01*
Y389546D01*
Y389560D01*
Y390321D01*
X384614Y390392D01*
X384628Y390448D01*
X384670Y390476D01*
X384698Y390505D01*
X384783Y390533D01*
X388336D01*
X388406Y390519D01*
D02*
G37*
G36*
X411525D02*
X411581Y390505D01*
X411610Y390462D01*
X411638Y390434D01*
X411666Y390350D01*
Y390336D01*
Y390321D01*
Y384231D01*
X411652Y384161D01*
X411638Y384105D01*
X411596Y384076D01*
X411553Y384048D01*
X411483Y384020D01*
X410623D01*
X410538Y384034D01*
X410482Y384048D01*
X410454Y384062D01*
X410440D01*
X410411Y384105D01*
X410397Y384161D01*
Y384217D01*
Y384231D01*
Y389053D01*
X410369D01*
X409312Y385641D01*
X409284Y385571D01*
X409241Y385514D01*
X409199Y385486D01*
X409157Y385458D01*
X409086Y385430D01*
X408198D01*
X408128Y385444D01*
X408071Y385458D01*
X408001Y385542D01*
X407959Y385613D01*
X407944Y385627D01*
Y385641D01*
X406915Y389039D01*
X406873D01*
Y384231D01*
X406859Y384161D01*
X406845Y384105D01*
X406803Y384076D01*
X406760Y384048D01*
X406690Y384020D01*
X405830D01*
X405760Y384034D01*
X405703Y384048D01*
X405675Y384090D01*
X405647Y384133D01*
X405619Y384203D01*
Y384217D01*
Y384231D01*
Y390321D01*
X405633Y390392D01*
X405647Y390448D01*
X405689Y390476D01*
X405717Y390505D01*
X405802Y390533D01*
X407324D01*
X407423Y390505D01*
X407479Y390462D01*
X407508Y390420D01*
X407522Y390392D01*
X408607Y386811D01*
X408663D01*
X409749Y390392D01*
X409791Y390476D01*
X409862Y390519D01*
X409904Y390533D01*
X411455D01*
X411525Y390519D01*
D02*
G37*
G36*
X402996D02*
X403250Y390462D01*
X403462Y390406D01*
X403631Y390321D01*
X403772Y390251D01*
X403871Y390180D01*
X403941Y390124D01*
X403955Y390110D01*
X404096Y389941D01*
X404209Y389743D01*
X404279Y389532D01*
X404336Y389335D01*
X404364Y389165D01*
X404378Y389010D01*
X404392Y388954D01*
Y388926D01*
Y388898D01*
Y388884D01*
Y385669D01*
X404378Y385387D01*
X404322Y385134D01*
X404251Y384922D01*
X404166Y384753D01*
X404096Y384626D01*
X404025Y384528D01*
X403969Y384457D01*
X403955Y384443D01*
X403772Y384302D01*
X403574Y384203D01*
X403377Y384119D01*
X403166Y384076D01*
X402996Y384048D01*
X402841Y384034D01*
X402785Y384020D01*
X401615D01*
X401333Y384034D01*
X401079Y384090D01*
X400868Y384161D01*
X400699Y384231D01*
X400558Y384316D01*
X400459Y384372D01*
X400388Y384429D01*
X400374Y384443D01*
X400233Y384626D01*
X400121Y384823D01*
X400050Y385021D01*
X399994Y385218D01*
X399966Y385401D01*
X399937Y385542D01*
Y385599D01*
Y385641D01*
Y385655D01*
Y385669D01*
Y386149D01*
X399952Y386219D01*
X399966Y386275D01*
X400008Y386318D01*
X400050Y386346D01*
X400121Y386374D01*
X401009D01*
X401079Y386360D01*
X401136Y386346D01*
X401164Y386304D01*
X401192Y386261D01*
X401220Y386191D01*
Y386163D01*
Y386149D01*
Y385726D01*
Y385613D01*
X401248Y385514D01*
X401263Y385430D01*
X401291Y385373D01*
X401319Y385317D01*
X401333Y385289D01*
X401361Y385275D01*
Y385261D01*
X401418Y385218D01*
X401488Y385190D01*
X401643Y385148D01*
X401714D01*
X401770Y385134D01*
X402630D01*
X402715Y385148D01*
X402799Y385176D01*
X402855Y385204D01*
X402912Y385218D01*
X402940Y385246D01*
X402968Y385261D01*
X403010Y385317D01*
X403039Y385387D01*
X403081Y385542D01*
Y385613D01*
X403095Y385669D01*
Y385712D01*
Y385726D01*
Y388827D01*
Y388940D01*
X403081Y389039D01*
X403053Y389109D01*
X403025Y389179D01*
X403010Y389222D01*
X402982Y389250D01*
X402968Y389278D01*
X402912Y389320D01*
X402841Y389363D01*
X402686Y389405D01*
X402616Y389419D01*
X401714D01*
X401615Y389391D01*
X401530Y389377D01*
X401474Y389349D01*
X401418Y389320D01*
X401389Y389306D01*
X401361Y389278D01*
X401319Y389222D01*
X401277Y389151D01*
X401234Y389010D01*
X401220Y388940D01*
Y388884D01*
Y388841D01*
Y388827D01*
Y388404D01*
X401206Y388334D01*
X401192Y388277D01*
X401150Y388235D01*
X401107Y388207D01*
X401037Y388179D01*
X400163D01*
X400093Y388193D01*
X400036Y388221D01*
X399994Y388249D01*
X399966Y388291D01*
X399937Y388376D01*
Y388390D01*
Y388404D01*
Y388884D01*
X399952Y389165D01*
X400008Y389405D01*
X400078Y389617D01*
X400149Y389786D01*
X400233Y389927D01*
X400304Y390011D01*
X400360Y390082D01*
X400374Y390096D01*
X400558Y390237D01*
X400755Y390350D01*
X400952Y390420D01*
X401164Y390476D01*
X401333Y390505D01*
X401488Y390533D01*
X402715D01*
X402996Y390519D01*
D02*
G37*
G36*
X398697D02*
X398753Y390505D01*
X398781Y390462D01*
X398810Y390434D01*
X398838Y390350D01*
Y390336D01*
Y390321D01*
Y384231D01*
X398824Y384161D01*
X398810Y384105D01*
X398767Y384076D01*
X398725Y384048D01*
X398655Y384020D01*
X397752D01*
X397682Y384034D01*
X397626Y384048D01*
X397597Y384090D01*
X397569Y384133D01*
X397541Y384203D01*
Y384217D01*
Y384231D01*
Y386149D01*
X397527Y386219D01*
X397485Y386247D01*
X397442Y386261D01*
X396145D01*
X395863Y386275D01*
X395624Y386332D01*
X395412Y386402D01*
X395229Y386473D01*
X395102Y386558D01*
X395004Y386614D01*
X394933Y386670D01*
X394919Y386684D01*
X394778Y386868D01*
X394665Y387065D01*
X394595Y387262D01*
X394538Y387460D01*
X394510Y387643D01*
X394482Y387784D01*
Y387840D01*
Y387883D01*
Y387897D01*
Y387911D01*
Y388884D01*
X394496Y389165D01*
X394552Y389405D01*
X394623Y389617D01*
X394693Y389786D01*
X394778Y389927D01*
X394848Y390011D01*
X394905Y390082D01*
X394919Y390096D01*
X395102Y390237D01*
X395299Y390350D01*
X395497Y390420D01*
X395694Y390476D01*
X395877Y390505D01*
X396018Y390533D01*
X398626D01*
X398697Y390519D01*
D02*
G37*
G36*
X382048D02*
X382302Y390462D01*
X382514Y390406D01*
X382683Y390321D01*
X382824Y390251D01*
X382922Y390180D01*
X382993Y390124D01*
X383007Y390110D01*
X383148Y389941D01*
X383261Y389743D01*
X383331Y389532D01*
X383387Y389335D01*
X383416Y389165D01*
X383430Y389010D01*
X383444Y388954D01*
Y388926D01*
Y388898D01*
Y388884D01*
Y385669D01*
X383430Y385387D01*
X383373Y385134D01*
X383303Y384922D01*
X383218Y384753D01*
X383148Y384626D01*
X383077Y384528D01*
X383021Y384457D01*
X383007Y384443D01*
X382824Y384302D01*
X382626Y384203D01*
X382429Y384119D01*
X382217Y384076D01*
X382048Y384048D01*
X381893Y384034D01*
X381837Y384020D01*
X380780D01*
X380498Y384034D01*
X380244Y384090D01*
X380032Y384161D01*
X379863Y384231D01*
X379722Y384316D01*
X379624Y384372D01*
X379553Y384429D01*
X379539Y384443D01*
X379398Y384612D01*
X379285Y384809D01*
X379215Y385021D01*
X379158Y385218D01*
X379130Y385387D01*
X379102Y385542D01*
Y385599D01*
Y385641D01*
Y385655D01*
Y385669D01*
Y386487D01*
X379116Y386769D01*
X379173Y387023D01*
X379243Y387234D01*
X379314Y387403D01*
X379398Y387544D01*
X379469Y387629D01*
X379525Y387699D01*
X379539Y387713D01*
X379722Y387854D01*
X379920Y387967D01*
X380117Y388038D01*
X380328Y388094D01*
X380498Y388122D01*
X380653Y388150D01*
X382161D01*
Y388827D01*
Y388940D01*
X382133Y389039D01*
X382119Y389109D01*
X382091Y389179D01*
X382062Y389222D01*
X382048Y389250D01*
X382020Y389278D01*
X381964Y389320D01*
X381893Y389363D01*
X381738Y389405D01*
X381668Y389419D01*
X379694D01*
X379624Y389433D01*
X379567Y389447D01*
X379539Y389490D01*
X379511Y389532D01*
X379483Y389602D01*
Y389617D01*
Y389631D01*
Y390321D01*
X379497Y390392D01*
X379511Y390448D01*
X379553Y390476D01*
X379581Y390505D01*
X379666Y390533D01*
X381766D01*
X382048Y390519D01*
D02*
G37*
G36*
X297836Y373769D02*
X297962Y373726D01*
X298019Y373698D01*
X298061Y373684D01*
X298089Y373656D01*
X298103D01*
X299020Y373078D01*
X299076Y373050D01*
X299104Y373007D01*
X299161Y372923D01*
X299175Y372852D01*
Y372838D01*
Y372824D01*
Y371992D01*
X299161Y371922D01*
X299147Y371880D01*
X299104Y371851D01*
X298992D01*
X298977Y371866D01*
X298963D01*
X297962Y372429D01*
Y367495D01*
X297948Y367425D01*
X297934Y367369D01*
X297892Y367340D01*
X297850Y367312D01*
X297779Y367284D01*
X296877D01*
X296807Y367298D01*
X296750Y367312D01*
X296736Y367326D01*
X296722D01*
X296694Y367369D01*
X296680Y367425D01*
Y367481D01*
Y367495D01*
Y373585D01*
X296694Y373656D01*
X296708Y373712D01*
X296750Y373740D01*
X296778Y373769D01*
X296863Y373797D01*
X297709D01*
X297836Y373769D01*
D02*
G37*
G36*
X302910Y373783D02*
X303164Y373726D01*
X303376Y373670D01*
X303545Y373585D01*
X303686Y373515D01*
X303785Y373444D01*
X303855Y373388D01*
X303869Y373374D01*
X304010Y373205D01*
X304123Y373007D01*
X304193Y372796D01*
X304250Y372599D01*
X304278Y372429D01*
X304292Y372274D01*
X304306Y372218D01*
Y372190D01*
Y372162D01*
Y372147D01*
Y368933D01*
X304292Y368651D01*
X304236Y368398D01*
X304165Y368186D01*
X304081Y368017D01*
X304010Y367890D01*
X303940Y367791D01*
X303883Y367721D01*
X303869Y367707D01*
X303686Y367566D01*
X303489Y367467D01*
X303291Y367383D01*
X303080Y367340D01*
X302910Y367312D01*
X302755Y367298D01*
X302699Y367284D01*
X301529D01*
X301247Y367298D01*
X300993Y367355D01*
X300782Y367425D01*
X300613Y367495D01*
X300472Y367580D01*
X300373Y367636D01*
X300303Y367693D01*
X300289Y367707D01*
X300147Y367890D01*
X300035Y368088D01*
X299964Y368285D01*
X299908Y368482D01*
X299880Y368666D01*
X299851Y368806D01*
Y368863D01*
Y368905D01*
Y368919D01*
Y368933D01*
Y369413D01*
X299865Y369483D01*
X299880Y369539D01*
X299922Y369582D01*
X299964Y369610D01*
X300035Y369638D01*
X300923D01*
X300993Y369624D01*
X301050Y369610D01*
X301078Y369568D01*
X301106Y369525D01*
X301134Y369455D01*
Y369427D01*
Y369413D01*
Y368990D01*
Y368877D01*
X301162Y368778D01*
X301177Y368694D01*
X301205Y368637D01*
X301233Y368581D01*
X301247Y368553D01*
X301275Y368539D01*
Y368525D01*
X301332Y368482D01*
X301402Y368454D01*
X301557Y368412D01*
X301628D01*
X301684Y368398D01*
X302544D01*
X302629Y368412D01*
X302713Y368440D01*
X302770Y368468D01*
X302826Y368482D01*
X302854Y368510D01*
X302882Y368525D01*
X302925Y368581D01*
X302953Y368651D01*
X302995Y368806D01*
Y368877D01*
X303009Y368933D01*
Y368976D01*
Y368990D01*
Y372091D01*
Y372204D01*
X302995Y372303D01*
X302967Y372373D01*
X302939Y372444D01*
X302925Y372486D01*
X302896Y372514D01*
X302882Y372542D01*
X302826Y372584D01*
X302755Y372627D01*
X302600Y372669D01*
X302530Y372683D01*
X301628D01*
X301529Y372655D01*
X301444Y372641D01*
X301388Y372613D01*
X301332Y372584D01*
X301303Y372570D01*
X301275Y372542D01*
X301233Y372486D01*
X301191Y372415D01*
X301148Y372274D01*
X301134Y372204D01*
Y372147D01*
Y372105D01*
Y372091D01*
Y371668D01*
X301120Y371598D01*
X301106Y371541D01*
X301064Y371499D01*
X301021Y371471D01*
X300951Y371443D01*
X300077D01*
X300007Y371457D01*
X299950Y371485D01*
X299908Y371513D01*
X299880Y371555D01*
X299851Y371640D01*
Y371654D01*
Y371668D01*
Y372147D01*
X299865Y372429D01*
X299922Y372669D01*
X299992Y372881D01*
X300063Y373050D01*
X300147Y373191D01*
X300218Y373275D01*
X300274Y373346D01*
X300289Y373360D01*
X300472Y373501D01*
X300669Y373614D01*
X300866Y373684D01*
X301078Y373740D01*
X301247Y373769D01*
X301402Y373797D01*
X302629D01*
X302910Y373783D01*
D02*
G37*
G36*
X293240D02*
X293310Y373769D01*
X293367Y373740D01*
X293381Y373726D01*
X293451Y373670D01*
X293508Y373585D01*
X293550Y373515D01*
X293564Y373501D01*
Y373487D01*
X295594Y369737D01*
X295651Y369582D01*
X295679Y369413D01*
X295693Y369342D01*
Y369286D01*
Y369244D01*
Y369229D01*
Y368835D01*
X295679Y368722D01*
X295636Y368637D01*
X295608Y368581D01*
X295594Y368567D01*
X295495Y368510D01*
X295411Y368482D01*
X295340Y368468D01*
X292803D01*
Y367495D01*
X292789Y367425D01*
X292761Y367369D01*
X292733Y367340D01*
X292690Y367312D01*
X292606Y367284D01*
X291788D01*
X291717Y367298D01*
X291661Y367312D01*
X291647Y367326D01*
X291633D01*
X291605Y367369D01*
X291591Y367425D01*
Y367481D01*
Y367495D01*
Y368468D01*
X290858D01*
X290787Y368482D01*
X290745Y368510D01*
X290688Y368581D01*
X290660Y368666D01*
Y368680D01*
Y368694D01*
Y369384D01*
X290674Y369455D01*
X290688Y369497D01*
X290759Y369554D01*
X290829Y369582D01*
X291591D01*
Y373430D01*
X291605Y373543D01*
X291647Y373628D01*
X291689Y373684D01*
X291703Y373698D01*
X291788Y373755D01*
X291873Y373783D01*
X291943Y373797D01*
X293127D01*
X293240Y373783D01*
D02*
G37*
G36*
X479954Y532265D02*
X480080Y532222D01*
X480137Y532194D01*
X480179Y532180D01*
X480207Y532152D01*
X480221D01*
X481138Y531574D01*
X481194Y531546D01*
X481222Y531503D01*
X481279Y531419D01*
X481293Y531348D01*
Y531334D01*
Y531320D01*
Y530488D01*
X481279Y530418D01*
X481265Y530376D01*
X481222Y530347D01*
X481110D01*
X481095Y530362D01*
X481081D01*
X480080Y530925D01*
Y525992D01*
X480066Y525921D01*
X480052Y525865D01*
X480010Y525836D01*
X479968Y525808D01*
X479897Y525780D01*
X478995D01*
X478924Y525794D01*
X478868Y525808D01*
X478854Y525822D01*
X478840D01*
X478812Y525865D01*
X478798Y525921D01*
Y525977D01*
Y525992D01*
Y532081D01*
X478812Y532152D01*
X478826Y532208D01*
X478868Y532236D01*
X478896Y532265D01*
X478981Y532293D01*
X479827D01*
X479954Y532265D01*
D02*
G37*
G36*
X476373Y532279D02*
X476627Y532222D01*
X476838Y532166D01*
X477007Y532081D01*
X477148Y532011D01*
X477247Y531940D01*
X477317Y531884D01*
X477332Y531870D01*
X477472Y531701D01*
X477585Y531503D01*
X477656Y531306D01*
X477712Y531109D01*
X477740Y530925D01*
X477754Y530784D01*
X477769Y530728D01*
Y530686D01*
Y530672D01*
Y530658D01*
Y530376D01*
X477754Y530305D01*
X477740Y530249D01*
X477698Y530221D01*
X477656Y530192D01*
X477585Y530164D01*
X476697D01*
X476627Y530178D01*
X476570Y530192D01*
X476528Y530235D01*
X476500Y530277D01*
X476472Y530347D01*
Y530362D01*
Y530376D01*
Y530629D01*
Y530742D01*
X476457Y530841D01*
X476429Y530911D01*
X476401Y530982D01*
X476387Y531024D01*
X476359Y531052D01*
X476345Y531081D01*
X476288Y531123D01*
X476218Y531165D01*
X476077Y531207D01*
X476006Y531221D01*
X475288D01*
X475189Y531193D01*
X475104Y531179D01*
X475034Y531151D01*
X474977Y531123D01*
X474949Y531109D01*
X474921Y531081D01*
X474865Y531024D01*
X474836Y530954D01*
X474780Y530813D01*
Y530742D01*
X474766Y530686D01*
Y530644D01*
Y530629D01*
Y530164D01*
Y530051D01*
X474794Y529953D01*
X474808Y529868D01*
X474836Y529812D01*
X474865Y529755D01*
X474893Y529727D01*
X474907Y529713D01*
X474921Y529699D01*
X474977Y529657D01*
X475048Y529628D01*
X475217Y529586D01*
X475288D01*
X475344Y529572D01*
X475922D01*
X475992Y529558D01*
X476049Y529544D01*
X476077Y529502D01*
X476105Y529459D01*
X476133Y529389D01*
Y529361D01*
Y529347D01*
Y528740D01*
X476119Y528670D01*
X476105Y528614D01*
X476063Y528585D01*
X476021Y528557D01*
X475950Y528529D01*
X475288D01*
X475189Y528501D01*
X475104Y528487D01*
X475034Y528458D01*
X474977Y528430D01*
X474949Y528416D01*
X474921Y528388D01*
X474865Y528332D01*
X474836Y528261D01*
X474780Y528106D01*
Y528050D01*
X474766Y527993D01*
Y527951D01*
Y527937D01*
Y527443D01*
Y527331D01*
X474794Y527232D01*
X474808Y527147D01*
X474836Y527091D01*
X474865Y527035D01*
X474893Y527006D01*
X474907Y526992D01*
X474921Y526978D01*
X474977Y526936D01*
X475048Y526908D01*
X475217Y526866D01*
X475288D01*
X475344Y526851D01*
X476006D01*
X476105Y526866D01*
X476176Y526894D01*
X476246Y526922D01*
X476288Y526936D01*
X476316Y526964D01*
X476345Y526978D01*
X476387Y527035D01*
X476415Y527105D01*
X476457Y527260D01*
Y527331D01*
X476472Y527387D01*
Y527429D01*
Y527443D01*
Y527697D01*
X476486Y527768D01*
X476500Y527824D01*
X476542Y527866D01*
X476584Y527895D01*
X476655Y527923D01*
X477557D01*
X477628Y527909D01*
X477684Y527895D01*
X477712Y527852D01*
X477740Y527810D01*
X477769Y527739D01*
Y527711D01*
Y527697D01*
Y527415D01*
X477754Y527133D01*
X477698Y526894D01*
X477628Y526682D01*
X477543Y526513D01*
X477472Y526372D01*
X477402Y526287D01*
X477346Y526217D01*
X477332Y526203D01*
X477148Y526062D01*
X476951Y525963D01*
X476754Y525879D01*
X476542Y525836D01*
X476373Y525808D01*
X476218Y525794D01*
X476161Y525780D01*
X475189D01*
X474907Y525794D01*
X474653Y525850D01*
X474442Y525921D01*
X474272Y525992D01*
X474132Y526076D01*
X474033Y526132D01*
X473962Y526189D01*
X473948Y526203D01*
X473807Y526372D01*
X473694Y526569D01*
X473624Y526767D01*
X473568Y526964D01*
X473539Y527147D01*
X473511Y527288D01*
Y527345D01*
Y527387D01*
Y527401D01*
Y527415D01*
Y527937D01*
X473525Y528106D01*
X473539Y528247D01*
X473582Y528388D01*
X473638Y528501D01*
X473694Y528599D01*
X473765Y528698D01*
X473906Y528839D01*
X474061Y528938D01*
X474188Y528994D01*
X474244Y529008D01*
X474287Y529022D01*
X474301Y529036D01*
X474315D01*
X474174Y529093D01*
X474047Y529163D01*
X473948Y529234D01*
X473850Y529318D01*
X473765Y529403D01*
X473709Y529502D01*
X473610Y529685D01*
X473554Y529868D01*
X473525Y530009D01*
X473511Y530065D01*
Y530108D01*
Y530136D01*
Y530150D01*
Y530658D01*
X473525Y530939D01*
X473582Y531179D01*
X473652Y531391D01*
X473723Y531560D01*
X473807Y531701D01*
X473878Y531785D01*
X473934Y531856D01*
X473948Y531870D01*
X474132Y532011D01*
X474329Y532110D01*
X474526Y532194D01*
X474738Y532236D01*
X474907Y532265D01*
X475062Y532293D01*
X476091D01*
X476373Y532279D01*
D02*
G37*
G36*
X485028D02*
X485282Y532222D01*
X485494Y532166D01*
X485663Y532081D01*
X485804Y532011D01*
X485902Y531940D01*
X485973Y531884D01*
X485987Y531870D01*
X486128Y531701D01*
X486241Y531503D01*
X486311Y531292D01*
X486368Y531095D01*
X486396Y530925D01*
X486410Y530770D01*
X486424Y530714D01*
Y530686D01*
Y530658D01*
Y530644D01*
Y527429D01*
X486410Y527147D01*
X486354Y526894D01*
X486283Y526682D01*
X486199Y526513D01*
X486128Y526386D01*
X486058Y526287D01*
X486001Y526217D01*
X485987Y526203D01*
X485804Y526062D01*
X485606Y525963D01*
X485409Y525879D01*
X485198Y525836D01*
X485028Y525808D01*
X484873Y525794D01*
X484817Y525780D01*
X483647D01*
X483365Y525794D01*
X483111Y525850D01*
X482900Y525921D01*
X482731Y525992D01*
X482590Y526076D01*
X482491Y526132D01*
X482421Y526189D01*
X482407Y526203D01*
X482266Y526386D01*
X482153Y526584D01*
X482082Y526781D01*
X482026Y526978D01*
X481998Y527161D01*
X481969Y527303D01*
Y527359D01*
Y527401D01*
Y527415D01*
Y527429D01*
Y527909D01*
X481983Y527979D01*
X481998Y528036D01*
X482040Y528078D01*
X482082Y528106D01*
X482153Y528134D01*
X483041D01*
X483111Y528120D01*
X483168Y528106D01*
X483196Y528064D01*
X483224Y528021D01*
X483252Y527951D01*
Y527923D01*
Y527909D01*
Y527486D01*
Y527373D01*
X483280Y527274D01*
X483295Y527190D01*
X483323Y527133D01*
X483351Y527077D01*
X483365Y527049D01*
X483393Y527035D01*
Y527020D01*
X483450Y526978D01*
X483520Y526950D01*
X483675Y526908D01*
X483746D01*
X483802Y526894D01*
X484662D01*
X484747Y526908D01*
X484831Y526936D01*
X484888Y526964D01*
X484944Y526978D01*
X484972Y527006D01*
X485000Y527020D01*
X485043Y527077D01*
X485071Y527147D01*
X485113Y527303D01*
Y527373D01*
X485127Y527429D01*
Y527472D01*
Y527486D01*
Y530587D01*
Y530700D01*
X485113Y530798D01*
X485085Y530869D01*
X485057Y530939D01*
X485043Y530982D01*
X485014Y531010D01*
X485000Y531038D01*
X484944Y531081D01*
X484873Y531123D01*
X484718Y531165D01*
X484648Y531179D01*
X483746D01*
X483647Y531151D01*
X483562Y531137D01*
X483506Y531109D01*
X483450Y531081D01*
X483421Y531066D01*
X483393Y531038D01*
X483351Y530982D01*
X483309Y530911D01*
X483266Y530770D01*
X483252Y530700D01*
Y530644D01*
Y530601D01*
Y530587D01*
Y530164D01*
X483238Y530094D01*
X483224Y530037D01*
X483182Y529995D01*
X483139Y529967D01*
X483069Y529939D01*
X482195D01*
X482124Y529953D01*
X482068Y529981D01*
X482026Y530009D01*
X481998Y530051D01*
X481969Y530136D01*
Y530150D01*
Y530164D01*
Y530644D01*
X481983Y530925D01*
X482040Y531165D01*
X482110Y531376D01*
X482181Y531546D01*
X482266Y531687D01*
X482336Y531771D01*
X482392Y531842D01*
X482407Y531856D01*
X482590Y531997D01*
X482787Y532110D01*
X482984Y532180D01*
X483196Y532236D01*
X483365Y532265D01*
X483520Y532293D01*
X484747D01*
X485028Y532279D01*
D02*
G37*
G36*
X445518Y480986D02*
X445729Y480944D01*
X445926Y480873D01*
X446081Y480803D01*
X446208Y480732D01*
X446293Y480662D01*
X446349Y480619D01*
X446363Y480605D01*
X446504Y480450D01*
X446603Y480267D01*
X446673Y480084D01*
X446716Y479901D01*
X446758Y479745D01*
X446772Y479618D01*
Y479534D01*
Y479520D01*
Y479506D01*
Y479012D01*
X446744Y478928D01*
X446702Y478885D01*
X446659Y478871D01*
X446166D01*
X446081Y478900D01*
X446039Y478942D01*
X446025Y478984D01*
Y479012D01*
Y479478D01*
X446011Y479633D01*
X445983Y479759D01*
X445940Y479886D01*
X445898Y479985D01*
X445828Y480070D01*
X445757Y480140D01*
X445602Y480239D01*
X445447Y480309D01*
X445306Y480337D01*
X445264Y480352D01*
X444136D01*
X443981Y480337D01*
X443854Y480309D01*
X443741Y480267D01*
X443643Y480211D01*
X443572Y480154D01*
X443502Y480070D01*
X443403Y479915D01*
X443332Y479759D01*
X443304Y479618D01*
X443290Y479562D01*
Y479520D01*
Y479492D01*
Y479478D01*
Y476010D01*
X443304Y475855D01*
X443332Y475728D01*
X443375Y475601D01*
X443417Y475502D01*
X443488Y475418D01*
X443558Y475347D01*
X443713Y475248D01*
X443868Y475178D01*
X444009Y475150D01*
X444051Y475136D01*
X445179D01*
X445334Y475150D01*
X445461Y475178D01*
X445574Y475220D01*
X445672Y475277D01*
X445757Y475333D01*
X445813Y475418D01*
X445926Y475573D01*
X445983Y475728D01*
X446011Y475869D01*
X446025Y475925D01*
Y475967D01*
Y475996D01*
Y476010D01*
Y476475D01*
X446053Y476559D01*
X446096Y476602D01*
X446138Y476616D01*
X446631D01*
X446716Y476588D01*
X446758Y476545D01*
X446772Y476503D01*
Y476475D01*
Y475981D01*
X446758Y475728D01*
X446716Y475516D01*
X446645Y475319D01*
X446575Y475164D01*
X446490Y475037D01*
X446434Y474952D01*
X446377Y474896D01*
X446363Y474882D01*
X446208Y474755D01*
X446025Y474656D01*
X445842Y474586D01*
X445672Y474529D01*
X445503Y474501D01*
X445377Y474487D01*
X444051D01*
X443798Y474501D01*
X443586Y474544D01*
X443389Y474614D01*
X443234Y474685D01*
X443107Y474755D01*
X443008Y474826D01*
X442952Y474868D01*
X442938Y474882D01*
X442811Y475037D01*
X442712Y475220D01*
X442642Y475404D01*
X442599Y475573D01*
X442571Y475742D01*
X442543Y475869D01*
Y475953D01*
Y475967D01*
Y475981D01*
Y479506D01*
X442557Y479759D01*
X442599Y479971D01*
X442670Y480168D01*
X442740Y480323D01*
X442811Y480436D01*
X442881Y480535D01*
X442924Y480591D01*
X442938Y480605D01*
X443107Y480732D01*
X443290Y480831D01*
X443473Y480901D01*
X443643Y480944D01*
X443812Y480972D01*
X443939Y481000D01*
X445264D01*
X445518Y480986D01*
D02*
G37*
G36*
X449747Y480972D02*
X449789Y480929D01*
X449803Y480887D01*
Y480859D01*
Y474628D01*
X449775Y474544D01*
X449733Y474501D01*
X449690Y474487D01*
X449239D01*
X449155Y474501D01*
X449070Y474529D01*
X448999Y474558D01*
X448985Y474572D01*
X448971D01*
X447801Y475248D01*
X447731Y475319D01*
X447688Y475389D01*
X447674Y475446D01*
Y475460D01*
Y475474D01*
Y475883D01*
X447688Y475939D01*
X447702Y475967D01*
X447731Y475996D01*
X447773D01*
X447829Y475981D01*
X447844Y475967D01*
X447858D01*
X449070Y475277D01*
Y480859D01*
X449098Y480944D01*
X449140Y480986D01*
X449183Y481000D01*
X449662D01*
X449747Y480972D01*
D02*
G37*
G36*
X454906D02*
X454948Y480929D01*
X454963Y480887D01*
Y480859D01*
Y480493D01*
X454934Y480408D01*
X454892Y480366D01*
X454850Y480352D01*
X451988D01*
Y479886D01*
X452002Y479745D01*
X452044Y479618D01*
X452101Y479520D01*
X452157Y479421D01*
X452214Y479337D01*
X452270Y479280D01*
X452312Y479252D01*
X452326Y479238D01*
X454314Y477673D01*
X454427Y477575D01*
X454525Y477476D01*
X454680Y477250D01*
X454793Y477039D01*
X454864Y476827D01*
X454920Y476658D01*
X454934Y476503D01*
X454948Y476447D01*
Y476404D01*
Y476390D01*
Y476376D01*
Y475967D01*
X454934Y475714D01*
X454892Y475502D01*
X454822Y475319D01*
X454751Y475164D01*
X454680Y475037D01*
X454610Y474952D01*
X454568Y474896D01*
X454554Y474882D01*
X454399Y474755D01*
X454215Y474656D01*
X454032Y474586D01*
X453863Y474529D01*
X453694Y474501D01*
X453567Y474487D01*
X452651D01*
X452397Y474501D01*
X452185Y474544D01*
X451988Y474614D01*
X451833Y474685D01*
X451720Y474755D01*
X451622Y474826D01*
X451565Y474868D01*
X451551Y474882D01*
X451424Y475037D01*
X451325Y475206D01*
X451255Y475389D01*
X451213Y475573D01*
X451185Y475728D01*
X451156Y475855D01*
Y475939D01*
Y475953D01*
Y475967D01*
Y476390D01*
Y476447D01*
X451170Y476475D01*
X451227Y476531D01*
X451269Y476545D01*
X451734D01*
X451791Y476531D01*
X451819Y476517D01*
X451875Y476461D01*
X451889Y476418D01*
Y476390D01*
Y475967D01*
X451903Y475812D01*
X451932Y475686D01*
X451974Y475573D01*
X452016Y475474D01*
X452087Y475389D01*
X452157Y475319D01*
X452312Y475220D01*
X452467Y475150D01*
X452608Y475122D01*
X452651Y475107D01*
X453355D01*
X453511Y475122D01*
X453637Y475150D01*
X453764Y475192D01*
X453863Y475234D01*
X453947Y475305D01*
X454018Y475375D01*
X454117Y475530D01*
X454187Y475700D01*
X454215Y475826D01*
X454229Y475883D01*
Y475925D01*
Y475953D01*
Y475967D01*
Y476334D01*
X454201Y476545D01*
X454145Y476729D01*
X454074Y476898D01*
X453976Y477025D01*
X453877Y477137D01*
X453806Y477222D01*
X453750Y477278D01*
X453722Y477293D01*
X451762Y478829D01*
X451579Y478998D01*
X451438Y479196D01*
X451339Y479379D01*
X451269Y479562D01*
X451227Y479717D01*
X451213Y479844D01*
X451199Y479929D01*
Y479943D01*
Y479957D01*
Y480859D01*
X451227Y480944D01*
X451269Y480986D01*
X451311Y481000D01*
X454822D01*
X454906Y480972D01*
D02*
G37*
G36*
X503322Y532265D02*
X503448Y532222D01*
X503505Y532194D01*
X503547Y532180D01*
X503575Y532152D01*
X503589D01*
X504506Y531574D01*
X504562Y531546D01*
X504590Y531503D01*
X504647Y531419D01*
X504661Y531348D01*
Y531334D01*
Y531320D01*
Y530488D01*
X504647Y530418D01*
X504633Y530376D01*
X504590Y530347D01*
X504478D01*
X504463Y530362D01*
X504449D01*
X503448Y530925D01*
Y525992D01*
X503434Y525921D01*
X503420Y525865D01*
X503378Y525836D01*
X503336Y525808D01*
X503265Y525780D01*
X502363D01*
X502293Y525794D01*
X502236Y525808D01*
X502222Y525822D01*
X502208D01*
X502180Y525865D01*
X502166Y525921D01*
Y525977D01*
Y525992D01*
Y532081D01*
X502180Y532152D01*
X502194Y532208D01*
X502236Y532236D01*
X502264Y532265D01*
X502349Y532293D01*
X503195D01*
X503322Y532265D01*
D02*
G37*
G36*
X499938D02*
X500065Y532222D01*
X500122Y532194D01*
X500164Y532180D01*
X500192Y532152D01*
X500206D01*
X501122Y531574D01*
X501179Y531546D01*
X501207Y531503D01*
X501263Y531419D01*
X501278Y531348D01*
Y531334D01*
Y531320D01*
Y530488D01*
X501263Y530418D01*
X501249Y530376D01*
X501207Y530347D01*
X501094D01*
X501080Y530362D01*
X501066D01*
X500065Y530925D01*
Y525992D01*
X500051Y525921D01*
X500037Y525865D01*
X499995Y525836D01*
X499952Y525808D01*
X499882Y525780D01*
X498980D01*
X498909Y525794D01*
X498853Y525808D01*
X498839Y525822D01*
X498825D01*
X498796Y525865D01*
X498782Y525921D01*
Y525977D01*
Y525992D01*
Y532081D01*
X498796Y532152D01*
X498811Y532208D01*
X498853Y532236D01*
X498881Y532265D01*
X498966Y532293D01*
X499811D01*
X499938Y532265D01*
D02*
G37*
G36*
X508396Y532279D02*
X508650Y532222D01*
X508862Y532166D01*
X509031Y532081D01*
X509172Y532011D01*
X509271Y531940D01*
X509341Y531884D01*
X509355Y531870D01*
X509496Y531701D01*
X509609Y531503D01*
X509679Y531292D01*
X509736Y531095D01*
X509764Y530925D01*
X509778Y530770D01*
X509792Y530714D01*
Y530686D01*
Y530658D01*
Y530644D01*
Y527429D01*
X509778Y527147D01*
X509722Y526894D01*
X509651Y526682D01*
X509566Y526513D01*
X509496Y526386D01*
X509426Y526287D01*
X509369Y526217D01*
X509355Y526203D01*
X509172Y526062D01*
X508974Y525963D01*
X508777Y525879D01*
X508566Y525836D01*
X508396Y525808D01*
X508241Y525794D01*
X508185Y525780D01*
X507015D01*
X506733Y525794D01*
X506479Y525850D01*
X506268Y525921D01*
X506099Y525992D01*
X505958Y526076D01*
X505859Y526132D01*
X505788Y526189D01*
X505774Y526203D01*
X505634Y526386D01*
X505521Y526584D01*
X505450Y526781D01*
X505394Y526978D01*
X505366Y527161D01*
X505337Y527303D01*
Y527359D01*
Y527401D01*
Y527415D01*
Y527429D01*
Y527909D01*
X505351Y527979D01*
X505366Y528036D01*
X505408Y528078D01*
X505450Y528106D01*
X505521Y528134D01*
X506409D01*
X506479Y528120D01*
X506536Y528106D01*
X506564Y528064D01*
X506592Y528021D01*
X506620Y527951D01*
Y527923D01*
Y527909D01*
Y527486D01*
Y527373D01*
X506648Y527274D01*
X506663Y527190D01*
X506691Y527133D01*
X506719Y527077D01*
X506733Y527049D01*
X506761Y527035D01*
Y527020D01*
X506818Y526978D01*
X506888Y526950D01*
X507043Y526908D01*
X507114D01*
X507170Y526894D01*
X508030D01*
X508115Y526908D01*
X508199Y526936D01*
X508256Y526964D01*
X508312Y526978D01*
X508340Y527006D01*
X508368Y527020D01*
X508411Y527077D01*
X508439Y527147D01*
X508481Y527303D01*
Y527373D01*
X508495Y527429D01*
Y527472D01*
Y527486D01*
Y530587D01*
Y530700D01*
X508481Y530798D01*
X508453Y530869D01*
X508425Y530939D01*
X508411Y530982D01*
X508382Y531010D01*
X508368Y531038D01*
X508312Y531081D01*
X508241Y531123D01*
X508086Y531165D01*
X508016Y531179D01*
X507114D01*
X507015Y531151D01*
X506930Y531137D01*
X506874Y531109D01*
X506818Y531081D01*
X506789Y531066D01*
X506761Y531038D01*
X506719Y530982D01*
X506677Y530911D01*
X506634Y530770D01*
X506620Y530700D01*
Y530644D01*
Y530601D01*
Y530587D01*
Y530164D01*
X506606Y530094D01*
X506592Y530037D01*
X506550Y529995D01*
X506507Y529967D01*
X506437Y529939D01*
X505563D01*
X505493Y529953D01*
X505436Y529981D01*
X505394Y530009D01*
X505366Y530051D01*
X505337Y530136D01*
Y530150D01*
Y530164D01*
Y530644D01*
X505351Y530925D01*
X505408Y531165D01*
X505478Y531376D01*
X505549Y531546D01*
X505634Y531687D01*
X505704Y531771D01*
X505760Y531842D01*
X505774Y531856D01*
X505958Y531997D01*
X506155Y532110D01*
X506352Y532180D01*
X506564Y532236D01*
X506733Y532265D01*
X506888Y532293D01*
X508115D01*
X508396Y532279D01*
D02*
G37*
G36*
X526944Y532265D02*
X527070Y532222D01*
X527127Y532194D01*
X527169Y532180D01*
X527197Y532152D01*
X527211D01*
X528128Y531574D01*
X528184Y531546D01*
X528212Y531503D01*
X528269Y531419D01*
X528283Y531348D01*
Y531334D01*
Y531320D01*
Y530488D01*
X528269Y530418D01*
X528255Y530376D01*
X528212Y530347D01*
X528100D01*
X528085Y530362D01*
X528071D01*
X527070Y530925D01*
Y525992D01*
X527056Y525921D01*
X527042Y525865D01*
X527000Y525836D01*
X526958Y525808D01*
X526887Y525780D01*
X525985D01*
X525914Y525794D01*
X525858Y525808D01*
X525844Y525822D01*
X525830D01*
X525802Y525865D01*
X525788Y525921D01*
Y525977D01*
Y525992D01*
Y532081D01*
X525802Y532152D01*
X525816Y532208D01*
X525858Y532236D01*
X525886Y532265D01*
X525971Y532293D01*
X526817D01*
X526944Y532265D01*
D02*
G37*
G36*
X532019Y532279D02*
X532272Y532222D01*
X532484Y532166D01*
X532653Y532081D01*
X532794Y532011D01*
X532892Y531940D01*
X532963Y531884D01*
X532977Y531870D01*
X533118Y531701D01*
X533231Y531503D01*
X533301Y531292D01*
X533358Y531095D01*
X533386Y530925D01*
X533400Y530770D01*
X533414Y530714D01*
Y530686D01*
Y530658D01*
Y530644D01*
Y527429D01*
X533400Y527147D01*
X533344Y526894D01*
X533273Y526682D01*
X533189Y526513D01*
X533118Y526386D01*
X533048Y526287D01*
X532991Y526217D01*
X532977Y526203D01*
X532794Y526062D01*
X532597Y525963D01*
X532399Y525879D01*
X532188Y525836D01*
X532019Y525808D01*
X531863Y525794D01*
X531807Y525780D01*
X530637D01*
X530355Y525794D01*
X530101Y525850D01*
X529890Y525921D01*
X529721Y525992D01*
X529580Y526076D01*
X529481Y526132D01*
X529411Y526189D01*
X529397Y526203D01*
X529255Y526386D01*
X529143Y526584D01*
X529072Y526781D01*
X529016Y526978D01*
X528988Y527161D01*
X528959Y527303D01*
Y527359D01*
Y527401D01*
Y527415D01*
Y527429D01*
Y527909D01*
X528974Y527979D01*
X528988Y528036D01*
X529030Y528078D01*
X529072Y528106D01*
X529143Y528134D01*
X530031D01*
X530101Y528120D01*
X530158Y528106D01*
X530186Y528064D01*
X530214Y528021D01*
X530242Y527951D01*
Y527923D01*
Y527909D01*
Y527486D01*
Y527373D01*
X530271Y527274D01*
X530285Y527190D01*
X530313Y527133D01*
X530341Y527077D01*
X530355Y527049D01*
X530383Y527035D01*
Y527020D01*
X530440Y526978D01*
X530510Y526950D01*
X530665Y526908D01*
X530736D01*
X530792Y526894D01*
X531652D01*
X531737Y526908D01*
X531821Y526936D01*
X531878Y526964D01*
X531934Y526978D01*
X531962Y527006D01*
X531990Y527020D01*
X532033Y527077D01*
X532061Y527147D01*
X532103Y527303D01*
Y527373D01*
X532117Y527429D01*
Y527472D01*
Y527486D01*
Y530587D01*
Y530700D01*
X532103Y530798D01*
X532075Y530869D01*
X532047Y530939D01*
X532033Y530982D01*
X532004Y531010D01*
X531990Y531038D01*
X531934Y531081D01*
X531863Y531123D01*
X531708Y531165D01*
X531638Y531179D01*
X530736D01*
X530637Y531151D01*
X530552Y531137D01*
X530496Y531109D01*
X530440Y531081D01*
X530411Y531066D01*
X530383Y531038D01*
X530341Y530982D01*
X530299Y530911D01*
X530256Y530770D01*
X530242Y530700D01*
Y530644D01*
Y530601D01*
Y530587D01*
Y530164D01*
X530228Y530094D01*
X530214Y530037D01*
X530172Y529995D01*
X530130Y529967D01*
X530059Y529939D01*
X529185D01*
X529114Y529953D01*
X529058Y529981D01*
X529016Y530009D01*
X528988Y530051D01*
X528959Y530136D01*
Y530150D01*
Y530164D01*
Y530644D01*
X528974Y530925D01*
X529030Y531165D01*
X529100Y531376D01*
X529171Y531546D01*
X529255Y531687D01*
X529326Y531771D01*
X529382Y531842D01*
X529397Y531856D01*
X529580Y531997D01*
X529777Y532110D01*
X529974Y532180D01*
X530186Y532236D01*
X530355Y532265D01*
X530510Y532293D01*
X531737D01*
X532019Y532279D01*
D02*
G37*
G36*
X523208D02*
X523447Y532222D01*
X523659Y532166D01*
X523828Y532081D01*
X523969Y532011D01*
X524068Y531940D01*
X524138Y531884D01*
X524152Y531870D01*
X524293Y531701D01*
X524406Y531503D01*
X524477Y531292D01*
X524533Y531095D01*
X524561Y530925D01*
X524575Y530770D01*
X524589Y530714D01*
Y530686D01*
Y530658D01*
Y530644D01*
Y527429D01*
X524575Y527147D01*
X524519Y526894D01*
X524448Y526682D01*
X524364Y526513D01*
X524293Y526386D01*
X524223Y526287D01*
X524166Y526217D01*
X524152Y526203D01*
X523969Y526062D01*
X523772Y525963D01*
X523574Y525879D01*
X523377Y525836D01*
X523194Y525808D01*
X523053Y525794D01*
X522996Y525780D01*
X521911D01*
X521629Y525794D01*
X521375Y525850D01*
X521164Y525921D01*
X520995Y525992D01*
X520854Y526076D01*
X520755Y526132D01*
X520685Y526189D01*
X520670Y526203D01*
X520529Y526386D01*
X520417Y526584D01*
X520346Y526781D01*
X520290Y526978D01*
X520262Y527161D01*
X520233Y527303D01*
Y527359D01*
Y527401D01*
Y527415D01*
Y527429D01*
Y530644D01*
X520247Y530925D01*
X520304Y531165D01*
X520374Y531376D01*
X520445Y531546D01*
X520529Y531687D01*
X520600Y531771D01*
X520656Y531842D01*
X520670Y531856D01*
X520854Y531997D01*
X521051Y532110D01*
X521248Y532180D01*
X521460Y532236D01*
X521629Y532265D01*
X521784Y532293D01*
X522926D01*
X523208Y532279D01*
D02*
G37*
G36*
X555387D02*
X555640Y532222D01*
X555852Y532166D01*
X556021Y532081D01*
X556162Y532011D01*
X556260Y531940D01*
X556331Y531884D01*
X556345Y531870D01*
X556486Y531701D01*
X556599Y531503D01*
X556669Y531292D01*
X556726Y531095D01*
X556754Y530925D01*
X556768Y530770D01*
X556782Y530714D01*
Y530686D01*
Y530658D01*
Y530644D01*
Y527429D01*
X556768Y527147D01*
X556712Y526894D01*
X556641Y526682D01*
X556557Y526513D01*
X556486Y526386D01*
X556416Y526287D01*
X556359Y526217D01*
X556345Y526203D01*
X556162Y526062D01*
X555965Y525963D01*
X555767Y525879D01*
X555556Y525836D01*
X555387Y525808D01*
X555231Y525794D01*
X555175Y525780D01*
X554005D01*
X553723Y525794D01*
X553469Y525850D01*
X553258Y525921D01*
X553089Y525992D01*
X552948Y526076D01*
X552849Y526132D01*
X552779Y526189D01*
X552765Y526203D01*
X552623Y526386D01*
X552511Y526584D01*
X552440Y526781D01*
X552384Y526978D01*
X552356Y527161D01*
X552327Y527303D01*
Y527359D01*
Y527401D01*
Y527415D01*
Y527429D01*
Y527909D01*
X552341Y527979D01*
X552356Y528036D01*
X552398Y528078D01*
X552440Y528106D01*
X552511Y528134D01*
X553399D01*
X553469Y528120D01*
X553526Y528106D01*
X553554Y528064D01*
X553582Y528021D01*
X553610Y527951D01*
Y527923D01*
Y527909D01*
Y527486D01*
Y527373D01*
X553638Y527274D01*
X553653Y527190D01*
X553681Y527133D01*
X553709Y527077D01*
X553723Y527049D01*
X553751Y527035D01*
Y527020D01*
X553808Y526978D01*
X553878Y526950D01*
X554033Y526908D01*
X554104D01*
X554160Y526894D01*
X555020D01*
X555105Y526908D01*
X555189Y526936D01*
X555246Y526964D01*
X555302Y526978D01*
X555330Y527006D01*
X555358Y527020D01*
X555401Y527077D01*
X555429Y527147D01*
X555471Y527303D01*
Y527373D01*
X555485Y527429D01*
Y527472D01*
Y527486D01*
Y530587D01*
Y530700D01*
X555471Y530798D01*
X555443Y530869D01*
X555415Y530939D01*
X555401Y530982D01*
X555372Y531010D01*
X555358Y531038D01*
X555302Y531081D01*
X555231Y531123D01*
X555076Y531165D01*
X555006Y531179D01*
X554104D01*
X554005Y531151D01*
X553920Y531137D01*
X553864Y531109D01*
X553808Y531081D01*
X553779Y531066D01*
X553751Y531038D01*
X553709Y530982D01*
X553667Y530911D01*
X553624Y530770D01*
X553610Y530700D01*
Y530644D01*
Y530601D01*
Y530587D01*
Y530164D01*
X553596Y530094D01*
X553582Y530037D01*
X553540Y529995D01*
X553498Y529967D01*
X553427Y529939D01*
X552553D01*
X552482Y529953D01*
X552426Y529981D01*
X552384Y530009D01*
X552356Y530051D01*
X552327Y530136D01*
Y530150D01*
Y530164D01*
Y530644D01*
X552341Y530925D01*
X552398Y531165D01*
X552468Y531376D01*
X552539Y531546D01*
X552623Y531687D01*
X552694Y531771D01*
X552750Y531842D01*
X552765Y531856D01*
X552948Y531997D01*
X553145Y532110D01*
X553342Y532180D01*
X553554Y532236D01*
X553723Y532265D01*
X553878Y532293D01*
X555105D01*
X555387Y532279D01*
D02*
G37*
G36*
X550058D02*
X550312Y532222D01*
X550523Y532166D01*
X550692Y532081D01*
X550833Y532011D01*
X550932Y531940D01*
X551002Y531884D01*
X551016Y531870D01*
X551157Y531701D01*
X551270Y531503D01*
X551341Y531292D01*
X551397Y531095D01*
X551425Y530925D01*
X551439Y530770D01*
X551453Y530714D01*
Y530686D01*
Y530658D01*
Y530644D01*
Y529741D01*
X551439Y529459D01*
X551383Y529220D01*
X551312Y529008D01*
X551228Y528839D01*
X551157Y528698D01*
X551087Y528599D01*
X551031Y528529D01*
X551016Y528515D01*
X550833Y528374D01*
X550636Y528275D01*
X550438Y528191D01*
X550227Y528148D01*
X550058Y528120D01*
X549903Y528106D01*
X549846Y528092D01*
X548394D01*
Y527486D01*
Y527373D01*
X548423Y527274D01*
X548437Y527190D01*
X548465Y527133D01*
X548493Y527077D01*
X548507Y527049D01*
X548535Y527035D01*
Y527020D01*
X548592Y526978D01*
X548662Y526950D01*
X548803Y526908D01*
X548874D01*
X548930Y526894D01*
X550918D01*
X550988Y526880D01*
X551045Y526866D01*
X551087Y526823D01*
X551115Y526795D01*
X551143Y526710D01*
Y526696D01*
Y526682D01*
Y525992D01*
X551129Y525921D01*
X551101Y525865D01*
X551073Y525836D01*
X551031Y525808D01*
X550946Y525780D01*
X548775D01*
X548493Y525794D01*
X548239Y525850D01*
X548028Y525921D01*
X547859Y525992D01*
X547718Y526076D01*
X547619Y526132D01*
X547549Y526189D01*
X547534Y526203D01*
X547393Y526372D01*
X547281Y526569D01*
X547210Y526781D01*
X547154Y526978D01*
X547126Y527147D01*
X547098Y527303D01*
Y527359D01*
Y527401D01*
Y527415D01*
Y527429D01*
Y530644D01*
X547112Y530925D01*
X547168Y531179D01*
X547238Y531391D01*
X547309Y531560D01*
X547393Y531701D01*
X547464Y531785D01*
X547520Y531856D01*
X547534Y531870D01*
X547718Y532011D01*
X547915Y532110D01*
X548112Y532194D01*
X548324Y532236D01*
X548493Y532265D01*
X548648Y532293D01*
X549776D01*
X550058Y532279D01*
D02*
G37*
G36*
X579008D02*
X579262Y532222D01*
X579474Y532166D01*
X579643Y532081D01*
X579784Y532011D01*
X579883Y531940D01*
X579953Y531884D01*
X579967Y531870D01*
X580108Y531701D01*
X580221Y531503D01*
X580291Y531292D01*
X580348Y531095D01*
X580376Y530925D01*
X580390Y530770D01*
X580404Y530714D01*
Y530686D01*
Y530658D01*
Y530644D01*
Y527429D01*
X580390Y527147D01*
X580334Y526894D01*
X580263Y526682D01*
X580178Y526513D01*
X580108Y526386D01*
X580038Y526287D01*
X579981Y526217D01*
X579967Y526203D01*
X579784Y526062D01*
X579586Y525963D01*
X579389Y525879D01*
X579178Y525836D01*
X579008Y525808D01*
X578853Y525794D01*
X578797Y525780D01*
X577627D01*
X577345Y525794D01*
X577091Y525850D01*
X576880Y525921D01*
X576711Y525992D01*
X576570Y526076D01*
X576471Y526132D01*
X576400Y526189D01*
X576386Y526203D01*
X576245Y526386D01*
X576133Y526584D01*
X576062Y526781D01*
X576006Y526978D01*
X575978Y527161D01*
X575949Y527303D01*
Y527359D01*
Y527401D01*
Y527415D01*
Y527429D01*
Y527909D01*
X575964Y527979D01*
X575978Y528036D01*
X576020Y528078D01*
X576062Y528106D01*
X576133Y528134D01*
X577021D01*
X577091Y528120D01*
X577148Y528106D01*
X577176Y528064D01*
X577204Y528021D01*
X577232Y527951D01*
Y527923D01*
Y527909D01*
Y527486D01*
Y527373D01*
X577261Y527274D01*
X577275Y527190D01*
X577303Y527133D01*
X577331Y527077D01*
X577345Y527049D01*
X577373Y527035D01*
Y527020D01*
X577430Y526978D01*
X577500Y526950D01*
X577655Y526908D01*
X577726D01*
X577782Y526894D01*
X578642D01*
X578727Y526908D01*
X578811Y526936D01*
X578867Y526964D01*
X578924Y526978D01*
X578952Y527006D01*
X578980Y527020D01*
X579023Y527077D01*
X579051Y527147D01*
X579093Y527303D01*
Y527373D01*
X579107Y527429D01*
Y527472D01*
Y527486D01*
Y530587D01*
Y530700D01*
X579093Y530798D01*
X579065Y530869D01*
X579037Y530939D01*
X579023Y530982D01*
X578994Y531010D01*
X578980Y531038D01*
X578924Y531081D01*
X578853Y531123D01*
X578698Y531165D01*
X578628Y531179D01*
X577726D01*
X577627Y531151D01*
X577542Y531137D01*
X577486Y531109D01*
X577430Y531081D01*
X577401Y531066D01*
X577373Y531038D01*
X577331Y530982D01*
X577289Y530911D01*
X577246Y530770D01*
X577232Y530700D01*
Y530644D01*
Y530601D01*
Y530587D01*
Y530164D01*
X577218Y530094D01*
X577204Y530037D01*
X577162Y529995D01*
X577119Y529967D01*
X577049Y529939D01*
X576175D01*
X576105Y529953D01*
X576048Y529981D01*
X576006Y530009D01*
X575978Y530051D01*
X575949Y530136D01*
Y530150D01*
Y530164D01*
Y530644D01*
X575964Y530925D01*
X576020Y531165D01*
X576090Y531376D01*
X576161Y531546D01*
X576245Y531687D01*
X576316Y531771D01*
X576372Y531842D01*
X576386Y531856D01*
X576570Y531997D01*
X576767Y532110D01*
X576964Y532180D01*
X577176Y532236D01*
X577345Y532265D01*
X577500Y532293D01*
X578727D01*
X579008Y532279D01*
D02*
G37*
G36*
X573581D02*
X573835Y532236D01*
X574046Y532166D01*
X574216Y532095D01*
X574356Y532025D01*
X574455Y531954D01*
X574526Y531912D01*
X574540Y531898D01*
X574681Y531729D01*
X574779Y531546D01*
X574864Y531348D01*
X574906Y531165D01*
X574935Y530996D01*
X574949Y530855D01*
X574963Y530798D01*
Y530756D01*
Y530742D01*
Y530728D01*
Y530291D01*
X574949Y530122D01*
X574935Y529967D01*
X574906Y529826D01*
X574864Y529699D01*
X574751Y529473D01*
X574624Y529318D01*
X574512Y529192D01*
X574399Y529107D01*
X574328Y529065D01*
X574300Y529050D01*
X574413Y528994D01*
X574512Y528909D01*
X574681Y528740D01*
X574794Y528529D01*
X574878Y528332D01*
X574920Y528134D01*
X574949Y527979D01*
X574963Y527909D01*
Y527866D01*
Y527838D01*
Y527824D01*
Y527359D01*
X574949Y527077D01*
X574892Y526837D01*
X574822Y526640D01*
X574751Y526471D01*
X574667Y526344D01*
X574610Y526245D01*
X574554Y526189D01*
X574540Y526175D01*
X574356Y526048D01*
X574159Y525949D01*
X573962Y525879D01*
X573750Y525836D01*
X573581Y525808D01*
X573426Y525780D01*
X572214D01*
X571932Y525794D01*
X571678Y525836D01*
X571467Y525907D01*
X571297Y525977D01*
X571157Y526048D01*
X571072Y526118D01*
X571001Y526161D01*
X570987Y526175D01*
X570846Y526344D01*
X570734Y526527D01*
X570663Y526725D01*
X570607Y526922D01*
X570578Y527091D01*
X570550Y527232D01*
Y527288D01*
Y527331D01*
Y527345D01*
Y527359D01*
Y527810D01*
Y527979D01*
X570578Y528148D01*
X570607Y528289D01*
X570649Y528416D01*
X570762Y528628D01*
X570874Y528797D01*
X571001Y528909D01*
X571114Y528994D01*
X571185Y529036D01*
X571199Y529050D01*
X571213D01*
X571100Y529093D01*
X571016Y529163D01*
X570860Y529304D01*
X570804Y529361D01*
X570762Y529417D01*
X570748Y529459D01*
X570734Y529473D01*
X570677Y529600D01*
X570621Y529741D01*
X570593Y529882D01*
X570578Y530009D01*
X570564Y530122D01*
X570550Y530206D01*
Y530277D01*
Y530291D01*
Y530728D01*
X570564Y530996D01*
X570621Y531236D01*
X570691Y531433D01*
X570762Y531602D01*
X570846Y531729D01*
X570917Y531828D01*
X570973Y531884D01*
X570987Y531898D01*
X571157Y532025D01*
X571354Y532124D01*
X571565Y532194D01*
X571763Y532251D01*
X571932Y532279D01*
X572087Y532293D01*
X573299D01*
X573581Y532279D01*
D02*
G37*
G36*
X413400Y582317D02*
X413654Y582260D01*
X413866Y582204D01*
X414035Y582119D01*
X414176Y582049D01*
X414274Y581978D01*
X414345Y581922D01*
X414359Y581908D01*
X414500Y581739D01*
X414613Y581541D01*
X414683Y581330D01*
X414740Y581133D01*
X414768Y580963D01*
X414782Y580808D01*
X414796Y580752D01*
Y580724D01*
Y580696D01*
Y580681D01*
Y577467D01*
X414782Y577185D01*
X414726Y576932D01*
X414655Y576720D01*
X414571Y576551D01*
X414500Y576424D01*
X414430Y576325D01*
X414373Y576255D01*
X414359Y576241D01*
X414176Y576100D01*
X413979Y576001D01*
X413781Y575917D01*
X413570Y575874D01*
X413400Y575846D01*
X413245Y575832D01*
X413189Y575818D01*
X412019D01*
X411737Y575832D01*
X411483Y575888D01*
X411272Y575959D01*
X411103Y576030D01*
X410962Y576114D01*
X410863Y576170D01*
X410793Y576227D01*
X410779Y576241D01*
X410638Y576424D01*
X410525Y576622D01*
X410454Y576819D01*
X410398Y577016D01*
X410370Y577200D01*
X410341Y577341D01*
Y577397D01*
Y577439D01*
Y577453D01*
Y577467D01*
Y577947D01*
X410355Y578017D01*
X410370Y578074D01*
X410412Y578116D01*
X410454Y578144D01*
X410525Y578172D01*
X411413D01*
X411483Y578158D01*
X411540Y578144D01*
X411568Y578102D01*
X411596Y578059D01*
X411624Y577989D01*
Y577961D01*
Y577947D01*
Y577524D01*
Y577411D01*
X411652Y577312D01*
X411667Y577228D01*
X411695Y577171D01*
X411723Y577115D01*
X411737Y577087D01*
X411765Y577073D01*
Y577058D01*
X411822Y577016D01*
X411892Y576988D01*
X412047Y576946D01*
X412118D01*
X412174Y576932D01*
X413034D01*
X413119Y576946D01*
X413203Y576974D01*
X413260Y577002D01*
X413316Y577016D01*
X413344Y577044D01*
X413372Y577058D01*
X413415Y577115D01*
X413443Y577185D01*
X413485Y577341D01*
Y577411D01*
X413499Y577467D01*
Y577510D01*
Y577524D01*
Y580625D01*
Y580738D01*
X413485Y580836D01*
X413457Y580907D01*
X413429Y580978D01*
X413415Y581020D01*
X413386Y581048D01*
X413372Y581076D01*
X413316Y581119D01*
X413245Y581161D01*
X413090Y581203D01*
X413020Y581217D01*
X412118D01*
X412019Y581189D01*
X411934Y581175D01*
X411878Y581147D01*
X411822Y581119D01*
X411793Y581104D01*
X411765Y581076D01*
X411723Y581020D01*
X411681Y580949D01*
X411638Y580808D01*
X411624Y580738D01*
Y580681D01*
Y580639D01*
Y580625D01*
Y580202D01*
X411610Y580132D01*
X411596Y580075D01*
X411554Y580033D01*
X411511Y580005D01*
X411441Y579977D01*
X410567D01*
X410496Y579991D01*
X410440Y580019D01*
X410398Y580047D01*
X410370Y580089D01*
X410341Y580174D01*
Y580188D01*
Y580202D01*
Y580681D01*
X410355Y580963D01*
X410412Y581203D01*
X410482Y581414D01*
X410553Y581584D01*
X410638Y581725D01*
X410708Y581809D01*
X410764Y581880D01*
X410779Y581894D01*
X410962Y582035D01*
X411159Y582148D01*
X411356Y582218D01*
X411568Y582274D01*
X411737Y582303D01*
X411892Y582331D01*
X413119D01*
X413400Y582317D01*
D02*
G37*
G36*
X409566D02*
X409622Y582303D01*
X409651Y582260D01*
X409679Y582232D01*
X409707Y582148D01*
Y582133D01*
Y582119D01*
Y581372D01*
X409693Y581302D01*
X409679Y581245D01*
X409637Y581217D01*
X409594Y581189D01*
X409524Y581161D01*
X407099D01*
X409242Y576030D01*
X409270Y575959D01*
Y575903D01*
Y575874D01*
Y575860D01*
X409228Y575832D01*
X409185Y575818D01*
X408185D01*
X408086Y575832D01*
X408015Y575846D01*
X407959Y575874D01*
X407903Y575917D01*
X407846Y575973D01*
X407832Y575987D01*
Y576001D01*
X405873Y580724D01*
X405788Y580949D01*
X405760Y581048D01*
X405746Y581133D01*
X405732Y581189D01*
Y581231D01*
Y581259D01*
Y581273D01*
Y582119D01*
X405746Y582190D01*
X405760Y582246D01*
X405802Y582274D01*
X405830Y582303D01*
X405915Y582331D01*
X409496D01*
X409566Y582317D01*
D02*
G37*
G36*
X437023D02*
X437276Y582260D01*
X437488Y582204D01*
X437657Y582119D01*
X437798Y582049D01*
X437896Y581978D01*
X437967Y581922D01*
X437981Y581908D01*
X438122Y581739D01*
X438235Y581541D01*
X438305Y581330D01*
X438362Y581133D01*
X438390Y580963D01*
X438404Y580808D01*
X438418Y580752D01*
Y580724D01*
Y580696D01*
Y580681D01*
Y577467D01*
X438404Y577185D01*
X438348Y576932D01*
X438277Y576720D01*
X438192Y576551D01*
X438122Y576424D01*
X438052Y576325D01*
X437995Y576255D01*
X437981Y576241D01*
X437798Y576100D01*
X437601Y576001D01*
X437403Y575917D01*
X437192Y575874D01*
X437023Y575846D01*
X436867Y575832D01*
X436811Y575818D01*
X435641D01*
X435359Y575832D01*
X435105Y575888D01*
X434894Y575959D01*
X434725Y576030D01*
X434584Y576114D01*
X434485Y576170D01*
X434414Y576227D01*
X434400Y576241D01*
X434259Y576424D01*
X434147Y576622D01*
X434076Y576819D01*
X434020Y577016D01*
X433992Y577200D01*
X433963Y577341D01*
Y577397D01*
Y577439D01*
Y577453D01*
Y577467D01*
Y577947D01*
X433978Y578017D01*
X433992Y578074D01*
X434034Y578116D01*
X434076Y578144D01*
X434147Y578172D01*
X435035D01*
X435105Y578158D01*
X435162Y578144D01*
X435190Y578102D01*
X435218Y578059D01*
X435246Y577989D01*
Y577961D01*
Y577947D01*
Y577524D01*
Y577411D01*
X435275Y577312D01*
X435289Y577228D01*
X435317Y577171D01*
X435345Y577115D01*
X435359Y577087D01*
X435387Y577073D01*
Y577058D01*
X435444Y577016D01*
X435514Y576988D01*
X435669Y576946D01*
X435740D01*
X435796Y576932D01*
X436656D01*
X436741Y576946D01*
X436825Y576974D01*
X436881Y577002D01*
X436938Y577016D01*
X436966Y577044D01*
X436994Y577058D01*
X437037Y577115D01*
X437065Y577185D01*
X437107Y577341D01*
Y577411D01*
X437121Y577467D01*
Y577510D01*
Y577524D01*
Y580625D01*
Y580738D01*
X437107Y580836D01*
X437079Y580907D01*
X437051Y580978D01*
X437037Y581020D01*
X437008Y581048D01*
X436994Y581076D01*
X436938Y581119D01*
X436867Y581161D01*
X436712Y581203D01*
X436642Y581217D01*
X435740D01*
X435641Y581189D01*
X435556Y581175D01*
X435500Y581147D01*
X435444Y581119D01*
X435415Y581104D01*
X435387Y581076D01*
X435345Y581020D01*
X435303Y580949D01*
X435260Y580808D01*
X435246Y580738D01*
Y580681D01*
Y580639D01*
Y580625D01*
Y580202D01*
X435232Y580132D01*
X435218Y580075D01*
X435176Y580033D01*
X435134Y580005D01*
X435063Y579977D01*
X434189D01*
X434118Y579991D01*
X434062Y580019D01*
X434020Y580047D01*
X433992Y580089D01*
X433963Y580174D01*
Y580188D01*
Y580202D01*
Y580681D01*
X433978Y580963D01*
X434034Y581203D01*
X434104Y581414D01*
X434175Y581584D01*
X434259Y581725D01*
X434330Y581809D01*
X434386Y581880D01*
X434400Y581894D01*
X434584Y582035D01*
X434781Y582148D01*
X434978Y582218D01*
X435190Y582274D01*
X435359Y582303D01*
X435514Y582331D01*
X436741D01*
X437023Y582317D01*
D02*
G37*
G36*
X431595D02*
X431849Y582260D01*
X432060Y582204D01*
X432229Y582119D01*
X432370Y582049D01*
X432469Y581978D01*
X432540Y581922D01*
X432554Y581908D01*
X432695Y581739D01*
X432808Y581541D01*
X432878Y581330D01*
X432934Y581133D01*
X432963Y580963D01*
X432977Y580808D01*
X432991Y580752D01*
Y580724D01*
Y580696D01*
Y580681D01*
Y577467D01*
X432977Y577185D01*
X432920Y576932D01*
X432850Y576720D01*
X432765Y576551D01*
X432695Y576424D01*
X432624Y576325D01*
X432568Y576255D01*
X432554Y576241D01*
X432370Y576100D01*
X432173Y576001D01*
X431976Y575917D01*
X431764Y575874D01*
X431595Y575846D01*
X431440Y575832D01*
X431384Y575818D01*
X430326D01*
X430045Y575832D01*
X429791Y575888D01*
X429579Y575959D01*
X429410Y576030D01*
X429269Y576114D01*
X429170Y576170D01*
X429100Y576227D01*
X429086Y576241D01*
X428945Y576410D01*
X428832Y576607D01*
X428762Y576819D01*
X428705Y577016D01*
X428677Y577185D01*
X428649Y577341D01*
Y577397D01*
Y577439D01*
Y577453D01*
Y577467D01*
Y578285D01*
X428663Y578567D01*
X428719Y578821D01*
X428790Y579032D01*
X428860Y579201D01*
X428945Y579342D01*
X429015Y579427D01*
X429072Y579497D01*
X429086Y579511D01*
X429269Y579652D01*
X429467Y579765D01*
X429664Y579836D01*
X429875Y579892D01*
X430045Y579920D01*
X430200Y579948D01*
X431708D01*
Y580625D01*
Y580738D01*
X431680Y580836D01*
X431666Y580907D01*
X431637Y580978D01*
X431609Y581020D01*
X431595Y581048D01*
X431567Y581076D01*
X431511Y581119D01*
X431440Y581161D01*
X431285Y581203D01*
X431214Y581217D01*
X429241D01*
X429170Y581231D01*
X429114Y581245D01*
X429086Y581288D01*
X429058Y581330D01*
X429030Y581400D01*
Y581414D01*
Y581429D01*
Y582119D01*
X429044Y582190D01*
X429058Y582246D01*
X429100Y582274D01*
X429128Y582303D01*
X429213Y582331D01*
X431313D01*
X431595Y582317D01*
D02*
G37*
G36*
X471418Y432249D02*
X471474Y432235D01*
X471516Y432192D01*
X471544Y432164D01*
X471573Y432080D01*
Y432066D01*
Y432051D01*
Y428837D01*
X471558Y428767D01*
X471530Y428725D01*
X471460Y428668D01*
X471375Y428640D01*
X470515D01*
X470459Y428654D01*
X470403Y428668D01*
X470304Y428753D01*
X470247Y428823D01*
X470219Y428837D01*
Y428851D01*
X470163Y428922D01*
X470093Y428978D01*
X470036Y429006D01*
X469966Y429035D01*
X469909Y429049D01*
X469867Y429063D01*
X469218D01*
X469106Y429035D01*
X469007Y429021D01*
X468937Y428992D01*
X468894Y428964D01*
X468852Y428936D01*
X468824Y428922D01*
Y428908D01*
X468767Y428837D01*
X468739Y428753D01*
X468683Y428555D01*
Y428457D01*
X468669Y428386D01*
Y428330D01*
Y428316D01*
Y427413D01*
Y427301D01*
X468697Y427202D01*
X468711Y427117D01*
X468739Y427061D01*
X468767Y427005D01*
X468796Y426976D01*
X468810Y426962D01*
X468824Y426948D01*
X468894Y426906D01*
X468965Y426878D01*
X469120Y426836D01*
X469190D01*
X469247Y426821D01*
X469895D01*
X469980Y426836D01*
X470064Y426864D01*
X470121Y426892D01*
X470177Y426906D01*
X470205Y426934D01*
X470233Y426948D01*
X470276Y427005D01*
X470318Y427075D01*
X470360Y427230D01*
Y427301D01*
X470374Y427357D01*
Y427399D01*
Y427413D01*
Y427597D01*
X470388Y427667D01*
X470403Y427724D01*
X470445Y427766D01*
X470473Y427794D01*
X470558Y427822D01*
X471446D01*
X471516Y427808D01*
X471573Y427794D01*
X471601Y427752D01*
X471629Y427710D01*
X471657Y427639D01*
Y427611D01*
Y427597D01*
Y427399D01*
X471643Y427117D01*
X471587Y426864D01*
X471516Y426652D01*
X471432Y426483D01*
X471361Y426356D01*
X471291Y426258D01*
X471234Y426187D01*
X471220Y426173D01*
X471037Y426032D01*
X470840Y425933D01*
X470642Y425849D01*
X470431Y425806D01*
X470262Y425778D01*
X470107Y425764D01*
X470050Y425750D01*
X469092D01*
X468810Y425764D01*
X468570Y425821D01*
X468358Y425891D01*
X468175Y425961D01*
X468048Y426046D01*
X467950Y426102D01*
X467879Y426159D01*
X467865Y426173D01*
X467724Y426356D01*
X467611Y426553D01*
X467541Y426751D01*
X467485Y426948D01*
X467456Y427132D01*
X467428Y427272D01*
Y427329D01*
Y427371D01*
Y427385D01*
Y427399D01*
Y428513D01*
X467442Y428795D01*
X467499Y429035D01*
X467569Y429246D01*
X467668Y429429D01*
X467795Y429584D01*
X467921Y429711D01*
X468063Y429810D01*
X468204Y429894D01*
X468358Y429965D01*
X468499Y430007D01*
X468626Y430050D01*
X468753Y430064D01*
X468852Y430078D01*
X468922Y430092D01*
X469430D01*
X469655Y430064D01*
X469853Y430007D01*
X469994Y429937D01*
X470107Y429838D01*
X470191Y429739D01*
X470233Y429669D01*
X470262Y429613D01*
X470276Y429584D01*
Y431079D01*
X467823D01*
X467752Y431093D01*
X467696Y431107D01*
X467668Y431149D01*
X467640Y431191D01*
X467611Y431262D01*
Y431276D01*
Y431290D01*
Y432051D01*
X467626Y432122D01*
X467640Y432178D01*
X467682Y432206D01*
X467710Y432235D01*
X467795Y432263D01*
X471347D01*
X471418Y432249D01*
D02*
G37*
G36*
X475619D02*
X475872Y432192D01*
X476084Y432136D01*
X476253Y432051D01*
X476394Y431981D01*
X476493Y431910D01*
X476563Y431854D01*
X476577Y431840D01*
X476718Y431671D01*
X476831Y431473D01*
X476901Y431262D01*
X476958Y431065D01*
X476986Y430895D01*
X477000Y430740D01*
X477014Y430684D01*
Y430656D01*
Y430628D01*
Y430614D01*
Y427399D01*
X477000Y427117D01*
X476944Y426864D01*
X476873Y426652D01*
X476788Y426483D01*
X476718Y426356D01*
X476648Y426258D01*
X476591Y426187D01*
X476577Y426173D01*
X476394Y426032D01*
X476197Y425933D01*
X475999Y425849D01*
X475788Y425806D01*
X475619Y425778D01*
X475463Y425764D01*
X475407Y425750D01*
X474237D01*
X473955Y425764D01*
X473701Y425821D01*
X473490Y425891D01*
X473321Y425961D01*
X473180Y426046D01*
X473081Y426102D01*
X473010Y426159D01*
X472996Y426173D01*
X472855Y426356D01*
X472743Y426553D01*
X472672Y426751D01*
X472616Y426948D01*
X472588Y427132D01*
X472559Y427272D01*
Y427329D01*
Y427371D01*
Y427385D01*
Y427399D01*
Y427879D01*
X472574Y427949D01*
X472588Y428005D01*
X472630Y428048D01*
X472672Y428076D01*
X472743Y428104D01*
X473631D01*
X473701Y428090D01*
X473758Y428076D01*
X473786Y428034D01*
X473814Y427991D01*
X473842Y427921D01*
Y427893D01*
Y427879D01*
Y427456D01*
Y427343D01*
X473871Y427244D01*
X473885Y427160D01*
X473913Y427103D01*
X473941Y427047D01*
X473955Y427019D01*
X473983Y427005D01*
Y426991D01*
X474040Y426948D01*
X474110Y426920D01*
X474265Y426878D01*
X474336D01*
X474392Y426864D01*
X475252D01*
X475336Y426878D01*
X475421Y426906D01*
X475477Y426934D01*
X475534Y426948D01*
X475562Y426976D01*
X475590Y426991D01*
X475633Y427047D01*
X475661Y427117D01*
X475703Y427272D01*
Y427343D01*
X475717Y427399D01*
Y427442D01*
Y427456D01*
Y430557D01*
Y430670D01*
X475703Y430769D01*
X475675Y430839D01*
X475647Y430910D01*
X475633Y430952D01*
X475604Y430980D01*
X475590Y431008D01*
X475534Y431050D01*
X475463Y431093D01*
X475308Y431135D01*
X475238Y431149D01*
X474336D01*
X474237Y431121D01*
X474152Y431107D01*
X474096Y431079D01*
X474040Y431050D01*
X474011Y431036D01*
X473983Y431008D01*
X473941Y430952D01*
X473899Y430881D01*
X473856Y430740D01*
X473842Y430670D01*
Y430614D01*
Y430571D01*
Y430557D01*
Y430134D01*
X473828Y430064D01*
X473814Y430007D01*
X473772Y429965D01*
X473730Y429937D01*
X473659Y429909D01*
X472785D01*
X472715Y429923D01*
X472658Y429951D01*
X472616Y429979D01*
X472588Y430021D01*
X472559Y430106D01*
Y430120D01*
Y430134D01*
Y430614D01*
X472574Y430895D01*
X472630Y431135D01*
X472700Y431347D01*
X472771Y431516D01*
X472855Y431657D01*
X472926Y431741D01*
X472982Y431812D01*
X472996Y431826D01*
X473180Y431967D01*
X473377Y432080D01*
X473574Y432150D01*
X473786Y432206D01*
X473955Y432235D01*
X474110Y432263D01*
X475336D01*
X475619Y432249D01*
D02*
G37*
G36*
X456869Y431999D02*
X457122Y431942D01*
X457334Y431886D01*
X457503Y431801D01*
X457644Y431731D01*
X457743Y431660D01*
X457813Y431604D01*
X457827Y431590D01*
X457968Y431421D01*
X458081Y431223D01*
X458151Y431012D01*
X458208Y430815D01*
X458236Y430645D01*
X458250Y430490D01*
X458264Y430434D01*
Y430406D01*
Y430378D01*
Y430364D01*
Y427149D01*
X458250Y426867D01*
X458194Y426614D01*
X458123Y426402D01*
X458038Y426233D01*
X457968Y426106D01*
X457898Y426007D01*
X457841Y425937D01*
X457827Y425923D01*
X457644Y425782D01*
X457447Y425683D01*
X457249Y425599D01*
X457038Y425556D01*
X456869Y425528D01*
X456713Y425514D01*
X456657Y425500D01*
X455487D01*
X455205Y425514D01*
X454951Y425570D01*
X454740Y425641D01*
X454571Y425711D01*
X454430Y425796D01*
X454331Y425852D01*
X454260Y425909D01*
X454246Y425923D01*
X454105Y426106D01*
X453993Y426303D01*
X453922Y426501D01*
X453866Y426698D01*
X453838Y426881D01*
X453809Y427023D01*
Y427079D01*
Y427121D01*
Y427135D01*
Y427149D01*
Y427629D01*
X453824Y427699D01*
X453838Y427756D01*
X453880Y427798D01*
X453922Y427826D01*
X453993Y427854D01*
X454881D01*
X454951Y427840D01*
X455008Y427826D01*
X455036Y427784D01*
X455064Y427741D01*
X455092Y427671D01*
Y427643D01*
Y427629D01*
Y427206D01*
Y427093D01*
X455121Y426994D01*
X455135Y426910D01*
X455163Y426853D01*
X455191Y426797D01*
X455205Y426769D01*
X455233Y426755D01*
Y426740D01*
X455290Y426698D01*
X455360Y426670D01*
X455515Y426628D01*
X455586D01*
X455642Y426614D01*
X456502D01*
X456586Y426628D01*
X456671Y426656D01*
X456727Y426684D01*
X456784Y426698D01*
X456812Y426726D01*
X456840Y426740D01*
X456883Y426797D01*
X456911Y426867D01*
X456953Y427023D01*
Y427093D01*
X456967Y427149D01*
Y427192D01*
Y427206D01*
Y430307D01*
Y430420D01*
X456953Y430518D01*
X456925Y430589D01*
X456897Y430659D01*
X456883Y430702D01*
X456854Y430730D01*
X456840Y430758D01*
X456784Y430801D01*
X456713Y430843D01*
X456558Y430885D01*
X456488Y430899D01*
X455586D01*
X455487Y430871D01*
X455402Y430857D01*
X455346Y430829D01*
X455290Y430801D01*
X455261Y430786D01*
X455233Y430758D01*
X455191Y430702D01*
X455149Y430631D01*
X455106Y430490D01*
X455092Y430420D01*
Y430364D01*
Y430321D01*
Y430307D01*
Y429884D01*
X455078Y429814D01*
X455064Y429757D01*
X455022Y429715D01*
X454980Y429687D01*
X454909Y429659D01*
X454035D01*
X453965Y429673D01*
X453908Y429701D01*
X453866Y429729D01*
X453838Y429771D01*
X453809Y429856D01*
Y429870D01*
Y429884D01*
Y430364D01*
X453824Y430645D01*
X453880Y430885D01*
X453950Y431096D01*
X454021Y431266D01*
X454105Y431407D01*
X454176Y431491D01*
X454232Y431562D01*
X454246Y431576D01*
X454430Y431717D01*
X454627Y431829D01*
X454824Y431900D01*
X455036Y431956D01*
X455205Y431985D01*
X455360Y432013D01*
X456586D01*
X456869Y431999D01*
D02*
G37*
G36*
X450581D02*
X450652Y431985D01*
X450708Y431956D01*
X450722Y431942D01*
X450793Y431886D01*
X450849Y431801D01*
X450891Y431731D01*
X450905Y431717D01*
Y431703D01*
X452935Y427953D01*
X452992Y427798D01*
X453020Y427629D01*
X453034Y427558D01*
Y427502D01*
Y427459D01*
Y427445D01*
Y427051D01*
X453020Y426938D01*
X452978Y426853D01*
X452949Y426797D01*
X452935Y426783D01*
X452837Y426726D01*
X452752Y426698D01*
X452682Y426684D01*
X450144D01*
Y425711D01*
X450130Y425641D01*
X450102Y425585D01*
X450074Y425556D01*
X450031Y425528D01*
X449947Y425500D01*
X449129D01*
X449059Y425514D01*
X449002Y425528D01*
X448988Y425542D01*
X448974D01*
X448946Y425585D01*
X448932Y425641D01*
Y425697D01*
Y425711D01*
Y426684D01*
X448199D01*
X448128Y426698D01*
X448086Y426726D01*
X448030Y426797D01*
X448002Y426881D01*
Y426896D01*
Y426910D01*
Y427600D01*
X448016Y427671D01*
X448030Y427713D01*
X448100Y427770D01*
X448171Y427798D01*
X448932D01*
Y431646D01*
X448946Y431759D01*
X448988Y431844D01*
X449030Y431900D01*
X449045Y431914D01*
X449129Y431970D01*
X449214Y431999D01*
X449284Y432013D01*
X450468D01*
X450581Y431999D01*
D02*
G37*
%LPC*%
G36*
X312116Y631919D02*
X311002D01*
X310904Y631891D01*
X310819Y631877D01*
X310749Y631849D01*
X310706Y631820D01*
X310664Y631806D01*
X310636Y631778D01*
X310579Y631722D01*
X310551Y631651D01*
X310495Y631496D01*
Y631440D01*
X310481Y631384D01*
Y631341D01*
Y631327D01*
Y630538D01*
Y630425D01*
X310509Y630340D01*
X310523Y630256D01*
X310551Y630199D01*
X310579Y630143D01*
X310608Y630115D01*
X310622Y630101D01*
X310636Y630087D01*
X310706Y630044D01*
X310777Y630016D01*
X310932Y629974D01*
X311002D01*
X311059Y629960D01*
X312102D01*
X312172Y629974D01*
X312201Y630016D01*
X312215Y630058D01*
Y630073D01*
Y631806D01*
X312201Y631877D01*
X312158Y631905D01*
X312116Y631919D01*
D02*
G37*
G36*
X337262D02*
X336148D01*
X336050Y631891D01*
X335965Y631877D01*
X335895Y631849D01*
X335852Y631820D01*
X335810Y631806D01*
X335782Y631778D01*
X335726Y631722D01*
X335697Y631651D01*
X335641Y631496D01*
Y631440D01*
X335627Y631384D01*
Y631341D01*
Y631327D01*
Y630538D01*
Y630425D01*
X335655Y630340D01*
X335669Y630256D01*
X335697Y630199D01*
X335726Y630143D01*
X335754Y630115D01*
X335768Y630101D01*
X335782Y630087D01*
X335852Y630044D01*
X335923Y630016D01*
X336078Y629974D01*
X336148D01*
X336205Y629960D01*
X337248D01*
X337318Y629974D01*
X337347Y630016D01*
X337361Y630058D01*
Y630073D01*
Y631806D01*
X337347Y631877D01*
X337304Y631905D01*
X337262Y631919D01*
D02*
G37*
G36*
X325533Y631947D02*
Y628818D01*
X327169D01*
X325533Y631947D01*
D02*
G37*
G36*
X287224Y631919D02*
X286110D01*
X286012Y631891D01*
X285927Y631877D01*
X285857Y631849D01*
X285814Y631820D01*
X285772Y631806D01*
X285744Y631778D01*
X285688Y631722D01*
X285659Y631651D01*
X285603Y631496D01*
Y631440D01*
X285589Y631384D01*
Y631341D01*
Y631327D01*
Y630538D01*
Y630425D01*
X285617Y630340D01*
X285631Y630256D01*
X285659Y630199D01*
X285688Y630143D01*
X285716Y630115D01*
X285730Y630101D01*
X285744Y630087D01*
X285814Y630044D01*
X285885Y630016D01*
X286040Y629974D01*
X286110D01*
X286167Y629960D01*
X287210D01*
X287280Y629974D01*
X287309Y630016D01*
X287323Y630058D01*
Y630073D01*
Y631806D01*
X287309Y631877D01*
X287266Y631905D01*
X287224Y631919D01*
D02*
G37*
G36*
X517286Y314263D02*
X516173D01*
X516074Y314235D01*
X515990Y314221D01*
X515919Y314193D01*
X515877Y314165D01*
X515835Y314150D01*
X515806Y314122D01*
X515750Y314066D01*
X515722Y313995D01*
X515665Y313840D01*
Y313784D01*
X515651Y313727D01*
Y313685D01*
Y313671D01*
Y312882D01*
Y312769D01*
X515679Y312684D01*
X515694Y312600D01*
X515722Y312543D01*
X515750Y312487D01*
X515778Y312459D01*
X515792Y312445D01*
X515806Y312430D01*
X515877Y312388D01*
X515947Y312360D01*
X516102Y312318D01*
X516173D01*
X516229Y312304D01*
X517272D01*
X517343Y312318D01*
X517371Y312360D01*
X517385Y312402D01*
Y312416D01*
Y314150D01*
X517371Y314221D01*
X517329Y314249D01*
X517286Y314263D01*
D02*
G37*
G36*
X301040Y345517D02*
X299926D01*
X299828Y345489D01*
X299743Y345475D01*
X299673Y345447D01*
X299630Y345419D01*
X299588Y345405D01*
X299560Y345376D01*
X299503Y345320D01*
X299475Y345249D01*
X299419Y345094D01*
Y345038D01*
X299405Y344982D01*
Y344939D01*
Y344925D01*
Y344136D01*
Y344023D01*
X299433Y343938D01*
X299447Y343854D01*
X299475Y343797D01*
X299503Y343741D01*
X299532Y343713D01*
X299546Y343699D01*
X299560Y343685D01*
X299630Y343642D01*
X299701Y343614D01*
X299856Y343572D01*
X299926D01*
X299983Y343558D01*
X301026D01*
X301096Y343572D01*
X301125Y343614D01*
X301139Y343657D01*
Y343671D01*
Y345405D01*
X301125Y345475D01*
X301082Y345503D01*
X301040Y345517D01*
D02*
G37*
G36*
X307962Y366367D02*
X307948D01*
X306214D01*
X306143Y366353D01*
X306115Y366311D01*
X306101Y366269D01*
Y365155D01*
X306129Y365056D01*
X306143Y364972D01*
X306171Y364901D01*
X306199Y364859D01*
X306214Y364817D01*
X306242Y364788D01*
X306298Y364732D01*
X306369Y364704D01*
X306524Y364647D01*
X306580D01*
X306637Y364633D01*
X306679D01*
X306693D01*
X307482D01*
X307595D01*
X307680Y364661D01*
X307764Y364675D01*
X307821Y364704D01*
X307877Y364732D01*
X307905Y364760D01*
X307919Y364774D01*
X307933Y364788D01*
X307976Y364859D01*
X308004Y364929D01*
X308046Y365084D01*
Y365155D01*
X308060Y365211D01*
Y366254D01*
X308046Y366325D01*
X308004Y366353D01*
X307962Y366367D01*
D02*
G37*
G36*
X309851Y355921D02*
X309808D01*
X309794D01*
X306693D01*
X306580D01*
X306481Y355907D01*
X306411Y355879D01*
X306341Y355851D01*
X306298Y355837D01*
X306270Y355808D01*
X306242Y355794D01*
X306199Y355738D01*
X306157Y355668D01*
X306115Y355513D01*
X306101Y355442D01*
Y354624D01*
X306129Y354526D01*
X306143Y354455D01*
X306171Y354385D01*
X306199Y354342D01*
X306214Y354314D01*
X306242Y354286D01*
X306298Y354244D01*
X306369Y354202D01*
X306510Y354159D01*
X306580Y354145D01*
X306637D01*
X306679D01*
X306693D01*
X309794D01*
X309907D01*
X310006Y354173D01*
X310090Y354187D01*
X310147Y354216D01*
X310203Y354244D01*
X310231Y354258D01*
X310245Y354286D01*
X310259D01*
X310302Y354342D01*
X310330Y354413D01*
X310372Y354554D01*
Y354624D01*
X310386Y354681D01*
Y355442D01*
X310372Y355541D01*
X310344Y355625D01*
X310316Y355682D01*
X310302Y355738D01*
X310273Y355766D01*
X310259Y355780D01*
Y355794D01*
X310203Y355837D01*
X310133Y355865D01*
X309977Y355907D01*
X309907D01*
X309851Y355921D01*
D02*
G37*
G36*
X483251Y581217D02*
X482137D01*
X482038Y581189D01*
X481954Y581175D01*
X481883Y581147D01*
X481841Y581119D01*
X481799Y581104D01*
X481770Y581076D01*
X481714Y581020D01*
X481686Y580949D01*
X481629Y580794D01*
Y580738D01*
X481615Y580681D01*
Y580639D01*
Y580625D01*
Y579836D01*
Y579723D01*
X481643Y579638D01*
X481657Y579554D01*
X481686Y579497D01*
X481714Y579441D01*
X481742Y579413D01*
X481756Y579399D01*
X481770Y579384D01*
X481841Y579342D01*
X481911Y579314D01*
X482066Y579272D01*
X482137D01*
X482193Y579258D01*
X483236D01*
X483307Y579272D01*
X483335Y579314D01*
X483349Y579356D01*
Y579370D01*
Y581104D01*
X483335Y581175D01*
X483293Y581203D01*
X483251Y581217D01*
D02*
G37*
G36*
X474073Y581231D02*
X473157D01*
X473058Y581203D01*
X472988Y581189D01*
X472917Y581161D01*
X472875Y581133D01*
X472847Y581119D01*
X472819Y581090D01*
X472776Y581034D01*
X472734Y580963D01*
X472692Y580822D01*
X472678Y580752D01*
Y580710D01*
Y580667D01*
Y580653D01*
Y580230D01*
Y580118D01*
X472706Y580019D01*
X472720Y579934D01*
X472748Y579864D01*
X472776Y579822D01*
X472790Y579779D01*
X472819Y579765D01*
Y579751D01*
X472875Y579695D01*
X472946Y579666D01*
X473087Y579610D01*
X473157D01*
X473213Y579596D01*
X473961D01*
X474073Y579610D01*
X474172Y579624D01*
X474257Y579652D01*
X474313Y579681D01*
X474369Y579709D01*
X474398Y579723D01*
X474412Y579751D01*
X474426D01*
X474468Y579822D01*
X474496Y579892D01*
X474538Y580047D01*
Y580118D01*
X474553Y580174D01*
Y580216D01*
Y580230D01*
Y580653D01*
Y580766D01*
X474538Y580851D01*
X474510Y580935D01*
X474482Y580992D01*
X474468Y581034D01*
X474440Y581062D01*
X474426Y581090D01*
X474369Y581133D01*
X474299Y581175D01*
X474144Y581217D01*
X474073Y581231D01*
D02*
G37*
G36*
X474017Y578595D02*
X473157D01*
X473058Y578567D01*
X472988Y578553D01*
X472917Y578525D01*
X472875Y578496D01*
X472847Y578468D01*
X472819Y578454D01*
Y578440D01*
X472776Y578370D01*
X472734Y578299D01*
X472692Y578144D01*
X472678Y578074D01*
Y578017D01*
Y577975D01*
Y577961D01*
Y577495D01*
Y577383D01*
X472706Y577298D01*
X472720Y577214D01*
X472748Y577157D01*
X472776Y577101D01*
X472790Y577073D01*
X472819Y577044D01*
X472875Y577002D01*
X472946Y576974D01*
X473087Y576932D01*
X473157D01*
X473213Y576918D01*
X474073D01*
X474172Y576932D01*
X474257Y576960D01*
X474313Y576988D01*
X474369Y577002D01*
X474398Y577030D01*
X474412Y577044D01*
X474426D01*
X474468Y577101D01*
X474496Y577171D01*
X474538Y577326D01*
Y577397D01*
X474553Y577439D01*
Y577481D01*
Y577495D01*
Y577961D01*
Y578074D01*
X474538Y578172D01*
X474510Y578257D01*
X474482Y578327D01*
X474468Y578370D01*
X474440Y578412D01*
X474426Y578440D01*
X474369Y578496D01*
X474299Y578525D01*
X474144Y578581D01*
X474073D01*
X474017Y578595D01*
D02*
G37*
G36*
X452461Y577300D02*
X451348D01*
X451249Y577272D01*
X451164Y577258D01*
X451094Y577230D01*
X451052Y577202D01*
X451009Y577188D01*
X450981Y577159D01*
X450925Y577103D01*
X450897Y577033D01*
X450840Y576878D01*
Y576821D01*
X450826Y576765D01*
Y576722D01*
Y576708D01*
Y575919D01*
Y575806D01*
X450854Y575722D01*
X450868Y575637D01*
X450897Y575580D01*
X450925Y575524D01*
X450953Y575496D01*
X450967Y575482D01*
X450981Y575468D01*
X451052Y575425D01*
X451122Y575397D01*
X451277Y575355D01*
X451348D01*
X451404Y575341D01*
X452447D01*
X452518Y575355D01*
X452546Y575397D01*
X452560Y575440D01*
Y575454D01*
Y577188D01*
X452546Y577258D01*
X452504Y577286D01*
X452461Y577300D01*
D02*
G37*
G36*
X443764Y574904D02*
X442481D01*
X442382Y574876D01*
X442297Y574862D01*
X442241Y574833D01*
X442185Y574805D01*
X442156Y574791D01*
X442128Y574763D01*
X442086Y574706D01*
X442044Y574636D01*
X442001Y574495D01*
X441987Y574425D01*
Y574368D01*
Y574326D01*
Y574312D01*
Y573607D01*
Y573494D01*
X442015Y573396D01*
X442029Y573311D01*
X442058Y573255D01*
X442086Y573198D01*
X442100Y573170D01*
X442128Y573156D01*
Y573142D01*
X442185Y573100D01*
X442255Y573071D01*
X442410Y573029D01*
X442481D01*
X442537Y573015D01*
X443284D01*
X443383Y573029D01*
X443467Y573057D01*
X443524Y573085D01*
X443580Y573100D01*
X443608Y573128D01*
X443623Y573142D01*
X443637D01*
X443679Y573198D01*
X443707Y573269D01*
X443749Y573424D01*
Y573494D01*
X443764Y573551D01*
Y573593D01*
Y573607D01*
Y574904D01*
D02*
G37*
G36*
X506872Y581217D02*
X505759D01*
X505660Y581189D01*
X505576Y581175D01*
X505505Y581147D01*
X505463Y581119D01*
X505420Y581104D01*
X505392Y581076D01*
X505336Y581020D01*
X505308Y580949D01*
X505251Y580794D01*
Y580738D01*
X505237Y580681D01*
Y580639D01*
Y580625D01*
Y579836D01*
Y579723D01*
X505265Y579638D01*
X505280Y579554D01*
X505308Y579497D01*
X505336Y579441D01*
X505364Y579413D01*
X505378Y579399D01*
X505392Y579384D01*
X505463Y579342D01*
X505533Y579314D01*
X505688Y579272D01*
X505759D01*
X505815Y579258D01*
X506858D01*
X506929Y579272D01*
X506957Y579314D01*
X506971Y579356D01*
Y579370D01*
Y581104D01*
X506957Y581175D01*
X506915Y581203D01*
X506872Y581217D01*
D02*
G37*
G36*
X496765Y581245D02*
Y578116D01*
X498400D01*
X496765Y581245D01*
D02*
G37*
G36*
X530748Y581217D02*
X529635D01*
X529536Y581189D01*
X529452Y581175D01*
X529381Y581147D01*
X529339Y581119D01*
X529296Y581104D01*
X529268Y581076D01*
X529212Y581020D01*
X529184Y580949D01*
X529127Y580794D01*
Y580738D01*
X529113Y580681D01*
Y580639D01*
Y580625D01*
Y579836D01*
Y579723D01*
X529141Y579638D01*
X529156Y579554D01*
X529184Y579497D01*
X529212Y579441D01*
X529240Y579413D01*
X529254Y579399D01*
X529268Y579384D01*
X529339Y579342D01*
X529409Y579314D01*
X529564Y579272D01*
X529635D01*
X529691Y579258D01*
X530734D01*
X530805Y579272D01*
X530833Y579314D01*
X530847Y579356D01*
Y579370D01*
Y581104D01*
X530833Y581175D01*
X530791Y581203D01*
X530748Y581217D01*
D02*
G37*
G36*
X554370D02*
X553257D01*
X553158Y581189D01*
X553074Y581175D01*
X553003Y581147D01*
X552961Y581119D01*
X552919Y581104D01*
X552890Y581076D01*
X552834Y581020D01*
X552806Y580949D01*
X552749Y580794D01*
Y580738D01*
X552735Y580681D01*
Y580639D01*
Y580625D01*
Y579836D01*
Y579723D01*
X552763Y579638D01*
X552777Y579554D01*
X552806Y579497D01*
X552834Y579441D01*
X552862Y579413D01*
X552876Y579399D01*
X552890Y579384D01*
X552961Y579342D01*
X553031Y579314D01*
X553186Y579272D01*
X553257D01*
X553313Y579258D01*
X554356D01*
X554427Y579272D01*
X554455Y579314D01*
X554469Y579356D01*
Y579370D01*
Y581104D01*
X554455Y581175D01*
X554413Y581203D01*
X554370Y581217D01*
D02*
G37*
G36*
X545165D02*
X544347D01*
X544249Y581189D01*
X544178Y581175D01*
X544108Y581147D01*
X544066Y581119D01*
X544037Y581104D01*
X544009Y581076D01*
X543967Y581020D01*
X543925Y580949D01*
X543882Y580808D01*
X543868Y580738D01*
Y580681D01*
Y580639D01*
Y580625D01*
Y577524D01*
Y577411D01*
X543896Y577312D01*
X543910Y577228D01*
X543939Y577171D01*
X543967Y577115D01*
X543981Y577087D01*
X544009Y577073D01*
Y577058D01*
X544066Y577016D01*
X544136Y576988D01*
X544277Y576946D01*
X544347D01*
X544404Y576932D01*
X545165D01*
X545264Y576946D01*
X545348Y576974D01*
X545405Y577002D01*
X545461Y577016D01*
X545489Y577044D01*
X545504Y577058D01*
X545518D01*
X545560Y577115D01*
X545588Y577185D01*
X545630Y577341D01*
Y577411D01*
X545644Y577467D01*
Y577510D01*
Y577524D01*
Y580625D01*
Y580738D01*
X545630Y580836D01*
X545602Y580907D01*
X545574Y580978D01*
X545560Y581020D01*
X545532Y581048D01*
X545518Y581076D01*
X545461Y581119D01*
X545391Y581161D01*
X545236Y581203D01*
X545165Y581217D01*
D02*
G37*
G36*
X578501D02*
X577387D01*
X577288Y581189D01*
X577204Y581175D01*
X577133Y581147D01*
X577091Y581119D01*
X577048Y581104D01*
X577020Y581076D01*
X576964Y581020D01*
X576936Y580949D01*
X576879Y580794D01*
Y580738D01*
X576865Y580681D01*
Y580639D01*
Y580625D01*
Y579836D01*
Y579723D01*
X576893Y579638D01*
X576908Y579554D01*
X576936Y579497D01*
X576964Y579441D01*
X576992Y579413D01*
X577006Y579399D01*
X577020Y579384D01*
X577091Y579342D01*
X577161Y579314D01*
X577316Y579272D01*
X577387D01*
X577443Y579258D01*
X578486D01*
X578557Y579272D01*
X578585Y579314D01*
X578599Y579356D01*
Y579370D01*
Y581104D01*
X578585Y581175D01*
X578543Y581203D01*
X578501Y581217D01*
D02*
G37*
G36*
X572707Y581231D02*
X571790D01*
X571692Y581203D01*
X571621Y581189D01*
X571551Y581161D01*
X571508Y581133D01*
X571480Y581119D01*
X571452Y581090D01*
X571410Y581034D01*
X571367Y580963D01*
X571325Y580822D01*
X571311Y580752D01*
Y580710D01*
Y580667D01*
Y580653D01*
Y580230D01*
Y580118D01*
X571339Y580019D01*
X571353Y579934D01*
X571381Y579864D01*
X571410Y579822D01*
X571424Y579779D01*
X571452Y579765D01*
Y579751D01*
X571508Y579695D01*
X571579Y579666D01*
X571720Y579610D01*
X571790D01*
X571847Y579596D01*
X572594D01*
X572707Y579610D01*
X572805Y579624D01*
X572890Y579652D01*
X572946Y579681D01*
X573003Y579709D01*
X573031Y579723D01*
X573045Y579751D01*
X573059D01*
X573101Y579822D01*
X573130Y579892D01*
X573172Y580047D01*
Y580118D01*
X573186Y580174D01*
Y580216D01*
Y580230D01*
Y580653D01*
Y580766D01*
X573172Y580851D01*
X573144Y580935D01*
X573115Y580992D01*
X573101Y581034D01*
X573073Y581062D01*
X573059Y581090D01*
X573003Y581133D01*
X572932Y581175D01*
X572777Y581217D01*
X572707Y581231D01*
D02*
G37*
G36*
X572650Y578595D02*
X571790D01*
X571692Y578567D01*
X571621Y578553D01*
X571551Y578525D01*
X571508Y578496D01*
X571480Y578468D01*
X571452Y578454D01*
Y578440D01*
X571410Y578370D01*
X571367Y578299D01*
X571325Y578144D01*
X571311Y578074D01*
Y578017D01*
Y577975D01*
Y577961D01*
Y577495D01*
Y577383D01*
X571339Y577298D01*
X571353Y577214D01*
X571381Y577157D01*
X571410Y577101D01*
X571424Y577073D01*
X571452Y577044D01*
X571508Y577002D01*
X571579Y576974D01*
X571720Y576932D01*
X571790D01*
X571847Y576918D01*
X572707D01*
X572805Y576932D01*
X572890Y576960D01*
X572946Y576988D01*
X573003Y577002D01*
X573031Y577030D01*
X573045Y577044D01*
X573059D01*
X573101Y577101D01*
X573130Y577171D01*
X573172Y577326D01*
Y577397D01*
X573186Y577439D01*
Y577481D01*
Y577495D01*
Y577961D01*
Y578074D01*
X573172Y578172D01*
X573144Y578257D01*
X573115Y578327D01*
X573101Y578370D01*
X573073Y578412D01*
X573059Y578440D01*
X573003Y578496D01*
X572932Y578525D01*
X572777Y578581D01*
X572707D01*
X572650Y578595D01*
D02*
G37*
G36*
X413400Y531179D02*
X412287D01*
X412188Y531151D01*
X412104Y531137D01*
X412033Y531109D01*
X411991Y531081D01*
X411949Y531066D01*
X411920Y531038D01*
X411864Y530982D01*
X411836Y530911D01*
X411779Y530756D01*
Y530700D01*
X411765Y530644D01*
Y530601D01*
Y530587D01*
Y529798D01*
Y529685D01*
X411793Y529600D01*
X411808Y529516D01*
X411836Y529459D01*
X411864Y529403D01*
X411892Y529375D01*
X411906Y529361D01*
X411920Y529347D01*
X411991Y529304D01*
X412061Y529276D01*
X412216Y529234D01*
X412287D01*
X412343Y529220D01*
X413386D01*
X413457Y529234D01*
X413485Y529276D01*
X413499Y529318D01*
Y529332D01*
Y531066D01*
X413485Y531137D01*
X413443Y531165D01*
X413400Y531179D01*
D02*
G37*
G36*
X406676Y531207D02*
Y528078D01*
X408312D01*
X406676Y531207D01*
D02*
G37*
G36*
X436007Y531179D02*
X434893D01*
X434794Y531151D01*
X434710Y531137D01*
X434639Y531109D01*
X434597Y531081D01*
X434554Y531066D01*
X434526Y531038D01*
X434470Y530982D01*
X434442Y530911D01*
X434385Y530756D01*
Y530700D01*
X434371Y530644D01*
Y530601D01*
Y530587D01*
Y529798D01*
Y529685D01*
X434399Y529600D01*
X434413Y529516D01*
X434442Y529459D01*
X434470Y529403D01*
X434498Y529375D01*
X434512Y529361D01*
X434526Y529347D01*
X434597Y529304D01*
X434667Y529276D01*
X434822Y529234D01*
X434893D01*
X434949Y529220D01*
X435992D01*
X436063Y529234D01*
X436091Y529276D01*
X436105Y529318D01*
Y529332D01*
Y531066D01*
X436091Y531137D01*
X436049Y531165D01*
X436007Y531179D01*
D02*
G37*
G36*
X397442Y389419D02*
X396244D01*
X396145Y389391D01*
X396075Y389377D01*
X396004Y389349D01*
X395962Y389320D01*
X395934Y389306D01*
X395906Y389278D01*
X395863Y389222D01*
X395821Y389151D01*
X395779Y389010D01*
X395765Y388940D01*
Y388884D01*
Y388841D01*
Y388827D01*
Y387967D01*
Y387854D01*
X395793Y387770D01*
X395807Y387685D01*
X395835Y387629D01*
X395863Y387573D01*
X395877Y387544D01*
X395906Y387516D01*
X395962Y387474D01*
X396032Y387446D01*
X396174Y387403D01*
X396244D01*
X396300Y387389D01*
X397428D01*
X397499Y387403D01*
X397527Y387446D01*
X397541Y387474D01*
Y387488D01*
Y389306D01*
X397527Y389377D01*
X397485Y389405D01*
X397442Y389419D01*
D02*
G37*
G36*
X382161Y387023D02*
X380878D01*
X380780Y386995D01*
X380695Y386980D01*
X380639Y386952D01*
X380582Y386924D01*
X380554Y386910D01*
X380526Y386882D01*
X380484Y386825D01*
X380441Y386755D01*
X380399Y386614D01*
X380385Y386543D01*
Y386487D01*
Y386445D01*
Y386431D01*
Y385726D01*
Y385613D01*
X380413Y385514D01*
X380427Y385430D01*
X380455Y385373D01*
X380484Y385317D01*
X380498Y385289D01*
X380526Y385275D01*
Y385261D01*
X380582Y385218D01*
X380653Y385190D01*
X380808Y385148D01*
X380878D01*
X380935Y385134D01*
X381682D01*
X381781Y385148D01*
X381865Y385176D01*
X381921Y385204D01*
X381978Y385218D01*
X382006Y385246D01*
X382020Y385261D01*
X382034D01*
X382076Y385317D01*
X382105Y385387D01*
X382147Y385542D01*
Y385613D01*
X382161Y385669D01*
Y385712D01*
Y385726D01*
Y387023D01*
D02*
G37*
G36*
X292803Y372711D02*
Y369582D01*
X294438D01*
X292803Y372711D01*
D02*
G37*
G36*
X522813Y531179D02*
X521996D01*
X521897Y531151D01*
X521826Y531137D01*
X521756Y531109D01*
X521714Y531081D01*
X521685Y531066D01*
X521657Y531038D01*
X521615Y530982D01*
X521573Y530911D01*
X521530Y530770D01*
X521516Y530700D01*
Y530644D01*
Y530601D01*
Y530587D01*
Y527486D01*
Y527373D01*
X521544Y527274D01*
X521558Y527190D01*
X521587Y527133D01*
X521615Y527077D01*
X521629Y527049D01*
X521657Y527035D01*
Y527020D01*
X521714Y526978D01*
X521784Y526950D01*
X521925Y526908D01*
X521996D01*
X522052Y526894D01*
X522813D01*
X522912Y526908D01*
X522996Y526936D01*
X523053Y526964D01*
X523109Y526978D01*
X523137Y527006D01*
X523152Y527020D01*
X523166D01*
X523208Y527077D01*
X523236Y527147D01*
X523278Y527303D01*
Y527373D01*
X523293Y527429D01*
Y527472D01*
Y527486D01*
Y530587D01*
Y530700D01*
X523278Y530798D01*
X523250Y530869D01*
X523222Y530939D01*
X523208Y530982D01*
X523180Y531010D01*
X523166Y531038D01*
X523109Y531081D01*
X523039Y531123D01*
X522884Y531165D01*
X522813Y531179D01*
D02*
G37*
G36*
X549677D02*
X548874D01*
X548775Y531151D01*
X548690Y531137D01*
X548634Y531109D01*
X548578Y531081D01*
X548549Y531066D01*
X548521Y531038D01*
X548479Y530982D01*
X548437Y530911D01*
X548394Y530770D01*
X548380Y530700D01*
Y530644D01*
Y530601D01*
Y530587D01*
Y529220D01*
X549677D01*
X549776Y529234D01*
X549846Y529262D01*
X549917Y529290D01*
X549959Y529304D01*
X549987Y529332D01*
X550015Y529347D01*
X550058Y529403D01*
X550086Y529473D01*
X550128Y529628D01*
Y529699D01*
X550142Y529741D01*
Y529784D01*
Y529798D01*
Y530587D01*
Y530700D01*
X550128Y530798D01*
X550100Y530869D01*
X550072Y530939D01*
X550058Y530982D01*
X550030Y531010D01*
X550015Y531038D01*
X549959Y531081D01*
X549889Y531123D01*
X549748Y531165D01*
X549677Y531179D01*
D02*
G37*
G36*
X573215Y531193D02*
X572298D01*
X572200Y531165D01*
X572129Y531151D01*
X572059Y531123D01*
X572016Y531095D01*
X571988Y531081D01*
X571960Y531052D01*
X571918Y530996D01*
X571875Y530925D01*
X571833Y530784D01*
X571819Y530714D01*
Y530672D01*
Y530629D01*
Y530615D01*
Y530192D01*
Y530080D01*
X571847Y529981D01*
X571861Y529896D01*
X571889Y529826D01*
X571918Y529784D01*
X571932Y529741D01*
X571960Y529727D01*
Y529713D01*
X572016Y529657D01*
X572087Y529628D01*
X572228Y529572D01*
X572298D01*
X572355Y529558D01*
X573102D01*
X573215Y529572D01*
X573313Y529586D01*
X573398Y529614D01*
X573454Y529643D01*
X573511Y529671D01*
X573539Y529685D01*
X573553Y529713D01*
X573567D01*
X573609Y529784D01*
X573638Y529854D01*
X573680Y530009D01*
Y530080D01*
X573694Y530136D01*
Y530178D01*
Y530192D01*
Y530615D01*
Y530728D01*
X573680Y530813D01*
X573652Y530897D01*
X573623Y530954D01*
X573609Y530996D01*
X573581Y531024D01*
X573567Y531052D01*
X573511Y531095D01*
X573440Y531137D01*
X573285Y531179D01*
X573215Y531193D01*
D02*
G37*
G36*
X573158Y528557D02*
X572298D01*
X572200Y528529D01*
X572129Y528515D01*
X572059Y528487D01*
X572016Y528458D01*
X571988Y528430D01*
X571960Y528416D01*
Y528402D01*
X571918Y528332D01*
X571875Y528261D01*
X571833Y528106D01*
X571819Y528036D01*
Y527979D01*
Y527937D01*
Y527923D01*
Y527458D01*
Y527345D01*
X571847Y527260D01*
X571861Y527176D01*
X571889Y527119D01*
X571918Y527063D01*
X571932Y527035D01*
X571960Y527006D01*
X572016Y526964D01*
X572087Y526936D01*
X572228Y526894D01*
X572298D01*
X572355Y526880D01*
X573215D01*
X573313Y526894D01*
X573398Y526922D01*
X573454Y526950D01*
X573511Y526964D01*
X573539Y526992D01*
X573553Y527006D01*
X573567D01*
X573609Y527063D01*
X573638Y527133D01*
X573680Y527288D01*
Y527359D01*
X573694Y527401D01*
Y527443D01*
Y527458D01*
Y527923D01*
Y528036D01*
X573680Y528134D01*
X573652Y528219D01*
X573623Y528289D01*
X573609Y528332D01*
X573581Y528374D01*
X573567Y528402D01*
X573511Y528458D01*
X573440Y528487D01*
X573285Y528543D01*
X573215D01*
X573158Y528557D01*
D02*
G37*
G36*
X431708Y578821D02*
X430425D01*
X430326Y578792D01*
X430242Y578778D01*
X430185Y578750D01*
X430129Y578722D01*
X430101Y578708D01*
X430073Y578680D01*
X430030Y578623D01*
X429988Y578553D01*
X429946Y578412D01*
X429932Y578341D01*
Y578285D01*
Y578243D01*
Y578229D01*
Y577524D01*
Y577411D01*
X429960Y577312D01*
X429974Y577228D01*
X430002Y577171D01*
X430030Y577115D01*
X430045Y577087D01*
X430073Y577073D01*
Y577058D01*
X430129Y577016D01*
X430200Y576988D01*
X430355Y576946D01*
X430425D01*
X430481Y576932D01*
X431229D01*
X431327Y576946D01*
X431412Y576974D01*
X431468Y577002D01*
X431525Y577016D01*
X431553Y577044D01*
X431567Y577058D01*
X431581D01*
X431623Y577115D01*
X431651Y577185D01*
X431694Y577341D01*
Y577411D01*
X431708Y577467D01*
Y577510D01*
Y577524D01*
Y578821D01*
D02*
G37*
G36*
X450144Y430927D02*
Y427798D01*
X451780D01*
X450144Y430927D01*
D02*
G37*
%LPD*%
D10*
X249000Y249410D02*
Y308810D01*
X333500D01*
Y249410D01*
X249000D01*
X280072Y321500D02*
X290072D01*
X311500Y342650D02*
Y352650D01*
X326500D02*
Y342650D01*
X286100Y359351D02*
X283100D01*
Y344351D02*
X286100D01*
X290072Y336500D02*
X280072D01*
X348271Y382186D02*
Y448686D01*
X274571D01*
Y382186D01*
X348271D01*
X365000Y379000D02*
X383000D01*
Y329000D01*
X365000D01*
Y379000D01*
X426000Y314000D02*
X472000D01*
Y311715D01*
X501500Y289000D02*
Y279000D01*
X516500D02*
Y289000D01*
X472000Y276285D02*
Y274000D01*
X426000D01*
Y276285D01*
Y311715D02*
Y314000D01*
X484000Y398500D02*
Y409500D01*
X469000D02*
Y398500D01*
X461928D02*
Y409500D01*
X446928D02*
Y398500D01*
X539057Y499500D02*
Y502500D01*
X554057D02*
Y499500D01*
X562557D02*
Y502500D01*
X577557D02*
Y499500D01*
Y546000D02*
Y556000D01*
X562557D02*
Y546000D01*
X553414Y546000D02*
Y556000D01*
X538414D02*
Y546000D01*
X529771D02*
Y556000D01*
X514771D02*
Y546000D01*
X506129D02*
Y556000D01*
X491129D02*
Y546000D01*
X482486D02*
Y556000D01*
X467486D02*
Y546000D01*
X458843Y546901D02*
Y556901D01*
X443843D02*
Y546901D01*
X435700Y549500D02*
Y552500D01*
X420700D02*
Y549500D01*
X412057D02*
Y552500D01*
X397057D02*
Y549500D01*
X397557Y506000D02*
Y496000D01*
X412557D02*
Y506000D01*
X420200D02*
Y496000D01*
X435200D02*
Y506000D01*
X445057Y502500D02*
Y499500D01*
X460057D02*
Y502500D01*
X468557D02*
Y499500D01*
X483557D02*
Y502500D01*
X492057D02*
Y499500D01*
X507057D02*
Y502500D01*
X515557D02*
Y499500D01*
X530557D02*
Y502500D01*
X591500Y340500D02*
Y337500D01*
X606500D02*
Y340500D01*
X333072Y597564D02*
Y607564D01*
X318072D02*
Y597564D01*
X308071D02*
Y607564D01*
X293071D02*
Y597564D01*
X283071D02*
Y607564D01*
X268071D02*
Y597564D01*
D12*
X399250Y381550D02*
G03*
X399250Y381550I-1250J0D01*
G01*
X419855Y274785D02*
G03*
X419855Y274785I-1250J0D01*
G01*
D14*
X285072Y324000D02*
Y334000D01*
X284600Y346851D02*
Y356851D01*
X301600Y360851D02*
X267600D01*
Y342851D01*
X301600D01*
Y360851D01*
X289600Y351851D02*
X279600D01*
X301821Y337750D02*
X268321D01*
Y320250D01*
X301821D01*
Y337750D01*
X290072Y329000D02*
X280072D01*
X310250Y330900D02*
Y364400D01*
X327750D01*
Y330900D01*
X310250D01*
X314000Y347650D02*
X324000D01*
X319000Y342650D02*
Y352650D01*
X354000Y329000D02*
X394000D01*
Y379000D01*
X354000D01*
Y329000D01*
X374000Y349000D02*
Y359000D01*
X369000Y354000D02*
X379000D01*
X398500Y341000D02*
Y417000D01*
X579500D01*
Y341000D01*
X398500D01*
X426000Y313750D02*
X472000D01*
Y274250D01*
X426000D01*
Y313750D01*
X444000Y294000D02*
X454000D01*
X449000Y299000D02*
Y289000D01*
X447000Y287610D02*
X481000D01*
Y305610D01*
X447000D01*
Y287610D01*
X448500Y282250D02*
X480500D01*
Y276250D01*
D02*
G03*
X480500Y271750I0J-2250D01*
G01*
Y271752D02*
Y265752D01*
X448500D01*
X448502D02*
Y271752D01*
Y271750D02*
G03*
X448502Y276250I0J2250D01*
G01*
Y282250D01*
X459500Y274000D02*
X469500D01*
X464500Y269000D02*
Y279000D01*
X500500Y268000D02*
X517500D01*
Y300000D01*
X500500D01*
Y268000D01*
X500250Y267250D02*
Y300750D01*
X517750D01*
Y267250D01*
X500250D01*
X499000Y261000D02*
X519000D01*
Y307000D01*
X499000D01*
Y261000D01*
X509000Y279000D02*
Y289000D01*
Y289000D02*
Y279000D01*
X514000Y284000D02*
X504000D01*
X514000D01*
X464000Y291610D02*
Y301610D01*
X459000Y296610D02*
X469000D01*
X484000Y379000D02*
X494000D01*
X489000Y374000D02*
Y384000D01*
X485500Y387000D02*
Y421000D01*
X467500D01*
Y387000D01*
X485500D01*
X476500Y409000D02*
Y399000D01*
X481500Y404000D02*
X471500D01*
X459428D02*
X449428D01*
X454428Y399000D02*
Y409000D01*
X445429Y421000D02*
X463428D01*
Y387000D01*
X445429D01*
Y421000D01*
X390000Y370000D02*
G03*
X390000Y370000I-5000J0D01*
G01*
X508557Y484000D02*
Y518000D01*
X490557D01*
Y484000D01*
X508557D01*
X514057D02*
Y518000D01*
X532057D01*
Y484000D01*
X514057D01*
X518057Y501000D02*
X528057D01*
X523057Y496000D02*
Y506000D01*
X541557Y501000D02*
X551557D01*
X546557Y496000D02*
Y506000D01*
X537557Y484000D02*
Y518000D01*
X555557D01*
Y484000D01*
X537557D01*
X561057D02*
Y518000D01*
X579057D01*
Y484000D01*
X561057D01*
X565057Y501000D02*
X575057D01*
X570057Y496000D02*
Y506000D01*
X626554Y459799D02*
X651447Y459798D01*
X651446D02*
Y328999D01*
X626554D01*
Y459799D01*
X575500Y408000D02*
G03*
X575500Y408000I-5000J0D01*
G01*
X590000Y356000D02*
X608000D01*
Y322000D01*
X590000D01*
Y356000D01*
X594000Y339000D02*
X604000D01*
X599000Y334000D02*
Y344000D01*
X591690Y266500D02*
X671090D01*
Y99600D01*
X591690D01*
Y266500D01*
X504557Y501000D02*
X494557D01*
X499557Y496000D02*
Y506000D01*
X485057Y484000D02*
Y518000D01*
X467057D01*
Y484000D01*
X485057D01*
X461557Y518000D02*
Y484000D01*
X443557D01*
Y518000D01*
X461557D01*
X457557Y501000D02*
X447557D01*
X452557Y496000D02*
Y506000D01*
X432700Y501000D02*
X422700D01*
X432700D01*
X436450Y484250D02*
Y517750D01*
X418950D01*
X436450D01*
Y484250D01*
X418950D01*
Y517750D01*
Y484250D01*
X436450D01*
X471057Y501000D02*
X481057D01*
X476057Y496000D02*
Y506000D01*
X513521Y534250D02*
Y567750D01*
X531021D01*
Y534250D01*
X513521D01*
Y534250D02*
Y567750D01*
X531021D01*
Y534250D01*
X513521D01*
X517271Y551000D02*
X527271D01*
Y551000D02*
X517271D01*
X522271Y556000D02*
Y546000D01*
Y546000D02*
Y556000D01*
X540914Y551000D02*
X550914D01*
Y551000D02*
X540914D01*
X545914Y546000D02*
Y556000D01*
Y556000D02*
Y546000D01*
X537164Y534250D02*
X554664D01*
Y567750D01*
X537164D01*
Y534250D01*
Y534250D02*
Y567750D01*
X554664D01*
Y534250D01*
X537164D01*
X560807D02*
Y567750D01*
X578307D01*
Y534250D01*
X560807D01*
X561307Y534250D02*
X578807D01*
Y567750D01*
X561307D01*
Y534250D01*
X564557Y551000D02*
X574557D01*
X575057Y551000D02*
X565057D01*
X569557Y556000D02*
Y546000D01*
X570057Y546000D02*
Y556000D01*
X507379Y567750D02*
Y534250D01*
X489879D01*
Y567750D01*
X507379D01*
Y567750D02*
Y534250D01*
X489879D01*
Y567750D01*
X507379D01*
X483736D02*
Y534250D01*
X466236D01*
Y567750D01*
X483736D01*
Y567750D02*
Y534250D01*
X466236D01*
Y567750D01*
X483736D01*
X493629Y551000D02*
X503629D01*
Y551000D02*
X493629D01*
X498629Y546000D02*
Y556000D01*
Y556000D02*
Y546000D01*
X460093Y567750D02*
Y534250D01*
X442593D01*
Y567750D01*
X460093D01*
Y568651D02*
Y535151D01*
X442593D01*
Y568651D01*
X460093D01*
X469986Y551000D02*
X479986D01*
Y551000D02*
X469986D01*
X474986Y546000D02*
Y556000D01*
Y556000D02*
Y546000D01*
X437200Y568000D02*
Y534000D01*
X419200D01*
Y568000D01*
X437200D01*
X436450Y567750D02*
Y534250D01*
X418950D01*
Y567750D01*
X436450D01*
X433200Y551000D02*
X423200D01*
X422700D02*
X432700D01*
X446343Y551000D02*
X456343D01*
Y551901D02*
X446343D01*
X451343Y556000D02*
Y546000D01*
Y546901D02*
Y556901D01*
X413557Y568000D02*
Y534000D01*
X395557D01*
Y568000D01*
X413557D01*
X412807Y567750D02*
Y534250D01*
X395307D01*
Y567750D01*
X412807D01*
X409557Y551000D02*
X399557D01*
X399057D02*
X409057D01*
X427700Y546000D02*
Y556000D01*
X428200D02*
Y546000D01*
X413807Y517750D02*
Y484250D01*
X396307D01*
Y517750D01*
X413807D01*
X413307D02*
Y484250D01*
X395807D01*
Y517750D01*
X413307D01*
X410057Y501000D02*
X400057D01*
X399557D02*
X409557D01*
X427700Y496000D02*
Y506000D01*
Y496000D01*
X405057D02*
Y506000D01*
X404557D02*
Y496000D01*
Y546000D02*
Y556000D01*
X404057D02*
Y546000D01*
X334322Y585814D02*
Y619314D01*
X316821D01*
Y585814D01*
X334322D01*
X334072Y586564D02*
Y618564D01*
X317072D01*
Y586564D01*
X334072D01*
X330572Y602564D02*
X320572D01*
X330572D01*
X335572Y579564D02*
Y625564D01*
X315572D01*
Y579564D01*
X335572D01*
X325572Y597564D02*
Y607564D01*
Y597564D01*
X305572Y602564D02*
X295571D01*
X305572D01*
X309072Y586564D02*
Y618564D01*
X292072D01*
Y586564D01*
X309072D01*
X309322Y585814D02*
Y619314D01*
X291821D01*
Y585814D01*
X309322D01*
X310571Y579564D02*
Y625564D01*
X290572D01*
Y579564D01*
X310571D01*
X300571Y597564D02*
Y607564D01*
Y597564D01*
X280571Y602564D02*
X270571D01*
X280571D01*
X284072Y586564D02*
Y618564D01*
X267072D01*
Y586564D01*
X284072D01*
X284322Y585814D02*
Y619314D01*
X266821D01*
Y585814D01*
X284322D01*
X285571Y579564D02*
Y625564D01*
X265572D01*
Y579564D01*
X285571D01*
X275571Y597564D02*
Y607564D01*
Y597564D01*
D17*
X429094Y294000D02*
D03*
D18*
X309500Y328150D02*
Y367150D01*
X328500D01*
Y328150D01*
X309500D01*
X336500Y326500D02*
X411500D01*
Y381500D01*
X336500D01*
Y326500D01*
X393500Y315000D02*
Y443000D01*
X584500D01*
Y315000D01*
X393500D01*
X415105D02*
X482895D01*
Y273000D01*
X415105D01*
Y315000D01*
X444500Y286610D02*
X483500D01*
Y306610D01*
X444500D01*
Y286610D01*
X444500Y284000D02*
X484500D01*
Y264000D01*
X444500D01*
Y284000D01*
X499500Y264500D02*
Y303500D01*
X518500D01*
Y264500D01*
X499500D01*
X589000Y319500D02*
Y358500D01*
X609000D01*
Y319500D01*
X589000D01*
X624300Y326749D02*
Y462049D01*
X653700D01*
Y326749D01*
X624300D01*
X486000Y424000D02*
X467000D01*
Y384000D01*
X486000D01*
Y424000D01*
X463928D02*
X444929D01*
Y384000D01*
X463928D01*
Y424000D01*
X509557Y481500D02*
Y520500D01*
X489557D01*
Y481500D01*
X509557D01*
X513057D02*
Y520500D01*
X533057D01*
Y481500D01*
X513057D01*
X536557D02*
Y520500D01*
X556557D01*
Y481500D01*
X536557D01*
X560057D02*
Y520500D01*
X580057D01*
Y481500D01*
X560057D01*
X560057Y531500D02*
Y570500D01*
X579057D01*
Y531500D01*
X560057D01*
X560557Y531500D02*
X579557D01*
Y570500D01*
X560557D01*
Y531500D01*
X555414Y531500D02*
Y570500D01*
X536414D01*
Y531500D01*
X555414D01*
Y531500D02*
Y570500D01*
X536414D01*
Y531500D01*
X555414D01*
X531771D02*
Y570500D01*
X512771D01*
Y531500D01*
X531771D01*
Y531500D02*
Y570500D01*
X512771D01*
Y531500D01*
X531771D01*
X508129D02*
Y570500D01*
X489128D01*
Y531500D01*
X508129D01*
Y531500D02*
Y570500D01*
X489128D01*
Y531500D01*
X508129D01*
X484486D02*
Y570500D01*
X465486D01*
Y531500D01*
X484486D01*
Y531500D02*
Y570500D01*
X465486D01*
Y531500D01*
X484486D01*
X486057Y520500D02*
Y481500D01*
X466057D01*
Y520500D01*
X486057D01*
X462557D02*
Y481500D01*
X442557D01*
Y520500D01*
X462557D01*
X460843Y531500D02*
Y570500D01*
X441843D01*
Y531500D01*
X460843D01*
Y532401D02*
Y571401D01*
X441843D01*
Y532401D01*
X460843D01*
X438200Y531500D02*
Y570500D01*
X418200D01*
Y531500D01*
X438200D01*
X437200Y531500D02*
Y570500D01*
X418200D01*
Y531500D01*
X437200D01*
Y520500D02*
Y481500D01*
X418200D01*
Y520500D01*
X437200D01*
Y520500D02*
Y481500D01*
X418200D01*
Y520500D01*
X437200D01*
X414557Y520500D02*
Y481500D01*
X395557D01*
Y520500D01*
X414557D01*
X414057Y520500D02*
Y481500D01*
X395057D01*
Y520500D01*
X414057D01*
X414557Y531500D02*
Y570500D01*
X394557D01*
Y531500D01*
X414557D01*
X413557Y531500D02*
Y570500D01*
X394557D01*
Y531500D01*
X413557D01*
X335071Y583064D02*
Y622064D01*
X316072D01*
Y583064D01*
X335071D01*
X310072D02*
Y622064D01*
X291072D01*
Y583064D01*
X310072D01*
X285072D02*
Y622064D01*
X266072D01*
Y583064D01*
X285072D01*
X265100Y361851D02*
X304100D01*
Y341851D01*
X265100D01*
Y361851D01*
X265572Y338500D02*
X304572D01*
Y319500D01*
X265572D01*
Y338500D01*
D40*
X377000Y371000D02*
G03*
X377000Y371000I-2000J0D01*
G01*
M02*
