M48
;Layer_Color=9474304
;FILE_FORMAT=2:5
INCH
T12F00S00C0.10000
%
G90
G05
T12
G00X0266751Y0085356
M15
G01X0268036Y0085938
G01X0269108Y0086855
G01X0269881Y0088035
G01X0270294Y0089384
G01X0270354Y0090157
G01X0270354Y0263386
G01X0270155Y0264782
G01X0269574Y0266068
G01X0268657Y0267140
G01X0267477Y0267913
G01X0266128Y0268326
G01X0265354Y0268386
G01X0092126Y0268386
G01X0090729Y0268187
G01X0089444Y0267606
G01X0088372Y0266689
G01X0087599Y0265509
G01X0087186Y0264160
G01X0087126Y0263386
G01X0087126Y0090157
G01X0087325Y0088761
G01X0087906Y0087476
G01X0088823Y0086404
G01X0090003Y0085630
G01X0091352Y0085218
G01X0092126Y0085157
G01X0265354Y0085157
G01X0266751Y0085356
M16
M17
M30
