G04*
G04 #@! TF.GenerationSoftware,Altium Limited,Altium Designer,19.1.8 (144)*
G04*
G04 Layer_Color=2752767*
%FSLAX44Y44*%
%MOMM*%
G71*
G01*
G75*
%ADD10C,0.2000*%
%ADD14C,0.1000*%
%ADD17R,0.6187X3.9500*%
%ADD18C,0.0500*%
%ADD63C,0.0508*%
%ADD64C,0.0677*%
%ADD65C,0.0339*%
D10*
X249000Y249410D02*
Y308810D01*
X333500D01*
Y249410D01*
X249000D01*
X348271Y382186D02*
Y448686D01*
X274571D01*
Y382186D01*
X348271D01*
D14*
X285072Y324000D02*
Y334000D01*
X284600Y346851D02*
Y356851D01*
X301600Y360851D02*
X267600D01*
Y342851D01*
X301600D01*
Y360851D01*
X289600Y351851D02*
X279600D01*
X301821Y337750D02*
X268321D01*
Y320250D01*
X301821D01*
Y337750D01*
X290072Y329000D02*
X280072D01*
X310250Y330900D02*
Y364400D01*
X327750D01*
Y330900D01*
X310250D01*
X314000Y347650D02*
X324000D01*
X319000Y342650D02*
Y352650D01*
X354000Y329000D02*
X394000D01*
Y379000D01*
X354000D01*
Y329000D01*
X374000Y349000D02*
Y359000D01*
X369000Y354000D02*
X379000D01*
X398500Y341000D02*
Y417000D01*
X579500D01*
Y341000D01*
X398500D01*
X426000Y313750D02*
X472000D01*
Y274250D01*
X426000D01*
Y313750D01*
X444000Y294000D02*
X454000D01*
X449000Y299000D02*
Y289000D01*
X447000Y287610D02*
X481000D01*
Y305610D01*
X447000D01*
Y287610D01*
X448500Y282250D02*
X480500D01*
Y276250D01*
D02*
G03*
X480500Y271750I0J-2250D01*
G01*
Y271752D02*
Y265752D01*
X448500D01*
X448502D02*
Y271752D01*
Y271750D02*
G03*
X448502Y276250I0J2250D01*
G01*
Y282250D01*
X459500Y274000D02*
X469500D01*
X464500Y269000D02*
Y279000D01*
X500500Y268000D02*
X517500D01*
Y300000D01*
X500500D01*
Y268000D01*
X500250Y267250D02*
Y300750D01*
X517750D01*
Y267250D01*
X500250D01*
X499000Y261000D02*
X519000D01*
Y307000D01*
X499000D01*
Y261000D01*
X509000Y279000D02*
Y289000D01*
Y289000D02*
Y279000D01*
X514000Y284000D02*
X504000D01*
X514000D01*
X464000Y291610D02*
Y301610D01*
X459000Y296610D02*
X469000D01*
X484000Y379000D02*
X494000D01*
X489000Y374000D02*
Y384000D01*
X485500Y387000D02*
Y421000D01*
X467500D01*
Y387000D01*
X485500D01*
X476500Y409000D02*
Y399000D01*
X481500Y404000D02*
X471500D01*
X459428D02*
X449428D01*
X454428Y399000D02*
Y409000D01*
X445429Y421000D02*
X463428D01*
Y387000D01*
X445429D01*
Y421000D01*
X390000Y370000D02*
G03*
X390000Y370000I-5000J0D01*
G01*
X508557Y484000D02*
Y518000D01*
X490557D01*
Y484000D01*
X508557D01*
X514057D02*
Y518000D01*
X532057D01*
Y484000D01*
X514057D01*
X518057Y501000D02*
X528057D01*
X523057Y496000D02*
Y506000D01*
X541557Y501000D02*
X551557D01*
X546557Y496000D02*
Y506000D01*
X537557Y484000D02*
Y518000D01*
X555557D01*
Y484000D01*
X537557D01*
X561057D02*
Y518000D01*
X579057D01*
Y484000D01*
X561057D01*
X565057Y501000D02*
X575057D01*
X570057Y496000D02*
Y506000D01*
X626554Y459799D02*
X651447Y459798D01*
X651446D02*
Y328999D01*
X626554D01*
Y459799D01*
X575500Y408000D02*
G03*
X575500Y408000I-5000J0D01*
G01*
X590000Y356000D02*
X608000D01*
Y322000D01*
X590000D01*
Y356000D01*
X594000Y339000D02*
X604000D01*
X599000Y334000D02*
Y344000D01*
X591690Y266500D02*
X671090D01*
Y99600D01*
X591690D01*
Y266500D01*
X504557Y501000D02*
X494557D01*
X499557Y496000D02*
Y506000D01*
X485057Y484000D02*
Y518000D01*
X467057D01*
Y484000D01*
X485057D01*
X461557Y518000D02*
Y484000D01*
X443557D01*
Y518000D01*
X461557D01*
X457557Y501000D02*
X447557D01*
X452557Y496000D02*
Y506000D01*
X432700Y501000D02*
X422700D01*
X432700D01*
X436450Y484250D02*
Y517750D01*
X418950D01*
X436450D01*
Y484250D01*
X418950D01*
Y517750D01*
Y484250D01*
X436450D01*
X471057Y501000D02*
X481057D01*
X476057Y496000D02*
Y506000D01*
X513521Y534250D02*
Y567750D01*
X531021D01*
Y534250D01*
X513521D01*
Y534250D02*
Y567750D01*
X531021D01*
Y534250D01*
X513521D01*
X517271Y551000D02*
X527271D01*
Y551000D02*
X517271D01*
X522271Y556000D02*
Y546000D01*
Y546000D02*
Y556000D01*
X540914Y551000D02*
X550914D01*
Y551000D02*
X540914D01*
X545914Y546000D02*
Y556000D01*
Y556000D02*
Y546000D01*
X537164Y534250D02*
X554664D01*
Y567750D01*
X537164D01*
Y534250D01*
Y534250D02*
Y567750D01*
X554664D01*
Y534250D01*
X537164D01*
X560807D02*
Y567750D01*
X578307D01*
Y534250D01*
X560807D01*
X561307Y534250D02*
X578807D01*
Y567750D01*
X561307D01*
Y534250D01*
X564557Y551000D02*
X574557D01*
X575057Y551000D02*
X565057D01*
X569557Y556000D02*
Y546000D01*
X570057Y546000D02*
Y556000D01*
X507379Y567750D02*
Y534250D01*
X489879D01*
Y567750D01*
X507379D01*
Y567750D02*
Y534250D01*
X489879D01*
Y567750D01*
X507379D01*
X483736D02*
Y534250D01*
X466236D01*
Y567750D01*
X483736D01*
Y567750D02*
Y534250D01*
X466236D01*
Y567750D01*
X483736D01*
X493629Y551000D02*
X503629D01*
Y551000D02*
X493629D01*
X498629Y546000D02*
Y556000D01*
Y556000D02*
Y546000D01*
X460093Y567750D02*
Y534250D01*
X442593D01*
Y567750D01*
X460093D01*
Y568651D02*
Y535151D01*
X442593D01*
Y568651D01*
X460093D01*
X469986Y551000D02*
X479986D01*
Y551000D02*
X469986D01*
X474986Y546000D02*
Y556000D01*
Y556000D02*
Y546000D01*
X437200Y568000D02*
Y534000D01*
X419200D01*
Y568000D01*
X437200D01*
X436450Y567750D02*
Y534250D01*
X418950D01*
Y567750D01*
X436450D01*
X433200Y551000D02*
X423200D01*
X422700D02*
X432700D01*
X446343Y551000D02*
X456343D01*
Y551901D02*
X446343D01*
X451343Y556000D02*
Y546000D01*
Y546901D02*
Y556901D01*
X413557Y568000D02*
Y534000D01*
X395557D01*
Y568000D01*
X413557D01*
X412807Y567750D02*
Y534250D01*
X395307D01*
Y567750D01*
X412807D01*
X409557Y551000D02*
X399557D01*
X399057D02*
X409057D01*
X427700Y546000D02*
Y556000D01*
X428200D02*
Y546000D01*
X413807Y517750D02*
Y484250D01*
X396307D01*
Y517750D01*
X413807D01*
X413307D02*
Y484250D01*
X395807D01*
Y517750D01*
X413307D01*
X410057Y501000D02*
X400057D01*
X399557D02*
X409557D01*
X427700Y496000D02*
Y506000D01*
Y496000D01*
X405057D02*
Y506000D01*
X404557D02*
Y496000D01*
Y546000D02*
Y556000D01*
X404057D02*
Y546000D01*
X334322Y585814D02*
Y619314D01*
X316821D01*
Y585814D01*
X334322D01*
X334072Y586564D02*
Y618564D01*
X317072D01*
Y586564D01*
X334072D01*
X330572Y602564D02*
X320572D01*
X330572D01*
X335572Y579564D02*
Y625564D01*
X315572D01*
Y579564D01*
X335572D01*
X325572Y597564D02*
Y607564D01*
Y597564D01*
X305572Y602564D02*
X295571D01*
X305572D01*
X309072Y586564D02*
Y618564D01*
X292072D01*
Y586564D01*
X309072D01*
X309322Y585814D02*
Y619314D01*
X291821D01*
Y585814D01*
X309322D01*
X310571Y579564D02*
Y625564D01*
X290572D01*
Y579564D01*
X310571D01*
X300571Y597564D02*
Y607564D01*
Y597564D01*
X280571Y602564D02*
X270571D01*
X280571D01*
X284072Y586564D02*
Y618564D01*
X267072D01*
Y586564D01*
X284072D01*
X284322Y585814D02*
Y619314D01*
X266821D01*
Y585814D01*
X284322D01*
X285571Y579564D02*
Y625564D01*
X265572D01*
Y579564D01*
X285571D01*
X275571Y597564D02*
Y607564D01*
Y597564D01*
D17*
X429094Y294000D02*
D03*
D18*
X309500Y328150D02*
Y367150D01*
X328500D01*
Y328150D01*
X309500D01*
X336500Y326500D02*
X411500D01*
Y381500D01*
X336500D01*
Y326500D01*
X393500Y315000D02*
Y443000D01*
X584500D01*
Y315000D01*
X393500D01*
X415105D02*
X482895D01*
Y273000D01*
X415105D01*
Y315000D01*
X444500Y286610D02*
X483500D01*
Y306610D01*
X444500D01*
Y286610D01*
X444500Y284000D02*
X484500D01*
Y264000D01*
X444500D01*
Y284000D01*
X499500Y264500D02*
Y303500D01*
X518500D01*
Y264500D01*
X499500D01*
X589000Y319500D02*
Y358500D01*
X609000D01*
Y319500D01*
X589000D01*
X624300Y326749D02*
Y462049D01*
X653700D01*
Y326749D01*
X624300D01*
X486000Y424000D02*
X467000D01*
Y384000D01*
X486000D01*
Y424000D01*
X463928D02*
X444929D01*
Y384000D01*
X463928D01*
Y424000D01*
X509557Y481500D02*
Y520500D01*
X489557D01*
Y481500D01*
X509557D01*
X513057D02*
Y520500D01*
X533057D01*
Y481500D01*
X513057D01*
X536557D02*
Y520500D01*
X556557D01*
Y481500D01*
X536557D01*
X560057D02*
Y520500D01*
X580057D01*
Y481500D01*
X560057D01*
X560057Y531500D02*
Y570500D01*
X579057D01*
Y531500D01*
X560057D01*
X560557Y531500D02*
X579557D01*
Y570500D01*
X560557D01*
Y531500D01*
X555414Y531500D02*
Y570500D01*
X536414D01*
Y531500D01*
X555414D01*
Y531500D02*
Y570500D01*
X536414D01*
Y531500D01*
X555414D01*
X531771D02*
Y570500D01*
X512771D01*
Y531500D01*
X531771D01*
Y531500D02*
Y570500D01*
X512771D01*
Y531500D01*
X531771D01*
X508129D02*
Y570500D01*
X489128D01*
Y531500D01*
X508129D01*
Y531500D02*
Y570500D01*
X489128D01*
Y531500D01*
X508129D01*
X484486D02*
Y570500D01*
X465486D01*
Y531500D01*
X484486D01*
Y531500D02*
Y570500D01*
X465486D01*
Y531500D01*
X484486D01*
X486057Y520500D02*
Y481500D01*
X466057D01*
Y520500D01*
X486057D01*
X462557D02*
Y481500D01*
X442557D01*
Y520500D01*
X462557D01*
X460843Y531500D02*
Y570500D01*
X441843D01*
Y531500D01*
X460843D01*
Y532401D02*
Y571401D01*
X441843D01*
Y532401D01*
X460843D01*
X438200Y531500D02*
Y570500D01*
X418200D01*
Y531500D01*
X438200D01*
X437200Y531500D02*
Y570500D01*
X418200D01*
Y531500D01*
X437200D01*
Y520500D02*
Y481500D01*
X418200D01*
Y520500D01*
X437200D01*
Y520500D02*
Y481500D01*
X418200D01*
Y520500D01*
X437200D01*
X414557Y520500D02*
Y481500D01*
X395557D01*
Y520500D01*
X414557D01*
X414057Y520500D02*
Y481500D01*
X395057D01*
Y520500D01*
X414057D01*
X414557Y531500D02*
Y570500D01*
X394557D01*
Y531500D01*
X414557D01*
X413557Y531500D02*
Y570500D01*
X394557D01*
Y531500D01*
X413557D01*
X335071Y583064D02*
Y622064D01*
X316072D01*
Y583064D01*
X335071D01*
X310072D02*
Y622064D01*
X291072D01*
Y583064D01*
X310072D01*
X285072D02*
Y622064D01*
X266072D01*
Y583064D01*
X285072D01*
X265100Y361851D02*
X304100D01*
Y341851D01*
X265100D01*
Y361851D01*
X265572Y338500D02*
X304572D01*
Y319500D01*
X265572D01*
Y338500D01*
D63*
X240000Y237968D02*
X237968Y242032D01*
X242032D01*
X240000Y237968D01*
Y238984D02*
X238984Y241016D01*
X241016D01*
X240000Y238984D01*
X300000D02*
X298984Y241016D01*
X301016D01*
X300000Y238984D01*
Y237968D02*
X297968Y242032D01*
X302032D01*
X300000Y237968D01*
X286132Y264578D02*
X282068D01*
Y268642D01*
X286132D01*
Y264578D01*
X285116Y265594D02*
X283084D01*
Y267626D01*
X285116D01*
Y265594D01*
X330000Y297968D02*
X327968Y302032D01*
X332032D01*
X330000Y297968D01*
Y298984D02*
X328984Y301016D01*
X331016D01*
X330000Y298984D01*
X286132Y293642D02*
Y289578D01*
X282068D01*
Y293642D01*
X286132D01*
X285116Y292626D02*
Y290594D01*
X283084D01*
Y292626D01*
X285116D01*
X270000Y297968D02*
X267968Y302032D01*
X272032D01*
X270000Y297968D01*
Y298984D02*
X268984Y301016D01*
X271016D01*
X270000Y298984D01*
X259000Y349819D02*
X256968Y353883D01*
X261032D01*
X259000Y349819D01*
Y350835D02*
X257984Y352867D01*
X260016D01*
X259000Y350835D01*
X240000Y357968D02*
X237968Y362032D01*
X242032D01*
X240000Y357968D01*
Y358984D02*
X238984Y361016D01*
X241016D01*
X240000Y358984D01*
X270000Y417968D02*
X267968Y422032D01*
X272032D01*
X270000Y417968D01*
Y418984D02*
X268984Y421016D01*
X271016D01*
X270000Y418984D01*
X240000Y477968D02*
X237968Y482032D01*
X242032D01*
X240000Y477968D01*
Y478984D02*
X238984Y481016D01*
X241016D01*
X240000Y478984D01*
X272040Y496968D02*
Y501032D01*
X276103D01*
Y496968D01*
X272040D01*
X330000Y537968D02*
X327968Y542032D01*
X332032D01*
X330000Y537968D01*
Y538984D02*
X328984Y541016D01*
X331016D01*
X330000Y538984D01*
X360000Y597968D02*
X357968Y602032D01*
X362032D01*
X360000Y597968D01*
Y598984D02*
X358984Y601016D01*
X361016D01*
X360000Y598984D01*
X391734Y609618D02*
X393766D01*
Y610634D01*
X394782D01*
Y612666D01*
X393766D01*
Y613682D01*
X391734D01*
Y612666D01*
X390718D01*
Y610634D01*
X391734D01*
Y609618D01*
X390718Y634118D02*
X391734Y636150D01*
X390718Y638182D01*
X392750Y637166D01*
X394782Y638182D01*
X393766Y636150D01*
X394782Y634118D01*
X392750Y635134D01*
X390718Y634118D01*
X415718D02*
X416734Y636150D01*
X415718Y638182D01*
X417750Y637166D01*
X419782Y638182D01*
X418766Y636150D01*
X419782Y634118D01*
X417750Y635134D01*
X415718Y634118D01*
Y613682D02*
X417750Y612666D01*
X419782Y613682D01*
X418766Y611650D01*
X419782Y609618D01*
X417750Y610634D01*
X415718Y609618D01*
X416734Y611650D01*
X415718Y613682D01*
X440718D02*
X442750Y612666D01*
X444782Y613682D01*
X443766Y611650D01*
X444782Y609618D01*
X442750Y610634D01*
X440718Y609618D01*
X441734Y611650D01*
X440718Y613682D01*
Y634118D02*
X441734Y636150D01*
X440718Y638182D01*
X442750Y637166D01*
X444782Y638182D01*
X443766Y636150D01*
X444782Y634118D01*
X442750Y635134D01*
X440718Y634118D01*
X465718D02*
X466734Y636150D01*
X465718Y638182D01*
X467750Y637166D01*
X469782Y638182D01*
X468766Y636150D01*
X469782Y634118D01*
X467750Y635134D01*
X465718Y634118D01*
Y613682D02*
X467750Y612666D01*
X469782Y613682D01*
X468766Y611650D01*
X469782Y609618D01*
X467750Y610634D01*
X465718Y609618D01*
X466734Y611650D01*
X465718Y613682D01*
X490718D02*
X492750Y612666D01*
X494782Y613682D01*
X493766Y611650D01*
X494782Y609618D01*
X492750Y610634D01*
X490718Y609618D01*
X491734Y611650D01*
X490718Y613682D01*
Y634118D02*
X491734Y636150D01*
X490718Y638182D01*
X492750Y637166D01*
X494782Y638182D01*
X493766Y636150D01*
X494782Y634118D01*
X492750Y635134D01*
X490718Y634118D01*
X515718D02*
X516734Y636150D01*
X515718Y638182D01*
X517750Y637166D01*
X519782Y638182D01*
X518766Y636150D01*
X519782Y634118D01*
X517750Y635134D01*
X515718Y634118D01*
Y613682D02*
X517750Y612666D01*
X519782Y613682D01*
X518766Y611650D01*
X519782Y609618D01*
X517750Y610634D01*
X515718Y609618D01*
X516734Y611650D01*
X515718Y613682D01*
X540718D02*
X542750Y612666D01*
X544782Y613682D01*
X543766Y611650D01*
X544782Y609618D01*
X542750Y610634D01*
X540718Y609618D01*
X541734Y611650D01*
X540718Y613682D01*
Y634118D02*
X541734Y636150D01*
X540718Y638182D01*
X542750Y637166D01*
X544782Y638182D01*
X543766Y636150D01*
X544782Y634118D01*
X542750Y635134D01*
X540718Y634118D01*
X565718D02*
X566734Y636150D01*
X565718Y638182D01*
X567750Y637166D01*
X569782Y638182D01*
X568766Y636150D01*
X569782Y634118D01*
X567750Y635134D01*
X565718Y634118D01*
Y613682D02*
X567750Y612666D01*
X569782Y613682D01*
X568766Y611650D01*
X569782Y609618D01*
X567750Y610634D01*
X565718Y609618D01*
X566734Y611650D01*
X565718Y613682D01*
X597968Y602032D02*
X602032D01*
X600000Y597968D01*
X597968Y602032D01*
X598984Y601016D02*
X601016D01*
X600000Y598984D01*
X598984Y601016D01*
X631968Y621968D02*
Y626032D01*
X636032D01*
Y621968D01*
X631968D01*
X632032Y542032D02*
X630000Y537968D01*
X627968Y542032D01*
X632032D01*
X631016Y541016D02*
X630000Y538984D01*
X628984Y541016D01*
X631016D01*
X572089Y528032D02*
X570057Y523968D01*
X568025Y528032D01*
X572089D01*
X571073Y527016D02*
X570057Y524984D01*
X569041Y527016D01*
X571073D01*
X547946Y528032D02*
X545914Y523968D01*
X543882Y528032D01*
X547946D01*
X546930Y527016D02*
X545914Y524984D01*
X544898Y527016D01*
X546930D01*
X524303Y528032D02*
X522271Y523968D01*
X520239Y528032D01*
X524303D01*
X523287Y527016D02*
X522271Y524984D01*
X521255Y527016D01*
X523287D01*
X500661Y528032D02*
X498629Y523968D01*
X496596Y528032D01*
X500661D01*
X499645Y527016D02*
X498629Y524984D01*
X497612Y527016D01*
X499645D01*
X477018Y527818D02*
X474986Y523754D01*
X472954Y527818D01*
X477018D01*
X476002Y526802D02*
X474986Y524770D01*
X473970Y526802D01*
X476002D01*
X453375Y528032D02*
X451343Y523968D01*
X449311Y528032D01*
X453375D01*
X452359Y527016D02*
X451343Y524984D01*
X450327Y527016D01*
X452359D01*
X429732Y528032D02*
X427700Y523968D01*
X425668Y528032D01*
X429732D01*
X428716Y527016D02*
X427700Y524984D01*
X426684Y527016D01*
X428716D01*
X390000Y537968D02*
X387968Y542032D01*
X392032D01*
X390000Y537968D01*
Y538984D02*
X388984Y541016D01*
X391016D01*
X390000Y538984D01*
X402025Y528532D02*
X406089D01*
X404057Y524468D01*
X402025Y528532D01*
X403041Y527516D02*
X405073D01*
X404057Y525484D01*
X403041Y527516D01*
X387092Y516532D02*
X385060Y512468D01*
X383028Y516532D01*
X387092D01*
X386076Y515516D02*
X385060Y513484D01*
X384044Y515516D01*
X386076D01*
X403025Y468032D02*
X407089D01*
X405057Y463968D01*
X403025Y468032D01*
X404041Y467016D02*
X406073D01*
X405057Y464984D01*
X404041Y467016D01*
X425668Y468032D02*
X429732D01*
X427700Y463968D01*
X425668Y468032D01*
X426684Y467016D02*
X428716D01*
X427700Y464984D01*
X426684Y467016D01*
X438218Y453975D02*
Y452959D01*
X439234Y451943D01*
X438218Y450927D01*
Y449911D01*
X439234D01*
X440250Y450927D01*
X441266Y449911D01*
X442282D01*
Y450927D01*
X441266Y451943D01*
X442282Y452959D01*
Y453975D01*
X441266D01*
X440250Y452959D01*
X439234Y453975D01*
X438218D01*
X476000Y470247D02*
X473968Y474310D01*
X478032D01*
X476000Y470247D01*
Y471263D02*
X474984Y473294D01*
X477016D01*
X476000Y471263D01*
X486968Y453725D02*
Y452709D01*
X487984Y451693D01*
X486968Y450677D01*
Y449661D01*
X487984D01*
X489000Y450677D01*
X490016Y449661D01*
X491032D01*
Y450677D01*
X490016Y451693D01*
X491032Y452709D01*
Y453725D01*
X490016D01*
X489000Y452709D01*
X487984Y453725D01*
X486968D01*
X516968Y392032D02*
X521032D01*
X519000Y387968D01*
X516968Y392032D01*
X517984Y391016D02*
X520016D01*
X519000Y388984D01*
X517984Y391016D01*
X516032Y361032D02*
X514000Y356968D01*
X511968Y361032D01*
X516032D01*
X515016Y360016D02*
X514000Y357984D01*
X512984Y360016D01*
X515016D01*
X531968Y366032D02*
X536032D01*
X534000Y361968D01*
X531968Y366032D01*
X532984Y365016D02*
X535016D01*
X534000Y362984D01*
X532984Y365016D01*
X496032Y366032D02*
X494000Y361968D01*
X491968Y366032D01*
X496032D01*
X495016Y365016D02*
X494000Y362984D01*
X492984Y365016D01*
X495016D01*
X480182Y366032D02*
X478150Y361968D01*
X476118Y366032D01*
X480182D01*
X479166Y365016D02*
X478150Y362984D01*
X477134Y365016D01*
X479166D01*
X432818Y371018D02*
X430786Y366954D01*
X428754Y371018D01*
X432818D01*
X431802Y370002D02*
X430786Y367970D01*
X429770Y370002D01*
X431802D01*
X451569Y353883D02*
X455633D01*
X453601Y349819D01*
X451569Y353883D01*
X452585Y352867D02*
X454617D01*
X453601Y350835D01*
X452585Y352867D01*
X454168Y316032D02*
X458232D01*
X456200Y311968D01*
X454168Y316032D01*
X455184Y315016D02*
X457216D01*
X456200Y312984D01*
X455184Y315016D01*
X489768Y271032D02*
X493832D01*
X491800Y266968D01*
X489768Y271032D01*
X490784Y270016D02*
X492816D01*
X491800Y267984D01*
X490784Y270016D01*
X526000Y299968D02*
X523968Y304032D01*
X528032D01*
X526000Y299968D01*
Y300984D02*
X524984Y303016D01*
X527016D01*
X526000Y300984D01*
X546968Y269000D02*
X549000Y271032D01*
X551032Y269000D01*
X549000Y266968D01*
X546968Y269000D01*
X542032Y242032D02*
X540000Y237968D01*
X537968Y242032D01*
X542032D01*
X541016Y241016D02*
X540000Y238984D01*
X538984Y241016D01*
X541016D01*
X597968Y242032D02*
X602032D01*
X600000Y237968D01*
X597968Y242032D01*
X598984Y241016D02*
X601016D01*
X600000Y238984D01*
X598984Y241016D01*
X631968Y271674D02*
Y275738D01*
X636032D01*
Y271674D01*
X631968D01*
X570000Y297968D02*
X567968Y302032D01*
X572032D01*
X570000Y297968D01*
Y298984D02*
X568984Y301016D01*
X571016D01*
X570000Y298984D01*
X549500Y288832D02*
X551532Y286800D01*
X549500Y284768D01*
X547468Y286800D01*
X549500Y288832D01*
X493832D02*
X491800Y284768D01*
X489768Y288832D01*
X493832D01*
X492816Y287816D02*
X491800Y285784D01*
X490784Y287816D01*
X492816D01*
X482032Y242032D02*
X480000Y237968D01*
X477968Y242032D01*
X482032D01*
X481016Y241016D02*
X480000Y238984D01*
X478984Y241016D01*
X481016D01*
X422032Y242032D02*
X420000Y237968D01*
X417968Y242032D01*
X422032D01*
X421016Y241016D02*
X420000Y238984D01*
X418984Y241016D01*
X421016D01*
X362032Y242032D02*
X360000Y237968D01*
X357968Y242032D01*
X362032D01*
X361016Y241016D02*
X360000Y238984D01*
X358984Y241016D01*
X361016D01*
X420000Y357968D02*
X417968Y362032D01*
X422032D01*
X420000Y357968D01*
Y358984D02*
X418984Y361016D01*
X421016D01*
X420000Y358984D01*
X390000Y417968D02*
X387968Y422032D01*
X392032D01*
X390000Y417968D01*
Y418984D02*
X388984Y421016D01*
X391016D01*
X390000Y418984D01*
X357932Y391032D02*
X355900Y386968D01*
X353868Y391032D01*
X357932D01*
X356916Y390016D02*
X355900Y387984D01*
X354884Y390016D01*
X356916D01*
X270000Y537968D02*
X267968Y542032D01*
X272032D01*
X270000Y537968D01*
Y538984D02*
X268984Y541016D01*
X271016D01*
X270000Y538984D01*
X300000Y597968D02*
X297968Y602032D01*
X302032D01*
X300000Y597968D01*
Y598984D02*
X298984Y601016D01*
X301016D01*
X300000Y598984D01*
X325572Y640532D02*
X323540Y644596D01*
X327603D01*
X325572Y640532D01*
Y641548D02*
X324556Y643580D01*
X326587D01*
X325572Y641548D01*
X300571D02*
X299555Y643580D01*
X301588D01*
X300571Y641548D01*
Y640532D02*
X298540Y644596D01*
X302603D01*
X300571Y640532D01*
X275571D02*
X273540Y644596D01*
X277603D01*
X275571Y640532D01*
Y641548D02*
X274555Y643580D01*
X276588D01*
X275571Y641548D01*
X242032Y602032D02*
X240000Y597968D01*
X237968Y602032D01*
X242032D01*
X241016Y601016D02*
X240000Y598984D01*
X238984Y601016D01*
X241016D01*
X478218Y649134D02*
X479234D01*
X480250Y648118D01*
X481266Y649134D01*
X482282D01*
X481266Y650150D01*
X482282Y651166D01*
X481266D01*
X480250Y652182D01*
X479234Y651166D01*
X478218D01*
X479234Y650150D01*
X478218Y649134D01*
X597968Y482032D02*
X602032D01*
X600000Y477968D01*
X597968Y482032D01*
X598984Y481016D02*
X601016D01*
X600000Y478984D01*
X598984Y481016D01*
X636968Y421832D02*
X641032D01*
X639000Y417768D01*
X636968Y421832D01*
Y396432D02*
X641032D01*
X639000Y392368D01*
X636968Y396432D01*
Y371032D02*
X641032D01*
X639000Y366968D01*
X636968Y371032D01*
Y345632D02*
X641032D01*
X639000Y341568D01*
X636968Y345632D01*
X639000Y443168D02*
X636968Y447232D01*
X641032D01*
X639000Y443168D01*
D64*
X357932Y266610D02*
G03*
X357932Y266610I-2032J0D01*
G01*
X382932D02*
G03*
X382932Y266610I-2032J0D01*
G01*
Y291610D02*
G03*
X382932Y291610I-2032J0D01*
G01*
X357932D02*
G03*
X357932Y291610I-2032J0D01*
G01*
X286203Y385436D02*
G03*
X286203Y385436I-2032J0D01*
G01*
X325603Y415436D02*
G03*
X325603Y415436I-2032J0D01*
G01*
X286203Y445436D02*
G03*
X286203Y445436I-2032J0D01*
G01*
X295604Y415436D02*
G03*
X295604Y415436I-2032J0D01*
G01*
D65*
X356916Y266610D02*
G03*
X356916Y266610I-1016J0D01*
G01*
X381916D02*
G03*
X381916Y266610I-1016J0D01*
G01*
Y291610D02*
G03*
X381916Y291610I-1016J0D01*
G01*
X356916D02*
G03*
X356916Y291610I-1016J0D01*
G01*
M02*
