G04*
G04 #@! TF.GenerationSoftware,Altium Limited,Altium Designer,24.1.2 (44)*
G04*
G04 Layer_Color=16711935*
%FSLAX44Y44*%
%MOMM*%
G71*
G04*
G04 #@! TF.SameCoordinates,E38D7037-6A90-4068-B891-1ACC2802136D*
G04*
G04*
G04 #@! TF.FilePolarity,Negative*
G04*
G01*
G75*
%ADD28C,2.0032*%
%ADD29C,1.4032*%
%ADD30R,1.4032X1.4032*%
%ADD31C,2.0782*%
%ADD32C,0.8782*%
%ADD33R,1.4032X1.4032*%
%ADD34C,0.9032*%
G04:AMPARAMS|DCode=44|XSize=5.2032mm|YSize=5.2032mm|CornerRadius=1.3516mm|HoleSize=0mm|Usage=FLASHONLY|Rotation=0.000|XOffset=0mm|YOffset=0mm|HoleType=Round|Shape=RoundedRectangle|*
%AMROUNDEDRECTD44*
21,1,5.2032,2.5000,0,0,0.0*
21,1,2.5000,5.2032,0,0,0.0*
1,1,2.7032,1.2500,-1.2500*
1,1,2.7032,-1.2500,-1.2500*
1,1,2.7032,-1.2500,1.2500*
1,1,2.7032,1.2500,1.2500*
%
%ADD44ROUNDEDRECTD44*%
D28*
X431800Y193040D02*
D03*
Y167640D02*
D03*
X389890Y191770D02*
D03*
Y166370D02*
D03*
X346710Y193040D02*
D03*
Y167640D02*
D03*
X585470Y302260D02*
D03*
X560070D02*
D03*
X660400Y76200D02*
D03*
X635000D02*
D03*
X660400Y118110D02*
D03*
X635000D02*
D03*
X660400Y158750D02*
D03*
X635000D02*
D03*
X660400Y198120D02*
D03*
X635000D02*
D03*
X660400Y237490D02*
D03*
X635000D02*
D03*
X660400Y276860D02*
D03*
X635000D02*
D03*
X651510Y596900D02*
D03*
X676910D02*
D03*
X650240Y558800D02*
D03*
X675640D02*
D03*
X650240Y523240D02*
D03*
X675640D02*
D03*
X650240Y486410D02*
D03*
X675640D02*
D03*
X650240Y450850D02*
D03*
X675640D02*
D03*
X650240Y415290D02*
D03*
X675640D02*
D03*
X560070Y530860D02*
D03*
X585470D02*
D03*
X478790Y194310D02*
D03*
Y168910D02*
D03*
X539014Y143510D02*
D03*
Y118110D02*
D03*
D29*
X443230Y323850D02*
D03*
Y298450D02*
D03*
X469900Y455930D02*
D03*
Y481330D02*
D03*
X562610Y608330D02*
D03*
X537210D02*
D03*
D30*
X443230Y273050D02*
D03*
X469900Y506730D02*
D03*
D31*
X351520Y98490D02*
D03*
X376520D02*
D03*
X401520D02*
D03*
X426520D02*
D03*
X451520D02*
D03*
X476520D02*
D03*
X351520Y123490D02*
D03*
X376520D02*
D03*
X401520D02*
D03*
X426520D02*
D03*
X451520D02*
D03*
X476520D02*
D03*
X768350Y284550D02*
D03*
Y259550D02*
D03*
Y234550D02*
D03*
Y209550D02*
D03*
Y184550D02*
D03*
Y159550D02*
D03*
X793350Y284550D02*
D03*
Y259550D02*
D03*
Y234550D02*
D03*
Y209550D02*
D03*
Y184550D02*
D03*
Y159550D02*
D03*
X772160Y430460D02*
D03*
Y455460D02*
D03*
Y480460D02*
D03*
Y505460D02*
D03*
Y530460D02*
D03*
Y555460D02*
D03*
X747160Y430460D02*
D03*
Y455460D02*
D03*
Y480460D02*
D03*
Y505460D02*
D03*
Y530460D02*
D03*
Y555460D02*
D03*
X185820Y574040D02*
D03*
X210820D02*
D03*
X235820D02*
D03*
X260820D02*
D03*
X285820D02*
D03*
X310820D02*
D03*
X185820Y599040D02*
D03*
X210820D02*
D03*
X235820D02*
D03*
X260820D02*
D03*
X285820D02*
D03*
X310820D02*
D03*
X291770Y97390D02*
D03*
X266770D02*
D03*
X241770D02*
D03*
X216770D02*
D03*
X191770D02*
D03*
X166770D02*
D03*
X291770Y72390D02*
D03*
X266770D02*
D03*
X241770D02*
D03*
X216770D02*
D03*
X191770D02*
D03*
X166770D02*
D03*
D32*
X414020Y85090D02*
D03*
X754950Y222050D02*
D03*
X785560Y492960D02*
D03*
X248320Y560640D02*
D03*
X229270Y110790D02*
D03*
D33*
X511810Y608330D02*
D03*
D34*
X307340Y346710D02*
D03*
X330000Y360000D02*
D03*
X389890Y439420D02*
D03*
X301566Y181566D02*
D03*
X204470Y314960D02*
D03*
X222250Y323850D02*
D03*
X237490Y312420D02*
D03*
X360000Y540000D02*
D03*
X810000Y600000D02*
D03*
Y480000D02*
D03*
Y360000D02*
D03*
X750000Y600000D02*
D03*
X720000Y540000D02*
D03*
Y420000D02*
D03*
Y300000D02*
D03*
X750000Y120000D02*
D03*
X720000Y60000D02*
D03*
X660000Y540000D02*
D03*
X690000Y360000D02*
D03*
X660000Y300000D02*
D03*
Y180000D02*
D03*
X690000Y120000D02*
D03*
X630000Y600000D02*
D03*
X600000Y420000D02*
D03*
Y180000D02*
D03*
Y60000D02*
D03*
X540000Y540000D02*
D03*
X570000Y480000D02*
D03*
X540000Y420000D02*
D03*
X570000Y360000D02*
D03*
Y240000D02*
D03*
X540000Y180000D02*
D03*
X570000Y120000D02*
D03*
X540000Y60000D02*
D03*
X480000Y540000D02*
D03*
X510000Y480000D02*
D03*
X480000Y420000D02*
D03*
Y300000D02*
D03*
X510000Y240000D02*
D03*
Y120000D02*
D03*
X480000Y60000D02*
D03*
X420000Y540000D02*
D03*
Y300000D02*
D03*
X450000Y240000D02*
D03*
X420000Y180000D02*
D03*
X360000Y420000D02*
D03*
X390000Y360000D02*
D03*
X360000Y300000D02*
D03*
X390000Y240000D02*
D03*
X360000Y180000D02*
D03*
X330000Y600000D02*
D03*
X300000Y540000D02*
D03*
X330000Y480000D02*
D03*
X300000Y300000D02*
D03*
X330000Y240000D02*
D03*
X270000Y480000D02*
D03*
Y360000D02*
D03*
X240000Y300000D02*
D03*
X270000Y240000D02*
D03*
X180000Y420000D02*
D03*
X90000Y600000D02*
D03*
X60000Y540000D02*
D03*
Y300000D02*
D03*
Y60000D02*
D03*
X40640Y447040D02*
D03*
X41910Y422910D02*
D03*
Y397510D02*
D03*
X43180Y373380D02*
D03*
Y345440D02*
D03*
X44450Y321310D02*
D03*
X41910Y294640D02*
D03*
Y270510D02*
D03*
X43180Y245110D02*
D03*
Y219710D02*
D03*
Y193040D02*
D03*
Y168910D02*
D03*
D44*
X540000Y27000D02*
D03*
M02*
