G04*
G04 #@! TF.GenerationSoftware,Altium Limited,Altium Designer,24.1.2 (44)*
G04*
G04 Layer_Color=8421504*
%FSLAX44Y44*%
%MOMM*%
G71*
G04*
G04 #@! TF.SameCoordinates,8026E52B-AA0B-4AC6-8547-A5A81626C292*
G04*
G04*
G04 #@! TF.FilePolarity,Positive*
G04*
G01*
G75*
G04:AMPARAMS|DCode=12|XSize=1.2mm|YSize=1.1mm|CornerRadius=0.275mm|HoleSize=0mm|Usage=FLASHONLY|Rotation=270.000|XOffset=0mm|YOffset=0mm|HoleType=Round|Shape=RoundedRectangle|*
%AMROUNDEDRECTD12*
21,1,1.2000,0.5500,0,0,270.0*
21,1,0.6500,1.1000,0,0,270.0*
1,1,0.5500,-0.2750,-0.3250*
1,1,0.5500,-0.2750,0.3250*
1,1,0.5500,0.2750,0.3250*
1,1,0.5500,0.2750,-0.3250*
%
%ADD12ROUNDEDRECTD12*%
%ADD13R,1.9500X1.4000*%
%ADD14R,1.3500X1.1500*%
%ADD15R,1.1500X1.3500*%
%ADD16R,1.8000X1.0000*%
G04:AMPARAMS|DCode=17|XSize=1.2mm|YSize=1.1mm|CornerRadius=0.275mm|HoleSize=0mm|Usage=FLASHONLY|Rotation=0.000|XOffset=0mm|YOffset=0mm|HoleType=Round|Shape=RoundedRectangle|*
%AMROUNDEDRECTD17*
21,1,1.2000,0.5500,0,0,0.0*
21,1,0.6500,1.1000,0,0,0.0*
1,1,0.5500,0.3250,-0.2750*
1,1,0.5500,-0.3250,-0.2750*
1,1,0.5500,-0.3250,0.2750*
1,1,0.5500,0.3250,0.2750*
%
%ADD17ROUNDEDRECTD17*%
D12*
X359070Y255270D02*
D03*
X380070D02*
D03*
X316570Y262890D02*
D03*
X295570D02*
D03*
X242230Y264160D02*
D03*
X263230D02*
D03*
X808990Y38100D02*
D03*
X787990D02*
D03*
X728050D02*
D03*
X707050D02*
D03*
X644230D02*
D03*
X623230D02*
D03*
X580730Y350520D02*
D03*
X559730D02*
D03*
X582000Y381000D02*
D03*
X561000D02*
D03*
X582930Y411480D02*
D03*
X561930D02*
D03*
D13*
X176530Y189200D02*
D03*
Y217200D02*
D03*
X826770Y104170D02*
D03*
Y76170D02*
D03*
X789940Y104170D02*
D03*
Y76170D02*
D03*
X742950Y104170D02*
D03*
Y76170D02*
D03*
X214630Y189200D02*
D03*
Y217200D02*
D03*
D14*
X252730Y194310D02*
D03*
Y212810D02*
D03*
X318770Y194860D02*
D03*
Y213360D02*
D03*
X284480Y193950D02*
D03*
Y212450D02*
D03*
D15*
X693780Y317500D02*
D03*
X675280D02*
D03*
X693780Y345440D02*
D03*
X675280D02*
D03*
X693780Y373380D02*
D03*
X675280D02*
D03*
D16*
X93980Y448310D02*
D03*
X41980D02*
D03*
X93980Y372110D02*
D03*
X41980D02*
D03*
X93980Y346710D02*
D03*
X41980D02*
D03*
X93980Y295910D02*
D03*
X41980D02*
D03*
X93980Y245110D02*
D03*
X41980D02*
D03*
X93980Y219710D02*
D03*
X41980D02*
D03*
Y168910D02*
D03*
X93980D02*
D03*
X41980Y194310D02*
D03*
X93980D02*
D03*
X41980Y270510D02*
D03*
X93980D02*
D03*
X41980Y321310D02*
D03*
X93980D02*
D03*
X41980Y397510D02*
D03*
X93980D02*
D03*
X41980Y422910D02*
D03*
X93980D02*
D03*
X41980Y473710D02*
D03*
Y499110D02*
D03*
X93980Y473710D02*
D03*
Y499110D02*
D03*
D17*
X170180Y268900D02*
D03*
Y289900D02*
D03*
X207010Y270170D02*
D03*
Y291170D02*
D03*
M02*
