G04*
G04 #@! TF.GenerationSoftware,Altium Limited,Altium Designer,24.1.2 (44)*
G04*
G04 Layer_Color=32896*
%FSLAX44Y44*%
%MOMM*%
G71*
G04*
G04 #@! TF.SameCoordinates,8026E52B-AA0B-4AC6-8547-A5A81626C292*
G04*
G04*
G04 #@! TF.FilePolarity,Positive*
G04*
G01*
G75*
G36*
X216806Y270090D02*
X216945Y270044D01*
X217130Y269812D01*
X217223Y269581D01*
Y269534D01*
Y269488D01*
Y250838D01*
X217177Y250606D01*
X217130Y250468D01*
X216899Y250283D01*
X216668Y250190D01*
X214122D01*
X213891Y250236D01*
X213706Y250283D01*
X213613Y250375D01*
X213521Y250514D01*
X213428Y250745D01*
Y250792D01*
Y250838D01*
Y263472D01*
X213382Y264074D01*
X213289Y264583D01*
X213150Y264999D01*
X212919Y265416D01*
X212688Y265740D01*
X212410Y265971D01*
X212132Y266203D01*
X211808Y266388D01*
X211253Y266619D01*
X210744Y266758D01*
X210513Y266804D01*
X208384D01*
X207875Y266758D01*
X207458Y266665D01*
X207042Y266526D01*
X206718Y266341D01*
X206440Y266110D01*
X206209Y265879D01*
X205885Y265369D01*
X205653Y264814D01*
X205561Y264351D01*
X205514Y264166D01*
Y264027D01*
Y263935D01*
Y263888D01*
Y250838D01*
X205468Y250606D01*
X205422Y250468D01*
X205190Y250283D01*
X204959Y250190D01*
X202414D01*
X202182Y250236D01*
X201997Y250283D01*
X201858Y250375D01*
X201766Y250514D01*
X201673Y250745D01*
Y250792D01*
Y250838D01*
Y264074D01*
X201719Y265092D01*
X201905Y266017D01*
X202136Y266758D01*
X202414Y267406D01*
X202738Y267915D01*
X202969Y268285D01*
X203154Y268470D01*
X203200Y268563D01*
X203848Y269072D01*
X204543Y269488D01*
X205283Y269766D01*
X205977Y269951D01*
X206625Y270044D01*
X207134Y270136D01*
X209865D01*
X210327Y270044D01*
X211207Y269812D01*
X211901Y269488D01*
X212410Y269118D01*
X212826Y268701D01*
X213104Y268378D01*
X213243Y268146D01*
X213289Y268100D01*
Y268054D01*
X213428D01*
Y269488D01*
X213474Y269720D01*
X213521Y269858D01*
X213752Y270044D01*
X214030Y270136D01*
X216575D01*
X216806Y270090D01*
D02*
G37*
G36*
X196536D02*
X196675Y270044D01*
X196860Y269812D01*
X196953Y269581D01*
Y269534D01*
Y269488D01*
Y250838D01*
X196907Y250606D01*
X196860Y250468D01*
X196629Y250283D01*
X196397Y250190D01*
X193852D01*
X193621Y250236D01*
X193436Y250283D01*
X193343Y250375D01*
X193251Y250514D01*
X193158Y250745D01*
Y250792D01*
Y250838D01*
Y263472D01*
X193112Y264074D01*
X193019Y264583D01*
X192880Y264999D01*
X192649Y265416D01*
X192418Y265740D01*
X192140Y265971D01*
X191862Y266203D01*
X191538Y266388D01*
X190983Y266619D01*
X190474Y266758D01*
X190242Y266804D01*
X188114D01*
X187605Y266758D01*
X187188Y266665D01*
X186772Y266526D01*
X186448Y266341D01*
X186170Y266110D01*
X185938Y265879D01*
X185614Y265369D01*
X185383Y264814D01*
X185291Y264351D01*
X185244Y264166D01*
Y264027D01*
Y263935D01*
Y263888D01*
Y250838D01*
X185198Y250606D01*
X185152Y250468D01*
X184920Y250283D01*
X184689Y250190D01*
X182144D01*
X181912Y250236D01*
X181727Y250283D01*
X181588Y250375D01*
X181496Y250514D01*
X181403Y250745D01*
Y250792D01*
Y250838D01*
Y264074D01*
X181449Y265092D01*
X181635Y266017D01*
X181866Y266758D01*
X182144Y267406D01*
X182468Y267915D01*
X182699Y268285D01*
X182884Y268470D01*
X182930Y268563D01*
X183578Y269072D01*
X184272Y269488D01*
X185013Y269766D01*
X185707Y269951D01*
X186355Y270044D01*
X186864Y270136D01*
X189594D01*
X190057Y270044D01*
X190937Y269812D01*
X191631Y269488D01*
X192140Y269118D01*
X192556Y268701D01*
X192834Y268378D01*
X192973Y268146D01*
X193019Y268100D01*
Y268054D01*
X193158D01*
Y269488D01*
X193204Y269720D01*
X193251Y269858D01*
X193482Y270044D01*
X193760Y270136D01*
X196305D01*
X196536Y270090D01*
D02*
G37*
G36*
X363742D02*
X363881Y270044D01*
X364066Y269812D01*
X364158Y269581D01*
Y269534D01*
Y269488D01*
Y250838D01*
X364112Y250606D01*
X364066Y250468D01*
X363834Y250283D01*
X363603Y250190D01*
X361057D01*
X360826Y250236D01*
X360641Y250283D01*
X360548Y250375D01*
X360456Y250514D01*
X360363Y250745D01*
Y250792D01*
Y250838D01*
Y263241D01*
X360317Y263888D01*
X360224Y264398D01*
X360086Y264907D01*
X359854Y265323D01*
X359623Y265647D01*
X359345Y265925D01*
X359021Y266156D01*
X358744Y266341D01*
X358142Y266619D01*
X357633Y266758D01*
X357401Y266804D01*
X354532D01*
X354393Y266850D01*
X354208Y267082D01*
X354116Y267359D01*
Y267406D01*
Y267452D01*
Y269488D01*
X354162Y269720D01*
X354208Y269858D01*
X354440Y270044D01*
X354671Y270136D01*
X356198D01*
X356707Y270090D01*
X357170Y270044D01*
X357587Y269951D01*
X357957Y269858D01*
X358281Y269720D01*
X358512Y269627D01*
X358651Y269581D01*
X358697Y269534D01*
X359067Y269303D01*
X359391Y269072D01*
X359669Y268794D01*
X359854Y268563D01*
X360039Y268331D01*
X360132Y268146D01*
X360224Y268007D01*
Y267961D01*
X360363D01*
Y269488D01*
X360410Y269720D01*
X360456Y269858D01*
X360687Y270044D01*
X360965Y270136D01*
X363510D01*
X363742Y270090D01*
D02*
G37*
G36*
X107589D02*
X107727Y270044D01*
X107912Y269812D01*
X108005Y269581D01*
Y269534D01*
Y269488D01*
Y250838D01*
X107959Y250606D01*
X107912Y250468D01*
X107681Y250283D01*
X107450Y250190D01*
X104904D01*
X104673Y250236D01*
X104488Y250283D01*
X104395Y250375D01*
X104303Y250514D01*
X104210Y250745D01*
Y250792D01*
Y250838D01*
Y263241D01*
X104164Y263888D01*
X104071Y264398D01*
X103932Y264907D01*
X103701Y265323D01*
X103470Y265647D01*
X103192Y265925D01*
X102868Y266156D01*
X102590Y266341D01*
X101989Y266619D01*
X101480Y266758D01*
X101248Y266804D01*
X98379D01*
X98240Y266850D01*
X98055Y267082D01*
X97963Y267359D01*
Y267406D01*
Y267452D01*
Y269488D01*
X98009Y269720D01*
X98055Y269858D01*
X98286Y270044D01*
X98518Y270136D01*
X100045D01*
X100554Y270090D01*
X101017Y270044D01*
X101433Y269951D01*
X101804Y269858D01*
X102128Y269720D01*
X102359Y269627D01*
X102498Y269581D01*
X102544Y269534D01*
X102914Y269303D01*
X103238Y269072D01*
X103516Y268794D01*
X103701Y268563D01*
X103886Y268331D01*
X103979Y268146D01*
X104071Y268007D01*
Y267961D01*
X104210D01*
Y269488D01*
X104256Y269720D01*
X104303Y269858D01*
X104534Y270044D01*
X104812Y270136D01*
X107357D01*
X107589Y270090D01*
D02*
G37*
G36*
X276737Y275273D02*
X277663Y275088D01*
X278450Y274810D01*
X279098Y274533D01*
X279607Y274255D01*
X279977Y273977D01*
X280162Y273792D01*
X280255Y273746D01*
X280764Y273098D01*
X281180Y272404D01*
X281458Y271663D01*
X281643Y270969D01*
X281736Y270321D01*
X281782Y269812D01*
X281828Y269627D01*
Y269488D01*
Y269396D01*
Y269349D01*
Y267822D01*
X281782Y267591D01*
X281736Y267406D01*
X281643Y267313D01*
X281504Y267221D01*
X281273Y267128D01*
X278635D01*
X278403Y267174D01*
X278265Y267221D01*
X278080Y267498D01*
X277987Y267730D01*
Y267776D01*
Y267822D01*
Y269257D01*
X277941Y269812D01*
X277894Y270229D01*
X277802Y270599D01*
X277663Y270923D01*
X277524Y271154D01*
X277432Y271293D01*
X277385Y271386D01*
X277339Y271432D01*
X277061Y271663D01*
X276691Y271802D01*
X275997Y271987D01*
X275673Y272034D01*
X275395Y272080D01*
X273267D01*
X272757Y272034D01*
X272295Y271941D01*
X271878Y271802D01*
X271554Y271663D01*
X271277Y271432D01*
X271045Y271201D01*
X270675Y270692D01*
X270444Y270136D01*
X270351Y269720D01*
X270305Y269534D01*
Y269396D01*
Y269303D01*
Y269257D01*
Y267961D01*
X270397Y267267D01*
X270582Y266619D01*
X270906Y266017D01*
X271230Y265508D01*
X271600Y265092D01*
X271924Y264814D01*
X272110Y264583D01*
X272202Y264536D01*
X279607Y258520D01*
X279977Y258196D01*
X280301Y257872D01*
X280810Y257178D01*
X281180Y256484D01*
X281412Y255882D01*
X281597Y255281D01*
X281643Y254864D01*
X281689Y254679D01*
Y254540D01*
Y254494D01*
Y254448D01*
Y250838D01*
X281643Y250606D01*
X281551Y250468D01*
X281319Y250283D01*
X281041Y250190D01*
X267204D01*
X266973Y250236D01*
X266787Y250283D01*
X266695Y250375D01*
X266602Y250514D01*
X266510Y250745D01*
Y250792D01*
Y250838D01*
Y252920D01*
X266556Y253152D01*
X266602Y253291D01*
X266834Y253476D01*
X267111Y253568D01*
X277385D01*
Y254818D01*
X277339Y255188D01*
X277246Y255512D01*
X277108Y255836D01*
X276923Y256067D01*
X276784Y256299D01*
X276645Y256438D01*
X276552Y256530D01*
X276506Y256576D01*
X268963Y262732D01*
X268546Y263102D01*
X268176Y263518D01*
X267852Y263935D01*
X267574Y264351D01*
X267158Y265184D01*
X266880Y265971D01*
X266741Y266665D01*
X266695Y266943D01*
X266649Y267221D01*
X266602Y267452D01*
Y267591D01*
Y267683D01*
Y267730D01*
Y269349D01*
X266649Y270368D01*
X266834Y271247D01*
X267111Y271987D01*
X267389Y272635D01*
X267713Y273098D01*
X267945Y273468D01*
X268130Y273653D01*
X268222Y273746D01*
X268870Y274255D01*
X269564Y274671D01*
X270305Y274949D01*
X271045Y275134D01*
X271693Y275227D01*
X272202Y275319D01*
X275719D01*
X276737Y275273D01*
D02*
G37*
G36*
X400857D02*
X401042Y275227D01*
X401135Y275134D01*
X401227Y274995D01*
X401320Y274764D01*
Y274718D01*
Y274671D01*
Y250838D01*
X401274Y250606D01*
X401227Y250468D01*
X400950Y250283D01*
X400718Y250190D01*
X398173D01*
X397942Y250236D01*
X397803Y250283D01*
X397618Y250514D01*
X397525Y250745D01*
Y250792D01*
Y250838D01*
Y260094D01*
X397433Y260325D01*
X397294Y260418D01*
X397155Y260464D01*
X389473D01*
X389241Y260510D01*
X389056Y260557D01*
X388964Y260695D01*
X388871Y260834D01*
X388778Y261066D01*
Y261112D01*
Y261158D01*
Y263148D01*
X388825Y263379D01*
X388871Y263518D01*
X389102Y263703D01*
X389380Y263796D01*
X397062D01*
X397340Y263842D01*
X397479Y264027D01*
X397525Y264166D01*
Y264212D01*
Y271617D01*
X397433Y271849D01*
X397294Y271987D01*
X397155Y272034D01*
X388362D01*
X388130Y272080D01*
X387945Y272126D01*
X387853Y272219D01*
X387760Y272358D01*
X387668Y272589D01*
Y272635D01*
Y272682D01*
Y274671D01*
X387714Y274903D01*
X387760Y275042D01*
X387992Y275227D01*
X388269Y275319D01*
X400626D01*
X400857Y275273D01*
D02*
G37*
G36*
X379291Y270090D02*
X380171Y269905D01*
X380957Y269627D01*
X381605Y269349D01*
X382114Y269025D01*
X382485Y268794D01*
X382670Y268609D01*
X382762Y268516D01*
X383271Y267868D01*
X383688Y267174D01*
X383965Y266434D01*
X384151Y265693D01*
X384243Y265046D01*
X384289Y264536D01*
X384336Y264351D01*
Y264212D01*
Y264120D01*
Y264074D01*
Y256252D01*
X384289Y255234D01*
X384104Y254355D01*
X383827Y253568D01*
X383549Y252920D01*
X383271Y252411D01*
X382994Y252041D01*
X382808Y251856D01*
X382762Y251763D01*
X382114Y251254D01*
X381374Y250838D01*
X380633Y250560D01*
X379893Y250375D01*
X379245Y250283D01*
X378736Y250236D01*
X378551Y250190D01*
X374802D01*
X373784Y250236D01*
X372905Y250421D01*
X372118Y250699D01*
X371470Y250977D01*
X370961Y251254D01*
X370591Y251532D01*
X370406Y251717D01*
X370313Y251763D01*
X369758Y252411D01*
X369388Y253152D01*
X369110Y253892D01*
X368879Y254633D01*
X368786Y255281D01*
X368740Y255790D01*
X368693Y255975D01*
Y256114D01*
Y256206D01*
Y256252D01*
Y264074D01*
X368740Y265092D01*
X368925Y265971D01*
X369202Y266758D01*
X369480Y267359D01*
X369804Y267868D01*
X370036Y268239D01*
X370221Y268424D01*
X370313Y268516D01*
X370961Y269072D01*
X371702Y269442D01*
X372442Y269720D01*
X373182Y269951D01*
X373830Y270044D01*
X374339Y270090D01*
X374525Y270136D01*
X378273D01*
X379291Y270090D01*
D02*
G37*
G36*
X340880Y275273D02*
X341065Y275227D01*
X341158Y275134D01*
X341250Y274995D01*
X341343Y274764D01*
Y274718D01*
Y274671D01*
Y250838D01*
X341296Y250606D01*
X341250Y250468D01*
X340972Y250283D01*
X340741Y250190D01*
X338196D01*
X337964Y250236D01*
X337826Y250283D01*
X337640Y250514D01*
X337548Y250745D01*
Y250792D01*
Y250838D01*
Y260094D01*
X337455Y260325D01*
X337316Y260418D01*
X337178Y260464D01*
X329495D01*
X329264Y260510D01*
X329079Y260557D01*
X328986Y260695D01*
X328894Y260834D01*
X328801Y261066D01*
Y261112D01*
Y261158D01*
Y263148D01*
X328847Y263379D01*
X328894Y263518D01*
X329125Y263703D01*
X329403Y263796D01*
X337085D01*
X337363Y263842D01*
X337501Y264027D01*
X337548Y264166D01*
Y264212D01*
Y271617D01*
X337455Y271849D01*
X337316Y271987D01*
X337178Y272034D01*
X328385D01*
X328153Y272080D01*
X327968Y272126D01*
X327876Y272219D01*
X327783Y272358D01*
X327690Y272589D01*
Y272635D01*
Y272682D01*
Y274671D01*
X327737Y274903D01*
X327783Y275042D01*
X328014Y275227D01*
X328292Y275319D01*
X340648D01*
X340880Y275273D01*
D02*
G37*
G36*
X323109D02*
X323294Y275227D01*
X323386Y275134D01*
X323479Y274995D01*
X323572Y274764D01*
Y274718D01*
Y274671D01*
Y250838D01*
X323525Y250606D01*
X323479Y250468D01*
X323201Y250283D01*
X322970Y250190D01*
X320425D01*
X320193Y250236D01*
X320054Y250283D01*
X319869Y250514D01*
X319777Y250745D01*
Y250792D01*
Y250838D01*
Y259446D01*
X319684Y259677D01*
X319545Y259770D01*
X319407Y259816D01*
X315334D01*
X311169Y250838D01*
X311030Y250606D01*
X310845Y250468D01*
X310428Y250283D01*
X310243Y250236D01*
X310058Y250190D01*
X307513D01*
X307235Y250236D01*
X307050Y250329D01*
X306957Y250421D01*
X306911Y250560D01*
X306957Y250838D01*
X307004Y250884D01*
Y250931D01*
X311354Y260094D01*
Y260279D01*
X310706Y260557D01*
X310105Y260834D01*
X309595Y261251D01*
X309179Y261667D01*
X308809Y262084D01*
X308531Y262593D01*
X308253Y263055D01*
X308068Y263518D01*
X307791Y264444D01*
X307698Y264860D01*
X307652Y265184D01*
Y265508D01*
X307605Y265740D01*
Y265879D01*
Y265925D01*
Y269257D01*
X307698Y270275D01*
X307883Y271154D01*
X308114Y271895D01*
X308438Y272543D01*
X308762Y273052D01*
X308994Y273422D01*
X309179Y273607D01*
X309272Y273700D01*
X309919Y274255D01*
X310660Y274625D01*
X311400Y274903D01*
X312094Y275134D01*
X312742Y275227D01*
X313251Y275273D01*
X313437Y275319D01*
X322877D01*
X323109Y275273D01*
D02*
G37*
G36*
X297702D02*
X298581Y275088D01*
X299368Y274810D01*
X300016Y274533D01*
X300525Y274209D01*
X300895Y273977D01*
X301080Y273792D01*
X301173Y273700D01*
X301728Y273052D01*
X302098Y272311D01*
X302376Y271571D01*
X302607Y270877D01*
X302700Y270229D01*
X302746Y269720D01*
X302792Y269534D01*
Y269396D01*
Y269303D01*
Y269257D01*
Y267591D01*
X302746Y266804D01*
X302654Y266110D01*
X302468Y265508D01*
X302283Y264953D01*
X302145Y264536D01*
X301959Y264259D01*
X301867Y264027D01*
X301821Y263981D01*
X301450Y263518D01*
X301034Y263102D01*
X300664Y262778D01*
X300293Y262500D01*
X299969Y262315D01*
X299692Y262176D01*
X299507Y262130D01*
X299460Y262084D01*
X298396Y261713D01*
X297887Y261575D01*
X297424Y261436D01*
X297008Y261297D01*
X296684Y261251D01*
X296499Y261158D01*
X296406D01*
X295758Y261019D01*
X295203Y260927D01*
X294694Y260788D01*
X294231Y260742D01*
X293814Y260649D01*
X293537Y260603D01*
X293352Y260557D01*
X293305D01*
X292796Y260464D01*
X292333Y260325D01*
X291917Y260140D01*
X291547Y260001D01*
X291269Y259816D01*
X291084Y259723D01*
X290945Y259631D01*
X290899Y259585D01*
X290575Y259307D01*
X290343Y258983D01*
X290158Y258659D01*
X290066Y258335D01*
X289973Y258057D01*
X289927Y257826D01*
Y257687D01*
Y257641D01*
Y256762D01*
X289973Y256160D01*
X290066Y255605D01*
X290158Y255188D01*
X290297Y254818D01*
X290482Y254540D01*
X290575Y254355D01*
X290667Y254263D01*
X290714Y254216D01*
X291038Y253985D01*
X291408Y253800D01*
X291778Y253661D01*
X292195Y253568D01*
X292565Y253522D01*
X292843Y253476D01*
X295804D01*
X296406Y253522D01*
X296915Y253615D01*
X297332Y253707D01*
X297656Y253846D01*
X297933Y253985D01*
X298118Y254124D01*
X298211Y254170D01*
X298257Y254216D01*
X298489Y254540D01*
X298674Y254910D01*
X298766Y255281D01*
X298859Y255697D01*
X298905Y256021D01*
X298951Y256299D01*
Y256484D01*
Y256576D01*
Y257271D01*
X298998Y257502D01*
X299044Y257687D01*
X299136Y257780D01*
X299275Y257872D01*
X299507Y257965D01*
X302145D01*
X302376Y257919D01*
X302515Y257872D01*
X302700Y257641D01*
X302792Y257363D01*
Y257317D01*
Y257271D01*
Y256252D01*
X302700Y255234D01*
X302515Y254355D01*
X302283Y253615D01*
X301959Y252967D01*
X301682Y252458D01*
X301404Y252087D01*
X301219Y251902D01*
X301173Y251810D01*
X300478Y251254D01*
X299738Y250884D01*
X298998Y250606D01*
X298257Y250375D01*
X297609Y250283D01*
X297100Y250236D01*
X296915Y250190D01*
X292241D01*
X291223Y250283D01*
X290343Y250468D01*
X289603Y250699D01*
X288955Y251023D01*
X288446Y251301D01*
X288076Y251578D01*
X287891Y251763D01*
X287798Y251810D01*
X287243Y252458D01*
X286826Y253198D01*
X286549Y253939D01*
X286317Y254633D01*
X286225Y255281D01*
X286178Y255790D01*
X286132Y255975D01*
Y256114D01*
Y256206D01*
Y256252D01*
Y257780D01*
X286178Y258474D01*
X286225Y259076D01*
X286364Y259631D01*
X286502Y260094D01*
X286641Y260464D01*
X286734Y260742D01*
X286826Y260927D01*
X286873Y260973D01*
X287150Y261436D01*
X287474Y261852D01*
X287752Y262176D01*
X288076Y262454D01*
X288307Y262685D01*
X288539Y262824D01*
X288677Y262917D01*
X288724Y262963D01*
X289603Y263379D01*
X290019Y263565D01*
X290390Y263703D01*
X290714Y263842D01*
X290991Y263935D01*
X291176Y263981D01*
X291223D01*
X292195Y264259D01*
X292657Y264351D01*
X293074Y264444D01*
X293398Y264490D01*
X293675Y264536D01*
X293861Y264583D01*
X293907D01*
X294879Y264722D01*
X295295Y264814D01*
X295665Y264907D01*
X295989Y264953D01*
X296221Y264999D01*
X296360Y265046D01*
X296406D01*
X296869Y265184D01*
X297239Y265323D01*
X297563Y265508D01*
X297887Y265693D01*
X298350Y266110D01*
X298627Y266480D01*
X298813Y266850D01*
X298905Y267174D01*
X298951Y267359D01*
Y267452D01*
Y268655D01*
X298905Y269303D01*
X298859Y269858D01*
X298720Y270275D01*
X298581Y270645D01*
X298489Y270923D01*
X298350Y271108D01*
X298303Y271201D01*
X298257Y271247D01*
X297933Y271525D01*
X297563Y271710D01*
X297146Y271849D01*
X296730Y271941D01*
X296406Y271987D01*
X296082Y272034D01*
X293352D01*
X292750Y271987D01*
X292287Y271941D01*
X291871Y271802D01*
X291500Y271663D01*
X291269Y271525D01*
X291084Y271432D01*
X290991Y271339D01*
X290945Y271293D01*
X290714Y270969D01*
X290529Y270599D01*
X290390Y270229D01*
X290297Y269812D01*
X290251Y269442D01*
X290205Y269164D01*
Y268979D01*
Y268887D01*
Y268378D01*
X290158Y268146D01*
X290112Y268007D01*
X289881Y267822D01*
X289649Y267730D01*
X287058D01*
X286826Y267776D01*
X286641Y267822D01*
X286549Y267915D01*
X286456Y268054D01*
X286364Y268285D01*
Y268331D01*
Y268378D01*
Y269257D01*
X286456Y270275D01*
X286641Y271154D01*
X286873Y271895D01*
X287197Y272543D01*
X287520Y273052D01*
X287752Y273422D01*
X287937Y273607D01*
X288029Y273700D01*
X288677Y274255D01*
X289418Y274625D01*
X290158Y274903D01*
X290899Y275134D01*
X291547Y275227D01*
X292056Y275273D01*
X292241Y275319D01*
X296684D01*
X297702Y275273D01*
D02*
G37*
G36*
X248230Y270090D02*
X249109Y269905D01*
X249896Y269627D01*
X250544Y269349D01*
X251053Y269025D01*
X251423Y268794D01*
X251608Y268609D01*
X251701Y268516D01*
X252210Y267868D01*
X252626Y267174D01*
X252904Y266434D01*
X253089Y265693D01*
X253182Y265046D01*
X253228Y264536D01*
X253274Y264351D01*
Y264212D01*
Y264120D01*
Y264074D01*
Y256252D01*
X253228Y255234D01*
X253043Y254355D01*
X252765Y253568D01*
X252487Y252920D01*
X252210Y252411D01*
X251932Y252041D01*
X251747Y251856D01*
X251701Y251763D01*
X251053Y251254D01*
X250312Y250838D01*
X249572Y250560D01*
X248831Y250375D01*
X248183Y250283D01*
X247674Y250236D01*
X247489Y250190D01*
X241427D01*
X241195Y250236D01*
X241010Y250283D01*
X240918Y250375D01*
X240825Y250514D01*
X240733Y250699D01*
Y250745D01*
Y250792D01*
Y252828D01*
X240779Y253059D01*
X240825Y253198D01*
X241056Y253383D01*
X241334Y253476D01*
X246656D01*
X247165Y253522D01*
X247582Y253615D01*
X247952Y253754D01*
X248276Y253939D01*
X248554Y254170D01*
X248785Y254401D01*
X249109Y254957D01*
X249340Y255466D01*
X249433Y255929D01*
X249479Y256114D01*
Y256252D01*
Y256345D01*
Y256391D01*
Y263888D01*
X249433Y264398D01*
X249340Y264860D01*
X249202Y265231D01*
X249016Y265555D01*
X248831Y265879D01*
X248600Y266110D01*
X248045Y266434D01*
X247535Y266665D01*
X247073Y266758D01*
X246934Y266804D01*
X241427D01*
X241195Y266850D01*
X241010Y266897D01*
X240918Y266989D01*
X240825Y267128D01*
X240733Y267359D01*
Y267406D01*
Y267452D01*
Y269488D01*
X240779Y269720D01*
X240825Y269858D01*
X241056Y270044D01*
X241334Y270136D01*
X247212D01*
X248230Y270090D01*
D02*
G37*
G36*
X232356D02*
X233235Y269905D01*
X234022Y269627D01*
X234670Y269349D01*
X235179Y269025D01*
X235549Y268794D01*
X235735Y268609D01*
X235827Y268516D01*
X236336Y267868D01*
X236753Y267174D01*
X237030Y266434D01*
X237215Y265693D01*
X237308Y265046D01*
X237354Y264536D01*
X237400Y264351D01*
Y264212D01*
Y264120D01*
Y264074D01*
Y256252D01*
X237354Y255234D01*
X237169Y254355D01*
X236891Y253568D01*
X236614Y252920D01*
X236336Y252411D01*
X236058Y252041D01*
X235873Y251856D01*
X235827Y251763D01*
X235179Y251254D01*
X234439Y250838D01*
X233698Y250560D01*
X232958Y250375D01*
X232310Y250283D01*
X231801Y250236D01*
X231616Y250190D01*
X227867D01*
X226849Y250236D01*
X225970Y250421D01*
X225183Y250699D01*
X224535Y250977D01*
X224026Y251254D01*
X223656Y251532D01*
X223471Y251717D01*
X223378Y251763D01*
X222823Y252411D01*
X222452Y253152D01*
X222175Y253892D01*
X221943Y254633D01*
X221851Y255281D01*
X221805Y255790D01*
X221758Y255975D01*
Y256114D01*
Y256206D01*
Y256252D01*
Y264074D01*
X221805Y265092D01*
X221990Y265971D01*
X222267Y266758D01*
X222545Y267359D01*
X222869Y267868D01*
X223100Y268239D01*
X223286Y268424D01*
X223378Y268516D01*
X224026Y269072D01*
X224766Y269442D01*
X225507Y269720D01*
X226247Y269951D01*
X226895Y270044D01*
X227404Y270090D01*
X227589Y270136D01*
X231338D01*
X232356Y270090D01*
D02*
G37*
G36*
X172055D02*
X172934Y269905D01*
X173721Y269627D01*
X174369Y269349D01*
X174878Y269025D01*
X175248Y268794D01*
X175433Y268609D01*
X175526Y268516D01*
X176035Y267868D01*
X176451Y267174D01*
X176729Y266434D01*
X176914Y265693D01*
X177007Y265046D01*
X177053Y264536D01*
X177099Y264351D01*
Y264212D01*
Y264120D01*
Y264074D01*
Y256252D01*
X177053Y255234D01*
X176868Y254355D01*
X176590Y253568D01*
X176313Y252920D01*
X176035Y252411D01*
X175757Y252041D01*
X175572Y251856D01*
X175526Y251763D01*
X174878Y251254D01*
X174137Y250838D01*
X173397Y250560D01*
X172656Y250375D01*
X172008Y250283D01*
X171500Y250236D01*
X171314Y250190D01*
X162568D01*
X162336Y250236D01*
X162151Y250283D01*
X162059Y250375D01*
X161966Y250514D01*
X161873Y250699D01*
Y250745D01*
Y250792D01*
Y252735D01*
X161920Y252967D01*
X161966Y253152D01*
X162105Y253291D01*
X162197Y253383D01*
X162475Y253476D01*
X170481D01*
X170990Y253522D01*
X171407Y253615D01*
X171777Y253754D01*
X172101Y253939D01*
X172379Y254124D01*
X172610Y254355D01*
X172934Y254910D01*
X173165Y255420D01*
X173258Y255882D01*
X173304Y256021D01*
Y256160D01*
Y256252D01*
Y256299D01*
Y258011D01*
X173258Y258242D01*
X173073Y258335D01*
X172934Y258381D01*
X162383D01*
X162151Y258428D01*
X161966Y258474D01*
X161873Y258613D01*
X161781Y258752D01*
X161688Y258983D01*
Y259029D01*
Y259076D01*
Y264074D01*
X161735Y265092D01*
X161920Y265971D01*
X162197Y266758D01*
X162475Y267359D01*
X162799Y267868D01*
X163030Y268239D01*
X163216Y268424D01*
X163308Y268516D01*
X163956Y269072D01*
X164697Y269442D01*
X165437Y269720D01*
X166177Y269951D01*
X166825Y270044D01*
X167334Y270090D01*
X167519Y270136D01*
X171037D01*
X172055Y270090D01*
D02*
G37*
G36*
X152757D02*
X153636Y269905D01*
X154423Y269627D01*
X155070Y269349D01*
X155580Y269025D01*
X155950Y268794D01*
X156135Y268609D01*
X156228Y268516D01*
X156736Y267868D01*
X157153Y267174D01*
X157431Y266434D01*
X157616Y265693D01*
X157708Y265046D01*
X157755Y264536D01*
X157801Y264351D01*
Y264212D01*
Y264120D01*
Y264074D01*
Y256252D01*
X157755Y255234D01*
X157570Y254355D01*
X157292Y253568D01*
X157014Y252920D01*
X156736Y252411D01*
X156459Y252041D01*
X156274Y251856D01*
X156228Y251763D01*
X155580Y251254D01*
X154839Y250838D01*
X154099Y250560D01*
X153358Y250375D01*
X152710Y250283D01*
X152201Y250236D01*
X152016Y250190D01*
X145954D01*
X145722Y250236D01*
X145537Y250283D01*
X145444Y250375D01*
X145352Y250514D01*
X145259Y250699D01*
Y250745D01*
Y250792D01*
Y252828D01*
X145306Y253059D01*
X145352Y253198D01*
X145583Y253383D01*
X145861Y253476D01*
X151183D01*
X151692Y253522D01*
X152109Y253615D01*
X152479Y253754D01*
X152803Y253939D01*
X153081Y254170D01*
X153312Y254401D01*
X153636Y254957D01*
X153867Y255466D01*
X153960Y255929D01*
X154006Y256114D01*
Y256252D01*
Y256345D01*
Y256391D01*
Y263888D01*
X153960Y264398D01*
X153867Y264860D01*
X153728Y265231D01*
X153543Y265555D01*
X153358Y265879D01*
X153127Y266110D01*
X152571Y266434D01*
X152062Y266665D01*
X151600Y266758D01*
X151461Y266804D01*
X145954D01*
X145722Y266850D01*
X145537Y266897D01*
X145444Y266989D01*
X145352Y267128D01*
X145259Y267359D01*
Y267406D01*
Y267452D01*
Y269488D01*
X145306Y269720D01*
X145352Y269858D01*
X145583Y270044D01*
X145861Y270136D01*
X151738D01*
X152757Y270090D01*
D02*
G37*
G36*
X140076Y274671D02*
X140261Y274625D01*
X140354Y274533D01*
X140446Y274394D01*
X140539Y274162D01*
Y274116D01*
Y274070D01*
Y270506D01*
X140585Y270275D01*
X140724Y270182D01*
X140909Y270136D01*
X142807D01*
X143038Y270090D01*
X143177Y270044D01*
X143362Y269812D01*
X143455Y269581D01*
Y269534D01*
Y269488D01*
Y267452D01*
Y267221D01*
X143408Y267082D01*
X143362Y266989D01*
Y266943D01*
X143223Y266850D01*
X143038Y266804D01*
X140955D01*
X140724Y266758D01*
X140585Y266619D01*
X140539Y266480D01*
Y266434D01*
Y256160D01*
X140446Y255142D01*
X140261Y254263D01*
X140030Y253476D01*
X139706Y252874D01*
X139428Y252365D01*
X139151Y251995D01*
X138966Y251810D01*
X138919Y251717D01*
X138225Y251208D01*
X137485Y250838D01*
X136744Y250560D01*
X136004Y250375D01*
X135356Y250283D01*
X134800Y250236D01*
X134615Y250190D01*
X132255D01*
X132024Y250236D01*
X131839Y250283D01*
X131700Y250375D01*
X131607Y250514D01*
X131515Y250699D01*
Y250745D01*
Y250792D01*
Y252828D01*
X131561Y253059D01*
X131607Y253198D01*
X131885Y253383D01*
X132116Y253476D01*
X133782D01*
X134291Y253522D01*
X134754Y253615D01*
X135124Y253754D01*
X135448Y253939D01*
X135726Y254124D01*
X136004Y254401D01*
X136328Y254910D01*
X136559Y255420D01*
X136651Y255882D01*
X136698Y256067D01*
Y256206D01*
Y256299D01*
Y256345D01*
Y266434D01*
X136651Y266665D01*
X136466Y266758D01*
X136328Y266804D01*
X132625D01*
X132394Y266850D01*
X132209Y266897D01*
X132116Y266989D01*
X132024Y267128D01*
X131931Y267359D01*
Y267406D01*
Y267452D01*
Y269488D01*
X131977Y269720D01*
X132024Y269858D01*
X132255Y270044D01*
X132533Y270136D01*
X136281D01*
X136513Y270182D01*
X136651Y270321D01*
X136698Y270460D01*
Y270506D01*
Y274070D01*
X136744Y274301D01*
X136790Y274440D01*
X137022Y274625D01*
X137299Y274718D01*
X139845D01*
X140076Y274671D01*
D02*
G37*
G36*
X123138Y270090D02*
X124017Y269905D01*
X124804Y269627D01*
X125452Y269349D01*
X125961Y269025D01*
X126331Y268794D01*
X126517Y268609D01*
X126609Y268516D01*
X127118Y267868D01*
X127535Y267174D01*
X127812Y266434D01*
X127997Y265693D01*
X128090Y265046D01*
X128136Y264536D01*
X128182Y264351D01*
Y264212D01*
Y264120D01*
Y264074D01*
Y256252D01*
X128136Y255234D01*
X127951Y254355D01*
X127674Y253568D01*
X127396Y252920D01*
X127118Y252411D01*
X126840Y252041D01*
X126655Y251856D01*
X126609Y251763D01*
X125961Y251254D01*
X125221Y250838D01*
X124480Y250560D01*
X123740Y250375D01*
X123092Y250283D01*
X122583Y250236D01*
X122398Y250190D01*
X118649D01*
X117631Y250236D01*
X116752Y250421D01*
X115965Y250699D01*
X115317Y250977D01*
X114808Y251254D01*
X114438Y251532D01*
X114253Y251717D01*
X114160Y251763D01*
X113605Y252411D01*
X113235Y253152D01*
X112957Y253892D01*
X112725Y254633D01*
X112633Y255281D01*
X112587Y255790D01*
X112540Y255975D01*
Y256114D01*
Y256206D01*
Y256252D01*
Y264074D01*
X112587Y265092D01*
X112772Y265971D01*
X113049Y266758D01*
X113327Y267359D01*
X113651Y267868D01*
X113882Y268239D01*
X114067Y268424D01*
X114160Y268516D01*
X114808Y269072D01*
X115548Y269442D01*
X116289Y269720D01*
X117029Y269951D01*
X117677Y270044D01*
X118186Y270090D01*
X118371Y270136D01*
X122120D01*
X123138Y270090D01*
D02*
G37*
G36*
X302206Y381953D02*
X302623Y381814D01*
X302761Y381722D01*
X302900Y381629D01*
X302993Y381583D01*
X303039D01*
X307111Y379130D01*
X307297Y378991D01*
X307435Y378852D01*
X307574Y378529D01*
X307667Y378297D01*
Y378251D01*
Y378204D01*
Y375891D01*
X307621Y375659D01*
X307528Y375520D01*
X307435Y375428D01*
X307019D01*
X306926Y375474D01*
X306880D01*
X302623Y377973D01*
Y357518D01*
X302576Y357286D01*
X302530Y357148D01*
X302252Y356963D01*
X302021Y356870D01*
X299383D01*
X299198Y356916D01*
X299013Y356963D01*
X298874Y357194D01*
X298781Y357425D01*
Y357472D01*
Y357518D01*
Y381352D01*
X298828Y381583D01*
X298874Y381722D01*
X299105Y381907D01*
X299337Y381999D01*
X301789D01*
X302206Y381953D01*
D02*
G37*
G36*
X248106Y376770D02*
X248245Y376724D01*
X248430Y376492D01*
X248522Y376261D01*
Y376214D01*
Y376168D01*
Y357518D01*
X248476Y357286D01*
X248430Y357148D01*
X248199Y356963D01*
X247967Y356870D01*
X245422D01*
X245191Y356916D01*
X245005Y356963D01*
X244913Y357055D01*
X244820Y357194D01*
X244728Y357425D01*
Y357472D01*
Y357518D01*
Y370152D01*
X244681Y370754D01*
X244589Y371263D01*
X244450Y371679D01*
X244219Y372096D01*
X243987Y372420D01*
X243710Y372651D01*
X243432Y372882D01*
X243108Y373068D01*
X242553Y373299D01*
X242043Y373438D01*
X241812Y373484D01*
X239683D01*
X239174Y373438D01*
X238758Y373345D01*
X238341Y373206D01*
X238017Y373021D01*
X237740Y372790D01*
X237508Y372559D01*
X237184Y372049D01*
X236953Y371494D01*
X236860Y371031D01*
X236814Y370846D01*
Y370707D01*
Y370615D01*
Y370569D01*
Y357518D01*
X236768Y357286D01*
X236721Y357148D01*
X236490Y356963D01*
X236259Y356870D01*
X233713D01*
X233482Y356916D01*
X233297Y356963D01*
X233158Y357055D01*
X233065Y357194D01*
X232973Y357425D01*
Y357472D01*
Y357518D01*
Y370754D01*
X233019Y371772D01*
X233204Y372697D01*
X233436Y373438D01*
X233713Y374086D01*
X234037Y374595D01*
X234269Y374965D01*
X234454Y375150D01*
X234500Y375243D01*
X235148Y375752D01*
X235842Y376168D01*
X236583Y376446D01*
X237277Y376631D01*
X237925Y376724D01*
X238434Y376816D01*
X241164D01*
X241627Y376724D01*
X242506Y376492D01*
X243200Y376168D01*
X243710Y375798D01*
X244126Y375382D01*
X244404Y375058D01*
X244543Y374826D01*
X244589Y374780D01*
Y374734D01*
X244728D01*
Y376168D01*
X244774Y376400D01*
X244820Y376539D01*
X245052Y376724D01*
X245329Y376816D01*
X247875D01*
X248106Y376770D01*
D02*
G37*
G36*
X227836D02*
X227975Y376724D01*
X228160Y376492D01*
X228252Y376261D01*
Y376214D01*
Y376168D01*
Y357518D01*
X228206Y357286D01*
X228160Y357148D01*
X227929Y356963D01*
X227697Y356870D01*
X225152D01*
X224920Y356916D01*
X224735Y356963D01*
X224643Y357055D01*
X224550Y357194D01*
X224458Y357425D01*
Y357472D01*
Y357518D01*
Y370152D01*
X224411Y370754D01*
X224319Y371263D01*
X224180Y371679D01*
X223948Y372096D01*
X223717Y372420D01*
X223439Y372651D01*
X223162Y372882D01*
X222838Y373068D01*
X222283Y373299D01*
X221773Y373438D01*
X221542Y373484D01*
X219413D01*
X218904Y373438D01*
X218488Y373345D01*
X218071Y373206D01*
X217747Y373021D01*
X217470Y372790D01*
X217238Y372559D01*
X216914Y372049D01*
X216683Y371494D01*
X216590Y371031D01*
X216544Y370846D01*
Y370707D01*
Y370615D01*
Y370569D01*
Y357518D01*
X216498Y357286D01*
X216451Y357148D01*
X216220Y356963D01*
X215989Y356870D01*
X213443D01*
X213212Y356916D01*
X213027Y356963D01*
X212888Y357055D01*
X212795Y357194D01*
X212703Y357425D01*
Y357472D01*
Y357518D01*
Y370754D01*
X212749Y371772D01*
X212934Y372697D01*
X213165Y373438D01*
X213443Y374086D01*
X213767Y374595D01*
X213999Y374965D01*
X214184Y375150D01*
X214230Y375243D01*
X214878Y375752D01*
X215572Y376168D01*
X216313Y376446D01*
X217007Y376631D01*
X217655Y376724D01*
X218164Y376816D01*
X220894D01*
X221357Y376724D01*
X222236Y376492D01*
X222930Y376168D01*
X223439Y375798D01*
X223856Y375382D01*
X224134Y375058D01*
X224272Y374826D01*
X224319Y374780D01*
Y374734D01*
X224458D01*
Y376168D01*
X224504Y376400D01*
X224550Y376539D01*
X224781Y376724D01*
X225059Y376816D01*
X227605D01*
X227836Y376770D01*
D02*
G37*
G36*
X367552D02*
X367691Y376724D01*
X367876Y376492D01*
X367968Y376261D01*
Y376214D01*
Y376168D01*
Y357518D01*
X367922Y357286D01*
X367876Y357148D01*
X367644Y356963D01*
X367413Y356870D01*
X364867D01*
X364636Y356916D01*
X364451Y356963D01*
X364358Y357055D01*
X364266Y357194D01*
X364173Y357425D01*
Y357472D01*
Y357518D01*
Y369921D01*
X364127Y370569D01*
X364034Y371078D01*
X363896Y371587D01*
X363664Y372003D01*
X363433Y372327D01*
X363155Y372605D01*
X362831Y372836D01*
X362553Y373021D01*
X361952Y373299D01*
X361443Y373438D01*
X361211Y373484D01*
X358342D01*
X358203Y373530D01*
X358018Y373762D01*
X357926Y374039D01*
Y374086D01*
Y374132D01*
Y376168D01*
X357972Y376400D01*
X358018Y376539D01*
X358250Y376724D01*
X358481Y376816D01*
X360008D01*
X360517Y376770D01*
X360980Y376724D01*
X361396Y376631D01*
X361767Y376539D01*
X362091Y376400D01*
X362322Y376307D01*
X362461Y376261D01*
X362507Y376214D01*
X362878Y375983D01*
X363201Y375752D01*
X363479Y375474D01*
X363664Y375243D01*
X363849Y375011D01*
X363942Y374826D01*
X364034Y374687D01*
Y374641D01*
X364173D01*
Y376168D01*
X364220Y376400D01*
X364266Y376539D01*
X364497Y376724D01*
X364775Y376816D01*
X367320D01*
X367552Y376770D01*
D02*
G37*
G36*
X138888D02*
X139027Y376724D01*
X139212Y376492D01*
X139305Y376261D01*
Y376214D01*
Y376168D01*
Y357518D01*
X139258Y357286D01*
X139212Y357148D01*
X138981Y356963D01*
X138749Y356870D01*
X136204D01*
X135972Y356916D01*
X135787Y356963D01*
X135695Y357055D01*
X135602Y357194D01*
X135510Y357425D01*
Y357472D01*
Y357518D01*
Y369921D01*
X135463Y370569D01*
X135371Y371078D01*
X135232Y371587D01*
X135001Y372003D01*
X134769Y372327D01*
X134492Y372605D01*
X134168Y372836D01*
X133890Y373021D01*
X133288Y373299D01*
X132779Y373438D01*
X132548Y373484D01*
X129679D01*
X129540Y373530D01*
X129355Y373762D01*
X129262Y374039D01*
Y374086D01*
Y374132D01*
Y376168D01*
X129308Y376400D01*
X129355Y376539D01*
X129586Y376724D01*
X129817Y376816D01*
X131345D01*
X131854Y376770D01*
X132317Y376724D01*
X132733Y376631D01*
X133103Y376539D01*
X133427Y376400D01*
X133659Y376307D01*
X133797Y376261D01*
X133844Y376214D01*
X134214Y375983D01*
X134538Y375752D01*
X134816Y375474D01*
X135001Y375243D01*
X135186Y375011D01*
X135278Y374826D01*
X135371Y374687D01*
Y374641D01*
X135510D01*
Y376168D01*
X135556Y376400D01*
X135602Y376539D01*
X135834Y376724D01*
X136111Y376816D01*
X138657D01*
X138888Y376770D01*
D02*
G37*
G36*
X404667Y381953D02*
X404852Y381907D01*
X404945Y381814D01*
X405037Y381675D01*
X405130Y381444D01*
Y381398D01*
Y381352D01*
Y357518D01*
X405084Y357286D01*
X405037Y357148D01*
X404760Y356963D01*
X404528Y356870D01*
X401983D01*
X401752Y356916D01*
X401613Y356963D01*
X401428Y357194D01*
X401335Y357425D01*
Y357472D01*
Y357518D01*
Y366774D01*
X401243Y367005D01*
X401104Y367098D01*
X400965Y367144D01*
X393283D01*
X393051Y367190D01*
X392866Y367237D01*
X392774Y367375D01*
X392681Y367514D01*
X392588Y367746D01*
Y367792D01*
Y367838D01*
Y369828D01*
X392635Y370060D01*
X392681Y370198D01*
X392912Y370383D01*
X393190Y370476D01*
X400872D01*
X401150Y370522D01*
X401289Y370707D01*
X401335Y370846D01*
Y370892D01*
Y378297D01*
X401243Y378529D01*
X401104Y378667D01*
X400965Y378714D01*
X392172D01*
X391940Y378760D01*
X391755Y378806D01*
X391663Y378899D01*
X391570Y379038D01*
X391478Y379269D01*
Y379315D01*
Y379361D01*
Y381352D01*
X391524Y381583D01*
X391570Y381722D01*
X391802Y381907D01*
X392079Y381999D01*
X404436D01*
X404667Y381953D01*
D02*
G37*
G36*
X383101Y376770D02*
X383981Y376585D01*
X384767Y376307D01*
X385415Y376029D01*
X385924Y375705D01*
X386295Y375474D01*
X386480Y375289D01*
X386572Y375196D01*
X387081Y374548D01*
X387498Y373854D01*
X387775Y373114D01*
X387961Y372373D01*
X388053Y371726D01*
X388099Y371216D01*
X388146Y371031D01*
Y370892D01*
Y370800D01*
Y370754D01*
Y362933D01*
X388099Y361914D01*
X387914Y361035D01*
X387637Y360248D01*
X387359Y359600D01*
X387081Y359091D01*
X386804Y358721D01*
X386618Y358536D01*
X386572Y358443D01*
X385924Y357934D01*
X385184Y357518D01*
X384443Y357240D01*
X383703Y357055D01*
X383055Y356963D01*
X382546Y356916D01*
X382361Y356870D01*
X378612D01*
X377594Y356916D01*
X376715Y357101D01*
X375928Y357379D01*
X375280Y357657D01*
X374771Y357934D01*
X374401Y358212D01*
X374216Y358397D01*
X374123Y358443D01*
X373568Y359091D01*
X373198Y359832D01*
X372920Y360572D01*
X372689Y361313D01*
X372596Y361961D01*
X372550Y362470D01*
X372503Y362655D01*
Y362794D01*
Y362886D01*
Y362933D01*
Y370754D01*
X372550Y371772D01*
X372735Y372651D01*
X373013Y373438D01*
X373290Y374039D01*
X373614Y374548D01*
X373845Y374919D01*
X374031Y375104D01*
X374123Y375196D01*
X374771Y375752D01*
X375512Y376122D01*
X376252Y376400D01*
X376992Y376631D01*
X377640Y376724D01*
X378149Y376770D01*
X378335Y376816D01*
X382083D01*
X383101Y376770D01*
D02*
G37*
G36*
X344690Y381953D02*
X344875Y381907D01*
X344968Y381814D01*
X345060Y381675D01*
X345153Y381444D01*
Y381398D01*
Y381352D01*
Y357518D01*
X345106Y357286D01*
X345060Y357148D01*
X344782Y356963D01*
X344551Y356870D01*
X342006D01*
X341774Y356916D01*
X341636Y356963D01*
X341450Y357194D01*
X341358Y357425D01*
Y357472D01*
Y357518D01*
Y366774D01*
X341265Y367005D01*
X341126Y367098D01*
X340988Y367144D01*
X333305D01*
X333074Y367190D01*
X332889Y367237D01*
X332796Y367375D01*
X332704Y367514D01*
X332611Y367746D01*
Y367792D01*
Y367838D01*
Y369828D01*
X332657Y370060D01*
X332704Y370198D01*
X332935Y370383D01*
X333213Y370476D01*
X340895D01*
X341173Y370522D01*
X341311Y370707D01*
X341358Y370846D01*
Y370892D01*
Y378297D01*
X341265Y378529D01*
X341126Y378667D01*
X340988Y378714D01*
X332195D01*
X331963Y378760D01*
X331778Y378806D01*
X331685Y378899D01*
X331593Y379038D01*
X331500Y379269D01*
Y379315D01*
Y379361D01*
Y381352D01*
X331547Y381583D01*
X331593Y381722D01*
X331824Y381907D01*
X332102Y381999D01*
X344459D01*
X344690Y381953D01*
D02*
G37*
G36*
X322754D02*
X323633Y381768D01*
X324420Y381490D01*
X325068Y381213D01*
X325577Y380889D01*
X325947Y380657D01*
X326132Y380472D01*
X326225Y380380D01*
X326780Y379732D01*
X327150Y378991D01*
X327428Y378251D01*
X327659Y377557D01*
X327752Y376909D01*
X327798Y376400D01*
X327844Y376214D01*
Y376076D01*
Y375983D01*
Y375937D01*
Y374271D01*
X327798Y373484D01*
X327706Y372790D01*
X327520Y372188D01*
X327335Y371633D01*
X327197Y371216D01*
X327011Y370939D01*
X326919Y370707D01*
X326872Y370661D01*
X326502Y370198D01*
X326086Y369782D01*
X325716Y369458D01*
X325345Y369180D01*
X325021Y368995D01*
X324744Y368856D01*
X324559Y368810D01*
X324512Y368764D01*
X323448Y368393D01*
X322939Y368255D01*
X322476Y368116D01*
X322060Y367977D01*
X321736Y367931D01*
X321550Y367838D01*
X321458D01*
X320810Y367699D01*
X320255Y367607D01*
X319746Y367468D01*
X319283Y367422D01*
X318866Y367329D01*
X318589Y367283D01*
X318403Y367237D01*
X318357D01*
X317848Y367144D01*
X317385Y367005D01*
X316969Y366820D01*
X316599Y366681D01*
X316321Y366496D01*
X316136Y366403D01*
X315997Y366311D01*
X315951Y366265D01*
X315627Y365987D01*
X315395Y365663D01*
X315210Y365339D01*
X315118Y365015D01*
X315025Y364737D01*
X314979Y364506D01*
Y364367D01*
Y364321D01*
Y363442D01*
X315025Y362840D01*
X315118Y362285D01*
X315210Y361868D01*
X315349Y361498D01*
X315534Y361220D01*
X315627Y361035D01*
X315719Y360942D01*
X315766Y360896D01*
X316090Y360665D01*
X316460Y360480D01*
X316830Y360341D01*
X317247Y360248D01*
X317617Y360202D01*
X317894Y360156D01*
X320856D01*
X321458Y360202D01*
X321967Y360295D01*
X322383Y360387D01*
X322707Y360526D01*
X322985Y360665D01*
X323170Y360804D01*
X323263Y360850D01*
X323309Y360896D01*
X323540Y361220D01*
X323726Y361590D01*
X323818Y361961D01*
X323911Y362377D01*
X323957Y362701D01*
X324003Y362979D01*
Y363164D01*
Y363256D01*
Y363951D01*
X324049Y364182D01*
X324096Y364367D01*
X324188Y364460D01*
X324327Y364552D01*
X324559Y364645D01*
X327197D01*
X327428Y364599D01*
X327567Y364552D01*
X327752Y364321D01*
X327844Y364043D01*
Y363997D01*
Y363951D01*
Y362933D01*
X327752Y361914D01*
X327567Y361035D01*
X327335Y360295D01*
X327011Y359647D01*
X326734Y359138D01*
X326456Y358767D01*
X326271Y358582D01*
X326225Y358490D01*
X325531Y357934D01*
X324790Y357564D01*
X324049Y357286D01*
X323309Y357055D01*
X322661Y356963D01*
X322152Y356916D01*
X321967Y356870D01*
X317293D01*
X316275Y356963D01*
X315395Y357148D01*
X314655Y357379D01*
X314007Y357703D01*
X313498Y357981D01*
X313128Y358258D01*
X312943Y358443D01*
X312850Y358490D01*
X312295Y359138D01*
X311878Y359878D01*
X311600Y360619D01*
X311369Y361313D01*
X311277Y361961D01*
X311230Y362470D01*
X311184Y362655D01*
Y362794D01*
Y362886D01*
Y362933D01*
Y364460D01*
X311230Y365154D01*
X311277Y365756D01*
X311415Y366311D01*
X311554Y366774D01*
X311693Y367144D01*
X311786Y367422D01*
X311878Y367607D01*
X311924Y367653D01*
X312202Y368116D01*
X312526Y368532D01*
X312804Y368856D01*
X313128Y369134D01*
X313359Y369365D01*
X313591Y369504D01*
X313729Y369597D01*
X313776Y369643D01*
X314655Y370060D01*
X315072Y370245D01*
X315442Y370383D01*
X315766Y370522D01*
X316043Y370615D01*
X316228Y370661D01*
X316275D01*
X317247Y370939D01*
X317709Y371031D01*
X318126Y371124D01*
X318450Y371170D01*
X318727Y371216D01*
X318913Y371263D01*
X318959D01*
X319931Y371401D01*
X320347Y371494D01*
X320718Y371587D01*
X321041Y371633D01*
X321273Y371679D01*
X321412Y371726D01*
X321458D01*
X321921Y371864D01*
X322291Y372003D01*
X322615Y372188D01*
X322939Y372373D01*
X323402Y372790D01*
X323679Y373160D01*
X323864Y373530D01*
X323957Y373854D01*
X324003Y374039D01*
Y374132D01*
Y375335D01*
X323957Y375983D01*
X323911Y376539D01*
X323772Y376955D01*
X323633Y377325D01*
X323540Y377603D01*
X323402Y377788D01*
X323355Y377881D01*
X323309Y377927D01*
X322985Y378204D01*
X322615Y378390D01*
X322198Y378529D01*
X321782Y378621D01*
X321458Y378667D01*
X321134Y378714D01*
X318403D01*
X317802Y378667D01*
X317339Y378621D01*
X316923Y378482D01*
X316552Y378343D01*
X316321Y378204D01*
X316136Y378112D01*
X316043Y378019D01*
X315997Y377973D01*
X315766Y377649D01*
X315581Y377279D01*
X315442Y376909D01*
X315349Y376492D01*
X315303Y376122D01*
X315257Y375844D01*
Y375659D01*
Y375567D01*
Y375058D01*
X315210Y374826D01*
X315164Y374687D01*
X314933Y374502D01*
X314701Y374410D01*
X312110D01*
X311878Y374456D01*
X311693Y374502D01*
X311600Y374595D01*
X311508Y374734D01*
X311415Y374965D01*
Y375011D01*
Y375058D01*
Y375937D01*
X311508Y376955D01*
X311693Y377834D01*
X311924Y378575D01*
X312248Y379223D01*
X312572Y379732D01*
X312804Y380102D01*
X312989Y380287D01*
X313081Y380380D01*
X313729Y380935D01*
X314470Y381305D01*
X315210Y381583D01*
X315951Y381814D01*
X316599Y381907D01*
X317108Y381953D01*
X317293Y381999D01*
X321736D01*
X322754Y381953D01*
D02*
G37*
G36*
X279529Y376770D02*
X280409Y376585D01*
X281195Y376307D01*
X281843Y376029D01*
X282352Y375705D01*
X282723Y375474D01*
X282908Y375289D01*
X283000Y375196D01*
X283509Y374548D01*
X283926Y373854D01*
X284203Y373114D01*
X284389Y372373D01*
X284481Y371726D01*
X284527Y371216D01*
X284574Y371031D01*
Y370892D01*
Y370800D01*
Y370754D01*
Y362933D01*
X284527Y361914D01*
X284342Y361035D01*
X284065Y360248D01*
X283787Y359600D01*
X283509Y359091D01*
X283232Y358721D01*
X283046Y358536D01*
X283000Y358443D01*
X282352Y357934D01*
X281612Y357518D01*
X280871Y357240D01*
X280131Y357055D01*
X279483Y356963D01*
X278974Y356916D01*
X278789Y356870D01*
X272726D01*
X272495Y356916D01*
X272310Y356963D01*
X272217Y357055D01*
X272125Y357194D01*
X272032Y357379D01*
Y357425D01*
Y357472D01*
Y359508D01*
X272078Y359739D01*
X272125Y359878D01*
X272356Y360063D01*
X272634Y360156D01*
X277956D01*
X278465Y360202D01*
X278881Y360295D01*
X279252Y360434D01*
X279576Y360619D01*
X279853Y360850D01*
X280085Y361081D01*
X280409Y361637D01*
X280640Y362146D01*
X280733Y362609D01*
X280779Y362794D01*
Y362933D01*
Y363025D01*
Y363071D01*
Y370569D01*
X280733Y371078D01*
X280640Y371540D01*
X280501Y371911D01*
X280316Y372235D01*
X280131Y372559D01*
X279900Y372790D01*
X279344Y373114D01*
X278835Y373345D01*
X278372Y373438D01*
X278234Y373484D01*
X272726D01*
X272495Y373530D01*
X272310Y373577D01*
X272217Y373669D01*
X272125Y373808D01*
X272032Y374039D01*
Y374086D01*
Y374132D01*
Y376168D01*
X272078Y376400D01*
X272125Y376539D01*
X272356Y376724D01*
X272634Y376816D01*
X278511D01*
X279529Y376770D01*
D02*
G37*
G36*
X263656D02*
X264535Y376585D01*
X265322Y376307D01*
X265970Y376029D01*
X266479Y375705D01*
X266849Y375474D01*
X267034Y375289D01*
X267127Y375196D01*
X267636Y374548D01*
X268052Y373854D01*
X268330Y373114D01*
X268515Y372373D01*
X268608Y371726D01*
X268654Y371216D01*
X268700Y371031D01*
Y370892D01*
Y370800D01*
Y370754D01*
Y362933D01*
X268654Y361914D01*
X268469Y361035D01*
X268191Y360248D01*
X267913Y359600D01*
X267636Y359091D01*
X267358Y358721D01*
X267173Y358536D01*
X267127Y358443D01*
X266479Y357934D01*
X265738Y357518D01*
X264998Y357240D01*
X264257Y357055D01*
X263609Y356963D01*
X263100Y356916D01*
X262915Y356870D01*
X259167D01*
X258148Y356916D01*
X257269Y357101D01*
X256483Y357379D01*
X255835Y357657D01*
X255326Y357934D01*
X254955Y358212D01*
X254770Y358397D01*
X254678Y358443D01*
X254122Y359091D01*
X253752Y359832D01*
X253474Y360572D01*
X253243Y361313D01*
X253150Y361961D01*
X253104Y362470D01*
X253058Y362655D01*
Y362794D01*
Y362886D01*
Y362933D01*
Y370754D01*
X253104Y371772D01*
X253289Y372651D01*
X253567Y373438D01*
X253845Y374039D01*
X254169Y374548D01*
X254400Y374919D01*
X254585Y375104D01*
X254678Y375196D01*
X255326Y375752D01*
X256066Y376122D01*
X256806Y376400D01*
X257547Y376631D01*
X258195Y376724D01*
X258704Y376770D01*
X258889Y376816D01*
X262638D01*
X263656Y376770D01*
D02*
G37*
G36*
X203354D02*
X204234Y376585D01*
X205021Y376307D01*
X205668Y376029D01*
X206177Y375705D01*
X206548Y375474D01*
X206733Y375289D01*
X206825Y375196D01*
X207334Y374548D01*
X207751Y373854D01*
X208029Y373114D01*
X208214Y372373D01*
X208306Y371726D01*
X208353Y371216D01*
X208399Y371031D01*
Y370892D01*
Y370800D01*
Y370754D01*
Y362933D01*
X208353Y361914D01*
X208167Y361035D01*
X207890Y360248D01*
X207612Y359600D01*
X207334Y359091D01*
X207057Y358721D01*
X206872Y358536D01*
X206825Y358443D01*
X206177Y357934D01*
X205437Y357518D01*
X204697Y357240D01*
X203956Y357055D01*
X203308Y356963D01*
X202799Y356916D01*
X202614Y356870D01*
X193867D01*
X193636Y356916D01*
X193451Y356963D01*
X193358Y357055D01*
X193266Y357194D01*
X193173Y357379D01*
Y357425D01*
Y357472D01*
Y359415D01*
X193219Y359647D01*
X193266Y359832D01*
X193405Y359971D01*
X193497Y360063D01*
X193775Y360156D01*
X201781D01*
X202290Y360202D01*
X202707Y360295D01*
X203077Y360434D01*
X203401Y360619D01*
X203678Y360804D01*
X203910Y361035D01*
X204234Y361590D01*
X204465Y362099D01*
X204558Y362562D01*
X204604Y362701D01*
Y362840D01*
Y362933D01*
Y362979D01*
Y364691D01*
X204558Y364922D01*
X204373Y365015D01*
X204234Y365061D01*
X193682D01*
X193451Y365108D01*
X193266Y365154D01*
X193173Y365293D01*
X193081Y365432D01*
X192988Y365663D01*
Y365709D01*
Y365756D01*
Y370754D01*
X193034Y371772D01*
X193219Y372651D01*
X193497Y373438D01*
X193775Y374039D01*
X194099Y374548D01*
X194330Y374919D01*
X194515Y375104D01*
X194608Y375196D01*
X195256Y375752D01*
X195996Y376122D01*
X196737Y376400D01*
X197477Y376631D01*
X198125Y376724D01*
X198634Y376770D01*
X198819Y376816D01*
X202336D01*
X203354Y376770D01*
D02*
G37*
G36*
X184056D02*
X184935Y376585D01*
X185722Y376307D01*
X186370Y376029D01*
X186879Y375705D01*
X187249Y375474D01*
X187435Y375289D01*
X187527Y375196D01*
X188036Y374548D01*
X188453Y373854D01*
X188730Y373114D01*
X188915Y372373D01*
X189008Y371726D01*
X189054Y371216D01*
X189101Y371031D01*
Y370892D01*
Y370800D01*
Y370754D01*
Y362933D01*
X189054Y361914D01*
X188869Y361035D01*
X188591Y360248D01*
X188314Y359600D01*
X188036Y359091D01*
X187759Y358721D01*
X187573Y358536D01*
X187527Y358443D01*
X186879Y357934D01*
X186139Y357518D01*
X185398Y357240D01*
X184658Y357055D01*
X184010Y356963D01*
X183501Y356916D01*
X183316Y356870D01*
X177253D01*
X177022Y356916D01*
X176837Y356963D01*
X176744Y357055D01*
X176652Y357194D01*
X176559Y357379D01*
Y357425D01*
Y357472D01*
Y359508D01*
X176605Y359739D01*
X176652Y359878D01*
X176883Y360063D01*
X177161Y360156D01*
X182483D01*
X182992Y360202D01*
X183408Y360295D01*
X183778Y360434D01*
X184102Y360619D01*
X184380Y360850D01*
X184611Y361081D01*
X184935Y361637D01*
X185167Y362146D01*
X185259Y362609D01*
X185306Y362794D01*
Y362933D01*
Y363025D01*
Y363071D01*
Y370569D01*
X185259Y371078D01*
X185167Y371540D01*
X185028Y371911D01*
X184843Y372235D01*
X184658Y372559D01*
X184426Y372790D01*
X183871Y373114D01*
X183362Y373345D01*
X182899Y373438D01*
X182760Y373484D01*
X177253D01*
X177022Y373530D01*
X176837Y373577D01*
X176744Y373669D01*
X176652Y373808D01*
X176559Y374039D01*
Y374086D01*
Y374132D01*
Y376168D01*
X176605Y376400D01*
X176652Y376539D01*
X176883Y376724D01*
X177161Y376816D01*
X183038D01*
X184056Y376770D01*
D02*
G37*
G36*
X171376Y381352D02*
X171561Y381305D01*
X171653Y381213D01*
X171746Y381074D01*
X171839Y380842D01*
Y380796D01*
Y380750D01*
Y377186D01*
X171885Y376955D01*
X172024Y376862D01*
X172209Y376816D01*
X174106D01*
X174338Y376770D01*
X174477Y376724D01*
X174662Y376492D01*
X174754Y376261D01*
Y376214D01*
Y376168D01*
Y374132D01*
Y373901D01*
X174708Y373762D01*
X174662Y373669D01*
Y373623D01*
X174523Y373530D01*
X174338Y373484D01*
X172255D01*
X172024Y373438D01*
X171885Y373299D01*
X171839Y373160D01*
Y373114D01*
Y362840D01*
X171746Y361822D01*
X171561Y360942D01*
X171329Y360156D01*
X171006Y359554D01*
X170728Y359045D01*
X170450Y358675D01*
X170265Y358490D01*
X170219Y358397D01*
X169525Y357888D01*
X168784Y357518D01*
X168044Y357240D01*
X167303Y357055D01*
X166655Y356963D01*
X166100Y356916D01*
X165915Y356870D01*
X163555D01*
X163323Y356916D01*
X163138Y356963D01*
X162999Y357055D01*
X162907Y357194D01*
X162814Y357379D01*
Y357425D01*
Y357472D01*
Y359508D01*
X162861Y359739D01*
X162907Y359878D01*
X163184Y360063D01*
X163416Y360156D01*
X165082D01*
X165591Y360202D01*
X166054Y360295D01*
X166424Y360434D01*
X166748Y360619D01*
X167026Y360804D01*
X167303Y361081D01*
X167627Y361590D01*
X167859Y362099D01*
X167951Y362562D01*
X167997Y362747D01*
Y362886D01*
Y362979D01*
Y363025D01*
Y373114D01*
X167951Y373345D01*
X167766Y373438D01*
X167627Y373484D01*
X163925D01*
X163694Y373530D01*
X163508Y373577D01*
X163416Y373669D01*
X163323Y373808D01*
X163231Y374039D01*
Y374086D01*
Y374132D01*
Y376168D01*
X163277Y376400D01*
X163323Y376539D01*
X163555Y376724D01*
X163832Y376816D01*
X167581D01*
X167812Y376862D01*
X167951Y377001D01*
X167997Y377140D01*
Y377186D01*
Y380750D01*
X168044Y380981D01*
X168090Y381120D01*
X168321Y381305D01*
X168599Y381398D01*
X171144D01*
X171376Y381352D01*
D02*
G37*
G36*
X154438Y376770D02*
X155317Y376585D01*
X156104Y376307D01*
X156752Y376029D01*
X157261Y375705D01*
X157631Y375474D01*
X157816Y375289D01*
X157909Y375196D01*
X158418Y374548D01*
X158834Y373854D01*
X159112Y373114D01*
X159297Y372373D01*
X159390Y371726D01*
X159436Y371216D01*
X159482Y371031D01*
Y370892D01*
Y370800D01*
Y370754D01*
Y362933D01*
X159436Y361914D01*
X159251Y361035D01*
X158973Y360248D01*
X158695Y359600D01*
X158418Y359091D01*
X158140Y358721D01*
X157955Y358536D01*
X157909Y358443D01*
X157261Y357934D01*
X156520Y357518D01*
X155780Y357240D01*
X155039Y357055D01*
X154391Y356963D01*
X153882Y356916D01*
X153697Y356870D01*
X149949D01*
X148931Y356916D01*
X148051Y357101D01*
X147264Y357379D01*
X146617Y357657D01*
X146108Y357934D01*
X145737Y358212D01*
X145552Y358397D01*
X145460Y358443D01*
X144904Y359091D01*
X144534Y359832D01*
X144256Y360572D01*
X144025Y361313D01*
X143933Y361961D01*
X143886Y362470D01*
X143840Y362655D01*
Y362794D01*
Y362886D01*
Y362933D01*
Y370754D01*
X143886Y371772D01*
X144071Y372651D01*
X144349Y373438D01*
X144627Y374039D01*
X144951Y374548D01*
X145182Y374919D01*
X145367Y375104D01*
X145460Y375196D01*
X146108Y375752D01*
X146848Y376122D01*
X147589Y376400D01*
X148329Y376631D01*
X148977Y376724D01*
X149486Y376770D01*
X149671Y376816D01*
X153420D01*
X154438Y376770D01*
D02*
G37*
G36*
X242573Y340043D02*
X242990Y339904D01*
X243128Y339812D01*
X243267Y339719D01*
X243360Y339673D01*
X243406D01*
X247479Y337220D01*
X247664Y337081D01*
X247803Y336942D01*
X247941Y336618D01*
X248034Y336387D01*
Y336341D01*
Y336295D01*
Y333981D01*
X247988Y333749D01*
X247895Y333610D01*
X247803Y333518D01*
X247386D01*
X247293Y333564D01*
X247247D01*
X242990Y336063D01*
Y315608D01*
X242943Y315376D01*
X242897Y315238D01*
X242619Y315053D01*
X242388Y314960D01*
X239750D01*
X239565Y315006D01*
X239380Y315053D01*
X239241Y315284D01*
X239148Y315515D01*
Y315562D01*
Y315608D01*
Y339441D01*
X239195Y339673D01*
X239241Y339812D01*
X239472Y339997D01*
X239704Y340089D01*
X242157D01*
X242573Y340043D01*
D02*
G37*
G36*
X365073Y334860D02*
X365212Y334814D01*
X365397Y334582D01*
X365490Y334351D01*
Y334305D01*
Y334258D01*
Y315608D01*
X365443Y315376D01*
X365397Y315238D01*
X365166Y315053D01*
X364934Y314960D01*
X362389D01*
X362158Y315006D01*
X361972Y315053D01*
X361880Y315145D01*
X361787Y315284D01*
X361695Y315515D01*
Y315562D01*
Y315608D01*
Y328242D01*
X361648Y328844D01*
X361556Y329353D01*
X361417Y329769D01*
X361186Y330186D01*
X360954Y330510D01*
X360676Y330741D01*
X360399Y330973D01*
X360075Y331158D01*
X359520Y331389D01*
X359011Y331528D01*
X358779Y331574D01*
X356650D01*
X356141Y331528D01*
X355725Y331435D01*
X355308Y331296D01*
X354984Y331111D01*
X354707Y330880D01*
X354475Y330648D01*
X354151Y330139D01*
X353920Y329584D01*
X353827Y329121D01*
X353781Y328936D01*
Y328797D01*
Y328705D01*
Y328658D01*
Y315608D01*
X353735Y315376D01*
X353688Y315238D01*
X353457Y315053D01*
X353226Y314960D01*
X350680D01*
X350449Y315006D01*
X350264Y315053D01*
X350125Y315145D01*
X350032Y315284D01*
X349940Y315515D01*
Y315562D01*
Y315608D01*
Y328844D01*
X349986Y329862D01*
X350171Y330787D01*
X350403Y331528D01*
X350680Y332176D01*
X351004Y332685D01*
X351236Y333055D01*
X351421Y333240D01*
X351467Y333333D01*
X352115Y333842D01*
X352809Y334258D01*
X353550Y334536D01*
X354244Y334721D01*
X354892Y334814D01*
X355401Y334906D01*
X358131D01*
X358594Y334814D01*
X359473Y334582D01*
X360168Y334258D01*
X360676Y333888D01*
X361093Y333471D01*
X361371Y333148D01*
X361510Y332916D01*
X361556Y332870D01*
Y332824D01*
X361695D01*
Y334258D01*
X361741Y334490D01*
X361787Y334628D01*
X362019Y334814D01*
X362296Y334906D01*
X364842D01*
X365073Y334860D01*
D02*
G37*
G36*
X344803D02*
X344942Y334814D01*
X345127Y334582D01*
X345219Y334351D01*
Y334305D01*
Y334258D01*
Y315608D01*
X345173Y315376D01*
X345127Y315238D01*
X344896Y315053D01*
X344664Y314960D01*
X342119D01*
X341887Y315006D01*
X341702Y315053D01*
X341610Y315145D01*
X341517Y315284D01*
X341425Y315515D01*
Y315562D01*
Y315608D01*
Y328242D01*
X341378Y328844D01*
X341286Y329353D01*
X341147Y329769D01*
X340915Y330186D01*
X340684Y330510D01*
X340406Y330741D01*
X340129Y330973D01*
X339805Y331158D01*
X339249Y331389D01*
X338740Y331528D01*
X338509Y331574D01*
X336380D01*
X335871Y331528D01*
X335455Y331435D01*
X335038Y331296D01*
X334714Y331111D01*
X334436Y330880D01*
X334205Y330648D01*
X333881Y330139D01*
X333650Y329584D01*
X333557Y329121D01*
X333511Y328936D01*
Y328797D01*
Y328705D01*
Y328658D01*
Y315608D01*
X333465Y315376D01*
X333418Y315238D01*
X333187Y315053D01*
X332956Y314960D01*
X330410D01*
X330179Y315006D01*
X329994Y315053D01*
X329855Y315145D01*
X329762Y315284D01*
X329670Y315515D01*
Y315562D01*
Y315608D01*
Y328844D01*
X329716Y329862D01*
X329901Y330787D01*
X330132Y331528D01*
X330410Y332176D01*
X330734Y332685D01*
X330966Y333055D01*
X331151Y333240D01*
X331197Y333333D01*
X331845Y333842D01*
X332539Y334258D01*
X333279Y334536D01*
X333974Y334721D01*
X334622Y334814D01*
X335131Y334906D01*
X337861D01*
X338324Y334814D01*
X339203Y334582D01*
X339897Y334258D01*
X340406Y333888D01*
X340823Y333471D01*
X341101Y333148D01*
X341239Y332916D01*
X341286Y332870D01*
Y332824D01*
X341425D01*
Y334258D01*
X341471Y334490D01*
X341517Y334628D01*
X341749Y334814D01*
X342026Y334906D01*
X344571D01*
X344803Y334860D01*
D02*
G37*
G36*
X184169D02*
X184308Y334814D01*
X184493Y334582D01*
X184586Y334351D01*
Y334305D01*
Y334258D01*
Y315608D01*
X184539Y315376D01*
X184493Y315238D01*
X184262Y315053D01*
X184030Y314960D01*
X181485D01*
X181254Y315006D01*
X181068Y315053D01*
X180976Y315145D01*
X180883Y315284D01*
X180791Y315515D01*
Y315562D01*
Y315608D01*
Y328011D01*
X180745Y328658D01*
X180652Y329168D01*
X180513Y329677D01*
X180282Y330093D01*
X180050Y330417D01*
X179773Y330695D01*
X179449Y330926D01*
X179171Y331111D01*
X178570Y331389D01*
X178060Y331528D01*
X177829Y331574D01*
X174960D01*
X174821Y331620D01*
X174636Y331852D01*
X174543Y332129D01*
Y332176D01*
Y332222D01*
Y334258D01*
X174590Y334490D01*
X174636Y334628D01*
X174867Y334814D01*
X175099Y334906D01*
X176626D01*
X177135Y334860D01*
X177598Y334814D01*
X178014Y334721D01*
X178384Y334628D01*
X178708Y334490D01*
X178940Y334397D01*
X179079Y334351D01*
X179125Y334305D01*
X179495Y334073D01*
X179819Y333842D01*
X180097Y333564D01*
X180282Y333333D01*
X180467Y333101D01*
X180560Y332916D01*
X180652Y332777D01*
Y332731D01*
X180791D01*
Y334258D01*
X180837Y334490D01*
X180883Y334628D01*
X181115Y334814D01*
X181392Y334906D01*
X183938D01*
X184169Y334860D01*
D02*
G37*
G36*
X137566Y340043D02*
X138492Y339858D01*
X139279Y339580D01*
X139927Y339303D01*
X140436Y339025D01*
X140806Y338747D01*
X140991Y338562D01*
X141084Y338516D01*
X141593Y337868D01*
X142009Y337174D01*
X142287Y336433D01*
X142472Y335739D01*
X142565Y335091D01*
X142611Y334582D01*
X142657Y334397D01*
Y334258D01*
Y334166D01*
Y334119D01*
Y332592D01*
X142611Y332361D01*
X142565Y332176D01*
X142472Y332083D01*
X142333Y331991D01*
X142102Y331898D01*
X139464D01*
X139233Y331944D01*
X139094Y331991D01*
X138909Y332268D01*
X138816Y332500D01*
Y332546D01*
Y332592D01*
Y334027D01*
X138770Y334582D01*
X138723Y334999D01*
X138631Y335369D01*
X138492Y335693D01*
X138353Y335924D01*
X138261Y336063D01*
X138214Y336156D01*
X138168Y336202D01*
X137890Y336433D01*
X137520Y336572D01*
X136826Y336757D01*
X136502Y336804D01*
X136224Y336850D01*
X134095D01*
X133587Y336804D01*
X133124Y336711D01*
X132707Y336572D01*
X132383Y336433D01*
X132106Y336202D01*
X131874Y335971D01*
X131504Y335462D01*
X131272Y334906D01*
X131180Y334490D01*
X131134Y334305D01*
Y334166D01*
Y334073D01*
Y334027D01*
Y332731D01*
X131226Y332037D01*
X131411Y331389D01*
X131735Y330787D01*
X132059Y330278D01*
X132430Y329862D01*
X132753Y329584D01*
X132939Y329353D01*
X133031Y329306D01*
X140436Y323290D01*
X140806Y322966D01*
X141130Y322642D01*
X141639Y321948D01*
X142009Y321254D01*
X142241Y320652D01*
X142426Y320051D01*
X142472Y319634D01*
X142518Y319449D01*
Y319310D01*
Y319264D01*
Y319218D01*
Y315608D01*
X142472Y315376D01*
X142379Y315238D01*
X142148Y315053D01*
X141870Y314960D01*
X128033D01*
X127802Y315006D01*
X127617Y315053D01*
X127524Y315145D01*
X127431Y315284D01*
X127339Y315515D01*
Y315562D01*
Y315608D01*
Y317690D01*
X127385Y317922D01*
X127431Y318061D01*
X127663Y318246D01*
X127941Y318338D01*
X138214D01*
Y319588D01*
X138168Y319958D01*
X138076Y320282D01*
X137937Y320606D01*
X137752Y320837D01*
X137613Y321069D01*
X137474Y321208D01*
X137381Y321300D01*
X137335Y321347D01*
X129792Y327502D01*
X129375Y327872D01*
X129005Y328288D01*
X128681Y328705D01*
X128403Y329121D01*
X127987Y329954D01*
X127709Y330741D01*
X127570Y331435D01*
X127524Y331713D01*
X127478Y331991D01*
X127431Y332222D01*
Y332361D01*
Y332453D01*
Y332500D01*
Y334119D01*
X127478Y335138D01*
X127663Y336017D01*
X127941Y336757D01*
X128218Y337405D01*
X128542Y337868D01*
X128773Y338238D01*
X128959Y338423D01*
X129051Y338516D01*
X129699Y339025D01*
X130393Y339441D01*
X131134Y339719D01*
X131874Y339904D01*
X132522Y339997D01*
X133031Y340089D01*
X136548D01*
X137566Y340043D01*
D02*
G37*
G36*
X401356D02*
X402281Y339858D01*
X403022Y339580D01*
X403670Y339303D01*
X404179Y339025D01*
X404549Y338747D01*
X404734Y338562D01*
X404827Y338516D01*
X405336Y337868D01*
X405752Y337174D01*
X406030Y336387D01*
X406215Y335693D01*
X406307Y335045D01*
X406354Y334490D01*
X406400Y334305D01*
Y334166D01*
Y334073D01*
Y334027D01*
Y321022D01*
X406354Y320004D01*
X406169Y319125D01*
X405891Y318338D01*
X405613Y317690D01*
X405336Y317181D01*
X405058Y316811D01*
X404873Y316626D01*
X404827Y316534D01*
X404179Y316024D01*
X403438Y315608D01*
X402698Y315330D01*
X402004Y315145D01*
X401356Y315053D01*
X400800Y315006D01*
X400615Y314960D01*
X395802D01*
X394784Y315006D01*
X393905Y315191D01*
X393118Y315469D01*
X392516Y315747D01*
X392007Y316024D01*
X391637Y316302D01*
X391452Y316487D01*
X391359Y316534D01*
X390804Y317181D01*
X390434Y317922D01*
X390156Y318662D01*
X389925Y319403D01*
X389832Y320051D01*
X389786Y320560D01*
X389740Y320745D01*
Y320884D01*
Y320976D01*
Y321022D01*
Y322874D01*
X389786Y323105D01*
X389832Y323290D01*
X389971Y323383D01*
X390064Y323475D01*
X390341Y323568D01*
X392887D01*
X393118Y323522D01*
X393303Y323475D01*
X393396Y323336D01*
X393488Y323244D01*
X393581Y322966D01*
Y322920D01*
Y322874D01*
Y321161D01*
X393627Y320652D01*
X393720Y320190D01*
X393858Y319819D01*
X393997Y319495D01*
X394229Y319218D01*
X394460Y318940D01*
X394969Y318616D01*
X395524Y318385D01*
X395941Y318292D01*
X396126Y318246D01*
X399782D01*
X400291Y318292D01*
X400708Y318385D01*
X401078Y318524D01*
X401402Y318709D01*
X401680Y318940D01*
X401911Y319171D01*
X402235Y319727D01*
X402466Y320236D01*
X402559Y320699D01*
X402605Y320884D01*
Y321022D01*
Y321115D01*
Y321161D01*
Y333888D01*
X402559Y334397D01*
X402466Y334860D01*
X402327Y335230D01*
X402142Y335554D01*
X401957Y335878D01*
X401726Y336109D01*
X401171Y336433D01*
X400661Y336665D01*
X400199Y336757D01*
X400060Y336804D01*
X396404D01*
X395895Y336757D01*
X395478Y336665D01*
X395108Y336526D01*
X394784Y336341D01*
X394506Y336109D01*
X394275Y335878D01*
X393951Y335369D01*
X393720Y334814D01*
X393627Y334351D01*
X393581Y334166D01*
Y334027D01*
Y333934D01*
Y333888D01*
Y332176D01*
X393535Y331944D01*
X393488Y331759D01*
X393349Y331667D01*
X393210Y331574D01*
X392979Y331482D01*
X390434D01*
X390202Y331528D01*
X390017Y331574D01*
X389925Y331713D01*
X389832Y331852D01*
X389740Y332083D01*
Y332129D01*
Y332176D01*
Y334027D01*
X389786Y335045D01*
X389971Y335971D01*
X390249Y336711D01*
X390526Y337359D01*
X390850Y337868D01*
X391082Y338238D01*
X391267Y338423D01*
X391359Y338516D01*
X392007Y339025D01*
X392701Y339441D01*
X393442Y339719D01*
X394182Y339904D01*
X394830Y339997D01*
X395339Y340089D01*
X400337D01*
X401356Y340043D01*
D02*
G37*
G36*
X380623Y334860D02*
X381502Y334675D01*
X382289Y334397D01*
X382937Y334119D01*
X383446Y333796D01*
X383816Y333564D01*
X384001Y333379D01*
X384094Y333286D01*
X384603Y332639D01*
X385019Y331944D01*
X385297Y331204D01*
X385482Y330463D01*
X385574Y329815D01*
X385621Y329306D01*
X385667Y329121D01*
Y328983D01*
Y328890D01*
Y328844D01*
Y321022D01*
X385621Y320004D01*
X385436Y319125D01*
X385158Y318338D01*
X384880Y317690D01*
X384603Y317181D01*
X384325Y316811D01*
X384140Y316626D01*
X384094Y316534D01*
X383446Y316024D01*
X382705Y315608D01*
X381965Y315330D01*
X381224Y315145D01*
X380576Y315053D01*
X380067Y315006D01*
X379882Y314960D01*
X376134D01*
X375116Y315006D01*
X374236Y315191D01*
X373450Y315469D01*
X372802Y315747D01*
X372293Y316024D01*
X371922Y316302D01*
X371737Y316487D01*
X371645Y316534D01*
X371089Y317181D01*
X370719Y317922D01*
X370441Y318662D01*
X370210Y319403D01*
X370117Y320051D01*
X370071Y320560D01*
X370025Y320745D01*
Y320884D01*
Y320976D01*
Y321022D01*
Y328844D01*
X370071Y329862D01*
X370256Y330741D01*
X370534Y331528D01*
X370812Y332129D01*
X371136Y332639D01*
X371367Y333009D01*
X371552Y333194D01*
X371645Y333286D01*
X372293Y333842D01*
X373033Y334212D01*
X373773Y334490D01*
X374514Y334721D01*
X375162Y334814D01*
X375671Y334860D01*
X375856Y334906D01*
X379605D01*
X380623Y334860D01*
D02*
G37*
G36*
X320321D02*
X321201Y334675D01*
X321987Y334397D01*
X322635Y334119D01*
X323144Y333796D01*
X323515Y333564D01*
X323700Y333379D01*
X323792Y333286D01*
X324301Y332639D01*
X324718Y331944D01*
X324996Y331204D01*
X325181Y330463D01*
X325273Y329815D01*
X325320Y329306D01*
X325366Y329121D01*
Y328983D01*
Y328890D01*
Y328844D01*
Y321022D01*
X325320Y320004D01*
X325134Y319125D01*
X324857Y318338D01*
X324579Y317690D01*
X324301Y317181D01*
X324024Y316811D01*
X323839Y316626D01*
X323792Y316534D01*
X323144Y316024D01*
X322404Y315608D01*
X321664Y315330D01*
X320923Y315145D01*
X320275Y315053D01*
X319766Y315006D01*
X319581Y314960D01*
X310834D01*
X310603Y315006D01*
X310418Y315053D01*
X310325Y315145D01*
X310233Y315284D01*
X310140Y315469D01*
Y315515D01*
Y315562D01*
Y317505D01*
X310186Y317737D01*
X310233Y317922D01*
X310371Y318061D01*
X310464Y318153D01*
X310742Y318246D01*
X318748D01*
X319257Y318292D01*
X319674Y318385D01*
X320044Y318524D01*
X320368Y318709D01*
X320645Y318894D01*
X320877Y319125D01*
X321201Y319680D01*
X321432Y320190D01*
X321525Y320652D01*
X321571Y320791D01*
Y320930D01*
Y321022D01*
Y321069D01*
Y322781D01*
X321525Y323013D01*
X321340Y323105D01*
X321201Y323151D01*
X310649D01*
X310418Y323198D01*
X310233Y323244D01*
X310140Y323383D01*
X310047Y323522D01*
X309955Y323753D01*
Y323799D01*
Y323845D01*
Y328844D01*
X310001Y329862D01*
X310186Y330741D01*
X310464Y331528D01*
X310742Y332129D01*
X311066Y332639D01*
X311297Y333009D01*
X311482Y333194D01*
X311575Y333286D01*
X312223Y333842D01*
X312963Y334212D01*
X313704Y334490D01*
X314444Y334721D01*
X315092Y334814D01*
X315601Y334860D01*
X315786Y334906D01*
X319303D01*
X320321Y334860D01*
D02*
G37*
G36*
X301023D02*
X301903Y334675D01*
X302689Y334397D01*
X303337Y334119D01*
X303846Y333796D01*
X304216Y333564D01*
X304401Y333379D01*
X304494Y333286D01*
X305003Y332639D01*
X305420Y331944D01*
X305697Y331204D01*
X305882Y330463D01*
X305975Y329815D01*
X306021Y329306D01*
X306068Y329121D01*
Y328983D01*
Y328890D01*
Y328844D01*
Y321022D01*
X306021Y320004D01*
X305836Y319125D01*
X305558Y318338D01*
X305281Y317690D01*
X305003Y317181D01*
X304725Y316811D01*
X304540Y316626D01*
X304494Y316534D01*
X303846Y316024D01*
X303106Y315608D01*
X302365Y315330D01*
X301625Y315145D01*
X300977Y315053D01*
X300468Y315006D01*
X300283Y314960D01*
X294220D01*
X293989Y315006D01*
X293804Y315053D01*
X293711Y315145D01*
X293619Y315284D01*
X293526Y315469D01*
Y315515D01*
Y315562D01*
Y317598D01*
X293572Y317829D01*
X293619Y317968D01*
X293850Y318153D01*
X294128Y318246D01*
X299450D01*
X299959Y318292D01*
X300375Y318385D01*
X300746Y318524D01*
X301070Y318709D01*
X301347Y318940D01*
X301579Y319171D01*
X301903Y319727D01*
X302134Y320236D01*
X302226Y320699D01*
X302273Y320884D01*
Y321022D01*
Y321115D01*
Y321161D01*
Y328658D01*
X302226Y329168D01*
X302134Y329630D01*
X301995Y330001D01*
X301810Y330325D01*
X301625Y330648D01*
X301393Y330880D01*
X300838Y331204D01*
X300329Y331435D01*
X299866Y331528D01*
X299727Y331574D01*
X294220D01*
X293989Y331620D01*
X293804Y331667D01*
X293711Y331759D01*
X293619Y331898D01*
X293526Y332129D01*
Y332176D01*
Y332222D01*
Y334258D01*
X293572Y334490D01*
X293619Y334628D01*
X293850Y334814D01*
X294128Y334906D01*
X300005D01*
X301023Y334860D01*
D02*
G37*
G36*
X288343Y339441D02*
X288528Y339395D01*
X288620Y339303D01*
X288713Y339164D01*
X288806Y338932D01*
Y338886D01*
Y338840D01*
Y335276D01*
X288852Y335045D01*
X288991Y334952D01*
X289176Y334906D01*
X291073D01*
X291305Y334860D01*
X291444Y334814D01*
X291629Y334582D01*
X291721Y334351D01*
Y334305D01*
Y334258D01*
Y332222D01*
Y331991D01*
X291675Y331852D01*
X291629Y331759D01*
Y331713D01*
X291490Y331620D01*
X291305Y331574D01*
X289222D01*
X288991Y331528D01*
X288852Y331389D01*
X288806Y331250D01*
Y331204D01*
Y320930D01*
X288713Y319912D01*
X288528Y319032D01*
X288297Y318246D01*
X287973Y317644D01*
X287695Y317135D01*
X287417Y316765D01*
X287232Y316580D01*
X287186Y316487D01*
X286492Y315978D01*
X285751Y315608D01*
X285011Y315330D01*
X284270Y315145D01*
X283622Y315053D01*
X283067Y315006D01*
X282882Y314960D01*
X280522D01*
X280290Y315006D01*
X280105Y315053D01*
X279966Y315145D01*
X279874Y315284D01*
X279781Y315469D01*
Y315515D01*
Y315562D01*
Y317598D01*
X279827Y317829D01*
X279874Y317968D01*
X280151Y318153D01*
X280383Y318246D01*
X282049D01*
X282558Y318292D01*
X283021Y318385D01*
X283391Y318524D01*
X283715Y318709D01*
X283993Y318894D01*
X284270Y319171D01*
X284594Y319680D01*
X284826Y320190D01*
X284918Y320652D01*
X284964Y320837D01*
Y320976D01*
Y321069D01*
Y321115D01*
Y331204D01*
X284918Y331435D01*
X284733Y331528D01*
X284594Y331574D01*
X280892D01*
X280660Y331620D01*
X280475Y331667D01*
X280383Y331759D01*
X280290Y331898D01*
X280198Y332129D01*
Y332176D01*
Y332222D01*
Y334258D01*
X280244Y334490D01*
X280290Y334628D01*
X280522Y334814D01*
X280799Y334906D01*
X284548D01*
X284779Y334952D01*
X284918Y335091D01*
X284964Y335230D01*
Y335276D01*
Y338840D01*
X285011Y339071D01*
X285057Y339210D01*
X285288Y339395D01*
X285566Y339488D01*
X288111D01*
X288343Y339441D01*
D02*
G37*
G36*
X255161Y340043D02*
X255346Y339997D01*
X255439Y339904D01*
X255531Y339765D01*
X255624Y339534D01*
Y339488D01*
Y339441D01*
Y321161D01*
X255670Y320652D01*
X255763Y320190D01*
X255901Y319819D01*
X256040Y319495D01*
X256272Y319218D01*
X256503Y318940D01*
X257012Y318616D01*
X257567Y318385D01*
X257984Y318292D01*
X258169Y318246D01*
X261223D01*
X261733Y318292D01*
X262149Y318385D01*
X262519Y318524D01*
X262843Y318709D01*
X263121Y318940D01*
X263352Y319171D01*
X263676Y319727D01*
X263908Y320236D01*
X264000Y320699D01*
X264046Y320884D01*
Y321022D01*
Y321115D01*
Y321161D01*
Y324540D01*
X264093Y324771D01*
X264139Y324910D01*
X264370Y325095D01*
X264602Y325188D01*
X267193D01*
X267425Y325141D01*
X267610Y325095D01*
X267702Y325003D01*
X267795Y324864D01*
X267888Y324632D01*
Y324586D01*
Y324540D01*
Y321022D01*
X267795Y320004D01*
X267610Y319125D01*
X267379Y318338D01*
X267055Y317690D01*
X266777Y317181D01*
X266499Y316811D01*
X266314Y316626D01*
X266268Y316534D01*
X265620Y316024D01*
X264879Y315608D01*
X264139Y315330D01*
X263398Y315145D01*
X262751Y315053D01*
X262241Y315006D01*
X262056Y314960D01*
X257845D01*
X256827Y315006D01*
X255948Y315191D01*
X255161Y315469D01*
X254559Y315747D01*
X254050Y316024D01*
X253680Y316302D01*
X253495Y316487D01*
X253402Y316534D01*
X252847Y317181D01*
X252477Y317922D01*
X252199Y318662D01*
X251968Y319403D01*
X251875Y320051D01*
X251829Y320560D01*
X251782Y320745D01*
Y320884D01*
Y320976D01*
Y321022D01*
Y339488D01*
X251829Y339673D01*
X251875Y339858D01*
X252106Y339997D01*
X252338Y340089D01*
X254930D01*
X255161Y340043D01*
D02*
G37*
G36*
X229337D02*
X230263Y339858D01*
X231050Y339580D01*
X231698Y339303D01*
X232207Y339025D01*
X232577Y338747D01*
X232762Y338562D01*
X232854Y338516D01*
X233364Y337868D01*
X233780Y337174D01*
X234058Y336387D01*
X234243Y335693D01*
X234335Y335045D01*
X234382Y334490D01*
X234428Y334305D01*
Y334166D01*
Y334073D01*
Y334027D01*
Y330371D01*
X234382Y329353D01*
X234197Y328473D01*
X233919Y327687D01*
X233641Y327085D01*
X233364Y326576D01*
X233086Y326206D01*
X232901Y326021D01*
X232854Y325928D01*
X232207Y325419D01*
X231466Y325003D01*
X230726Y324725D01*
X229985Y324540D01*
X229337Y324447D01*
X228782Y324401D01*
X228597Y324355D01*
X222303D01*
Y321161D01*
X222349Y320652D01*
X222442Y320190D01*
X222581Y319819D01*
X222719Y319495D01*
X222951Y319218D01*
X223182Y318940D01*
X223691Y318616D01*
X224247Y318385D01*
X224663Y318292D01*
X224848Y318246D01*
X232484D01*
X232762Y318200D01*
X232947Y318153D01*
X233086Y318061D01*
X233179Y317968D01*
X233271Y317737D01*
Y317690D01*
Y317644D01*
Y315608D01*
X233225Y315376D01*
X233132Y315238D01*
X232854Y315053D01*
X232623Y314960D01*
X224571D01*
X223552Y315006D01*
X222627Y315191D01*
X221886Y315469D01*
X221238Y315747D01*
X220730Y316024D01*
X220359Y316302D01*
X220174Y316487D01*
X220082Y316534D01*
X219526Y317181D01*
X219156Y317922D01*
X218878Y318662D01*
X218647Y319403D01*
X218554Y320051D01*
X218508Y320560D01*
X218462Y320745D01*
Y320884D01*
Y320976D01*
Y321022D01*
Y334027D01*
X218508Y335045D01*
X218693Y335971D01*
X218971Y336711D01*
X219249Y337359D01*
X219573Y337868D01*
X219804Y338238D01*
X219989Y338423D01*
X220082Y338516D01*
X220730Y339025D01*
X221424Y339441D01*
X222210Y339719D01*
X222905Y339904D01*
X223552Y339997D01*
X224108Y340089D01*
X228319D01*
X229337Y340043D01*
D02*
G37*
G36*
X199719Y334860D02*
X200598Y334675D01*
X201385Y334397D01*
X202033Y334119D01*
X202542Y333796D01*
X202912Y333564D01*
X203097Y333379D01*
X203190Y333286D01*
X203699Y332639D01*
X204115Y331944D01*
X204393Y331204D01*
X204578Y330463D01*
X204671Y329815D01*
X204717Y329306D01*
X204763Y329121D01*
Y328983D01*
Y328890D01*
Y328844D01*
Y321022D01*
X204717Y320004D01*
X204532Y319125D01*
X204254Y318338D01*
X203976Y317690D01*
X203699Y317181D01*
X203421Y316811D01*
X203236Y316626D01*
X203190Y316534D01*
X202542Y316024D01*
X201801Y315608D01*
X201061Y315330D01*
X200320Y315145D01*
X199673Y315053D01*
X199163Y315006D01*
X198978Y314960D01*
X195230D01*
X194212Y315006D01*
X193332Y315191D01*
X192546Y315469D01*
X191898Y315747D01*
X191389Y316024D01*
X191019Y316302D01*
X190833Y316487D01*
X190741Y316534D01*
X190185Y317181D01*
X189815Y317922D01*
X189538Y318662D01*
X189306Y319403D01*
X189214Y320051D01*
X189167Y320560D01*
X189121Y320745D01*
Y320884D01*
Y320976D01*
Y321022D01*
Y328844D01*
X189167Y329862D01*
X189352Y330741D01*
X189630Y331528D01*
X189908Y332129D01*
X190232Y332639D01*
X190463Y333009D01*
X190648Y333194D01*
X190741Y333286D01*
X191389Y333842D01*
X192129Y334212D01*
X192870Y334490D01*
X193610Y334721D01*
X194258Y334814D01*
X194767Y334860D01*
X194952Y334906D01*
X198701D01*
X199719Y334860D01*
D02*
G37*
G36*
X150571Y340043D02*
X150756Y339997D01*
X150849Y339904D01*
X150941Y339765D01*
X151034Y339534D01*
Y339488D01*
Y339441D01*
Y321161D01*
X151080Y320652D01*
X151172Y320190D01*
X151311Y319819D01*
X151450Y319495D01*
X151681Y319218D01*
X151913Y318940D01*
X152422Y318616D01*
X152977Y318385D01*
X153394Y318292D01*
X153579Y318246D01*
X156633D01*
X157142Y318292D01*
X157559Y318385D01*
X157929Y318524D01*
X158253Y318709D01*
X158531Y318940D01*
X158762Y319171D01*
X159086Y319727D01*
X159318Y320236D01*
X159410Y320699D01*
X159456Y320884D01*
Y321022D01*
Y321115D01*
Y321161D01*
Y324540D01*
X159503Y324771D01*
X159549Y324910D01*
X159780Y325095D01*
X160012Y325188D01*
X162603D01*
X162835Y325141D01*
X163020Y325095D01*
X163112Y325003D01*
X163205Y324864D01*
X163298Y324632D01*
Y324586D01*
Y324540D01*
Y321022D01*
X163205Y320004D01*
X163020Y319125D01*
X162788Y318338D01*
X162464Y317690D01*
X162187Y317181D01*
X161909Y316811D01*
X161724Y316626D01*
X161678Y316534D01*
X161030Y316024D01*
X160289Y315608D01*
X159549Y315330D01*
X158808Y315145D01*
X158160Y315053D01*
X157651Y315006D01*
X157466Y314960D01*
X153255D01*
X152237Y315006D01*
X151357Y315191D01*
X150571Y315469D01*
X149969Y315747D01*
X149460Y316024D01*
X149090Y316302D01*
X148905Y316487D01*
X148812Y316534D01*
X148257Y317181D01*
X147887Y317922D01*
X147609Y318662D01*
X147378Y319403D01*
X147285Y320051D01*
X147239Y320560D01*
X147192Y320745D01*
Y320884D01*
Y320976D01*
Y321022D01*
Y339488D01*
X147239Y339673D01*
X147285Y339858D01*
X147516Y339997D01*
X147748Y340089D01*
X150339D01*
X150571Y340043D01*
D02*
G37*
G36*
X118083D02*
X119009Y339858D01*
X119795Y339580D01*
X120443Y339303D01*
X120952Y339025D01*
X121323Y338747D01*
X121508Y338562D01*
X121600Y338516D01*
X122109Y337868D01*
X122526Y337174D01*
X122803Y336387D01*
X122989Y335693D01*
X123081Y335045D01*
X123127Y334490D01*
X123174Y334305D01*
Y334166D01*
Y334073D01*
Y334027D01*
Y321022D01*
X123127Y320004D01*
X122942Y319125D01*
X122665Y318338D01*
X122387Y317690D01*
X122109Y317181D01*
X121832Y316811D01*
X121646Y316626D01*
X121600Y316534D01*
X120952Y316024D01*
X120212Y315608D01*
X119471Y315330D01*
X118731Y315145D01*
X118083Y315053D01*
X117528Y315006D01*
X117343Y314960D01*
X113177D01*
X112159Y315006D01*
X111280Y315191D01*
X110493Y315469D01*
X109892Y315747D01*
X109383Y316024D01*
X109012Y316302D01*
X108827Y316487D01*
X108735Y316534D01*
X108179Y317181D01*
X107809Y317922D01*
X107531Y318662D01*
X107300Y319403D01*
X107208Y320051D01*
X107161Y320560D01*
X107115Y320745D01*
Y320884D01*
Y320976D01*
Y321022D01*
Y334027D01*
X107161Y335045D01*
X107346Y335971D01*
X107624Y336711D01*
X107902Y337359D01*
X108226Y337868D01*
X108457Y338238D01*
X108642Y338423D01*
X108735Y338516D01*
X109383Y339025D01*
X110077Y339441D01*
X110817Y339719D01*
X111558Y339904D01*
X112206Y339997D01*
X112715Y340089D01*
X117065D01*
X118083Y340043D01*
D02*
G37*
G36*
X95010Y308494D02*
X95149Y308448D01*
X95334Y308263D01*
X95427Y308031D01*
Y307985D01*
Y307939D01*
Y304375D01*
X95381Y304144D01*
X95334Y303959D01*
X95242Y303866D01*
X95103Y303774D01*
X94872Y303681D01*
X92234D01*
X92049Y303727D01*
X91863Y303774D01*
X91725Y304051D01*
X91632Y304283D01*
Y304329D01*
Y304375D01*
Y307939D01*
X91678Y308124D01*
X91725Y308309D01*
X91910Y308448D01*
X92141Y308540D01*
X94779D01*
X95010Y308494D01*
D02*
G37*
G36*
X86079Y300997D02*
X86217Y300951D01*
X86403Y300719D01*
X86495Y300488D01*
Y300442D01*
Y300395D01*
Y281745D01*
X86449Y281514D01*
X86403Y281375D01*
X86171Y281190D01*
X85940Y281097D01*
X83394D01*
X83163Y281143D01*
X82978Y281190D01*
X82885Y281282D01*
X82793Y281421D01*
X82700Y281653D01*
Y281699D01*
Y281745D01*
Y294379D01*
X82654Y294981D01*
X82561Y295490D01*
X82423Y295906D01*
X82191Y296323D01*
X81960Y296647D01*
X81682Y296878D01*
X81404Y297110D01*
X81081Y297295D01*
X80525Y297526D01*
X80016Y297665D01*
X79785Y297711D01*
X77656D01*
X77147Y297665D01*
X76730Y297572D01*
X76314Y297434D01*
X75990Y297248D01*
X75712Y297017D01*
X75481Y296786D01*
X75157Y296277D01*
X74925Y295721D01*
X74833Y295259D01*
X74787Y295073D01*
Y294935D01*
Y294842D01*
Y294796D01*
Y281745D01*
X74740Y281514D01*
X74694Y281375D01*
X74463Y281190D01*
X74231Y281097D01*
X71686D01*
X71455Y281143D01*
X71269Y281190D01*
X71131Y281282D01*
X71038Y281421D01*
X70946Y281653D01*
Y281699D01*
Y281745D01*
Y294981D01*
X70992Y295999D01*
X71177Y296924D01*
X71408Y297665D01*
X71686Y298313D01*
X72010Y298822D01*
X72241Y299192D01*
X72426Y299377D01*
X72473Y299470D01*
X73121Y299979D01*
X73815Y300395D01*
X74555Y300673D01*
X75249Y300858D01*
X75897Y300951D01*
X76406Y301043D01*
X79137D01*
X79600Y300951D01*
X80479Y300719D01*
X81173Y300395D01*
X81682Y300025D01*
X82099Y299609D01*
X82376Y299285D01*
X82515Y299053D01*
X82561Y299007D01*
Y298961D01*
X82700D01*
Y300395D01*
X82746Y300627D01*
X82793Y300766D01*
X83024Y300951D01*
X83302Y301043D01*
X85847D01*
X86079Y300997D01*
D02*
G37*
G36*
X65809D02*
X65947Y300951D01*
X66132Y300719D01*
X66225Y300488D01*
Y300442D01*
Y300395D01*
Y276284D01*
X66179Y276053D01*
X66132Y275868D01*
X66040Y275775D01*
X65901Y275683D01*
X65670Y275590D01*
X63124D01*
X62893Y275636D01*
X62708Y275683D01*
X62615Y275821D01*
X62523Y275960D01*
X62430Y276192D01*
Y276238D01*
Y276284D01*
Y283133D01*
X62291D01*
X62106Y282763D01*
X61828Y282486D01*
X61273Y281977D01*
X60625Y281606D01*
X59931Y281375D01*
X59330Y281190D01*
X58774Y281143D01*
X58589Y281097D01*
X56321D01*
X55303Y281143D01*
X54470Y281329D01*
X53730Y281606D01*
X53128Y281884D01*
X52619Y282162D01*
X52295Y282439D01*
X52064Y282624D01*
X52017Y282671D01*
X51508Y283319D01*
X51138Y284059D01*
X50861Y284799D01*
X50675Y285494D01*
X50583Y286142D01*
X50490Y286697D01*
Y286882D01*
Y287021D01*
Y287113D01*
Y287160D01*
Y294981D01*
X50536Y295999D01*
X50722Y296924D01*
X50953Y297665D01*
X51231Y298313D01*
X51555Y298822D01*
X51786Y299192D01*
X51971Y299377D01*
X52017Y299470D01*
X52619Y299979D01*
X53313Y300395D01*
X54007Y300673D01*
X54702Y300858D01*
X55349Y300951D01*
X55859Y301043D01*
X58867D01*
X59330Y300951D01*
X60209Y300719D01*
X60903Y300395D01*
X61412Y300025D01*
X61828Y299609D01*
X62106Y299285D01*
X62245Y299053D01*
X62291Y299007D01*
Y298961D01*
X62430D01*
Y300395D01*
X62476Y300627D01*
X62523Y300766D01*
X62754Y300951D01*
X63032Y301043D01*
X65577D01*
X65809Y300997D01*
D02*
G37*
G36*
X186966D02*
X187105Y300951D01*
X187290Y300719D01*
X187383Y300488D01*
Y300442D01*
Y300395D01*
Y281745D01*
X187337Y281514D01*
X187290Y281375D01*
X187059Y281190D01*
X186828Y281097D01*
X184282D01*
X184051Y281143D01*
X183866Y281190D01*
X183773Y281282D01*
X183681Y281421D01*
X183588Y281653D01*
Y281699D01*
Y281745D01*
Y294148D01*
X183542Y294796D01*
X183449Y295305D01*
X183310Y295814D01*
X183079Y296230D01*
X182848Y296554D01*
X182570Y296832D01*
X182246Y297063D01*
X181968Y297248D01*
X181367Y297526D01*
X180858Y297665D01*
X180626Y297711D01*
X177757D01*
X177618Y297757D01*
X177433Y297989D01*
X177340Y298267D01*
Y298313D01*
Y298359D01*
Y300395D01*
X177387Y300627D01*
X177433Y300766D01*
X177664Y300951D01*
X177896Y301043D01*
X179423D01*
X179932Y300997D01*
X180395Y300951D01*
X180811Y300858D01*
X181182Y300766D01*
X181506Y300627D01*
X181737Y300534D01*
X181876Y300488D01*
X181922Y300442D01*
X182292Y300210D01*
X182616Y299979D01*
X182894Y299701D01*
X183079Y299470D01*
X183264Y299238D01*
X183357Y299053D01*
X183449Y298915D01*
Y298868D01*
X183588D01*
Y300395D01*
X183634Y300627D01*
X183681Y300766D01*
X183912Y300951D01*
X184190Y301043D01*
X186735D01*
X186966Y300997D01*
D02*
G37*
G36*
X160449Y306180D02*
X161374Y305995D01*
X162161Y305718D01*
X162809Y305440D01*
X163318Y305162D01*
X163688Y304884D01*
X163873Y304699D01*
X163966Y304653D01*
X164475Y304005D01*
X164891Y303311D01*
X165169Y302570D01*
X165354Y301876D01*
X165447Y301229D01*
X165493Y300719D01*
X165539Y300534D01*
Y300395D01*
Y300303D01*
Y300257D01*
Y298729D01*
X165493Y298498D01*
X165447Y298313D01*
X165354Y298220D01*
X165215Y298128D01*
X164984Y298035D01*
X162346D01*
X162115Y298081D01*
X161976Y298128D01*
X161791Y298405D01*
X161698Y298637D01*
Y298683D01*
Y298729D01*
Y300164D01*
X161652Y300719D01*
X161606Y301136D01*
X161513Y301506D01*
X161374Y301830D01*
X161235Y302062D01*
X161143Y302200D01*
X161097Y302293D01*
X161050Y302339D01*
X160773Y302570D01*
X160402Y302709D01*
X159708Y302894D01*
X159384Y302941D01*
X159107Y302987D01*
X156978D01*
X156469Y302941D01*
X156006Y302848D01*
X155589Y302709D01*
X155265Y302570D01*
X154988Y302339D01*
X154756Y302108D01*
X154386Y301599D01*
X154155Y301043D01*
X154062Y300627D01*
X154016Y300442D01*
Y300303D01*
Y300210D01*
Y300164D01*
Y298868D01*
X154108Y298174D01*
X154294Y297526D01*
X154618Y296924D01*
X154942Y296416D01*
X155312Y295999D01*
X155636Y295721D01*
X155821Y295490D01*
X155913Y295444D01*
X163318Y289427D01*
X163688Y289103D01*
X164012Y288780D01*
X164521Y288085D01*
X164891Y287391D01*
X165123Y286789D01*
X165308Y286188D01*
X165354Y285771D01*
X165401Y285586D01*
Y285447D01*
Y285401D01*
Y285355D01*
Y281745D01*
X165354Y281514D01*
X165262Y281375D01*
X165030Y281190D01*
X164753Y281097D01*
X150915D01*
X150684Y281143D01*
X150499Y281190D01*
X150406Y281282D01*
X150314Y281421D01*
X150221Y281653D01*
Y281699D01*
Y281745D01*
Y283828D01*
X150267Y284059D01*
X150314Y284198D01*
X150545Y284383D01*
X150823Y284475D01*
X161097D01*
Y285725D01*
X161050Y286095D01*
X160958Y286419D01*
X160819Y286743D01*
X160634Y286975D01*
X160495Y287206D01*
X160356Y287345D01*
X160264Y287437D01*
X160217Y287484D01*
X152674Y293639D01*
X152257Y294009D01*
X151887Y294426D01*
X151563Y294842D01*
X151285Y295259D01*
X150869Y296091D01*
X150591Y296878D01*
X150452Y297572D01*
X150406Y297850D01*
X150360Y298128D01*
X150314Y298359D01*
Y298498D01*
Y298591D01*
Y298637D01*
Y300257D01*
X150360Y301275D01*
X150545Y302154D01*
X150823Y302894D01*
X151100Y303542D01*
X151424Y304005D01*
X151656Y304375D01*
X151841Y304561D01*
X151933Y304653D01*
X152581Y305162D01*
X153275Y305579D01*
X154016Y305856D01*
X154756Y306042D01*
X155404Y306134D01*
X155913Y306227D01*
X159431D01*
X160449Y306180D01*
D02*
G37*
G36*
X255737D02*
X255922Y306134D01*
X256014Y306042D01*
X256107Y305903D01*
X256199Y305671D01*
Y305625D01*
Y305579D01*
Y293269D01*
X256153Y293037D01*
X256107Y292898D01*
X255829Y292713D01*
X255598Y292621D01*
X253053D01*
X252821Y292667D01*
X252590Y292759D01*
X252266Y293083D01*
X252081Y293407D01*
X251988Y293500D01*
Y293546D01*
X251849Y293731D01*
X251618Y293916D01*
X251479Y294055D01*
X251387Y294102D01*
X250970Y294287D01*
X250553Y294333D01*
X250368Y294379D01*
X247684D01*
X247083Y294333D01*
X246620Y294287D01*
X246203Y294148D01*
X245879Y294009D01*
X245648Y293870D01*
X245509Y293778D01*
X245417Y293685D01*
X245370Y293639D01*
X245139Y293315D01*
X244954Y292945D01*
X244861Y292528D01*
X244769Y292111D01*
X244722Y291741D01*
X244676Y291417D01*
Y291232D01*
Y291140D01*
Y287160D01*
X244722Y286651D01*
X244815Y286234D01*
X244954Y285864D01*
X245139Y285540D01*
X245324Y285262D01*
X245602Y285031D01*
X246111Y284707D01*
X246620Y284475D01*
X247083Y284383D01*
X247268Y284337D01*
X249813D01*
X250322Y284383D01*
X250739Y284475D01*
X251109Y284614D01*
X251433Y284799D01*
X251710Y284985D01*
X251942Y285216D01*
X252266Y285771D01*
X252497Y286280D01*
X252590Y286743D01*
X252636Y286882D01*
Y287021D01*
Y287113D01*
Y287160D01*
Y288178D01*
X252682Y288409D01*
X252729Y288594D01*
X252821Y288687D01*
X252960Y288780D01*
X253191Y288872D01*
X255737D01*
X255968Y288826D01*
X256153Y288780D01*
X256246Y288641D01*
X256338Y288548D01*
X256431Y288270D01*
Y288224D01*
Y288178D01*
Y287160D01*
X256385Y286142D01*
X256199Y285262D01*
X255922Y284475D01*
X255644Y283828D01*
X255366Y283319D01*
X255089Y282948D01*
X254904Y282763D01*
X254857Y282671D01*
X254209Y282162D01*
X253469Y281745D01*
X252729Y281467D01*
X251988Y281282D01*
X251340Y281190D01*
X250831Y281143D01*
X250646Y281097D01*
X247036D01*
X246018Y281143D01*
X245139Y281329D01*
X244352Y281606D01*
X243704Y281884D01*
X243195Y282162D01*
X242825Y282439D01*
X242640Y282624D01*
X242547Y282671D01*
X241992Y283319D01*
X241622Y284059D01*
X241344Y284799D01*
X241113Y285540D01*
X241020Y286188D01*
X240974Y286697D01*
X240928Y286882D01*
Y287021D01*
Y287113D01*
Y287160D01*
Y291695D01*
X240974Y292713D01*
X241159Y293592D01*
X241390Y294333D01*
X241668Y294935D01*
X241992Y295397D01*
X242223Y295721D01*
X242408Y295953D01*
X242455Y295999D01*
X243056Y296508D01*
X243750Y296878D01*
X244445Y297110D01*
X245139Y297295D01*
X245787Y297387D01*
X246296Y297480D01*
X249073D01*
X249952Y297387D01*
X250692Y297202D01*
X251248Y296878D01*
X251664Y296554D01*
X251988Y296184D01*
X252220Y295860D01*
X252312Y295675D01*
X252358Y295582D01*
Y302663D01*
X242223D01*
X241992Y302709D01*
X241807Y302756D01*
X241714Y302894D01*
X241622Y303033D01*
X241529Y303265D01*
Y303311D01*
Y303357D01*
Y305579D01*
X241575Y305810D01*
X241622Y305949D01*
X241853Y306134D01*
X242131Y306227D01*
X255505D01*
X255737Y306180D01*
D02*
G37*
G36*
X237873D02*
X238058Y306134D01*
X238151Y305995D01*
X238197Y305856D01*
Y305625D01*
Y305532D01*
Y305486D01*
X231672Y281745D01*
X231579Y281514D01*
X231487Y281375D01*
X231209Y281190D01*
X230977Y281097D01*
X226998D01*
X226812Y281143D01*
X226627Y281190D01*
X226396Y281421D01*
X226303Y281653D01*
X226257Y281699D01*
Y281745D01*
X219685Y305486D01*
X219639Y305718D01*
X219685Y305903D01*
X219824Y306042D01*
X219917Y306134D01*
X220195Y306227D01*
X223064D01*
X223295Y306180D01*
X223480Y306134D01*
X223712Y305903D01*
X223804Y305671D01*
X223851Y305625D01*
Y305579D01*
X228849Y285123D01*
X229034D01*
X234078Y305579D01*
X234125Y305810D01*
X234217Y305949D01*
X234495Y306134D01*
X234726Y306227D01*
X237595D01*
X237873Y306180D01*
D02*
G37*
G36*
X126341D02*
X126526Y306134D01*
X126619Y305995D01*
X126665Y305856D01*
Y305625D01*
Y305532D01*
Y305486D01*
X120140Y281745D01*
X120047Y281514D01*
X119955Y281375D01*
X119677Y281190D01*
X119446Y281097D01*
X115466D01*
X115281Y281143D01*
X115095Y281190D01*
X114864Y281421D01*
X114771Y281653D01*
X114725Y281699D01*
Y281745D01*
X108154Y305486D01*
X108107Y305718D01*
X108154Y305903D01*
X108292Y306042D01*
X108385Y306134D01*
X108663Y306227D01*
X111532D01*
X111763Y306180D01*
X111948Y306134D01*
X112180Y305903D01*
X112272Y305671D01*
X112319Y305625D01*
Y305579D01*
X117317Y285123D01*
X117502D01*
X122546Y305579D01*
X122593Y305810D01*
X122685Y305949D01*
X122963Y306134D01*
X123194Y306227D01*
X126063D01*
X126341Y306180D01*
D02*
G37*
G36*
X45724Y300997D02*
X45862Y300951D01*
X46048Y300719D01*
X46140Y300488D01*
Y300442D01*
Y300395D01*
Y287160D01*
X46094Y286142D01*
X45909Y285216D01*
X45677Y284475D01*
X45400Y283828D01*
X45122Y283319D01*
X44890Y282948D01*
X44705Y282763D01*
X44659Y282671D01*
X44011Y282162D01*
X43317Y281745D01*
X42623Y281467D01*
X41929Y281282D01*
X41281Y281190D01*
X40772Y281143D01*
X40587Y281097D01*
X38550D01*
X37995Y281143D01*
X37532Y281190D01*
X36653Y281421D01*
X36005Y281745D01*
X35450Y282115D01*
X35079Y282486D01*
X34802Y282810D01*
X34663Y283041D01*
X34617Y283133D01*
X34432D01*
Y281745D01*
X34385Y281514D01*
X34339Y281375D01*
X34107Y281190D01*
X33876Y281097D01*
X31331D01*
X31099Y281143D01*
X30914Y281190D01*
X30822Y281282D01*
X30729Y281421D01*
X30637Y281653D01*
Y281699D01*
Y281745D01*
Y300395D01*
X30683Y300627D01*
X30729Y300766D01*
X30961Y300951D01*
X31238Y301043D01*
X33784D01*
X34015Y300997D01*
X34154Y300951D01*
X34339Y300719D01*
X34432Y300488D01*
Y300442D01*
Y300395D01*
Y287715D01*
X34478Y287113D01*
X34570Y286604D01*
X34709Y286188D01*
X34941Y285771D01*
X35172Y285447D01*
X35450Y285216D01*
X35727Y284985D01*
X36051Y284799D01*
X36653Y284568D01*
X37162Y284429D01*
X37393D01*
X37532Y284383D01*
X39522D01*
X40031Y284429D01*
X40448Y284522D01*
X40818Y284661D01*
X41142Y284846D01*
X41420Y285077D01*
X41651Y285308D01*
X41975Y285864D01*
X42206Y286373D01*
X42299Y286836D01*
X42345Y287021D01*
Y287160D01*
Y287252D01*
Y287299D01*
Y300395D01*
X42391Y300627D01*
X42438Y300766D01*
X42669Y300951D01*
X42947Y301043D01*
X45492D01*
X45724Y300997D01*
D02*
G37*
G36*
X407161Y306180D02*
X407346Y306134D01*
X407485Y306042D01*
X407577Y305903D01*
X407670Y305671D01*
Y305625D01*
Y305579D01*
Y303589D01*
X407624Y303357D01*
X407531Y303218D01*
X407300Y303033D01*
X407022Y302941D01*
X402024D01*
X401793Y302894D01*
X401654Y302756D01*
X401608Y302570D01*
Y302524D01*
Y281745D01*
X401561Y281514D01*
X401515Y281375D01*
X401237Y281190D01*
X401006Y281097D01*
X398461D01*
X398229Y281143D01*
X398044Y281190D01*
X397952Y281282D01*
X397859Y281421D01*
X397766Y281653D01*
Y281699D01*
Y281745D01*
Y302524D01*
X397720Y302756D01*
X397535Y302894D01*
X397396Y302941D01*
X392444D01*
X392213Y302987D01*
X392028Y303033D01*
X391889Y303126D01*
X391796Y303265D01*
X391704Y303496D01*
Y303542D01*
Y303589D01*
Y305579D01*
X391750Y305810D01*
X391796Y305949D01*
X392074Y306134D01*
X392305Y306227D01*
X406930D01*
X407161Y306180D01*
D02*
G37*
G36*
X384114Y300997D02*
X384993Y300812D01*
X385780Y300534D01*
X386428Y300257D01*
X386937Y299933D01*
X387307Y299701D01*
X387492Y299516D01*
X387585Y299424D01*
X388094Y298776D01*
X388511Y298081D01*
X388788Y297341D01*
X388973Y296601D01*
X389066Y295953D01*
X389112Y295444D01*
X389159Y295259D01*
Y295120D01*
Y295027D01*
Y294981D01*
Y287160D01*
X389112Y286142D01*
X388927Y285262D01*
X388649Y284475D01*
X388372Y283828D01*
X388094Y283319D01*
X387816Y282948D01*
X387631Y282763D01*
X387585Y282671D01*
X386937Y282162D01*
X386197Y281745D01*
X385456Y281467D01*
X384716Y281282D01*
X384068Y281190D01*
X383559Y281143D01*
X383374Y281097D01*
X379625D01*
X378607Y281143D01*
X377728Y281329D01*
X376941Y281606D01*
X376293Y281884D01*
X375784Y282162D01*
X375414Y282439D01*
X375229Y282624D01*
X375136Y282671D01*
X374581Y283319D01*
X374210Y284059D01*
X373933Y284799D01*
X373701Y285540D01*
X373609Y286188D01*
X373563Y286697D01*
X373516Y286882D01*
Y287021D01*
Y287113D01*
Y287160D01*
Y294981D01*
X373563Y295999D01*
X373748Y296878D01*
X374025Y297665D01*
X374303Y298267D01*
X374627Y298776D01*
X374858Y299146D01*
X375043Y299331D01*
X375136Y299424D01*
X375784Y299979D01*
X376524Y300349D01*
X377265Y300627D01*
X378005Y300858D01*
X378653Y300951D01*
X379162Y300997D01*
X379347Y301043D01*
X383096D01*
X384114Y300997D01*
D02*
G37*
G36*
X355930D02*
X356810Y300812D01*
X357550Y300581D01*
X358198Y300257D01*
X358753Y299886D01*
X359170Y299470D01*
X359540Y299007D01*
X359864Y298544D01*
X360095Y298035D01*
X360280Y297619D01*
X360373Y297156D01*
X360466Y296786D01*
X360512Y296462D01*
X360558Y296230D01*
Y296045D01*
Y295999D01*
X360512Y295351D01*
X360419Y294749D01*
X360280Y294240D01*
X360095Y293824D01*
X359957Y293454D01*
X359818Y293222D01*
X359725Y293037D01*
X359679Y292991D01*
X359309Y292574D01*
X358846Y292204D01*
X358337Y291880D01*
X357874Y291556D01*
X357458Y291325D01*
X357087Y291140D01*
X356856Y291001D01*
X356763Y290955D01*
X352506Y288918D01*
X351904Y288594D01*
X351441Y288178D01*
X351117Y287808D01*
X350886Y287391D01*
X350747Y287067D01*
X350701Y286789D01*
X350654Y286604D01*
Y286512D01*
Y286049D01*
X350701Y285725D01*
X350747Y285447D01*
X351071Y285031D01*
X351441Y284707D01*
X351904Y284522D01*
X352413Y284383D01*
X352783Y284337D01*
X353107Y284290D01*
X359771D01*
X360003Y284244D01*
X360142Y284198D01*
X360327Y283967D01*
X360419Y283735D01*
Y283689D01*
Y283643D01*
Y281745D01*
X360373Y281514D01*
X360327Y281375D01*
X360095Y281190D01*
X359864Y281097D01*
X352552D01*
X351534Y281143D01*
X350608Y281329D01*
X349868Y281560D01*
X349174Y281884D01*
X348618Y282254D01*
X348156Y282717D01*
X347739Y283133D01*
X347461Y283643D01*
X347230Y284105D01*
X347045Y284568D01*
X346906Y284985D01*
X346813Y285355D01*
X346767Y285679D01*
X346721Y285910D01*
Y286095D01*
Y286142D01*
X346767Y286836D01*
X346860Y287484D01*
X346952Y288039D01*
X347091Y288502D01*
X347276Y288872D01*
X347369Y289103D01*
X347461Y289289D01*
X347508Y289335D01*
X347831Y289798D01*
X348248Y290214D01*
X348711Y290584D01*
X349174Y290908D01*
X349590Y291140D01*
X349960Y291325D01*
X350192Y291464D01*
X350238Y291510D01*
X350284D01*
X354588Y293685D01*
X354958Y293870D01*
X355236Y294055D01*
X355745Y294426D01*
X356069Y294796D01*
X356347Y295120D01*
X356486Y295397D01*
X356532Y295675D01*
X356578Y295814D01*
Y295860D01*
Y296323D01*
X356532Y296554D01*
X356486Y296786D01*
X356254Y297110D01*
X356069Y297295D01*
X356023Y297387D01*
X355977D01*
X355699Y297526D01*
X355421Y297619D01*
X354820Y297757D01*
X354588Y297804D01*
X348433D01*
X348248Y297850D01*
X348063Y297896D01*
X347924Y298128D01*
X347831Y298359D01*
Y298405D01*
Y298452D01*
Y300395D01*
X347878Y300627D01*
X347924Y300766D01*
X348109Y300951D01*
X348341Y301043D01*
X354958D01*
X355930Y300997D01*
D02*
G37*
G36*
X338020D02*
X338900Y300812D01*
X339686Y300534D01*
X340334Y300257D01*
X340843Y299933D01*
X341214Y299701D01*
X341399Y299516D01*
X341491Y299424D01*
X342000Y298776D01*
X342417Y298081D01*
X342695Y297341D01*
X342880Y296601D01*
X342972Y295953D01*
X343018Y295444D01*
X343065Y295259D01*
Y295120D01*
Y295027D01*
Y294981D01*
Y287160D01*
X343018Y286142D01*
X342833Y285262D01*
X342556Y284475D01*
X342278Y283828D01*
X342000Y283319D01*
X341723Y282948D01*
X341538Y282763D01*
X341491Y282671D01*
X340843Y282162D01*
X340103Y281745D01*
X339362Y281467D01*
X338622Y281282D01*
X337974Y281190D01*
X337465Y281143D01*
X337280Y281097D01*
X328533D01*
X328302Y281143D01*
X328117Y281190D01*
X328024Y281282D01*
X327932Y281421D01*
X327839Y281606D01*
Y281653D01*
Y281699D01*
Y283643D01*
X327885Y283874D01*
X327932Y284059D01*
X328070Y284198D01*
X328163Y284290D01*
X328441Y284383D01*
X336447D01*
X336956Y284429D01*
X337373Y284522D01*
X337743Y284661D01*
X338067Y284846D01*
X338344Y285031D01*
X338576Y285262D01*
X338900Y285818D01*
X339131Y286327D01*
X339224Y286789D01*
X339270Y286928D01*
Y287067D01*
Y287160D01*
Y287206D01*
Y288918D01*
X339224Y289150D01*
X339039Y289242D01*
X338900Y289289D01*
X328348D01*
X328117Y289335D01*
X327932Y289381D01*
X327839Y289520D01*
X327747Y289659D01*
X327654Y289890D01*
Y289936D01*
Y289983D01*
Y294981D01*
X327700Y295999D01*
X327885Y296878D01*
X328163Y297665D01*
X328441Y298267D01*
X328765Y298776D01*
X328996Y299146D01*
X329181Y299331D01*
X329274Y299424D01*
X329922Y299979D01*
X330662Y300349D01*
X331403Y300627D01*
X332143Y300858D01*
X332791Y300951D01*
X333300Y300997D01*
X333485Y301043D01*
X337002D01*
X338020Y300997D01*
D02*
G37*
G36*
X322748Y308540D02*
X322887Y308494D01*
X323072Y308263D01*
X323165Y308031D01*
Y307985D01*
Y307939D01*
Y281745D01*
X323119Y281514D01*
X323072Y281375D01*
X322841Y281190D01*
X322610Y281097D01*
X320018D01*
X319787Y281143D01*
X319648Y281190D01*
X319463Y281421D01*
X319370Y281653D01*
Y281699D01*
Y281745D01*
Y307939D01*
X319416Y308170D01*
X319463Y308309D01*
X319694Y308494D01*
X319925Y308587D01*
X322517D01*
X322748Y308540D01*
D02*
G37*
G36*
X309605Y300997D02*
X310485Y300812D01*
X311271Y300534D01*
X311919Y300257D01*
X312428Y299933D01*
X312799Y299701D01*
X312984Y299516D01*
X313076Y299424D01*
X313585Y298776D01*
X314002Y298081D01*
X314279Y297341D01*
X314464Y296601D01*
X314557Y295953D01*
X314603Y295444D01*
X314650Y295259D01*
Y295120D01*
Y295027D01*
Y294981D01*
Y287160D01*
X314603Y286142D01*
X314418Y285262D01*
X314140Y284475D01*
X313863Y283828D01*
X313585Y283319D01*
X313307Y282948D01*
X313122Y282763D01*
X313076Y282671D01*
X312428Y282162D01*
X311688Y281745D01*
X310947Y281467D01*
X310207Y281282D01*
X309559Y281190D01*
X309050Y281143D01*
X308865Y281097D01*
X300118D01*
X299887Y281143D01*
X299702Y281190D01*
X299609Y281282D01*
X299516Y281421D01*
X299424Y281606D01*
Y281653D01*
Y281699D01*
Y283643D01*
X299470Y283874D01*
X299516Y284059D01*
X299655Y284198D01*
X299748Y284290D01*
X300026Y284383D01*
X308032D01*
X308541Y284429D01*
X308957Y284522D01*
X309328Y284661D01*
X309652Y284846D01*
X309929Y285031D01*
X310161Y285262D01*
X310485Y285818D01*
X310716Y286327D01*
X310809Y286789D01*
X310855Y286928D01*
Y287067D01*
Y287160D01*
Y287206D01*
Y288918D01*
X310809Y289150D01*
X310623Y289242D01*
X310485Y289289D01*
X299933D01*
X299702Y289335D01*
X299516Y289381D01*
X299424Y289520D01*
X299331Y289659D01*
X299239Y289890D01*
Y289936D01*
Y289983D01*
Y294981D01*
X299285Y295999D01*
X299470Y296878D01*
X299748Y297665D01*
X300026Y298267D01*
X300350Y298776D01*
X300581Y299146D01*
X300766Y299331D01*
X300858Y299424D01*
X301506Y299979D01*
X302247Y300349D01*
X302987Y300627D01*
X303728Y300858D01*
X304376Y300951D01*
X304885Y300997D01*
X305070Y301043D01*
X308587D01*
X309605Y300997D01*
D02*
G37*
G36*
X290307D02*
X291186Y300812D01*
X291973Y300534D01*
X292621Y300257D01*
X293130Y299933D01*
X293500Y299701D01*
X293685Y299516D01*
X293778Y299424D01*
X294287Y298776D01*
X294703Y298081D01*
X294981Y297341D01*
X295166Y296601D01*
X295259Y295953D01*
X295305Y295444D01*
X295351Y295259D01*
Y295120D01*
Y295027D01*
Y294981D01*
Y287160D01*
X295305Y286142D01*
X295120Y285262D01*
X294842Y284475D01*
X294565Y283828D01*
X294287Y283319D01*
X294009Y282948D01*
X293824Y282763D01*
X293778Y282671D01*
X293130Y282162D01*
X292390Y281745D01*
X291649Y281467D01*
X290909Y281282D01*
X290261Y281190D01*
X289752Y281143D01*
X289566Y281097D01*
X283504D01*
X283273Y281143D01*
X283088Y281190D01*
X282995Y281282D01*
X282902Y281421D01*
X282810Y281606D01*
Y281653D01*
Y281699D01*
Y283735D01*
X282856Y283967D01*
X282902Y284105D01*
X283134Y284290D01*
X283411Y284383D01*
X288734D01*
X289243Y284429D01*
X289659Y284522D01*
X290029Y284661D01*
X290353Y284846D01*
X290631Y285077D01*
X290862Y285308D01*
X291186Y285864D01*
X291418Y286373D01*
X291510Y286836D01*
X291556Y287021D01*
Y287160D01*
Y287252D01*
Y287299D01*
Y294796D01*
X291510Y295305D01*
X291418Y295768D01*
X291279Y296138D01*
X291094Y296462D01*
X290909Y296786D01*
X290677Y297017D01*
X290122Y297341D01*
X289613Y297572D01*
X289150Y297665D01*
X289011Y297711D01*
X283504D01*
X283273Y297757D01*
X283088Y297804D01*
X282995Y297896D01*
X282902Y298035D01*
X282810Y298267D01*
Y298313D01*
Y298359D01*
Y300395D01*
X282856Y300627D01*
X282902Y300766D01*
X283134Y300951D01*
X283411Y301043D01*
X289289D01*
X290307Y300997D01*
D02*
G37*
G36*
X277627Y305579D02*
X277812Y305532D01*
X277904Y305440D01*
X277997Y305301D01*
X278089Y305070D01*
Y305023D01*
Y304977D01*
Y301414D01*
X278136Y301182D01*
X278274Y301090D01*
X278460Y301043D01*
X280357D01*
X280588Y300997D01*
X280727Y300951D01*
X280912Y300719D01*
X281005Y300488D01*
Y300442D01*
Y300395D01*
Y298359D01*
Y298128D01*
X280959Y297989D01*
X280912Y297896D01*
Y297850D01*
X280774Y297757D01*
X280588Y297711D01*
X278506D01*
X278274Y297665D01*
X278136Y297526D01*
X278089Y297387D01*
Y297341D01*
Y287067D01*
X277997Y286049D01*
X277812Y285170D01*
X277580Y284383D01*
X277256Y283781D01*
X276979Y283272D01*
X276701Y282902D01*
X276516Y282717D01*
X276470Y282624D01*
X275775Y282115D01*
X275035Y281745D01*
X274294Y281467D01*
X273554Y281282D01*
X272906Y281190D01*
X272351Y281143D01*
X272166Y281097D01*
X269806D01*
X269574Y281143D01*
X269389Y281190D01*
X269250Y281282D01*
X269158Y281421D01*
X269065Y281606D01*
Y281653D01*
Y281699D01*
Y283735D01*
X269111Y283967D01*
X269158Y284105D01*
X269435Y284290D01*
X269667Y284383D01*
X271333D01*
X271842Y284429D01*
X272304Y284522D01*
X272675Y284661D01*
X272999Y284846D01*
X273276Y285031D01*
X273554Y285308D01*
X273878Y285818D01*
X274109Y286327D01*
X274202Y286789D01*
X274248Y286975D01*
Y287113D01*
Y287206D01*
Y287252D01*
Y297341D01*
X274202Y297572D01*
X274017Y297665D01*
X273878Y297711D01*
X270176D01*
X269944Y297757D01*
X269759Y297804D01*
X269667Y297896D01*
X269574Y298035D01*
X269482Y298267D01*
Y298313D01*
Y298359D01*
Y300395D01*
X269528Y300627D01*
X269574Y300766D01*
X269806Y300951D01*
X270083Y301043D01*
X273832D01*
X274063Y301090D01*
X274202Y301229D01*
X274248Y301367D01*
Y301414D01*
Y304977D01*
X274294Y305208D01*
X274341Y305347D01*
X274572Y305532D01*
X274850Y305625D01*
X277395D01*
X277627Y305579D01*
D02*
G37*
G36*
X202516Y300997D02*
X203395Y300812D01*
X204182Y300534D01*
X204830Y300257D01*
X205339Y299933D01*
X205709Y299701D01*
X205894Y299516D01*
X205987Y299424D01*
X206496Y298776D01*
X206913Y298081D01*
X207190Y297341D01*
X207375Y296601D01*
X207468Y295953D01*
X207514Y295444D01*
X207561Y295259D01*
Y295120D01*
Y295027D01*
Y294981D01*
Y287160D01*
X207514Y286142D01*
X207329Y285262D01*
X207051Y284475D01*
X206774Y283828D01*
X206496Y283319D01*
X206218Y282948D01*
X206033Y282763D01*
X205987Y282671D01*
X205339Y282162D01*
X204599Y281745D01*
X203858Y281467D01*
X203118Y281282D01*
X202470Y281190D01*
X201961Y281143D01*
X201776Y281097D01*
X198027D01*
X197009Y281143D01*
X196130Y281329D01*
X195343Y281606D01*
X194695Y281884D01*
X194186Y282162D01*
X193816Y282439D01*
X193631Y282624D01*
X193538Y282671D01*
X192983Y283319D01*
X192612Y284059D01*
X192335Y284799D01*
X192103Y285540D01*
X192011Y286188D01*
X191964Y286697D01*
X191918Y286882D01*
Y287021D01*
Y287113D01*
Y287160D01*
Y294981D01*
X191964Y295999D01*
X192150Y296878D01*
X192427Y297665D01*
X192705Y298267D01*
X193029Y298776D01*
X193260Y299146D01*
X193445Y299331D01*
X193538Y299424D01*
X194186Y299979D01*
X194926Y300349D01*
X195667Y300627D01*
X196407Y300858D01*
X197055Y300951D01*
X197564Y300997D01*
X197749Y301043D01*
X201498D01*
X202516Y300997D01*
D02*
G37*
G36*
X136708Y306180D02*
X136985Y306134D01*
X137124Y306088D01*
X137170Y306042D01*
X137402Y305856D01*
X137587Y305579D01*
X137726Y305347D01*
X137772Y305301D01*
Y305255D01*
X146519Y289705D01*
X146704Y289196D01*
X146796Y288687D01*
X146843Y288502D01*
Y288317D01*
Y288224D01*
Y288178D01*
Y286975D01*
X146796Y286604D01*
X146658Y286327D01*
X146473Y286142D01*
X146287Y286003D01*
X146102Y285910D01*
X145917Y285864D01*
X135365D01*
Y281745D01*
X135319Y281514D01*
X135273Y281375D01*
X135042Y281190D01*
X134810Y281097D01*
X132404D01*
X132219Y281143D01*
X132034Y281190D01*
X131895Y281421D01*
X131802Y281653D01*
Y281699D01*
Y281745D01*
Y285864D01*
X128933D01*
X128701Y285910D01*
X128516Y286003D01*
X128424Y286095D01*
X128331Y286234D01*
X128239Y286512D01*
Y286558D01*
Y286604D01*
Y288548D01*
X128285Y288780D01*
X128331Y288918D01*
X128563Y289103D01*
X128840Y289196D01*
X131802D01*
Y305116D01*
X131848Y305486D01*
X131987Y305764D01*
X132172Y305949D01*
X132357Y306088D01*
X132542Y306180D01*
X132728Y306227D01*
X136384D01*
X136708Y306180D01*
D02*
G37*
G36*
X95010Y300997D02*
X95149Y300951D01*
X95334Y300719D01*
X95427Y300488D01*
Y300442D01*
Y300395D01*
Y281745D01*
X95381Y281514D01*
X95334Y281375D01*
X95103Y281190D01*
X94872Y281097D01*
X92002D01*
X91863Y281143D01*
X91817Y281190D01*
X91771D01*
X91678Y281329D01*
X91632Y281514D01*
Y281699D01*
Y281745D01*
Y300395D01*
X91678Y300627D01*
X91725Y300766D01*
X91956Y300951D01*
X92187Y301043D01*
X94779D01*
X95010Y300997D01*
D02*
G37*
G36*
X24250Y305579D02*
X24435Y305532D01*
X24528Y305440D01*
X24620Y305301D01*
X24713Y305070D01*
Y305023D01*
Y304977D01*
Y301414D01*
X24759Y301182D01*
X24898Y301090D01*
X25083Y301043D01*
X26981D01*
X27212Y300997D01*
X27351Y300951D01*
X27536Y300719D01*
X27629Y300488D01*
Y300442D01*
Y300395D01*
Y298359D01*
Y298128D01*
X27582Y297989D01*
X27536Y297896D01*
Y297850D01*
X27397Y297757D01*
X27212Y297711D01*
X25129D01*
X24898Y297665D01*
X24759Y297526D01*
X24713Y297387D01*
Y297341D01*
Y287067D01*
X24620Y286049D01*
X24435Y285170D01*
X24204Y284383D01*
X23880Y283781D01*
X23602Y283272D01*
X23325Y282902D01*
X23140Y282717D01*
X23093Y282624D01*
X22399Y282115D01*
X21658Y281745D01*
X20918Y281467D01*
X20178Y281282D01*
X19530Y281190D01*
X18974Y281143D01*
X18789Y281097D01*
X16429D01*
X16198Y281143D01*
X16013Y281190D01*
X15874Y281282D01*
X15781Y281421D01*
X15689Y281606D01*
Y281653D01*
Y281699D01*
Y283735D01*
X15735Y283967D01*
X15781Y284105D01*
X16059Y284290D01*
X16290Y284383D01*
X17956D01*
X18465Y284429D01*
X18928Y284522D01*
X19298Y284661D01*
X19622Y284846D01*
X19900Y285031D01*
X20178Y285308D01*
X20502Y285818D01*
X20733Y286327D01*
X20826Y286789D01*
X20872Y286975D01*
Y287113D01*
Y287206D01*
Y287252D01*
Y297341D01*
X20826Y297572D01*
X20640Y297665D01*
X20502Y297711D01*
X16799D01*
X16568Y297757D01*
X16383Y297804D01*
X16290Y297896D01*
X16198Y298035D01*
X16105Y298267D01*
Y298313D01*
Y298359D01*
Y300395D01*
X16151Y300627D01*
X16198Y300766D01*
X16429Y300951D01*
X16707Y301043D01*
X20455D01*
X20687Y301090D01*
X20826Y301229D01*
X20872Y301367D01*
Y301414D01*
Y304977D01*
X20918Y305208D01*
X20964Y305347D01*
X21196Y305532D01*
X21473Y305625D01*
X24019D01*
X24250Y305579D01*
D02*
G37*
G36*
X95010Y415174D02*
X95149Y415128D01*
X95334Y414943D01*
X95427Y414711D01*
Y414665D01*
Y414619D01*
Y411055D01*
X95381Y410824D01*
X95334Y410639D01*
X95242Y410546D01*
X95103Y410454D01*
X94872Y410361D01*
X92234D01*
X92049Y410407D01*
X91863Y410454D01*
X91725Y410732D01*
X91632Y410963D01*
Y411009D01*
Y411055D01*
Y414619D01*
X91678Y414804D01*
X91725Y414989D01*
X91910Y415128D01*
X92141Y415220D01*
X94779D01*
X95010Y415174D01*
D02*
G37*
G36*
X86079Y407677D02*
X86217Y407631D01*
X86403Y407399D01*
X86495Y407168D01*
Y407122D01*
Y407075D01*
Y388425D01*
X86449Y388194D01*
X86403Y388055D01*
X86171Y387870D01*
X85940Y387777D01*
X83394D01*
X83163Y387823D01*
X82978Y387870D01*
X82885Y387962D01*
X82793Y388101D01*
X82700Y388332D01*
Y388379D01*
Y388425D01*
Y401059D01*
X82654Y401661D01*
X82561Y402170D01*
X82423Y402586D01*
X82191Y403003D01*
X81960Y403327D01*
X81682Y403558D01*
X81404Y403790D01*
X81081Y403975D01*
X80525Y404206D01*
X80016Y404345D01*
X79785Y404391D01*
X77656D01*
X77147Y404345D01*
X76730Y404252D01*
X76314Y404114D01*
X75990Y403928D01*
X75712Y403697D01*
X75481Y403466D01*
X75157Y402957D01*
X74925Y402401D01*
X74833Y401939D01*
X74787Y401753D01*
Y401614D01*
Y401522D01*
Y401476D01*
Y388425D01*
X74740Y388194D01*
X74694Y388055D01*
X74463Y387870D01*
X74231Y387777D01*
X71686D01*
X71455Y387823D01*
X71269Y387870D01*
X71131Y387962D01*
X71038Y388101D01*
X70946Y388332D01*
Y388379D01*
Y388425D01*
Y401661D01*
X70992Y402679D01*
X71177Y403605D01*
X71408Y404345D01*
X71686Y404993D01*
X72010Y405502D01*
X72241Y405872D01*
X72426Y406057D01*
X72473Y406150D01*
X73121Y406659D01*
X73815Y407075D01*
X74555Y407353D01*
X75249Y407538D01*
X75897Y407631D01*
X76406Y407723D01*
X79137D01*
X79600Y407631D01*
X80479Y407399D01*
X81173Y407075D01*
X81682Y406705D01*
X82099Y406289D01*
X82376Y405965D01*
X82515Y405733D01*
X82561Y405687D01*
Y405641D01*
X82700D01*
Y407075D01*
X82746Y407307D01*
X82793Y407446D01*
X83024Y407631D01*
X83302Y407723D01*
X85847D01*
X86079Y407677D01*
D02*
G37*
G36*
X65809D02*
X65947Y407631D01*
X66132Y407399D01*
X66225Y407168D01*
Y407122D01*
Y407075D01*
Y382964D01*
X66179Y382733D01*
X66132Y382548D01*
X66040Y382455D01*
X65901Y382363D01*
X65670Y382270D01*
X63124D01*
X62893Y382316D01*
X62708Y382363D01*
X62615Y382501D01*
X62523Y382640D01*
X62430Y382872D01*
Y382918D01*
Y382964D01*
Y389813D01*
X62291D01*
X62106Y389443D01*
X61828Y389165D01*
X61273Y388657D01*
X60625Y388286D01*
X59931Y388055D01*
X59330Y387870D01*
X58774Y387823D01*
X58589Y387777D01*
X56321D01*
X55303Y387823D01*
X54470Y388009D01*
X53730Y388286D01*
X53128Y388564D01*
X52619Y388842D01*
X52295Y389119D01*
X52064Y389304D01*
X52017Y389351D01*
X51508Y389999D01*
X51138Y390739D01*
X50861Y391479D01*
X50675Y392174D01*
X50583Y392822D01*
X50490Y393377D01*
Y393562D01*
Y393701D01*
Y393793D01*
Y393840D01*
Y401661D01*
X50536Y402679D01*
X50722Y403605D01*
X50953Y404345D01*
X51231Y404993D01*
X51555Y405502D01*
X51786Y405872D01*
X51971Y406057D01*
X52017Y406150D01*
X52619Y406659D01*
X53313Y407075D01*
X54007Y407353D01*
X54702Y407538D01*
X55349Y407631D01*
X55859Y407723D01*
X58867D01*
X59330Y407631D01*
X60209Y407399D01*
X60903Y407075D01*
X61412Y406705D01*
X61828Y406289D01*
X62106Y405965D01*
X62245Y405733D01*
X62291Y405687D01*
Y405641D01*
X62430D01*
Y407075D01*
X62476Y407307D01*
X62523Y407446D01*
X62754Y407631D01*
X63032Y407723D01*
X65577D01*
X65809Y407677D01*
D02*
G37*
G36*
X186966D02*
X187105Y407631D01*
X187290Y407399D01*
X187383Y407168D01*
Y407122D01*
Y407075D01*
Y388425D01*
X187337Y388194D01*
X187290Y388055D01*
X187059Y387870D01*
X186828Y387777D01*
X184282D01*
X184051Y387823D01*
X183866Y387870D01*
X183773Y387962D01*
X183681Y388101D01*
X183588Y388332D01*
Y388379D01*
Y388425D01*
Y400828D01*
X183542Y401476D01*
X183449Y401985D01*
X183310Y402494D01*
X183079Y402910D01*
X182848Y403234D01*
X182570Y403512D01*
X182246Y403743D01*
X181968Y403928D01*
X181367Y404206D01*
X180858Y404345D01*
X180626Y404391D01*
X177757D01*
X177618Y404437D01*
X177433Y404669D01*
X177340Y404947D01*
Y404993D01*
Y405039D01*
Y407075D01*
X177387Y407307D01*
X177433Y407446D01*
X177664Y407631D01*
X177896Y407723D01*
X179423D01*
X179932Y407677D01*
X180395Y407631D01*
X180811Y407538D01*
X181182Y407446D01*
X181506Y407307D01*
X181737Y407214D01*
X181876Y407168D01*
X181922Y407122D01*
X182292Y406890D01*
X182616Y406659D01*
X182894Y406381D01*
X183079Y406150D01*
X183264Y405919D01*
X183357Y405733D01*
X183449Y405594D01*
Y405548D01*
X183588D01*
Y407075D01*
X183634Y407307D01*
X183681Y407446D01*
X183912Y407631D01*
X184190Y407723D01*
X186735D01*
X186966Y407677D01*
D02*
G37*
G36*
X160449Y412860D02*
X161374Y412675D01*
X162161Y412397D01*
X162809Y412120D01*
X163318Y411842D01*
X163688Y411564D01*
X163873Y411379D01*
X163966Y411333D01*
X164475Y410685D01*
X164891Y409991D01*
X165169Y409250D01*
X165354Y408556D01*
X165447Y407909D01*
X165493Y407399D01*
X165539Y407214D01*
Y407075D01*
Y406983D01*
Y406937D01*
Y405409D01*
X165493Y405178D01*
X165447Y404993D01*
X165354Y404900D01*
X165215Y404808D01*
X164984Y404715D01*
X162346D01*
X162115Y404762D01*
X161976Y404808D01*
X161791Y405085D01*
X161698Y405317D01*
Y405363D01*
Y405409D01*
Y406844D01*
X161652Y407399D01*
X161606Y407816D01*
X161513Y408186D01*
X161374Y408510D01*
X161235Y408741D01*
X161143Y408880D01*
X161097Y408973D01*
X161050Y409019D01*
X160773Y409250D01*
X160402Y409389D01*
X159708Y409575D01*
X159384Y409621D01*
X159107Y409667D01*
X156978D01*
X156469Y409621D01*
X156006Y409528D01*
X155589Y409389D01*
X155265Y409250D01*
X154988Y409019D01*
X154756Y408788D01*
X154386Y408279D01*
X154155Y407723D01*
X154062Y407307D01*
X154016Y407122D01*
Y406983D01*
Y406890D01*
Y406844D01*
Y405548D01*
X154108Y404854D01*
X154294Y404206D01*
X154618Y403605D01*
X154942Y403096D01*
X155312Y402679D01*
X155636Y402401D01*
X155821Y402170D01*
X155913Y402124D01*
X163318Y396107D01*
X163688Y395783D01*
X164012Y395460D01*
X164521Y394765D01*
X164891Y394071D01*
X165123Y393470D01*
X165308Y392868D01*
X165354Y392451D01*
X165401Y392266D01*
Y392127D01*
Y392081D01*
Y392035D01*
Y388425D01*
X165354Y388194D01*
X165262Y388055D01*
X165030Y387870D01*
X164753Y387777D01*
X150915D01*
X150684Y387823D01*
X150499Y387870D01*
X150406Y387962D01*
X150314Y388101D01*
X150221Y388332D01*
Y388379D01*
Y388425D01*
Y390508D01*
X150267Y390739D01*
X150314Y390878D01*
X150545Y391063D01*
X150823Y391156D01*
X161097D01*
Y392405D01*
X161050Y392775D01*
X160958Y393099D01*
X160819Y393423D01*
X160634Y393655D01*
X160495Y393886D01*
X160356Y394025D01*
X160264Y394117D01*
X160217Y394164D01*
X152674Y400319D01*
X152257Y400689D01*
X151887Y401105D01*
X151563Y401522D01*
X151285Y401939D01*
X150869Y402771D01*
X150591Y403558D01*
X150452Y404252D01*
X150406Y404530D01*
X150360Y404808D01*
X150314Y405039D01*
Y405178D01*
Y405271D01*
Y405317D01*
Y406937D01*
X150360Y407955D01*
X150545Y408834D01*
X150823Y409575D01*
X151100Y410222D01*
X151424Y410685D01*
X151656Y411055D01*
X151841Y411241D01*
X151933Y411333D01*
X152581Y411842D01*
X153275Y412259D01*
X154016Y412536D01*
X154756Y412721D01*
X155404Y412814D01*
X155913Y412907D01*
X159431D01*
X160449Y412860D01*
D02*
G37*
G36*
X255737D02*
X255922Y412814D01*
X256014Y412721D01*
X256107Y412583D01*
X256199Y412351D01*
Y412305D01*
Y412259D01*
Y399949D01*
X256153Y399717D01*
X256107Y399578D01*
X255829Y399393D01*
X255598Y399301D01*
X253053D01*
X252821Y399347D01*
X252590Y399439D01*
X252266Y399763D01*
X252081Y400087D01*
X251988Y400180D01*
Y400226D01*
X251849Y400411D01*
X251618Y400596D01*
X251479Y400735D01*
X251387Y400782D01*
X250970Y400967D01*
X250553Y401013D01*
X250368Y401059D01*
X247684D01*
X247083Y401013D01*
X246620Y400967D01*
X246203Y400828D01*
X245879Y400689D01*
X245648Y400550D01*
X245509Y400458D01*
X245417Y400365D01*
X245370Y400319D01*
X245139Y399995D01*
X244954Y399624D01*
X244861Y399208D01*
X244769Y398792D01*
X244722Y398421D01*
X244676Y398097D01*
Y397912D01*
Y397820D01*
Y393840D01*
X244722Y393331D01*
X244815Y392914D01*
X244954Y392544D01*
X245139Y392220D01*
X245324Y391942D01*
X245602Y391711D01*
X246111Y391387D01*
X246620Y391156D01*
X247083Y391063D01*
X247268Y391017D01*
X249813D01*
X250322Y391063D01*
X250739Y391156D01*
X251109Y391294D01*
X251433Y391479D01*
X251710Y391665D01*
X251942Y391896D01*
X252266Y392451D01*
X252497Y392960D01*
X252590Y393423D01*
X252636Y393562D01*
Y393701D01*
Y393793D01*
Y393840D01*
Y394858D01*
X252682Y395089D01*
X252729Y395274D01*
X252821Y395367D01*
X252960Y395460D01*
X253191Y395552D01*
X255737D01*
X255968Y395506D01*
X256153Y395460D01*
X256246Y395321D01*
X256338Y395228D01*
X256431Y394950D01*
Y394904D01*
Y394858D01*
Y393840D01*
X256385Y392822D01*
X256199Y391942D01*
X255922Y391156D01*
X255644Y390508D01*
X255366Y389999D01*
X255089Y389628D01*
X254904Y389443D01*
X254857Y389351D01*
X254209Y388842D01*
X253469Y388425D01*
X252729Y388147D01*
X251988Y387962D01*
X251340Y387870D01*
X250831Y387823D01*
X250646Y387777D01*
X247036D01*
X246018Y387823D01*
X245139Y388009D01*
X244352Y388286D01*
X243704Y388564D01*
X243195Y388842D01*
X242825Y389119D01*
X242640Y389304D01*
X242547Y389351D01*
X241992Y389999D01*
X241622Y390739D01*
X241344Y391479D01*
X241113Y392220D01*
X241020Y392868D01*
X240974Y393377D01*
X240928Y393562D01*
Y393701D01*
Y393793D01*
Y393840D01*
Y398375D01*
X240974Y399393D01*
X241159Y400272D01*
X241390Y401013D01*
X241668Y401614D01*
X241992Y402077D01*
X242223Y402401D01*
X242408Y402633D01*
X242455Y402679D01*
X243056Y403188D01*
X243750Y403558D01*
X244445Y403790D01*
X245139Y403975D01*
X245787Y404067D01*
X246296Y404160D01*
X249073D01*
X249952Y404067D01*
X250692Y403882D01*
X251248Y403558D01*
X251664Y403234D01*
X251988Y402864D01*
X252220Y402540D01*
X252312Y402355D01*
X252358Y402262D01*
Y409343D01*
X242223D01*
X241992Y409389D01*
X241807Y409436D01*
X241714Y409575D01*
X241622Y409713D01*
X241529Y409945D01*
Y409991D01*
Y410037D01*
Y412259D01*
X241575Y412490D01*
X241622Y412629D01*
X241853Y412814D01*
X242131Y412907D01*
X255505D01*
X255737Y412860D01*
D02*
G37*
G36*
X237873D02*
X238058Y412814D01*
X238151Y412675D01*
X238197Y412536D01*
Y412305D01*
Y412212D01*
Y412166D01*
X231672Y388425D01*
X231579Y388194D01*
X231487Y388055D01*
X231209Y387870D01*
X230977Y387777D01*
X226998D01*
X226812Y387823D01*
X226627Y387870D01*
X226396Y388101D01*
X226303Y388332D01*
X226257Y388379D01*
Y388425D01*
X219685Y412166D01*
X219639Y412397D01*
X219685Y412583D01*
X219824Y412721D01*
X219917Y412814D01*
X220195Y412907D01*
X223064D01*
X223295Y412860D01*
X223480Y412814D01*
X223712Y412583D01*
X223804Y412351D01*
X223851Y412305D01*
Y412259D01*
X228849Y391803D01*
X229034D01*
X234078Y412259D01*
X234125Y412490D01*
X234217Y412629D01*
X234495Y412814D01*
X234726Y412907D01*
X237595D01*
X237873Y412860D01*
D02*
G37*
G36*
X126341D02*
X126526Y412814D01*
X126619Y412675D01*
X126665Y412536D01*
Y412305D01*
Y412212D01*
Y412166D01*
X120140Y388425D01*
X120047Y388194D01*
X119955Y388055D01*
X119677Y387870D01*
X119446Y387777D01*
X115466D01*
X115281Y387823D01*
X115095Y387870D01*
X114864Y388101D01*
X114771Y388332D01*
X114725Y388379D01*
Y388425D01*
X108154Y412166D01*
X108107Y412397D01*
X108154Y412583D01*
X108292Y412721D01*
X108385Y412814D01*
X108663Y412907D01*
X111532D01*
X111763Y412860D01*
X111948Y412814D01*
X112180Y412583D01*
X112272Y412351D01*
X112319Y412305D01*
Y412259D01*
X117317Y391803D01*
X117502D01*
X122546Y412259D01*
X122593Y412490D01*
X122685Y412629D01*
X122963Y412814D01*
X123194Y412907D01*
X126063D01*
X126341Y412860D01*
D02*
G37*
G36*
X45724Y407677D02*
X45862Y407631D01*
X46048Y407399D01*
X46140Y407168D01*
Y407122D01*
Y407075D01*
Y393840D01*
X46094Y392822D01*
X45909Y391896D01*
X45677Y391156D01*
X45400Y390508D01*
X45122Y389999D01*
X44890Y389628D01*
X44705Y389443D01*
X44659Y389351D01*
X44011Y388842D01*
X43317Y388425D01*
X42623Y388147D01*
X41929Y387962D01*
X41281Y387870D01*
X40772Y387823D01*
X40587Y387777D01*
X38550D01*
X37995Y387823D01*
X37532Y387870D01*
X36653Y388101D01*
X36005Y388425D01*
X35450Y388795D01*
X35079Y389165D01*
X34802Y389490D01*
X34663Y389721D01*
X34617Y389813D01*
X34432D01*
Y388425D01*
X34385Y388194D01*
X34339Y388055D01*
X34107Y387870D01*
X33876Y387777D01*
X31331D01*
X31099Y387823D01*
X30914Y387870D01*
X30822Y387962D01*
X30729Y388101D01*
X30637Y388332D01*
Y388379D01*
Y388425D01*
Y407075D01*
X30683Y407307D01*
X30729Y407446D01*
X30961Y407631D01*
X31238Y407723D01*
X33784D01*
X34015Y407677D01*
X34154Y407631D01*
X34339Y407399D01*
X34432Y407168D01*
Y407122D01*
Y407075D01*
Y394395D01*
X34478Y393793D01*
X34570Y393284D01*
X34709Y392868D01*
X34941Y392451D01*
X35172Y392127D01*
X35450Y391896D01*
X35727Y391665D01*
X36051Y391479D01*
X36653Y391248D01*
X37162Y391109D01*
X37393D01*
X37532Y391063D01*
X39522D01*
X40031Y391109D01*
X40448Y391202D01*
X40818Y391341D01*
X41142Y391526D01*
X41420Y391757D01*
X41651Y391988D01*
X41975Y392544D01*
X42206Y393053D01*
X42299Y393516D01*
X42345Y393701D01*
Y393840D01*
Y393932D01*
Y393979D01*
Y407075D01*
X42391Y407307D01*
X42438Y407446D01*
X42669Y407631D01*
X42947Y407723D01*
X45492D01*
X45724Y407677D01*
D02*
G37*
G36*
X407161Y412860D02*
X407346Y412814D01*
X407485Y412721D01*
X407577Y412583D01*
X407670Y412351D01*
Y412305D01*
Y412259D01*
Y410269D01*
X407624Y410037D01*
X407531Y409898D01*
X407300Y409713D01*
X407022Y409621D01*
X402024D01*
X401793Y409575D01*
X401654Y409436D01*
X401608Y409250D01*
Y409204D01*
Y388425D01*
X401561Y388194D01*
X401515Y388055D01*
X401237Y387870D01*
X401006Y387777D01*
X398461D01*
X398229Y387823D01*
X398044Y387870D01*
X397952Y387962D01*
X397859Y388101D01*
X397766Y388332D01*
Y388379D01*
Y388425D01*
Y409204D01*
X397720Y409436D01*
X397535Y409575D01*
X397396Y409621D01*
X392444D01*
X392213Y409667D01*
X392028Y409713D01*
X391889Y409806D01*
X391796Y409945D01*
X391704Y410176D01*
Y410222D01*
Y410269D01*
Y412259D01*
X391750Y412490D01*
X391796Y412629D01*
X392074Y412814D01*
X392305Y412907D01*
X406930D01*
X407161Y412860D01*
D02*
G37*
G36*
X384114Y407677D02*
X384993Y407492D01*
X385780Y407214D01*
X386428Y406937D01*
X386937Y406613D01*
X387307Y406381D01*
X387492Y406196D01*
X387585Y406104D01*
X388094Y405456D01*
X388511Y404762D01*
X388788Y404021D01*
X388973Y403281D01*
X389066Y402633D01*
X389112Y402124D01*
X389159Y401939D01*
Y401800D01*
Y401707D01*
Y401661D01*
Y393840D01*
X389112Y392822D01*
X388927Y391942D01*
X388649Y391156D01*
X388372Y390508D01*
X388094Y389999D01*
X387816Y389628D01*
X387631Y389443D01*
X387585Y389351D01*
X386937Y388842D01*
X386197Y388425D01*
X385456Y388147D01*
X384716Y387962D01*
X384068Y387870D01*
X383559Y387823D01*
X383374Y387777D01*
X379625D01*
X378607Y387823D01*
X377728Y388009D01*
X376941Y388286D01*
X376293Y388564D01*
X375784Y388842D01*
X375414Y389119D01*
X375229Y389304D01*
X375136Y389351D01*
X374581Y389999D01*
X374210Y390739D01*
X373933Y391479D01*
X373701Y392220D01*
X373609Y392868D01*
X373563Y393377D01*
X373516Y393562D01*
Y393701D01*
Y393793D01*
Y393840D01*
Y401661D01*
X373563Y402679D01*
X373748Y403558D01*
X374025Y404345D01*
X374303Y404947D01*
X374627Y405456D01*
X374858Y405826D01*
X375043Y406011D01*
X375136Y406104D01*
X375784Y406659D01*
X376524Y407029D01*
X377265Y407307D01*
X378005Y407538D01*
X378653Y407631D01*
X379162Y407677D01*
X379347Y407723D01*
X383096D01*
X384114Y407677D01*
D02*
G37*
G36*
X355930D02*
X356810Y407492D01*
X357550Y407261D01*
X358198Y406937D01*
X358753Y406566D01*
X359170Y406150D01*
X359540Y405687D01*
X359864Y405224D01*
X360095Y404715D01*
X360280Y404299D01*
X360373Y403836D01*
X360466Y403466D01*
X360512Y403142D01*
X360558Y402910D01*
Y402725D01*
Y402679D01*
X360512Y402031D01*
X360419Y401429D01*
X360280Y400920D01*
X360095Y400504D01*
X359957Y400134D01*
X359818Y399902D01*
X359725Y399717D01*
X359679Y399671D01*
X359309Y399254D01*
X358846Y398884D01*
X358337Y398560D01*
X357874Y398236D01*
X357458Y398005D01*
X357087Y397820D01*
X356856Y397681D01*
X356763Y397635D01*
X352506Y395598D01*
X351904Y395274D01*
X351441Y394858D01*
X351117Y394488D01*
X350886Y394071D01*
X350747Y393747D01*
X350701Y393470D01*
X350654Y393284D01*
Y393192D01*
Y392729D01*
X350701Y392405D01*
X350747Y392127D01*
X351071Y391711D01*
X351441Y391387D01*
X351904Y391202D01*
X352413Y391063D01*
X352783Y391017D01*
X353107Y390970D01*
X359771D01*
X360003Y390924D01*
X360142Y390878D01*
X360327Y390647D01*
X360419Y390415D01*
Y390369D01*
Y390322D01*
Y388425D01*
X360373Y388194D01*
X360327Y388055D01*
X360095Y387870D01*
X359864Y387777D01*
X352552D01*
X351534Y387823D01*
X350608Y388009D01*
X349868Y388240D01*
X349174Y388564D01*
X348618Y388934D01*
X348156Y389397D01*
X347739Y389813D01*
X347461Y390322D01*
X347230Y390785D01*
X347045Y391248D01*
X346906Y391665D01*
X346813Y392035D01*
X346767Y392359D01*
X346721Y392590D01*
Y392775D01*
Y392822D01*
X346767Y393516D01*
X346860Y394164D01*
X346952Y394719D01*
X347091Y395182D01*
X347276Y395552D01*
X347369Y395783D01*
X347461Y395969D01*
X347508Y396015D01*
X347831Y396478D01*
X348248Y396894D01*
X348711Y397264D01*
X349174Y397588D01*
X349590Y397820D01*
X349960Y398005D01*
X350192Y398144D01*
X350238Y398190D01*
X350284D01*
X354588Y400365D01*
X354958Y400550D01*
X355236Y400735D01*
X355745Y401105D01*
X356069Y401476D01*
X356347Y401800D01*
X356486Y402077D01*
X356532Y402355D01*
X356578Y402494D01*
Y402540D01*
Y403003D01*
X356532Y403234D01*
X356486Y403466D01*
X356254Y403790D01*
X356069Y403975D01*
X356023Y404067D01*
X355977D01*
X355699Y404206D01*
X355421Y404299D01*
X354820Y404437D01*
X354588Y404484D01*
X348433D01*
X348248Y404530D01*
X348063Y404576D01*
X347924Y404808D01*
X347831Y405039D01*
Y405085D01*
Y405132D01*
Y407075D01*
X347878Y407307D01*
X347924Y407446D01*
X348109Y407631D01*
X348341Y407723D01*
X354958D01*
X355930Y407677D01*
D02*
G37*
G36*
X338020D02*
X338900Y407492D01*
X339686Y407214D01*
X340334Y406937D01*
X340843Y406613D01*
X341214Y406381D01*
X341399Y406196D01*
X341491Y406104D01*
X342000Y405456D01*
X342417Y404762D01*
X342695Y404021D01*
X342880Y403281D01*
X342972Y402633D01*
X343018Y402124D01*
X343065Y401939D01*
Y401800D01*
Y401707D01*
Y401661D01*
Y393840D01*
X343018Y392822D01*
X342833Y391942D01*
X342556Y391156D01*
X342278Y390508D01*
X342000Y389999D01*
X341723Y389628D01*
X341538Y389443D01*
X341491Y389351D01*
X340843Y388842D01*
X340103Y388425D01*
X339362Y388147D01*
X338622Y387962D01*
X337974Y387870D01*
X337465Y387823D01*
X337280Y387777D01*
X328533D01*
X328302Y387823D01*
X328117Y387870D01*
X328024Y387962D01*
X327932Y388101D01*
X327839Y388286D01*
Y388332D01*
Y388379D01*
Y390322D01*
X327885Y390554D01*
X327932Y390739D01*
X328070Y390878D01*
X328163Y390970D01*
X328441Y391063D01*
X336447D01*
X336956Y391109D01*
X337373Y391202D01*
X337743Y391341D01*
X338067Y391526D01*
X338344Y391711D01*
X338576Y391942D01*
X338900Y392498D01*
X339131Y393007D01*
X339224Y393470D01*
X339270Y393608D01*
Y393747D01*
Y393840D01*
Y393886D01*
Y395598D01*
X339224Y395830D01*
X339039Y395922D01*
X338900Y395969D01*
X328348D01*
X328117Y396015D01*
X327932Y396061D01*
X327839Y396200D01*
X327747Y396339D01*
X327654Y396570D01*
Y396616D01*
Y396663D01*
Y401661D01*
X327700Y402679D01*
X327885Y403558D01*
X328163Y404345D01*
X328441Y404947D01*
X328765Y405456D01*
X328996Y405826D01*
X329181Y406011D01*
X329274Y406104D01*
X329922Y406659D01*
X330662Y407029D01*
X331403Y407307D01*
X332143Y407538D01*
X332791Y407631D01*
X333300Y407677D01*
X333485Y407723D01*
X337002D01*
X338020Y407677D01*
D02*
G37*
G36*
X322748Y415220D02*
X322887Y415174D01*
X323072Y414943D01*
X323165Y414711D01*
Y414665D01*
Y414619D01*
Y388425D01*
X323119Y388194D01*
X323072Y388055D01*
X322841Y387870D01*
X322610Y387777D01*
X320018D01*
X319787Y387823D01*
X319648Y387870D01*
X319463Y388101D01*
X319370Y388332D01*
Y388379D01*
Y388425D01*
Y414619D01*
X319416Y414850D01*
X319463Y414989D01*
X319694Y415174D01*
X319925Y415267D01*
X322517D01*
X322748Y415220D01*
D02*
G37*
G36*
X309605Y407677D02*
X310485Y407492D01*
X311271Y407214D01*
X311919Y406937D01*
X312428Y406613D01*
X312799Y406381D01*
X312984Y406196D01*
X313076Y406104D01*
X313585Y405456D01*
X314002Y404762D01*
X314279Y404021D01*
X314464Y403281D01*
X314557Y402633D01*
X314603Y402124D01*
X314650Y401939D01*
Y401800D01*
Y401707D01*
Y401661D01*
Y393840D01*
X314603Y392822D01*
X314418Y391942D01*
X314140Y391156D01*
X313863Y390508D01*
X313585Y389999D01*
X313307Y389628D01*
X313122Y389443D01*
X313076Y389351D01*
X312428Y388842D01*
X311688Y388425D01*
X310947Y388147D01*
X310207Y387962D01*
X309559Y387870D01*
X309050Y387823D01*
X308865Y387777D01*
X300118D01*
X299887Y387823D01*
X299702Y387870D01*
X299609Y387962D01*
X299516Y388101D01*
X299424Y388286D01*
Y388332D01*
Y388379D01*
Y390322D01*
X299470Y390554D01*
X299516Y390739D01*
X299655Y390878D01*
X299748Y390970D01*
X300026Y391063D01*
X308032D01*
X308541Y391109D01*
X308957Y391202D01*
X309328Y391341D01*
X309652Y391526D01*
X309929Y391711D01*
X310161Y391942D01*
X310485Y392498D01*
X310716Y393007D01*
X310809Y393470D01*
X310855Y393608D01*
Y393747D01*
Y393840D01*
Y393886D01*
Y395598D01*
X310809Y395830D01*
X310623Y395922D01*
X310485Y395969D01*
X299933D01*
X299702Y396015D01*
X299516Y396061D01*
X299424Y396200D01*
X299331Y396339D01*
X299239Y396570D01*
Y396616D01*
Y396663D01*
Y401661D01*
X299285Y402679D01*
X299470Y403558D01*
X299748Y404345D01*
X300026Y404947D01*
X300350Y405456D01*
X300581Y405826D01*
X300766Y406011D01*
X300858Y406104D01*
X301506Y406659D01*
X302247Y407029D01*
X302987Y407307D01*
X303728Y407538D01*
X304376Y407631D01*
X304885Y407677D01*
X305070Y407723D01*
X308587D01*
X309605Y407677D01*
D02*
G37*
G36*
X290307D02*
X291186Y407492D01*
X291973Y407214D01*
X292621Y406937D01*
X293130Y406613D01*
X293500Y406381D01*
X293685Y406196D01*
X293778Y406104D01*
X294287Y405456D01*
X294703Y404762D01*
X294981Y404021D01*
X295166Y403281D01*
X295259Y402633D01*
X295305Y402124D01*
X295351Y401939D01*
Y401800D01*
Y401707D01*
Y401661D01*
Y393840D01*
X295305Y392822D01*
X295120Y391942D01*
X294842Y391156D01*
X294565Y390508D01*
X294287Y389999D01*
X294009Y389628D01*
X293824Y389443D01*
X293778Y389351D01*
X293130Y388842D01*
X292390Y388425D01*
X291649Y388147D01*
X290909Y387962D01*
X290261Y387870D01*
X289752Y387823D01*
X289566Y387777D01*
X283504D01*
X283273Y387823D01*
X283088Y387870D01*
X282995Y387962D01*
X282902Y388101D01*
X282810Y388286D01*
Y388332D01*
Y388379D01*
Y390415D01*
X282856Y390647D01*
X282902Y390785D01*
X283134Y390970D01*
X283411Y391063D01*
X288734D01*
X289243Y391109D01*
X289659Y391202D01*
X290029Y391341D01*
X290353Y391526D01*
X290631Y391757D01*
X290862Y391988D01*
X291186Y392544D01*
X291418Y393053D01*
X291510Y393516D01*
X291556Y393701D01*
Y393840D01*
Y393932D01*
Y393979D01*
Y401476D01*
X291510Y401985D01*
X291418Y402448D01*
X291279Y402818D01*
X291094Y403142D01*
X290909Y403466D01*
X290677Y403697D01*
X290122Y404021D01*
X289613Y404252D01*
X289150Y404345D01*
X289011Y404391D01*
X283504D01*
X283273Y404437D01*
X283088Y404484D01*
X282995Y404576D01*
X282902Y404715D01*
X282810Y404947D01*
Y404993D01*
Y405039D01*
Y407075D01*
X282856Y407307D01*
X282902Y407446D01*
X283134Y407631D01*
X283411Y407723D01*
X289289D01*
X290307Y407677D01*
D02*
G37*
G36*
X277627Y412259D02*
X277812Y412212D01*
X277904Y412120D01*
X277997Y411981D01*
X278089Y411750D01*
Y411703D01*
Y411657D01*
Y408094D01*
X278136Y407862D01*
X278274Y407770D01*
X278460Y407723D01*
X280357D01*
X280588Y407677D01*
X280727Y407631D01*
X280912Y407399D01*
X281005Y407168D01*
Y407122D01*
Y407075D01*
Y405039D01*
Y404808D01*
X280959Y404669D01*
X280912Y404576D01*
Y404530D01*
X280774Y404437D01*
X280588Y404391D01*
X278506D01*
X278274Y404345D01*
X278136Y404206D01*
X278089Y404067D01*
Y404021D01*
Y393747D01*
X277997Y392729D01*
X277812Y391850D01*
X277580Y391063D01*
X277256Y390461D01*
X276979Y389952D01*
X276701Y389582D01*
X276516Y389397D01*
X276470Y389304D01*
X275775Y388795D01*
X275035Y388425D01*
X274294Y388147D01*
X273554Y387962D01*
X272906Y387870D01*
X272351Y387823D01*
X272166Y387777D01*
X269806D01*
X269574Y387823D01*
X269389Y387870D01*
X269250Y387962D01*
X269158Y388101D01*
X269065Y388286D01*
Y388332D01*
Y388379D01*
Y390415D01*
X269111Y390647D01*
X269158Y390785D01*
X269435Y390970D01*
X269667Y391063D01*
X271333D01*
X271842Y391109D01*
X272304Y391202D01*
X272675Y391341D01*
X272999Y391526D01*
X273276Y391711D01*
X273554Y391988D01*
X273878Y392498D01*
X274109Y393007D01*
X274202Y393470D01*
X274248Y393655D01*
Y393793D01*
Y393886D01*
Y393932D01*
Y404021D01*
X274202Y404252D01*
X274017Y404345D01*
X273878Y404391D01*
X270176D01*
X269944Y404437D01*
X269759Y404484D01*
X269667Y404576D01*
X269574Y404715D01*
X269482Y404947D01*
Y404993D01*
Y405039D01*
Y407075D01*
X269528Y407307D01*
X269574Y407446D01*
X269806Y407631D01*
X270083Y407723D01*
X273832D01*
X274063Y407770D01*
X274202Y407909D01*
X274248Y408047D01*
Y408094D01*
Y411657D01*
X274294Y411888D01*
X274341Y412027D01*
X274572Y412212D01*
X274850Y412305D01*
X277395D01*
X277627Y412259D01*
D02*
G37*
G36*
X202516Y407677D02*
X203395Y407492D01*
X204182Y407214D01*
X204830Y406937D01*
X205339Y406613D01*
X205709Y406381D01*
X205894Y406196D01*
X205987Y406104D01*
X206496Y405456D01*
X206913Y404762D01*
X207190Y404021D01*
X207375Y403281D01*
X207468Y402633D01*
X207514Y402124D01*
X207561Y401939D01*
Y401800D01*
Y401707D01*
Y401661D01*
Y393840D01*
X207514Y392822D01*
X207329Y391942D01*
X207051Y391156D01*
X206774Y390508D01*
X206496Y389999D01*
X206218Y389628D01*
X206033Y389443D01*
X205987Y389351D01*
X205339Y388842D01*
X204599Y388425D01*
X203858Y388147D01*
X203118Y387962D01*
X202470Y387870D01*
X201961Y387823D01*
X201776Y387777D01*
X198027D01*
X197009Y387823D01*
X196130Y388009D01*
X195343Y388286D01*
X194695Y388564D01*
X194186Y388842D01*
X193816Y389119D01*
X193631Y389304D01*
X193538Y389351D01*
X192983Y389999D01*
X192612Y390739D01*
X192335Y391479D01*
X192103Y392220D01*
X192011Y392868D01*
X191964Y393377D01*
X191918Y393562D01*
Y393701D01*
Y393793D01*
Y393840D01*
Y401661D01*
X191964Y402679D01*
X192150Y403558D01*
X192427Y404345D01*
X192705Y404947D01*
X193029Y405456D01*
X193260Y405826D01*
X193445Y406011D01*
X193538Y406104D01*
X194186Y406659D01*
X194926Y407029D01*
X195667Y407307D01*
X196407Y407538D01*
X197055Y407631D01*
X197564Y407677D01*
X197749Y407723D01*
X201498D01*
X202516Y407677D01*
D02*
G37*
G36*
X136708Y412860D02*
X136985Y412814D01*
X137124Y412768D01*
X137170Y412721D01*
X137402Y412536D01*
X137587Y412259D01*
X137726Y412027D01*
X137772Y411981D01*
Y411935D01*
X146519Y396385D01*
X146704Y395876D01*
X146796Y395367D01*
X146843Y395182D01*
Y394997D01*
Y394904D01*
Y394858D01*
Y393655D01*
X146796Y393284D01*
X146658Y393007D01*
X146473Y392822D01*
X146287Y392683D01*
X146102Y392590D01*
X145917Y392544D01*
X135365D01*
Y388425D01*
X135319Y388194D01*
X135273Y388055D01*
X135042Y387870D01*
X134810Y387777D01*
X132404D01*
X132219Y387823D01*
X132034Y387870D01*
X131895Y388101D01*
X131802Y388332D01*
Y388379D01*
Y388425D01*
Y392544D01*
X128933D01*
X128701Y392590D01*
X128516Y392683D01*
X128424Y392775D01*
X128331Y392914D01*
X128239Y393192D01*
Y393238D01*
Y393284D01*
Y395228D01*
X128285Y395460D01*
X128331Y395598D01*
X128563Y395783D01*
X128840Y395876D01*
X131802D01*
Y411796D01*
X131848Y412166D01*
X131987Y412444D01*
X132172Y412629D01*
X132357Y412768D01*
X132542Y412860D01*
X132728Y412907D01*
X136384D01*
X136708Y412860D01*
D02*
G37*
G36*
X95010Y407677D02*
X95149Y407631D01*
X95334Y407399D01*
X95427Y407168D01*
Y407122D01*
Y407075D01*
Y388425D01*
X95381Y388194D01*
X95334Y388055D01*
X95103Y387870D01*
X94872Y387777D01*
X92002D01*
X91863Y387823D01*
X91817Y387870D01*
X91771D01*
X91678Y388009D01*
X91632Y388194D01*
Y388379D01*
Y388425D01*
Y407075D01*
X91678Y407307D01*
X91725Y407446D01*
X91956Y407631D01*
X92187Y407723D01*
X94779D01*
X95010Y407677D01*
D02*
G37*
G36*
X24250Y412259D02*
X24435Y412212D01*
X24528Y412120D01*
X24620Y411981D01*
X24713Y411750D01*
Y411703D01*
Y411657D01*
Y408094D01*
X24759Y407862D01*
X24898Y407770D01*
X25083Y407723D01*
X26981D01*
X27212Y407677D01*
X27351Y407631D01*
X27536Y407399D01*
X27629Y407168D01*
Y407122D01*
Y407075D01*
Y405039D01*
Y404808D01*
X27582Y404669D01*
X27536Y404576D01*
Y404530D01*
X27397Y404437D01*
X27212Y404391D01*
X25129D01*
X24898Y404345D01*
X24759Y404206D01*
X24713Y404067D01*
Y404021D01*
Y393747D01*
X24620Y392729D01*
X24435Y391850D01*
X24204Y391063D01*
X23880Y390461D01*
X23602Y389952D01*
X23325Y389582D01*
X23140Y389397D01*
X23093Y389304D01*
X22399Y388795D01*
X21658Y388425D01*
X20918Y388147D01*
X20178Y387962D01*
X19530Y387870D01*
X18974Y387823D01*
X18789Y387777D01*
X16429D01*
X16198Y387823D01*
X16013Y387870D01*
X15874Y387962D01*
X15781Y388101D01*
X15689Y388286D01*
Y388332D01*
Y388379D01*
Y390415D01*
X15735Y390647D01*
X15781Y390785D01*
X16059Y390970D01*
X16290Y391063D01*
X17956D01*
X18465Y391109D01*
X18928Y391202D01*
X19298Y391341D01*
X19622Y391526D01*
X19900Y391711D01*
X20178Y391988D01*
X20502Y392498D01*
X20733Y393007D01*
X20826Y393470D01*
X20872Y393655D01*
Y393793D01*
Y393886D01*
Y393932D01*
Y404021D01*
X20826Y404252D01*
X20640Y404345D01*
X20502Y404391D01*
X16799D01*
X16568Y404437D01*
X16383Y404484D01*
X16290Y404576D01*
X16198Y404715D01*
X16105Y404947D01*
Y404993D01*
Y405039D01*
Y407075D01*
X16151Y407307D01*
X16198Y407446D01*
X16429Y407631D01*
X16707Y407723D01*
X20455D01*
X20687Y407770D01*
X20826Y407909D01*
X20872Y408047D01*
Y408094D01*
Y411657D01*
X20918Y411888D01*
X20964Y412027D01*
X21196Y412212D01*
X21473Y412305D01*
X24019D01*
X24250Y412259D01*
D02*
G37*
G36*
X243843Y444183D02*
X244260Y444044D01*
X244398Y443952D01*
X244537Y443859D01*
X244630Y443813D01*
X244676D01*
X248749Y441360D01*
X248934Y441221D01*
X249073Y441082D01*
X249211Y440759D01*
X249304Y440527D01*
Y440481D01*
Y440434D01*
Y438121D01*
X249258Y437889D01*
X249165Y437750D01*
X249073Y437658D01*
X248656D01*
X248563Y437704D01*
X248517D01*
X244260Y440203D01*
Y419748D01*
X244213Y419516D01*
X244167Y419378D01*
X243889Y419193D01*
X243658Y419100D01*
X241020D01*
X240835Y419146D01*
X240650Y419193D01*
X240511Y419424D01*
X240418Y419655D01*
Y419702D01*
Y419748D01*
Y443582D01*
X240465Y443813D01*
X240511Y443952D01*
X240742Y444137D01*
X240974Y444229D01*
X243426D01*
X243843Y444183D01*
D02*
G37*
G36*
X231024D02*
X231440Y444044D01*
X231579Y443952D01*
X231718Y443859D01*
X231811Y443813D01*
X231857D01*
X235929Y441360D01*
X236115Y441221D01*
X236253Y441082D01*
X236392Y440759D01*
X236485Y440527D01*
Y440481D01*
Y440434D01*
Y438121D01*
X236438Y437889D01*
X236346Y437750D01*
X236253Y437658D01*
X235837D01*
X235744Y437704D01*
X235698D01*
X231440Y440203D01*
Y419748D01*
X231394Y419516D01*
X231348Y419378D01*
X231070Y419193D01*
X230839Y419100D01*
X228201D01*
X228016Y419146D01*
X227831Y419193D01*
X227692Y419424D01*
X227599Y419655D01*
Y419702D01*
Y419748D01*
Y443582D01*
X227645Y443813D01*
X227692Y443952D01*
X227923Y444137D01*
X228155Y444229D01*
X230607D01*
X231024Y444183D01*
D02*
G37*
G36*
X146611D02*
X147028Y444044D01*
X147167Y443952D01*
X147305Y443859D01*
X147398Y443813D01*
X147444D01*
X151517Y441360D01*
X151702Y441221D01*
X151841Y441082D01*
X151980Y440759D01*
X152072Y440527D01*
Y440481D01*
Y440434D01*
Y438121D01*
X152026Y437889D01*
X151933Y437750D01*
X151841Y437658D01*
X151424D01*
X151332Y437704D01*
X151285D01*
X147028Y440203D01*
Y419748D01*
X146981Y419516D01*
X146935Y419378D01*
X146658Y419193D01*
X146426Y419100D01*
X143788D01*
X143603Y419146D01*
X143418Y419193D01*
X143279Y419424D01*
X143187Y419655D01*
Y419702D01*
Y419748D01*
Y443582D01*
X143233Y443813D01*
X143279Y443952D01*
X143511Y444137D01*
X143742Y444229D01*
X146195D01*
X146611Y444183D01*
D02*
G37*
G36*
X366343Y439000D02*
X366482Y438954D01*
X366667Y438722D01*
X366759Y438491D01*
Y438445D01*
Y438398D01*
Y419748D01*
X366713Y419516D01*
X366667Y419378D01*
X366436Y419193D01*
X366204Y419100D01*
X363659D01*
X363428Y419146D01*
X363242Y419193D01*
X363150Y419285D01*
X363057Y419424D01*
X362965Y419655D01*
Y419702D01*
Y419748D01*
Y432382D01*
X362918Y432984D01*
X362826Y433493D01*
X362687Y433909D01*
X362456Y434326D01*
X362224Y434650D01*
X361946Y434881D01*
X361669Y435112D01*
X361345Y435298D01*
X360790Y435529D01*
X360280Y435668D01*
X360049Y435714D01*
X357920D01*
X357411Y435668D01*
X356995Y435575D01*
X356578Y435436D01*
X356254Y435251D01*
X355977Y435020D01*
X355745Y434789D01*
X355421Y434279D01*
X355190Y433724D01*
X355097Y433261D01*
X355051Y433076D01*
Y432937D01*
Y432845D01*
Y432799D01*
Y419748D01*
X355005Y419516D01*
X354958Y419378D01*
X354727Y419193D01*
X354496Y419100D01*
X351950D01*
X351719Y419146D01*
X351534Y419193D01*
X351395Y419285D01*
X351302Y419424D01*
X351210Y419655D01*
Y419702D01*
Y419748D01*
Y432984D01*
X351256Y434002D01*
X351441Y434927D01*
X351673Y435668D01*
X351950Y436316D01*
X352274Y436825D01*
X352506Y437195D01*
X352691Y437380D01*
X352737Y437473D01*
X353385Y437982D01*
X354079Y438398D01*
X354820Y438676D01*
X355514Y438861D01*
X356162Y438954D01*
X356671Y439046D01*
X359401D01*
X359864Y438954D01*
X360743Y438722D01*
X361437Y438398D01*
X361946Y438028D01*
X362363Y437612D01*
X362641Y437288D01*
X362780Y437056D01*
X362826Y437010D01*
Y436964D01*
X362965D01*
Y438398D01*
X363011Y438630D01*
X363057Y438769D01*
X363289Y438954D01*
X363566Y439046D01*
X366112D01*
X366343Y439000D01*
D02*
G37*
G36*
X346073D02*
X346212Y438954D01*
X346397Y438722D01*
X346489Y438491D01*
Y438445D01*
Y438398D01*
Y419748D01*
X346443Y419516D01*
X346397Y419378D01*
X346166Y419193D01*
X345934Y419100D01*
X343389D01*
X343157Y419146D01*
X342972Y419193D01*
X342880Y419285D01*
X342787Y419424D01*
X342695Y419655D01*
Y419702D01*
Y419748D01*
Y432382D01*
X342648Y432984D01*
X342556Y433493D01*
X342417Y433909D01*
X342186Y434326D01*
X341954Y434650D01*
X341676Y434881D01*
X341399Y435112D01*
X341075Y435298D01*
X340519Y435529D01*
X340010Y435668D01*
X339779Y435714D01*
X337650D01*
X337141Y435668D01*
X336725Y435575D01*
X336308Y435436D01*
X335984Y435251D01*
X335706Y435020D01*
X335475Y434789D01*
X335151Y434279D01*
X334920Y433724D01*
X334827Y433261D01*
X334781Y433076D01*
Y432937D01*
Y432845D01*
Y432799D01*
Y419748D01*
X334735Y419516D01*
X334688Y419378D01*
X334457Y419193D01*
X334226Y419100D01*
X331680D01*
X331449Y419146D01*
X331264Y419193D01*
X331125Y419285D01*
X331032Y419424D01*
X330940Y419655D01*
Y419702D01*
Y419748D01*
Y432984D01*
X330986Y434002D01*
X331171Y434927D01*
X331403Y435668D01*
X331680Y436316D01*
X332004Y436825D01*
X332236Y437195D01*
X332421Y437380D01*
X332467Y437473D01*
X333115Y437982D01*
X333809Y438398D01*
X334549Y438676D01*
X335244Y438861D01*
X335892Y438954D01*
X336401Y439046D01*
X339131D01*
X339594Y438954D01*
X340473Y438722D01*
X341167Y438398D01*
X341676Y438028D01*
X342093Y437612D01*
X342371Y437288D01*
X342509Y437056D01*
X342556Y437010D01*
Y436964D01*
X342695D01*
Y438398D01*
X342741Y438630D01*
X342787Y438769D01*
X343018Y438954D01*
X343296Y439046D01*
X345841D01*
X346073Y439000D01*
D02*
G37*
G36*
X192798D02*
X192936Y438954D01*
X193121Y438722D01*
X193214Y438491D01*
Y438445D01*
Y438398D01*
Y419748D01*
X193168Y419516D01*
X193121Y419378D01*
X192890Y419193D01*
X192659Y419100D01*
X190113D01*
X189882Y419146D01*
X189697Y419193D01*
X189604Y419285D01*
X189512Y419424D01*
X189419Y419655D01*
Y419702D01*
Y419748D01*
Y432151D01*
X189373Y432799D01*
X189280Y433308D01*
X189142Y433817D01*
X188910Y434233D01*
X188679Y434557D01*
X188401Y434835D01*
X188077Y435066D01*
X187799Y435251D01*
X187198Y435529D01*
X186689Y435668D01*
X186457Y435714D01*
X183588D01*
X183449Y435760D01*
X183264Y435992D01*
X183172Y436269D01*
Y436316D01*
Y436362D01*
Y438398D01*
X183218Y438630D01*
X183264Y438769D01*
X183496Y438954D01*
X183727Y439046D01*
X185254D01*
X185763Y439000D01*
X186226Y438954D01*
X186642Y438861D01*
X187013Y438769D01*
X187337Y438630D01*
X187568Y438537D01*
X187707Y438491D01*
X187753Y438445D01*
X188123Y438213D01*
X188447Y437982D01*
X188725Y437704D01*
X188910Y437473D01*
X189095Y437241D01*
X189188Y437056D01*
X189280Y436917D01*
Y436871D01*
X189419D01*
Y438398D01*
X189466Y438630D01*
X189512Y438769D01*
X189743Y438954D01*
X190021Y439046D01*
X192566D01*
X192798Y439000D01*
D02*
G37*
G36*
X133376Y444183D02*
X134301Y443998D01*
X135088Y443720D01*
X135736Y443443D01*
X136245Y443165D01*
X136615Y442887D01*
X136800Y442702D01*
X136893Y442656D01*
X137402Y442008D01*
X137818Y441314D01*
X138096Y440573D01*
X138281Y439879D01*
X138374Y439231D01*
X138420Y438722D01*
X138466Y438537D01*
Y438398D01*
Y438306D01*
Y438259D01*
Y436732D01*
X138420Y436501D01*
X138374Y436316D01*
X138281Y436223D01*
X138142Y436131D01*
X137911Y436038D01*
X135273D01*
X135042Y436084D01*
X134903Y436131D01*
X134718Y436408D01*
X134625Y436640D01*
Y436686D01*
Y436732D01*
Y438167D01*
X134579Y438722D01*
X134532Y439139D01*
X134440Y439509D01*
X134301Y439833D01*
X134162Y440064D01*
X134070Y440203D01*
X134024Y440296D01*
X133977Y440342D01*
X133700Y440573D01*
X133329Y440712D01*
X132635Y440897D01*
X132311Y440944D01*
X132034Y440990D01*
X129905D01*
X129396Y440944D01*
X128933Y440851D01*
X128516Y440712D01*
X128192Y440573D01*
X127915Y440342D01*
X127683Y440111D01*
X127313Y439602D01*
X127082Y439046D01*
X126989Y438630D01*
X126943Y438445D01*
Y438306D01*
Y438213D01*
Y438167D01*
Y436871D01*
X127035Y436177D01*
X127220Y435529D01*
X127544Y434927D01*
X127868Y434418D01*
X128239Y434002D01*
X128563Y433724D01*
X128748Y433493D01*
X128840Y433446D01*
X136245Y427430D01*
X136615Y427106D01*
X136939Y426782D01*
X137448Y426088D01*
X137818Y425394D01*
X138050Y424792D01*
X138235Y424191D01*
X138281Y423774D01*
X138327Y423589D01*
Y423450D01*
Y423404D01*
Y423358D01*
Y419748D01*
X138281Y419516D01*
X138188Y419378D01*
X137957Y419193D01*
X137680Y419100D01*
X123842D01*
X123611Y419146D01*
X123426Y419193D01*
X123333Y419285D01*
X123240Y419424D01*
X123148Y419655D01*
Y419702D01*
Y419748D01*
Y421830D01*
X123194Y422062D01*
X123240Y422201D01*
X123472Y422386D01*
X123750Y422478D01*
X134024D01*
Y423728D01*
X133977Y424098D01*
X133885Y424422D01*
X133746Y424746D01*
X133561Y424977D01*
X133422Y425209D01*
X133283Y425348D01*
X133190Y425440D01*
X133144Y425486D01*
X125601Y431642D01*
X125184Y432012D01*
X124814Y432428D01*
X124490Y432845D01*
X124212Y433261D01*
X123796Y434094D01*
X123518Y434881D01*
X123379Y435575D01*
X123333Y435853D01*
X123287Y436131D01*
X123240Y436362D01*
Y436501D01*
Y436593D01*
Y436640D01*
Y438259D01*
X123287Y439278D01*
X123472Y440157D01*
X123750Y440897D01*
X124027Y441545D01*
X124351Y442008D01*
X124583Y442378D01*
X124768Y442563D01*
X124860Y442656D01*
X125508Y443165D01*
X126202Y443582D01*
X126943Y443859D01*
X127683Y444044D01*
X128331Y444137D01*
X128840Y444229D01*
X132357D01*
X133376Y444183D01*
D02*
G37*
G36*
X402626D02*
X403551Y443998D01*
X404292Y443720D01*
X404940Y443443D01*
X405449Y443165D01*
X405819Y442887D01*
X406004Y442702D01*
X406096Y442656D01*
X406606Y442008D01*
X407022Y441314D01*
X407300Y440527D01*
X407485Y439833D01*
X407577Y439185D01*
X407624Y438630D01*
X407670Y438445D01*
Y438306D01*
Y438213D01*
Y438167D01*
Y425163D01*
X407624Y424144D01*
X407439Y423265D01*
X407161Y422478D01*
X406883Y421830D01*
X406606Y421321D01*
X406328Y420951D01*
X406143Y420766D01*
X406096Y420673D01*
X405449Y420164D01*
X404708Y419748D01*
X403968Y419470D01*
X403274Y419285D01*
X402626Y419193D01*
X402070Y419146D01*
X401885Y419100D01*
X397072D01*
X396054Y419146D01*
X395175Y419331D01*
X394388Y419609D01*
X393786Y419887D01*
X393277Y420164D01*
X392907Y420442D01*
X392722Y420627D01*
X392629Y420673D01*
X392074Y421321D01*
X391704Y422062D01*
X391426Y422802D01*
X391195Y423543D01*
X391102Y424191D01*
X391056Y424700D01*
X391010Y424885D01*
Y425024D01*
Y425116D01*
Y425163D01*
Y427014D01*
X391056Y427245D01*
X391102Y427430D01*
X391241Y427523D01*
X391334Y427615D01*
X391611Y427708D01*
X394157D01*
X394388Y427662D01*
X394573Y427615D01*
X394666Y427477D01*
X394758Y427384D01*
X394851Y427106D01*
Y427060D01*
Y427014D01*
Y425301D01*
X394897Y424792D01*
X394990Y424329D01*
X395128Y423959D01*
X395267Y423635D01*
X395499Y423358D01*
X395730Y423080D01*
X396239Y422756D01*
X396795Y422525D01*
X397211Y422432D01*
X397396Y422386D01*
X401052D01*
X401561Y422432D01*
X401978Y422525D01*
X402348Y422663D01*
X402672Y422849D01*
X402950Y423080D01*
X403181Y423311D01*
X403505Y423867D01*
X403736Y424376D01*
X403829Y424839D01*
X403875Y425024D01*
Y425163D01*
Y425255D01*
Y425301D01*
Y438028D01*
X403829Y438537D01*
X403736Y439000D01*
X403597Y439370D01*
X403412Y439694D01*
X403227Y440018D01*
X402996Y440249D01*
X402440Y440573D01*
X401931Y440805D01*
X401469Y440897D01*
X401330Y440944D01*
X397674D01*
X397165Y440897D01*
X396748Y440805D01*
X396378Y440666D01*
X396054Y440481D01*
X395776Y440249D01*
X395545Y440018D01*
X395221Y439509D01*
X394990Y438954D01*
X394897Y438491D01*
X394851Y438306D01*
Y438167D01*
Y438074D01*
Y438028D01*
Y436316D01*
X394804Y436084D01*
X394758Y435899D01*
X394619Y435807D01*
X394481Y435714D01*
X394249Y435621D01*
X391704D01*
X391472Y435668D01*
X391287Y435714D01*
X391195Y435853D01*
X391102Y435992D01*
X391010Y436223D01*
Y436269D01*
Y436316D01*
Y438167D01*
X391056Y439185D01*
X391241Y440111D01*
X391519Y440851D01*
X391796Y441499D01*
X392120Y442008D01*
X392352Y442378D01*
X392537Y442563D01*
X392629Y442656D01*
X393277Y443165D01*
X393971Y443582D01*
X394712Y443859D01*
X395452Y444044D01*
X396100Y444137D01*
X396609Y444229D01*
X401608D01*
X402626Y444183D01*
D02*
G37*
G36*
X381893Y439000D02*
X382772Y438815D01*
X383559Y438537D01*
X384207Y438259D01*
X384716Y437935D01*
X385086Y437704D01*
X385271Y437519D01*
X385364Y437426D01*
X385873Y436778D01*
X386289Y436084D01*
X386567Y435344D01*
X386752Y434603D01*
X386844Y433955D01*
X386891Y433446D01*
X386937Y433261D01*
Y433122D01*
Y433030D01*
Y432984D01*
Y425163D01*
X386891Y424144D01*
X386706Y423265D01*
X386428Y422478D01*
X386150Y421830D01*
X385873Y421321D01*
X385595Y420951D01*
X385410Y420766D01*
X385364Y420673D01*
X384716Y420164D01*
X383975Y419748D01*
X383235Y419470D01*
X382494Y419285D01*
X381846Y419193D01*
X381337Y419146D01*
X381152Y419100D01*
X377404D01*
X376385Y419146D01*
X375506Y419331D01*
X374720Y419609D01*
X374072Y419887D01*
X373563Y420164D01*
X373192Y420442D01*
X373007Y420627D01*
X372915Y420673D01*
X372359Y421321D01*
X371989Y422062D01*
X371711Y422802D01*
X371480Y423543D01*
X371387Y424191D01*
X371341Y424700D01*
X371295Y424885D01*
Y425024D01*
Y425116D01*
Y425163D01*
Y432984D01*
X371341Y434002D01*
X371526Y434881D01*
X371804Y435668D01*
X372082Y436269D01*
X372406Y436778D01*
X372637Y437149D01*
X372822Y437334D01*
X372915Y437426D01*
X373563Y437982D01*
X374303Y438352D01*
X375043Y438630D01*
X375784Y438861D01*
X376432Y438954D01*
X376941Y439000D01*
X377126Y439046D01*
X380875D01*
X381893Y439000D01*
D02*
G37*
G36*
X321591D02*
X322471Y438815D01*
X323257Y438537D01*
X323905Y438259D01*
X324414Y437935D01*
X324785Y437704D01*
X324970Y437519D01*
X325062Y437426D01*
X325571Y436778D01*
X325988Y436084D01*
X326266Y435344D01*
X326451Y434603D01*
X326543Y433955D01*
X326590Y433446D01*
X326636Y433261D01*
Y433122D01*
Y433030D01*
Y432984D01*
Y425163D01*
X326590Y424144D01*
X326404Y423265D01*
X326127Y422478D01*
X325849Y421830D01*
X325571Y421321D01*
X325294Y420951D01*
X325109Y420766D01*
X325062Y420673D01*
X324414Y420164D01*
X323674Y419748D01*
X322934Y419470D01*
X322193Y419285D01*
X321545Y419193D01*
X321036Y419146D01*
X320851Y419100D01*
X312104D01*
X311873Y419146D01*
X311688Y419193D01*
X311595Y419285D01*
X311503Y419424D01*
X311410Y419609D01*
Y419655D01*
Y419702D01*
Y421645D01*
X311456Y421877D01*
X311503Y422062D01*
X311642Y422201D01*
X311734Y422293D01*
X312012Y422386D01*
X320018D01*
X320527Y422432D01*
X320943Y422525D01*
X321314Y422663D01*
X321638Y422849D01*
X321915Y423034D01*
X322147Y423265D01*
X322471Y423820D01*
X322702Y424329D01*
X322795Y424792D01*
X322841Y424931D01*
Y425070D01*
Y425163D01*
Y425209D01*
Y426921D01*
X322795Y427152D01*
X322610Y427245D01*
X322471Y427291D01*
X311919D01*
X311688Y427338D01*
X311503Y427384D01*
X311410Y427523D01*
X311318Y427662D01*
X311225Y427893D01*
Y427939D01*
Y427985D01*
Y432984D01*
X311271Y434002D01*
X311456Y434881D01*
X311734Y435668D01*
X312012Y436269D01*
X312336Y436778D01*
X312567Y437149D01*
X312752Y437334D01*
X312845Y437426D01*
X313493Y437982D01*
X314233Y438352D01*
X314974Y438630D01*
X315714Y438861D01*
X316362Y438954D01*
X316871Y439000D01*
X317056Y439046D01*
X320573D01*
X321591Y439000D01*
D02*
G37*
G36*
X302293D02*
X303172Y438815D01*
X303959Y438537D01*
X304607Y438259D01*
X305116Y437935D01*
X305486Y437704D01*
X305672Y437519D01*
X305764Y437426D01*
X306273Y436778D01*
X306690Y436084D01*
X306967Y435344D01*
X307152Y434603D01*
X307245Y433955D01*
X307291Y433446D01*
X307338Y433261D01*
Y433122D01*
Y433030D01*
Y432984D01*
Y425163D01*
X307291Y424144D01*
X307106Y423265D01*
X306828Y422478D01*
X306551Y421830D01*
X306273Y421321D01*
X305996Y420951D01*
X305810Y420766D01*
X305764Y420673D01*
X305116Y420164D01*
X304376Y419748D01*
X303635Y419470D01*
X302895Y419285D01*
X302247Y419193D01*
X301738Y419146D01*
X301553Y419100D01*
X295490D01*
X295259Y419146D01*
X295074Y419193D01*
X294981Y419285D01*
X294889Y419424D01*
X294796Y419609D01*
Y419655D01*
Y419702D01*
Y421738D01*
X294842Y421969D01*
X294889Y422108D01*
X295120Y422293D01*
X295398Y422386D01*
X300720D01*
X301229Y422432D01*
X301645Y422525D01*
X302015Y422663D01*
X302339Y422849D01*
X302617Y423080D01*
X302848Y423311D01*
X303172Y423867D01*
X303404Y424376D01*
X303496Y424839D01*
X303543Y425024D01*
Y425163D01*
Y425255D01*
Y425301D01*
Y432799D01*
X303496Y433308D01*
X303404Y433770D01*
X303265Y434141D01*
X303080Y434465D01*
X302895Y434789D01*
X302663Y435020D01*
X302108Y435344D01*
X301599Y435575D01*
X301136Y435668D01*
X300997Y435714D01*
X295490D01*
X295259Y435760D01*
X295074Y435807D01*
X294981Y435899D01*
X294889Y436038D01*
X294796Y436269D01*
Y436316D01*
Y436362D01*
Y438398D01*
X294842Y438630D01*
X294889Y438769D01*
X295120Y438954D01*
X295398Y439046D01*
X301275D01*
X302293Y439000D01*
D02*
G37*
G36*
X289613Y443582D02*
X289798Y443535D01*
X289890Y443443D01*
X289983Y443304D01*
X290076Y443072D01*
Y443026D01*
Y442980D01*
Y439416D01*
X290122Y439185D01*
X290261Y439092D01*
X290446Y439046D01*
X292343D01*
X292575Y439000D01*
X292714Y438954D01*
X292899Y438722D01*
X292991Y438491D01*
Y438445D01*
Y438398D01*
Y436362D01*
Y436131D01*
X292945Y435992D01*
X292899Y435899D01*
Y435853D01*
X292760Y435760D01*
X292575Y435714D01*
X290492D01*
X290261Y435668D01*
X290122Y435529D01*
X290076Y435390D01*
Y435344D01*
Y425070D01*
X289983Y424052D01*
X289798Y423172D01*
X289566Y422386D01*
X289243Y421784D01*
X288965Y421275D01*
X288687Y420905D01*
X288502Y420720D01*
X288456Y420627D01*
X287762Y420118D01*
X287021Y419748D01*
X286281Y419470D01*
X285540Y419285D01*
X284892Y419193D01*
X284337Y419146D01*
X284152Y419100D01*
X281792D01*
X281560Y419146D01*
X281375Y419193D01*
X281236Y419285D01*
X281144Y419424D01*
X281051Y419609D01*
Y419655D01*
Y419702D01*
Y421738D01*
X281098Y421969D01*
X281144Y422108D01*
X281421Y422293D01*
X281653Y422386D01*
X283319D01*
X283828Y422432D01*
X284291Y422525D01*
X284661Y422663D01*
X284985Y422849D01*
X285263Y423034D01*
X285540Y423311D01*
X285864Y423820D01*
X286096Y424329D01*
X286188Y424792D01*
X286234Y424977D01*
Y425116D01*
Y425209D01*
Y425255D01*
Y435344D01*
X286188Y435575D01*
X286003Y435668D01*
X285864Y435714D01*
X282162D01*
X281931Y435760D01*
X281745Y435807D01*
X281653Y435899D01*
X281560Y436038D01*
X281468Y436269D01*
Y436316D01*
Y436362D01*
Y438398D01*
X281514Y438630D01*
X281560Y438769D01*
X281792Y438954D01*
X282069Y439046D01*
X285818D01*
X286049Y439092D01*
X286188Y439231D01*
X286234Y439370D01*
Y439416D01*
Y442980D01*
X286281Y443211D01*
X286327Y443350D01*
X286558Y443535D01*
X286836Y443628D01*
X289381D01*
X289613Y443582D01*
D02*
G37*
G36*
X256431Y444183D02*
X256616Y444137D01*
X256709Y444044D01*
X256801Y443905D01*
X256894Y443674D01*
Y443628D01*
Y443582D01*
Y425301D01*
X256940Y424792D01*
X257033Y424329D01*
X257171Y423959D01*
X257310Y423635D01*
X257542Y423358D01*
X257773Y423080D01*
X258282Y422756D01*
X258837Y422525D01*
X259254Y422432D01*
X259439Y422386D01*
X262493D01*
X263002Y422432D01*
X263419Y422525D01*
X263789Y422663D01*
X264113Y422849D01*
X264391Y423080D01*
X264622Y423311D01*
X264946Y423867D01*
X265178Y424376D01*
X265270Y424839D01*
X265316Y425024D01*
Y425163D01*
Y425255D01*
Y425301D01*
Y428680D01*
X265363Y428911D01*
X265409Y429050D01*
X265640Y429235D01*
X265872Y429328D01*
X268463D01*
X268695Y429281D01*
X268880Y429235D01*
X268972Y429142D01*
X269065Y429004D01*
X269158Y428772D01*
Y428726D01*
Y428680D01*
Y425163D01*
X269065Y424144D01*
X268880Y423265D01*
X268648Y422478D01*
X268325Y421830D01*
X268047Y421321D01*
X267769Y420951D01*
X267584Y420766D01*
X267538Y420673D01*
X266890Y420164D01*
X266149Y419748D01*
X265409Y419470D01*
X264669Y419285D01*
X264021Y419193D01*
X263512Y419146D01*
X263326Y419100D01*
X259115D01*
X258097Y419146D01*
X257218Y419331D01*
X256431Y419609D01*
X255829Y419887D01*
X255320Y420164D01*
X254950Y420442D01*
X254765Y420627D01*
X254672Y420673D01*
X254117Y421321D01*
X253747Y422062D01*
X253469Y422802D01*
X253238Y423543D01*
X253145Y424191D01*
X253099Y424700D01*
X253053Y424885D01*
Y425024D01*
Y425116D01*
Y425163D01*
Y443628D01*
X253099Y443813D01*
X253145Y443998D01*
X253377Y444137D01*
X253608Y444229D01*
X256199D01*
X256431Y444183D01*
D02*
G37*
G36*
X208347Y439000D02*
X209226Y438815D01*
X210013Y438537D01*
X210661Y438259D01*
X211170Y437935D01*
X211540Y437704D01*
X211726Y437519D01*
X211818Y437426D01*
X212327Y436778D01*
X212744Y436084D01*
X213021Y435344D01*
X213207Y434603D01*
X213299Y433955D01*
X213345Y433446D01*
X213392Y433261D01*
Y433122D01*
Y433030D01*
Y432984D01*
Y425163D01*
X213345Y424144D01*
X213160Y423265D01*
X212882Y422478D01*
X212605Y421830D01*
X212327Y421321D01*
X212050Y420951D01*
X211864Y420766D01*
X211818Y420673D01*
X211170Y420164D01*
X210430Y419748D01*
X209689Y419470D01*
X208949Y419285D01*
X208301Y419193D01*
X207792Y419146D01*
X207607Y419100D01*
X203858D01*
X202840Y419146D01*
X201961Y419331D01*
X201174Y419609D01*
X200526Y419887D01*
X200017Y420164D01*
X199647Y420442D01*
X199462Y420627D01*
X199369Y420673D01*
X198814Y421321D01*
X198444Y422062D01*
X198166Y422802D01*
X197934Y423543D01*
X197842Y424191D01*
X197796Y424700D01*
X197749Y424885D01*
Y425024D01*
Y425116D01*
Y425163D01*
Y432984D01*
X197796Y434002D01*
X197981Y434881D01*
X198258Y435668D01*
X198536Y436269D01*
X198860Y436778D01*
X199091Y437149D01*
X199277Y437334D01*
X199369Y437426D01*
X200017Y437982D01*
X200758Y438352D01*
X201498Y438630D01*
X202238Y438861D01*
X202886Y438954D01*
X203395Y439000D01*
X203580Y439046D01*
X207329D01*
X208347Y439000D01*
D02*
G37*
G36*
X159199Y444183D02*
X159384Y444137D01*
X159477Y444044D01*
X159569Y443905D01*
X159662Y443674D01*
Y443628D01*
Y443582D01*
Y425301D01*
X159708Y424792D01*
X159801Y424329D01*
X159940Y423959D01*
X160078Y423635D01*
X160310Y423358D01*
X160541Y423080D01*
X161050Y422756D01*
X161606Y422525D01*
X162022Y422432D01*
X162207Y422386D01*
X165262D01*
X165771Y422432D01*
X166187Y422525D01*
X166558Y422663D01*
X166881Y422849D01*
X167159Y423080D01*
X167390Y423311D01*
X167714Y423867D01*
X167946Y424376D01*
X168038Y424839D01*
X168085Y425024D01*
Y425163D01*
Y425255D01*
Y425301D01*
Y428680D01*
X168131Y428911D01*
X168177Y429050D01*
X168409Y429235D01*
X168640Y429328D01*
X171232D01*
X171463Y429281D01*
X171648Y429235D01*
X171741Y429142D01*
X171833Y429004D01*
X171926Y428772D01*
Y428726D01*
Y428680D01*
Y425163D01*
X171833Y424144D01*
X171648Y423265D01*
X171417Y422478D01*
X171093Y421830D01*
X170815Y421321D01*
X170537Y420951D01*
X170352Y420766D01*
X170306Y420673D01*
X169658Y420164D01*
X168918Y419748D01*
X168177Y419470D01*
X167437Y419285D01*
X166789Y419193D01*
X166280Y419146D01*
X166095Y419100D01*
X161883D01*
X160865Y419146D01*
X159986Y419331D01*
X159199Y419609D01*
X158597Y419887D01*
X158088Y420164D01*
X157718Y420442D01*
X157533Y420627D01*
X157441Y420673D01*
X156885Y421321D01*
X156515Y422062D01*
X156237Y422802D01*
X156006Y423543D01*
X155913Y424191D01*
X155867Y424700D01*
X155821Y424885D01*
Y425024D01*
Y425116D01*
Y425163D01*
Y443628D01*
X155867Y443813D01*
X155913Y443998D01*
X156145Y444137D01*
X156376Y444229D01*
X158968D01*
X159199Y444183D01*
D02*
G37*
%LPC*%
G36*
X377949Y266804D02*
X375311D01*
X374802Y266758D01*
X374386Y266665D01*
X374016Y266526D01*
X373692Y266341D01*
X373414Y266156D01*
X373182Y265879D01*
X372859Y265369D01*
X372627Y264860D01*
X372535Y264398D01*
X372488Y264212D01*
Y264074D01*
Y263981D01*
Y263935D01*
Y256345D01*
X372535Y255836D01*
X372627Y255420D01*
X372766Y255003D01*
X372905Y254679D01*
X373136Y254401D01*
X373368Y254170D01*
X373877Y253846D01*
X374432Y253615D01*
X374849Y253522D01*
X375034Y253476D01*
X377718D01*
X378227Y253522D01*
X378690Y253568D01*
X379060Y253707D01*
X379338Y253846D01*
X379615Y253939D01*
X379754Y254077D01*
X379847Y254124D01*
X379893Y254170D01*
X380124Y254448D01*
X380263Y254818D01*
X380448Y255512D01*
X380494Y255836D01*
X380541Y256114D01*
Y256299D01*
Y256345D01*
Y263935D01*
X380494Y264444D01*
X380448Y264907D01*
X380356Y265277D01*
X380217Y265601D01*
X380078Y265832D01*
X379986Y265971D01*
X379939Y266064D01*
X379893Y266110D01*
X379615Y266341D01*
X379245Y266526D01*
X378921Y266619D01*
X378551Y266712D01*
X378227Y266758D01*
X377949Y266804D01*
D02*
G37*
G36*
X319407Y272034D02*
X314362D01*
X313853Y271987D01*
X313390Y271895D01*
X313020Y271756D01*
X312696Y271571D01*
X312372Y271339D01*
X312141Y271108D01*
X311817Y270599D01*
X311585Y270044D01*
X311493Y269581D01*
X311447Y269396D01*
Y269257D01*
Y269164D01*
Y269118D01*
Y265832D01*
X311493Y265323D01*
X311585Y264907D01*
X311724Y264490D01*
X311909Y264166D01*
X312141Y263888D01*
X312372Y263657D01*
X312881Y263333D01*
X313437Y263102D01*
X313899Y263009D01*
X314084Y262963D01*
X319314D01*
X319592Y263009D01*
X319730Y263194D01*
X319777Y263333D01*
Y263379D01*
Y271617D01*
X319684Y271849D01*
X319545Y271987D01*
X319407Y272034D01*
D02*
G37*
G36*
X231014Y266804D02*
X228376D01*
X227867Y266758D01*
X227451Y266665D01*
X227080Y266526D01*
X226756Y266341D01*
X226479Y266156D01*
X226247Y265879D01*
X225923Y265369D01*
X225692Y264860D01*
X225599Y264398D01*
X225553Y264212D01*
Y264074D01*
Y263981D01*
Y263935D01*
Y256345D01*
X225599Y255836D01*
X225692Y255420D01*
X225831Y255003D01*
X225970Y254679D01*
X226201Y254401D01*
X226432Y254170D01*
X226942Y253846D01*
X227497Y253615D01*
X227913Y253522D01*
X228099Y253476D01*
X230783D01*
X231292Y253522D01*
X231754Y253568D01*
X232125Y253707D01*
X232402Y253846D01*
X232680Y253939D01*
X232819Y254077D01*
X232911Y254124D01*
X232958Y254170D01*
X233189Y254448D01*
X233328Y254818D01*
X233513Y255512D01*
X233559Y255836D01*
X233606Y256114D01*
Y256299D01*
Y256345D01*
Y263935D01*
X233559Y264444D01*
X233513Y264907D01*
X233421Y265277D01*
X233282Y265601D01*
X233143Y265832D01*
X233050Y265971D01*
X233004Y266064D01*
X232958Y266110D01*
X232680Y266341D01*
X232310Y266526D01*
X231986Y266619D01*
X231616Y266712D01*
X231292Y266758D01*
X231014Y266804D01*
D02*
G37*
G36*
X170713D02*
X168306D01*
X167797Y266758D01*
X167334Y266712D01*
X166964Y266573D01*
X166686Y266480D01*
X166455Y266341D01*
X166316Y266203D01*
X166224Y266156D01*
X166177Y266110D01*
X165946Y265832D01*
X165761Y265462D01*
X165668Y265138D01*
X165576Y264768D01*
X165529Y264444D01*
X165483Y264166D01*
Y263981D01*
Y263935D01*
Y261436D01*
X165529Y261204D01*
X165668Y261112D01*
X165854Y261066D01*
X172888D01*
X173119Y261112D01*
X173258Y261251D01*
X173304Y261390D01*
Y261436D01*
Y263935D01*
X173258Y264444D01*
X173212Y264907D01*
X173119Y265277D01*
X172980Y265601D01*
X172842Y265832D01*
X172749Y265971D01*
X172703Y266064D01*
X172656Y266110D01*
X172379Y266341D01*
X172008Y266526D01*
X171685Y266619D01*
X171314Y266712D01*
X170990Y266758D01*
X170713Y266804D01*
D02*
G37*
G36*
X121796D02*
X119158D01*
X118649Y266758D01*
X118233Y266665D01*
X117862Y266526D01*
X117538Y266341D01*
X117261Y266156D01*
X117029Y265879D01*
X116705Y265369D01*
X116474Y264860D01*
X116381Y264398D01*
X116335Y264212D01*
Y264074D01*
Y263981D01*
Y263935D01*
Y256345D01*
X116381Y255836D01*
X116474Y255420D01*
X116613Y255003D01*
X116752Y254679D01*
X116983Y254401D01*
X117214Y254170D01*
X117724Y253846D01*
X118279Y253615D01*
X118695Y253522D01*
X118881Y253476D01*
X121565D01*
X122074Y253522D01*
X122536Y253568D01*
X122907Y253707D01*
X123184Y253846D01*
X123462Y253939D01*
X123601Y254077D01*
X123694Y254124D01*
X123740Y254170D01*
X123971Y254448D01*
X124110Y254818D01*
X124295Y255512D01*
X124341Y255836D01*
X124388Y256114D01*
Y256299D01*
Y256345D01*
Y263935D01*
X124341Y264444D01*
X124295Y264907D01*
X124202Y265277D01*
X124064Y265601D01*
X123925Y265832D01*
X123832Y265971D01*
X123786Y266064D01*
X123740Y266110D01*
X123462Y266341D01*
X123092Y266526D01*
X122768Y266619D01*
X122398Y266712D01*
X122074Y266758D01*
X121796Y266804D01*
D02*
G37*
G36*
X381759Y373484D02*
X379121D01*
X378612Y373438D01*
X378196Y373345D01*
X377826Y373206D01*
X377502Y373021D01*
X377224Y372836D01*
X376992Y372559D01*
X376669Y372049D01*
X376437Y371540D01*
X376345Y371078D01*
X376298Y370892D01*
Y370754D01*
Y370661D01*
Y370615D01*
Y363025D01*
X376345Y362516D01*
X376437Y362099D01*
X376576Y361683D01*
X376715Y361359D01*
X376946Y361081D01*
X377178Y360850D01*
X377687Y360526D01*
X378242Y360295D01*
X378658Y360202D01*
X378844Y360156D01*
X381528D01*
X382037Y360202D01*
X382500Y360248D01*
X382870Y360387D01*
X383148Y360526D01*
X383425Y360619D01*
X383564Y360757D01*
X383657Y360804D01*
X383703Y360850D01*
X383934Y361128D01*
X384073Y361498D01*
X384258Y362192D01*
X384305Y362516D01*
X384351Y362794D01*
Y362979D01*
Y363025D01*
Y370615D01*
X384305Y371124D01*
X384258Y371587D01*
X384166Y371957D01*
X384027Y372281D01*
X383888Y372512D01*
X383796Y372651D01*
X383749Y372744D01*
X383703Y372790D01*
X383425Y373021D01*
X383055Y373206D01*
X382731Y373299D01*
X382361Y373391D01*
X382037Y373438D01*
X381759Y373484D01*
D02*
G37*
G36*
X262314D02*
X259676D01*
X259167Y373438D01*
X258750Y373345D01*
X258380Y373206D01*
X258056Y373021D01*
X257778Y372836D01*
X257547Y372559D01*
X257223Y372049D01*
X256992Y371540D01*
X256899Y371078D01*
X256853Y370892D01*
Y370754D01*
Y370661D01*
Y370615D01*
Y363025D01*
X256899Y362516D01*
X256992Y362099D01*
X257130Y361683D01*
X257269Y361359D01*
X257501Y361081D01*
X257732Y360850D01*
X258241Y360526D01*
X258796Y360295D01*
X259213Y360202D01*
X259398Y360156D01*
X262082D01*
X262591Y360202D01*
X263054Y360248D01*
X263424Y360387D01*
X263702Y360526D01*
X263980Y360619D01*
X264118Y360757D01*
X264211Y360804D01*
X264257Y360850D01*
X264489Y361128D01*
X264628Y361498D01*
X264813Y362192D01*
X264859Y362516D01*
X264905Y362794D01*
Y362979D01*
Y363025D01*
Y370615D01*
X264859Y371124D01*
X264813Y371587D01*
X264720Y371957D01*
X264581Y372281D01*
X264442Y372512D01*
X264350Y372651D01*
X264304Y372744D01*
X264257Y372790D01*
X263980Y373021D01*
X263609Y373206D01*
X263286Y373299D01*
X262915Y373391D01*
X262591Y373438D01*
X262314Y373484D01*
D02*
G37*
G36*
X202012D02*
X199606D01*
X199097Y373438D01*
X198634Y373391D01*
X198264Y373253D01*
X197986Y373160D01*
X197755Y373021D01*
X197616Y372882D01*
X197523Y372836D01*
X197477Y372790D01*
X197246Y372512D01*
X197061Y372142D01*
X196968Y371818D01*
X196875Y371448D01*
X196829Y371124D01*
X196783Y370846D01*
Y370661D01*
Y370615D01*
Y368116D01*
X196829Y367884D01*
X196968Y367792D01*
X197153Y367746D01*
X204188D01*
X204419Y367792D01*
X204558Y367931D01*
X204604Y368069D01*
Y368116D01*
Y370615D01*
X204558Y371124D01*
X204511Y371587D01*
X204419Y371957D01*
X204280Y372281D01*
X204141Y372512D01*
X204049Y372651D01*
X204002Y372744D01*
X203956Y372790D01*
X203678Y373021D01*
X203308Y373206D01*
X202984Y373299D01*
X202614Y373391D01*
X202290Y373438D01*
X202012Y373484D01*
D02*
G37*
G36*
X153096D02*
X150458D01*
X149949Y373438D01*
X149532Y373345D01*
X149162Y373206D01*
X148838Y373021D01*
X148560Y372836D01*
X148329Y372559D01*
X148005Y372049D01*
X147774Y371540D01*
X147681Y371078D01*
X147635Y370892D01*
Y370754D01*
Y370661D01*
Y370615D01*
Y363025D01*
X147681Y362516D01*
X147774Y362099D01*
X147912Y361683D01*
X148051Y361359D01*
X148283Y361081D01*
X148514Y360850D01*
X149023Y360526D01*
X149579Y360295D01*
X149995Y360202D01*
X150180Y360156D01*
X152864D01*
X153373Y360202D01*
X153836Y360248D01*
X154206Y360387D01*
X154484Y360526D01*
X154762Y360619D01*
X154901Y360757D01*
X154993Y360804D01*
X155039Y360850D01*
X155271Y361128D01*
X155410Y361498D01*
X155595Y362192D01*
X155641Y362516D01*
X155687Y362794D01*
Y362979D01*
Y363025D01*
Y370615D01*
X155641Y371124D01*
X155595Y371587D01*
X155502Y371957D01*
X155363Y372281D01*
X155225Y372512D01*
X155132Y372651D01*
X155086Y372744D01*
X155039Y372790D01*
X154762Y373021D01*
X154391Y373206D01*
X154067Y373299D01*
X153697Y373391D01*
X153373Y373438D01*
X153096Y373484D01*
D02*
G37*
G36*
X379281Y331574D02*
X376643D01*
X376134Y331528D01*
X375717Y331435D01*
X375347Y331296D01*
X375023Y331111D01*
X374745Y330926D01*
X374514Y330648D01*
X374190Y330139D01*
X373959Y329630D01*
X373866Y329168D01*
X373820Y328983D01*
Y328844D01*
Y328751D01*
Y328705D01*
Y321115D01*
X373866Y320606D01*
X373959Y320190D01*
X374097Y319773D01*
X374236Y319449D01*
X374468Y319171D01*
X374699Y318940D01*
X375208Y318616D01*
X375763Y318385D01*
X376180Y318292D01*
X376365Y318246D01*
X379049D01*
X379558Y318292D01*
X380021Y318338D01*
X380391Y318477D01*
X380669Y318616D01*
X380947Y318709D01*
X381086Y318847D01*
X381178Y318894D01*
X381224Y318940D01*
X381456Y319218D01*
X381595Y319588D01*
X381780Y320282D01*
X381826Y320606D01*
X381872Y320884D01*
Y321069D01*
Y321115D01*
Y328705D01*
X381826Y329214D01*
X381780Y329677D01*
X381687Y330047D01*
X381548Y330371D01*
X381409Y330602D01*
X381317Y330741D01*
X381271Y330834D01*
X381224Y330880D01*
X380947Y331111D01*
X380576Y331296D01*
X380252Y331389D01*
X379882Y331482D01*
X379558Y331528D01*
X379281Y331574D01*
D02*
G37*
G36*
X318979D02*
X316573D01*
X316064Y331528D01*
X315601Y331482D01*
X315231Y331343D01*
X314953Y331250D01*
X314722Y331111D01*
X314583Y330973D01*
X314490Y330926D01*
X314444Y330880D01*
X314213Y330602D01*
X314028Y330232D01*
X313935Y329908D01*
X313842Y329538D01*
X313796Y329214D01*
X313750Y328936D01*
Y328751D01*
Y328705D01*
Y326206D01*
X313796Y325974D01*
X313935Y325882D01*
X314120Y325835D01*
X321155D01*
X321386Y325882D01*
X321525Y326021D01*
X321571Y326160D01*
Y326206D01*
Y328705D01*
X321525Y329214D01*
X321478Y329677D01*
X321386Y330047D01*
X321247Y330371D01*
X321108Y330602D01*
X321016Y330741D01*
X320969Y330834D01*
X320923Y330880D01*
X320645Y331111D01*
X320275Y331296D01*
X319951Y331389D01*
X319581Y331482D01*
X319257Y331528D01*
X318979Y331574D01*
D02*
G37*
G36*
X227995Y336804D02*
X225126D01*
X224617Y336757D01*
X224200Y336665D01*
X223784Y336526D01*
X223460Y336341D01*
X223182Y336109D01*
X222951Y335878D01*
X222627Y335369D01*
X222395Y334814D01*
X222303Y334351D01*
X222257Y334166D01*
Y334027D01*
Y333934D01*
Y333888D01*
Y327687D01*
X227718D01*
X228227Y327733D01*
X228643Y327826D01*
X229013Y327964D01*
X229337Y328149D01*
X229615Y328335D01*
X229846Y328612D01*
X230170Y329121D01*
X230402Y329630D01*
X230494Y330093D01*
X230541Y330278D01*
Y330417D01*
Y330510D01*
Y330556D01*
Y333888D01*
X230494Y334397D01*
X230402Y334860D01*
X230263Y335230D01*
X230078Y335554D01*
X229893Y335878D01*
X229661Y336109D01*
X229106Y336433D01*
X228597Y336665D01*
X228134Y336757D01*
X227995Y336804D01*
D02*
G37*
G36*
X198377Y331574D02*
X195739D01*
X195230Y331528D01*
X194813Y331435D01*
X194443Y331296D01*
X194119Y331111D01*
X193841Y330926D01*
X193610Y330648D01*
X193286Y330139D01*
X193055Y329630D01*
X192962Y329168D01*
X192916Y328983D01*
Y328844D01*
Y328751D01*
Y328705D01*
Y321115D01*
X192962Y320606D01*
X193055Y320190D01*
X193194Y319773D01*
X193332Y319449D01*
X193564Y319171D01*
X193795Y318940D01*
X194304Y318616D01*
X194860Y318385D01*
X195276Y318292D01*
X195461Y318246D01*
X198145D01*
X198654Y318292D01*
X199117Y318338D01*
X199487Y318477D01*
X199765Y318616D01*
X200043Y318709D01*
X200182Y318847D01*
X200274Y318894D01*
X200320Y318940D01*
X200552Y319218D01*
X200691Y319588D01*
X200876Y320282D01*
X200922Y320606D01*
X200968Y320884D01*
Y321069D01*
Y321115D01*
Y328705D01*
X200922Y329214D01*
X200876Y329677D01*
X200783Y330047D01*
X200644Y330371D01*
X200506Y330602D01*
X200413Y330741D01*
X200367Y330834D01*
X200320Y330880D01*
X200043Y331111D01*
X199673Y331296D01*
X199349Y331389D01*
X198978Y331482D01*
X198654Y331528D01*
X198377Y331574D01*
D02*
G37*
G36*
X116787Y336804D02*
X113733D01*
X113224Y336757D01*
X112807Y336665D01*
X112437Y336526D01*
X112113Y336341D01*
X111835Y336109D01*
X111604Y335878D01*
X111280Y335369D01*
X111049Y334814D01*
X110956Y334351D01*
X110910Y334166D01*
Y334027D01*
Y333934D01*
Y333888D01*
Y321161D01*
X110956Y320652D01*
X111049Y320190D01*
X111187Y319819D01*
X111326Y319495D01*
X111558Y319218D01*
X111789Y318940D01*
X112298Y318616D01*
X112854Y318385D01*
X113270Y318292D01*
X113455Y318246D01*
X116510D01*
X117019Y318292D01*
X117435Y318385D01*
X117805Y318524D01*
X118129Y318709D01*
X118407Y318940D01*
X118638Y319171D01*
X118962Y319727D01*
X119194Y320236D01*
X119286Y320699D01*
X119333Y320884D01*
Y321022D01*
Y321115D01*
Y321161D01*
Y333888D01*
X119286Y334397D01*
X119194Y334860D01*
X119055Y335230D01*
X118870Y335554D01*
X118685Y335878D01*
X118453Y336109D01*
X117898Y336433D01*
X117389Y336665D01*
X116926Y336757D01*
X116787Y336804D01*
D02*
G37*
G36*
X59515Y297711D02*
X57154D01*
X56645Y297665D01*
X56229Y297572D01*
X55859Y297434D01*
X55535Y297248D01*
X55257Y297017D01*
X55026Y296786D01*
X54702Y296277D01*
X54470Y295721D01*
X54378Y295259D01*
X54331Y295073D01*
Y294935D01*
Y294842D01*
Y294796D01*
Y287299D01*
X54378Y286789D01*
X54470Y286327D01*
X54609Y285956D01*
X54748Y285632D01*
X54979Y285355D01*
X55211Y285077D01*
X55720Y284753D01*
X56275Y284522D01*
X56692Y284429D01*
X56877Y284383D01*
X59237D01*
X59792Y284429D01*
X60301Y284522D01*
X60718Y284707D01*
X61088Y284892D01*
X61412Y285170D01*
X61643Y285447D01*
X61875Y285725D01*
X62014Y286049D01*
X62245Y286651D01*
X62384Y287206D01*
X62430Y287391D01*
Y287576D01*
Y287669D01*
Y287715D01*
Y294379D01*
X62384Y294981D01*
X62291Y295490D01*
X62153Y295906D01*
X61921Y296323D01*
X61690Y296647D01*
X61412Y296878D01*
X61134Y297110D01*
X60810Y297295D01*
X60255Y297526D01*
X59746Y297665D01*
X59515Y297711D01*
D02*
G37*
G36*
X382772D02*
X380134D01*
X379625Y297665D01*
X379208Y297572D01*
X378838Y297434D01*
X378514Y297248D01*
X378237Y297063D01*
X378005Y296786D01*
X377681Y296277D01*
X377450Y295768D01*
X377357Y295305D01*
X377311Y295120D01*
Y294981D01*
Y294888D01*
Y294842D01*
Y287252D01*
X377357Y286743D01*
X377450Y286327D01*
X377589Y285910D01*
X377728Y285586D01*
X377959Y285308D01*
X378190Y285077D01*
X378699Y284753D01*
X379255Y284522D01*
X379671Y284429D01*
X379856Y284383D01*
X382541D01*
X383050Y284429D01*
X383512Y284475D01*
X383883Y284614D01*
X384160Y284753D01*
X384438Y284846D01*
X384577Y284985D01*
X384669Y285031D01*
X384716Y285077D01*
X384947Y285355D01*
X385086Y285725D01*
X385271Y286419D01*
X385317Y286743D01*
X385364Y287021D01*
Y287206D01*
Y287252D01*
Y294842D01*
X385317Y295351D01*
X385271Y295814D01*
X385178Y296184D01*
X385040Y296508D01*
X384901Y296739D01*
X384808Y296878D01*
X384762Y296971D01*
X384716Y297017D01*
X384438Y297248D01*
X384068Y297434D01*
X383744Y297526D01*
X383374Y297619D01*
X383050Y297665D01*
X382772Y297711D01*
D02*
G37*
G36*
X336678D02*
X334272D01*
X333763Y297665D01*
X333300Y297619D01*
X332930Y297480D01*
X332652Y297387D01*
X332421Y297248D01*
X332282Y297110D01*
X332189Y297063D01*
X332143Y297017D01*
X331912Y296739D01*
X331726Y296369D01*
X331634Y296045D01*
X331541Y295675D01*
X331495Y295351D01*
X331449Y295073D01*
Y294888D01*
Y294842D01*
Y292343D01*
X331495Y292111D01*
X331634Y292019D01*
X331819Y291973D01*
X338853D01*
X339085Y292019D01*
X339224Y292158D01*
X339270Y292297D01*
Y292343D01*
Y294842D01*
X339224Y295351D01*
X339177Y295814D01*
X339085Y296184D01*
X338946Y296508D01*
X338807Y296739D01*
X338715Y296878D01*
X338668Y296971D01*
X338622Y297017D01*
X338344Y297248D01*
X337974Y297434D01*
X337650Y297526D01*
X337280Y297619D01*
X336956Y297665D01*
X336678Y297711D01*
D02*
G37*
G36*
X308263D02*
X305857D01*
X305348Y297665D01*
X304885Y297619D01*
X304515Y297480D01*
X304237Y297387D01*
X304006Y297248D01*
X303867Y297110D01*
X303774Y297063D01*
X303728Y297017D01*
X303496Y296739D01*
X303311Y296369D01*
X303219Y296045D01*
X303126Y295675D01*
X303080Y295351D01*
X303034Y295073D01*
Y294888D01*
Y294842D01*
Y292343D01*
X303080Y292111D01*
X303219Y292019D01*
X303404Y291973D01*
X310438D01*
X310670Y292019D01*
X310809Y292158D01*
X310855Y292297D01*
Y292343D01*
Y294842D01*
X310809Y295351D01*
X310762Y295814D01*
X310670Y296184D01*
X310531Y296508D01*
X310392Y296739D01*
X310299Y296878D01*
X310253Y296971D01*
X310207Y297017D01*
X309929Y297248D01*
X309559Y297434D01*
X309235Y297526D01*
X308865Y297619D01*
X308541Y297665D01*
X308263Y297711D01*
D02*
G37*
G36*
X201174D02*
X198536D01*
X198027Y297665D01*
X197610Y297572D01*
X197240Y297434D01*
X196916Y297248D01*
X196639Y297063D01*
X196407Y296786D01*
X196083Y296277D01*
X195852Y295768D01*
X195759Y295305D01*
X195713Y295120D01*
Y294981D01*
Y294888D01*
Y294842D01*
Y287252D01*
X195759Y286743D01*
X195852Y286327D01*
X195991Y285910D01*
X196130Y285586D01*
X196361Y285308D01*
X196592Y285077D01*
X197101Y284753D01*
X197657Y284522D01*
X198073Y284429D01*
X198258Y284383D01*
X200943D01*
X201452Y284429D01*
X201915Y284475D01*
X202285Y284614D01*
X202562Y284753D01*
X202840Y284846D01*
X202979Y284985D01*
X203071Y285031D01*
X203118Y285077D01*
X203349Y285355D01*
X203488Y285725D01*
X203673Y286419D01*
X203719Y286743D01*
X203766Y287021D01*
Y287206D01*
Y287252D01*
Y294842D01*
X203719Y295351D01*
X203673Y295814D01*
X203580Y296184D01*
X203442Y296508D01*
X203303Y296739D01*
X203210Y296878D01*
X203164Y296971D01*
X203118Y297017D01*
X202840Y297248D01*
X202470Y297434D01*
X202146Y297526D01*
X201776Y297619D01*
X201452Y297665D01*
X201174Y297711D01*
D02*
G37*
G36*
X135365Y303080D02*
Y289196D01*
X143094D01*
X135365Y303080D01*
D02*
G37*
G36*
X59515Y404391D02*
X57154D01*
X56645Y404345D01*
X56229Y404252D01*
X55859Y404114D01*
X55535Y403928D01*
X55257Y403697D01*
X55026Y403466D01*
X54702Y402957D01*
X54470Y402401D01*
X54378Y401939D01*
X54331Y401753D01*
Y401614D01*
Y401522D01*
Y401476D01*
Y393979D01*
X54378Y393470D01*
X54470Y393007D01*
X54609Y392636D01*
X54748Y392313D01*
X54979Y392035D01*
X55211Y391757D01*
X55720Y391433D01*
X56275Y391202D01*
X56692Y391109D01*
X56877Y391063D01*
X59237D01*
X59792Y391109D01*
X60301Y391202D01*
X60718Y391387D01*
X61088Y391572D01*
X61412Y391850D01*
X61643Y392127D01*
X61875Y392405D01*
X62014Y392729D01*
X62245Y393331D01*
X62384Y393886D01*
X62430Y394071D01*
Y394256D01*
Y394349D01*
Y394395D01*
Y401059D01*
X62384Y401661D01*
X62291Y402170D01*
X62153Y402586D01*
X61921Y403003D01*
X61690Y403327D01*
X61412Y403558D01*
X61134Y403790D01*
X60810Y403975D01*
X60255Y404206D01*
X59746Y404345D01*
X59515Y404391D01*
D02*
G37*
G36*
X382772D02*
X380134D01*
X379625Y404345D01*
X379208Y404252D01*
X378838Y404114D01*
X378514Y403928D01*
X378237Y403743D01*
X378005Y403466D01*
X377681Y402957D01*
X377450Y402448D01*
X377357Y401985D01*
X377311Y401800D01*
Y401661D01*
Y401568D01*
Y401522D01*
Y393932D01*
X377357Y393423D01*
X377450Y393007D01*
X377589Y392590D01*
X377728Y392266D01*
X377959Y391988D01*
X378190Y391757D01*
X378699Y391433D01*
X379255Y391202D01*
X379671Y391109D01*
X379856Y391063D01*
X382541D01*
X383050Y391109D01*
X383512Y391156D01*
X383883Y391294D01*
X384160Y391433D01*
X384438Y391526D01*
X384577Y391665D01*
X384669Y391711D01*
X384716Y391757D01*
X384947Y392035D01*
X385086Y392405D01*
X385271Y393099D01*
X385317Y393423D01*
X385364Y393701D01*
Y393886D01*
Y393932D01*
Y401522D01*
X385317Y402031D01*
X385271Y402494D01*
X385178Y402864D01*
X385040Y403188D01*
X384901Y403419D01*
X384808Y403558D01*
X384762Y403651D01*
X384716Y403697D01*
X384438Y403928D01*
X384068Y404114D01*
X383744Y404206D01*
X383374Y404299D01*
X383050Y404345D01*
X382772Y404391D01*
D02*
G37*
G36*
X336678D02*
X334272D01*
X333763Y404345D01*
X333300Y404299D01*
X332930Y404160D01*
X332652Y404067D01*
X332421Y403928D01*
X332282Y403790D01*
X332189Y403743D01*
X332143Y403697D01*
X331912Y403419D01*
X331726Y403049D01*
X331634Y402725D01*
X331541Y402355D01*
X331495Y402031D01*
X331449Y401753D01*
Y401568D01*
Y401522D01*
Y399023D01*
X331495Y398792D01*
X331634Y398699D01*
X331819Y398653D01*
X338853D01*
X339085Y398699D01*
X339224Y398838D01*
X339270Y398977D01*
Y399023D01*
Y401522D01*
X339224Y402031D01*
X339177Y402494D01*
X339085Y402864D01*
X338946Y403188D01*
X338807Y403419D01*
X338715Y403558D01*
X338668Y403651D01*
X338622Y403697D01*
X338344Y403928D01*
X337974Y404114D01*
X337650Y404206D01*
X337280Y404299D01*
X336956Y404345D01*
X336678Y404391D01*
D02*
G37*
G36*
X308263D02*
X305857D01*
X305348Y404345D01*
X304885Y404299D01*
X304515Y404160D01*
X304237Y404067D01*
X304006Y403928D01*
X303867Y403790D01*
X303774Y403743D01*
X303728Y403697D01*
X303496Y403419D01*
X303311Y403049D01*
X303219Y402725D01*
X303126Y402355D01*
X303080Y402031D01*
X303034Y401753D01*
Y401568D01*
Y401522D01*
Y399023D01*
X303080Y398792D01*
X303219Y398699D01*
X303404Y398653D01*
X310438D01*
X310670Y398699D01*
X310809Y398838D01*
X310855Y398977D01*
Y399023D01*
Y401522D01*
X310809Y402031D01*
X310762Y402494D01*
X310670Y402864D01*
X310531Y403188D01*
X310392Y403419D01*
X310299Y403558D01*
X310253Y403651D01*
X310207Y403697D01*
X309929Y403928D01*
X309559Y404114D01*
X309235Y404206D01*
X308865Y404299D01*
X308541Y404345D01*
X308263Y404391D01*
D02*
G37*
G36*
X201174D02*
X198536D01*
X198027Y404345D01*
X197610Y404252D01*
X197240Y404114D01*
X196916Y403928D01*
X196639Y403743D01*
X196407Y403466D01*
X196083Y402957D01*
X195852Y402448D01*
X195759Y401985D01*
X195713Y401800D01*
Y401661D01*
Y401568D01*
Y401522D01*
Y393932D01*
X195759Y393423D01*
X195852Y393007D01*
X195991Y392590D01*
X196130Y392266D01*
X196361Y391988D01*
X196592Y391757D01*
X197101Y391433D01*
X197657Y391202D01*
X198073Y391109D01*
X198258Y391063D01*
X200943D01*
X201452Y391109D01*
X201915Y391156D01*
X202285Y391294D01*
X202562Y391433D01*
X202840Y391526D01*
X202979Y391665D01*
X203071Y391711D01*
X203118Y391757D01*
X203349Y392035D01*
X203488Y392405D01*
X203673Y393099D01*
X203719Y393423D01*
X203766Y393701D01*
Y393886D01*
Y393932D01*
Y401522D01*
X203719Y402031D01*
X203673Y402494D01*
X203580Y402864D01*
X203442Y403188D01*
X203303Y403419D01*
X203210Y403558D01*
X203164Y403651D01*
X203118Y403697D01*
X202840Y403928D01*
X202470Y404114D01*
X202146Y404206D01*
X201776Y404299D01*
X201452Y404345D01*
X201174Y404391D01*
D02*
G37*
G36*
X135365Y409760D02*
Y395876D01*
X143094D01*
X135365Y409760D01*
D02*
G37*
G36*
X380551Y435714D02*
X377913D01*
X377404Y435668D01*
X376987Y435575D01*
X376617Y435436D01*
X376293Y435251D01*
X376015Y435066D01*
X375784Y434789D01*
X375460Y434279D01*
X375229Y433770D01*
X375136Y433308D01*
X375090Y433122D01*
Y432984D01*
Y432891D01*
Y432845D01*
Y425255D01*
X375136Y424746D01*
X375229Y424329D01*
X375367Y423913D01*
X375506Y423589D01*
X375738Y423311D01*
X375969Y423080D01*
X376478Y422756D01*
X377033Y422525D01*
X377450Y422432D01*
X377635Y422386D01*
X380319D01*
X380828Y422432D01*
X381291Y422478D01*
X381661Y422617D01*
X381939Y422756D01*
X382217Y422849D01*
X382355Y422987D01*
X382448Y423034D01*
X382494Y423080D01*
X382726Y423358D01*
X382865Y423728D01*
X383050Y424422D01*
X383096Y424746D01*
X383142Y425024D01*
Y425209D01*
Y425255D01*
Y432845D01*
X383096Y433354D01*
X383050Y433817D01*
X382957Y434187D01*
X382818Y434511D01*
X382679Y434742D01*
X382587Y434881D01*
X382541Y434974D01*
X382494Y435020D01*
X382217Y435251D01*
X381846Y435436D01*
X381522Y435529D01*
X381152Y435621D01*
X380828Y435668D01*
X380551Y435714D01*
D02*
G37*
G36*
X320249D02*
X317843D01*
X317334Y435668D01*
X316871Y435621D01*
X316501Y435483D01*
X316223Y435390D01*
X315992Y435251D01*
X315853Y435112D01*
X315760Y435066D01*
X315714Y435020D01*
X315483Y434742D01*
X315298Y434372D01*
X315205Y434048D01*
X315112Y433678D01*
X315066Y433354D01*
X315020Y433076D01*
Y432891D01*
Y432845D01*
Y430346D01*
X315066Y430114D01*
X315205Y430022D01*
X315390Y429976D01*
X322425D01*
X322656Y430022D01*
X322795Y430161D01*
X322841Y430299D01*
Y430346D01*
Y432845D01*
X322795Y433354D01*
X322748Y433817D01*
X322656Y434187D01*
X322517Y434511D01*
X322378Y434742D01*
X322286Y434881D01*
X322239Y434974D01*
X322193Y435020D01*
X321915Y435251D01*
X321545Y435436D01*
X321221Y435529D01*
X320851Y435621D01*
X320527Y435668D01*
X320249Y435714D01*
D02*
G37*
G36*
X207005D02*
X204367D01*
X203858Y435668D01*
X203442Y435575D01*
X203071Y435436D01*
X202747Y435251D01*
X202470Y435066D01*
X202238Y434789D01*
X201915Y434279D01*
X201683Y433770D01*
X201590Y433308D01*
X201544Y433122D01*
Y432984D01*
Y432891D01*
Y432845D01*
Y425255D01*
X201590Y424746D01*
X201683Y424329D01*
X201822Y423913D01*
X201961Y423589D01*
X202192Y423311D01*
X202423Y423080D01*
X202933Y422756D01*
X203488Y422525D01*
X203904Y422432D01*
X204090Y422386D01*
X206774D01*
X207283Y422432D01*
X207746Y422478D01*
X208116Y422617D01*
X208393Y422756D01*
X208671Y422849D01*
X208810Y422987D01*
X208903Y423034D01*
X208949Y423080D01*
X209180Y423358D01*
X209319Y423728D01*
X209504Y424422D01*
X209550Y424746D01*
X209597Y425024D01*
Y425209D01*
Y425255D01*
Y432845D01*
X209550Y433354D01*
X209504Y433817D01*
X209412Y434187D01*
X209273Y434511D01*
X209134Y434742D01*
X209041Y434881D01*
X208995Y434974D01*
X208949Y435020D01*
X208671Y435251D01*
X208301Y435436D01*
X207977Y435529D01*
X207607Y435621D01*
X207283Y435668D01*
X207005Y435714D01*
D02*
G37*
%LPD*%
M02*
