G04*
G04 #@! TF.GenerationSoftware,Altium Limited,Altium Designer,24.1.2 (44)*
G04*
G04 Layer_Physical_Order=2*
G04 Layer_Color=16711680*
%FSLAX44Y44*%
%MOMM*%
G71*
G04*
G04 #@! TF.SameCoordinates,8026E52B-AA0B-4AC6-8547-A5A81626C292*
G04*
G04*
G04 #@! TF.FilePolarity,Positive*
G04*
G01*
G75*
%ADD31C,0.3000*%
%ADD32C,1.8000*%
%ADD33C,1.2000*%
%ADD34R,1.2000X1.2000*%
%ADD35C,1.8750*%
%ADD36C,0.6750*%
%ADD37R,1.2000X1.2000*%
%ADD38C,0.7000*%
G36*
X800000Y650000D02*
X803277D01*
X809775Y649144D01*
X816106Y647448D01*
X822162Y644940D01*
X827838Y641663D01*
X833038Y637673D01*
X837673Y633038D01*
X841663Y627838D01*
X844940Y622162D01*
X847448Y616106D01*
X849144Y609775D01*
X850000Y603277D01*
Y600000D01*
X850000Y600000D01*
X850000Y600000D01*
X850000Y50000D01*
Y46723D01*
X849145Y40224D01*
X847448Y33893D01*
X844940Y27838D01*
X841663Y22162D01*
X837673Y16962D01*
X833038Y12327D01*
X827838Y8337D01*
X822162Y5060D01*
X816106Y2552D01*
X809775Y856D01*
X803277Y0D01*
X46723D01*
X40224Y856D01*
X33893Y2552D01*
X27838Y5060D01*
X22162Y8337D01*
X16962Y12327D01*
X12327Y16962D01*
X8337Y22162D01*
X5060Y27838D01*
X2552Y33893D01*
X856Y40224D01*
X0Y46723D01*
X0Y50000D01*
X0Y600000D01*
Y603277D01*
X856Y609775D01*
X2552Y616106D01*
X5060Y622162D01*
X8337Y627838D01*
X12327Y633038D01*
X16962Y637673D01*
X22162Y641663D01*
X27838Y644940D01*
X33893Y647448D01*
X40224Y649144D01*
X46723Y650000D01*
X50000D01*
X50000Y650000D01*
X800000Y650000D01*
D02*
G37*
%LPC*%
G36*
X538334Y616870D02*
X536086D01*
X533914Y616288D01*
X531966Y615164D01*
X530376Y613574D01*
X529252Y611626D01*
X528670Y609454D01*
Y607206D01*
X529252Y605034D01*
X530376Y603086D01*
X531966Y601496D01*
X533914Y600372D01*
X536086Y599790D01*
X538334D01*
X540506Y600372D01*
X542454Y601496D01*
X544044Y603086D01*
X545168Y605034D01*
X545750Y607206D01*
Y609454D01*
X545168Y611626D01*
X544044Y613574D01*
X542454Y615164D01*
X540506Y616288D01*
X538334Y616870D01*
D02*
G37*
G36*
X563734D02*
X561486D01*
X559314Y616288D01*
X557366Y615164D01*
X555776Y613574D01*
X554652Y611626D01*
X554070Y609454D01*
Y607206D01*
X554652Y605034D01*
X555621Y603356D01*
X463725Y511460D01*
X452470D01*
Y500205D01*
X440317Y488053D01*
X439424Y486716D01*
X439111Y485140D01*
Y331333D01*
X437986Y330684D01*
X436396Y329094D01*
X435272Y327146D01*
X434690Y324974D01*
Y322726D01*
X435272Y320554D01*
X436396Y318606D01*
X437193Y317809D01*
X436667Y316539D01*
X428426D01*
X376349Y368616D01*
Y468371D01*
X377619Y469074D01*
X378974Y468292D01*
X381146Y467710D01*
X383394D01*
X385566Y468292D01*
X387514Y469416D01*
X389104Y471006D01*
X390228Y472954D01*
X390810Y475126D01*
Y477374D01*
X390228Y479546D01*
X389104Y481494D01*
X387514Y483084D01*
X385566Y484208D01*
X383394Y484790D01*
X381146D01*
X378974Y484208D01*
X377619Y483426D01*
X376349Y484129D01*
Y489904D01*
X379555Y493110D01*
X390810D01*
Y510190D01*
X386389D01*
Y545664D01*
X440851Y600126D01*
X442106Y599790D01*
X444354D01*
X446526Y600372D01*
X448474Y601496D01*
X450064Y603086D01*
X451188Y605034D01*
X451770Y607206D01*
Y609454D01*
X451188Y611626D01*
X450064Y613574D01*
X448474Y615164D01*
X446526Y616288D01*
X444354Y616870D01*
X442106D01*
X439934Y616288D01*
X437986Y615164D01*
X436396Y613574D01*
X435272Y611626D01*
X434690Y609454D01*
Y607206D01*
X435026Y605951D01*
X379357Y550283D01*
X378464Y548946D01*
X378151Y547370D01*
Y510190D01*
X373730D01*
Y498935D01*
X369317Y494523D01*
X368424Y493186D01*
X368111Y491610D01*
Y366910D01*
X368424Y365334D01*
X369317Y363997D01*
X423807Y309507D01*
X425144Y308614D01*
X426720Y308301D01*
X548963D01*
X549598Y307201D01*
X549316Y306714D01*
X548530Y303779D01*
Y300741D01*
X549316Y297806D01*
X550836Y295174D01*
X552984Y293026D01*
X555616Y291507D01*
X558551Y290720D01*
X561589D01*
X564524Y291507D01*
X567156Y293026D01*
X569304Y295174D01*
X570824Y297806D01*
X571610Y300741D01*
Y303779D01*
X570824Y306714D01*
X569304Y309346D01*
X568642Y310007D01*
X569128Y311181D01*
X576412D01*
X576898Y310007D01*
X576236Y309346D01*
X574716Y306714D01*
X573930Y303779D01*
Y300741D01*
X574716Y297806D01*
X576236Y295174D01*
X578384Y293026D01*
X581016Y291507D01*
X583951Y290720D01*
X586989D01*
X589924Y291507D01*
X592556Y293026D01*
X594704Y295174D01*
X596223Y297806D01*
X597010Y300741D01*
Y303779D01*
X596223Y306714D01*
X594704Y309346D01*
X594042Y310007D01*
X594529Y311181D01*
X760894D01*
X782495Y289579D01*
X782247Y289149D01*
X781474Y286265D01*
X781078Y286217D01*
X780622D01*
X780226Y286265D01*
X779453Y289149D01*
X777884Y291866D01*
X775666Y294084D01*
X772949Y295653D01*
X769919Y296465D01*
X766781D01*
X763751Y295653D01*
X761034Y294084D01*
X758816Y291866D01*
X757247Y289149D01*
X756435Y286119D01*
Y282981D01*
X757247Y279951D01*
X758816Y277234D01*
X761034Y275016D01*
X763751Y273447D01*
X766635Y272674D01*
X766683Y272278D01*
Y271822D01*
X766635Y271426D01*
X763751Y270653D01*
X761034Y269084D01*
X758816Y266866D01*
X757247Y264149D01*
X756435Y261119D01*
Y257981D01*
X757247Y254951D01*
X758816Y252234D01*
X761034Y250016D01*
X763751Y248447D01*
X766635Y247674D01*
X766683Y247278D01*
Y246822D01*
X766635Y246426D01*
X763751Y245653D01*
X761034Y244084D01*
X758816Y241866D01*
X757247Y239149D01*
X756435Y236119D01*
Y232981D01*
X756818Y231552D01*
X755761Y230590D01*
X753826D01*
X751654Y230008D01*
X749706Y228884D01*
X748116Y227294D01*
X746992Y225346D01*
X746410Y223174D01*
Y220926D01*
X746992Y218754D01*
X748116Y216806D01*
X749706Y215216D01*
X751654Y214092D01*
X753826Y213510D01*
X755761D01*
X756818Y212548D01*
X756435Y211119D01*
Y207981D01*
X757247Y204951D01*
X758816Y202234D01*
X761034Y200016D01*
X763751Y198447D01*
X766635Y197674D01*
X766683Y197278D01*
Y196822D01*
X766635Y196426D01*
X763751Y195653D01*
X761034Y194084D01*
X758816Y191866D01*
X757247Y189149D01*
X756435Y186119D01*
Y182981D01*
X757247Y179951D01*
X758816Y177234D01*
X761034Y175016D01*
X763751Y173447D01*
X766635Y172674D01*
X766683Y172278D01*
Y171822D01*
X766635Y171426D01*
X763751Y170653D01*
X761034Y169084D01*
X758816Y166866D01*
X757247Y164149D01*
X756435Y161119D01*
Y157981D01*
X757247Y154951D01*
X758816Y152234D01*
X761034Y150016D01*
X763751Y148447D01*
X766781Y147635D01*
X769919D01*
X772949Y148447D01*
X775666Y150016D01*
X777884Y152234D01*
X779453Y154951D01*
X780265Y157981D01*
Y161119D01*
X779453Y164149D01*
X777884Y166866D01*
X775666Y169084D01*
X772949Y170653D01*
X770065Y171426D01*
X770017Y171822D01*
Y172278D01*
X770065Y172674D01*
X772949Y173447D01*
X775666Y175016D01*
X777884Y177234D01*
X779453Y179951D01*
X780265Y182981D01*
Y186119D01*
X779453Y189149D01*
X777884Y191866D01*
X775666Y194084D01*
X772949Y195653D01*
X770065Y196426D01*
X770017Y196822D01*
Y197278D01*
X770065Y197674D01*
X772949Y198447D01*
X775666Y200016D01*
X777884Y202234D01*
X779453Y204951D01*
X780265Y207981D01*
Y211119D01*
X779453Y214149D01*
X777884Y216866D01*
X775666Y219084D01*
X772949Y220653D01*
X770065Y221426D01*
X770017Y221822D01*
Y222278D01*
X770065Y222674D01*
X772949Y223447D01*
X775666Y225016D01*
X777884Y227234D01*
X779453Y229951D01*
X780226Y232835D01*
X780622Y232883D01*
X781078D01*
X781474Y232835D01*
X782247Y229951D01*
X783816Y227234D01*
X786034Y225016D01*
X788751Y223447D01*
X791781Y222635D01*
X794919D01*
X797949Y223447D01*
X800666Y225016D01*
X802884Y227234D01*
X804453Y229951D01*
X805265Y232981D01*
Y236119D01*
X804453Y239149D01*
X802884Y241866D01*
X800666Y244084D01*
X797949Y245653D01*
X795065Y246426D01*
X795017Y246822D01*
Y247278D01*
X795065Y247674D01*
X797949Y248447D01*
X800666Y250016D01*
X802884Y252234D01*
X804453Y254951D01*
X805265Y257981D01*
Y261119D01*
X804453Y264149D01*
X802884Y266866D01*
X800666Y269084D01*
X797949Y270653D01*
X795065Y271426D01*
X795017Y271822D01*
Y272278D01*
X795065Y272674D01*
X797949Y273447D01*
X800666Y275016D01*
X802884Y277234D01*
X804453Y279951D01*
X805265Y282981D01*
Y286119D01*
X804453Y289149D01*
X802884Y291866D01*
X800666Y294084D01*
X797949Y295653D01*
X794919Y296465D01*
X791781D01*
X788751Y295653D01*
X788321Y295405D01*
X765513Y318213D01*
X764176Y319106D01*
X762600Y319419D01*
X668476D01*
X668091Y320689D01*
X668463Y320937D01*
X767131Y419605D01*
X767561Y419357D01*
X770591Y418545D01*
X773729D01*
X776759Y419357D01*
X779476Y420926D01*
X781694Y423144D01*
X783263Y425861D01*
X784075Y428891D01*
Y432029D01*
X783263Y435059D01*
X781694Y437776D01*
X779476Y439994D01*
X776759Y441563D01*
X773875Y442336D01*
X773827Y442732D01*
Y443188D01*
X773875Y443584D01*
X776759Y444357D01*
X779476Y445926D01*
X781694Y448144D01*
X783263Y450861D01*
X784075Y453891D01*
Y457029D01*
X783263Y460059D01*
X781694Y462776D01*
X779476Y464994D01*
X776759Y466563D01*
X773875Y467336D01*
X773827Y467732D01*
Y468188D01*
X773875Y468584D01*
X776759Y469357D01*
X779476Y470926D01*
X781694Y473144D01*
X783263Y475861D01*
X784075Y478891D01*
Y482029D01*
X783692Y483458D01*
X784749Y484420D01*
X786684D01*
X788856Y485002D01*
X790804Y486126D01*
X792394Y487716D01*
X793518Y489664D01*
X794100Y491836D01*
Y494084D01*
X793518Y496256D01*
X792394Y498204D01*
X790804Y499794D01*
X788856Y500918D01*
X786684Y501500D01*
X784436D01*
X782264Y500918D01*
X780316Y499794D01*
X778726Y498204D01*
X777602Y496256D01*
X777020Y494084D01*
Y492808D01*
X775751Y491833D01*
X773729Y492375D01*
X770591D01*
X767561Y491563D01*
X764844Y489994D01*
X762626Y487776D01*
X761057Y485059D01*
X760284Y482175D01*
X759888Y482127D01*
X759432D01*
X759036Y482175D01*
X758263Y485059D01*
X756694Y487776D01*
X754476Y489994D01*
X751759Y491563D01*
X748875Y492336D01*
X748827Y492732D01*
Y493188D01*
X748875Y493584D01*
X751759Y494357D01*
X754476Y495926D01*
X756694Y498144D01*
X758263Y500861D01*
X759075Y503891D01*
Y507029D01*
X758263Y510059D01*
X756694Y512776D01*
X754476Y514994D01*
X751759Y516563D01*
X748875Y517336D01*
X748827Y517732D01*
Y518188D01*
X748875Y518584D01*
X751759Y519357D01*
X754476Y520926D01*
X756694Y523144D01*
X758263Y525861D01*
X759075Y528891D01*
Y532029D01*
X758263Y535059D01*
X756694Y537776D01*
X754476Y539994D01*
X751759Y541563D01*
X748875Y542336D01*
X748827Y542732D01*
Y543188D01*
X748875Y543584D01*
X751759Y544357D01*
X754476Y545926D01*
X756694Y548144D01*
X758263Y550861D01*
X759075Y553891D01*
Y557029D01*
X758263Y560059D01*
X756694Y562776D01*
X754476Y564994D01*
X751759Y566563D01*
X748729Y567375D01*
X745591D01*
X742561Y566563D01*
X739844Y564994D01*
X737626Y562776D01*
X736057Y560059D01*
X735245Y557029D01*
Y553891D01*
X736057Y550861D01*
X737626Y548144D01*
X739844Y545926D01*
X742561Y544357D01*
X745445Y543584D01*
X745493Y543188D01*
Y542732D01*
X745445Y542336D01*
X742561Y541563D01*
X739844Y539994D01*
X737626Y537776D01*
X736057Y535059D01*
X735245Y532029D01*
Y528891D01*
X736057Y525861D01*
X737626Y523144D01*
X739844Y520926D01*
X742561Y519357D01*
X745445Y518584D01*
X745493Y518188D01*
Y517732D01*
X745445Y517336D01*
X742561Y516563D01*
X739844Y514994D01*
X737626Y512776D01*
X736057Y510059D01*
X735245Y507029D01*
Y503891D01*
X736057Y500861D01*
X737626Y498144D01*
X739844Y495926D01*
X742561Y494357D01*
X745445Y493584D01*
X745493Y493188D01*
Y492732D01*
X745445Y492336D01*
X742561Y491563D01*
X739844Y489994D01*
X737626Y487776D01*
X736057Y485059D01*
X735245Y482029D01*
Y478891D01*
X736057Y475861D01*
X737626Y473144D01*
X739844Y470926D01*
X742561Y469357D01*
X745445Y468584D01*
X745493Y468188D01*
Y467732D01*
X745445Y467336D01*
X742561Y466563D01*
X739844Y464994D01*
X737626Y462776D01*
X736057Y460059D01*
X735245Y457029D01*
Y453891D01*
X736057Y450861D01*
X737626Y448144D01*
X739844Y445926D01*
X742561Y444357D01*
X745445Y443584D01*
X745493Y443188D01*
Y442732D01*
X745445Y442336D01*
X742561Y441563D01*
X739844Y439994D01*
X737626Y437776D01*
X736057Y435059D01*
X735245Y432029D01*
Y428891D01*
X736057Y425861D01*
X737626Y423144D01*
X739844Y420926D01*
X742561Y419357D01*
X745591Y418545D01*
X748729D01*
X751759Y419357D01*
X754476Y420926D01*
X756694Y423144D01*
X758263Y425861D01*
X759036Y428745D01*
X759432Y428793D01*
X759888D01*
X760284Y428745D01*
X761057Y425861D01*
X761305Y425431D01*
X663844Y327969D01*
X450713D01*
X450064Y329094D01*
X448474Y330684D01*
X447349Y331333D01*
Y483434D01*
X458295Y494380D01*
X469550D01*
Y505635D01*
X563705Y599790D01*
X563734D01*
X565906Y600372D01*
X567854Y601496D01*
X569444Y603086D01*
X570568Y605034D01*
X571150Y607206D01*
Y609454D01*
X570568Y611626D01*
X569444Y613574D01*
X567854Y615164D01*
X565906Y616288D01*
X563734Y616870D01*
D02*
G37*
G36*
X418954D02*
X416706D01*
X414534Y616288D01*
X412586Y615164D01*
X410996Y613574D01*
X409872Y611626D01*
X409290Y609454D01*
Y607206D01*
X409872Y605034D01*
X410996Y603086D01*
X412586Y601496D01*
X414534Y600372D01*
X416706Y599790D01*
X418954D01*
X421126Y600372D01*
X423074Y601496D01*
X424664Y603086D01*
X425788Y605034D01*
X426370Y607206D01*
Y609454D01*
X425788Y611626D01*
X424664Y613574D01*
X423074Y615164D01*
X421126Y616288D01*
X418954Y616870D01*
D02*
G37*
G36*
X678429Y608440D02*
X675391D01*
X672456Y607654D01*
X669824Y606134D01*
X667676Y603986D01*
X666156Y601354D01*
X665370Y598419D01*
Y595381D01*
X666156Y592446D01*
X667676Y589814D01*
X669824Y587666D01*
X672456Y586147D01*
X675391Y585360D01*
X678429D01*
X681364Y586147D01*
X683996Y587666D01*
X686144Y589814D01*
X687663Y592446D01*
X688450Y595381D01*
Y598419D01*
X687663Y601354D01*
X686144Y603986D01*
X683996Y606134D01*
X681364Y607654D01*
X678429Y608440D01*
D02*
G37*
G36*
X653029D02*
X649991D01*
X647056Y607654D01*
X644424Y606134D01*
X642276Y603986D01*
X640757Y601354D01*
X639970Y598419D01*
Y595381D01*
X640757Y592446D01*
X642276Y589814D01*
X644424Y587666D01*
X647056Y586147D01*
X649991Y585360D01*
X653029D01*
X655964Y586147D01*
X658596Y587666D01*
X660744Y589814D01*
X662263Y592446D01*
X663050Y595381D01*
Y598419D01*
X662263Y601354D01*
X660744Y603986D01*
X658596Y606134D01*
X655964Y607654D01*
X653029Y608440D01*
D02*
G37*
G36*
X677159Y570340D02*
X674121D01*
X671186Y569553D01*
X668554Y568034D01*
X666406Y565886D01*
X664886Y563254D01*
X664100Y560319D01*
Y557281D01*
X664886Y554346D01*
X666406Y551714D01*
X668554Y549566D01*
X671186Y548046D01*
X674121Y547260D01*
X677159D01*
X680094Y548046D01*
X682726Y549566D01*
X684874Y551714D01*
X686394Y554346D01*
X687180Y557281D01*
Y560319D01*
X686394Y563254D01*
X684874Y565886D01*
X682726Y568034D01*
X680094Y569553D01*
X677159Y570340D01*
D02*
G37*
G36*
X651759D02*
X648721D01*
X645786Y569553D01*
X643154Y568034D01*
X641006Y565886D01*
X639487Y563254D01*
X638700Y560319D01*
Y557281D01*
X639487Y554346D01*
X641006Y551714D01*
X643154Y549566D01*
X645786Y548046D01*
X648721Y547260D01*
X651759D01*
X654694Y548046D01*
X657326Y549566D01*
X659474Y551714D01*
X660993Y554346D01*
X661780Y557281D01*
Y560319D01*
X660993Y563254D01*
X659474Y565886D01*
X657326Y568034D01*
X654694Y569553D01*
X651759Y570340D01*
D02*
G37*
G36*
X586989Y542400D02*
X583951D01*
X581016Y541614D01*
X578384Y540094D01*
X576236Y537946D01*
X574716Y535314D01*
X573930Y532379D01*
Y529341D01*
X574716Y526406D01*
X576236Y523774D01*
X578384Y521626D01*
X581016Y520107D01*
X583951Y519320D01*
X586989D01*
X589924Y520107D01*
X592556Y521626D01*
X594704Y523774D01*
X596223Y526406D01*
X597010Y529341D01*
Y532379D01*
X596223Y535314D01*
X594704Y537946D01*
X592556Y540094D01*
X589924Y541614D01*
X586989Y542400D01*
D02*
G37*
G36*
X561589D02*
X558551D01*
X555616Y541614D01*
X552984Y540094D01*
X550836Y537946D01*
X549316Y535314D01*
X548530Y532379D01*
Y529341D01*
X549316Y526406D01*
X550836Y523774D01*
X552984Y521626D01*
X555616Y520107D01*
X558551Y519320D01*
X561589D01*
X564524Y520107D01*
X567156Y521626D01*
X569304Y523774D01*
X570824Y526406D01*
X571610Y529341D01*
Y532379D01*
X570824Y535314D01*
X569304Y537946D01*
X567156Y540094D01*
X564524Y541614D01*
X561589Y542400D01*
D02*
G37*
G36*
X677159Y534780D02*
X674121D01*
X671186Y533993D01*
X668554Y532474D01*
X666406Y530326D01*
X664886Y527694D01*
X664100Y524759D01*
Y521721D01*
X664886Y518786D01*
X666406Y516154D01*
X668554Y514006D01*
X671186Y512486D01*
X674121Y511700D01*
X677159D01*
X680094Y512486D01*
X682726Y514006D01*
X684874Y516154D01*
X686394Y518786D01*
X687180Y521721D01*
Y524759D01*
X686394Y527694D01*
X684874Y530326D01*
X682726Y532474D01*
X680094Y533993D01*
X677159Y534780D01*
D02*
G37*
G36*
X651759D02*
X648721D01*
X645786Y533993D01*
X643154Y532474D01*
X641006Y530326D01*
X639487Y527694D01*
X638700Y524759D01*
Y521721D01*
X639487Y518786D01*
X641006Y516154D01*
X643154Y514006D01*
X645786Y512486D01*
X648721Y511700D01*
X651759D01*
X654694Y512486D01*
X657326Y514006D01*
X659474Y516154D01*
X660993Y518786D01*
X661780Y521721D01*
Y524759D01*
X660993Y527694D01*
X659474Y530326D01*
X657326Y532474D01*
X654694Y533993D01*
X651759Y534780D01*
D02*
G37*
G36*
X677159Y497950D02*
X674121D01*
X671186Y497164D01*
X668554Y495644D01*
X666406Y493496D01*
X664886Y490864D01*
X664100Y487929D01*
Y484891D01*
X664886Y481956D01*
X666406Y479324D01*
X668554Y477176D01*
X671186Y475657D01*
X674121Y474870D01*
X677159D01*
X680094Y475657D01*
X682726Y477176D01*
X684874Y479324D01*
X686394Y481956D01*
X687180Y484891D01*
Y487929D01*
X686394Y490864D01*
X684874Y493496D01*
X682726Y495644D01*
X680094Y497164D01*
X677159Y497950D01*
D02*
G37*
G36*
X651759D02*
X648721D01*
X645786Y497164D01*
X643154Y495644D01*
X641006Y493496D01*
X639487Y490864D01*
X638700Y487929D01*
Y484891D01*
X639487Y481956D01*
X641006Y479324D01*
X643154Y477176D01*
X645786Y475657D01*
X648721Y474870D01*
X651759D01*
X654694Y475657D01*
X657326Y477176D01*
X659474Y479324D01*
X660993Y481956D01*
X661780Y484891D01*
Y487929D01*
X660993Y490864D01*
X659474Y493496D01*
X657326Y495644D01*
X654694Y497164D01*
X651759Y497950D01*
D02*
G37*
G36*
X462134Y486060D02*
X459886D01*
X457714Y485478D01*
X455766Y484354D01*
X454176Y482764D01*
X453052Y480816D01*
X452470Y478644D01*
Y476396D01*
X453052Y474224D01*
X454176Y472276D01*
X455766Y470686D01*
X457714Y469562D01*
X459886Y468980D01*
X462134D01*
X464306Y469562D01*
X466254Y470686D01*
X467844Y472276D01*
X468968Y474224D01*
X469550Y476396D01*
Y478644D01*
X468968Y480816D01*
X467844Y482764D01*
X466254Y484354D01*
X464306Y485478D01*
X462134Y486060D01*
D02*
G37*
G36*
X586989Y475090D02*
X583951D01*
X581016Y474304D01*
X578384Y472784D01*
X576236Y470636D01*
X574716Y468004D01*
X573930Y465069D01*
Y462031D01*
X574716Y459096D01*
X576236Y456464D01*
X578384Y454316D01*
X581016Y452797D01*
X583951Y452010D01*
X586989D01*
X589924Y452797D01*
X592556Y454316D01*
X594704Y456464D01*
X596223Y459096D01*
X597010Y462031D01*
Y465069D01*
X596223Y468004D01*
X594704Y470636D01*
X592556Y472784D01*
X589924Y474304D01*
X586989Y475090D01*
D02*
G37*
G36*
X561589D02*
X558551D01*
X555616Y474304D01*
X552984Y472784D01*
X550836Y470636D01*
X549316Y468004D01*
X548530Y465069D01*
Y462031D01*
X549316Y459096D01*
X550836Y456464D01*
X552984Y454316D01*
X555616Y452797D01*
X558551Y452010D01*
X561589D01*
X564524Y452797D01*
X567156Y454316D01*
X569304Y456464D01*
X570824Y459096D01*
X571610Y462031D01*
Y465069D01*
X570824Y468004D01*
X569304Y470636D01*
X567156Y472784D01*
X564524Y474304D01*
X561589Y475090D01*
D02*
G37*
G36*
X677159Y462390D02*
X674121D01*
X671186Y461604D01*
X668554Y460084D01*
X666406Y457936D01*
X664886Y455304D01*
X664100Y452369D01*
Y449331D01*
X664886Y446396D01*
X666406Y443764D01*
X668554Y441616D01*
X671186Y440097D01*
X674121Y439310D01*
X677159D01*
X680094Y440097D01*
X682726Y441616D01*
X684874Y443764D01*
X686394Y446396D01*
X687180Y449331D01*
Y452369D01*
X686394Y455304D01*
X684874Y457936D01*
X682726Y460084D01*
X680094Y461604D01*
X677159Y462390D01*
D02*
G37*
G36*
X651759D02*
X648721D01*
X645786Y461604D01*
X643154Y460084D01*
X641006Y457936D01*
X639487Y455304D01*
X638700Y452369D01*
Y449331D01*
X639487Y446396D01*
X641006Y443764D01*
X643154Y441616D01*
X645786Y440097D01*
X648721Y439310D01*
X651759D01*
X654694Y440097D01*
X657326Y441616D01*
X659474Y443764D01*
X660993Y446396D01*
X661780Y449331D01*
Y452369D01*
X660993Y455304D01*
X659474Y457936D01*
X657326Y460084D01*
X654694Y461604D01*
X651759Y462390D01*
D02*
G37*
G36*
X677159Y426830D02*
X674121D01*
X671186Y426044D01*
X668554Y424524D01*
X666406Y422376D01*
X664886Y419744D01*
X664100Y416809D01*
Y413771D01*
X664886Y410836D01*
X666406Y408204D01*
X668554Y406056D01*
X671186Y404537D01*
X674121Y403750D01*
X677159D01*
X680094Y404537D01*
X682726Y406056D01*
X684874Y408204D01*
X686394Y410836D01*
X687180Y413771D01*
Y416809D01*
X686394Y419744D01*
X684874Y422376D01*
X682726Y424524D01*
X680094Y426044D01*
X677159Y426830D01*
D02*
G37*
G36*
X651759D02*
X648721D01*
X645786Y426044D01*
X643154Y424524D01*
X641006Y422376D01*
X639487Y419744D01*
X638700Y416809D01*
Y413771D01*
X639487Y410836D01*
X641006Y408204D01*
X643154Y406056D01*
X645786Y404537D01*
X648721Y403750D01*
X651759D01*
X654694Y404537D01*
X657326Y406056D01*
X659474Y408204D01*
X660993Y410836D01*
X661780Y413771D01*
Y416809D01*
X660993Y419744D01*
X659474Y422376D01*
X657326Y424524D01*
X654694Y426044D01*
X651759Y426830D01*
D02*
G37*
G36*
X444354Y306990D02*
X442106D01*
X439934Y306408D01*
X437986Y305284D01*
X436396Y303694D01*
X435272Y301746D01*
X434690Y299574D01*
Y297326D01*
X435272Y295154D01*
X436396Y293206D01*
X437986Y291616D01*
X439934Y290492D01*
X442106Y289910D01*
X444354D01*
X446526Y290492D01*
X448474Y291616D01*
X450064Y293206D01*
X451188Y295154D01*
X451770Y297326D01*
Y299574D01*
X451188Y301746D01*
X450064Y303694D01*
X448474Y305284D01*
X446526Y306408D01*
X444354Y306990D01*
D02*
G37*
G36*
X661919Y288400D02*
X658881D01*
X655946Y287614D01*
X653314Y286094D01*
X651166Y283946D01*
X649647Y281314D01*
X648860Y278379D01*
Y275341D01*
X649647Y272406D01*
X651166Y269774D01*
X653314Y267626D01*
X655946Y266106D01*
X658881Y265320D01*
X661919D01*
X664854Y266106D01*
X667486Y267626D01*
X669634Y269774D01*
X671153Y272406D01*
X671940Y275341D01*
Y278379D01*
X671153Y281314D01*
X669634Y283946D01*
X667486Y286094D01*
X664854Y287614D01*
X661919Y288400D01*
D02*
G37*
G36*
X636519D02*
X633481D01*
X630546Y287614D01*
X627914Y286094D01*
X625766Y283946D01*
X624246Y281314D01*
X623460Y278379D01*
Y275341D01*
X624246Y272406D01*
X625766Y269774D01*
X627914Y267626D01*
X630546Y266106D01*
X633481Y265320D01*
X636519D01*
X639454Y266106D01*
X642086Y267626D01*
X644234Y269774D01*
X645753Y272406D01*
X646540Y275341D01*
Y278379D01*
X645753Y281314D01*
X644234Y283946D01*
X642086Y286094D01*
X639454Y287614D01*
X636519Y288400D01*
D02*
G37*
G36*
X586989Y269350D02*
X583951D01*
X581016Y268563D01*
X578384Y267044D01*
X576236Y264896D01*
X574716Y262264D01*
X573930Y259329D01*
Y256291D01*
X574716Y253356D01*
X576236Y250724D01*
X578384Y248576D01*
X581016Y247057D01*
X583951Y246270D01*
X586989D01*
X589924Y247057D01*
X592556Y248576D01*
X594704Y250724D01*
X596223Y253356D01*
X597010Y256291D01*
Y259329D01*
X596223Y262264D01*
X594704Y264896D01*
X592556Y267044D01*
X589924Y268563D01*
X586989Y269350D01*
D02*
G37*
G36*
X561589D02*
X558551D01*
X555616Y268563D01*
X552984Y267044D01*
X550836Y264896D01*
X549316Y262264D01*
X548530Y259329D01*
Y256291D01*
X549316Y253356D01*
X550836Y250724D01*
X552984Y248576D01*
X555616Y247057D01*
X558551Y246270D01*
X561589D01*
X564524Y247057D01*
X567156Y248576D01*
X569304Y250724D01*
X570824Y253356D01*
X571610Y256291D01*
Y259329D01*
X570824Y262264D01*
X569304Y264896D01*
X567156Y267044D01*
X564524Y268563D01*
X561589Y269350D01*
D02*
G37*
G36*
X661919Y249030D02*
X658881D01*
X655946Y248244D01*
X653314Y246724D01*
X651166Y244576D01*
X649647Y241944D01*
X648860Y239009D01*
Y235971D01*
X649647Y233036D01*
X651166Y230404D01*
X653314Y228256D01*
X655946Y226737D01*
X658881Y225950D01*
X661919D01*
X664854Y226737D01*
X667486Y228256D01*
X669634Y230404D01*
X671153Y233036D01*
X671940Y235971D01*
Y239009D01*
X671153Y241944D01*
X669634Y244576D01*
X667486Y246724D01*
X664854Y248244D01*
X661919Y249030D01*
D02*
G37*
G36*
X636519D02*
X633481D01*
X630546Y248244D01*
X627914Y246724D01*
X625766Y244576D01*
X624246Y241944D01*
X623460Y239009D01*
Y235971D01*
X624246Y233036D01*
X625766Y230404D01*
X627914Y228256D01*
X630546Y226737D01*
X633481Y225950D01*
X636519D01*
X639454Y226737D01*
X642086Y228256D01*
X644234Y230404D01*
X645753Y233036D01*
X646540Y235971D01*
Y239009D01*
X645753Y241944D01*
X644234Y244576D01*
X642086Y246724D01*
X639454Y248244D01*
X636519Y249030D01*
D02*
G37*
G36*
X661919Y209660D02*
X658881D01*
X655946Y208874D01*
X653314Y207354D01*
X651166Y205206D01*
X649647Y202574D01*
X648860Y199639D01*
Y196601D01*
X649647Y193666D01*
X651166Y191034D01*
X653314Y188886D01*
X655946Y187367D01*
X658881Y186580D01*
X661919D01*
X664854Y187367D01*
X667486Y188886D01*
X669634Y191034D01*
X671153Y193666D01*
X671940Y196601D01*
Y199639D01*
X671153Y202574D01*
X669634Y205206D01*
X667486Y207354D01*
X664854Y208874D01*
X661919Y209660D01*
D02*
G37*
G36*
X636519D02*
X633481D01*
X630546Y208874D01*
X627914Y207354D01*
X625766Y205206D01*
X624246Y202574D01*
X623460Y199639D01*
Y196601D01*
X624246Y193666D01*
X625766Y191034D01*
X627914Y188886D01*
X630546Y187367D01*
X633481Y186580D01*
X636519D01*
X639454Y187367D01*
X642086Y188886D01*
X644234Y191034D01*
X645753Y193666D01*
X646540Y196601D01*
Y199639D01*
X645753Y202574D01*
X644234Y205206D01*
X642086Y207354D01*
X639454Y208874D01*
X636519Y209660D01*
D02*
G37*
G36*
X433319Y204580D02*
X430281D01*
X427346Y203794D01*
X424714Y202274D01*
X422566Y200126D01*
X421046Y197494D01*
X420260Y194559D01*
Y191521D01*
X421046Y188586D01*
X422566Y185954D01*
X424714Y183806D01*
X427346Y182286D01*
X430281Y181500D01*
X433319D01*
X436254Y182286D01*
X438886Y183806D01*
X441034Y185954D01*
X442553Y188586D01*
X443340Y191521D01*
Y194559D01*
X442553Y197494D01*
X441034Y200126D01*
X438886Y202274D01*
X436254Y203794D01*
X433319Y204580D01*
D02*
G37*
G36*
X348229D02*
X345191D01*
X342256Y203794D01*
X339624Y202274D01*
X337476Y200126D01*
X335956Y197494D01*
X335170Y194559D01*
Y191521D01*
X335956Y188586D01*
X337476Y185954D01*
X339624Y183806D01*
X342256Y182286D01*
X345191Y181500D01*
X348229D01*
X351164Y182286D01*
X353796Y183806D01*
X355944Y185954D01*
X357463Y188586D01*
X358250Y191521D01*
Y194559D01*
X357463Y197494D01*
X355944Y200126D01*
X353796Y202274D01*
X351164Y203794D01*
X348229Y204580D01*
D02*
G37*
G36*
X391409Y203310D02*
X388371D01*
X385436Y202523D01*
X382804Y201004D01*
X380656Y198856D01*
X379137Y196224D01*
X378350Y193289D01*
Y190251D01*
X379137Y187316D01*
X380656Y184684D01*
X382804Y182536D01*
X385436Y181017D01*
X388371Y180230D01*
X391409D01*
X394344Y181017D01*
X396976Y182536D01*
X399124Y184684D01*
X400644Y187316D01*
X401430Y190251D01*
Y193289D01*
X400644Y196224D01*
X399124Y198856D01*
X396976Y201004D01*
X394344Y202523D01*
X391409Y203310D01*
D02*
G37*
G36*
X273020Y640959D02*
X166940D01*
X165364Y640646D01*
X164027Y639753D01*
X113927Y589653D01*
X113034Y588316D01*
X112721Y586740D01*
Y485576D01*
X78304Y451159D01*
X45063D01*
X44061Y452160D01*
X41841Y453080D01*
X39439D01*
X37219Y452160D01*
X35519Y450461D01*
X34600Y448241D01*
Y445839D01*
X35519Y443619D01*
X37219Y441920D01*
X39439Y441000D01*
X41841D01*
X44061Y441920D01*
X45063Y442921D01*
X80010D01*
X81586Y443234D01*
X82923Y444127D01*
X119753Y480957D01*
X120341Y481838D01*
X121611Y481452D01*
Y479226D01*
X69414Y427029D01*
X46333D01*
X45331Y428031D01*
X43111Y428950D01*
X40709D01*
X38489Y428031D01*
X36790Y426331D01*
X35870Y424111D01*
Y421709D01*
X36790Y419489D01*
X38489Y417789D01*
X40709Y416870D01*
X43111D01*
X45331Y417789D01*
X46333Y418791D01*
X71120D01*
X72696Y419104D01*
X74033Y419997D01*
X128643Y474607D01*
X129231Y475488D01*
X130501Y475102D01*
Y469066D01*
X63064Y401629D01*
X46333D01*
X45331Y402631D01*
X43111Y403550D01*
X40709D01*
X38489Y402631D01*
X36790Y400931D01*
X35870Y398711D01*
Y396309D01*
X36790Y394089D01*
X38489Y392389D01*
X40709Y391470D01*
X43111D01*
X45331Y392389D01*
X46333Y393391D01*
X64770D01*
X66346Y393704D01*
X67683Y394597D01*
X137533Y464447D01*
X138426Y465784D01*
X138739Y467360D01*
Y586733D01*
X144567Y592562D01*
X145741Y592076D01*
Y461446D01*
X138950Y454655D01*
X138303Y454223D01*
X61579Y377499D01*
X47603D01*
X46601Y378501D01*
X44381Y379420D01*
X41979D01*
X39759Y378501D01*
X38059Y376801D01*
X37140Y374581D01*
Y372179D01*
X38059Y369959D01*
X39759Y368260D01*
X41979Y367340D01*
X44381D01*
X46601Y368260D01*
X47603Y369261D01*
X63285D01*
X64862Y369574D01*
X66198Y370467D01*
X143695Y447965D01*
X144343Y448397D01*
X152773Y456827D01*
X153666Y458164D01*
X153979Y459740D01*
Y594138D01*
X155997Y596157D01*
X157171Y595671D01*
Y447476D01*
X59254Y349559D01*
X47603D01*
X46601Y350560D01*
X44381Y351480D01*
X41979D01*
X39759Y350560D01*
X38059Y348861D01*
X37140Y346641D01*
Y344239D01*
X38059Y342019D01*
X39759Y340320D01*
X41979Y339400D01*
X44381D01*
X46601Y340320D01*
X47603Y341321D01*
X60960D01*
X62536Y341634D01*
X63873Y342527D01*
X164203Y442857D01*
X164791Y443738D01*
X166061Y443352D01*
Y439389D01*
X52101Y325429D01*
X48873D01*
X47871Y326431D01*
X45651Y327350D01*
X43249D01*
X41029Y326431D01*
X39330Y324731D01*
X38410Y322511D01*
Y320109D01*
X39330Y317889D01*
X41029Y316189D01*
X43249Y315270D01*
X45651D01*
X47871Y316189D01*
X48873Y317191D01*
X53808D01*
X55384Y317504D01*
X56720Y318397D01*
X173093Y434770D01*
X173986Y436106D01*
X174299Y437682D01*
Y567625D01*
X175569Y567965D01*
X176286Y566724D01*
X178504Y564506D01*
X181221Y562937D01*
X181701Y562808D01*
Y440256D01*
X42125Y300680D01*
X40709D01*
X38489Y299760D01*
X36790Y298061D01*
X35870Y295841D01*
Y293439D01*
X36790Y291219D01*
X38489Y289520D01*
X40709Y288600D01*
X43111D01*
X45331Y289520D01*
X47031Y291219D01*
X47950Y293439D01*
Y294855D01*
X188733Y435637D01*
X189626Y436974D01*
X189939Y438550D01*
Y562808D01*
X190419Y562937D01*
X193136Y564506D01*
X195354Y566724D01*
X196923Y569441D01*
X197696Y572325D01*
X198092Y572373D01*
X198548D01*
X198944Y572325D01*
X199717Y569441D01*
X201286Y566724D01*
X203504Y564506D01*
X206221Y562937D01*
X206701Y562808D01*
Y441126D01*
X42125Y276550D01*
X40709D01*
X38489Y275630D01*
X36790Y273931D01*
X35870Y271711D01*
Y269309D01*
X36790Y267089D01*
X38489Y265389D01*
X40709Y264470D01*
X43111D01*
X45331Y265389D01*
X47031Y267089D01*
X47950Y269309D01*
Y270725D01*
X213733Y436507D01*
X214626Y437844D01*
X214939Y439420D01*
Y562808D01*
X215419Y562937D01*
X218136Y564506D01*
X220354Y566724D01*
X221923Y569441D01*
X222696Y572325D01*
X223092Y572373D01*
X223548D01*
X223944Y572325D01*
X224717Y569441D01*
X226286Y566724D01*
X228504Y564506D01*
X231221Y562937D01*
X231701Y562808D01*
Y439456D01*
X43395Y251150D01*
X41979D01*
X39759Y250231D01*
X38059Y248531D01*
X37140Y246311D01*
Y243909D01*
X38059Y241689D01*
X39759Y239989D01*
X41979Y239070D01*
X44381D01*
X46601Y239989D01*
X48300Y241689D01*
X49220Y243909D01*
Y245325D01*
X238733Y434837D01*
X239626Y436174D01*
X239939Y437750D01*
Y555536D01*
X241209Y555876D01*
X241486Y555396D01*
X243076Y553806D01*
X245024Y552682D01*
X247196Y552100D01*
X249444D01*
X251616Y552682D01*
X253564Y553806D01*
X255154Y555396D01*
X255431Y555876D01*
X256701Y555536D01*
Y439056D01*
X43395Y225750D01*
X41979D01*
X39759Y224830D01*
X38059Y223131D01*
X37140Y220911D01*
Y218509D01*
X38059Y216289D01*
X39759Y214590D01*
X41979Y213670D01*
X44381D01*
X46601Y214590D01*
X48300Y216289D01*
X49220Y218509D01*
Y219925D01*
X263733Y434437D01*
X264626Y435774D01*
X264939Y437350D01*
Y562808D01*
X265419Y562937D01*
X268136Y564506D01*
X270354Y566724D01*
X271923Y569441D01*
X272696Y572325D01*
X273092Y572373D01*
X273548D01*
X273944Y572325D01*
X274717Y569441D01*
X276286Y566724D01*
X278504Y564506D01*
X281221Y562937D01*
X281701Y562808D01*
Y437386D01*
X43395Y199080D01*
X41979D01*
X39759Y198160D01*
X38059Y196461D01*
X37140Y194241D01*
Y191839D01*
X38059Y189619D01*
X39759Y187920D01*
X41979Y187000D01*
X44381D01*
X46601Y187920D01*
X48300Y189619D01*
X49220Y191839D01*
Y193255D01*
X288733Y432767D01*
X289626Y434104D01*
X289939Y435680D01*
Y562808D01*
X290419Y562937D01*
X293136Y564506D01*
X295354Y566724D01*
X296923Y569441D01*
X297696Y572325D01*
X298092Y572373D01*
X298548D01*
X298944Y572325D01*
X299717Y569441D01*
X301286Y566724D01*
X303504Y564506D01*
X306221Y562937D01*
X306701Y562808D01*
Y438256D01*
X43395Y174950D01*
X41979D01*
X39759Y174030D01*
X38059Y172331D01*
X37140Y170111D01*
Y167709D01*
X38059Y165489D01*
X39759Y163790D01*
X41979Y162870D01*
X44381D01*
X46601Y163790D01*
X48300Y165489D01*
X49220Y167709D01*
Y169125D01*
X313733Y433637D01*
X314626Y434974D01*
X314939Y436550D01*
Y562808D01*
X315419Y562937D01*
X318136Y564506D01*
X320354Y566724D01*
X321923Y569441D01*
X322735Y572471D01*
Y575609D01*
X321923Y578639D01*
X320354Y581356D01*
X318136Y583574D01*
X315419Y585143D01*
X312535Y585916D01*
X312487Y586312D01*
Y586768D01*
X312535Y587164D01*
X315419Y587937D01*
X318136Y589506D01*
X320354Y591724D01*
X321923Y594441D01*
X322735Y597471D01*
Y600609D01*
X321923Y603639D01*
X320354Y606356D01*
X318136Y608574D01*
X315419Y610143D01*
X312389Y610955D01*
X309251D01*
X306221Y610143D01*
X305791Y609895D01*
X275933Y639753D01*
X274596Y640646D01*
X273020Y640959D01*
D02*
G37*
G36*
X480309Y180450D02*
X477271D01*
X474336Y179664D01*
X471704Y178144D01*
X469556Y175996D01*
X468036Y173364D01*
X467250Y170429D01*
Y167391D01*
X468036Y164456D01*
X469556Y161824D01*
X471704Y159676D01*
X474336Y158156D01*
X477271Y157370D01*
X480309D01*
X483244Y158156D01*
X485876Y159676D01*
X488024Y161824D01*
X489543Y164456D01*
X490330Y167391D01*
Y170429D01*
X489543Y173364D01*
X488024Y175996D01*
X485876Y178144D01*
X483244Y179664D01*
X480309Y180450D01*
D02*
G37*
G36*
X433319Y179180D02*
X430281D01*
X427346Y178393D01*
X424714Y176874D01*
X422566Y174726D01*
X421046Y172094D01*
X420260Y169159D01*
Y166121D01*
X421046Y163186D01*
X422566Y160554D01*
X424714Y158406D01*
X427346Y156887D01*
X430281Y156100D01*
X433319D01*
X436254Y156887D01*
X438886Y158406D01*
X441034Y160554D01*
X442553Y163186D01*
X443340Y166121D01*
Y169159D01*
X442553Y172094D01*
X441034Y174726D01*
X438886Y176874D01*
X436254Y178393D01*
X433319Y179180D01*
D02*
G37*
G36*
X348229D02*
X345191D01*
X342256Y178393D01*
X339624Y176874D01*
X337476Y174726D01*
X335956Y172094D01*
X335170Y169159D01*
Y166121D01*
X335956Y163186D01*
X337476Y160554D01*
X339624Y158406D01*
X342256Y156887D01*
X345191Y156100D01*
X348229D01*
X351164Y156887D01*
X353796Y158406D01*
X355944Y160554D01*
X357463Y163186D01*
X358250Y166121D01*
Y169159D01*
X357463Y172094D01*
X355944Y174726D01*
X353796Y176874D01*
X351164Y178393D01*
X348229Y179180D01*
D02*
G37*
G36*
X391409Y177910D02*
X388371D01*
X385436Y177124D01*
X382804Y175604D01*
X380656Y173456D01*
X379137Y170824D01*
X378350Y167889D01*
Y164851D01*
X379137Y161916D01*
X380656Y159284D01*
X382804Y157136D01*
X385436Y155617D01*
X388371Y154830D01*
X391409D01*
X394344Y155617D01*
X396976Y157136D01*
X399124Y159284D01*
X400644Y161916D01*
X401430Y164851D01*
Y167889D01*
X400644Y170824D01*
X399124Y173456D01*
X396976Y175604D01*
X394344Y177124D01*
X391409Y177910D01*
D02*
G37*
G36*
X661919Y170290D02*
X658881D01*
X655946Y169503D01*
X653314Y167984D01*
X651166Y165836D01*
X649647Y163204D01*
X648860Y160269D01*
Y157231D01*
X649647Y154296D01*
X651166Y151664D01*
X653314Y149516D01*
X655946Y147997D01*
X658881Y147210D01*
X661919D01*
X664854Y147997D01*
X667486Y149516D01*
X669634Y151664D01*
X671153Y154296D01*
X671940Y157231D01*
Y160269D01*
X671153Y163204D01*
X669634Y165836D01*
X667486Y167984D01*
X664854Y169503D01*
X661919Y170290D01*
D02*
G37*
G36*
X636519D02*
X633481D01*
X630546Y169503D01*
X627914Y167984D01*
X625766Y165836D01*
X624246Y163204D01*
X623460Y160269D01*
Y157231D01*
X624246Y154296D01*
X625766Y151664D01*
X627914Y149516D01*
X630546Y147997D01*
X633481Y147210D01*
X636519D01*
X639454Y147997D01*
X642086Y149516D01*
X644234Y151664D01*
X645753Y154296D01*
X646540Y157231D01*
Y160269D01*
X645753Y163204D01*
X644234Y165836D01*
X642086Y167984D01*
X639454Y169503D01*
X636519Y170290D01*
D02*
G37*
G36*
X480309Y205850D02*
X477271D01*
X474336Y205063D01*
X471704Y203544D01*
X469556Y201396D01*
X468036Y198764D01*
X467250Y195829D01*
Y192791D01*
X468036Y189856D01*
X469556Y187224D01*
X471704Y185076D01*
X474336Y183556D01*
X477271Y182770D01*
X480309D01*
X483244Y183556D01*
X483545Y183730D01*
X502292Y164983D01*
X503628Y164090D01*
X505205Y163776D01*
X512923D01*
X528434Y148265D01*
X528261Y147964D01*
X527474Y145029D01*
Y141991D01*
X528261Y139056D01*
X529780Y136424D01*
X531928Y134276D01*
X534560Y132757D01*
X537495Y131970D01*
X540533D01*
X543469Y132757D01*
X546100Y134276D01*
X548248Y136424D01*
X549768Y139056D01*
X550554Y141991D01*
Y145029D01*
X549768Y147964D01*
X548248Y150596D01*
X546100Y152744D01*
X543469Y154263D01*
X540533Y155050D01*
X537495D01*
X534560Y154263D01*
X534259Y154090D01*
X517542Y170808D01*
X516205Y171701D01*
X514629Y172014D01*
X506911D01*
X489370Y189555D01*
X489543Y189856D01*
X490330Y192791D01*
Y195829D01*
X489543Y198764D01*
X488024Y201396D01*
X485876Y203544D01*
X483244Y205063D01*
X480309Y205850D01*
D02*
G37*
G36*
X478089Y135405D02*
X474951D01*
X471921Y134593D01*
X469204Y133024D01*
X466986Y130806D01*
X465417Y128089D01*
X464644Y125205D01*
X464248Y125157D01*
X463792D01*
X463396Y125205D01*
X462623Y128089D01*
X461054Y130806D01*
X458836Y133024D01*
X456119Y134593D01*
X453089Y135405D01*
X449951D01*
X446921Y134593D01*
X444204Y133024D01*
X441986Y130806D01*
X440417Y128089D01*
X439644Y125205D01*
X439248Y125157D01*
X438792D01*
X438396Y125205D01*
X437623Y128089D01*
X436054Y130806D01*
X433836Y133024D01*
X431119Y134593D01*
X428089Y135405D01*
X424951D01*
X421921Y134593D01*
X419204Y133024D01*
X416986Y130806D01*
X415417Y128089D01*
X414644Y125205D01*
X414248Y125157D01*
X413792D01*
X413396Y125205D01*
X412623Y128089D01*
X411054Y130806D01*
X408836Y133024D01*
X406119Y134593D01*
X403089Y135405D01*
X399951D01*
X396921Y134593D01*
X394204Y133024D01*
X391986Y130806D01*
X390417Y128089D01*
X389644Y125205D01*
X389248Y125157D01*
X388792D01*
X388396Y125205D01*
X387623Y128089D01*
X386054Y130806D01*
X383836Y133024D01*
X381119Y134593D01*
X378089Y135405D01*
X374951D01*
X371921Y134593D01*
X369204Y133024D01*
X366986Y130806D01*
X365417Y128089D01*
X364644Y125205D01*
X364248Y125157D01*
X363792D01*
X363396Y125205D01*
X362623Y128089D01*
X361054Y130806D01*
X358836Y133024D01*
X356119Y134593D01*
X353089Y135405D01*
X349951D01*
X346921Y134593D01*
X344204Y133024D01*
X341986Y130806D01*
X340417Y128089D01*
X339605Y125059D01*
Y121921D01*
X340417Y118891D01*
X341986Y116174D01*
X344204Y113956D01*
X346921Y112387D01*
X349805Y111614D01*
X349853Y111218D01*
Y110762D01*
X349805Y110366D01*
X346921Y109593D01*
X344204Y108024D01*
X341986Y105806D01*
X340417Y103089D01*
X339605Y100059D01*
Y96921D01*
X340417Y93891D01*
X341986Y91174D01*
X344204Y88956D01*
X346921Y87387D01*
X349951Y86575D01*
X353089D01*
X356119Y87387D01*
X358836Y88956D01*
X361054Y91174D01*
X362623Y93891D01*
X363396Y96775D01*
X363792Y96823D01*
X364248D01*
X364644Y96775D01*
X365417Y93891D01*
X366986Y91174D01*
X369204Y88956D01*
X371921Y87387D01*
X374951Y86575D01*
X378089D01*
X381119Y87387D01*
X383836Y88956D01*
X386054Y91174D01*
X387623Y93891D01*
X388396Y96775D01*
X388792Y96823D01*
X389248D01*
X389644Y96775D01*
X390417Y93891D01*
X391986Y91174D01*
X394204Y88956D01*
X396921Y87387D01*
X399951Y86575D01*
X403089D01*
X404518Y86958D01*
X405480Y85901D01*
Y83966D01*
X406062Y81794D01*
X407186Y79846D01*
X408776Y78256D01*
X410724Y77132D01*
X412896Y76550D01*
X415144D01*
X417316Y77132D01*
X419264Y78256D01*
X420854Y79846D01*
X421978Y81794D01*
X422560Y83966D01*
Y85901D01*
X423522Y86958D01*
X424951Y86575D01*
X428089D01*
X431119Y87387D01*
X431549Y87635D01*
X437022Y82162D01*
X438359Y81269D01*
X439935Y80956D01*
X505979D01*
X507556Y81269D01*
X508892Y82162D01*
X534259Y107530D01*
X534560Y107357D01*
X537495Y106570D01*
X540533D01*
X543469Y107357D01*
X546100Y108876D01*
X548248Y111024D01*
X549768Y113656D01*
X550554Y116591D01*
Y119629D01*
X549768Y122564D01*
X548248Y125196D01*
X546100Y127344D01*
X543469Y128863D01*
X540533Y129650D01*
X537495D01*
X534560Y128863D01*
X531928Y127344D01*
X529780Y125196D01*
X528261Y122564D01*
X527474Y119629D01*
Y116591D01*
X528261Y113656D01*
X528434Y113355D01*
X504273Y89194D01*
X441641D01*
X437375Y93461D01*
X437623Y93891D01*
X438435Y96921D01*
Y100059D01*
X437623Y103089D01*
X436054Y105806D01*
X433836Y108024D01*
X431119Y109593D01*
X428235Y110366D01*
X428187Y110762D01*
Y111218D01*
X428235Y111614D01*
X431119Y112387D01*
X433836Y113956D01*
X436054Y116174D01*
X437623Y118891D01*
X438396Y121775D01*
X438792Y121823D01*
X439248D01*
X439644Y121775D01*
X440417Y118891D01*
X441986Y116174D01*
X444204Y113956D01*
X446921Y112387D01*
X449951Y111575D01*
X453089D01*
X456119Y112387D01*
X458836Y113956D01*
X461054Y116174D01*
X462623Y118891D01*
X463396Y121775D01*
X463792Y121823D01*
X464248D01*
X464644Y121775D01*
X465417Y118891D01*
X466986Y116174D01*
X469204Y113956D01*
X471921Y112387D01*
X474951Y111575D01*
X478089D01*
X481119Y112387D01*
X483836Y113956D01*
X486054Y116174D01*
X487623Y118891D01*
X488435Y121921D01*
Y125059D01*
X487623Y128089D01*
X486054Y130806D01*
X483836Y133024D01*
X481119Y134593D01*
X478089Y135405D01*
D02*
G37*
G36*
X230394Y119330D02*
X228146D01*
X225974Y118748D01*
X224026Y117624D01*
X222436Y116034D01*
X221312Y114086D01*
X220730Y111914D01*
Y109979D01*
X219768Y108922D01*
X218339Y109305D01*
X215201D01*
X212171Y108493D01*
X209454Y106924D01*
X207236Y104706D01*
X205667Y101989D01*
X204894Y99105D01*
X204498Y99057D01*
X204042D01*
X203646Y99105D01*
X202873Y101989D01*
X201304Y104706D01*
X199086Y106924D01*
X196369Y108493D01*
X193339Y109305D01*
X190201D01*
X187171Y108493D01*
X184454Y106924D01*
X182236Y104706D01*
X180667Y101989D01*
X179894Y99105D01*
X179498Y99057D01*
X179042D01*
X178646Y99105D01*
X177873Y101989D01*
X176304Y104706D01*
X174086Y106924D01*
X171369Y108493D01*
X168339Y109305D01*
X165201D01*
X162171Y108493D01*
X159454Y106924D01*
X157236Y104706D01*
X155667Y101989D01*
X154855Y98959D01*
Y95821D01*
X155667Y92791D01*
X157236Y90074D01*
X159454Y87856D01*
X162171Y86287D01*
X165055Y85514D01*
X165103Y85118D01*
Y84662D01*
X165055Y84266D01*
X162171Y83493D01*
X159454Y81924D01*
X157236Y79706D01*
X155667Y76989D01*
X154855Y73959D01*
Y70821D01*
X155667Y67791D01*
X157236Y65074D01*
X159454Y62856D01*
X162171Y61287D01*
X165201Y60475D01*
X168339D01*
X171369Y61287D01*
X174086Y62856D01*
X176304Y65074D01*
X177873Y67791D01*
X178646Y70675D01*
X179042Y70723D01*
X179498D01*
X179894Y70675D01*
X180667Y67791D01*
X182236Y65074D01*
X184454Y62856D01*
X187171Y61287D01*
X190201Y60475D01*
X193339D01*
X196369Y61287D01*
X199086Y62856D01*
X201304Y65074D01*
X202873Y67791D01*
X203646Y70675D01*
X204042Y70723D01*
X204498D01*
X204894Y70675D01*
X205667Y67791D01*
X207236Y65074D01*
X209454Y62856D01*
X212171Y61287D01*
X215201Y60475D01*
X218339D01*
X221369Y61287D01*
X224086Y62856D01*
X226304Y65074D01*
X227873Y67791D01*
X228646Y70675D01*
X229042Y70723D01*
X229498D01*
X229894Y70675D01*
X230667Y67791D01*
X232236Y65074D01*
X234454Y62856D01*
X237171Y61287D01*
X240201Y60475D01*
X243339D01*
X246369Y61287D01*
X249086Y62856D01*
X251304Y65074D01*
X252873Y67791D01*
X253646Y70675D01*
X254042Y70723D01*
X254498D01*
X254894Y70675D01*
X255667Y67791D01*
X257236Y65074D01*
X259454Y62856D01*
X262171Y61287D01*
X265201Y60475D01*
X268339D01*
X271369Y61287D01*
X274086Y62856D01*
X276304Y65074D01*
X277873Y67791D01*
X278646Y70675D01*
X279042Y70723D01*
X279498D01*
X279894Y70675D01*
X280667Y67791D01*
X282236Y65074D01*
X284454Y62856D01*
X287171Y61287D01*
X290201Y60475D01*
X293339D01*
X296369Y61287D01*
X299086Y62856D01*
X301304Y65074D01*
X302873Y67791D01*
X303685Y70821D01*
Y73959D01*
X302873Y76989D01*
X301304Y79706D01*
X299086Y81924D01*
X296369Y83493D01*
X293485Y84266D01*
X293437Y84662D01*
Y85118D01*
X293485Y85514D01*
X296369Y86287D01*
X299086Y87856D01*
X301304Y90074D01*
X302873Y92791D01*
X303685Y95821D01*
Y98959D01*
X302873Y101989D01*
X301304Y104706D01*
X299086Y106924D01*
X296369Y108493D01*
X293339Y109305D01*
X290201D01*
X287171Y108493D01*
X284454Y106924D01*
X282236Y104706D01*
X280667Y101989D01*
X279894Y99105D01*
X279498Y99057D01*
X279042D01*
X278646Y99105D01*
X277873Y101989D01*
X276304Y104706D01*
X274086Y106924D01*
X271369Y108493D01*
X268339Y109305D01*
X265201D01*
X262171Y108493D01*
X259454Y106924D01*
X257236Y104706D01*
X255667Y101989D01*
X254894Y99105D01*
X254498Y99057D01*
X254042D01*
X253646Y99105D01*
X252873Y101989D01*
X251304Y104706D01*
X249086Y106924D01*
X246369Y108493D01*
X243339Y109305D01*
X240201D01*
X238772Y108922D01*
X237810Y109979D01*
Y111914D01*
X237228Y114086D01*
X236104Y116034D01*
X234514Y117624D01*
X232566Y118748D01*
X230394Y119330D01*
D02*
G37*
G36*
X661919Y129650D02*
X658881D01*
X655946Y128863D01*
X653314Y127344D01*
X651166Y125196D01*
X649647Y122564D01*
X648860Y119629D01*
Y116591D01*
X649647Y113656D01*
X651166Y111024D01*
X653314Y108876D01*
X655946Y107357D01*
X658881Y106570D01*
X661919D01*
X664854Y107357D01*
X667486Y108876D01*
X669634Y111024D01*
X671153Y113656D01*
X671940Y116591D01*
Y119629D01*
X671153Y122564D01*
X669634Y125196D01*
X667486Y127344D01*
X664854Y128863D01*
X661919Y129650D01*
D02*
G37*
G36*
X636519D02*
X633481D01*
X630546Y128863D01*
X627914Y127344D01*
X625766Y125196D01*
X624246Y122564D01*
X623460Y119629D01*
Y116591D01*
X624246Y113656D01*
X625766Y111024D01*
X627914Y108876D01*
X630546Y107357D01*
X633481Y106570D01*
X636519D01*
X639454Y107357D01*
X642086Y108876D01*
X644234Y111024D01*
X645753Y113656D01*
X646540Y116591D01*
Y119629D01*
X645753Y122564D01*
X644234Y125196D01*
X642086Y127344D01*
X639454Y128863D01*
X636519Y129650D01*
D02*
G37*
G36*
X661919Y87740D02*
X658881D01*
X655946Y86953D01*
X653314Y85434D01*
X651166Y83286D01*
X649647Y80654D01*
X648860Y77719D01*
Y74681D01*
X649647Y71746D01*
X651166Y69114D01*
X653314Y66966D01*
X655946Y65447D01*
X658881Y64660D01*
X661919D01*
X664854Y65447D01*
X667486Y66966D01*
X669634Y69114D01*
X671153Y71746D01*
X671940Y74681D01*
Y77719D01*
X671153Y80654D01*
X669634Y83286D01*
X667486Y85434D01*
X664854Y86953D01*
X661919Y87740D01*
D02*
G37*
G36*
X636519D02*
X633481D01*
X630546Y86953D01*
X627914Y85434D01*
X625766Y83286D01*
X624246Y80654D01*
X623460Y77719D01*
Y74681D01*
X624246Y71746D01*
X625766Y69114D01*
X627914Y66966D01*
X630546Y65447D01*
X633481Y64660D01*
X636519D01*
X639454Y65447D01*
X642086Y66966D01*
X644234Y69114D01*
X645753Y71746D01*
X646540Y74681D01*
Y77719D01*
X645753Y80654D01*
X644234Y83286D01*
X642086Y85434D01*
X639454Y86953D01*
X636519Y87740D01*
D02*
G37*
%LPD*%
G36*
X760284Y478745D02*
X761057Y475861D01*
X762626Y473144D01*
X764844Y470926D01*
X767561Y469357D01*
X770445Y468584D01*
X770493Y468188D01*
Y467732D01*
X770445Y467336D01*
X767561Y466563D01*
X764844Y464994D01*
X762626Y462776D01*
X761057Y460059D01*
X760284Y457175D01*
X759888Y457127D01*
X759432D01*
X759036Y457175D01*
X758263Y460059D01*
X756694Y462776D01*
X754476Y464994D01*
X751759Y466563D01*
X748875Y467336D01*
X748827Y467732D01*
Y468188D01*
X748875Y468584D01*
X751759Y469357D01*
X754476Y470926D01*
X756694Y473144D01*
X758263Y475861D01*
X759036Y478745D01*
X759432Y478793D01*
X759888D01*
X760284Y478745D01*
D02*
G37*
G36*
Y453745D02*
X761057Y450861D01*
X762626Y448144D01*
X764844Y445926D01*
X767561Y444357D01*
X770445Y443584D01*
X770493Y443188D01*
Y442732D01*
X770445Y442336D01*
X767561Y441563D01*
X764844Y439994D01*
X762626Y437776D01*
X761057Y435059D01*
X760284Y432175D01*
X759888Y432127D01*
X759432D01*
X759036Y432175D01*
X758263Y435059D01*
X756694Y437776D01*
X754476Y439994D01*
X751759Y441563D01*
X748875Y442336D01*
X748827Y442732D01*
Y443188D01*
X748875Y443584D01*
X751759Y444357D01*
X754476Y445926D01*
X756694Y448144D01*
X758263Y450861D01*
X759036Y453745D01*
X759432Y453793D01*
X759888D01*
X760284Y453745D01*
D02*
G37*
G36*
X552127Y318461D02*
X551756Y318213D01*
X550083Y316539D01*
X449793D01*
X449267Y317809D01*
X450064Y318606D01*
X450713Y319731D01*
X551742D01*
X552127Y318461D01*
D02*
G37*
G36*
X781474Y282835D02*
X782247Y279951D01*
X783816Y277234D01*
X786034Y275016D01*
X788751Y273447D01*
X791635Y272674D01*
X791683Y272278D01*
Y271822D01*
X791635Y271426D01*
X788751Y270653D01*
X786034Y269084D01*
X783816Y266866D01*
X782247Y264149D01*
X781474Y261265D01*
X781078Y261217D01*
X780622D01*
X780226Y261265D01*
X779453Y264149D01*
X777884Y266866D01*
X775666Y269084D01*
X772949Y270653D01*
X770065Y271426D01*
X770017Y271822D01*
Y272278D01*
X770065Y272674D01*
X772949Y273447D01*
X775666Y275016D01*
X777884Y277234D01*
X779453Y279951D01*
X780226Y282835D01*
X780622Y282883D01*
X781078D01*
X781474Y282835D01*
D02*
G37*
G36*
Y257835D02*
X782247Y254951D01*
X783816Y252234D01*
X786034Y250016D01*
X788751Y248447D01*
X791635Y247674D01*
X791683Y247278D01*
Y246822D01*
X791635Y246426D01*
X788751Y245653D01*
X786034Y244084D01*
X783816Y241866D01*
X782247Y239149D01*
X781474Y236265D01*
X781078Y236217D01*
X780622D01*
X780226Y236265D01*
X779453Y239149D01*
X777884Y241866D01*
X775666Y244084D01*
X772949Y245653D01*
X770065Y246426D01*
X770017Y246822D01*
Y247278D01*
X770065Y247674D01*
X772949Y248447D01*
X775666Y250016D01*
X777884Y252234D01*
X779453Y254951D01*
X780226Y257835D01*
X780622Y257883D01*
X781078D01*
X781474Y257835D01*
D02*
G37*
G36*
X274965Y604069D02*
X274717Y603639D01*
X273944Y600755D01*
X273548Y600707D01*
X273092D01*
X272696Y600755D01*
X271923Y603639D01*
X270354Y606356D01*
X268136Y608574D01*
X265419Y610143D01*
X262389Y610955D01*
X259251D01*
X256221Y610143D01*
X255791Y609895D01*
X239678Y626007D01*
X240164Y627181D01*
X251854D01*
X274965Y604069D01*
D02*
G37*
G36*
X249965D02*
X249717Y603639D01*
X248944Y600755D01*
X248548Y600707D01*
X248092D01*
X247696Y600755D01*
X246923Y603639D01*
X245354Y606356D01*
X243136Y608574D01*
X240419Y610143D01*
X237389Y610955D01*
X234251D01*
X231221Y610143D01*
X230791Y609895D01*
X220218Y620467D01*
X220704Y621641D01*
X232394D01*
X249965Y604069D01*
D02*
G37*
G36*
X299965Y604069D02*
X299717Y603639D01*
X298944Y600755D01*
X298548Y600707D01*
X298092D01*
X297696Y600755D01*
X296923Y603639D01*
X295354Y606356D01*
X293136Y608574D01*
X290419Y610143D01*
X287389Y610955D01*
X284251D01*
X281221Y610143D01*
X280791Y609895D01*
X259138Y631548D01*
X259624Y632721D01*
X271314D01*
X299965Y604069D01*
D02*
G37*
G36*
X273944Y597325D02*
X274717Y594441D01*
X276286Y591724D01*
X278504Y589506D01*
X281221Y587937D01*
X284105Y587164D01*
X284153Y586768D01*
Y586312D01*
X284105Y585916D01*
X281221Y585143D01*
X278504Y583574D01*
X276286Y581356D01*
X274717Y578639D01*
X273944Y575755D01*
X273548Y575707D01*
X273092D01*
X272696Y575755D01*
X271923Y578639D01*
X270354Y581356D01*
X268136Y583574D01*
X265419Y585143D01*
X262535Y585916D01*
X262487Y586312D01*
Y586768D01*
X262535Y587164D01*
X265419Y587937D01*
X268136Y589506D01*
X270354Y591724D01*
X271923Y594441D01*
X272696Y597325D01*
X273092Y597373D01*
X273548D01*
X273944Y597325D01*
D02*
G37*
G36*
X298944D02*
X299717Y594441D01*
X301286Y591724D01*
X303504Y589506D01*
X306221Y587937D01*
X309105Y587164D01*
X309153Y586768D01*
Y586312D01*
X309105Y585916D01*
X306221Y585143D01*
X303504Y583574D01*
X301286Y581356D01*
X299717Y578639D01*
X298944Y575755D01*
X298548Y575707D01*
X298092D01*
X297696Y575755D01*
X296923Y578639D01*
X295354Y581356D01*
X293136Y583574D01*
X290419Y585143D01*
X287535Y585916D01*
X287487Y586312D01*
Y586768D01*
X287535Y587164D01*
X290419Y587937D01*
X293136Y589506D01*
X295354Y591724D01*
X296923Y594441D01*
X297696Y597325D01*
X298092Y597373D01*
X298548D01*
X298944Y597325D01*
D02*
G37*
G36*
X198944D02*
X199717Y594441D01*
X201286Y591724D01*
X203504Y589506D01*
X206221Y587937D01*
X209105Y587164D01*
X209153Y586768D01*
Y586312D01*
X209105Y585916D01*
X206221Y585143D01*
X203504Y583574D01*
X201286Y581356D01*
X199717Y578639D01*
X198944Y575755D01*
X198548Y575707D01*
X198092D01*
X197696Y575755D01*
X196923Y578639D01*
X195354Y581356D01*
X193136Y583574D01*
X190419Y585143D01*
X187535Y585916D01*
X187487Y586312D01*
Y586768D01*
X187535Y587164D01*
X190419Y587937D01*
X193136Y589506D01*
X195354Y591724D01*
X196923Y594441D01*
X197696Y597325D01*
X198092Y597373D01*
X198548D01*
X198944Y597325D01*
D02*
G37*
G36*
X248944D02*
X249717Y594441D01*
X251286Y591724D01*
X253504Y589506D01*
X256221Y587937D01*
X259105Y587164D01*
X259153Y586768D01*
Y586312D01*
X259105Y585916D01*
X256221Y585143D01*
X253504Y583574D01*
X251286Y581356D01*
X249717Y578639D01*
X248944Y575755D01*
X248548Y575707D01*
X248092D01*
X247696Y575755D01*
X246923Y578639D01*
X245354Y581356D01*
X243136Y583574D01*
X240419Y585143D01*
X237535Y585916D01*
X237487Y586312D01*
Y586768D01*
X237535Y587164D01*
X240419Y587937D01*
X243136Y589506D01*
X245354Y591724D01*
X246923Y594441D01*
X247696Y597325D01*
X248092Y597373D01*
X248548D01*
X248944Y597325D01*
D02*
G37*
G36*
X223944D02*
X224717Y594441D01*
X226286Y591724D01*
X228504Y589506D01*
X231221Y587937D01*
X234105Y587164D01*
X234153Y586768D01*
Y586312D01*
X234105Y585916D01*
X231221Y585143D01*
X228504Y583574D01*
X226286Y581356D01*
X224717Y578639D01*
X223944Y575755D01*
X223548Y575707D01*
X223092D01*
X222696Y575755D01*
X221923Y578639D01*
X220354Y581356D01*
X218136Y583574D01*
X215419Y585143D01*
X212535Y585916D01*
X212487Y586312D01*
Y586768D01*
X212535Y587164D01*
X215419Y587937D01*
X218136Y589506D01*
X220354Y591724D01*
X221923Y594441D01*
X222696Y597325D01*
X223092Y597373D01*
X223548D01*
X223944Y597325D01*
D02*
G37*
G36*
X414644Y121775D02*
X415417Y118891D01*
X416986Y116174D01*
X419204Y113956D01*
X421921Y112387D01*
X424805Y111614D01*
X424853Y111218D01*
Y110762D01*
X424805Y110366D01*
X421921Y109593D01*
X419204Y108024D01*
X416986Y105806D01*
X415417Y103089D01*
X414644Y100205D01*
X414248Y100157D01*
X413792D01*
X413396Y100205D01*
X412623Y103089D01*
X411054Y105806D01*
X408836Y108024D01*
X406119Y109593D01*
X403235Y110366D01*
X403187Y110762D01*
Y111218D01*
X403235Y111614D01*
X406119Y112387D01*
X408836Y113956D01*
X411054Y116174D01*
X412623Y118891D01*
X413396Y121775D01*
X413792Y121823D01*
X414248D01*
X414644Y121775D01*
D02*
G37*
G36*
X389644D02*
X390417Y118891D01*
X391986Y116174D01*
X394204Y113956D01*
X396921Y112387D01*
X399805Y111614D01*
X399853Y111218D01*
Y110762D01*
X399805Y110366D01*
X396921Y109593D01*
X394204Y108024D01*
X391986Y105806D01*
X390417Y103089D01*
X389644Y100205D01*
X389248Y100157D01*
X388792D01*
X388396Y100205D01*
X387623Y103089D01*
X386054Y105806D01*
X383836Y108024D01*
X381119Y109593D01*
X378235Y110366D01*
X378187Y110762D01*
Y111218D01*
X378235Y111614D01*
X381119Y112387D01*
X383836Y113956D01*
X386054Y116174D01*
X387623Y118891D01*
X388396Y121775D01*
X388792Y121823D01*
X389248D01*
X389644Y121775D01*
D02*
G37*
G36*
X364644D02*
X365417Y118891D01*
X366986Y116174D01*
X369204Y113956D01*
X371921Y112387D01*
X374805Y111614D01*
X374853Y111218D01*
Y110762D01*
X374805Y110366D01*
X371921Y109593D01*
X369204Y108024D01*
X366986Y105806D01*
X365417Y103089D01*
X364644Y100205D01*
X364248Y100157D01*
X363792D01*
X363396Y100205D01*
X362623Y103089D01*
X361054Y105806D01*
X358836Y108024D01*
X356119Y109593D01*
X353235Y110366D01*
X353187Y110762D01*
Y111218D01*
X353235Y111614D01*
X356119Y112387D01*
X358836Y113956D01*
X361054Y116174D01*
X362623Y118891D01*
X363396Y121775D01*
X363792Y121823D01*
X364248D01*
X364644Y121775D01*
D02*
G37*
G36*
X279894Y95675D02*
X280667Y92791D01*
X282236Y90074D01*
X284454Y87856D01*
X287171Y86287D01*
X290055Y85514D01*
X290103Y85118D01*
Y84662D01*
X290055Y84266D01*
X287171Y83493D01*
X284454Y81924D01*
X282236Y79706D01*
X280667Y76989D01*
X279894Y74105D01*
X279498Y74057D01*
X279042D01*
X278646Y74105D01*
X277873Y76989D01*
X276304Y79706D01*
X274086Y81924D01*
X271369Y83493D01*
X268485Y84266D01*
X268437Y84662D01*
Y85118D01*
X268485Y85514D01*
X271369Y86287D01*
X274086Y87856D01*
X276304Y90074D01*
X277873Y92791D01*
X278646Y95675D01*
X279042Y95723D01*
X279498D01*
X279894Y95675D01*
D02*
G37*
G36*
X254894D02*
X255667Y92791D01*
X257236Y90074D01*
X259454Y87856D01*
X262171Y86287D01*
X265055Y85514D01*
X265103Y85118D01*
Y84662D01*
X265055Y84266D01*
X262171Y83493D01*
X259454Y81924D01*
X257236Y79706D01*
X255667Y76989D01*
X254894Y74105D01*
X254498Y74057D01*
X254042D01*
X253646Y74105D01*
X252873Y76989D01*
X251304Y79706D01*
X249086Y81924D01*
X246369Y83493D01*
X243485Y84266D01*
X243437Y84662D01*
Y85118D01*
X243485Y85514D01*
X246369Y86287D01*
X249086Y87856D01*
X251304Y90074D01*
X252873Y92791D01*
X253646Y95675D01*
X254042Y95723D01*
X254498D01*
X254894Y95675D01*
D02*
G37*
G36*
X229894D02*
X230667Y92791D01*
X232236Y90074D01*
X234454Y87856D01*
X237171Y86287D01*
X240055Y85514D01*
X240103Y85118D01*
Y84662D01*
X240055Y84266D01*
X237171Y83493D01*
X234454Y81924D01*
X232236Y79706D01*
X230667Y76989D01*
X229894Y74105D01*
X229498Y74057D01*
X229042D01*
X228646Y74105D01*
X227873Y76989D01*
X226304Y79706D01*
X224086Y81924D01*
X221369Y83493D01*
X218485Y84266D01*
X218437Y84662D01*
Y85118D01*
X218485Y85514D01*
X221369Y86287D01*
X224086Y87856D01*
X226304Y90074D01*
X227873Y92791D01*
X228646Y95675D01*
X229042Y95723D01*
X229498D01*
X229894Y95675D01*
D02*
G37*
G36*
X204894D02*
X205667Y92791D01*
X207236Y90074D01*
X209454Y87856D01*
X212171Y86287D01*
X215055Y85514D01*
X215103Y85118D01*
Y84662D01*
X215055Y84266D01*
X212171Y83493D01*
X209454Y81924D01*
X207236Y79706D01*
X205667Y76989D01*
X204894Y74105D01*
X204498Y74057D01*
X204042D01*
X203646Y74105D01*
X202873Y76989D01*
X201304Y79706D01*
X199086Y81924D01*
X196369Y83493D01*
X193485Y84266D01*
X193437Y84662D01*
Y85118D01*
X193485Y85514D01*
X196369Y86287D01*
X199086Y87856D01*
X201304Y90074D01*
X202873Y92791D01*
X203646Y95675D01*
X204042Y95723D01*
X204498D01*
X204894Y95675D01*
D02*
G37*
G36*
X179894D02*
X180667Y92791D01*
X182236Y90074D01*
X184454Y87856D01*
X187171Y86287D01*
X190055Y85514D01*
X190103Y85118D01*
Y84662D01*
X190055Y84266D01*
X187171Y83493D01*
X184454Y81924D01*
X182236Y79706D01*
X180667Y76989D01*
X179894Y74105D01*
X179498Y74057D01*
X179042D01*
X178646Y74105D01*
X177873Y76989D01*
X176304Y79706D01*
X174086Y81924D01*
X171369Y83493D01*
X168485Y84266D01*
X168437Y84662D01*
Y85118D01*
X168485Y85514D01*
X171369Y86287D01*
X174086Y87856D01*
X176304Y90074D01*
X177873Y92791D01*
X178646Y95675D01*
X179042Y95723D01*
X179498D01*
X179894Y95675D01*
D02*
G37*
D31*
X44450Y321310D02*
X53808D01*
X170180Y437682D01*
X161290Y445770D02*
Y599440D01*
X43180Y345440D02*
X60960D01*
X161290Y445770D01*
X170180Y583400D02*
X185820Y599040D01*
X170180Y437682D02*
Y583400D01*
X134620Y467360D02*
Y588439D01*
X149860Y459740D02*
Y595845D01*
X174235Y620220D02*
X214640D01*
X161290Y599440D02*
X176530Y614680D01*
X171940Y625760D02*
X234100D01*
X125730Y587384D02*
X169646Y631300D01*
X176530Y614680D02*
X205740D01*
X125730Y477520D02*
Y587384D01*
X134620Y588439D02*
X171940Y625760D01*
X149860Y595845D02*
X174235Y620220D01*
X169646Y631300D02*
X253560D01*
X234100Y625760D02*
X260820Y599040D01*
X116840Y586740D02*
X166940Y636840D01*
X253560Y631300D02*
X285820Y599040D01*
X273020Y636840D02*
X310820Y599040D01*
X209289Y600571D02*
Y611131D01*
X166940Y636840D02*
X273020D01*
X214640Y620220D02*
X235820Y599040D01*
X209289Y600571D02*
X210820Y599040D01*
X205740Y614680D02*
X209289Y611131D01*
X116840Y483870D02*
Y586740D01*
X80010Y447040D02*
X116840Y483870D01*
X40640Y447040D02*
X80010D01*
X71120Y422910D02*
X125730Y477520D01*
X41910Y422910D02*
X71120D01*
X41910Y397510D02*
X64770D01*
X134620Y467360D01*
X63285Y373380D02*
X141215Y451310D01*
X141430D01*
X43180Y373380D02*
X63285D01*
X141430Y451310D02*
X149860Y459740D01*
X41910Y294640D02*
X185820Y438550D01*
Y574040D01*
X210820Y439420D02*
Y574040D01*
X41910Y270510D02*
X210820Y439420D01*
X43180Y245110D02*
X235820Y437750D01*
Y574040D01*
X260820Y437350D02*
Y574040D01*
X43180Y219710D02*
X260820Y437350D01*
X43180Y193040D02*
X285820Y435680D01*
Y574040D01*
X43180Y168910D02*
X310820Y436550D01*
Y574040D01*
X382270Y547370D02*
X443230Y608330D01*
X382270Y501650D02*
Y547370D01*
X372230Y366910D02*
Y491610D01*
Y366910D02*
X426720Y312420D01*
X372230Y491610D02*
X382270Y501650D01*
X426720Y312420D02*
X551789D01*
X554669Y315300D01*
X762600D01*
X793350Y284550D01*
X560888Y606608D02*
X562610Y608330D01*
X461010Y502920D02*
X560888Y602798D01*
Y606608D01*
X443230Y323850D02*
Y485140D01*
X461010Y502920D01*
X665550Y323850D02*
X772160Y430460D01*
X443230Y323850D02*
X665550D01*
X505205Y167895D02*
X514629D01*
X478790Y194310D02*
X505205Y167895D01*
X514629D02*
X539014Y143510D01*
X505979Y85075D02*
X539014Y118110D01*
X439935Y85075D02*
X505979D01*
X426520Y98490D02*
X439935Y85075D01*
D32*
X431800Y193040D02*
D03*
Y167640D02*
D03*
X389890Y191770D02*
D03*
Y166370D02*
D03*
X346710Y193040D02*
D03*
Y167640D02*
D03*
X585470Y302260D02*
D03*
X560070D02*
D03*
X585470Y257810D02*
D03*
X560070D02*
D03*
X660400Y76200D02*
D03*
X635000D02*
D03*
X660400Y118110D02*
D03*
X635000D02*
D03*
X660400Y158750D02*
D03*
X635000D02*
D03*
X660400Y198120D02*
D03*
X635000D02*
D03*
X660400Y237490D02*
D03*
X635000D02*
D03*
X660400Y276860D02*
D03*
X635000D02*
D03*
X651510Y596900D02*
D03*
X676910D02*
D03*
X650240Y558800D02*
D03*
X675640D02*
D03*
X650240Y523240D02*
D03*
X675640D02*
D03*
X650240Y486410D02*
D03*
X675640D02*
D03*
X650240Y450850D02*
D03*
X675640D02*
D03*
X650240Y415290D02*
D03*
X675640D02*
D03*
X560070Y530860D02*
D03*
X585470D02*
D03*
X560070Y463550D02*
D03*
X585470D02*
D03*
X478790Y194310D02*
D03*
Y168910D02*
D03*
X539014Y143510D02*
D03*
Y118110D02*
D03*
D33*
X382270Y450850D02*
D03*
Y476250D02*
D03*
X443230Y323850D02*
D03*
Y298450D02*
D03*
X461010Y452120D02*
D03*
Y477520D02*
D03*
X443230Y608330D02*
D03*
X417830D02*
D03*
X562610D02*
D03*
X537210D02*
D03*
D34*
X382270Y501650D02*
D03*
X443230Y273050D02*
D03*
X461010Y502920D02*
D03*
D35*
X351520Y98490D02*
D03*
X376520D02*
D03*
X401520D02*
D03*
X426520D02*
D03*
X451520D02*
D03*
X476520D02*
D03*
X351520Y123490D02*
D03*
X376520D02*
D03*
X401520D02*
D03*
X426520D02*
D03*
X451520D02*
D03*
X476520D02*
D03*
X768350Y284550D02*
D03*
Y259550D02*
D03*
Y234550D02*
D03*
Y209550D02*
D03*
Y184550D02*
D03*
Y159550D02*
D03*
X793350Y284550D02*
D03*
Y259550D02*
D03*
Y234550D02*
D03*
Y209550D02*
D03*
Y184550D02*
D03*
Y159550D02*
D03*
X772160Y430460D02*
D03*
Y455460D02*
D03*
Y480460D02*
D03*
Y505460D02*
D03*
Y530460D02*
D03*
Y555460D02*
D03*
X747160Y430460D02*
D03*
Y455460D02*
D03*
Y480460D02*
D03*
Y505460D02*
D03*
Y530460D02*
D03*
Y555460D02*
D03*
X185820Y574040D02*
D03*
X210820D02*
D03*
X235820D02*
D03*
X260820D02*
D03*
X285820D02*
D03*
X310820D02*
D03*
X185820Y599040D02*
D03*
X210820D02*
D03*
X235820D02*
D03*
X260820D02*
D03*
X285820D02*
D03*
X310820D02*
D03*
X291770Y97390D02*
D03*
X266770D02*
D03*
X241770D02*
D03*
X216770D02*
D03*
X191770D02*
D03*
X166770D02*
D03*
X291770Y72390D02*
D03*
X266770D02*
D03*
X241770D02*
D03*
X216770D02*
D03*
X191770D02*
D03*
X166770D02*
D03*
D36*
X414020Y85090D02*
D03*
X754950Y222050D02*
D03*
X785560Y492960D02*
D03*
X248320Y560640D02*
D03*
X229270Y110790D02*
D03*
D37*
X392430Y608330D02*
D03*
X511810D02*
D03*
D38*
X810000Y600000D02*
D03*
Y480000D02*
D03*
Y360000D02*
D03*
X750000Y600000D02*
D03*
X720000Y540000D02*
D03*
Y420000D02*
D03*
Y300000D02*
D03*
X750000Y120000D02*
D03*
X720000Y60000D02*
D03*
X660000Y540000D02*
D03*
X690000Y360000D02*
D03*
X660000Y300000D02*
D03*
Y180000D02*
D03*
X690000Y120000D02*
D03*
X630000Y600000D02*
D03*
X600000Y420000D02*
D03*
Y180000D02*
D03*
Y60000D02*
D03*
X540000Y540000D02*
D03*
X570000Y480000D02*
D03*
X540000Y420000D02*
D03*
X570000Y360000D02*
D03*
Y240000D02*
D03*
X540000Y180000D02*
D03*
X570000Y120000D02*
D03*
X540000Y60000D02*
D03*
X480000Y540000D02*
D03*
X510000Y480000D02*
D03*
X480000Y420000D02*
D03*
Y300000D02*
D03*
X510000Y240000D02*
D03*
Y120000D02*
D03*
X480000Y60000D02*
D03*
X420000Y540000D02*
D03*
Y300000D02*
D03*
X450000Y240000D02*
D03*
X420000Y180000D02*
D03*
X360000Y540000D02*
D03*
Y420000D02*
D03*
X390000Y360000D02*
D03*
X360000Y300000D02*
D03*
X390000Y240000D02*
D03*
X360000Y180000D02*
D03*
X330000Y600000D02*
D03*
X300000Y540000D02*
D03*
X330000Y480000D02*
D03*
Y360000D02*
D03*
X300000Y300000D02*
D03*
X330000Y240000D02*
D03*
X300000Y180000D02*
D03*
X270000Y480000D02*
D03*
Y360000D02*
D03*
X240000Y300000D02*
D03*
X270000Y240000D02*
D03*
X180000Y420000D02*
D03*
X90000Y600000D02*
D03*
X60000Y540000D02*
D03*
Y300000D02*
D03*
Y60000D02*
D03*
X40640Y447040D02*
D03*
X41910Y422910D02*
D03*
Y397510D02*
D03*
X43180Y373380D02*
D03*
Y345440D02*
D03*
X44450Y321310D02*
D03*
X41910Y294640D02*
D03*
Y270510D02*
D03*
X43180Y245110D02*
D03*
Y219710D02*
D03*
Y193040D02*
D03*
Y168910D02*
D03*
M02*
