G04*
G04 #@! TF.GenerationSoftware,Altium Limited,Altium Designer,24.0.1 (36)*
G04*
G04 Layer_Physical_Order=3*
G04 Layer_Color=16440176*
%FSLAX44Y44*%
%MOMM*%
G71*
G04*
G04 #@! TF.SameCoordinates,BB923111-6D0E-4387-AAE4-9FFB48530C1F*
G04*
G04*
G04 #@! TF.FilePolarity,Positive*
G04*
G01*
G75*
%ADD33C,7.0000*%
%ADD34C,1.8750*%
%ADD35C,0.6750*%
%ADD36C,8.0000*%
%ADD37C,0.7000*%
%ADD38C,0.5000*%
G36*
X1450000Y550000D02*
X1453277D01*
X1459775Y549144D01*
X1466106Y547448D01*
X1472162Y544940D01*
X1477838Y541663D01*
X1483038Y537673D01*
X1487673Y533038D01*
X1491663Y527838D01*
X1494940Y522162D01*
X1497448Y516106D01*
X1499144Y509775D01*
X1500000Y503277D01*
Y500000D01*
X1500000Y500000D01*
X1500000Y500000D01*
X1500000Y50000D01*
Y46723D01*
X1499144Y40224D01*
X1497448Y33893D01*
X1494940Y27838D01*
X1491663Y22162D01*
X1487673Y16962D01*
X1483038Y12327D01*
X1477838Y8337D01*
X1472162Y5060D01*
X1466106Y2552D01*
X1459775Y856D01*
X1453277Y0D01*
X1450000Y0D01*
X50000Y0D01*
X46723D01*
X40224Y856D01*
X33893Y2552D01*
X27838Y5060D01*
X22162Y8337D01*
X16962Y12327D01*
X12327Y16962D01*
X8337Y22162D01*
X5060Y27838D01*
X2552Y33893D01*
X856Y40224D01*
X0Y46723D01*
X0Y50000D01*
X0Y500000D01*
Y503277D01*
X856Y509775D01*
X2552Y516106D01*
X5060Y522162D01*
X8337Y527838D01*
X12327Y533038D01*
X16962Y537673D01*
X22162Y541663D01*
X27838Y544940D01*
X33893Y547448D01*
X40224Y549144D01*
X46723Y550000D01*
X50000D01*
X50000Y550000D01*
X1450000Y550000D01*
D02*
G37*
%LPC*%
G36*
X1380948Y514770D02*
X1379051D01*
X1377298Y514044D01*
X1375956Y512702D01*
X1375230Y510949D01*
Y509051D01*
X1375956Y507298D01*
X1377298Y505956D01*
X1379051Y505230D01*
X1380948D01*
X1382702Y505956D01*
X1384043Y507298D01*
X1384770Y509051D01*
Y510949D01*
X1384043Y512702D01*
X1382702Y514044D01*
X1380948Y514770D01*
D02*
G37*
G36*
X1350948D02*
X1349051D01*
X1347298Y514044D01*
X1345956Y512702D01*
X1345230Y510949D01*
Y509051D01*
X1345956Y507298D01*
X1347298Y505956D01*
X1349051Y505230D01*
X1350948D01*
X1352702Y505956D01*
X1354043Y507298D01*
X1354770Y509051D01*
Y510949D01*
X1354043Y512702D01*
X1352702Y514044D01*
X1350948Y514770D01*
D02*
G37*
G36*
X1320948D02*
X1319051D01*
X1317298Y514044D01*
X1315956Y512702D01*
X1315230Y510949D01*
Y509051D01*
X1315956Y507298D01*
X1317298Y505956D01*
X1319051Y505230D01*
X1320948D01*
X1322702Y505956D01*
X1324043Y507298D01*
X1324770Y509051D01*
Y510949D01*
X1324043Y512702D01*
X1322702Y514044D01*
X1320948Y514770D01*
D02*
G37*
G36*
X1290948D02*
X1289051D01*
X1287298Y514044D01*
X1285956Y512702D01*
X1285230Y510949D01*
Y509051D01*
X1285956Y507298D01*
X1287298Y505956D01*
X1289051Y505230D01*
X1290948D01*
X1292702Y505956D01*
X1294043Y507298D01*
X1294770Y509051D01*
Y510949D01*
X1294043Y512702D01*
X1292702Y514044D01*
X1290948Y514770D01*
D02*
G37*
G36*
X1260948D02*
X1259051D01*
X1257298Y514044D01*
X1255956Y512702D01*
X1255230Y510949D01*
Y509051D01*
X1255956Y507298D01*
X1257298Y505956D01*
X1259051Y505230D01*
X1260948D01*
X1262702Y505956D01*
X1264043Y507298D01*
X1264770Y509051D01*
Y510949D01*
X1264043Y512702D01*
X1262702Y514044D01*
X1260948Y514770D01*
D02*
G37*
G36*
X1230948D02*
X1229051D01*
X1227298Y514044D01*
X1225956Y512702D01*
X1225230Y510949D01*
Y509051D01*
X1225956Y507298D01*
X1227298Y505956D01*
X1229051Y505230D01*
X1230948D01*
X1232702Y505956D01*
X1234043Y507298D01*
X1234770Y509051D01*
Y510949D01*
X1234043Y512702D01*
X1232702Y514044D01*
X1230948Y514770D01*
D02*
G37*
G36*
X1200948D02*
X1199051D01*
X1197298Y514044D01*
X1195956Y512702D01*
X1195230Y510949D01*
Y509051D01*
X1195956Y507298D01*
X1197298Y505956D01*
X1199051Y505230D01*
X1200948D01*
X1202702Y505956D01*
X1204043Y507298D01*
X1204770Y509051D01*
Y510949D01*
X1204043Y512702D01*
X1202702Y514044D01*
X1200948Y514770D01*
D02*
G37*
G36*
X1110948D02*
X1109051D01*
X1107298Y514044D01*
X1105956Y512702D01*
X1105230Y510949D01*
Y509051D01*
X1105956Y507298D01*
X1107298Y505956D01*
X1109051Y505230D01*
X1110948D01*
X1112702Y505956D01*
X1114044Y507298D01*
X1114770Y509051D01*
Y510949D01*
X1114044Y512702D01*
X1112702Y514044D01*
X1110948Y514770D01*
D02*
G37*
G36*
X1080948D02*
X1079051D01*
X1077298Y514044D01*
X1075956Y512702D01*
X1075230Y510949D01*
Y509051D01*
X1075956Y507298D01*
X1077298Y505956D01*
X1079051Y505230D01*
X1080948D01*
X1082702Y505956D01*
X1084044Y507298D01*
X1084770Y509051D01*
Y510949D01*
X1084044Y512702D01*
X1082702Y514044D01*
X1080948Y514770D01*
D02*
G37*
G36*
X1050948D02*
X1049051D01*
X1047298Y514044D01*
X1045956Y512702D01*
X1045230Y510949D01*
Y509051D01*
X1045956Y507298D01*
X1047298Y505956D01*
X1049051Y505230D01*
X1050948D01*
X1052702Y505956D01*
X1054044Y507298D01*
X1054770Y509051D01*
Y510949D01*
X1054044Y512702D01*
X1052702Y514044D01*
X1050948Y514770D01*
D02*
G37*
G36*
X1020948D02*
X1019051D01*
X1017298Y514044D01*
X1015956Y512702D01*
X1015230Y510949D01*
Y509051D01*
X1015956Y507298D01*
X1017298Y505956D01*
X1019051Y505230D01*
X1020948D01*
X1022702Y505956D01*
X1024044Y507298D01*
X1024770Y509051D01*
Y510949D01*
X1024044Y512702D01*
X1022702Y514044D01*
X1020948Y514770D01*
D02*
G37*
G36*
X990948D02*
X989051D01*
X987298Y514044D01*
X985956Y512702D01*
X985230Y510949D01*
Y509051D01*
X985956Y507298D01*
X987298Y505956D01*
X989051Y505230D01*
X990948D01*
X992702Y505956D01*
X994044Y507298D01*
X994770Y509051D01*
Y510949D01*
X994044Y512702D01*
X992702Y514044D01*
X990948Y514770D01*
D02*
G37*
G36*
X960948D02*
X959051D01*
X957298Y514044D01*
X955956Y512702D01*
X955230Y510949D01*
Y509051D01*
X955956Y507298D01*
X957298Y505956D01*
X959051Y505230D01*
X960948D01*
X962702Y505956D01*
X964044Y507298D01*
X964770Y509051D01*
Y510949D01*
X964044Y512702D01*
X962702Y514044D01*
X960948Y514770D01*
D02*
G37*
G36*
X930948D02*
X929051D01*
X927298Y514044D01*
X925956Y512702D01*
X925230Y510949D01*
Y509051D01*
X925956Y507298D01*
X927298Y505956D01*
X929051Y505230D01*
X930948D01*
X932702Y505956D01*
X934044Y507298D01*
X934770Y509051D01*
Y510949D01*
X934044Y512702D01*
X932702Y514044D01*
X930948Y514770D01*
D02*
G37*
G36*
X900948D02*
X899051D01*
X897298Y514044D01*
X895956Y512702D01*
X895230Y510949D01*
Y509051D01*
X895956Y507298D01*
X897298Y505956D01*
X899051Y505230D01*
X900948D01*
X902702Y505956D01*
X904044Y507298D01*
X904770Y509051D01*
Y510949D01*
X904044Y512702D01*
X902702Y514044D01*
X900948Y514770D01*
D02*
G37*
G36*
X870949D02*
X869051D01*
X867298Y514044D01*
X865956Y512702D01*
X865230Y510949D01*
Y509051D01*
X865956Y507298D01*
X867298Y505956D01*
X869051Y505230D01*
X870949D01*
X872702Y505956D01*
X874044Y507298D01*
X874770Y509051D01*
Y510949D01*
X874044Y512702D01*
X872702Y514044D01*
X870949Y514770D01*
D02*
G37*
G36*
X840949D02*
X839051D01*
X837298Y514044D01*
X835956Y512702D01*
X835230Y510949D01*
Y509051D01*
X835956Y507298D01*
X837298Y505956D01*
X839051Y505230D01*
X840949D01*
X842702Y505956D01*
X844044Y507298D01*
X844770Y509051D01*
Y510949D01*
X844044Y512702D01*
X842702Y514044D01*
X840949Y514770D01*
D02*
G37*
G36*
X810949D02*
X809051D01*
X807298Y514044D01*
X805956Y512702D01*
X805230Y510949D01*
Y509051D01*
X805956Y507298D01*
X807298Y505956D01*
X809051Y505230D01*
X810949D01*
X812702Y505956D01*
X814044Y507298D01*
X814770Y509051D01*
Y510949D01*
X814044Y512702D01*
X812702Y514044D01*
X810949Y514770D01*
D02*
G37*
G36*
X780949D02*
X779051D01*
X777298Y514044D01*
X775956Y512702D01*
X775230Y510949D01*
Y509051D01*
X775956Y507298D01*
X777298Y505956D01*
X779051Y505230D01*
X780949D01*
X782702Y505956D01*
X784044Y507298D01*
X784770Y509051D01*
Y510949D01*
X784044Y512702D01*
X782702Y514044D01*
X780949Y514770D01*
D02*
G37*
G36*
X750949D02*
X749051D01*
X747298Y514044D01*
X745956Y512702D01*
X745230Y510949D01*
Y509051D01*
X745956Y507298D01*
X747298Y505956D01*
X749051Y505230D01*
X750949D01*
X752702Y505956D01*
X754044Y507298D01*
X754770Y509051D01*
Y510949D01*
X754044Y512702D01*
X752702Y514044D01*
X750949Y514770D01*
D02*
G37*
G36*
X720949D02*
X719051D01*
X717298Y514044D01*
X715956Y512702D01*
X715230Y510949D01*
Y509051D01*
X715956Y507298D01*
X717298Y505956D01*
X719051Y505230D01*
X720949D01*
X722702Y505956D01*
X724044Y507298D01*
X724770Y509051D01*
Y510949D01*
X724044Y512702D01*
X722702Y514044D01*
X720949Y514770D01*
D02*
G37*
G36*
X690949D02*
X689051D01*
X687298Y514044D01*
X685956Y512702D01*
X685230Y510949D01*
Y509051D01*
X685956Y507298D01*
X687298Y505956D01*
X689051Y505230D01*
X690949D01*
X692702Y505956D01*
X694044Y507298D01*
X694770Y509051D01*
Y510949D01*
X694044Y512702D01*
X692702Y514044D01*
X690949Y514770D01*
D02*
G37*
G36*
X660949D02*
X659051D01*
X657298Y514044D01*
X655956Y512702D01*
X655230Y510949D01*
Y509051D01*
X655956Y507298D01*
X657298Y505956D01*
X659051Y505230D01*
X660949D01*
X662702Y505956D01*
X664044Y507298D01*
X664770Y509051D01*
Y510949D01*
X664044Y512702D01*
X662702Y514044D01*
X660949Y514770D01*
D02*
G37*
G36*
X630949D02*
X629051D01*
X627298Y514044D01*
X625956Y512702D01*
X625230Y510949D01*
Y509051D01*
X625956Y507298D01*
X627298Y505956D01*
X629051Y505230D01*
X630949D01*
X632702Y505956D01*
X634044Y507298D01*
X634770Y509051D01*
Y510949D01*
X634044Y512702D01*
X632702Y514044D01*
X630949Y514770D01*
D02*
G37*
G36*
X600949D02*
X599051D01*
X597298Y514044D01*
X595956Y512702D01*
X595230Y510949D01*
Y509051D01*
X595956Y507298D01*
X597298Y505956D01*
X599051Y505230D01*
X600949D01*
X602702Y505956D01*
X604044Y507298D01*
X604770Y509051D01*
Y510949D01*
X604044Y512702D01*
X602702Y514044D01*
X600949Y514770D01*
D02*
G37*
G36*
X510949D02*
X509051D01*
X507298Y514044D01*
X505956Y512702D01*
X505230Y510949D01*
Y509051D01*
X505956Y507298D01*
X507298Y505956D01*
X509051Y505230D01*
X510949D01*
X512702Y505956D01*
X514044Y507298D01*
X514770Y509051D01*
Y510949D01*
X514044Y512702D01*
X512702Y514044D01*
X510949Y514770D01*
D02*
G37*
G36*
X480949D02*
X479051D01*
X477298Y514044D01*
X475956Y512702D01*
X475230Y510949D01*
Y509051D01*
X475956Y507298D01*
X477298Y505956D01*
X479051Y505230D01*
X480949D01*
X482702Y505956D01*
X484044Y507298D01*
X484770Y509051D01*
Y510949D01*
X484044Y512702D01*
X482702Y514044D01*
X480949Y514770D01*
D02*
G37*
G36*
X450949D02*
X449051D01*
X447298Y514044D01*
X445956Y512702D01*
X445230Y510949D01*
Y509051D01*
X445956Y507298D01*
X447298Y505956D01*
X449051Y505230D01*
X450949D01*
X452702Y505956D01*
X454044Y507298D01*
X454770Y509051D01*
Y510949D01*
X454044Y512702D01*
X452702Y514044D01*
X450949Y514770D01*
D02*
G37*
G36*
X420949D02*
X419051D01*
X417298Y514044D01*
X415956Y512702D01*
X415230Y510949D01*
Y509051D01*
X415956Y507298D01*
X417298Y505956D01*
X419051Y505230D01*
X420949D01*
X422702Y505956D01*
X424044Y507298D01*
X424770Y509051D01*
Y510949D01*
X424044Y512702D01*
X422702Y514044D01*
X420949Y514770D01*
D02*
G37*
G36*
X390949D02*
X389051D01*
X387298Y514044D01*
X385956Y512702D01*
X385230Y510949D01*
Y509051D01*
X385956Y507298D01*
X387298Y505956D01*
X389051Y505230D01*
X390949D01*
X392702Y505956D01*
X394044Y507298D01*
X394770Y509051D01*
Y510949D01*
X394044Y512702D01*
X392702Y514044D01*
X390949Y514770D01*
D02*
G37*
G36*
X360949D02*
X359051D01*
X357298Y514044D01*
X355956Y512702D01*
X355230Y510949D01*
Y509051D01*
X355956Y507298D01*
X357298Y505956D01*
X359051Y505230D01*
X360949D01*
X362702Y505956D01*
X364044Y507298D01*
X364770Y509051D01*
Y510949D01*
X364044Y512702D01*
X362702Y514044D01*
X360949Y514770D01*
D02*
G37*
G36*
X330949D02*
X329051D01*
X327298Y514044D01*
X325956Y512702D01*
X325230Y510949D01*
Y509051D01*
X325956Y507298D01*
X327298Y505956D01*
X329051Y505230D01*
X330949D01*
X332702Y505956D01*
X334044Y507298D01*
X334770Y509051D01*
Y510949D01*
X334044Y512702D01*
X332702Y514044D01*
X330949Y514770D01*
D02*
G37*
G36*
X300949D02*
X299051D01*
X297298Y514044D01*
X295956Y512702D01*
X295230Y510949D01*
Y509051D01*
X295956Y507298D01*
X297298Y505956D01*
X299051Y505230D01*
X300949D01*
X302702Y505956D01*
X304044Y507298D01*
X304770Y509051D01*
Y510949D01*
X304044Y512702D01*
X302702Y514044D01*
X300949Y514770D01*
D02*
G37*
G36*
X270949D02*
X269051D01*
X267298Y514044D01*
X265956Y512702D01*
X265230Y510949D01*
Y509051D01*
X265956Y507298D01*
X267298Y505956D01*
X269051Y505230D01*
X270949D01*
X272702Y505956D01*
X274044Y507298D01*
X274770Y509051D01*
Y510949D01*
X274044Y512702D01*
X272702Y514044D01*
X270949Y514770D01*
D02*
G37*
G36*
X240949D02*
X239051D01*
X237298Y514044D01*
X235956Y512702D01*
X235230Y510949D01*
Y509051D01*
X235956Y507298D01*
X237298Y505956D01*
X239051Y505230D01*
X240949D01*
X242702Y505956D01*
X244044Y507298D01*
X244770Y509051D01*
Y510949D01*
X244044Y512702D01*
X242702Y514044D01*
X240949Y514770D01*
D02*
G37*
G36*
X210949D02*
X209051D01*
X207298Y514044D01*
X205956Y512702D01*
X205230Y510949D01*
Y509051D01*
X205956Y507298D01*
X207298Y505956D01*
X209051Y505230D01*
X210949D01*
X212702Y505956D01*
X214044Y507298D01*
X214770Y509051D01*
Y510949D01*
X214044Y512702D01*
X212702Y514044D01*
X210949Y514770D01*
D02*
G37*
G36*
X180949D02*
X179051D01*
X177298Y514044D01*
X175956Y512702D01*
X175230Y510949D01*
Y509051D01*
X175956Y507298D01*
X177298Y505956D01*
X179051Y505230D01*
X180949D01*
X182702Y505956D01*
X184044Y507298D01*
X184770Y509051D01*
Y510949D01*
X184044Y512702D01*
X182702Y514044D01*
X180949Y514770D01*
D02*
G37*
G36*
X150949D02*
X149051D01*
X147298Y514044D01*
X145956Y512702D01*
X145230Y510949D01*
Y509051D01*
X145956Y507298D01*
X147298Y505956D01*
X149051Y505230D01*
X150949D01*
X152702Y505956D01*
X154044Y507298D01*
X154770Y509051D01*
Y510949D01*
X154044Y512702D01*
X152702Y514044D01*
X150949Y514770D01*
D02*
G37*
G36*
X120949D02*
X119051D01*
X117298Y514044D01*
X115956Y512702D01*
X115230Y510949D01*
Y509051D01*
X115956Y507298D01*
X117298Y505956D01*
X119051Y505230D01*
X120949D01*
X122702Y505956D01*
X124044Y507298D01*
X124770Y509051D01*
Y510949D01*
X124044Y512702D01*
X122702Y514044D01*
X120949Y514770D01*
D02*
G37*
G36*
X1395948Y484770D02*
X1394051D01*
X1392298Y484044D01*
X1390956Y482702D01*
X1390230Y480949D01*
Y479051D01*
X1390956Y477298D01*
X1392298Y475956D01*
X1394051Y475230D01*
X1395948D01*
X1397702Y475956D01*
X1399043Y477298D01*
X1399770Y479051D01*
Y480949D01*
X1399043Y482702D01*
X1397702Y484044D01*
X1395948Y484770D01*
D02*
G37*
G36*
X1365948D02*
X1364051D01*
X1362298Y484044D01*
X1360956Y482702D01*
X1360230Y480949D01*
Y479051D01*
X1360956Y477298D01*
X1362298Y475956D01*
X1364051Y475230D01*
X1365948D01*
X1367702Y475956D01*
X1369043Y477298D01*
X1369770Y479051D01*
Y480949D01*
X1369043Y482702D01*
X1367702Y484044D01*
X1365948Y484770D01*
D02*
G37*
G36*
X1335948D02*
X1334051D01*
X1332298Y484044D01*
X1330956Y482702D01*
X1330230Y480949D01*
Y479051D01*
X1330956Y477298D01*
X1332298Y475956D01*
X1334051Y475230D01*
X1335948D01*
X1337702Y475956D01*
X1339043Y477298D01*
X1339770Y479051D01*
Y480949D01*
X1339043Y482702D01*
X1337702Y484044D01*
X1335948Y484770D01*
D02*
G37*
G36*
X1305948D02*
X1304051D01*
X1302298Y484044D01*
X1300956Y482702D01*
X1300230Y480949D01*
Y479051D01*
X1300956Y477298D01*
X1302298Y475956D01*
X1304051Y475230D01*
X1305948D01*
X1307702Y475956D01*
X1309043Y477298D01*
X1309770Y479051D01*
Y480949D01*
X1309043Y482702D01*
X1307702Y484044D01*
X1305948Y484770D01*
D02*
G37*
G36*
X1275948D02*
X1274051D01*
X1272298Y484044D01*
X1270956Y482702D01*
X1270230Y480949D01*
Y479051D01*
X1270956Y477298D01*
X1272298Y475956D01*
X1274051Y475230D01*
X1275948D01*
X1277702Y475956D01*
X1279043Y477298D01*
X1279770Y479051D01*
Y480949D01*
X1279043Y482702D01*
X1277702Y484044D01*
X1275948Y484770D01*
D02*
G37*
G36*
X1245948D02*
X1244051D01*
X1242298Y484044D01*
X1240956Y482702D01*
X1240230Y480949D01*
Y479051D01*
X1240956Y477298D01*
X1242298Y475956D01*
X1244051Y475230D01*
X1245948D01*
X1247702Y475956D01*
X1249043Y477298D01*
X1249770Y479051D01*
Y480949D01*
X1249043Y482702D01*
X1247702Y484044D01*
X1245948Y484770D01*
D02*
G37*
G36*
X1215948D02*
X1214051D01*
X1212298Y484044D01*
X1210956Y482702D01*
X1210230Y480949D01*
Y479051D01*
X1210956Y477298D01*
X1212298Y475956D01*
X1214051Y475230D01*
X1215948D01*
X1217702Y475956D01*
X1219043Y477298D01*
X1219770Y479051D01*
Y480949D01*
X1219043Y482702D01*
X1217702Y484044D01*
X1215948Y484770D01*
D02*
G37*
G36*
X1095948D02*
X1094051D01*
X1092298Y484044D01*
X1090956Y482702D01*
X1090230Y480949D01*
Y479051D01*
X1090956Y477298D01*
X1092298Y475956D01*
X1094051Y475230D01*
X1095948D01*
X1097702Y475956D01*
X1099044Y477298D01*
X1099770Y479051D01*
Y480949D01*
X1099044Y482702D01*
X1097702Y484044D01*
X1095948Y484770D01*
D02*
G37*
G36*
X1065948D02*
X1064051D01*
X1062298Y484044D01*
X1060956Y482702D01*
X1060230Y480949D01*
Y479051D01*
X1060956Y477298D01*
X1062298Y475956D01*
X1064051Y475230D01*
X1065948D01*
X1067702Y475956D01*
X1069044Y477298D01*
X1069770Y479051D01*
Y480949D01*
X1069044Y482702D01*
X1067702Y484044D01*
X1065948Y484770D01*
D02*
G37*
G36*
X1035948D02*
X1034051D01*
X1032298Y484044D01*
X1030956Y482702D01*
X1030230Y480949D01*
Y479051D01*
X1030956Y477298D01*
X1032298Y475956D01*
X1034051Y475230D01*
X1035948D01*
X1037702Y475956D01*
X1039044Y477298D01*
X1039770Y479051D01*
Y480949D01*
X1039044Y482702D01*
X1037702Y484044D01*
X1035948Y484770D01*
D02*
G37*
G36*
X1005948D02*
X1004051D01*
X1002298Y484044D01*
X1000956Y482702D01*
X1000230Y480949D01*
Y479051D01*
X1000956Y477298D01*
X1002298Y475956D01*
X1004051Y475230D01*
X1005948D01*
X1007702Y475956D01*
X1009044Y477298D01*
X1009770Y479051D01*
Y480949D01*
X1009044Y482702D01*
X1007702Y484044D01*
X1005948Y484770D01*
D02*
G37*
G36*
X975948D02*
X974051D01*
X972298Y484044D01*
X970956Y482702D01*
X970230Y480949D01*
Y479051D01*
X970956Y477298D01*
X972298Y475956D01*
X974051Y475230D01*
X975948D01*
X977702Y475956D01*
X979044Y477298D01*
X979770Y479051D01*
Y480949D01*
X979044Y482702D01*
X977702Y484044D01*
X975948Y484770D01*
D02*
G37*
G36*
X945948D02*
X944051D01*
X942298Y484044D01*
X940956Y482702D01*
X940230Y480949D01*
Y479051D01*
X940956Y477298D01*
X942298Y475956D01*
X944051Y475230D01*
X945948D01*
X947702Y475956D01*
X949044Y477298D01*
X949770Y479051D01*
Y480949D01*
X949044Y482702D01*
X947702Y484044D01*
X945948Y484770D01*
D02*
G37*
G36*
X915948D02*
X914051D01*
X912298Y484044D01*
X910956Y482702D01*
X910230Y480949D01*
Y479051D01*
X910956Y477298D01*
X912298Y475956D01*
X914051Y475230D01*
X915948D01*
X917702Y475956D01*
X919044Y477298D01*
X919770Y479051D01*
Y480949D01*
X919044Y482702D01*
X917702Y484044D01*
X915948Y484770D01*
D02*
G37*
G36*
X885948D02*
X884051D01*
X882298Y484044D01*
X880956Y482702D01*
X880230Y480949D01*
Y479051D01*
X880956Y477298D01*
X882298Y475956D01*
X884051Y475230D01*
X885948D01*
X887702Y475956D01*
X889044Y477298D01*
X889770Y479051D01*
Y480949D01*
X889044Y482702D01*
X887702Y484044D01*
X885948Y484770D01*
D02*
G37*
G36*
X855949D02*
X854051D01*
X852298Y484044D01*
X850956Y482702D01*
X850230Y480949D01*
Y479051D01*
X850956Y477298D01*
X852298Y475956D01*
X854051Y475230D01*
X855949D01*
X857702Y475956D01*
X859044Y477298D01*
X859770Y479051D01*
Y480949D01*
X859044Y482702D01*
X857702Y484044D01*
X855949Y484770D01*
D02*
G37*
G36*
X825949D02*
X824051D01*
X822298Y484044D01*
X820956Y482702D01*
X820230Y480949D01*
Y479051D01*
X820956Y477298D01*
X822298Y475956D01*
X824051Y475230D01*
X825949D01*
X827702Y475956D01*
X829044Y477298D01*
X829770Y479051D01*
Y480949D01*
X829044Y482702D01*
X827702Y484044D01*
X825949Y484770D01*
D02*
G37*
G36*
X795949D02*
X794051D01*
X792298Y484044D01*
X790956Y482702D01*
X790230Y480949D01*
Y479051D01*
X790956Y477298D01*
X792298Y475956D01*
X794051Y475230D01*
X795949D01*
X797702Y475956D01*
X799044Y477298D01*
X799770Y479051D01*
Y480949D01*
X799044Y482702D01*
X797702Y484044D01*
X795949Y484770D01*
D02*
G37*
G36*
X765949D02*
X764051D01*
X762298Y484044D01*
X760956Y482702D01*
X760230Y480949D01*
Y479051D01*
X760956Y477298D01*
X762298Y475956D01*
X764051Y475230D01*
X765949D01*
X767702Y475956D01*
X769044Y477298D01*
X769770Y479051D01*
Y480949D01*
X769044Y482702D01*
X767702Y484044D01*
X765949Y484770D01*
D02*
G37*
G36*
X735949D02*
X734051D01*
X732298Y484044D01*
X730956Y482702D01*
X730230Y480949D01*
Y479051D01*
X730956Y477298D01*
X732298Y475956D01*
X734051Y475230D01*
X735949D01*
X737702Y475956D01*
X739044Y477298D01*
X739770Y479051D01*
Y480949D01*
X739044Y482702D01*
X737702Y484044D01*
X735949Y484770D01*
D02*
G37*
G36*
X705949D02*
X704051D01*
X702298Y484044D01*
X700956Y482702D01*
X700230Y480949D01*
Y479051D01*
X700956Y477298D01*
X702298Y475956D01*
X704051Y475230D01*
X705949D01*
X707702Y475956D01*
X709044Y477298D01*
X709770Y479051D01*
Y480949D01*
X709044Y482702D01*
X707702Y484044D01*
X705949Y484770D01*
D02*
G37*
G36*
X675949D02*
X674051D01*
X672298Y484044D01*
X670956Y482702D01*
X670230Y480949D01*
Y479051D01*
X670956Y477298D01*
X672298Y475956D01*
X674051Y475230D01*
X675949D01*
X677702Y475956D01*
X679044Y477298D01*
X679770Y479051D01*
Y480949D01*
X679044Y482702D01*
X677702Y484044D01*
X675949Y484770D01*
D02*
G37*
G36*
X645949D02*
X644051D01*
X642298Y484044D01*
X640956Y482702D01*
X640230Y480949D01*
Y479051D01*
X640956Y477298D01*
X642298Y475956D01*
X644051Y475230D01*
X645949D01*
X647702Y475956D01*
X649044Y477298D01*
X649770Y479051D01*
Y480949D01*
X649044Y482702D01*
X647702Y484044D01*
X645949Y484770D01*
D02*
G37*
G36*
X615949D02*
X614051D01*
X612298Y484044D01*
X610956Y482702D01*
X610230Y480949D01*
Y479051D01*
X610956Y477298D01*
X612298Y475956D01*
X614051Y475230D01*
X615949D01*
X617702Y475956D01*
X619044Y477298D01*
X619770Y479051D01*
Y480949D01*
X619044Y482702D01*
X617702Y484044D01*
X615949Y484770D01*
D02*
G37*
G36*
X495949D02*
X494051D01*
X492298Y484044D01*
X490956Y482702D01*
X490230Y480949D01*
Y479051D01*
X490956Y477298D01*
X492298Y475956D01*
X494051Y475230D01*
X495949D01*
X497702Y475956D01*
X499044Y477298D01*
X499770Y479051D01*
Y480949D01*
X499044Y482702D01*
X497702Y484044D01*
X495949Y484770D01*
D02*
G37*
G36*
X465949D02*
X464051D01*
X462298Y484044D01*
X460956Y482702D01*
X460230Y480949D01*
Y479051D01*
X460956Y477298D01*
X462298Y475956D01*
X464051Y475230D01*
X465949D01*
X467702Y475956D01*
X469044Y477298D01*
X469770Y479051D01*
Y480949D01*
X469044Y482702D01*
X467702Y484044D01*
X465949Y484770D01*
D02*
G37*
G36*
X435949D02*
X434051D01*
X432298Y484044D01*
X430956Y482702D01*
X430230Y480949D01*
Y479051D01*
X430956Y477298D01*
X432298Y475956D01*
X434051Y475230D01*
X435949D01*
X437702Y475956D01*
X439044Y477298D01*
X439770Y479051D01*
Y480949D01*
X439044Y482702D01*
X437702Y484044D01*
X435949Y484770D01*
D02*
G37*
G36*
X405949D02*
X404051D01*
X402298Y484044D01*
X400956Y482702D01*
X400230Y480949D01*
Y479051D01*
X400956Y477298D01*
X402298Y475956D01*
X404051Y475230D01*
X405949D01*
X407702Y475956D01*
X409044Y477298D01*
X409770Y479051D01*
Y480949D01*
X409044Y482702D01*
X407702Y484044D01*
X405949Y484770D01*
D02*
G37*
G36*
X375949D02*
X374051D01*
X372298Y484044D01*
X370956Y482702D01*
X370230Y480949D01*
Y479051D01*
X370956Y477298D01*
X372298Y475956D01*
X374051Y475230D01*
X375949D01*
X377702Y475956D01*
X379044Y477298D01*
X379770Y479051D01*
Y480949D01*
X379044Y482702D01*
X377702Y484044D01*
X375949Y484770D01*
D02*
G37*
G36*
X345949D02*
X344051D01*
X342298Y484044D01*
X340956Y482702D01*
X340230Y480949D01*
Y479051D01*
X340956Y477298D01*
X342298Y475956D01*
X344051Y475230D01*
X345949D01*
X347702Y475956D01*
X349044Y477298D01*
X349770Y479051D01*
Y480949D01*
X349044Y482702D01*
X347702Y484044D01*
X345949Y484770D01*
D02*
G37*
G36*
X315949D02*
X314051D01*
X312298Y484044D01*
X310956Y482702D01*
X310230Y480949D01*
Y479051D01*
X310956Y477298D01*
X312298Y475956D01*
X314051Y475230D01*
X315949D01*
X317702Y475956D01*
X319044Y477298D01*
X319770Y479051D01*
Y480949D01*
X319044Y482702D01*
X317702Y484044D01*
X315949Y484770D01*
D02*
G37*
G36*
X285949D02*
X284051D01*
X282298Y484044D01*
X280956Y482702D01*
X280230Y480949D01*
Y479051D01*
X280956Y477298D01*
X282298Y475956D01*
X284051Y475230D01*
X285949D01*
X287702Y475956D01*
X289044Y477298D01*
X289770Y479051D01*
Y480949D01*
X289044Y482702D01*
X287702Y484044D01*
X285949Y484770D01*
D02*
G37*
G36*
X255949D02*
X254051D01*
X252298Y484044D01*
X250956Y482702D01*
X250230Y480949D01*
Y479051D01*
X250956Y477298D01*
X252298Y475956D01*
X254051Y475230D01*
X255949D01*
X257702Y475956D01*
X259044Y477298D01*
X259770Y479051D01*
Y480949D01*
X259044Y482702D01*
X257702Y484044D01*
X255949Y484770D01*
D02*
G37*
G36*
X225949D02*
X224051D01*
X222298Y484044D01*
X220956Y482702D01*
X220230Y480949D01*
Y479051D01*
X220956Y477298D01*
X222298Y475956D01*
X224051Y475230D01*
X225949D01*
X227702Y475956D01*
X229044Y477298D01*
X229770Y479051D01*
Y480949D01*
X229044Y482702D01*
X227702Y484044D01*
X225949Y484770D01*
D02*
G37*
G36*
X195949D02*
X194051D01*
X192298Y484044D01*
X190956Y482702D01*
X190230Y480949D01*
Y479051D01*
X190956Y477298D01*
X192298Y475956D01*
X194051Y475230D01*
X195949D01*
X197702Y475956D01*
X199044Y477298D01*
X199770Y479051D01*
Y480949D01*
X199044Y482702D01*
X197702Y484044D01*
X195949Y484770D01*
D02*
G37*
G36*
X165949D02*
X164051D01*
X162298Y484044D01*
X160956Y482702D01*
X160230Y480949D01*
Y479051D01*
X160956Y477298D01*
X162298Y475956D01*
X164051Y475230D01*
X165949D01*
X167702Y475956D01*
X169044Y477298D01*
X169770Y479051D01*
Y480949D01*
X169044Y482702D01*
X167702Y484044D01*
X165949Y484770D01*
D02*
G37*
G36*
X135949D02*
X134051D01*
X132298Y484044D01*
X130956Y482702D01*
X130230Y480949D01*
Y479051D01*
X130956Y477298D01*
X132298Y475956D01*
X134051Y475230D01*
X135949D01*
X137702Y475956D01*
X139044Y477298D01*
X139770Y479051D01*
Y480949D01*
X139044Y482702D01*
X137702Y484044D01*
X135949Y484770D01*
D02*
G37*
G36*
X105949D02*
X104051D01*
X102298Y484044D01*
X100956Y482702D01*
X100230Y480949D01*
Y479051D01*
X100956Y477298D01*
X102298Y475956D01*
X104051Y475230D01*
X105949D01*
X107702Y475956D01*
X109044Y477298D01*
X109770Y479051D01*
Y480949D01*
X109044Y482702D01*
X107702Y484044D01*
X105949Y484770D01*
D02*
G37*
G36*
X1155915Y532430D02*
X1150206D01*
X1144567Y531537D01*
X1139137Y529773D01*
X1134050Y527181D01*
X1129432Y523825D01*
X1125395Y519788D01*
X1122039Y515170D01*
X1119447Y510083D01*
X1117683Y504653D01*
X1116790Y499015D01*
Y493306D01*
X1117683Y487667D01*
X1119447Y482237D01*
X1122039Y477150D01*
X1125395Y472532D01*
X1129432Y468495D01*
X1134050Y465139D01*
X1139137Y462547D01*
X1144567Y460783D01*
X1150206Y459890D01*
X1155915D01*
X1161553Y460783D01*
X1166983Y462547D01*
X1172070Y465139D01*
X1176688Y468495D01*
X1180725Y472532D01*
X1184081Y477150D01*
X1186673Y482237D01*
X1188437Y487667D01*
X1189330Y493306D01*
Y499015D01*
X1188437Y504653D01*
X1186673Y510083D01*
X1184081Y515170D01*
X1180725Y519788D01*
X1176688Y523825D01*
X1172070Y527181D01*
X1166983Y529773D01*
X1161553Y531537D01*
X1155915Y532430D01*
D02*
G37*
G36*
X555914D02*
X550205D01*
X544567Y531537D01*
X539137Y529773D01*
X534050Y527181D01*
X529432Y523825D01*
X525395Y519788D01*
X522039Y515170D01*
X519447Y510083D01*
X517683Y504653D01*
X516790Y499015D01*
Y493306D01*
X517683Y487667D01*
X519447Y482237D01*
X522039Y477150D01*
X525395Y472532D01*
X529432Y468495D01*
X534050Y465139D01*
X539137Y462547D01*
X544567Y460783D01*
X550205Y459890D01*
X555914D01*
X561553Y460783D01*
X566983Y462547D01*
X572070Y465139D01*
X576688Y468495D01*
X580725Y472532D01*
X584081Y477150D01*
X586673Y482237D01*
X588437Y487667D01*
X589330Y493306D01*
Y499015D01*
X588437Y504653D01*
X586673Y510083D01*
X584081Y515170D01*
X580725Y519788D01*
X576688Y523825D01*
X572070Y527181D01*
X566983Y529773D01*
X561553Y531537D01*
X555914Y532430D01*
D02*
G37*
G36*
X1452705Y541270D02*
X1447295D01*
X1441931Y540564D01*
X1436706Y539164D01*
X1431708Y537093D01*
X1427022Y534388D01*
X1422730Y531095D01*
X1418905Y527270D01*
X1415612Y522978D01*
X1412907Y518292D01*
X1410836Y513294D01*
X1409436Y508069D01*
X1408730Y502705D01*
Y497295D01*
X1409436Y491931D01*
X1410836Y486706D01*
X1412907Y481708D01*
X1415612Y477022D01*
X1418905Y472730D01*
X1422730Y468905D01*
X1427022Y465612D01*
X1431708Y462907D01*
X1436706Y460836D01*
X1441931Y459436D01*
X1447295Y458730D01*
X1452705D01*
X1458069Y459436D01*
X1463294Y460836D01*
X1468292Y462907D01*
X1472978Y465612D01*
X1477270Y468905D01*
X1481095Y472730D01*
X1484388Y477022D01*
X1487093Y481708D01*
X1489164Y486706D01*
X1490564Y491931D01*
X1491270Y497295D01*
Y502705D01*
X1490564Y508069D01*
X1489164Y513294D01*
X1487093Y518292D01*
X1484388Y522978D01*
X1481095Y527270D01*
X1477270Y531095D01*
X1472978Y534388D01*
X1468292Y537093D01*
X1463294Y539164D01*
X1458069Y540564D01*
X1452705Y541270D01*
D02*
G37*
G36*
X52705D02*
X47295D01*
X41931Y540564D01*
X36706Y539164D01*
X31708Y537093D01*
X27022Y534388D01*
X22730Y531095D01*
X18905Y527270D01*
X15612Y522978D01*
X12907Y518292D01*
X10836Y513294D01*
X9436Y508069D01*
X8730Y502705D01*
Y497295D01*
X9436Y491931D01*
X10836Y486706D01*
X12907Y481708D01*
X15612Y477022D01*
X18905Y472730D01*
X22730Y468905D01*
X27022Y465612D01*
X31708Y462907D01*
X36706Y460836D01*
X41931Y459436D01*
X47295Y458730D01*
X52705D01*
X58069Y459436D01*
X63294Y460836D01*
X68292Y462907D01*
X72978Y465612D01*
X77270Y468905D01*
X81095Y472730D01*
X84388Y477022D01*
X87093Y481708D01*
X89164Y486706D01*
X90564Y491931D01*
X91270Y497295D01*
Y502705D01*
X90564Y508069D01*
X89164Y513294D01*
X87093Y518292D01*
X84388Y522978D01*
X81095Y527270D01*
X77270Y531095D01*
X72978Y534388D01*
X68292Y537093D01*
X63294Y539164D01*
X58069Y540564D01*
X52705Y541270D01*
D02*
G37*
G36*
X1470948Y454770D02*
X1469051D01*
X1467298Y454044D01*
X1465956Y452702D01*
X1465230Y450949D01*
Y449051D01*
X1465956Y447298D01*
X1467298Y445956D01*
X1469051Y445230D01*
X1470948D01*
X1472702Y445956D01*
X1474043Y447298D01*
X1474769Y449051D01*
Y450949D01*
X1474043Y452702D01*
X1472702Y454044D01*
X1470948Y454770D01*
D02*
G37*
G36*
X1440948D02*
X1439051D01*
X1437298Y454044D01*
X1435956Y452702D01*
X1435230Y450949D01*
Y449051D01*
X1435956Y447298D01*
X1437298Y445956D01*
X1439051Y445230D01*
X1440948D01*
X1442702Y445956D01*
X1444043Y447298D01*
X1444770Y449051D01*
Y450949D01*
X1444043Y452702D01*
X1442702Y454044D01*
X1440948Y454770D01*
D02*
G37*
G36*
X1410948D02*
X1409051D01*
X1407298Y454044D01*
X1405956Y452702D01*
X1405230Y450949D01*
Y449051D01*
X1405956Y447298D01*
X1407298Y445956D01*
X1409051Y445230D01*
X1410948D01*
X1412702Y445956D01*
X1414043Y447298D01*
X1414770Y449051D01*
Y450949D01*
X1414043Y452702D01*
X1412702Y454044D01*
X1410948Y454770D01*
D02*
G37*
G36*
X1380948D02*
X1379051D01*
X1377298Y454044D01*
X1375956Y452702D01*
X1375230Y450949D01*
Y449051D01*
X1375956Y447298D01*
X1377298Y445956D01*
X1379051Y445230D01*
X1380948D01*
X1382702Y445956D01*
X1384043Y447298D01*
X1384770Y449051D01*
Y450949D01*
X1384043Y452702D01*
X1382702Y454044D01*
X1380948Y454770D01*
D02*
G37*
G36*
X1350948D02*
X1349051D01*
X1347298Y454044D01*
X1345956Y452702D01*
X1345230Y450949D01*
Y449051D01*
X1345956Y447298D01*
X1347298Y445956D01*
X1349051Y445230D01*
X1350948D01*
X1352702Y445956D01*
X1354043Y447298D01*
X1354770Y449051D01*
Y450949D01*
X1354043Y452702D01*
X1352702Y454044D01*
X1350948Y454770D01*
D02*
G37*
G36*
X1320948D02*
X1319051D01*
X1317298Y454044D01*
X1315956Y452702D01*
X1315230Y450949D01*
Y449051D01*
X1315956Y447298D01*
X1317298Y445956D01*
X1319051Y445230D01*
X1320948D01*
X1322702Y445956D01*
X1324043Y447298D01*
X1324770Y449051D01*
Y450949D01*
X1324043Y452702D01*
X1322702Y454044D01*
X1320948Y454770D01*
D02*
G37*
G36*
X180949D02*
X179051D01*
X177298Y454044D01*
X175956Y452702D01*
X175230Y450949D01*
Y449051D01*
X175956Y447298D01*
X177298Y445956D01*
X179051Y445230D01*
X180949D01*
X182702Y445956D01*
X184044Y447298D01*
X184770Y449051D01*
Y450949D01*
X184044Y452702D01*
X182702Y454044D01*
X180949Y454770D01*
D02*
G37*
G36*
X150949D02*
X149051D01*
X147298Y454044D01*
X145956Y452702D01*
X145230Y450949D01*
Y449051D01*
X145956Y447298D01*
X147298Y445956D01*
X149051Y445230D01*
X150949D01*
X152702Y445956D01*
X154044Y447298D01*
X154770Y449051D01*
Y450949D01*
X154044Y452702D01*
X152702Y454044D01*
X150949Y454770D01*
D02*
G37*
G36*
X60949D02*
X59051D01*
X57298Y454044D01*
X55956Y452702D01*
X55230Y450949D01*
Y449051D01*
X55956Y447298D01*
X57298Y445956D01*
X59051Y445230D01*
X60949D01*
X62702Y445956D01*
X64044Y447298D01*
X64770Y449051D01*
Y450949D01*
X64044Y452702D01*
X62702Y454044D01*
X60949Y454770D01*
D02*
G37*
G36*
X30949D02*
X29051D01*
X27298Y454044D01*
X25956Y452702D01*
X25230Y450949D01*
Y449051D01*
X25956Y447298D01*
X27298Y445956D01*
X29051Y445230D01*
X30949D01*
X32702Y445956D01*
X34044Y447298D01*
X34770Y449051D01*
Y450949D01*
X34044Y452702D01*
X32702Y454044D01*
X30949Y454770D01*
D02*
G37*
G36*
X466840Y427870D02*
X465340D01*
X463955Y427296D01*
X462894Y426236D01*
X462320Y424850D01*
Y423350D01*
X462894Y421964D01*
X463955Y420904D01*
X465340Y420330D01*
X466840D01*
X468226Y420904D01*
X469286Y421964D01*
X469860Y423350D01*
Y424850D01*
X469286Y426236D01*
X468226Y427296D01*
X466840Y427870D01*
D02*
G37*
G36*
X765949Y424770D02*
X764051D01*
X762298Y424044D01*
X760956Y422702D01*
X760230Y420949D01*
Y419051D01*
X760956Y417298D01*
X762298Y415956D01*
X764051Y415230D01*
X765949D01*
X767702Y415956D01*
X769044Y417298D01*
X769770Y419051D01*
Y420949D01*
X769044Y422702D01*
X767702Y424044D01*
X765949Y424770D01*
D02*
G37*
G36*
X705949D02*
X704051D01*
X702298Y424044D01*
X700956Y422702D01*
X700230Y420949D01*
Y419051D01*
X700956Y417298D01*
X702298Y415956D01*
X704051Y415230D01*
X705949D01*
X707702Y415956D01*
X709044Y417298D01*
X709770Y419051D01*
Y420949D01*
X709044Y422702D01*
X707702Y424044D01*
X705949Y424770D01*
D02*
G37*
G36*
X675949D02*
X674051D01*
X672298Y424044D01*
X670956Y422702D01*
X670230Y420949D01*
Y419051D01*
X670956Y417298D01*
X672298Y415956D01*
X674051Y415230D01*
X675949D01*
X677702Y415956D01*
X679044Y417298D01*
X679770Y419051D01*
Y420949D01*
X679044Y422702D01*
X677702Y424044D01*
X675949Y424770D01*
D02*
G37*
G36*
X645949D02*
X644051D01*
X642298Y424044D01*
X640956Y422702D01*
X640230Y420949D01*
Y419051D01*
X640956Y417298D01*
X642298Y415956D01*
X644051Y415230D01*
X645949D01*
X647702Y415956D01*
X649044Y417298D01*
X649770Y419051D01*
Y420949D01*
X649044Y422702D01*
X647702Y424044D01*
X645949Y424770D01*
D02*
G37*
G36*
X615949D02*
X614051D01*
X612298Y424044D01*
X610956Y422702D01*
X610230Y420949D01*
Y419051D01*
X610956Y417298D01*
X612298Y415956D01*
X614051Y415230D01*
X615949D01*
X617702Y415956D01*
X619044Y417298D01*
X619770Y419051D01*
Y420949D01*
X619044Y422702D01*
X617702Y424044D01*
X615949Y424770D01*
D02*
G37*
G36*
X585949D02*
X584051D01*
X582298Y424044D01*
X580956Y422702D01*
X580230Y420949D01*
Y419051D01*
X580956Y417298D01*
X582298Y415956D01*
X584051Y415230D01*
X585949D01*
X587702Y415956D01*
X589044Y417298D01*
X589770Y419051D01*
Y420949D01*
X589044Y422702D01*
X587702Y424044D01*
X585949Y424770D01*
D02*
G37*
G36*
X555949D02*
X554051D01*
X552298Y424044D01*
X550956Y422702D01*
X550230Y420949D01*
Y419051D01*
X550956Y417298D01*
X552298Y415956D01*
X554051Y415230D01*
X555949D01*
X557702Y415956D01*
X559044Y417298D01*
X559770Y419051D01*
Y420949D01*
X559044Y422702D01*
X557702Y424044D01*
X555949Y424770D01*
D02*
G37*
G36*
X525949D02*
X524051D01*
X522298Y424044D01*
X520956Y422702D01*
X520230Y420949D01*
Y419051D01*
X520956Y417298D01*
X522298Y415956D01*
X524051Y415230D01*
X525949D01*
X527702Y415956D01*
X529044Y417298D01*
X529770Y419051D01*
Y420949D01*
X529044Y422702D01*
X527702Y424044D01*
X525949Y424770D01*
D02*
G37*
G36*
X435949D02*
X434051D01*
X432298Y424044D01*
X430956Y422702D01*
X430230Y420949D01*
Y419051D01*
X430956Y417298D01*
X432298Y415956D01*
X434051Y415230D01*
X435949D01*
X437702Y415956D01*
X439044Y417298D01*
X439770Y419051D01*
Y420949D01*
X439044Y422702D01*
X437702Y424044D01*
X435949Y424770D01*
D02*
G37*
G36*
X396990Y427870D02*
X395490D01*
X394104Y427296D01*
X393044Y426236D01*
X392470Y424850D01*
Y423350D01*
X393044Y421964D01*
X394104Y420904D01*
X395490Y420330D01*
X396990D01*
X398376Y420904D01*
X399163Y421691D01*
X400239Y420972D01*
X400230Y420949D01*
Y419051D01*
X400956Y417298D01*
X402298Y415956D01*
X404051Y415230D01*
X405949D01*
X407702Y415956D01*
X409044Y417298D01*
X409770Y419051D01*
Y420949D01*
X409044Y422702D01*
X407702Y424044D01*
X405949Y424770D01*
X404051D01*
X402298Y424044D01*
X401183Y422929D01*
X400453Y423191D01*
X400010Y423484D01*
Y424850D01*
X399436Y426236D01*
X398376Y427296D01*
X396990Y427870D01*
D02*
G37*
G36*
X375949Y424770D02*
X374051D01*
X372298Y424044D01*
X370956Y422702D01*
X370230Y420949D01*
Y419051D01*
X370956Y417298D01*
X372298Y415956D01*
X374051Y415230D01*
X375949D01*
X377702Y415956D01*
X379044Y417298D01*
X379770Y419051D01*
Y420949D01*
X379044Y422702D01*
X377702Y424044D01*
X375949Y424770D01*
D02*
G37*
G36*
X345949D02*
X344051D01*
X342298Y424044D01*
X340956Y422702D01*
X340230Y420949D01*
Y419051D01*
X340956Y417298D01*
X342298Y415956D01*
X344051Y415230D01*
X345949D01*
X347702Y415956D01*
X349044Y417298D01*
X349770Y419051D01*
Y420949D01*
X349044Y422702D01*
X347702Y424044D01*
X345949Y424770D01*
D02*
G37*
G36*
X315949D02*
X314051D01*
X312298Y424044D01*
X310956Y422702D01*
X310230Y420949D01*
Y419051D01*
X310956Y417298D01*
X312298Y415956D01*
X314051Y415230D01*
X315949D01*
X317702Y415956D01*
X319044Y417298D01*
X319770Y419051D01*
Y420949D01*
X319044Y422702D01*
X317702Y424044D01*
X315949Y424770D01*
D02*
G37*
G36*
X285949D02*
X284051D01*
X282298Y424044D01*
X280956Y422702D01*
X280230Y420949D01*
Y419051D01*
X280956Y417298D01*
X282298Y415956D01*
X284051Y415230D01*
X285949D01*
X287702Y415956D01*
X289044Y417298D01*
X289770Y419051D01*
Y420949D01*
X289044Y422702D01*
X287702Y424044D01*
X285949Y424770D01*
D02*
G37*
G36*
X255949D02*
X254051D01*
X252298Y424044D01*
X250956Y422702D01*
X250230Y420949D01*
Y419051D01*
X250956Y417298D01*
X252298Y415956D01*
X254051Y415230D01*
X255949D01*
X257702Y415956D01*
X259044Y417298D01*
X259770Y419051D01*
Y420949D01*
X259044Y422702D01*
X257702Y424044D01*
X255949Y424770D01*
D02*
G37*
G36*
X225949D02*
X224051D01*
X222298Y424044D01*
X220956Y422702D01*
X220230Y420949D01*
Y419051D01*
X220956Y417298D01*
X222298Y415956D01*
X224051Y415230D01*
X225949D01*
X227702Y415956D01*
X229044Y417298D01*
X229770Y419051D01*
Y420949D01*
X229044Y422702D01*
X227702Y424044D01*
X225949Y424770D01*
D02*
G37*
G36*
X45949D02*
X44051D01*
X42298Y424044D01*
X40956Y422702D01*
X40230Y420949D01*
Y419051D01*
X40956Y417298D01*
X42298Y415956D01*
X44051Y415230D01*
X45949D01*
X47702Y415956D01*
X49044Y417298D01*
X49770Y419051D01*
Y420949D01*
X49044Y422702D01*
X47702Y424044D01*
X45949Y424770D01*
D02*
G37*
G36*
X108951Y429415D02*
X106149D01*
X103441Y428689D01*
X101014Y427288D01*
X99032Y425306D01*
X97631Y422879D01*
X96905Y420171D01*
Y417369D01*
X97631Y414661D01*
X99032Y412234D01*
X101014Y410252D01*
X103441Y408851D01*
X106149Y408125D01*
X108951D01*
X111659Y408851D01*
X114086Y410252D01*
X116068Y412234D01*
X117470Y414661D01*
X118195Y417369D01*
Y420171D01*
X117470Y422879D01*
X116068Y425306D01*
X114086Y427288D01*
X111659Y428689D01*
X108951Y429415D01*
D02*
G37*
G36*
X83951D02*
X81149D01*
X78441Y428689D01*
X76014Y427288D01*
X74032Y425306D01*
X72631Y422879D01*
X71905Y420171D01*
Y417369D01*
X72631Y414661D01*
X74032Y412234D01*
X76014Y410252D01*
X78441Y408851D01*
X81149Y408125D01*
X83951D01*
X86659Y408851D01*
X89086Y410252D01*
X91068Y412234D01*
X92470Y414661D01*
X93195Y417369D01*
Y420171D01*
X92470Y422879D01*
X91068Y425306D01*
X89086Y427288D01*
X86659Y428689D01*
X83951Y429415D01*
D02*
G37*
G36*
X479540Y393660D02*
X478040D01*
X476655Y393086D01*
X475594Y392025D01*
X475020Y390640D01*
Y389140D01*
X475594Y387755D01*
X476655Y386694D01*
X478040Y386120D01*
X479540D01*
X480925Y386694D01*
X481986Y387755D01*
X482560Y389140D01*
Y390640D01*
X481986Y392025D01*
X480925Y393086D01*
X479540Y393660D01*
D02*
G37*
G36*
X1470948Y394770D02*
X1469051D01*
X1467298Y394044D01*
X1465956Y392702D01*
X1465230Y390949D01*
Y389051D01*
X1465956Y387298D01*
X1467298Y385956D01*
X1469051Y385230D01*
X1470948D01*
X1472702Y385956D01*
X1474043Y387298D01*
X1474769Y389051D01*
Y390949D01*
X1474043Y392702D01*
X1472702Y394044D01*
X1470948Y394770D01*
D02*
G37*
G36*
X1440948D02*
X1439051D01*
X1437298Y394044D01*
X1435956Y392702D01*
X1435230Y390949D01*
Y389051D01*
X1435956Y387298D01*
X1437298Y385956D01*
X1439051Y385230D01*
X1440948D01*
X1442702Y385956D01*
X1444043Y387298D01*
X1444770Y389051D01*
Y390949D01*
X1444043Y392702D01*
X1442702Y394044D01*
X1440948Y394770D01*
D02*
G37*
G36*
X750949D02*
X749051D01*
X747298Y394044D01*
X745956Y392702D01*
X745230Y390949D01*
Y389051D01*
X745956Y387298D01*
X747298Y385956D01*
X749051Y385230D01*
X750949D01*
X752702Y385956D01*
X754044Y387298D01*
X754770Y389051D01*
Y390949D01*
X754044Y392702D01*
X752702Y394044D01*
X750949Y394770D01*
D02*
G37*
G36*
X30949D02*
X29051D01*
X27298Y394044D01*
X25956Y392702D01*
X25230Y390949D01*
Y389051D01*
X25956Y387298D01*
X27298Y385956D01*
X29051Y385230D01*
X30949D01*
X32702Y385956D01*
X34044Y387298D01*
X34770Y389051D01*
Y390949D01*
X34044Y392702D01*
X32702Y394044D01*
X30949Y394770D01*
D02*
G37*
G36*
X108951Y404415D02*
X106149D01*
X103441Y403689D01*
X101014Y402288D01*
X99032Y400306D01*
X97631Y397879D01*
X96905Y395171D01*
Y392369D01*
X97631Y389661D01*
X99032Y387234D01*
X101014Y385252D01*
X103441Y383851D01*
X106149Y383125D01*
X108951D01*
X111659Y383851D01*
X114086Y385252D01*
X116068Y387234D01*
X117470Y389661D01*
X118195Y392369D01*
Y395171D01*
X117470Y397879D01*
X116068Y400306D01*
X114086Y402288D01*
X111659Y403689D01*
X108951Y404415D01*
D02*
G37*
G36*
X83951D02*
X81149D01*
X78441Y403689D01*
X76014Y402288D01*
X74032Y400306D01*
X72631Y397879D01*
X71905Y395171D01*
Y392369D01*
X72631Y389661D01*
X74032Y387234D01*
X76014Y385252D01*
X78441Y383851D01*
X81149Y383125D01*
X83951D01*
X86659Y383851D01*
X89086Y385252D01*
X91068Y387234D01*
X92470Y389661D01*
X93195Y392369D01*
Y395171D01*
X92470Y397879D01*
X91068Y400306D01*
X89086Y402288D01*
X86659Y403689D01*
X83951Y404415D01*
D02*
G37*
G36*
X496050Y388580D02*
X494550D01*
X493164Y388006D01*
X492104Y386945D01*
X491530Y385560D01*
Y384060D01*
X492104Y382674D01*
X493164Y381614D01*
X494550Y381040D01*
X496050D01*
X497435Y381614D01*
X498496Y382674D01*
X499070Y384060D01*
Y385560D01*
X498496Y386945D01*
X497435Y388006D01*
X496050Y388580D01*
D02*
G37*
G36*
X1406291Y394485D02*
X1403489D01*
X1400781Y393759D01*
X1398354Y392358D01*
X1396372Y390376D01*
X1394971Y387949D01*
X1394245Y385241D01*
Y382439D01*
X1394971Y379731D01*
X1396372Y377304D01*
X1398354Y375322D01*
X1400781Y373921D01*
X1403489Y373195D01*
X1406291D01*
X1408999Y373921D01*
X1411426Y375322D01*
X1413408Y377304D01*
X1414810Y379731D01*
X1415535Y382439D01*
Y385241D01*
X1414810Y387949D01*
X1413408Y390376D01*
X1411426Y392358D01*
X1408999Y393759D01*
X1406291Y394485D01*
D02*
G37*
G36*
X1381291D02*
X1378489D01*
X1375781Y393759D01*
X1373354Y392358D01*
X1371372Y390376D01*
X1369971Y387949D01*
X1369245Y385241D01*
Y382439D01*
X1369971Y379731D01*
X1371372Y377304D01*
X1373354Y375322D01*
X1375781Y373921D01*
X1378489Y373195D01*
X1381291D01*
X1383999Y373921D01*
X1386426Y375322D01*
X1388408Y377304D01*
X1389810Y379731D01*
X1390535Y382439D01*
Y385241D01*
X1389810Y387949D01*
X1388408Y390376D01*
X1386426Y392358D01*
X1383999Y393759D01*
X1381291Y394485D01*
D02*
G37*
G36*
X1356291D02*
X1353489D01*
X1350781Y393759D01*
X1348354Y392358D01*
X1346372Y390376D01*
X1344971Y387949D01*
X1344245Y385241D01*
Y382439D01*
X1344971Y379731D01*
X1346372Y377304D01*
X1348354Y375322D01*
X1350781Y373921D01*
X1353489Y373195D01*
X1356291D01*
X1358999Y373921D01*
X1361426Y375322D01*
X1363408Y377304D01*
X1364810Y379731D01*
X1365535Y382439D01*
Y385241D01*
X1364810Y387949D01*
X1363408Y390376D01*
X1361426Y392358D01*
X1358999Y393759D01*
X1356291Y394485D01*
D02*
G37*
G36*
X1331291D02*
X1328489D01*
X1325781Y393759D01*
X1323354Y392358D01*
X1321372Y390376D01*
X1319971Y387949D01*
X1319245Y385241D01*
Y382439D01*
X1319971Y379731D01*
X1321372Y377304D01*
X1323354Y375322D01*
X1325781Y373921D01*
X1328489Y373195D01*
X1331291D01*
X1333999Y373921D01*
X1336426Y375322D01*
X1338408Y377304D01*
X1339810Y379731D01*
X1340535Y382439D01*
Y385241D01*
X1339810Y387949D01*
X1338408Y390376D01*
X1336426Y392358D01*
X1333999Y393759D01*
X1331291Y394485D01*
D02*
G37*
G36*
X1281291D02*
X1278489D01*
X1275781Y393759D01*
X1273354Y392358D01*
X1271372Y390376D01*
X1269970Y387949D01*
X1269245Y385241D01*
Y382439D01*
X1269970Y379731D01*
X1271372Y377304D01*
X1273354Y375322D01*
X1275781Y373921D01*
X1278489Y373195D01*
X1281291D01*
X1283999Y373921D01*
X1286426Y375322D01*
X1288408Y377304D01*
X1289810Y379731D01*
X1290535Y382439D01*
Y385241D01*
X1289810Y387949D01*
X1288408Y390376D01*
X1286426Y392358D01*
X1283999Y393759D01*
X1281291Y394485D01*
D02*
G37*
G36*
X83951Y379415D02*
X81149D01*
X78441Y378689D01*
X76014Y377288D01*
X74032Y375306D01*
X72631Y372879D01*
X71905Y370171D01*
Y367369D01*
X72631Y364661D01*
X73098Y363852D01*
X72168Y362922D01*
X71956Y363045D01*
X70107Y363540D01*
X68193D01*
X66344Y363045D01*
X64686Y362087D01*
X63333Y360734D01*
X62375Y359076D01*
X61880Y357227D01*
Y355313D01*
X62375Y353464D01*
X63333Y351806D01*
X64686Y350453D01*
X66344Y349495D01*
X68193Y349000D01*
X70107D01*
X71956Y349495D01*
X72168Y349618D01*
X73098Y348688D01*
X72631Y347879D01*
X71905Y345171D01*
Y342369D01*
X72631Y339661D01*
X74032Y337234D01*
X76014Y335252D01*
X78441Y333851D01*
X81149Y333125D01*
X83951D01*
X86659Y333851D01*
X89086Y335252D01*
X91068Y337234D01*
X92470Y339661D01*
X93195Y342369D01*
Y345171D01*
X92470Y347879D01*
X91068Y350306D01*
X89086Y352288D01*
X86659Y353689D01*
X83951Y354415D01*
X81149D01*
X78441Y353689D01*
X77031Y352875D01*
X76599Y353105D01*
X76000Y353747D01*
X76420Y355313D01*
Y357227D01*
X76000Y358793D01*
X76599Y359435D01*
X77031Y359665D01*
X78441Y358851D01*
X81149Y358125D01*
X83951D01*
X86659Y358851D01*
X89086Y360252D01*
X91068Y362234D01*
X92470Y364661D01*
X93195Y367369D01*
Y370171D01*
X92470Y372879D01*
X91068Y375306D01*
X89086Y377288D01*
X86659Y378689D01*
X83951Y379415D01*
D02*
G37*
G36*
X480810Y369530D02*
X479310D01*
X477924Y368956D01*
X476864Y367896D01*
X476290Y366510D01*
Y365010D01*
X476864Y363624D01*
X477924Y362564D01*
X479310Y361990D01*
X480810D01*
X482196Y362564D01*
X483256Y363624D01*
X483830Y365010D01*
Y366510D01*
X483256Y367896D01*
X482196Y368956D01*
X480810Y369530D01*
D02*
G37*
G36*
X459220Y368260D02*
X457720D01*
X456334Y367686D01*
X455274Y366626D01*
X454700Y365240D01*
Y363740D01*
X455274Y362355D01*
X456334Y361294D01*
X457720Y360720D01*
X459220D01*
X460606Y361294D01*
X461666Y362355D01*
X462240Y363740D01*
Y365240D01*
X461666Y366626D01*
X460606Y367686D01*
X459220Y368260D01*
D02*
G37*
G36*
X108951Y379415D02*
X106149D01*
X103441Y378689D01*
X101014Y377288D01*
X99032Y375306D01*
X97631Y372879D01*
X96905Y370171D01*
Y367369D01*
X97631Y364661D01*
X99032Y362234D01*
X101014Y360252D01*
X103441Y358851D01*
X106149Y358125D01*
X108951D01*
X111659Y358851D01*
X114086Y360252D01*
X116068Y362234D01*
X117470Y364661D01*
X118195Y367369D01*
Y370171D01*
X117470Y372879D01*
X116068Y375306D01*
X114086Y377288D01*
X111659Y378689D01*
X108951Y379415D01*
D02*
G37*
G36*
X1485948Y364770D02*
X1484051D01*
X1482298Y364044D01*
X1480956Y362702D01*
X1480230Y360949D01*
Y359051D01*
X1480956Y357298D01*
X1482298Y355956D01*
X1484051Y355230D01*
X1485948D01*
X1487702Y355956D01*
X1489043Y357298D01*
X1489769Y359051D01*
Y360949D01*
X1489043Y362702D01*
X1487702Y364044D01*
X1485948Y364770D01*
D02*
G37*
G36*
X1455948D02*
X1454051D01*
X1452298Y364044D01*
X1450956Y362702D01*
X1450230Y360949D01*
Y359051D01*
X1450956Y357298D01*
X1452298Y355956D01*
X1454051Y355230D01*
X1455948D01*
X1457702Y355956D01*
X1459043Y357298D01*
X1459769Y359051D01*
Y360949D01*
X1459043Y362702D01*
X1457702Y364044D01*
X1455948Y364770D01*
D02*
G37*
G36*
X1425948D02*
X1424051D01*
X1422298Y364044D01*
X1420956Y362702D01*
X1420230Y360949D01*
Y359051D01*
X1420956Y357298D01*
X1422298Y355956D01*
X1424051Y355230D01*
X1425948D01*
X1427702Y355956D01*
X1429043Y357298D01*
X1429770Y359051D01*
Y360949D01*
X1429043Y362702D01*
X1427702Y364044D01*
X1425948Y364770D01*
D02*
G37*
G36*
X45949D02*
X44051D01*
X42298Y364044D01*
X40956Y362702D01*
X40230Y360949D01*
Y359051D01*
X40956Y357298D01*
X42298Y355956D01*
X44051Y355230D01*
X45949D01*
X47702Y355956D01*
X49044Y357298D01*
X49770Y359051D01*
Y360949D01*
X49044Y362702D01*
X47702Y364044D01*
X45949Y364770D01*
D02*
G37*
G36*
X1356291Y369485D02*
X1353489D01*
X1350781Y368759D01*
X1348354Y367358D01*
X1346372Y365376D01*
X1344971Y362949D01*
X1344245Y360241D01*
Y357439D01*
X1344971Y354731D01*
X1345785Y353321D01*
X1345555Y352888D01*
X1344913Y352290D01*
X1343347Y352710D01*
X1341433D01*
X1339867Y352290D01*
X1339225Y352888D01*
X1338995Y353321D01*
X1339810Y354731D01*
X1340535Y357439D01*
Y360241D01*
X1339810Y362949D01*
X1338408Y365376D01*
X1336426Y367358D01*
X1333999Y368759D01*
X1331291Y369485D01*
X1328489D01*
X1325781Y368759D01*
X1323354Y367358D01*
X1321372Y365376D01*
X1319971Y362949D01*
X1319245Y360241D01*
Y357439D01*
X1319971Y354731D01*
X1321372Y352304D01*
X1323354Y350322D01*
X1325781Y348921D01*
X1328489Y348195D01*
X1331291D01*
X1333999Y348921D01*
X1334808Y349388D01*
X1335738Y348458D01*
X1335615Y348246D01*
X1335120Y346397D01*
Y344483D01*
X1335615Y342634D01*
X1336573Y340976D01*
X1337926Y339623D01*
X1339584Y338665D01*
X1341433Y338170D01*
X1343347D01*
X1345196Y338665D01*
X1346854Y339623D01*
X1348207Y340976D01*
X1349165Y342634D01*
X1349660Y344483D01*
Y346397D01*
X1349165Y348246D01*
X1349042Y348458D01*
X1349972Y349388D01*
X1350781Y348921D01*
X1353489Y348195D01*
X1356291D01*
X1358999Y348921D01*
X1361426Y350322D01*
X1363408Y352304D01*
X1364810Y354731D01*
X1365535Y357439D01*
Y360241D01*
X1364810Y362949D01*
X1363408Y365376D01*
X1361426Y367358D01*
X1358999Y368759D01*
X1356291Y369485D01*
D02*
G37*
G36*
X1406291D02*
X1403489D01*
X1400781Y368759D01*
X1398354Y367358D01*
X1396372Y365376D01*
X1394971Y362949D01*
X1394245Y360241D01*
Y357439D01*
X1394971Y354731D01*
X1396372Y352304D01*
X1398354Y350322D01*
X1400781Y348921D01*
X1403489Y348195D01*
X1406291D01*
X1408999Y348921D01*
X1411426Y350322D01*
X1413408Y352304D01*
X1414810Y354731D01*
X1415535Y357439D01*
Y360241D01*
X1414810Y362949D01*
X1413408Y365376D01*
X1411426Y367358D01*
X1408999Y368759D01*
X1406291Y369485D01*
D02*
G37*
G36*
X1381291D02*
X1378489D01*
X1375781Y368759D01*
X1373354Y367358D01*
X1371372Y365376D01*
X1369971Y362949D01*
X1369245Y360241D01*
Y357439D01*
X1369971Y354731D01*
X1371372Y352304D01*
X1373354Y350322D01*
X1375781Y348921D01*
X1378489Y348195D01*
X1381291D01*
X1383999Y348921D01*
X1386426Y350322D01*
X1388408Y352304D01*
X1389810Y354731D01*
X1390535Y357439D01*
Y360241D01*
X1389810Y362949D01*
X1388408Y365376D01*
X1386426Y367358D01*
X1383999Y368759D01*
X1381291Y369485D01*
D02*
G37*
G36*
X1306291D02*
X1303489D01*
X1300781Y368759D01*
X1298354Y367358D01*
X1296372Y365376D01*
X1294971Y362949D01*
X1294245Y360241D01*
Y357439D01*
X1294971Y354731D01*
X1296372Y352304D01*
X1298354Y350322D01*
X1300781Y348921D01*
X1303489Y348195D01*
X1306291D01*
X1308999Y348921D01*
X1311426Y350322D01*
X1313408Y352304D01*
X1314810Y354731D01*
X1315535Y357439D01*
Y360241D01*
X1314810Y362949D01*
X1313408Y365376D01*
X1311426Y367358D01*
X1308999Y368759D01*
X1306291Y369485D01*
D02*
G37*
G36*
X1281291D02*
X1278489D01*
X1275781Y368759D01*
X1273354Y367358D01*
X1271372Y365376D01*
X1269970Y362949D01*
X1269245Y360241D01*
Y357439D01*
X1269970Y354731D01*
X1271372Y352304D01*
X1273354Y350322D01*
X1275781Y348921D01*
X1278489Y348195D01*
X1281291D01*
X1283999Y348921D01*
X1286426Y350322D01*
X1288408Y352304D01*
X1289810Y354731D01*
X1290535Y357439D01*
Y360241D01*
X1289810Y362949D01*
X1288408Y365376D01*
X1286426Y367358D01*
X1283999Y368759D01*
X1281291Y369485D01*
D02*
G37*
G36*
X108951Y354415D02*
X106149D01*
X103441Y353689D01*
X101014Y352288D01*
X99032Y350306D01*
X97631Y347879D01*
X96905Y345171D01*
Y342369D01*
X97631Y339661D01*
X99032Y337234D01*
X101014Y335252D01*
X103441Y333851D01*
X106149Y333125D01*
X108951D01*
X111659Y333851D01*
X114086Y335252D01*
X116068Y337234D01*
X117470Y339661D01*
X118195Y342369D01*
Y345171D01*
X117470Y347879D01*
X116068Y350306D01*
X114086Y352288D01*
X111659Y353689D01*
X108951Y354415D01*
D02*
G37*
G36*
X1470948Y334770D02*
X1469051D01*
X1467298Y334044D01*
X1465956Y332702D01*
X1465230Y330949D01*
Y329051D01*
X1465956Y327298D01*
X1467298Y325956D01*
X1469051Y325230D01*
X1470948D01*
X1472702Y325956D01*
X1474043Y327298D01*
X1474769Y329051D01*
Y330949D01*
X1474043Y332702D01*
X1472702Y334044D01*
X1470948Y334770D01*
D02*
G37*
G36*
X1440948D02*
X1439051D01*
X1437298Y334044D01*
X1435956Y332702D01*
X1435230Y330949D01*
Y329051D01*
X1435956Y327298D01*
X1437298Y325956D01*
X1439051Y325230D01*
X1440948D01*
X1442702Y325956D01*
X1444043Y327298D01*
X1444770Y329051D01*
Y330949D01*
X1444043Y332702D01*
X1442702Y334044D01*
X1440948Y334770D01*
D02*
G37*
G36*
X720949D02*
X719051D01*
X717298Y334044D01*
X715956Y332702D01*
X715230Y330949D01*
Y329051D01*
X715956Y327298D01*
X717298Y325956D01*
X719051Y325230D01*
X720949D01*
X722702Y325956D01*
X724044Y327298D01*
X724770Y329051D01*
Y330949D01*
X724044Y332702D01*
X722702Y334044D01*
X720949Y334770D01*
D02*
G37*
G36*
X660949D02*
X659051D01*
X657298Y334044D01*
X655956Y332702D01*
X655230Y330949D01*
Y329051D01*
X655956Y327298D01*
X657298Y325956D01*
X659051Y325230D01*
X660949D01*
X662702Y325956D01*
X664044Y327298D01*
X664770Y329051D01*
Y330949D01*
X664044Y332702D01*
X662702Y334044D01*
X660949Y334770D01*
D02*
G37*
G36*
X630949D02*
X629051D01*
X627298Y334044D01*
X625956Y332702D01*
X625230Y330949D01*
Y329051D01*
X625956Y327298D01*
X627298Y325956D01*
X629051Y325230D01*
X630949D01*
X632702Y325956D01*
X634044Y327298D01*
X634770Y329051D01*
Y330949D01*
X634044Y332702D01*
X632702Y334044D01*
X630949Y334770D01*
D02*
G37*
G36*
X60949D02*
X59051D01*
X57298Y334044D01*
X55956Y332702D01*
X55230Y330949D01*
Y329051D01*
X55956Y327298D01*
X57298Y325956D01*
X59051Y325230D01*
X60949D01*
X62702Y325956D01*
X64044Y327298D01*
X64770Y329051D01*
Y330949D01*
X64044Y332702D01*
X62702Y334044D01*
X60949Y334770D01*
D02*
G37*
G36*
X30949D02*
X29051D01*
X27298Y334044D01*
X25956Y332702D01*
X25230Y330949D01*
Y329051D01*
X25956Y327298D01*
X27298Y325956D01*
X29051Y325230D01*
X30949D01*
X32702Y325956D01*
X34044Y327298D01*
X34770Y329051D01*
Y330949D01*
X34044Y332702D01*
X32702Y334044D01*
X30949Y334770D01*
D02*
G37*
G36*
X463030Y332700D02*
X461530D01*
X460145Y332126D01*
X459084Y331065D01*
X458510Y329680D01*
Y328180D01*
X459084Y326795D01*
X460145Y325734D01*
X461530Y325160D01*
X463030D01*
X464416Y325734D01*
X465476Y326795D01*
X466050Y328180D01*
Y329680D01*
X465476Y331065D01*
X464416Y332126D01*
X463030Y332700D01*
D02*
G37*
G36*
X477000Y331430D02*
X475500D01*
X474114Y330856D01*
X473054Y329795D01*
X472480Y328410D01*
Y326910D01*
X473054Y325524D01*
X474114Y324464D01*
X475500Y323890D01*
X477000D01*
X478386Y324464D01*
X479446Y325524D01*
X480020Y326910D01*
Y328410D01*
X479446Y329795D01*
X478386Y330856D01*
X477000Y331430D01*
D02*
G37*
G36*
X959799Y321000D02*
X957901D01*
X956148Y320274D01*
X954806Y318932D01*
X954080Y317179D01*
Y315281D01*
X954806Y313528D01*
X956148Y312186D01*
X957901Y311460D01*
X959799D01*
X961552Y312186D01*
X962894Y313528D01*
X963620Y315281D01*
Y317179D01*
X962894Y318932D01*
X961552Y320274D01*
X959799Y321000D01*
D02*
G37*
G36*
X108951Y329415D02*
X106149D01*
X103441Y328689D01*
X101014Y327288D01*
X99032Y325306D01*
X97631Y322879D01*
X96905Y320171D01*
Y317369D01*
X97631Y314661D01*
X99032Y312234D01*
X101014Y310252D01*
X103441Y308850D01*
X106149Y308125D01*
X108951D01*
X111659Y308850D01*
X114086Y310252D01*
X116068Y312234D01*
X117470Y314661D01*
X118195Y317369D01*
Y320171D01*
X117470Y322879D01*
X116068Y325306D01*
X114086Y327288D01*
X111659Y328689D01*
X108951Y329415D01*
D02*
G37*
G36*
X83951D02*
X81149D01*
X78441Y328689D01*
X76014Y327288D01*
X74032Y325306D01*
X72631Y322879D01*
X71905Y320171D01*
Y317369D01*
X72631Y314661D01*
X74032Y312234D01*
X76014Y310252D01*
X78441Y308850D01*
X81149Y308125D01*
X83951D01*
X86659Y308850D01*
X89086Y310252D01*
X91068Y312234D01*
X92470Y314661D01*
X93195Y317369D01*
Y320171D01*
X92470Y322879D01*
X91068Y325306D01*
X89086Y327288D01*
X86659Y328689D01*
X83951Y329415D01*
D02*
G37*
G36*
X346190Y313650D02*
X344690D01*
X343304Y313076D01*
X342244Y312015D01*
X341670Y310630D01*
Y309130D01*
X342244Y307745D01*
X343304Y306684D01*
X344690Y306110D01*
X346190D01*
X347575Y306684D01*
X348636Y307745D01*
X349210Y309130D01*
Y310630D01*
X348636Y312015D01*
X347575Y313076D01*
X346190Y313650D01*
D02*
G37*
G36*
X271260Y312380D02*
X269760D01*
X268375Y311806D01*
X267314Y310746D01*
X266740Y309360D01*
Y307860D01*
X267314Y306474D01*
X268375Y305414D01*
X269760Y304840D01*
X271260D01*
X272645Y305414D01*
X273706Y306474D01*
X274280Y307860D01*
Y309360D01*
X273706Y310746D01*
X272645Y311806D01*
X271260Y312380D01*
D02*
G37*
G36*
X948369Y308300D02*
X946471D01*
X944718Y307574D01*
X943376Y306232D01*
X942650Y304479D01*
Y302581D01*
X943376Y300828D01*
X944718Y299486D01*
X946471Y298760D01*
X948369D01*
X950122Y299486D01*
X951464Y300828D01*
X952190Y302581D01*
Y304479D01*
X951464Y306232D01*
X950122Y307574D01*
X948369Y308300D01*
D02*
G37*
G36*
X477000Y306030D02*
X475500D01*
X474114Y305456D01*
X473054Y304396D01*
X472480Y303010D01*
Y301510D01*
X473054Y300124D01*
X474114Y299064D01*
X475500Y298490D01*
X477000D01*
X478386Y299064D01*
X479446Y300124D01*
X480020Y301510D01*
Y303010D01*
X479446Y304396D01*
X478386Y305456D01*
X477000Y306030D01*
D02*
G37*
G36*
X464300Y303490D02*
X462800D01*
X461414Y302916D01*
X460354Y301856D01*
X459780Y300470D01*
Y298970D01*
X460354Y297584D01*
X461414Y296524D01*
X462800Y295950D01*
X464300D01*
X465686Y296524D01*
X466746Y297584D01*
X467320Y298970D01*
Y300470D01*
X466746Y301856D01*
X465686Y302916D01*
X464300Y303490D01*
D02*
G37*
G36*
X1485948Y304770D02*
X1484051D01*
X1482298Y304044D01*
X1480956Y302702D01*
X1480230Y300949D01*
Y299051D01*
X1480956Y297298D01*
X1482298Y295956D01*
X1484051Y295230D01*
X1485948D01*
X1487702Y295956D01*
X1489043Y297298D01*
X1489769Y299051D01*
Y300949D01*
X1489043Y302702D01*
X1487702Y304044D01*
X1485948Y304770D01*
D02*
G37*
G36*
X1455948D02*
X1454051D01*
X1452298Y304044D01*
X1450956Y302702D01*
X1450230Y300949D01*
Y299051D01*
X1450956Y297298D01*
X1452298Y295956D01*
X1454051Y295230D01*
X1455948D01*
X1457702Y295956D01*
X1459043Y297298D01*
X1459769Y299051D01*
Y300949D01*
X1459043Y302702D01*
X1457702Y304044D01*
X1455948Y304770D01*
D02*
G37*
G36*
X675949D02*
X674051D01*
X672298Y304044D01*
X670956Y302702D01*
X670230Y300949D01*
Y299051D01*
X670956Y297298D01*
X672298Y295956D01*
X674051Y295230D01*
X675949D01*
X677702Y295956D01*
X679044Y297298D01*
X679770Y299051D01*
Y300949D01*
X679044Y302702D01*
X677702Y304044D01*
X675949Y304770D01*
D02*
G37*
G36*
X645949D02*
X644051D01*
X642298Y304044D01*
X640956Y302702D01*
X640230Y300949D01*
Y299051D01*
X640956Y297298D01*
X642298Y295956D01*
X644051Y295230D01*
X645949D01*
X647702Y295956D01*
X649044Y297298D01*
X649770Y299051D01*
Y300949D01*
X649044Y302702D01*
X647702Y304044D01*
X645949Y304770D01*
D02*
G37*
G36*
X615949D02*
X614051D01*
X612298Y304044D01*
X610956Y302702D01*
X610230Y300949D01*
Y299051D01*
X610956Y297298D01*
X612298Y295956D01*
X614051Y295230D01*
X615949D01*
X617702Y295956D01*
X619044Y297298D01*
X619770Y299051D01*
Y300949D01*
X619044Y302702D01*
X617702Y304044D01*
X615949Y304770D01*
D02*
G37*
G36*
X585949D02*
X584051D01*
X582298Y304044D01*
X580956Y302702D01*
X580230Y300949D01*
Y299051D01*
X580956Y297298D01*
X582298Y295956D01*
X584051Y295230D01*
X585949D01*
X587702Y295956D01*
X589044Y297298D01*
X589770Y299051D01*
Y300949D01*
X589044Y302702D01*
X587702Y304044D01*
X585949Y304770D01*
D02*
G37*
G36*
X525949D02*
X524051D01*
X522298Y304044D01*
X520956Y302702D01*
X520230Y300949D01*
Y299051D01*
X520956Y297298D01*
X522298Y295956D01*
X524051Y295230D01*
X525949D01*
X527702Y295956D01*
X529044Y297298D01*
X529770Y299051D01*
Y300949D01*
X529044Y302702D01*
X527702Y304044D01*
X525949Y304770D01*
D02*
G37*
G36*
X375949D02*
X374051D01*
X372298Y304044D01*
X370956Y302702D01*
X370230Y300949D01*
Y299051D01*
X370956Y297298D01*
X372298Y295956D01*
X374051Y295230D01*
X375949D01*
X377702Y295956D01*
X379044Y297298D01*
X379770Y299051D01*
Y300949D01*
X379044Y302702D01*
X377702Y304044D01*
X375949Y304770D01*
D02*
G37*
G36*
X345949D02*
X344051D01*
X342298Y304044D01*
X340956Y302702D01*
X340230Y300949D01*
Y299051D01*
X340956Y297298D01*
X342298Y295956D01*
X344051Y295230D01*
X345949D01*
X347702Y295956D01*
X349044Y297298D01*
X349770Y299051D01*
Y300949D01*
X349044Y302702D01*
X347702Y304044D01*
X345949Y304770D01*
D02*
G37*
G36*
X315949D02*
X314051D01*
X312298Y304044D01*
X310956Y302702D01*
X310230Y300949D01*
Y299051D01*
X310956Y297298D01*
X312298Y295956D01*
X314051Y295230D01*
X315949D01*
X317702Y295956D01*
X319044Y297298D01*
X319770Y299051D01*
Y300949D01*
X319044Y302702D01*
X317702Y304044D01*
X315949Y304770D01*
D02*
G37*
G36*
X255949D02*
X254051D01*
X252298Y304044D01*
X250956Y302702D01*
X250230Y300949D01*
Y299051D01*
X250956Y297298D01*
X252298Y295956D01*
X254051Y295230D01*
X255949D01*
X257702Y295956D01*
X259044Y297298D01*
X259770Y299051D01*
Y300949D01*
X259044Y302702D01*
X257702Y304044D01*
X255949Y304770D01*
D02*
G37*
G36*
X225949D02*
X224051D01*
X222298Y304044D01*
X220956Y302702D01*
X220230Y300949D01*
Y299051D01*
X220956Y297298D01*
X222298Y295956D01*
X224051Y295230D01*
X225949D01*
X227702Y295956D01*
X229044Y297298D01*
X229770Y299051D01*
Y300949D01*
X229044Y302702D01*
X227702Y304044D01*
X225949Y304770D01*
D02*
G37*
G36*
X195949D02*
X194051D01*
X192298Y304044D01*
X190956Y302702D01*
X190230Y300949D01*
Y299051D01*
X190956Y297298D01*
X192298Y295956D01*
X194051Y295230D01*
X195949D01*
X197702Y295956D01*
X199044Y297298D01*
X199770Y299051D01*
Y300949D01*
X199044Y302702D01*
X197702Y304044D01*
X195949Y304770D01*
D02*
G37*
G36*
X165949D02*
X164051D01*
X162298Y304044D01*
X160956Y302702D01*
X160230Y300949D01*
Y299051D01*
X160956Y297298D01*
X162298Y295956D01*
X164051Y295230D01*
X165949D01*
X167702Y295956D01*
X169044Y297298D01*
X169770Y299051D01*
Y300949D01*
X169044Y302702D01*
X167702Y304044D01*
X165949Y304770D01*
D02*
G37*
G36*
X135949D02*
X134051D01*
X132298Y304044D01*
X130956Y302702D01*
X130230Y300949D01*
Y299051D01*
X130956Y297298D01*
X132298Y295956D01*
X134051Y295230D01*
X135949D01*
X137702Y295956D01*
X139044Y297298D01*
X139770Y299051D01*
Y300949D01*
X139044Y302702D01*
X137702Y304044D01*
X135949Y304770D01*
D02*
G37*
G36*
X45949D02*
X44051D01*
X42298Y304044D01*
X40956Y302702D01*
X40230Y300949D01*
Y299051D01*
X40956Y297298D01*
X42298Y295956D01*
X44051Y295230D01*
X45949D01*
X47702Y295956D01*
X49044Y297298D01*
X49770Y299051D01*
Y300949D01*
X49044Y302702D01*
X47702Y304044D01*
X45949Y304770D01*
D02*
G37*
G36*
X959799Y295600D02*
X957901D01*
X956148Y294874D01*
X954806Y293532D01*
X954080Y291779D01*
Y289881D01*
X954806Y288128D01*
X956148Y286786D01*
X957901Y286060D01*
X959799D01*
X961552Y286786D01*
X962894Y288128D01*
X963620Y289881D01*
Y291779D01*
X962894Y293532D01*
X961552Y294874D01*
X959799Y295600D01*
D02*
G37*
G36*
X108951Y304415D02*
X106149D01*
X103441Y303689D01*
X101014Y302288D01*
X99032Y300306D01*
X97631Y297879D01*
X96905Y295171D01*
Y292369D01*
X97631Y289661D01*
X99032Y287234D01*
X101014Y285252D01*
X103441Y283850D01*
X106149Y283125D01*
X108951D01*
X111659Y283850D01*
X114086Y285252D01*
X116068Y287234D01*
X117470Y289661D01*
X118195Y292369D01*
Y295171D01*
X117470Y297879D01*
X116068Y300306D01*
X114086Y302288D01*
X111659Y303689D01*
X108951Y304415D01*
D02*
G37*
G36*
X83951D02*
X81149D01*
X78441Y303689D01*
X76014Y302288D01*
X74032Y300306D01*
X72631Y297879D01*
X71905Y295171D01*
Y292369D01*
X72631Y289661D01*
X74032Y287234D01*
X76014Y285252D01*
X78441Y283850D01*
X81149Y283125D01*
X83951D01*
X86659Y283850D01*
X89086Y285252D01*
X91068Y287234D01*
X92470Y289661D01*
X93195Y292369D01*
Y295171D01*
X92470Y297879D01*
X91068Y300306D01*
X89086Y302288D01*
X86659Y303689D01*
X83951Y304415D01*
D02*
G37*
G36*
X976309Y282900D02*
X974411D01*
X972658Y282174D01*
X971316Y280832D01*
X970590Y279079D01*
Y277181D01*
X971316Y275428D01*
X972658Y274086D01*
X974411Y273360D01*
X976309D01*
X978062Y274086D01*
X979404Y275428D01*
X980130Y277181D01*
Y279079D01*
X979404Y280832D01*
X978062Y282174D01*
X976309Y282900D01*
D02*
G37*
G36*
X478270Y278090D02*
X476770D01*
X475384Y277516D01*
X474324Y276455D01*
X473750Y275070D01*
Y273570D01*
X474324Y272185D01*
X475384Y271124D01*
X476770Y270550D01*
X478270D01*
X479655Y271124D01*
X480716Y272185D01*
X481290Y273570D01*
Y275070D01*
X480716Y276455D01*
X479655Y277516D01*
X478270Y278090D01*
D02*
G37*
G36*
X469380Y274280D02*
X467880D01*
X466494Y273706D01*
X465434Y272645D01*
X464860Y271260D01*
Y269760D01*
X465434Y268375D01*
X466494Y267314D01*
X467880Y266740D01*
X469380D01*
X470765Y267314D01*
X471826Y268375D01*
X472400Y269760D01*
Y271260D01*
X471826Y272645D01*
X470765Y273706D01*
X469380Y274280D01*
D02*
G37*
G36*
X1470948Y274770D02*
X1469051D01*
X1467298Y274044D01*
X1465956Y272702D01*
X1465230Y270949D01*
Y269051D01*
X1465956Y267298D01*
X1467298Y265956D01*
X1469051Y265230D01*
X1470948D01*
X1472702Y265956D01*
X1474043Y267298D01*
X1474769Y269051D01*
Y270949D01*
X1474043Y272702D01*
X1472702Y274044D01*
X1470948Y274770D01*
D02*
G37*
G36*
X1440948D02*
X1439051D01*
X1437298Y274044D01*
X1435956Y272702D01*
X1435230Y270949D01*
Y269051D01*
X1435956Y267298D01*
X1437298Y265956D01*
X1439051Y265230D01*
X1440948D01*
X1442702Y265956D01*
X1444043Y267298D01*
X1444770Y269051D01*
Y270949D01*
X1444043Y272702D01*
X1442702Y274044D01*
X1440948Y274770D01*
D02*
G37*
G36*
X660949D02*
X659051D01*
X657298Y274044D01*
X655956Y272702D01*
X655230Y270949D01*
Y269051D01*
X655956Y267298D01*
X657298Y265956D01*
X659051Y265230D01*
X660949D01*
X662702Y265956D01*
X664044Y267298D01*
X664770Y269051D01*
Y270949D01*
X664044Y272702D01*
X662702Y274044D01*
X660949Y274770D01*
D02*
G37*
G36*
X630949D02*
X629051D01*
X627298Y274044D01*
X625956Y272702D01*
X625230Y270949D01*
Y269051D01*
X625956Y267298D01*
X627298Y265956D01*
X629051Y265230D01*
X630949D01*
X632702Y265956D01*
X634044Y267298D01*
X634770Y269051D01*
Y270949D01*
X634044Y272702D01*
X632702Y274044D01*
X630949Y274770D01*
D02*
G37*
G36*
X600949D02*
X599051D01*
X597298Y274044D01*
X595956Y272702D01*
X595230Y270949D01*
Y269051D01*
X595956Y267298D01*
X597298Y265956D01*
X599051Y265230D01*
X600949D01*
X602702Y265956D01*
X604044Y267298D01*
X604770Y269051D01*
Y270949D01*
X604044Y272702D01*
X602702Y274044D01*
X600949Y274770D01*
D02*
G37*
G36*
X570949D02*
X569051D01*
X567298Y274044D01*
X565956Y272702D01*
X565230Y270949D01*
Y269051D01*
X565956Y267298D01*
X567298Y265956D01*
X569051Y265230D01*
X570949D01*
X572702Y265956D01*
X574044Y267298D01*
X574770Y269051D01*
Y270949D01*
X574044Y272702D01*
X572702Y274044D01*
X570949Y274770D01*
D02*
G37*
G36*
X420949D02*
X419051D01*
X417298Y274044D01*
X415956Y272702D01*
X415230Y270949D01*
Y269051D01*
X415956Y267298D01*
X417298Y265956D01*
X419051Y265230D01*
X420949D01*
X422702Y265956D01*
X424044Y267298D01*
X424770Y269051D01*
Y270949D01*
X424044Y272702D01*
X422702Y274044D01*
X420949Y274770D01*
D02*
G37*
G36*
X360949D02*
X359051D01*
X357298Y274044D01*
X355956Y272702D01*
X355230Y270949D01*
Y269051D01*
X355956Y267298D01*
X357298Y265956D01*
X359051Y265230D01*
X360949D01*
X362702Y265956D01*
X364044Y267298D01*
X364770Y269051D01*
Y270949D01*
X364044Y272702D01*
X362702Y274044D01*
X360949Y274770D01*
D02*
G37*
G36*
X240949D02*
X239051D01*
X237298Y274044D01*
X235956Y272702D01*
X235230Y270949D01*
Y269051D01*
X235956Y267298D01*
X237298Y265956D01*
X239051Y265230D01*
X240949D01*
X242702Y265956D01*
X244044Y267298D01*
X244770Y269051D01*
Y270949D01*
X244044Y272702D01*
X242702Y274044D01*
X240949Y274770D01*
D02*
G37*
G36*
X180949D02*
X179051D01*
X177298Y274044D01*
X175956Y272702D01*
X175230Y270949D01*
Y269051D01*
X175956Y267298D01*
X177298Y265956D01*
X179051Y265230D01*
X180949D01*
X182702Y265956D01*
X184044Y267298D01*
X184770Y269051D01*
Y270949D01*
X184044Y272702D01*
X182702Y274044D01*
X180949Y274770D01*
D02*
G37*
G36*
X150949D02*
X149051D01*
X147298Y274044D01*
X145956Y272702D01*
X145230Y270949D01*
Y269051D01*
X145956Y267298D01*
X147298Y265956D01*
X149051Y265230D01*
X150949D01*
X152702Y265956D01*
X154044Y267298D01*
X154770Y269051D01*
Y270949D01*
X154044Y272702D01*
X152702Y274044D01*
X150949Y274770D01*
D02*
G37*
G36*
X120949D02*
X119051D01*
X117298Y274044D01*
X115956Y272702D01*
X115230Y270949D01*
Y269051D01*
X115956Y267298D01*
X117298Y265956D01*
X119051Y265230D01*
X120949D01*
X122702Y265956D01*
X124044Y267298D01*
X124770Y269051D01*
Y270949D01*
X124044Y272702D01*
X122702Y274044D01*
X120949Y274770D01*
D02*
G37*
G36*
X90949D02*
X89051D01*
X87298Y274044D01*
X85956Y272702D01*
X85230Y270949D01*
Y269051D01*
X85956Y267298D01*
X87298Y265956D01*
X89051Y265230D01*
X90949D01*
X92702Y265956D01*
X94044Y267298D01*
X94770Y269051D01*
Y270949D01*
X94044Y272702D01*
X92702Y274044D01*
X90949Y274770D01*
D02*
G37*
G36*
X60949D02*
X59051D01*
X57298Y274044D01*
X55956Y272702D01*
X55230Y270949D01*
Y269051D01*
X55956Y267298D01*
X57298Y265956D01*
X59051Y265230D01*
X60949D01*
X62702Y265956D01*
X64044Y267298D01*
X64770Y269051D01*
Y270949D01*
X64044Y272702D01*
X62702Y274044D01*
X60949Y274770D01*
D02*
G37*
G36*
X30949D02*
X29051D01*
X27298Y274044D01*
X25956Y272702D01*
X25230Y270949D01*
Y269051D01*
X25956Y267298D01*
X27298Y265956D01*
X29051Y265230D01*
X30949D01*
X32702Y265956D01*
X34044Y267298D01*
X34770Y269051D01*
Y270949D01*
X34044Y272702D01*
X32702Y274044D01*
X30949Y274770D01*
D02*
G37*
G36*
X205419Y271470D02*
X203521D01*
X201768Y270744D01*
X200426Y269402D01*
X199700Y267649D01*
Y265751D01*
X200426Y263998D01*
X201768Y262656D01*
X203521Y261930D01*
X205419D01*
X207172Y262656D01*
X208514Y263998D01*
X209240Y265751D01*
Y267649D01*
X208514Y269402D01*
X207172Y270744D01*
X205419Y271470D01*
D02*
G37*
G36*
X391910Y269200D02*
X390410D01*
X389025Y268626D01*
X387964Y267565D01*
X387390Y266180D01*
Y264680D01*
X387964Y263295D01*
X389025Y262234D01*
X390410Y261660D01*
X391910D01*
X393296Y262234D01*
X394356Y263295D01*
X394930Y264680D01*
Y266180D01*
X394356Y267565D01*
X393296Y268626D01*
X391910Y269200D01*
D02*
G37*
G36*
X958529Y270170D02*
X956631D01*
X954878Y269444D01*
X953536Y268102D01*
X952810Y266349D01*
Y264451D01*
X953536Y262698D01*
X954878Y261356D01*
X956631Y260630D01*
X958529D01*
X960282Y261356D01*
X961624Y262698D01*
X962350Y264451D01*
Y266349D01*
X961624Y268102D01*
X960282Y269444D01*
X958529Y270170D01*
D02*
G37*
G36*
X944559Y257470D02*
X942661D01*
X940908Y256744D01*
X939566Y255402D01*
X938840Y253649D01*
Y251751D01*
X939566Y249998D01*
X940908Y248656D01*
X942661Y247930D01*
X944559D01*
X946312Y248656D01*
X947654Y249998D01*
X948380Y251751D01*
Y253649D01*
X947654Y255402D01*
X946312Y256744D01*
X944559Y257470D01*
D02*
G37*
G36*
X479540Y251420D02*
X478040D01*
X476655Y250846D01*
X475594Y249785D01*
X475020Y248400D01*
Y246900D01*
X475594Y245515D01*
X476655Y244454D01*
X478040Y243880D01*
X479540D01*
X480925Y244454D01*
X481986Y245515D01*
X482560Y246900D01*
Y248400D01*
X481986Y249785D01*
X480925Y250846D01*
X479540Y251420D01*
D02*
G37*
G36*
X82901Y260435D02*
X80098D01*
X77391Y259709D01*
X74964Y258308D01*
X72982Y256326D01*
X71581Y253899D01*
X70855Y251191D01*
Y248389D01*
X71581Y245681D01*
X72982Y243254D01*
X74964Y241272D01*
X77391Y239870D01*
X80098Y239145D01*
X82901D01*
X85609Y239870D01*
X88036Y241272D01*
X90018Y243254D01*
X91419Y245681D01*
X92145Y248389D01*
Y251191D01*
X91419Y253899D01*
X90018Y256326D01*
X88036Y258308D01*
X85609Y259709D01*
X82901Y260435D01*
D02*
G37*
G36*
X57901D02*
X55099D01*
X52391Y259709D01*
X49964Y258308D01*
X47982Y256326D01*
X46581Y253899D01*
X45855Y251191D01*
Y248389D01*
X46520Y245908D01*
X46266Y245403D01*
X46199Y245312D01*
X45640Y244770D01*
X44051D01*
X42298Y244044D01*
X40956Y242702D01*
X40230Y240949D01*
Y239051D01*
X40956Y237298D01*
X42298Y235956D01*
X44051Y235230D01*
X45949D01*
X47702Y235956D01*
X49044Y237298D01*
X49770Y239051D01*
Y239917D01*
X51040Y240651D01*
X52391Y239870D01*
X55099Y239145D01*
X57901D01*
X60609Y239870D01*
X63036Y241272D01*
X65018Y243254D01*
X66420Y245681D01*
X67145Y248389D01*
Y251191D01*
X66420Y253899D01*
X65018Y256326D01*
X63036Y258308D01*
X60609Y259709D01*
X57901Y260435D01*
D02*
G37*
G36*
X1485948Y244770D02*
X1484051D01*
X1482298Y244044D01*
X1480956Y242702D01*
X1480230Y240949D01*
Y239051D01*
X1480956Y237298D01*
X1482298Y235956D01*
X1484051Y235230D01*
X1485948D01*
X1487702Y235956D01*
X1489043Y237298D01*
X1489769Y239051D01*
Y240949D01*
X1489043Y242702D01*
X1487702Y244044D01*
X1485948Y244770D01*
D02*
G37*
G36*
X1455948D02*
X1454051D01*
X1452298Y244044D01*
X1450956Y242702D01*
X1450230Y240949D01*
Y239051D01*
X1450956Y237298D01*
X1452298Y235956D01*
X1454051Y235230D01*
X1455948D01*
X1457702Y235956D01*
X1459043Y237298D01*
X1459769Y239051D01*
Y240949D01*
X1459043Y242702D01*
X1457702Y244044D01*
X1455948Y244770D01*
D02*
G37*
G36*
X675949D02*
X674051D01*
X672298Y244044D01*
X670956Y242702D01*
X670230Y240949D01*
Y239051D01*
X670956Y237298D01*
X672298Y235956D01*
X674051Y235230D01*
X675949D01*
X677702Y235956D01*
X679044Y237298D01*
X679770Y239051D01*
Y240949D01*
X679044Y242702D01*
X677702Y244044D01*
X675949Y244770D01*
D02*
G37*
G36*
X645949D02*
X644051D01*
X642298Y244044D01*
X640956Y242702D01*
X640230Y240949D01*
Y239051D01*
X640956Y237298D01*
X642298Y235956D01*
X644051Y235230D01*
X645949D01*
X647702Y235956D01*
X649044Y237298D01*
X649770Y239051D01*
Y240949D01*
X649044Y242702D01*
X647702Y244044D01*
X645949Y244770D01*
D02*
G37*
G36*
X615949D02*
X614051D01*
X612298Y244044D01*
X610956Y242702D01*
X610230Y240949D01*
Y239051D01*
X610956Y237298D01*
X612298Y235956D01*
X614051Y235230D01*
X615949D01*
X617702Y235956D01*
X619044Y237298D01*
X619770Y239051D01*
Y240949D01*
X619044Y242702D01*
X617702Y244044D01*
X615949Y244770D01*
D02*
G37*
G36*
X585949D02*
X584051D01*
X582298Y244044D01*
X580956Y242702D01*
X580230Y240949D01*
Y239051D01*
X580956Y237298D01*
X582298Y235956D01*
X584051Y235230D01*
X585949D01*
X587702Y235956D01*
X589044Y237298D01*
X589770Y239051D01*
Y240949D01*
X589044Y242702D01*
X587702Y244044D01*
X585949Y244770D01*
D02*
G37*
G36*
X555949D02*
X554051D01*
X552298Y244044D01*
X550956Y242702D01*
X550230Y240949D01*
Y239051D01*
X550956Y237298D01*
X552298Y235956D01*
X554051Y235230D01*
X555949D01*
X557702Y235956D01*
X559044Y237298D01*
X559770Y239051D01*
Y240949D01*
X559044Y242702D01*
X557702Y244044D01*
X555949Y244770D01*
D02*
G37*
G36*
X525949D02*
X524051D01*
X522298Y244044D01*
X520956Y242702D01*
X520230Y240949D01*
Y239051D01*
X520956Y237298D01*
X522298Y235956D01*
X524051Y235230D01*
X525949D01*
X527702Y235956D01*
X529044Y237298D01*
X529770Y239051D01*
Y240949D01*
X529044Y242702D01*
X527702Y244044D01*
X525949Y244770D01*
D02*
G37*
G36*
X465949D02*
X464051D01*
X462298Y244044D01*
X460956Y242702D01*
X460230Y240949D01*
Y239051D01*
X460956Y237298D01*
X462298Y235956D01*
X464051Y235230D01*
X465949D01*
X467702Y235956D01*
X469044Y237298D01*
X469770Y239051D01*
Y240949D01*
X469044Y242702D01*
X467702Y244044D01*
X465949Y244770D01*
D02*
G37*
G36*
X375949D02*
X374051D01*
X372298Y244044D01*
X370956Y242702D01*
X370230Y240949D01*
Y239051D01*
X370956Y237298D01*
X372298Y235956D01*
X374051Y235230D01*
X375949D01*
X377702Y235956D01*
X379044Y237298D01*
X379770Y239051D01*
Y240949D01*
X379044Y242702D01*
X377702Y244044D01*
X375949Y244770D01*
D02*
G37*
G36*
X345949D02*
X344051D01*
X342298Y244044D01*
X340956Y242702D01*
X340230Y240949D01*
Y239051D01*
X340956Y237298D01*
X342298Y235956D01*
X344051Y235230D01*
X345949D01*
X347702Y235956D01*
X349044Y237298D01*
X349770Y239051D01*
Y240949D01*
X349044Y242702D01*
X347702Y244044D01*
X345949Y244770D01*
D02*
G37*
G36*
X285949D02*
X284051D01*
X282298Y244044D01*
X280956Y242702D01*
X280230Y240949D01*
Y239051D01*
X280956Y237298D01*
X282298Y235956D01*
X284051Y235230D01*
X285949D01*
X287702Y235956D01*
X289044Y237298D01*
X289770Y239051D01*
Y240949D01*
X289044Y242702D01*
X287702Y244044D01*
X285949Y244770D01*
D02*
G37*
G36*
X255949D02*
X254051D01*
X252298Y244044D01*
X250956Y242702D01*
X250230Y240949D01*
Y239051D01*
X250956Y237298D01*
X252298Y235956D01*
X254051Y235230D01*
X255949D01*
X257702Y235956D01*
X259044Y237298D01*
X259770Y239051D01*
Y240949D01*
X259044Y242702D01*
X257702Y244044D01*
X255949Y244770D01*
D02*
G37*
G36*
X1347157Y240950D02*
X1345243D01*
X1343394Y240455D01*
X1341736Y239497D01*
X1340383Y238144D01*
X1339425Y236486D01*
X1338930Y234637D01*
Y232723D01*
X1339425Y230874D01*
X1339548Y230662D01*
X1338618Y229732D01*
X1337809Y230200D01*
X1335101Y230925D01*
X1332299D01*
X1329591Y230200D01*
X1327164Y228798D01*
X1325182Y226816D01*
X1323781Y224389D01*
X1323055Y221681D01*
Y218879D01*
X1323781Y216171D01*
X1325182Y213744D01*
X1327164Y211762D01*
X1329591Y210361D01*
X1332299Y209635D01*
X1335101D01*
X1337809Y210361D01*
X1340236Y211762D01*
X1342218Y213744D01*
X1343620Y216171D01*
X1344345Y218879D01*
Y221681D01*
X1343620Y224389D01*
X1342805Y225800D01*
X1343035Y226231D01*
X1343677Y226830D01*
X1345243Y226410D01*
X1347157D01*
X1348723Y226830D01*
X1349365Y226231D01*
X1349595Y225800D01*
X1348781Y224389D01*
X1348055Y221681D01*
Y218879D01*
X1348781Y216171D01*
X1350182Y213744D01*
X1352164Y211762D01*
X1354591Y210361D01*
X1357299Y209635D01*
X1360101D01*
X1362809Y210361D01*
X1365236Y211762D01*
X1367218Y213744D01*
X1368620Y216171D01*
X1369345Y218879D01*
Y221681D01*
X1368620Y224389D01*
X1367218Y226816D01*
X1365236Y228798D01*
X1362809Y230200D01*
X1360101Y230925D01*
X1357299D01*
X1354591Y230200D01*
X1353782Y229732D01*
X1352852Y230662D01*
X1352975Y230874D01*
X1353470Y232723D01*
Y234637D01*
X1352975Y236486D01*
X1352017Y238144D01*
X1350664Y239497D01*
X1349006Y240455D01*
X1347157Y240950D01*
D02*
G37*
G36*
X507480Y236180D02*
X505980D01*
X504594Y235606D01*
X503534Y234545D01*
X502960Y233160D01*
Y231660D01*
X503534Y230275D01*
X504594Y229214D01*
X505980Y228640D01*
X507480D01*
X508866Y229214D01*
X509926Y230275D01*
X510500Y231660D01*
Y233160D01*
X509926Y234545D01*
X508866Y235606D01*
X507480Y236180D01*
D02*
G37*
G36*
X347460Y231100D02*
X345960D01*
X344575Y230526D01*
X343514Y229466D01*
X342940Y228080D01*
Y226580D01*
X343514Y225194D01*
X344575Y224134D01*
X345960Y223560D01*
X347460D01*
X348845Y224134D01*
X349906Y225194D01*
X350480Y226580D01*
Y228080D01*
X349906Y229466D01*
X348845Y230526D01*
X347460Y231100D01*
D02*
G37*
G36*
X82901Y235435D02*
X80098D01*
X77391Y234709D01*
X74964Y233308D01*
X72982Y231326D01*
X71581Y228899D01*
X70855Y226191D01*
Y223389D01*
X71581Y220681D01*
X72982Y218254D01*
X74964Y216272D01*
X77391Y214870D01*
X80098Y214145D01*
X82901D01*
X85609Y214870D01*
X88036Y216272D01*
X90018Y218254D01*
X91419Y220681D01*
X92145Y223389D01*
Y226191D01*
X91419Y228899D01*
X90018Y231326D01*
X88036Y233308D01*
X85609Y234709D01*
X82901Y235435D01*
D02*
G37*
G36*
X57901D02*
X55099D01*
X52391Y234709D01*
X49964Y233308D01*
X47982Y231326D01*
X46581Y228899D01*
X45855Y226191D01*
Y223389D01*
X46581Y220681D01*
X47982Y218254D01*
X49964Y216272D01*
X52391Y214870D01*
X55099Y214145D01*
X57901D01*
X60609Y214870D01*
X63036Y216272D01*
X65018Y218254D01*
X66420Y220681D01*
X67145Y223389D01*
Y226191D01*
X66420Y228899D01*
X65018Y231326D01*
X63036Y233308D01*
X60609Y234709D01*
X57901Y235435D01*
D02*
G37*
G36*
X962339Y219370D02*
X960441D01*
X958688Y218644D01*
X957346Y217302D01*
X956620Y215549D01*
Y213651D01*
X957346Y211898D01*
X958688Y210556D01*
X960441Y209830D01*
X962339D01*
X964092Y210556D01*
X965434Y211898D01*
X966160Y213651D01*
Y215549D01*
X965434Y217302D01*
X964092Y218644D01*
X962339Y219370D01*
D02*
G37*
G36*
X1385101Y230925D02*
X1382299D01*
X1379591Y230200D01*
X1377164Y228798D01*
X1375182Y226816D01*
X1373781Y224389D01*
X1373055Y221681D01*
Y218879D01*
X1373781Y216171D01*
X1375182Y213744D01*
X1377164Y211762D01*
X1379591Y210361D01*
X1382299Y209635D01*
X1385101D01*
X1387809Y210361D01*
X1390236Y211762D01*
X1392218Y213744D01*
X1393620Y216171D01*
X1394345Y218879D01*
Y221681D01*
X1393620Y224389D01*
X1392218Y226816D01*
X1390236Y228798D01*
X1387809Y230200D01*
X1385101Y230925D01*
D02*
G37*
G36*
X1310101D02*
X1307299D01*
X1304591Y230200D01*
X1302164Y228798D01*
X1300182Y226816D01*
X1298781Y224389D01*
X1298055Y221681D01*
Y218879D01*
X1298781Y216171D01*
X1300182Y213744D01*
X1302164Y211762D01*
X1304591Y210361D01*
X1307299Y209635D01*
X1310101D01*
X1312809Y210361D01*
X1315236Y211762D01*
X1317218Y213744D01*
X1318620Y216171D01*
X1319345Y218879D01*
Y221681D01*
X1318620Y224389D01*
X1317218Y226816D01*
X1315236Y228798D01*
X1312809Y230200D01*
X1310101Y230925D01*
D02*
G37*
G36*
X1285101D02*
X1282299D01*
X1279591Y230200D01*
X1277164Y228798D01*
X1275182Y226816D01*
X1273781Y224389D01*
X1273055Y221681D01*
Y218879D01*
X1273781Y216171D01*
X1275182Y213744D01*
X1277164Y211762D01*
X1279591Y210361D01*
X1282299Y209635D01*
X1285101D01*
X1287809Y210361D01*
X1290236Y211762D01*
X1292218Y213744D01*
X1293620Y216171D01*
X1294345Y218879D01*
Y221681D01*
X1293620Y224389D01*
X1292218Y226816D01*
X1290236Y228798D01*
X1287809Y230200D01*
X1285101Y230925D01*
D02*
G37*
G36*
X1470948Y214770D02*
X1469051D01*
X1467298Y214044D01*
X1465956Y212702D01*
X1465230Y210949D01*
Y209051D01*
X1465956Y207298D01*
X1467298Y205956D01*
X1469051Y205230D01*
X1470948D01*
X1472702Y205956D01*
X1474043Y207298D01*
X1474769Y209051D01*
Y210949D01*
X1474043Y212702D01*
X1472702Y214044D01*
X1470948Y214770D01*
D02*
G37*
G36*
X1440948D02*
X1439051D01*
X1437298Y214044D01*
X1435956Y212702D01*
X1435230Y210949D01*
Y209051D01*
X1435956Y207298D01*
X1437298Y205956D01*
X1439051Y205230D01*
X1440948D01*
X1442702Y205956D01*
X1444043Y207298D01*
X1444770Y209051D01*
Y210949D01*
X1444043Y212702D01*
X1442702Y214044D01*
X1440948Y214770D01*
D02*
G37*
G36*
X630949D02*
X629051D01*
X627298Y214044D01*
X625956Y212702D01*
X625230Y210949D01*
Y209051D01*
X625956Y207298D01*
X627298Y205956D01*
X629051Y205230D01*
X630949D01*
X632702Y205956D01*
X634044Y207298D01*
X634770Y209051D01*
Y210949D01*
X634044Y212702D01*
X632702Y214044D01*
X630949Y214770D01*
D02*
G37*
G36*
X600949D02*
X599051D01*
X597298Y214044D01*
X595956Y212702D01*
X595230Y210949D01*
Y209051D01*
X595956Y207298D01*
X597298Y205956D01*
X599051Y205230D01*
X600949D01*
X602702Y205956D01*
X604044Y207298D01*
X604770Y209051D01*
Y210949D01*
X604044Y212702D01*
X602702Y214044D01*
X600949Y214770D01*
D02*
G37*
G36*
X570949D02*
X569051D01*
X567298Y214044D01*
X565956Y212702D01*
X565230Y210949D01*
Y209051D01*
X565956Y207298D01*
X567298Y205956D01*
X569051Y205230D01*
X570949D01*
X572702Y205956D01*
X574044Y207298D01*
X574770Y209051D01*
Y210949D01*
X574044Y212702D01*
X572702Y214044D01*
X570949Y214770D01*
D02*
G37*
G36*
X540949D02*
X539051D01*
X537298Y214044D01*
X535956Y212702D01*
X535230Y210949D01*
Y209051D01*
X535956Y207298D01*
X537298Y205956D01*
X539051Y205230D01*
X540949D01*
X542702Y205956D01*
X544044Y207298D01*
X544770Y209051D01*
Y210949D01*
X544044Y212702D01*
X542702Y214044D01*
X540949Y214770D01*
D02*
G37*
G36*
X390949D02*
X389051D01*
X387298Y214044D01*
X385956Y212702D01*
X385230Y210949D01*
Y209051D01*
X385956Y207298D01*
X387298Y205956D01*
X389051Y205230D01*
X390949D01*
X392702Y205956D01*
X394044Y207298D01*
X394770Y209051D01*
Y210949D01*
X394044Y212702D01*
X392702Y214044D01*
X390949Y214770D01*
D02*
G37*
G36*
X360949D02*
X359051D01*
X357298Y214044D01*
X355956Y212702D01*
X355230Y210949D01*
Y209051D01*
X355956Y207298D01*
X357298Y205956D01*
X359051Y205230D01*
X360949D01*
X362702Y205956D01*
X364044Y207298D01*
X364770Y209051D01*
Y210949D01*
X364044Y212702D01*
X362702Y214044D01*
X360949Y214770D01*
D02*
G37*
G36*
X270949D02*
X269051D01*
X267298Y214044D01*
X265956Y212702D01*
X265230Y210949D01*
Y209051D01*
X265956Y207298D01*
X267298Y205956D01*
X269051Y205230D01*
X270949D01*
X272702Y205956D01*
X274044Y207298D01*
X274770Y209051D01*
Y210949D01*
X274044Y212702D01*
X272702Y214044D01*
X270949Y214770D01*
D02*
G37*
G36*
X240949D02*
X239051D01*
X237298Y214044D01*
X235956Y212702D01*
X235230Y210949D01*
Y209051D01*
X235956Y207298D01*
X237298Y205956D01*
X239051Y205230D01*
X240949D01*
X242702Y205956D01*
X244044Y207298D01*
X244770Y209051D01*
Y210949D01*
X244044Y212702D01*
X242702Y214044D01*
X240949Y214770D01*
D02*
G37*
G36*
X180949D02*
X179051D01*
X177298Y214044D01*
X175956Y212702D01*
X175230Y210949D01*
Y209051D01*
X175956Y207298D01*
X177298Y205956D01*
X179051Y205230D01*
X180949D01*
X182702Y205956D01*
X184044Y207298D01*
X184770Y209051D01*
Y210949D01*
X184044Y212702D01*
X182702Y214044D01*
X180949Y214770D01*
D02*
G37*
G36*
X150949D02*
X149051D01*
X147298Y214044D01*
X145956Y212702D01*
X145230Y210949D01*
Y209051D01*
X145956Y207298D01*
X147298Y205956D01*
X149051Y205230D01*
X150949D01*
X152702Y205956D01*
X154044Y207298D01*
X154770Y209051D01*
Y210949D01*
X154044Y212702D01*
X152702Y214044D01*
X150949Y214770D01*
D02*
G37*
G36*
X120949D02*
X119051D01*
X117298Y214044D01*
X115956Y212702D01*
X115230Y210949D01*
Y209051D01*
X115956Y207298D01*
X117298Y205956D01*
X119051Y205230D01*
X120949D01*
X122702Y205956D01*
X124044Y207298D01*
X124770Y209051D01*
Y210949D01*
X124044Y212702D01*
X122702Y214044D01*
X120949Y214770D01*
D02*
G37*
G36*
X30949D02*
X29051D01*
X27298Y214044D01*
X25956Y212702D01*
X25230Y210949D01*
Y209051D01*
X25956Y207298D01*
X27298Y205956D01*
X29051Y205230D01*
X30949D01*
X32702Y205956D01*
X34044Y207298D01*
X34770Y209051D01*
Y210949D01*
X34044Y212702D01*
X32702Y214044D01*
X30949Y214770D01*
D02*
G37*
G36*
X483350Y209510D02*
X481850D01*
X480465Y208936D01*
X479404Y207875D01*
X478830Y206490D01*
Y204990D01*
X479404Y203605D01*
X480465Y202544D01*
X481850Y201970D01*
X483350D01*
X484735Y202544D01*
X485796Y203605D01*
X486370Y204990D01*
Y206490D01*
X485796Y207875D01*
X484735Y208936D01*
X483350Y209510D01*
D02*
G37*
G36*
X469380Y205700D02*
X467880D01*
X466494Y205126D01*
X465434Y204065D01*
X464860Y202680D01*
Y201180D01*
X465434Y199795D01*
X466494Y198734D01*
X467880Y198160D01*
X469380D01*
X470765Y198734D01*
X471826Y199795D01*
X472400Y201180D01*
Y202680D01*
X471826Y204065D01*
X470765Y205126D01*
X469380Y205700D01*
D02*
G37*
G36*
X57901Y210435D02*
X55099D01*
X52391Y209709D01*
X49964Y208308D01*
X47982Y206326D01*
X46581Y203899D01*
X45855Y201191D01*
Y198389D01*
X46581Y195681D01*
X47982Y193254D01*
X49964Y191272D01*
X52391Y189870D01*
X55099Y189145D01*
X57901D01*
X60609Y189870D01*
X63036Y191272D01*
X65018Y193254D01*
X66420Y195681D01*
X67145Y198389D01*
Y201191D01*
X66420Y203899D01*
X65018Y206326D01*
X63036Y208308D01*
X60609Y209709D01*
X57901Y210435D01*
D02*
G37*
G36*
X296660Y195540D02*
X295160D01*
X293775Y194966D01*
X292714Y193906D01*
X292140Y192520D01*
Y191020D01*
X292714Y189634D01*
X293775Y188574D01*
X295160Y188000D01*
X296660D01*
X298046Y188574D01*
X299106Y189634D01*
X299680Y191020D01*
Y192520D01*
X299106Y193906D01*
X298046Y194966D01*
X296660Y195540D01*
D02*
G37*
G36*
X1410101Y205925D02*
X1407299D01*
X1404591Y205200D01*
X1402164Y203798D01*
X1400182Y201816D01*
X1398781Y199389D01*
X1398055Y196681D01*
Y193879D01*
X1398781Y191171D01*
X1400182Y188744D01*
X1402164Y186762D01*
X1404591Y185361D01*
X1407299Y184635D01*
X1410101D01*
X1412809Y185361D01*
X1415236Y186762D01*
X1417218Y188744D01*
X1418620Y191171D01*
X1419345Y193879D01*
Y196681D01*
X1418620Y199389D01*
X1417218Y201816D01*
X1415236Y203798D01*
X1412809Y205200D01*
X1410101Y205925D01*
D02*
G37*
G36*
X1385101D02*
X1382299D01*
X1379591Y205200D01*
X1377164Y203798D01*
X1375182Y201816D01*
X1373781Y199389D01*
X1373055Y196681D01*
Y193879D01*
X1373781Y191171D01*
X1375182Y188744D01*
X1377164Y186762D01*
X1379591Y185361D01*
X1382299Y184635D01*
X1385101D01*
X1387809Y185361D01*
X1390236Y186762D01*
X1392218Y188744D01*
X1393620Y191171D01*
X1394345Y193879D01*
Y196681D01*
X1393620Y199389D01*
X1392218Y201816D01*
X1390236Y203798D01*
X1387809Y205200D01*
X1385101Y205925D01*
D02*
G37*
G36*
X1360101D02*
X1357299D01*
X1354591Y205200D01*
X1352164Y203798D01*
X1350182Y201816D01*
X1348781Y199389D01*
X1348055Y196681D01*
Y193879D01*
X1348781Y191171D01*
X1350182Y188744D01*
X1352164Y186762D01*
X1354591Y185361D01*
X1357299Y184635D01*
X1360101D01*
X1362809Y185361D01*
X1365236Y186762D01*
X1367218Y188744D01*
X1368620Y191171D01*
X1369345Y193879D01*
Y196681D01*
X1368620Y199389D01*
X1367218Y201816D01*
X1365236Y203798D01*
X1362809Y205200D01*
X1360101Y205925D01*
D02*
G37*
G36*
X1335101D02*
X1332299D01*
X1329591Y205200D01*
X1327164Y203798D01*
X1325182Y201816D01*
X1323781Y199389D01*
X1323055Y196681D01*
Y193879D01*
X1323781Y191171D01*
X1325182Y188744D01*
X1327164Y186762D01*
X1329591Y185361D01*
X1332299Y184635D01*
X1335101D01*
X1337809Y185361D01*
X1340236Y186762D01*
X1342218Y188744D01*
X1343620Y191171D01*
X1344345Y193879D01*
Y196681D01*
X1343620Y199389D01*
X1342218Y201816D01*
X1340236Y203798D01*
X1337809Y205200D01*
X1335101Y205925D01*
D02*
G37*
G36*
X1310101D02*
X1307299D01*
X1304591Y205200D01*
X1302164Y203798D01*
X1300182Y201816D01*
X1298781Y199389D01*
X1298055Y196681D01*
Y193879D01*
X1298781Y191171D01*
X1300182Y188744D01*
X1302164Y186762D01*
X1304591Y185361D01*
X1307299Y184635D01*
X1310101D01*
X1312809Y185361D01*
X1315236Y186762D01*
X1317218Y188744D01*
X1318620Y191171D01*
X1319345Y193879D01*
Y196681D01*
X1318620Y199389D01*
X1317218Y201816D01*
X1315236Y203798D01*
X1312809Y205200D01*
X1310101Y205925D01*
D02*
G37*
G36*
X1285101D02*
X1282299D01*
X1279591Y205200D01*
X1277164Y203798D01*
X1275182Y201816D01*
X1273781Y199389D01*
X1273055Y196681D01*
Y193879D01*
X1273781Y191171D01*
X1275182Y188744D01*
X1277164Y186762D01*
X1279591Y185361D01*
X1282299Y184635D01*
X1285101D01*
X1287809Y185361D01*
X1290236Y186762D01*
X1292218Y188744D01*
X1293620Y191171D01*
X1294345Y193879D01*
Y196681D01*
X1293620Y199389D01*
X1292218Y201816D01*
X1290236Y203798D01*
X1287809Y205200D01*
X1285101Y205925D01*
D02*
G37*
G36*
X82901Y210435D02*
X80098D01*
X77391Y209709D01*
X74964Y208308D01*
X72982Y206326D01*
X71581Y203899D01*
X70855Y201191D01*
Y198389D01*
X71581Y195681D01*
X72982Y193254D01*
X74964Y191272D01*
X77391Y189870D01*
X80098Y189145D01*
X82901D01*
X85609Y189870D01*
X87020Y190685D01*
X87451Y190455D01*
X88050Y189813D01*
X87630Y188247D01*
Y186333D01*
X88050Y184767D01*
X87451Y184125D01*
X87020Y183895D01*
X85609Y184709D01*
X82901Y185435D01*
X80098D01*
X77391Y184709D01*
X74964Y183308D01*
X72982Y181326D01*
X71581Y178899D01*
X70855Y176191D01*
Y173389D01*
X71581Y170681D01*
X72982Y168254D01*
X74964Y166272D01*
X77391Y164870D01*
X80098Y164145D01*
X82901D01*
X85609Y164870D01*
X88036Y166272D01*
X90018Y168254D01*
X91419Y170681D01*
X92145Y173389D01*
Y176191D01*
X91419Y178899D01*
X90952Y179708D01*
X91882Y180638D01*
X92094Y180515D01*
X93943Y180020D01*
X95857D01*
X97706Y180515D01*
X99364Y181473D01*
X100717Y182826D01*
X101674Y184484D01*
X102170Y186333D01*
Y188247D01*
X101674Y190096D01*
X100717Y191754D01*
X99364Y193107D01*
X97706Y194065D01*
X95857Y194560D01*
X93943D01*
X92094Y194065D01*
X91882Y193942D01*
X90952Y194872D01*
X91419Y195681D01*
X92145Y198389D01*
Y201191D01*
X91419Y203899D01*
X90018Y206326D01*
X88036Y208308D01*
X85609Y209709D01*
X82901Y210435D01*
D02*
G37*
G36*
X199069Y188920D02*
X197171D01*
X195418Y188194D01*
X194076Y186852D01*
X193350Y185099D01*
Y183201D01*
X194076Y181448D01*
X195418Y180106D01*
X197171Y179380D01*
X199069D01*
X200822Y180106D01*
X202164Y181448D01*
X202890Y183201D01*
Y185099D01*
X202164Y186852D01*
X200822Y188194D01*
X199069Y188920D01*
D02*
G37*
G36*
X968205Y185635D02*
X966705D01*
X965320Y185061D01*
X964259Y184000D01*
X963685Y182615D01*
Y181115D01*
X964259Y179729D01*
X965320Y178669D01*
X966705Y178095D01*
X968205D01*
X969591Y178669D01*
X970651Y179729D01*
X971225Y181115D01*
Y182615D01*
X970651Y184000D01*
X969591Y185061D01*
X968205Y185635D01*
D02*
G37*
G36*
X1485948Y184770D02*
X1484051D01*
X1482298Y184044D01*
X1480956Y182702D01*
X1480230Y180949D01*
Y179051D01*
X1480956Y177298D01*
X1482298Y175956D01*
X1484051Y175230D01*
X1485948D01*
X1487702Y175956D01*
X1489043Y177298D01*
X1489769Y179051D01*
Y180949D01*
X1489043Y182702D01*
X1487702Y184044D01*
X1485948Y184770D01*
D02*
G37*
G36*
X1455948D02*
X1454051D01*
X1452298Y184044D01*
X1450956Y182702D01*
X1450230Y180949D01*
Y179051D01*
X1450956Y177298D01*
X1452298Y175956D01*
X1454051Y175230D01*
X1455948D01*
X1457702Y175956D01*
X1459043Y177298D01*
X1459769Y179051D01*
Y180949D01*
X1459043Y182702D01*
X1457702Y184044D01*
X1455948Y184770D01*
D02*
G37*
G36*
X615949D02*
X614051D01*
X612298Y184044D01*
X610956Y182702D01*
X610230Y180949D01*
Y179051D01*
X610956Y177298D01*
X612298Y175956D01*
X614051Y175230D01*
X615949D01*
X617702Y175956D01*
X619044Y177298D01*
X619770Y179051D01*
Y180949D01*
X619044Y182702D01*
X617702Y184044D01*
X615949Y184770D01*
D02*
G37*
G36*
X585949D02*
X584051D01*
X582298Y184044D01*
X580956Y182702D01*
X580230Y180949D01*
Y179051D01*
X580956Y177298D01*
X582298Y175956D01*
X584051Y175230D01*
X585949D01*
X587702Y175956D01*
X589044Y177298D01*
X589770Y179051D01*
Y180949D01*
X589044Y182702D01*
X587702Y184044D01*
X585949Y184770D01*
D02*
G37*
G36*
X555949D02*
X554051D01*
X552298Y184044D01*
X550956Y182702D01*
X550230Y180949D01*
Y179051D01*
X550956Y177298D01*
X552298Y175956D01*
X554051Y175230D01*
X555949D01*
X557702Y175956D01*
X559044Y177298D01*
X559770Y179051D01*
Y180949D01*
X559044Y182702D01*
X557702Y184044D01*
X555949Y184770D01*
D02*
G37*
G36*
X969371Y175220D02*
X967871D01*
X966486Y174646D01*
X965425Y173585D01*
X964851Y172200D01*
Y170700D01*
X965425Y169314D01*
X966486Y168254D01*
X967871Y167680D01*
X969371D01*
X970757Y168254D01*
X971817Y169314D01*
X972391Y170700D01*
Y172200D01*
X971817Y173585D01*
X970757Y174646D01*
X969371Y175220D01*
D02*
G37*
G36*
X57901Y185435D02*
X55099D01*
X52391Y184709D01*
X49964Y183308D01*
X47982Y181326D01*
X46581Y178899D01*
X45855Y176191D01*
Y173389D01*
X46581Y170681D01*
X47982Y168254D01*
X49964Y166272D01*
X52391Y164870D01*
X55099Y164145D01*
X57901D01*
X60609Y164870D01*
X63036Y166272D01*
X65018Y168254D01*
X66420Y170681D01*
X67145Y173389D01*
Y176191D01*
X66420Y178899D01*
X65018Y181326D01*
X63036Y183308D01*
X60609Y184709D01*
X57901Y185435D01*
D02*
G37*
G36*
X1183120Y166330D02*
X1181620D01*
X1180235Y165756D01*
X1179174Y164695D01*
X1178600Y163310D01*
Y161810D01*
X1179174Y160424D01*
X1180235Y159364D01*
X1181620Y158790D01*
X1183120D01*
X1184505Y159364D01*
X1185566Y160424D01*
X1186140Y161810D01*
Y163310D01*
X1185566Y164695D01*
X1184505Y165756D01*
X1183120Y166330D01*
D02*
G37*
G36*
X687514Y156170D02*
X686014D01*
X684628Y155596D01*
X683568Y154536D01*
X682994Y153150D01*
Y151650D01*
X683568Y150265D01*
X684628Y149204D01*
X686014Y148630D01*
X687514D01*
X688900Y149204D01*
X689960Y150265D01*
X690534Y151650D01*
Y153150D01*
X689960Y154536D01*
X688900Y155596D01*
X687514Y156170D01*
D02*
G37*
G36*
X1470948Y154770D02*
X1469051D01*
X1467298Y154044D01*
X1465956Y152702D01*
X1465230Y150949D01*
Y149051D01*
X1465956Y147298D01*
X1467298Y145956D01*
X1469051Y145230D01*
X1470948D01*
X1472702Y145956D01*
X1474043Y147298D01*
X1474769Y149051D01*
Y150949D01*
X1474043Y152702D01*
X1472702Y154044D01*
X1470948Y154770D01*
D02*
G37*
G36*
X1440948D02*
X1439051D01*
X1437298Y154044D01*
X1435956Y152702D01*
X1435230Y150949D01*
Y149051D01*
X1435956Y147298D01*
X1437298Y145956D01*
X1439051Y145230D01*
X1440948D01*
X1442702Y145956D01*
X1444043Y147298D01*
X1444770Y149051D01*
Y150949D01*
X1444043Y152702D01*
X1442702Y154044D01*
X1440948Y154770D01*
D02*
G37*
G36*
X1410948D02*
X1409051D01*
X1407298Y154044D01*
X1405956Y152702D01*
X1405230Y150949D01*
Y149051D01*
X1405956Y147298D01*
X1407298Y145956D01*
X1409051Y145230D01*
X1410948D01*
X1412702Y145956D01*
X1414043Y147298D01*
X1414770Y149051D01*
Y150949D01*
X1414043Y152702D01*
X1412702Y154044D01*
X1410948Y154770D01*
D02*
G37*
G36*
X1380948D02*
X1379051D01*
X1377298Y154044D01*
X1375956Y152702D01*
X1375230Y150949D01*
Y149051D01*
X1375956Y147298D01*
X1377298Y145956D01*
X1379051Y145230D01*
X1380948D01*
X1382702Y145956D01*
X1384043Y147298D01*
X1384770Y149051D01*
Y150949D01*
X1384043Y152702D01*
X1382702Y154044D01*
X1380948Y154770D01*
D02*
G37*
G36*
X1350948D02*
X1349051D01*
X1347298Y154044D01*
X1345956Y152702D01*
X1345230Y150949D01*
Y149051D01*
X1345956Y147298D01*
X1347298Y145956D01*
X1349051Y145230D01*
X1350948D01*
X1352702Y145956D01*
X1354043Y147298D01*
X1354770Y149051D01*
Y150949D01*
X1354043Y152702D01*
X1352702Y154044D01*
X1350948Y154770D01*
D02*
G37*
G36*
X630949D02*
X629051D01*
X627298Y154044D01*
X625956Y152702D01*
X625230Y150949D01*
Y149051D01*
X625956Y147298D01*
X627298Y145956D01*
X629051Y145230D01*
X630949D01*
X632702Y145956D01*
X634044Y147298D01*
X634770Y149051D01*
Y150949D01*
X634044Y152702D01*
X632702Y154044D01*
X630949Y154770D01*
D02*
G37*
G36*
X600949D02*
X599051D01*
X597298Y154044D01*
X595956Y152702D01*
X595230Y150949D01*
Y149051D01*
X595956Y147298D01*
X597298Y145956D01*
X599051Y145230D01*
X600949D01*
X602702Y145956D01*
X604044Y147298D01*
X604770Y149051D01*
Y150949D01*
X604044Y152702D01*
X602702Y154044D01*
X600949Y154770D01*
D02*
G37*
G36*
X540949D02*
X539051D01*
X537298Y154044D01*
X535956Y152702D01*
X535230Y150949D01*
Y149051D01*
X535956Y147298D01*
X537298Y145956D01*
X539051Y145230D01*
X540949D01*
X542702Y145956D01*
X544044Y147298D01*
X544770Y149051D01*
Y150949D01*
X544044Y152702D01*
X542702Y154044D01*
X540949Y154770D01*
D02*
G37*
G36*
X510949D02*
X509051D01*
X507298Y154044D01*
X505956Y152702D01*
X505230Y150949D01*
Y149051D01*
X505956Y147298D01*
X507298Y145956D01*
X509051Y145230D01*
X510949D01*
X512702Y145956D01*
X514044Y147298D01*
X514770Y149051D01*
Y150949D01*
X514044Y152702D01*
X512702Y154044D01*
X510949Y154770D01*
D02*
G37*
G36*
X480949D02*
X479051D01*
X477298Y154044D01*
X475956Y152702D01*
X475230Y150949D01*
Y149051D01*
X475956Y147298D01*
X477298Y145956D01*
X479051Y145230D01*
X480949D01*
X482702Y145956D01*
X484044Y147298D01*
X484770Y149051D01*
Y150949D01*
X484044Y152702D01*
X482702Y154044D01*
X480949Y154770D01*
D02*
G37*
G36*
X390949D02*
X389051D01*
X387298Y154044D01*
X385956Y152702D01*
X385230Y150949D01*
Y149051D01*
X385956Y147298D01*
X387298Y145956D01*
X389051Y145230D01*
X390949D01*
X392702Y145956D01*
X394044Y147298D01*
X394770Y149051D01*
Y150949D01*
X394044Y152702D01*
X392702Y154044D01*
X390949Y154770D01*
D02*
G37*
G36*
X360949D02*
X359051D01*
X357298Y154044D01*
X355956Y152702D01*
X355230Y150949D01*
Y149051D01*
X355956Y147298D01*
X357298Y145956D01*
X359051Y145230D01*
X360949D01*
X362702Y145956D01*
X364044Y147298D01*
X364770Y149051D01*
Y150949D01*
X364044Y152702D01*
X362702Y154044D01*
X360949Y154770D01*
D02*
G37*
G36*
X300949D02*
X299051D01*
X297298Y154044D01*
X295956Y152702D01*
X295230Y150949D01*
Y149051D01*
X295956Y147298D01*
X297298Y145956D01*
X299051Y145230D01*
X300949D01*
X302702Y145956D01*
X304044Y147298D01*
X304770Y149051D01*
Y150949D01*
X304044Y152702D01*
X302702Y154044D01*
X300949Y154770D01*
D02*
G37*
G36*
X270949D02*
X269051D01*
X267298Y154044D01*
X265956Y152702D01*
X265230Y150949D01*
Y149051D01*
X265956Y147298D01*
X267298Y145956D01*
X269051Y145230D01*
X270949D01*
X272702Y145956D01*
X274044Y147298D01*
X274770Y149051D01*
Y150949D01*
X274044Y152702D01*
X272702Y154044D01*
X270949Y154770D01*
D02*
G37*
G36*
X210949D02*
X209051D01*
X207298Y154044D01*
X205956Y152702D01*
X205230Y150949D01*
Y149051D01*
X205956Y147298D01*
X207298Y145956D01*
X209051Y145230D01*
X210949D01*
X212702Y145956D01*
X214044Y147298D01*
X214770Y149051D01*
Y150949D01*
X214044Y152702D01*
X212702Y154044D01*
X210949Y154770D01*
D02*
G37*
G36*
X757897Y149470D02*
X756000D01*
X754246Y148744D01*
X752905Y147402D01*
X752178Y145649D01*
Y143751D01*
X752905Y141998D01*
X754246Y140656D01*
X756000Y139930D01*
X757897D01*
X759650Y140656D01*
X760992Y141998D01*
X761718Y143751D01*
Y145649D01*
X760992Y147402D01*
X759650Y148744D01*
X757897Y149470D01*
D02*
G37*
G36*
X82901Y160435D02*
X80098D01*
X77391Y159710D01*
X74964Y158308D01*
X72982Y156326D01*
X71581Y153899D01*
X70855Y151191D01*
Y148389D01*
X71581Y145681D01*
X72982Y143254D01*
X74964Y141272D01*
X77391Y139871D01*
X80098Y139145D01*
X82901D01*
X85609Y139871D01*
X88036Y141272D01*
X90018Y143254D01*
X91419Y145681D01*
X92145Y148389D01*
Y151191D01*
X91419Y153899D01*
X90018Y156326D01*
X88036Y158308D01*
X85609Y159710D01*
X82901Y160435D01*
D02*
G37*
G36*
X57901D02*
X55099D01*
X52391Y159710D01*
X49964Y158308D01*
X47982Y156326D01*
X46581Y153899D01*
X45855Y151191D01*
Y148389D01*
X46581Y145681D01*
X47982Y143254D01*
X49964Y141272D01*
X52391Y139871D01*
X55099Y139145D01*
X57901D01*
X60609Y139871D01*
X63036Y141272D01*
X65018Y143254D01*
X66420Y145681D01*
X67145Y148389D01*
Y151191D01*
X66420Y153899D01*
X65018Y156326D01*
X63036Y158308D01*
X60609Y159710D01*
X57901Y160435D01*
D02*
G37*
G36*
X282690Y137120D02*
X281190D01*
X279804Y136546D01*
X278744Y135485D01*
X278170Y134100D01*
Y132600D01*
X278744Y131215D01*
X279804Y130154D01*
X281190Y129580D01*
X282690D01*
X284076Y130154D01*
X285136Y131215D01*
X285710Y132600D01*
Y134100D01*
X285136Y135485D01*
X284076Y136546D01*
X282690Y137120D01*
D02*
G37*
G36*
X645949Y124770D02*
X644051D01*
X642298Y124044D01*
X640956Y122702D01*
X640230Y120949D01*
Y119051D01*
X640956Y117298D01*
X642298Y115956D01*
X644051Y115230D01*
X645949D01*
X647702Y115956D01*
X649044Y117298D01*
X649770Y119051D01*
Y120949D01*
X649044Y122702D01*
X647702Y124044D01*
X645949Y124770D01*
D02*
G37*
G36*
X615949D02*
X614051D01*
X612298Y124044D01*
X610956Y122702D01*
X610230Y120949D01*
Y119051D01*
X610956Y117298D01*
X612298Y115956D01*
X614051Y115230D01*
X615949D01*
X617702Y115956D01*
X619044Y117298D01*
X619770Y119051D01*
Y120949D01*
X619044Y122702D01*
X617702Y124044D01*
X615949Y124770D01*
D02*
G37*
G36*
X555949D02*
X554051D01*
X552298Y124044D01*
X550956Y122702D01*
X550230Y120949D01*
Y119051D01*
X550956Y117298D01*
X552298Y115956D01*
X554051Y115230D01*
X555949D01*
X557702Y115956D01*
X559044Y117298D01*
X559770Y119051D01*
Y120949D01*
X559044Y122702D01*
X557702Y124044D01*
X555949Y124770D01*
D02*
G37*
G36*
X525949D02*
X524051D01*
X522298Y124044D01*
X520956Y122702D01*
X520230Y120949D01*
Y119051D01*
X520956Y117298D01*
X522298Y115956D01*
X524051Y115230D01*
X525949D01*
X527702Y115956D01*
X529044Y117298D01*
X529770Y119051D01*
Y120949D01*
X529044Y122702D01*
X527702Y124044D01*
X525949Y124770D01*
D02*
G37*
G36*
X495949D02*
X494051D01*
X492298Y124044D01*
X490956Y122702D01*
X490230Y120949D01*
Y119051D01*
X490956Y117298D01*
X492298Y115956D01*
X494051Y115230D01*
X495949D01*
X497702Y115956D01*
X499044Y117298D01*
X499770Y119051D01*
Y120949D01*
X499044Y122702D01*
X497702Y124044D01*
X495949Y124770D01*
D02*
G37*
G36*
X465949D02*
X464051D01*
X462298Y124044D01*
X460956Y122702D01*
X460230Y120949D01*
Y119051D01*
X460956Y117298D01*
X462298Y115956D01*
X464051Y115230D01*
X465949D01*
X467702Y115956D01*
X469044Y117298D01*
X469770Y119051D01*
Y120949D01*
X469044Y122702D01*
X467702Y124044D01*
X465949Y124770D01*
D02*
G37*
G36*
X375949D02*
X374051D01*
X372298Y124044D01*
X370956Y122702D01*
X370230Y120949D01*
Y119051D01*
X370956Y117298D01*
X372298Y115956D01*
X374051Y115230D01*
X375949D01*
X377702Y115956D01*
X379044Y117298D01*
X379770Y119051D01*
Y120949D01*
X379044Y122702D01*
X377702Y124044D01*
X375949Y124770D01*
D02*
G37*
G36*
X345949D02*
X344051D01*
X342298Y124044D01*
X340956Y122702D01*
X340230Y120949D01*
Y119051D01*
X340956Y117298D01*
X342298Y115956D01*
X344051Y115230D01*
X345949D01*
X347702Y115956D01*
X349044Y117298D01*
X349770Y119051D01*
Y120949D01*
X349044Y122702D01*
X347702Y124044D01*
X345949Y124770D01*
D02*
G37*
G36*
X285949D02*
X284051D01*
X282298Y124044D01*
X280956Y122702D01*
X280230Y120949D01*
Y119051D01*
X280956Y117298D01*
X282298Y115956D01*
X284051Y115230D01*
X285949D01*
X287702Y115956D01*
X289044Y117298D01*
X289770Y119051D01*
Y120949D01*
X289044Y122702D01*
X287702Y124044D01*
X285949Y124770D01*
D02*
G37*
G36*
X255949D02*
X254051D01*
X252298Y124044D01*
X250956Y122702D01*
X250230Y120949D01*
Y119051D01*
X250956Y117298D01*
X252298Y115956D01*
X254051Y115230D01*
X255949D01*
X257702Y115956D01*
X259044Y117298D01*
X259770Y119051D01*
Y120949D01*
X259044Y122702D01*
X257702Y124044D01*
X255949Y124770D01*
D02*
G37*
G36*
X225949D02*
X224051D01*
X222298Y124044D01*
X220956Y122702D01*
X220230Y120949D01*
Y119051D01*
X220956Y117298D01*
X222298Y115956D01*
X224051Y115230D01*
X225949D01*
X227702Y115956D01*
X229044Y117298D01*
X229770Y119051D01*
Y120949D01*
X229044Y122702D01*
X227702Y124044D01*
X225949Y124770D01*
D02*
G37*
G36*
X195949D02*
X194051D01*
X192298Y124044D01*
X190956Y122702D01*
X190230Y120949D01*
Y119051D01*
X190956Y117298D01*
X192298Y115956D01*
X194051Y115230D01*
X195949D01*
X197702Y115956D01*
X199044Y117298D01*
X199770Y119051D01*
Y120949D01*
X199044Y122702D01*
X197702Y124044D01*
X195949Y124770D01*
D02*
G37*
G36*
X165949D02*
X164051D01*
X162298Y124044D01*
X160956Y122702D01*
X160230Y120949D01*
Y119051D01*
X160956Y117298D01*
X162298Y115956D01*
X164051Y115230D01*
X165949D01*
X167702Y115956D01*
X169044Y117298D01*
X169770Y119051D01*
Y120949D01*
X169044Y122702D01*
X167702Y124044D01*
X165949Y124770D01*
D02*
G37*
G36*
X135949D02*
X134051D01*
X132298Y124044D01*
X130956Y122702D01*
X130230Y120949D01*
Y119051D01*
X130956Y117298D01*
X132298Y115956D01*
X134051Y115230D01*
X135949D01*
X137702Y115956D01*
X139044Y117298D01*
X139770Y119051D01*
Y120949D01*
X139044Y122702D01*
X137702Y124044D01*
X135949Y124770D01*
D02*
G37*
G36*
X82901Y135435D02*
X80098D01*
X77391Y134710D01*
X74964Y133308D01*
X72982Y131326D01*
X71581Y128899D01*
X70855Y126191D01*
Y123389D01*
X71581Y120681D01*
X72982Y118254D01*
X74964Y116272D01*
X77391Y114871D01*
X80098Y114145D01*
X82901D01*
X85609Y114871D01*
X88036Y116272D01*
X90018Y118254D01*
X91419Y120681D01*
X92145Y123389D01*
Y126191D01*
X91419Y128899D01*
X90018Y131326D01*
X88036Y133308D01*
X85609Y134710D01*
X82901Y135435D01*
D02*
G37*
G36*
X57901D02*
X55099D01*
X52391Y134710D01*
X49964Y133308D01*
X47982Y131326D01*
X46581Y128899D01*
X45855Y126191D01*
Y123389D01*
X46581Y120681D01*
X47982Y118254D01*
X49964Y116272D01*
X52391Y114871D01*
X55099Y114145D01*
X57901D01*
X60609Y114871D01*
X63036Y116272D01*
X65018Y118254D01*
X66420Y120681D01*
X67145Y123389D01*
Y126191D01*
X66420Y128899D01*
X65018Y131326D01*
X63036Y133308D01*
X60609Y134710D01*
X57901Y135435D01*
D02*
G37*
G36*
X809939Y105100D02*
X808041D01*
X806288Y104374D01*
X804946Y103032D01*
X804220Y101279D01*
Y99381D01*
X804946Y97628D01*
X806288Y96286D01*
X808041Y95560D01*
X809939D01*
X811692Y96286D01*
X813034Y97628D01*
X813760Y99381D01*
Y101279D01*
X813034Y103032D01*
X811692Y104374D01*
X809939Y105100D01*
D02*
G37*
G36*
X795969Y103830D02*
X794071D01*
X792318Y103104D01*
X790976Y101762D01*
X790250Y100009D01*
Y98111D01*
X790976Y96358D01*
X792318Y95016D01*
X794071Y94290D01*
X795969D01*
X797722Y95016D01*
X799064Y96358D01*
X799790Y98111D01*
Y100009D01*
X799064Y101762D01*
X797722Y103104D01*
X795969Y103830D01*
D02*
G37*
G36*
X1410948Y94770D02*
X1409051D01*
X1407298Y94044D01*
X1405956Y92702D01*
X1405230Y90949D01*
Y89051D01*
X1405956Y87298D01*
X1407298Y85956D01*
X1409051Y85230D01*
X1410948D01*
X1412702Y85956D01*
X1414043Y87298D01*
X1414770Y89051D01*
Y90949D01*
X1414043Y92702D01*
X1412702Y94044D01*
X1410948Y94770D01*
D02*
G37*
G36*
X1380948D02*
X1379051D01*
X1377298Y94044D01*
X1375956Y92702D01*
X1375230Y90949D01*
Y89051D01*
X1375956Y87298D01*
X1377298Y85956D01*
X1379051Y85230D01*
X1380948D01*
X1382702Y85956D01*
X1384043Y87298D01*
X1384770Y89051D01*
Y90949D01*
X1384043Y92702D01*
X1382702Y94044D01*
X1380948Y94770D01*
D02*
G37*
G36*
X1350948D02*
X1349051D01*
X1347298Y94044D01*
X1345956Y92702D01*
X1345230Y90949D01*
Y89051D01*
X1345956Y87298D01*
X1347298Y85956D01*
X1349051Y85230D01*
X1350948D01*
X1352702Y85956D01*
X1354043Y87298D01*
X1354770Y89051D01*
Y90949D01*
X1354043Y92702D01*
X1352702Y94044D01*
X1350948Y94770D01*
D02*
G37*
G36*
X1320948D02*
X1319051D01*
X1317298Y94044D01*
X1315956Y92702D01*
X1315230Y90949D01*
Y89051D01*
X1315956Y87298D01*
X1317298Y85956D01*
X1319051Y85230D01*
X1320948D01*
X1322702Y85956D01*
X1324043Y87298D01*
X1324770Y89051D01*
Y90949D01*
X1324043Y92702D01*
X1322702Y94044D01*
X1320948Y94770D01*
D02*
G37*
G36*
X1290948D02*
X1289051D01*
X1287298Y94044D01*
X1285956Y92702D01*
X1285230Y90949D01*
Y89051D01*
X1285956Y87298D01*
X1287298Y85956D01*
X1289051Y85230D01*
X1290948D01*
X1292702Y85956D01*
X1294043Y87298D01*
X1294770Y89051D01*
Y90949D01*
X1294043Y92702D01*
X1292702Y94044D01*
X1290948Y94770D01*
D02*
G37*
G36*
X1260948D02*
X1259051D01*
X1257298Y94044D01*
X1255956Y92702D01*
X1255230Y90949D01*
Y89051D01*
X1255956Y87298D01*
X1257298Y85956D01*
X1259051Y85230D01*
X1260948D01*
X1262702Y85956D01*
X1264043Y87298D01*
X1264770Y89051D01*
Y90949D01*
X1264043Y92702D01*
X1262702Y94044D01*
X1260948Y94770D01*
D02*
G37*
G36*
X1230948D02*
X1229051D01*
X1227298Y94044D01*
X1225956Y92702D01*
X1225230Y90949D01*
Y89051D01*
X1225956Y87298D01*
X1227298Y85956D01*
X1229051Y85230D01*
X1230948D01*
X1232702Y85956D01*
X1234043Y87298D01*
X1234770Y89051D01*
Y90949D01*
X1234043Y92702D01*
X1232702Y94044D01*
X1230948Y94770D01*
D02*
G37*
G36*
X1200948D02*
X1199051D01*
X1197298Y94044D01*
X1195956Y92702D01*
X1195230Y90949D01*
Y89051D01*
X1195956Y87298D01*
X1197298Y85956D01*
X1199051Y85230D01*
X1200948D01*
X1202702Y85956D01*
X1204043Y87298D01*
X1204770Y89051D01*
Y90949D01*
X1204043Y92702D01*
X1202702Y94044D01*
X1200948Y94770D01*
D02*
G37*
G36*
X1170948D02*
X1169051D01*
X1167298Y94044D01*
X1165956Y92702D01*
X1165230Y90949D01*
Y89051D01*
X1165956Y87298D01*
X1167298Y85956D01*
X1169051Y85230D01*
X1170948D01*
X1172702Y85956D01*
X1174043Y87298D01*
X1174770Y89051D01*
Y90949D01*
X1174043Y92702D01*
X1172702Y94044D01*
X1170948Y94770D01*
D02*
G37*
G36*
X1140948D02*
X1139051D01*
X1137298Y94044D01*
X1135956Y92702D01*
X1135230Y90949D01*
Y89051D01*
X1135956Y87298D01*
X1137298Y85956D01*
X1139051Y85230D01*
X1140948D01*
X1142702Y85956D01*
X1144044Y87298D01*
X1144770Y89051D01*
Y90949D01*
X1144044Y92702D01*
X1142702Y94044D01*
X1140948Y94770D01*
D02*
G37*
G36*
X480949D02*
X479051D01*
X477298Y94044D01*
X475956Y92702D01*
X475230Y90949D01*
Y89051D01*
X475956Y87298D01*
X477298Y85956D01*
X479051Y85230D01*
X480949D01*
X482702Y85956D01*
X484044Y87298D01*
X484770Y89051D01*
Y90949D01*
X484044Y92702D01*
X482702Y94044D01*
X480949Y94770D01*
D02*
G37*
G36*
X450949D02*
X449051D01*
X447298Y94044D01*
X445956Y92702D01*
X445230Y90949D01*
Y89051D01*
X445956Y87298D01*
X447298Y85956D01*
X449051Y85230D01*
X450949D01*
X452702Y85956D01*
X454044Y87298D01*
X454770Y89051D01*
Y90949D01*
X454044Y92702D01*
X452702Y94044D01*
X450949Y94770D01*
D02*
G37*
G36*
X390949D02*
X389051D01*
X387298Y94044D01*
X385956Y92702D01*
X385230Y90949D01*
Y89051D01*
X385956Y87298D01*
X387298Y85956D01*
X389051Y85230D01*
X390949D01*
X392702Y85956D01*
X394044Y87298D01*
X394770Y89051D01*
Y90949D01*
X394044Y92702D01*
X392702Y94044D01*
X390949Y94770D01*
D02*
G37*
G36*
X360949D02*
X359051D01*
X357298Y94044D01*
X355956Y92702D01*
X355230Y90949D01*
Y89051D01*
X355956Y87298D01*
X357298Y85956D01*
X359051Y85230D01*
X360949D01*
X362702Y85956D01*
X364044Y87298D01*
X364770Y89051D01*
Y90949D01*
X364044Y92702D01*
X362702Y94044D01*
X360949Y94770D01*
D02*
G37*
G36*
X240949D02*
X239051D01*
X237298Y94044D01*
X235956Y92702D01*
X235230Y90949D01*
Y89051D01*
X235956Y87298D01*
X237298Y85956D01*
X239051Y85230D01*
X240949D01*
X242702Y85956D01*
X244044Y87298D01*
X244770Y89051D01*
Y90949D01*
X244044Y92702D01*
X242702Y94044D01*
X240949Y94770D01*
D02*
G37*
G36*
X210949D02*
X209051D01*
X207298Y94044D01*
X205956Y92702D01*
X205230Y90949D01*
Y89051D01*
X205956Y87298D01*
X207298Y85956D01*
X209051Y85230D01*
X210949D01*
X212702Y85956D01*
X214044Y87298D01*
X214770Y89051D01*
Y90949D01*
X214044Y92702D01*
X212702Y94044D01*
X210949Y94770D01*
D02*
G37*
G36*
X180949D02*
X179051D01*
X177298Y94044D01*
X175956Y92702D01*
X175230Y90949D01*
Y89051D01*
X175956Y87298D01*
X177298Y85956D01*
X179051Y85230D01*
X180949D01*
X182702Y85956D01*
X184044Y87298D01*
X184770Y89051D01*
Y90949D01*
X184044Y92702D01*
X182702Y94044D01*
X180949Y94770D01*
D02*
G37*
G36*
X150949D02*
X149051D01*
X147298Y94044D01*
X145956Y92702D01*
X145230Y90949D01*
Y89051D01*
X145956Y87298D01*
X147298Y85956D01*
X149051Y85230D01*
X150949D01*
X152702Y85956D01*
X154044Y87298D01*
X154770Y89051D01*
Y90949D01*
X154044Y92702D01*
X152702Y94044D01*
X150949Y94770D01*
D02*
G37*
G36*
X1395948Y64770D02*
X1394051D01*
X1392298Y64044D01*
X1390956Y62702D01*
X1390230Y60949D01*
Y59051D01*
X1390956Y57298D01*
X1392298Y55956D01*
X1394051Y55230D01*
X1395948D01*
X1397702Y55956D01*
X1399043Y57298D01*
X1399770Y59051D01*
Y60949D01*
X1399043Y62702D01*
X1397702Y64044D01*
X1395948Y64770D01*
D02*
G37*
G36*
X1245948D02*
X1244051D01*
X1242298Y64044D01*
X1240956Y62702D01*
X1240230Y60949D01*
Y59051D01*
X1240956Y57298D01*
X1242298Y55956D01*
X1244051Y55230D01*
X1245948D01*
X1247702Y55956D01*
X1249043Y57298D01*
X1249770Y59051D01*
Y60949D01*
X1249043Y62702D01*
X1247702Y64044D01*
X1245948Y64770D01*
D02*
G37*
G36*
X1215948D02*
X1214051D01*
X1212298Y64044D01*
X1210956Y62702D01*
X1210230Y60949D01*
Y59051D01*
X1210956Y57298D01*
X1212298Y55956D01*
X1214051Y55230D01*
X1215948D01*
X1217702Y55956D01*
X1219043Y57298D01*
X1219770Y59051D01*
Y60949D01*
X1219043Y62702D01*
X1217702Y64044D01*
X1215948Y64770D01*
D02*
G37*
G36*
X1095948D02*
X1094051D01*
X1092298Y64044D01*
X1090956Y62702D01*
X1090230Y60949D01*
Y59051D01*
X1090956Y57298D01*
X1092298Y55956D01*
X1094051Y55230D01*
X1095948D01*
X1097702Y55956D01*
X1099044Y57298D01*
X1099770Y59051D01*
Y60949D01*
X1099044Y62702D01*
X1097702Y64044D01*
X1095948Y64770D01*
D02*
G37*
G36*
X675949D02*
X674051D01*
X672298Y64044D01*
X670956Y62702D01*
X670230Y60949D01*
Y59051D01*
X670956Y57298D01*
X672298Y55956D01*
X674051Y55230D01*
X675949D01*
X677702Y55956D01*
X679044Y57298D01*
X679770Y59051D01*
Y60949D01*
X679044Y62702D01*
X677702Y64044D01*
X675949Y64770D01*
D02*
G37*
G36*
X645949D02*
X644051D01*
X642298Y64044D01*
X640956Y62702D01*
X640230Y60949D01*
Y59051D01*
X640956Y57298D01*
X642298Y55956D01*
X644051Y55230D01*
X645949D01*
X647702Y55956D01*
X649044Y57298D01*
X649770Y59051D01*
Y60949D01*
X649044Y62702D01*
X647702Y64044D01*
X645949Y64770D01*
D02*
G37*
G36*
X615949D02*
X614051D01*
X612298Y64044D01*
X610956Y62702D01*
X610230Y60949D01*
Y59051D01*
X610956Y57298D01*
X612298Y55956D01*
X614051Y55230D01*
X615949D01*
X617702Y55956D01*
X619044Y57298D01*
X619770Y59051D01*
Y60949D01*
X619044Y62702D01*
X617702Y64044D01*
X615949Y64770D01*
D02*
G37*
G36*
X105949D02*
X104051D01*
X102298Y64044D01*
X100956Y62702D01*
X100230Y60949D01*
Y59051D01*
X100956Y57298D01*
X102298Y55956D01*
X104051Y55230D01*
X105949D01*
X107702Y55956D01*
X109044Y57298D01*
X109770Y59051D01*
Y60949D01*
X109044Y62702D01*
X107702Y64044D01*
X105949Y64770D01*
D02*
G37*
G36*
X1230948Y34770D02*
X1229051D01*
X1227298Y34044D01*
X1225956Y32702D01*
X1225230Y30949D01*
Y29051D01*
X1225956Y27298D01*
X1227298Y25956D01*
X1229051Y25230D01*
X1230948D01*
X1232702Y25956D01*
X1234043Y27298D01*
X1234770Y29051D01*
Y30949D01*
X1234043Y32702D01*
X1232702Y34044D01*
X1230948Y34770D01*
D02*
G37*
G36*
X1200948D02*
X1199051D01*
X1197298Y34044D01*
X1195956Y32702D01*
X1195230Y30949D01*
Y29051D01*
X1195956Y27298D01*
X1197298Y25956D01*
X1199051Y25230D01*
X1200948D01*
X1202702Y25956D01*
X1204043Y27298D01*
X1204770Y29051D01*
Y30949D01*
X1204043Y32702D01*
X1202702Y34044D01*
X1200948Y34770D01*
D02*
G37*
G36*
X1110948D02*
X1109051D01*
X1107298Y34044D01*
X1105956Y32702D01*
X1105230Y30949D01*
Y29051D01*
X1105956Y27298D01*
X1107298Y25956D01*
X1109051Y25230D01*
X1110948D01*
X1112702Y25956D01*
X1114044Y27298D01*
X1114770Y29051D01*
Y30949D01*
X1114044Y32702D01*
X1112702Y34044D01*
X1110948Y34770D01*
D02*
G37*
G36*
X1080948D02*
X1079051D01*
X1077298Y34044D01*
X1075956Y32702D01*
X1075230Y30949D01*
Y29051D01*
X1075956Y27298D01*
X1077298Y25956D01*
X1079051Y25230D01*
X1080948D01*
X1082702Y25956D01*
X1084044Y27298D01*
X1084770Y29051D01*
Y30949D01*
X1084044Y32702D01*
X1082702Y34044D01*
X1080948Y34770D01*
D02*
G37*
G36*
X1050948D02*
X1049051D01*
X1047298Y34044D01*
X1045956Y32702D01*
X1045230Y30949D01*
Y29051D01*
X1045956Y27298D01*
X1047298Y25956D01*
X1049051Y25230D01*
X1050948D01*
X1052702Y25956D01*
X1054044Y27298D01*
X1054770Y29051D01*
Y30949D01*
X1054044Y32702D01*
X1052702Y34044D01*
X1050948Y34770D01*
D02*
G37*
G36*
X1020948D02*
X1019051D01*
X1017298Y34044D01*
X1015956Y32702D01*
X1015230Y30949D01*
Y29051D01*
X1015956Y27298D01*
X1017298Y25956D01*
X1019051Y25230D01*
X1020948D01*
X1022702Y25956D01*
X1024044Y27298D01*
X1024770Y29051D01*
Y30949D01*
X1024044Y32702D01*
X1022702Y34044D01*
X1020948Y34770D01*
D02*
G37*
G36*
X990948D02*
X989051D01*
X987298Y34044D01*
X985956Y32702D01*
X985230Y30949D01*
Y29051D01*
X985956Y27298D01*
X987298Y25956D01*
X989051Y25230D01*
X990948D01*
X992702Y25956D01*
X994044Y27298D01*
X994770Y29051D01*
Y30949D01*
X994044Y32702D01*
X992702Y34044D01*
X990948Y34770D01*
D02*
G37*
G36*
X960948D02*
X959051D01*
X957298Y34044D01*
X955956Y32702D01*
X955230Y30949D01*
Y29051D01*
X955956Y27298D01*
X957298Y25956D01*
X959051Y25230D01*
X960948D01*
X962702Y25956D01*
X964044Y27298D01*
X964770Y29051D01*
Y30949D01*
X964044Y32702D01*
X962702Y34044D01*
X960948Y34770D01*
D02*
G37*
G36*
X930948D02*
X929051D01*
X927298Y34044D01*
X925956Y32702D01*
X925230Y30949D01*
Y29051D01*
X925956Y27298D01*
X927298Y25956D01*
X929051Y25230D01*
X930948D01*
X932702Y25956D01*
X934044Y27298D01*
X934770Y29051D01*
Y30949D01*
X934044Y32702D01*
X932702Y34044D01*
X930948Y34770D01*
D02*
G37*
G36*
X900948D02*
X899051D01*
X897298Y34044D01*
X895956Y32702D01*
X895230Y30949D01*
Y29051D01*
X895956Y27298D01*
X897298Y25956D01*
X899051Y25230D01*
X900948D01*
X902702Y25956D01*
X904044Y27298D01*
X904770Y29051D01*
Y30949D01*
X904044Y32702D01*
X902702Y34044D01*
X900948Y34770D01*
D02*
G37*
G36*
X870949D02*
X869051D01*
X867298Y34044D01*
X865956Y32702D01*
X865230Y30949D01*
Y29051D01*
X865956Y27298D01*
X867298Y25956D01*
X869051Y25230D01*
X870949D01*
X872702Y25956D01*
X874044Y27298D01*
X874770Y29051D01*
Y30949D01*
X874044Y32702D01*
X872702Y34044D01*
X870949Y34770D01*
D02*
G37*
G36*
X840949D02*
X839051D01*
X837298Y34044D01*
X835956Y32702D01*
X835230Y30949D01*
Y29051D01*
X835956Y27298D01*
X837298Y25956D01*
X839051Y25230D01*
X840949D01*
X842702Y25956D01*
X844044Y27298D01*
X844770Y29051D01*
Y30949D01*
X844044Y32702D01*
X842702Y34044D01*
X840949Y34770D01*
D02*
G37*
G36*
X810949D02*
X809051D01*
X807298Y34044D01*
X805956Y32702D01*
X805230Y30949D01*
Y29051D01*
X805956Y27298D01*
X807298Y25956D01*
X809051Y25230D01*
X810949D01*
X812702Y25956D01*
X814044Y27298D01*
X814770Y29051D01*
Y30949D01*
X814044Y32702D01*
X812702Y34044D01*
X810949Y34770D01*
D02*
G37*
G36*
X780949D02*
X779051D01*
X777298Y34044D01*
X775956Y32702D01*
X775230Y30949D01*
Y29051D01*
X775956Y27298D01*
X777298Y25956D01*
X779051Y25230D01*
X780949D01*
X782702Y25956D01*
X784044Y27298D01*
X784770Y29051D01*
Y30949D01*
X784044Y32702D01*
X782702Y34044D01*
X780949Y34770D01*
D02*
G37*
G36*
X750949D02*
X749051D01*
X747298Y34044D01*
X745956Y32702D01*
X745230Y30949D01*
Y29051D01*
X745956Y27298D01*
X747298Y25956D01*
X749051Y25230D01*
X750949D01*
X752702Y25956D01*
X754044Y27298D01*
X754770Y29051D01*
Y30949D01*
X754044Y32702D01*
X752702Y34044D01*
X750949Y34770D01*
D02*
G37*
G36*
X720949D02*
X719051D01*
X717298Y34044D01*
X715956Y32702D01*
X715230Y30949D01*
Y29051D01*
X715956Y27298D01*
X717298Y25956D01*
X719051Y25230D01*
X720949D01*
X722702Y25956D01*
X724044Y27298D01*
X724770Y29051D01*
Y30949D01*
X724044Y32702D01*
X722702Y34044D01*
X720949Y34770D01*
D02*
G37*
G36*
X690949D02*
X689051D01*
X687298Y34044D01*
X685956Y32702D01*
X685230Y30949D01*
Y29051D01*
X685956Y27298D01*
X687298Y25956D01*
X689051Y25230D01*
X690949D01*
X692702Y25956D01*
X694044Y27298D01*
X694770Y29051D01*
Y30949D01*
X694044Y32702D01*
X692702Y34044D01*
X690949Y34770D01*
D02*
G37*
G36*
X660949D02*
X659051D01*
X657298Y34044D01*
X655956Y32702D01*
X655230Y30949D01*
Y29051D01*
X655956Y27298D01*
X657298Y25956D01*
X659051Y25230D01*
X660949D01*
X662702Y25956D01*
X664044Y27298D01*
X664770Y29051D01*
Y30949D01*
X664044Y32702D01*
X662702Y34044D01*
X660949Y34770D01*
D02*
G37*
G36*
X630949D02*
X629051D01*
X627298Y34044D01*
X625956Y32702D01*
X625230Y30949D01*
Y29051D01*
X625956Y27298D01*
X627298Y25956D01*
X629051Y25230D01*
X630949D01*
X632702Y25956D01*
X634044Y27298D01*
X634770Y29051D01*
Y30949D01*
X634044Y32702D01*
X632702Y34044D01*
X630949Y34770D01*
D02*
G37*
G36*
X600949D02*
X599051D01*
X597298Y34044D01*
X595956Y32702D01*
X595230Y30949D01*
Y29051D01*
X595956Y27298D01*
X597298Y25956D01*
X599051Y25230D01*
X600949D01*
X602702Y25956D01*
X604044Y27298D01*
X604770Y29051D01*
Y30949D01*
X604044Y32702D01*
X602702Y34044D01*
X600949Y34770D01*
D02*
G37*
G36*
X510949D02*
X509051D01*
X507298Y34044D01*
X505956Y32702D01*
X505230Y30949D01*
Y29051D01*
X505956Y27298D01*
X507298Y25956D01*
X509051Y25230D01*
X510949D01*
X512702Y25956D01*
X514044Y27298D01*
X514770Y29051D01*
Y30949D01*
X514044Y32702D01*
X512702Y34044D01*
X510949Y34770D01*
D02*
G37*
G36*
X480949D02*
X479051D01*
X477298Y34044D01*
X475956Y32702D01*
X475230Y30949D01*
Y29051D01*
X475956Y27298D01*
X477298Y25956D01*
X479051Y25230D01*
X480949D01*
X482702Y25956D01*
X484044Y27298D01*
X484770Y29051D01*
Y30949D01*
X484044Y32702D01*
X482702Y34044D01*
X480949Y34770D01*
D02*
G37*
G36*
X450949D02*
X449051D01*
X447298Y34044D01*
X445956Y32702D01*
X445230Y30949D01*
Y29051D01*
X445956Y27298D01*
X447298Y25956D01*
X449051Y25230D01*
X450949D01*
X452702Y25956D01*
X454044Y27298D01*
X454770Y29051D01*
Y30949D01*
X454044Y32702D01*
X452702Y34044D01*
X450949Y34770D01*
D02*
G37*
G36*
X390949D02*
X389051D01*
X387298Y34044D01*
X385956Y32702D01*
X385230Y30949D01*
Y29051D01*
X385956Y27298D01*
X387298Y25956D01*
X389051Y25230D01*
X390949D01*
X392702Y25956D01*
X394044Y27298D01*
X394770Y29051D01*
Y30949D01*
X394044Y32702D01*
X392702Y34044D01*
X390949Y34770D01*
D02*
G37*
G36*
X360949D02*
X359051D01*
X357298Y34044D01*
X355956Y32702D01*
X355230Y30949D01*
Y29051D01*
X355956Y27298D01*
X357298Y25956D01*
X359051Y25230D01*
X360949D01*
X362702Y25956D01*
X364044Y27298D01*
X364770Y29051D01*
Y30949D01*
X364044Y32702D01*
X362702Y34044D01*
X360949Y34770D01*
D02*
G37*
G36*
X120949D02*
X119051D01*
X117298Y34044D01*
X115956Y32702D01*
X115230Y30949D01*
Y29051D01*
X115956Y27298D01*
X117298Y25956D01*
X119051Y25230D01*
X120949D01*
X122702Y25956D01*
X124044Y27298D01*
X124770Y29051D01*
Y30949D01*
X124044Y32702D01*
X122702Y34044D01*
X120949Y34770D01*
D02*
G37*
G36*
X1155915Y82430D02*
X1150206D01*
X1144567Y81537D01*
X1139137Y79773D01*
X1134050Y77181D01*
X1129432Y73825D01*
X1125395Y69788D01*
X1122039Y65170D01*
X1119447Y60083D01*
X1117683Y54653D01*
X1116790Y49015D01*
Y43306D01*
X1117683Y37667D01*
X1119447Y32237D01*
X1122039Y27150D01*
X1125395Y22532D01*
X1129432Y18495D01*
X1134050Y15139D01*
X1139137Y12547D01*
X1144567Y10783D01*
X1150206Y9890D01*
X1155915D01*
X1161553Y10783D01*
X1166983Y12547D01*
X1172070Y15139D01*
X1176688Y18495D01*
X1180725Y22532D01*
X1184081Y27150D01*
X1186673Y32237D01*
X1188437Y37667D01*
X1189330Y43306D01*
Y49015D01*
X1188437Y54653D01*
X1186673Y60083D01*
X1184081Y65170D01*
X1180725Y69788D01*
X1176688Y73825D01*
X1172070Y77181D01*
X1166983Y79773D01*
X1161553Y81537D01*
X1155915Y82430D01*
D02*
G37*
G36*
X555914D02*
X550205D01*
X544567Y81537D01*
X539137Y79773D01*
X534050Y77181D01*
X529432Y73825D01*
X525395Y69788D01*
X522039Y65170D01*
X519447Y60083D01*
X517683Y54653D01*
X516790Y49015D01*
Y43306D01*
X517683Y37667D01*
X519447Y32237D01*
X522039Y27150D01*
X525395Y22532D01*
X529432Y18495D01*
X534050Y15139D01*
X539137Y12547D01*
X544567Y10783D01*
X550205Y9890D01*
X555914D01*
X561553Y10783D01*
X566983Y12547D01*
X572070Y15139D01*
X576688Y18495D01*
X580725Y22532D01*
X584081Y27150D01*
X586673Y32237D01*
X588437Y37667D01*
X589330Y43306D01*
Y49015D01*
X588437Y54653D01*
X586673Y60083D01*
X584081Y65170D01*
X580725Y69788D01*
X576688Y73825D01*
X572070Y77181D01*
X566983Y79773D01*
X561553Y81537D01*
X555914Y82430D01*
D02*
G37*
G36*
X1452705Y91270D02*
X1447295D01*
X1441931Y90564D01*
X1436706Y89164D01*
X1431708Y87093D01*
X1427022Y84388D01*
X1422730Y81095D01*
X1418905Y77270D01*
X1415612Y72978D01*
X1412907Y68292D01*
X1410836Y63294D01*
X1409436Y58069D01*
X1408730Y52705D01*
Y47295D01*
X1409436Y41931D01*
X1410836Y36706D01*
X1412907Y31708D01*
X1415612Y27022D01*
X1418905Y22730D01*
X1422730Y18905D01*
X1427022Y15612D01*
X1431708Y12907D01*
X1436706Y10836D01*
X1441931Y9436D01*
X1447295Y8730D01*
X1452705D01*
X1458069Y9436D01*
X1463294Y10836D01*
X1468292Y12907D01*
X1472978Y15612D01*
X1477270Y18905D01*
X1481095Y22730D01*
X1484388Y27022D01*
X1487093Y31708D01*
X1489164Y36706D01*
X1490564Y41931D01*
X1491270Y47295D01*
Y52705D01*
X1490564Y58069D01*
X1489164Y63294D01*
X1487093Y68292D01*
X1484388Y72978D01*
X1481095Y77270D01*
X1477270Y81095D01*
X1472978Y84388D01*
X1468292Y87093D01*
X1463294Y89164D01*
X1458069Y90564D01*
X1452705Y91270D01*
D02*
G37*
G36*
X52705D02*
X47295D01*
X41931Y90564D01*
X36706Y89164D01*
X31708Y87093D01*
X27022Y84388D01*
X22730Y81095D01*
X18905Y77270D01*
X15612Y72978D01*
X12907Y68292D01*
X10836Y63294D01*
X9436Y58069D01*
X8730Y52705D01*
Y47295D01*
X9436Y41931D01*
X10836Y36706D01*
X12907Y31708D01*
X15612Y27022D01*
X18905Y22730D01*
X22730Y18905D01*
X27022Y15612D01*
X31708Y12907D01*
X36706Y10836D01*
X41931Y9436D01*
X47295Y8730D01*
X52705D01*
X58069Y9436D01*
X63294Y10836D01*
X68292Y12907D01*
X72978Y15612D01*
X77270Y18905D01*
X81095Y22730D01*
X84388Y27022D01*
X87093Y31708D01*
X89164Y36706D01*
X90564Y41931D01*
X91270Y47295D01*
Y52705D01*
X90564Y58069D01*
X89164Y63294D01*
X87093Y68292D01*
X84388Y72978D01*
X81095Y77270D01*
X77270Y81095D01*
X72978Y84388D01*
X68292Y87093D01*
X63294Y89164D01*
X58069Y90564D01*
X52705Y91270D01*
D02*
G37*
%LPD*%
D33*
X553060Y496160D02*
D03*
X1153060Y46160D02*
D03*
Y496160D02*
D03*
X553060Y46160D02*
D03*
D34*
X82550Y418770D02*
D03*
Y393770D02*
D03*
Y368770D02*
D03*
Y343770D02*
D03*
Y318770D02*
D03*
Y293770D02*
D03*
X107550Y418770D02*
D03*
Y393770D02*
D03*
Y368770D02*
D03*
Y343770D02*
D03*
Y318770D02*
D03*
Y293770D02*
D03*
X1283700Y195280D02*
D03*
X1308700D02*
D03*
X1333700D02*
D03*
X1358700D02*
D03*
X1383700D02*
D03*
X1408700D02*
D03*
X1283700Y220280D02*
D03*
X1308700D02*
D03*
X1333700D02*
D03*
X1358700D02*
D03*
X1383700D02*
D03*
X1408700D02*
D03*
X1404890Y383840D02*
D03*
X1379890D02*
D03*
X1354890D02*
D03*
X1329890D02*
D03*
X1304890D02*
D03*
X1279890D02*
D03*
X1404890Y358840D02*
D03*
X1379890D02*
D03*
X1354890D02*
D03*
X1329890D02*
D03*
X1304890D02*
D03*
X1279890D02*
D03*
X56500Y249790D02*
D03*
Y224790D02*
D03*
Y199790D02*
D03*
Y174790D02*
D03*
Y149790D02*
D03*
Y124790D02*
D03*
X81500Y249790D02*
D03*
Y224790D02*
D03*
Y199790D02*
D03*
Y174790D02*
D03*
Y149790D02*
D03*
Y124790D02*
D03*
D35*
X69150Y356270D02*
D03*
X1346200Y233680D02*
D03*
X1342390Y345440D02*
D03*
X94900Y187290D02*
D03*
D36*
X50000Y50000D02*
D03*
X1450000Y500000D02*
D03*
Y50000D02*
D03*
X50000Y500000D02*
D03*
D37*
X1470000Y450000D02*
D03*
Y390000D02*
D03*
X1485000Y360000D02*
D03*
X1470000Y330000D02*
D03*
X1485000Y300000D02*
D03*
X1470000Y270000D02*
D03*
X1485000Y240000D02*
D03*
X1470000Y210000D02*
D03*
X1485000Y180000D02*
D03*
X1470000Y150000D02*
D03*
X1440000Y450000D02*
D03*
Y390000D02*
D03*
X1455000Y360000D02*
D03*
X1440000Y330000D02*
D03*
X1455000Y300000D02*
D03*
X1440000Y270000D02*
D03*
X1455000Y240000D02*
D03*
X1440000Y210000D02*
D03*
X1455000Y180000D02*
D03*
X1440000Y150000D02*
D03*
X1410000Y450000D02*
D03*
X1425000Y360000D02*
D03*
X1410000Y150000D02*
D03*
Y90000D02*
D03*
X1380000Y510000D02*
D03*
X1395000Y480000D02*
D03*
X1380000Y450000D02*
D03*
Y150000D02*
D03*
Y90000D02*
D03*
X1395000Y60000D02*
D03*
X1350000Y510000D02*
D03*
X1365000Y480000D02*
D03*
X1350000Y450000D02*
D03*
Y150000D02*
D03*
Y90000D02*
D03*
X1320000Y510000D02*
D03*
X1335000Y480000D02*
D03*
X1320000Y450000D02*
D03*
Y90000D02*
D03*
X1290000Y510000D02*
D03*
X1305000Y480000D02*
D03*
X1290000Y90000D02*
D03*
X1260000Y510000D02*
D03*
X1275000Y480000D02*
D03*
X1260000Y90000D02*
D03*
X1230000Y510000D02*
D03*
X1245000Y480000D02*
D03*
X1230000Y90000D02*
D03*
X1245000Y60000D02*
D03*
X1230000Y30000D02*
D03*
X1200000Y510000D02*
D03*
X1215000Y480000D02*
D03*
X1200000Y90000D02*
D03*
X1215000Y60000D02*
D03*
X1200000Y30000D02*
D03*
X1170000Y90000D02*
D03*
X1140000D02*
D03*
X1110000Y510000D02*
D03*
Y30000D02*
D03*
X1080000Y510000D02*
D03*
X1095000Y480000D02*
D03*
Y60000D02*
D03*
X1080000Y30000D02*
D03*
X1050000Y510000D02*
D03*
X1065000Y480000D02*
D03*
X1050000Y30000D02*
D03*
X1020000Y510000D02*
D03*
X1035000Y480000D02*
D03*
X1020000Y30000D02*
D03*
X990000Y510000D02*
D03*
X1005000Y480000D02*
D03*
X990000Y30000D02*
D03*
X960000Y510000D02*
D03*
X975000Y480000D02*
D03*
X960000Y30000D02*
D03*
X930000Y510000D02*
D03*
X945000Y480000D02*
D03*
X930000Y30000D02*
D03*
X900000Y510000D02*
D03*
X915000Y480000D02*
D03*
X900000Y30000D02*
D03*
X870000Y510000D02*
D03*
X885000Y480000D02*
D03*
X870000Y30000D02*
D03*
X840000Y510000D02*
D03*
X855000Y480000D02*
D03*
X840000Y30000D02*
D03*
X810000Y510000D02*
D03*
X825000Y480000D02*
D03*
X810000Y30000D02*
D03*
X780000Y510000D02*
D03*
X795000Y480000D02*
D03*
X780000Y30000D02*
D03*
X750000Y510000D02*
D03*
X765000Y480000D02*
D03*
Y420000D02*
D03*
X750000Y390000D02*
D03*
Y30000D02*
D03*
X720000Y510000D02*
D03*
X735000Y480000D02*
D03*
X720000Y330000D02*
D03*
Y30000D02*
D03*
X690000Y510000D02*
D03*
X705000Y480000D02*
D03*
Y420000D02*
D03*
X690000Y30000D02*
D03*
X660000Y510000D02*
D03*
X675000Y480000D02*
D03*
Y420000D02*
D03*
X660000Y330000D02*
D03*
X675000Y300000D02*
D03*
X660000Y270000D02*
D03*
X675000Y240000D02*
D03*
Y60000D02*
D03*
X660000Y30000D02*
D03*
X630000Y510000D02*
D03*
X645000Y480000D02*
D03*
Y420000D02*
D03*
X630000Y330000D02*
D03*
X645000Y300000D02*
D03*
X630000Y270000D02*
D03*
X645000Y240000D02*
D03*
X630000Y210000D02*
D03*
Y150000D02*
D03*
X645000Y120000D02*
D03*
Y60000D02*
D03*
X630000Y30000D02*
D03*
X600000Y510000D02*
D03*
X615000Y480000D02*
D03*
Y420000D02*
D03*
Y300000D02*
D03*
X600000Y270000D02*
D03*
X615000Y240000D02*
D03*
X600000Y210000D02*
D03*
X615000Y180000D02*
D03*
X600000Y150000D02*
D03*
X615000Y120000D02*
D03*
Y60000D02*
D03*
X600000Y30000D02*
D03*
X585000Y420000D02*
D03*
Y300000D02*
D03*
X570000Y270000D02*
D03*
X585000Y240000D02*
D03*
X570000Y210000D02*
D03*
X585000Y180000D02*
D03*
X555000Y420000D02*
D03*
Y240000D02*
D03*
X540000Y210000D02*
D03*
X555000Y180000D02*
D03*
X540000Y150000D02*
D03*
X555000Y120000D02*
D03*
X510000Y510000D02*
D03*
X525000Y420000D02*
D03*
Y300000D02*
D03*
Y240000D02*
D03*
X510000Y150000D02*
D03*
X525000Y120000D02*
D03*
X510000Y30000D02*
D03*
X480000Y510000D02*
D03*
X495000Y480000D02*
D03*
X480000Y150000D02*
D03*
X495000Y120000D02*
D03*
X480000Y90000D02*
D03*
Y30000D02*
D03*
X450000Y510000D02*
D03*
X465000Y480000D02*
D03*
Y240000D02*
D03*
Y120000D02*
D03*
X450000Y90000D02*
D03*
Y30000D02*
D03*
X420000Y510000D02*
D03*
X435000Y480000D02*
D03*
Y420000D02*
D03*
X420000Y270000D02*
D03*
X390000Y510000D02*
D03*
X405000Y480000D02*
D03*
Y420000D02*
D03*
X390000Y210000D02*
D03*
Y150000D02*
D03*
Y90000D02*
D03*
Y30000D02*
D03*
X360000Y510000D02*
D03*
X375000Y480000D02*
D03*
Y420000D02*
D03*
Y300000D02*
D03*
X360000Y270000D02*
D03*
X375000Y240000D02*
D03*
X360000Y210000D02*
D03*
Y150000D02*
D03*
X375000Y120000D02*
D03*
X360000Y90000D02*
D03*
Y30000D02*
D03*
X330000Y510000D02*
D03*
X345000Y480000D02*
D03*
Y420000D02*
D03*
Y300000D02*
D03*
Y240000D02*
D03*
Y120000D02*
D03*
X300000Y510000D02*
D03*
X315000Y480000D02*
D03*
Y420000D02*
D03*
Y300000D02*
D03*
X300000Y150000D02*
D03*
X270000Y510000D02*
D03*
X285000Y480000D02*
D03*
Y420000D02*
D03*
Y240000D02*
D03*
X270000Y210000D02*
D03*
Y150000D02*
D03*
X285000Y120000D02*
D03*
X240000Y510000D02*
D03*
X255000Y480000D02*
D03*
Y420000D02*
D03*
Y300000D02*
D03*
X240000Y270000D02*
D03*
X255000Y240000D02*
D03*
X240000Y210000D02*
D03*
X255000Y120000D02*
D03*
X240000Y90000D02*
D03*
X210000Y510000D02*
D03*
X225000Y480000D02*
D03*
Y420000D02*
D03*
Y300000D02*
D03*
X210000Y150000D02*
D03*
X225000Y120000D02*
D03*
X210000Y90000D02*
D03*
X180000Y510000D02*
D03*
X195000Y480000D02*
D03*
X180000Y450000D02*
D03*
X195000Y300000D02*
D03*
X180000Y270000D02*
D03*
Y210000D02*
D03*
X195000Y120000D02*
D03*
X180000Y90000D02*
D03*
X150000Y510000D02*
D03*
X165000Y480000D02*
D03*
X150000Y450000D02*
D03*
X165000Y300000D02*
D03*
X150000Y270000D02*
D03*
Y210000D02*
D03*
X165000Y120000D02*
D03*
X150000Y90000D02*
D03*
X120000Y510000D02*
D03*
X135000Y480000D02*
D03*
Y300000D02*
D03*
X120000Y270000D02*
D03*
Y210000D02*
D03*
X135000Y120000D02*
D03*
X120000Y30000D02*
D03*
X105000Y480000D02*
D03*
X90000Y270000D02*
D03*
X105000Y60000D02*
D03*
X60000Y450000D02*
D03*
Y330000D02*
D03*
Y270000D02*
D03*
X30000Y450000D02*
D03*
X45000Y420000D02*
D03*
X30000Y390000D02*
D03*
X45000Y360000D02*
D03*
X30000Y330000D02*
D03*
X45000Y300000D02*
D03*
X30000Y270000D02*
D03*
X45000Y240000D02*
D03*
X30000Y210000D02*
D03*
X1410000Y300000D02*
D03*
Y240000D02*
D03*
X1425000Y210000D02*
D03*
X1410000Y180000D02*
D03*
X1395000Y330000D02*
D03*
X1380000Y300000D02*
D03*
Y240000D02*
D03*
X1395000Y210000D02*
D03*
X1380000Y180000D02*
D03*
X1365000Y330000D02*
D03*
Y270000D02*
D03*
X1320000Y240000D02*
D03*
X1305000Y270000D02*
D03*
X1275000Y450000D02*
D03*
X1260000Y360000D02*
D03*
Y300000D02*
D03*
Y240000D02*
D03*
X1245000Y450000D02*
D03*
Y390000D02*
D03*
X1230000Y240000D02*
D03*
X1215000Y450000D02*
D03*
Y390000D02*
D03*
Y330000D02*
D03*
X1200000Y240000D02*
D03*
X1185000Y450000D02*
D03*
Y390000D02*
D03*
Y330000D02*
D03*
X1170000Y240000D02*
D03*
X1155000Y450000D02*
D03*
Y390000D02*
D03*
Y330000D02*
D03*
X1140000Y240000D02*
D03*
X1125000Y450000D02*
D03*
Y330000D02*
D03*
X1110000Y240000D02*
D03*
X1095000Y450000D02*
D03*
Y330000D02*
D03*
X1080000Y240000D02*
D03*
X1095000Y90000D02*
D03*
X1065000Y450000D02*
D03*
Y330000D02*
D03*
X1050000Y240000D02*
D03*
X1065000Y90000D02*
D03*
X1050000Y60000D02*
D03*
X1035000Y450000D02*
D03*
X1020000Y240000D02*
D03*
X1035000Y90000D02*
D03*
X1005000Y450000D02*
D03*
Y90000D02*
D03*
X990000Y60000D02*
D03*
X975000Y450000D02*
D03*
Y330000D02*
D03*
X960000Y240000D02*
D03*
Y180000D02*
D03*
X975000Y90000D02*
D03*
X960000Y60000D02*
D03*
X945000Y450000D02*
D03*
Y270000D02*
D03*
Y210000D02*
D03*
X930000Y180000D02*
D03*
Y120000D02*
D03*
X900000D02*
D03*
X885000Y330000D02*
D03*
X870000Y120000D02*
D03*
X840000Y360000D02*
D03*
X855000Y330000D02*
D03*
X810000Y360000D02*
D03*
Y120000D02*
D03*
X780000Y180000D02*
D03*
Y120000D02*
D03*
X765000Y210000D02*
D03*
X750000Y180000D02*
D03*
Y120000D02*
D03*
X720000Y240000D02*
D03*
Y180000D02*
D03*
X675000Y210000D02*
D03*
X198120Y184150D02*
D03*
X204470Y266700D02*
D03*
X553060Y523660D02*
D03*
X573060Y516160D02*
D03*
X580560Y496160D02*
D03*
X573060Y476160D02*
D03*
X553060Y468660D02*
D03*
X533060Y476160D02*
D03*
X525560Y496160D02*
D03*
X533060Y516160D02*
D03*
X756948Y144700D02*
D03*
X795020Y99060D02*
D03*
X808990Y100330D02*
D03*
X961390Y214600D02*
D03*
X943610Y252700D02*
D03*
X957580Y265400D02*
D03*
X975360Y278130D02*
D03*
X958850Y290830D02*
D03*
X947420Y303530D02*
D03*
X958850Y316230D02*
D03*
X1153060Y73660D02*
D03*
X1173060Y66160D02*
D03*
X1180560Y46160D02*
D03*
X1173060Y26160D02*
D03*
X1153060Y18660D02*
D03*
X1133060Y26160D02*
D03*
X1125560Y46160D02*
D03*
X1133060Y66160D02*
D03*
X52070Y79570D02*
D03*
X72070Y72070D02*
D03*
X79570Y52070D02*
D03*
X72070Y32070D02*
D03*
X52070Y24570D02*
D03*
X32070Y32070D02*
D03*
X24570Y52070D02*
D03*
X32070Y72070D02*
D03*
X1153060Y523660D02*
D03*
X1173060Y516160D02*
D03*
X1180560Y496160D02*
D03*
X1173060Y476160D02*
D03*
X1153060Y468660D02*
D03*
X1133060Y476160D02*
D03*
X1125560Y496160D02*
D03*
X1133060Y516160D02*
D03*
X553060Y73660D02*
D03*
X573060Y66160D02*
D03*
X580560Y46160D02*
D03*
X573060Y26160D02*
D03*
X553060Y18660D02*
D03*
X533060Y26160D02*
D03*
X525560Y46160D02*
D03*
X533060Y66160D02*
D03*
X1450000Y527500D02*
D03*
X1470000Y520000D02*
D03*
X1477500Y500000D02*
D03*
X1470000Y480000D02*
D03*
X1450000Y472500D02*
D03*
X1430000Y480000D02*
D03*
X1422500Y500000D02*
D03*
X1430000Y520000D02*
D03*
X1450000Y77500D02*
D03*
X1470000Y70000D02*
D03*
X1477500Y50000D02*
D03*
X1470000Y30000D02*
D03*
X1450000Y22500D02*
D03*
X1430000Y30000D02*
D03*
X1422500Y50000D02*
D03*
X1430000Y70000D02*
D03*
X50000Y527500D02*
D03*
X70000Y520000D02*
D03*
X77500Y500000D02*
D03*
X70000Y480000D02*
D03*
X50000Y472500D02*
D03*
X30000Y480000D02*
D03*
X22500Y500000D02*
D03*
X30000Y520000D02*
D03*
D38*
X1051560Y339090D02*
D03*
X396240Y424100D02*
D03*
X466090D02*
D03*
X782320Y438150D02*
D03*
X680720Y231140D02*
D03*
X1036320Y72390D02*
D03*
X995680Y107950D02*
D03*
X686764Y152400D02*
D03*
X968621Y171450D02*
D03*
X967455Y181865D02*
D03*
X270510Y308610D02*
D03*
X391160Y265430D02*
D03*
X495300Y384810D02*
D03*
X458470Y364490D02*
D03*
X462280Y328930D02*
D03*
X463550Y299720D02*
D03*
X468630Y270510D02*
D03*
X506730Y232410D02*
D03*
X468630Y201930D02*
D03*
X281940Y133350D02*
D03*
X295910Y191770D02*
D03*
X346710Y227330D02*
D03*
X345440Y309880D02*
D03*
X482600Y205740D02*
D03*
X476250Y302260D02*
D03*
Y327660D02*
D03*
X480060Y365760D02*
D03*
X478790Y247650D02*
D03*
X477520Y274320D02*
D03*
X478790Y389890D02*
D03*
X1182370Y162560D02*
D03*
M02*
