G04*
G04 #@! TF.GenerationSoftware,Altium Limited,Altium Designer,24.0.1 (36)*
G04*
G04 Layer_Color=8421504*
%FSLAX44Y44*%
%MOMM*%
G71*
G04*
G04 #@! TF.SameCoordinates,BB923111-6D0E-4387-AAE4-9FFB48530C1F*
G04*
G04*
G04 #@! TF.FilePolarity,Positive*
G04*
G01*
G75*
%ADD12R,1.7000X0.7400*%
%ADD13R,0.7400X1.7000*%
%ADD14R,1.3500X1.1500*%
%ADD15R,1.1500X1.3500*%
%ADD16R,0.9000X1.3000*%
G04:AMPARAMS|DCode=17|XSize=1.75mm|YSize=1.25mm|CornerRadius=0.3125mm|HoleSize=0mm|Usage=FLASHONLY|Rotation=90.000|XOffset=0mm|YOffset=0mm|HoleType=Round|Shape=RoundedRectangle|*
%AMROUNDEDRECTD17*
21,1,1.7500,0.6250,0,0,90.0*
21,1,1.1250,1.2500,0,0,90.0*
1,1,0.6250,0.3125,0.5625*
1,1,0.6250,0.3125,-0.5625*
1,1,0.6250,-0.3125,-0.5625*
1,1,0.6250,-0.3125,0.5625*
%
%ADD17ROUNDEDRECTD17*%
D12*
X695680Y168720D02*
D03*
X734680D02*
D03*
X995680D02*
D03*
X1034680D02*
D03*
X695680Y181420D02*
D03*
Y194120D02*
D03*
Y206820D02*
D03*
Y219520D02*
D03*
Y232220D02*
D03*
Y244920D02*
D03*
Y257620D02*
D03*
Y270320D02*
D03*
Y283020D02*
D03*
Y295720D02*
D03*
Y308420D02*
D03*
Y321120D02*
D03*
Y333820D02*
D03*
X734680Y181420D02*
D03*
Y194120D02*
D03*
Y206820D02*
D03*
Y219520D02*
D03*
Y232220D02*
D03*
Y244920D02*
D03*
Y257620D02*
D03*
Y270320D02*
D03*
Y283020D02*
D03*
Y295720D02*
D03*
Y308420D02*
D03*
Y321120D02*
D03*
Y333820D02*
D03*
X995680Y181420D02*
D03*
Y194120D02*
D03*
Y206820D02*
D03*
Y219520D02*
D03*
Y232220D02*
D03*
Y244920D02*
D03*
Y257620D02*
D03*
Y270320D02*
D03*
Y283020D02*
D03*
Y295720D02*
D03*
Y308420D02*
D03*
Y321120D02*
D03*
Y333820D02*
D03*
X1034680Y257620D02*
D03*
Y270320D02*
D03*
Y283020D02*
D03*
Y295720D02*
D03*
Y308420D02*
D03*
Y321120D02*
D03*
Y333820D02*
D03*
Y206820D02*
D03*
Y194120D02*
D03*
Y181420D02*
D03*
Y219520D02*
D03*
Y232220D02*
D03*
Y244920D02*
D03*
D13*
X786320Y381770D02*
D03*
Y420770D02*
D03*
X782630Y100770D02*
D03*
Y61770D02*
D03*
X799020Y420770D02*
D03*
X811720D02*
D03*
X824420D02*
D03*
X849820D02*
D03*
X837120D02*
D03*
X862520D02*
D03*
X875220D02*
D03*
X887920D02*
D03*
X913320D02*
D03*
X900620D02*
D03*
X926020D02*
D03*
X938720D02*
D03*
X951420D02*
D03*
X799020Y381770D02*
D03*
X811720D02*
D03*
X824420D02*
D03*
X837120D02*
D03*
X849820D02*
D03*
X862520D02*
D03*
X875220D02*
D03*
X887920D02*
D03*
X900620D02*
D03*
X913320D02*
D03*
X926020D02*
D03*
X938720D02*
D03*
X951420D02*
D03*
X808030Y100770D02*
D03*
X795330D02*
D03*
X820730D02*
D03*
X833430D02*
D03*
X846130D02*
D03*
X858830D02*
D03*
X871530D02*
D03*
X884230D02*
D03*
X896930D02*
D03*
X909630D02*
D03*
X922330D02*
D03*
X935030D02*
D03*
X947730D02*
D03*
X795330Y61770D02*
D03*
X808030D02*
D03*
X820730D02*
D03*
X833430D02*
D03*
X846130D02*
D03*
X871530D02*
D03*
X858830D02*
D03*
X884230D02*
D03*
X896930D02*
D03*
X909630D02*
D03*
X922330D02*
D03*
X935030D02*
D03*
X947730D02*
D03*
D14*
X1050290Y98150D02*
D03*
Y79650D02*
D03*
X1155700Y363220D02*
D03*
Y344720D02*
D03*
X1186180Y372110D02*
D03*
Y353610D02*
D03*
X1012190Y127360D02*
D03*
Y108860D02*
D03*
D15*
X309520Y322580D02*
D03*
X328020D02*
D03*
X327980Y373380D02*
D03*
X309480D02*
D03*
X305710Y288290D02*
D03*
X324210D02*
D03*
X329250Y262890D02*
D03*
X310750D02*
D03*
X309520Y100330D02*
D03*
X328020D02*
D03*
X310790Y177800D02*
D03*
X329290D02*
D03*
X498750Y190500D02*
D03*
X517250D02*
D03*
X329250Y205740D02*
D03*
X310750D02*
D03*
X515980Y214630D02*
D03*
X497480D02*
D03*
X328020Y124460D02*
D03*
X309520D02*
D03*
X429620Y35560D02*
D03*
X411120D02*
D03*
X429250Y123190D02*
D03*
X410750D02*
D03*
X429250Y176530D02*
D03*
X410750D02*
D03*
X429250Y229870D02*
D03*
X410750D02*
D03*
X429250Y281940D02*
D03*
X410750D02*
D03*
X429250Y332740D02*
D03*
X410750D02*
D03*
X429250Y381000D02*
D03*
X410750D02*
D03*
X411120Y93980D02*
D03*
X429620D02*
D03*
X490750Y340000D02*
D03*
X509250D02*
D03*
X490750Y370000D02*
D03*
X509250D02*
D03*
X490750Y280000D02*
D03*
X509250D02*
D03*
X490750Y310000D02*
D03*
X509250D02*
D03*
X490750Y250000D02*
D03*
X509250D02*
D03*
X490750Y400000D02*
D03*
X509250D02*
D03*
D16*
X328230Y346710D02*
D03*
X309230D02*
D03*
X329500Y236220D02*
D03*
X310500D02*
D03*
X340970Y74930D02*
D03*
X321970D02*
D03*
X329540Y151130D02*
D03*
X310540D02*
D03*
X517500Y163830D02*
D03*
X498500D02*
D03*
X429870Y63500D02*
D03*
X410870D02*
D03*
X429500Y148590D02*
D03*
X410500D02*
D03*
X429500Y201930D02*
D03*
X410500D02*
D03*
X429500Y254000D02*
D03*
X410500D02*
D03*
X429500Y306070D02*
D03*
X410500D02*
D03*
X429500Y356870D02*
D03*
X410500D02*
D03*
X429500Y406400D02*
D03*
X410500D02*
D03*
D17*
X177090Y119380D02*
D03*
X148590D02*
D03*
X178080Y181610D02*
D03*
X149580D02*
D03*
X178080Y152400D02*
D03*
X149580D02*
D03*
X162280Y421640D02*
D03*
X190780D02*
D03*
X162280Y391160D02*
D03*
X190780D02*
D03*
X162280Y360680D02*
D03*
X190780D02*
D03*
M02*
