G04*
G04 #@! TF.GenerationSoftware,Altium Limited,Altium Designer,24.0.1 (36)*
G04*
G04 Layer_Physical_Order=2*
G04 Layer_Color=36540*
%FSLAX44Y44*%
%MOMM*%
G71*
G04*
G04 #@! TF.SameCoordinates,BB923111-6D0E-4387-AAE4-9FFB48530C1F*
G04*
G04*
G04 #@! TF.FilePolarity,Positive*
G04*
G01*
G75*
%ADD33C,7.0000*%
%ADD34C,1.8750*%
%ADD35C,0.6750*%
%ADD36C,8.0000*%
%ADD37C,0.7000*%
%ADD38C,0.5000*%
G36*
X1450000Y550000D02*
X1453277D01*
X1459775Y549144D01*
X1466106Y547448D01*
X1472162Y544940D01*
X1477838Y541663D01*
X1483038Y537673D01*
X1487673Y533038D01*
X1491663Y527838D01*
X1494940Y522162D01*
X1497448Y516106D01*
X1499144Y509775D01*
X1500000Y503277D01*
Y500000D01*
X1500000Y500000D01*
X1500000Y500000D01*
X1500000Y50000D01*
Y46723D01*
X1499144Y40224D01*
X1497448Y33893D01*
X1494940Y27838D01*
X1491663Y22162D01*
X1487673Y16962D01*
X1483038Y12327D01*
X1477838Y8337D01*
X1472162Y5060D01*
X1466106Y2552D01*
X1459775Y856D01*
X1453277Y0D01*
X1450000Y0D01*
X50000Y0D01*
X46723D01*
X40224Y856D01*
X33893Y2552D01*
X27838Y5060D01*
X22162Y8337D01*
X16962Y12327D01*
X12327Y16962D01*
X8337Y22162D01*
X5060Y27838D01*
X2552Y33893D01*
X856Y40224D01*
X0Y46723D01*
X0Y50000D01*
X0Y500000D01*
Y503277D01*
X856Y509775D01*
X2552Y516106D01*
X5060Y522162D01*
X8337Y527838D01*
X12327Y533038D01*
X16962Y537673D01*
X22162Y541663D01*
X27838Y544940D01*
X33893Y547448D01*
X40224Y549144D01*
X46723Y550000D01*
X50000D01*
X50000Y550000D01*
X1450000Y550000D01*
D02*
G37*
%LPC*%
G36*
X1275948Y454770D02*
X1274051D01*
X1272298Y454044D01*
X1270956Y452702D01*
X1270230Y450949D01*
Y449051D01*
X1270956Y447298D01*
X1272298Y445956D01*
X1274051Y445230D01*
X1275948D01*
X1277702Y445956D01*
X1279043Y447298D01*
X1279770Y449051D01*
Y450949D01*
X1279043Y452702D01*
X1277702Y454044D01*
X1275948Y454770D01*
D02*
G37*
G36*
X1245948D02*
X1244051D01*
X1242298Y454044D01*
X1240956Y452702D01*
X1240230Y450949D01*
Y449051D01*
X1240956Y447298D01*
X1242298Y445956D01*
X1244051Y445230D01*
X1245948D01*
X1247702Y445956D01*
X1249043Y447298D01*
X1249770Y449051D01*
Y450949D01*
X1249043Y452702D01*
X1247702Y454044D01*
X1245948Y454770D01*
D02*
G37*
G36*
X1215948D02*
X1214051D01*
X1212298Y454044D01*
X1210956Y452702D01*
X1210230Y450949D01*
Y449051D01*
X1210956Y447298D01*
X1212298Y445956D01*
X1214051Y445230D01*
X1215948D01*
X1217702Y445956D01*
X1219043Y447298D01*
X1219770Y449051D01*
Y450949D01*
X1219043Y452702D01*
X1217702Y454044D01*
X1215948Y454770D01*
D02*
G37*
G36*
X1185948D02*
X1184051D01*
X1182298Y454044D01*
X1180956Y452702D01*
X1180230Y450949D01*
Y449051D01*
X1180956Y447298D01*
X1182298Y445956D01*
X1184051Y445230D01*
X1185948D01*
X1187702Y445956D01*
X1189043Y447298D01*
X1189770Y449051D01*
Y450949D01*
X1189043Y452702D01*
X1187702Y454044D01*
X1185948Y454770D01*
D02*
G37*
G36*
X1155948D02*
X1154051D01*
X1152298Y454044D01*
X1150956Y452702D01*
X1150230Y450949D01*
Y449051D01*
X1150956Y447298D01*
X1152298Y445956D01*
X1154051Y445230D01*
X1155948D01*
X1157702Y445956D01*
X1159044Y447298D01*
X1159770Y449051D01*
Y450949D01*
X1159044Y452702D01*
X1157702Y454044D01*
X1155948Y454770D01*
D02*
G37*
G36*
X1125948D02*
X1124051D01*
X1122298Y454044D01*
X1120956Y452702D01*
X1120230Y450949D01*
Y449051D01*
X1120956Y447298D01*
X1122298Y445956D01*
X1124051Y445230D01*
X1125948D01*
X1127702Y445956D01*
X1129044Y447298D01*
X1129770Y449051D01*
Y450949D01*
X1129044Y452702D01*
X1127702Y454044D01*
X1125948Y454770D01*
D02*
G37*
G36*
X1095948D02*
X1094051D01*
X1092298Y454044D01*
X1090956Y452702D01*
X1090230Y450949D01*
Y449051D01*
X1090956Y447298D01*
X1092298Y445956D01*
X1094051Y445230D01*
X1095948D01*
X1097702Y445956D01*
X1099044Y447298D01*
X1099770Y449051D01*
Y450949D01*
X1099044Y452702D01*
X1097702Y454044D01*
X1095948Y454770D01*
D02*
G37*
G36*
X1065948D02*
X1064051D01*
X1062298Y454044D01*
X1060956Y452702D01*
X1060230Y450949D01*
Y449051D01*
X1060956Y447298D01*
X1062298Y445956D01*
X1064051Y445230D01*
X1065948D01*
X1067702Y445956D01*
X1069044Y447298D01*
X1069770Y449051D01*
Y450949D01*
X1069044Y452702D01*
X1067702Y454044D01*
X1065948Y454770D01*
D02*
G37*
G36*
X1035948D02*
X1034051D01*
X1032298Y454044D01*
X1030956Y452702D01*
X1030230Y450949D01*
Y449051D01*
X1030956Y447298D01*
X1032298Y445956D01*
X1034051Y445230D01*
X1035948D01*
X1037702Y445956D01*
X1039044Y447298D01*
X1039770Y449051D01*
Y450949D01*
X1039044Y452702D01*
X1037702Y454044D01*
X1035948Y454770D01*
D02*
G37*
G36*
X1005948D02*
X1004051D01*
X1002298Y454044D01*
X1000956Y452702D01*
X1000230Y450949D01*
Y449051D01*
X1000956Y447298D01*
X1002298Y445956D01*
X1004051Y445230D01*
X1005948D01*
X1007702Y445956D01*
X1009044Y447298D01*
X1009770Y449051D01*
Y450949D01*
X1009044Y452702D01*
X1007702Y454044D01*
X1005948Y454770D01*
D02*
G37*
G36*
X975948D02*
X974051D01*
X972298Y454044D01*
X970956Y452702D01*
X970230Y450949D01*
Y449051D01*
X970956Y447298D01*
X972298Y445956D01*
X974051Y445230D01*
X975948D01*
X977702Y445956D01*
X979044Y447298D01*
X979770Y449051D01*
Y450949D01*
X979044Y452702D01*
X977702Y454044D01*
X975948Y454770D01*
D02*
G37*
G36*
X945948D02*
X944051D01*
X942298Y454044D01*
X940956Y452702D01*
X940230Y450949D01*
Y449051D01*
X940956Y447298D01*
X942298Y445956D01*
X944051Y445230D01*
X945948D01*
X947702Y445956D01*
X949044Y447298D01*
X949770Y449051D01*
Y450949D01*
X949044Y452702D01*
X947702Y454044D01*
X945948Y454770D01*
D02*
G37*
G36*
X783070Y441920D02*
X781570D01*
X780184Y441346D01*
X779124Y440285D01*
X778550Y438900D01*
Y437400D01*
X779124Y436015D01*
X780184Y434954D01*
X781570Y434380D01*
X783070D01*
X784455Y434954D01*
X785516Y436015D01*
X786090Y437400D01*
Y438900D01*
X785516Y440285D01*
X784455Y441346D01*
X783070Y441920D01*
D02*
G37*
G36*
X108951Y429415D02*
X106149D01*
X103441Y428689D01*
X101014Y427288D01*
X99032Y425306D01*
X97631Y422879D01*
X96905Y420171D01*
Y417369D01*
X97631Y414661D01*
X99032Y412234D01*
X101014Y410252D01*
X103441Y408851D01*
X106149Y408125D01*
X108951D01*
X111659Y408851D01*
X114086Y410252D01*
X116068Y412234D01*
X117470Y414661D01*
X118195Y417369D01*
Y420171D01*
X117470Y422879D01*
X116068Y425306D01*
X114086Y427288D01*
X111659Y428689D01*
X108951Y429415D01*
D02*
G37*
G36*
X83951D02*
X81149D01*
X78441Y428689D01*
X76014Y427288D01*
X74032Y425306D01*
X72631Y422879D01*
X71905Y420171D01*
Y417369D01*
X72631Y414661D01*
X74032Y412234D01*
X76014Y410252D01*
X78441Y408851D01*
X81149Y408125D01*
X83951D01*
X86659Y408851D01*
X89086Y410252D01*
X91068Y412234D01*
X92470Y414661D01*
X93195Y417369D01*
Y420171D01*
X92470Y422879D01*
X91068Y425306D01*
X89086Y427288D01*
X86659Y428689D01*
X83951Y429415D01*
D02*
G37*
G36*
X479540Y393660D02*
X478040D01*
X476655Y393086D01*
X475594Y392025D01*
X475020Y390640D01*
Y389140D01*
X475594Y387755D01*
X476655Y386694D01*
X478040Y386120D01*
X479540D01*
X480925Y386694D01*
X481986Y387755D01*
X482560Y389140D01*
Y390640D01*
X481986Y392025D01*
X480925Y393086D01*
X479540Y393660D01*
D02*
G37*
G36*
X1245948Y394770D02*
X1244051D01*
X1242298Y394044D01*
X1240956Y392702D01*
X1240230Y390949D01*
Y389051D01*
X1240956Y387298D01*
X1242298Y385956D01*
X1244051Y385230D01*
X1245948D01*
X1247702Y385956D01*
X1249043Y387298D01*
X1249770Y389051D01*
Y390949D01*
X1249043Y392702D01*
X1247702Y394044D01*
X1245948Y394770D01*
D02*
G37*
G36*
X1215948D02*
X1214051D01*
X1212298Y394044D01*
X1210956Y392702D01*
X1210230Y390949D01*
Y389051D01*
X1210956Y387298D01*
X1212298Y385956D01*
X1214051Y385230D01*
X1215948D01*
X1217702Y385956D01*
X1219043Y387298D01*
X1219770Y389051D01*
Y390949D01*
X1219043Y392702D01*
X1217702Y394044D01*
X1215948Y394770D01*
D02*
G37*
G36*
X1185948D02*
X1184051D01*
X1182298Y394044D01*
X1180956Y392702D01*
X1180230Y390949D01*
Y389051D01*
X1180956Y387298D01*
X1182298Y385956D01*
X1184051Y385230D01*
X1185948D01*
X1187702Y385956D01*
X1189043Y387298D01*
X1189770Y389051D01*
Y390949D01*
X1189043Y392702D01*
X1187702Y394044D01*
X1185948Y394770D01*
D02*
G37*
G36*
X1155948D02*
X1154051D01*
X1152298Y394044D01*
X1150956Y392702D01*
X1150230Y390949D01*
Y389051D01*
X1150956Y387298D01*
X1152298Y385956D01*
X1154051Y385230D01*
X1155948D01*
X1157702Y385956D01*
X1159044Y387298D01*
X1159770Y389051D01*
Y390949D01*
X1159044Y392702D01*
X1157702Y394044D01*
X1155948Y394770D01*
D02*
G37*
G36*
X108951Y404415D02*
X106149D01*
X103441Y403689D01*
X101014Y402288D01*
X99032Y400306D01*
X97631Y397879D01*
X96905Y395171D01*
Y392369D01*
X97631Y389661D01*
X99032Y387234D01*
X101014Y385252D01*
X103441Y383851D01*
X106149Y383125D01*
X108951D01*
X111659Y383851D01*
X114086Y385252D01*
X116068Y387234D01*
X117470Y389661D01*
X118195Y392369D01*
Y395171D01*
X117470Y397879D01*
X116068Y400306D01*
X114086Y402288D01*
X111659Y403689D01*
X108951Y404415D01*
D02*
G37*
G36*
X83951D02*
X81149D01*
X78441Y403689D01*
X76014Y402288D01*
X74032Y400306D01*
X72631Y397879D01*
X71905Y395171D01*
Y392369D01*
X72631Y389661D01*
X74032Y387234D01*
X76014Y385252D01*
X78441Y383851D01*
X81149Y383125D01*
X83951D01*
X86659Y383851D01*
X89086Y385252D01*
X91068Y387234D01*
X92470Y389661D01*
X93195Y392369D01*
Y395171D01*
X92470Y397879D01*
X91068Y400306D01*
X89086Y402288D01*
X86659Y403689D01*
X83951Y404415D01*
D02*
G37*
G36*
X1331291Y394485D02*
X1328489D01*
X1325781Y393759D01*
X1323354Y392358D01*
X1321372Y390376D01*
X1319971Y387949D01*
X1319245Y385241D01*
Y382439D01*
X1319971Y379731D01*
X1321372Y377304D01*
X1323354Y375322D01*
X1325781Y373921D01*
X1328489Y373195D01*
X1331291D01*
X1333999Y373921D01*
X1336426Y375322D01*
X1338408Y377304D01*
X1339810Y379731D01*
X1340535Y382439D01*
Y385241D01*
X1339810Y387949D01*
X1338408Y390376D01*
X1336426Y392358D01*
X1333999Y393759D01*
X1331291Y394485D01*
D02*
G37*
G36*
X1306291D02*
X1303489D01*
X1300781Y393759D01*
X1298354Y392358D01*
X1296372Y390376D01*
X1294971Y387949D01*
X1294245Y385241D01*
Y382439D01*
X1294971Y379731D01*
X1296372Y377304D01*
X1298354Y375322D01*
X1300781Y373921D01*
X1303489Y373195D01*
X1306291D01*
X1308999Y373921D01*
X1311426Y375322D01*
X1313408Y377304D01*
X1314810Y379731D01*
X1315535Y382439D01*
Y385241D01*
X1314810Y387949D01*
X1313408Y390376D01*
X1311426Y392358D01*
X1308999Y393759D01*
X1306291Y394485D01*
D02*
G37*
G36*
X1281291D02*
X1278489D01*
X1275781Y393759D01*
X1273354Y392358D01*
X1271372Y390376D01*
X1269970Y387949D01*
X1269245Y385241D01*
Y382439D01*
X1269970Y379731D01*
X1271372Y377304D01*
X1273354Y375322D01*
X1275781Y373921D01*
X1278489Y373195D01*
X1281291D01*
X1283999Y373921D01*
X1286426Y375322D01*
X1288408Y377304D01*
X1289810Y379731D01*
X1290535Y382439D01*
Y385241D01*
X1289810Y387949D01*
X1288408Y390376D01*
X1286426Y392358D01*
X1283999Y393759D01*
X1281291Y394485D01*
D02*
G37*
G36*
X83951Y379415D02*
X81149D01*
X78441Y378689D01*
X76014Y377288D01*
X74032Y375306D01*
X72631Y372879D01*
X71905Y370171D01*
Y367369D01*
X72631Y364661D01*
X73098Y363852D01*
X72168Y362922D01*
X71956Y363045D01*
X70107Y363540D01*
X68193D01*
X66344Y363045D01*
X64686Y362087D01*
X63333Y360734D01*
X62375Y359076D01*
X61880Y357227D01*
Y355313D01*
X62375Y353464D01*
X63333Y351806D01*
X64686Y350453D01*
X66344Y349495D01*
X68193Y349000D01*
X70107D01*
X71956Y349495D01*
X73614Y350453D01*
X74967Y351806D01*
X75925Y353464D01*
X76420Y355313D01*
Y357227D01*
X76000Y358793D01*
X76599Y359435D01*
X77031Y359665D01*
X78441Y358851D01*
X81149Y358125D01*
X83951D01*
X86659Y358851D01*
X89086Y360252D01*
X91068Y362234D01*
X92470Y364661D01*
X93195Y367369D01*
Y370171D01*
X92470Y372879D01*
X91068Y375306D01*
X89086Y377288D01*
X86659Y378689D01*
X83951Y379415D01*
D02*
G37*
G36*
X480810Y369530D02*
X479310D01*
X477924Y368956D01*
X476864Y367896D01*
X476290Y366510D01*
Y365010D01*
X476864Y363624D01*
X477924Y362564D01*
X479310Y361990D01*
X480810D01*
X482196Y362564D01*
X483256Y363624D01*
X483830Y365010D01*
Y366510D01*
X483256Y367896D01*
X482196Y368956D01*
X480810Y369530D01*
D02*
G37*
G36*
X108951Y379415D02*
X106149D01*
X103441Y378689D01*
X101014Y377288D01*
X99032Y375306D01*
X97631Y372879D01*
X96905Y370171D01*
Y367369D01*
X97631Y364661D01*
X99032Y362234D01*
X101014Y360252D01*
X103441Y358851D01*
X106149Y358125D01*
X108951D01*
X111659Y358851D01*
X114086Y360252D01*
X116068Y362234D01*
X117470Y364661D01*
X118195Y367369D01*
Y370171D01*
X117470Y372879D01*
X116068Y375306D01*
X114086Y377288D01*
X111659Y378689D01*
X108951Y379415D01*
D02*
G37*
G36*
X1260948Y364770D02*
X1259051D01*
X1257298Y364044D01*
X1255956Y362702D01*
X1255230Y360949D01*
Y359051D01*
X1255956Y357298D01*
X1257298Y355956D01*
X1259051Y355230D01*
X1260948D01*
X1262702Y355956D01*
X1264043Y357298D01*
X1264770Y359051D01*
Y360949D01*
X1264043Y362702D01*
X1262702Y364044D01*
X1260948Y364770D01*
D02*
G37*
G36*
X840949D02*
X839051D01*
X837298Y364044D01*
X835956Y362702D01*
X835230Y360949D01*
Y359051D01*
X835956Y357298D01*
X837298Y355956D01*
X839051Y355230D01*
X840949D01*
X842702Y355956D01*
X844044Y357298D01*
X844770Y359051D01*
Y360949D01*
X844044Y362702D01*
X842702Y364044D01*
X840949Y364770D01*
D02*
G37*
G36*
X810949D02*
X809051D01*
X807298Y364044D01*
X805956Y362702D01*
X805230Y360949D01*
Y359051D01*
X805956Y357298D01*
X807298Y355956D01*
X809051Y355230D01*
X810949D01*
X812702Y355956D01*
X814044Y357298D01*
X814770Y359051D01*
Y360949D01*
X814044Y362702D01*
X812702Y364044D01*
X810949Y364770D01*
D02*
G37*
G36*
X1356291Y369485D02*
X1353489D01*
X1350781Y368759D01*
X1348354Y367358D01*
X1346372Y365376D01*
X1344971Y362949D01*
X1344245Y360241D01*
Y357439D01*
X1344971Y354731D01*
X1345785Y353321D01*
X1345555Y352888D01*
X1344913Y352290D01*
X1343347Y352710D01*
X1341433D01*
X1339867Y352290D01*
X1339225Y352888D01*
X1338995Y353321D01*
X1339810Y354731D01*
X1340535Y357439D01*
Y360241D01*
X1339810Y362949D01*
X1338408Y365376D01*
X1336426Y367358D01*
X1333999Y368759D01*
X1331291Y369485D01*
X1328489D01*
X1325781Y368759D01*
X1323354Y367358D01*
X1321372Y365376D01*
X1319971Y362949D01*
X1319245Y360241D01*
Y357439D01*
X1319971Y354731D01*
X1321372Y352304D01*
X1323354Y350322D01*
X1325781Y348921D01*
X1328489Y348195D01*
X1331291D01*
X1333999Y348921D01*
X1334808Y349388D01*
X1335738Y348458D01*
X1335615Y348246D01*
X1335120Y346397D01*
Y344483D01*
X1335615Y342634D01*
X1336573Y340976D01*
X1337926Y339623D01*
X1339584Y338665D01*
X1341433Y338170D01*
X1343347D01*
X1345196Y338665D01*
X1346854Y339623D01*
X1348207Y340976D01*
X1349165Y342634D01*
X1349660Y344483D01*
Y346397D01*
X1349165Y348246D01*
X1349042Y348458D01*
X1349972Y349388D01*
X1350781Y348921D01*
X1353489Y348195D01*
X1356291D01*
X1358999Y348921D01*
X1361426Y350322D01*
X1363408Y352304D01*
X1364810Y354731D01*
X1365535Y357439D01*
Y360241D01*
X1364810Y362949D01*
X1363408Y365376D01*
X1361426Y367358D01*
X1358999Y368759D01*
X1356291Y369485D01*
D02*
G37*
G36*
X1406291D02*
X1403489D01*
X1400781Y368759D01*
X1398354Y367358D01*
X1396372Y365376D01*
X1394971Y362949D01*
X1394245Y360241D01*
Y357439D01*
X1394971Y354731D01*
X1396372Y352304D01*
X1398354Y350322D01*
X1400781Y348921D01*
X1403489Y348195D01*
X1406291D01*
X1408999Y348921D01*
X1411426Y350322D01*
X1413408Y352304D01*
X1414810Y354731D01*
X1415535Y357439D01*
Y360241D01*
X1414810Y362949D01*
X1413408Y365376D01*
X1411426Y367358D01*
X1408999Y368759D01*
X1406291Y369485D01*
D02*
G37*
G36*
X1381291D02*
X1378489D01*
X1375781Y368759D01*
X1373354Y367358D01*
X1371372Y365376D01*
X1369971Y362949D01*
X1369245Y360241D01*
Y357439D01*
X1369971Y354731D01*
X1371372Y352304D01*
X1373354Y350322D01*
X1375781Y348921D01*
X1378489Y348195D01*
X1381291D01*
X1383999Y348921D01*
X1386426Y350322D01*
X1388408Y352304D01*
X1389810Y354731D01*
X1390535Y357439D01*
Y360241D01*
X1389810Y362949D01*
X1388408Y365376D01*
X1386426Y367358D01*
X1383999Y368759D01*
X1381291Y369485D01*
D02*
G37*
G36*
X1306291D02*
X1303489D01*
X1300781Y368759D01*
X1298354Y367358D01*
X1296372Y365376D01*
X1294971Y362949D01*
X1294245Y360241D01*
Y357439D01*
X1294971Y354731D01*
X1296372Y352304D01*
X1298354Y350322D01*
X1300781Y348921D01*
X1303489Y348195D01*
X1306291D01*
X1308999Y348921D01*
X1311426Y350322D01*
X1313408Y352304D01*
X1314810Y354731D01*
X1315535Y357439D01*
Y360241D01*
X1314810Y362949D01*
X1313408Y365376D01*
X1311426Y367358D01*
X1308999Y368759D01*
X1306291Y369485D01*
D02*
G37*
G36*
X1281291D02*
X1278489D01*
X1275781Y368759D01*
X1273354Y367358D01*
X1271372Y365376D01*
X1269970Y362949D01*
X1269245Y360241D01*
Y357439D01*
X1269970Y354731D01*
X1271372Y352304D01*
X1273354Y350322D01*
X1275781Y348921D01*
X1278489Y348195D01*
X1281291D01*
X1283999Y348921D01*
X1286426Y350322D01*
X1288408Y352304D01*
X1289810Y354731D01*
X1290535Y357439D01*
Y360241D01*
X1289810Y362949D01*
X1288408Y365376D01*
X1286426Y367358D01*
X1283999Y368759D01*
X1281291Y369485D01*
D02*
G37*
G36*
X1052310Y342860D02*
X1050810D01*
X1049425Y342286D01*
X1048364Y341226D01*
X1047790Y339840D01*
Y338340D01*
X1048364Y336954D01*
X1049425Y335894D01*
X1050810Y335320D01*
X1052310D01*
X1053696Y335894D01*
X1054756Y336954D01*
X1055330Y338340D01*
Y339840D01*
X1054756Y341226D01*
X1053696Y342286D01*
X1052310Y342860D01*
D02*
G37*
G36*
X108951Y354415D02*
X106149D01*
X103441Y353689D01*
X101014Y352288D01*
X99032Y350306D01*
X97631Y347879D01*
X96905Y345171D01*
Y342369D01*
X97631Y339661D01*
X99032Y337234D01*
X101014Y335252D01*
X103441Y333851D01*
X106149Y333125D01*
X108951D01*
X111659Y333851D01*
X114086Y335252D01*
X116068Y337234D01*
X117470Y339661D01*
X118195Y342369D01*
Y345171D01*
X117470Y347879D01*
X116068Y350306D01*
X114086Y352288D01*
X111659Y353689D01*
X108951Y354415D01*
D02*
G37*
G36*
X1395948Y334770D02*
X1394051D01*
X1392298Y334044D01*
X1390956Y332702D01*
X1390230Y330949D01*
Y329051D01*
X1390956Y327298D01*
X1392298Y325956D01*
X1394051Y325230D01*
X1395948D01*
X1397702Y325956D01*
X1399043Y327298D01*
X1399770Y329051D01*
Y330949D01*
X1399043Y332702D01*
X1397702Y334044D01*
X1395948Y334770D01*
D02*
G37*
G36*
X1365948D02*
X1364051D01*
X1362298Y334044D01*
X1360956Y332702D01*
X1360230Y330949D01*
Y329051D01*
X1360956Y327298D01*
X1362298Y325956D01*
X1364051Y325230D01*
X1365948D01*
X1367702Y325956D01*
X1369043Y327298D01*
X1369770Y329051D01*
Y330949D01*
X1369043Y332702D01*
X1367702Y334044D01*
X1365948Y334770D01*
D02*
G37*
G36*
X1215948D02*
X1214051D01*
X1212298Y334044D01*
X1210956Y332702D01*
X1210230Y330949D01*
Y329051D01*
X1210956Y327298D01*
X1212298Y325956D01*
X1214051Y325230D01*
X1215948D01*
X1217702Y325956D01*
X1219043Y327298D01*
X1219770Y329051D01*
Y330949D01*
X1219043Y332702D01*
X1217702Y334044D01*
X1215948Y334770D01*
D02*
G37*
G36*
X1185948D02*
X1184051D01*
X1182298Y334044D01*
X1180956Y332702D01*
X1180230Y330949D01*
Y329051D01*
X1180956Y327298D01*
X1182298Y325956D01*
X1184051Y325230D01*
X1185948D01*
X1187702Y325956D01*
X1189043Y327298D01*
X1189770Y329051D01*
Y330949D01*
X1189043Y332702D01*
X1187702Y334044D01*
X1185948Y334770D01*
D02*
G37*
G36*
X1155948D02*
X1154051D01*
X1152298Y334044D01*
X1150956Y332702D01*
X1150230Y330949D01*
Y329051D01*
X1150956Y327298D01*
X1152298Y325956D01*
X1154051Y325230D01*
X1155948D01*
X1157702Y325956D01*
X1159044Y327298D01*
X1159770Y329051D01*
Y330949D01*
X1159044Y332702D01*
X1157702Y334044D01*
X1155948Y334770D01*
D02*
G37*
G36*
X1125948D02*
X1124051D01*
X1122298Y334044D01*
X1120956Y332702D01*
X1120230Y330949D01*
Y329051D01*
X1120956Y327298D01*
X1122298Y325956D01*
X1124051Y325230D01*
X1125948D01*
X1127702Y325956D01*
X1129044Y327298D01*
X1129770Y329051D01*
Y330949D01*
X1129044Y332702D01*
X1127702Y334044D01*
X1125948Y334770D01*
D02*
G37*
G36*
X1095948D02*
X1094051D01*
X1092298Y334044D01*
X1090956Y332702D01*
X1090230Y330949D01*
Y329051D01*
X1090956Y327298D01*
X1092298Y325956D01*
X1094051Y325230D01*
X1095948D01*
X1097702Y325956D01*
X1099044Y327298D01*
X1099770Y329051D01*
Y330949D01*
X1099044Y332702D01*
X1097702Y334044D01*
X1095948Y334770D01*
D02*
G37*
G36*
X1065948D02*
X1064051D01*
X1062298Y334044D01*
X1060956Y332702D01*
X1060230Y330949D01*
Y329051D01*
X1060956Y327298D01*
X1062298Y325956D01*
X1064051Y325230D01*
X1065948D01*
X1067702Y325956D01*
X1069044Y327298D01*
X1069770Y329051D01*
Y330949D01*
X1069044Y332702D01*
X1067702Y334044D01*
X1065948Y334770D01*
D02*
G37*
G36*
X975948D02*
X974051D01*
X972298Y334044D01*
X970956Y332702D01*
X970230Y330949D01*
Y329051D01*
X970956Y327298D01*
X972298Y325956D01*
X974051Y325230D01*
X975948D01*
X977702Y325956D01*
X979044Y327298D01*
X979770Y329051D01*
Y330949D01*
X979044Y332702D01*
X977702Y334044D01*
X975948Y334770D01*
D02*
G37*
G36*
X885948D02*
X884051D01*
X882298Y334044D01*
X880956Y332702D01*
X880230Y330949D01*
Y329051D01*
X880956Y327298D01*
X882298Y325956D01*
X884051Y325230D01*
X885948D01*
X887702Y325956D01*
X889044Y327298D01*
X889770Y329051D01*
Y330949D01*
X889044Y332702D01*
X887702Y334044D01*
X885948Y334770D01*
D02*
G37*
G36*
X855949D02*
X854051D01*
X852298Y334044D01*
X850956Y332702D01*
X850230Y330949D01*
Y329051D01*
X850956Y327298D01*
X852298Y325956D01*
X854051Y325230D01*
X855949D01*
X857702Y325956D01*
X859044Y327298D01*
X859770Y329051D01*
Y330949D01*
X859044Y332702D01*
X857702Y334044D01*
X855949Y334770D01*
D02*
G37*
G36*
X477000Y331430D02*
X475500D01*
X474114Y330856D01*
X473054Y329795D01*
X472480Y328410D01*
Y326910D01*
X473054Y325524D01*
X474114Y324464D01*
X475500Y323890D01*
X477000D01*
X478386Y324464D01*
X479446Y325524D01*
X480020Y326910D01*
Y328410D01*
X479446Y329795D01*
X478386Y330856D01*
X477000Y331430D01*
D02*
G37*
G36*
X959799Y321000D02*
X957901D01*
X956148Y320274D01*
X954806Y318932D01*
X954080Y317179D01*
Y315281D01*
X954806Y313528D01*
X956148Y312186D01*
X957901Y311460D01*
X959799D01*
X961552Y312186D01*
X962894Y313528D01*
X963620Y315281D01*
Y317179D01*
X962894Y318932D01*
X961552Y320274D01*
X959799Y321000D01*
D02*
G37*
G36*
X108951Y329415D02*
X106149D01*
X103441Y328689D01*
X101014Y327288D01*
X99032Y325306D01*
X97631Y322879D01*
X96905Y320171D01*
Y317369D01*
X97631Y314661D01*
X99032Y312234D01*
X101014Y310252D01*
X103441Y308850D01*
X106149Y308125D01*
X108951D01*
X111659Y308850D01*
X114086Y310252D01*
X116068Y312234D01*
X117470Y314661D01*
X118195Y317369D01*
Y320171D01*
X117470Y322879D01*
X116068Y325306D01*
X114086Y327288D01*
X111659Y328689D01*
X108951Y329415D01*
D02*
G37*
G36*
X346190Y313650D02*
X344690D01*
X343304Y313076D01*
X342244Y312015D01*
X341670Y310630D01*
Y309130D01*
X342244Y307745D01*
X343304Y306684D01*
X344690Y306110D01*
X346190D01*
X347575Y306684D01*
X348636Y307745D01*
X349210Y309130D01*
Y310630D01*
X348636Y312015D01*
X347575Y313076D01*
X346190Y313650D01*
D02*
G37*
G36*
X948369Y308300D02*
X946471D01*
X944718Y307574D01*
X943376Y306232D01*
X942650Y304479D01*
Y302581D01*
X943376Y300828D01*
X944718Y299486D01*
X946471Y298760D01*
X948369D01*
X950122Y299486D01*
X951464Y300828D01*
X952190Y302581D01*
Y304479D01*
X951464Y306232D01*
X950122Y307574D01*
X948369Y308300D01*
D02*
G37*
G36*
X477000Y306030D02*
X475500D01*
X474114Y305456D01*
X473054Y304396D01*
X472480Y303010D01*
Y301510D01*
X473054Y300124D01*
X474114Y299064D01*
X475500Y298490D01*
X477000D01*
X478386Y299064D01*
X479446Y300124D01*
X480020Y301510D01*
Y303010D01*
X479446Y304396D01*
X478386Y305456D01*
X477000Y306030D01*
D02*
G37*
G36*
X1410948Y304770D02*
X1409051D01*
X1407298Y304044D01*
X1405956Y302702D01*
X1405230Y300949D01*
Y299051D01*
X1405956Y297298D01*
X1407298Y295956D01*
X1409051Y295230D01*
X1410948D01*
X1412702Y295956D01*
X1414043Y297298D01*
X1414770Y299051D01*
Y300949D01*
X1414043Y302702D01*
X1412702Y304044D01*
X1410948Y304770D01*
D02*
G37*
G36*
X1380948D02*
X1379051D01*
X1377298Y304044D01*
X1375956Y302702D01*
X1375230Y300949D01*
Y299051D01*
X1375956Y297298D01*
X1377298Y295956D01*
X1379051Y295230D01*
X1380948D01*
X1382702Y295956D01*
X1384043Y297298D01*
X1384770Y299051D01*
Y300949D01*
X1384043Y302702D01*
X1382702Y304044D01*
X1380948Y304770D01*
D02*
G37*
G36*
X1260948D02*
X1259051D01*
X1257298Y304044D01*
X1255956Y302702D01*
X1255230Y300949D01*
Y299051D01*
X1255956Y297298D01*
X1257298Y295956D01*
X1259051Y295230D01*
X1260948D01*
X1262702Y295956D01*
X1264043Y297298D01*
X1264770Y299051D01*
Y300949D01*
X1264043Y302702D01*
X1262702Y304044D01*
X1260948Y304770D01*
D02*
G37*
G36*
X959799Y295600D02*
X957901D01*
X956148Y294874D01*
X954806Y293532D01*
X954080Y291779D01*
Y289881D01*
X954806Y288128D01*
X956148Y286786D01*
X957901Y286060D01*
X959799D01*
X961552Y286786D01*
X962894Y288128D01*
X963620Y289881D01*
Y291779D01*
X962894Y293532D01*
X961552Y294874D01*
X959799Y295600D01*
D02*
G37*
G36*
X108951Y304415D02*
X106149D01*
X103441Y303689D01*
X101014Y302288D01*
X99032Y300306D01*
X97631Y297879D01*
X96905Y295171D01*
Y292369D01*
X97631Y289661D01*
X99032Y287234D01*
X101014Y285252D01*
X103441Y283850D01*
X106149Y283125D01*
X108951D01*
X111659Y283850D01*
X114086Y285252D01*
X116068Y287234D01*
X117470Y289661D01*
X118195Y292369D01*
Y295171D01*
X117470Y297879D01*
X116068Y300306D01*
X114086Y302288D01*
X111659Y303689D01*
X108951Y304415D01*
D02*
G37*
G36*
X976309Y282900D02*
X974411D01*
X972658Y282174D01*
X971316Y280832D01*
X970590Y279079D01*
Y277181D01*
X971316Y275428D01*
X972658Y274086D01*
X974411Y273360D01*
X976309D01*
X978062Y274086D01*
X979404Y275428D01*
X980130Y277181D01*
Y279079D01*
X979404Y280832D01*
X978062Y282174D01*
X976309Y282900D01*
D02*
G37*
G36*
X478270Y278090D02*
X476770D01*
X475384Y277516D01*
X474324Y276455D01*
X473750Y275070D01*
Y273570D01*
X474324Y272185D01*
X475384Y271124D01*
X476770Y270550D01*
X478270D01*
X479655Y271124D01*
X480716Y272185D01*
X481290Y273570D01*
Y275070D01*
X480716Y276455D01*
X479655Y277516D01*
X478270Y278090D01*
D02*
G37*
G36*
X1365948Y274770D02*
X1364051D01*
X1362298Y274044D01*
X1360956Y272702D01*
X1360230Y270949D01*
Y269051D01*
X1360956Y267298D01*
X1362298Y265956D01*
X1364051Y265230D01*
X1365948D01*
X1367702Y265956D01*
X1369043Y267298D01*
X1369770Y269051D01*
Y270949D01*
X1369043Y272702D01*
X1367702Y274044D01*
X1365948Y274770D01*
D02*
G37*
G36*
X1305948D02*
X1304051D01*
X1302298Y274044D01*
X1300956Y272702D01*
X1300230Y270949D01*
Y269051D01*
X1300956Y267298D01*
X1302298Y265956D01*
X1304051Y265230D01*
X1305948D01*
X1307702Y265956D01*
X1309043Y267298D01*
X1309770Y269051D01*
Y270949D01*
X1309043Y272702D01*
X1307702Y274044D01*
X1305948Y274770D01*
D02*
G37*
G36*
X945948D02*
X944051D01*
X942298Y274044D01*
X940956Y272702D01*
X940230Y270949D01*
Y269051D01*
X940956Y267298D01*
X942298Y265956D01*
X944051Y265230D01*
X945948D01*
X947702Y265956D01*
X949044Y267298D01*
X949770Y269051D01*
Y270949D01*
X949044Y272702D01*
X947702Y274044D01*
X945948Y274770D01*
D02*
G37*
G36*
X205419Y271470D02*
X203521D01*
X201768Y270744D01*
X200426Y269402D01*
X199700Y267649D01*
Y265751D01*
X200426Y263998D01*
X201768Y262656D01*
X203521Y261930D01*
X205419D01*
X207172Y262656D01*
X208514Y263998D01*
X209240Y265751D01*
Y267649D01*
X208514Y269402D01*
X207172Y270744D01*
X205419Y271470D01*
D02*
G37*
G36*
X958529Y270170D02*
X956631D01*
X954878Y269444D01*
X953536Y268102D01*
X952810Y266349D01*
Y264451D01*
X953536Y262698D01*
X954878Y261356D01*
X956631Y260630D01*
X958529D01*
X960282Y261356D01*
X961624Y262698D01*
X962350Y264451D01*
Y266349D01*
X961624Y268102D01*
X960282Y269444D01*
X958529Y270170D01*
D02*
G37*
G36*
X944559Y257470D02*
X942661D01*
X940908Y256744D01*
X939566Y255402D01*
X938840Y253649D01*
Y251751D01*
X939566Y249998D01*
X940908Y248656D01*
X942661Y247930D01*
X944559D01*
X946312Y248656D01*
X947654Y249998D01*
X948380Y251751D01*
Y253649D01*
X947654Y255402D01*
X946312Y256744D01*
X944559Y257470D01*
D02*
G37*
G36*
X479540Y251420D02*
X478040D01*
X476655Y250846D01*
X475594Y249785D01*
X475020Y248400D01*
Y246900D01*
X475594Y245515D01*
X476655Y244454D01*
X478040Y243880D01*
X479540D01*
X480925Y244454D01*
X481986Y245515D01*
X482560Y246900D01*
Y248400D01*
X481986Y249785D01*
X480925Y250846D01*
X479540Y251420D01*
D02*
G37*
G36*
X82901Y260435D02*
X80098D01*
X77391Y259709D01*
X74964Y258308D01*
X72982Y256326D01*
X71581Y253899D01*
X70855Y251191D01*
Y248389D01*
X71581Y245681D01*
X72982Y243254D01*
X74964Y241272D01*
X77391Y239870D01*
X80098Y239145D01*
X82901D01*
X85609Y239870D01*
X88036Y241272D01*
X90018Y243254D01*
X91419Y245681D01*
X92145Y248389D01*
Y251191D01*
X91419Y253899D01*
X90018Y256326D01*
X88036Y258308D01*
X85609Y259709D01*
X82901Y260435D01*
D02*
G37*
G36*
X1410948Y244770D02*
X1409051D01*
X1407298Y244044D01*
X1405956Y242702D01*
X1405230Y240949D01*
Y239051D01*
X1405956Y237298D01*
X1407298Y235956D01*
X1409051Y235230D01*
X1410948D01*
X1412702Y235956D01*
X1414043Y237298D01*
X1414770Y239051D01*
Y240949D01*
X1414043Y242702D01*
X1412702Y244044D01*
X1410948Y244770D01*
D02*
G37*
G36*
X1380948D02*
X1379051D01*
X1377298Y244044D01*
X1375956Y242702D01*
X1375230Y240949D01*
Y239051D01*
X1375956Y237298D01*
X1377298Y235956D01*
X1379051Y235230D01*
X1380948D01*
X1382702Y235956D01*
X1384043Y237298D01*
X1384770Y239051D01*
Y240949D01*
X1384043Y242702D01*
X1382702Y244044D01*
X1380948Y244770D01*
D02*
G37*
G36*
X1320948D02*
X1319051D01*
X1317298Y244044D01*
X1315956Y242702D01*
X1315230Y240949D01*
Y239051D01*
X1315956Y237298D01*
X1317298Y235956D01*
X1319051Y235230D01*
X1320948D01*
X1322702Y235956D01*
X1324043Y237298D01*
X1324770Y239051D01*
Y240949D01*
X1324043Y242702D01*
X1322702Y244044D01*
X1320948Y244770D01*
D02*
G37*
G36*
X1260948D02*
X1259051D01*
X1257298Y244044D01*
X1255956Y242702D01*
X1255230Y240949D01*
Y239051D01*
X1255956Y237298D01*
X1257298Y235956D01*
X1259051Y235230D01*
X1260948D01*
X1262702Y235956D01*
X1264043Y237298D01*
X1264770Y239051D01*
Y240949D01*
X1264043Y242702D01*
X1262702Y244044D01*
X1260948Y244770D01*
D02*
G37*
G36*
X1230948D02*
X1229051D01*
X1227298Y244044D01*
X1225956Y242702D01*
X1225230Y240949D01*
Y239051D01*
X1225956Y237298D01*
X1227298Y235956D01*
X1229051Y235230D01*
X1230948D01*
X1232702Y235956D01*
X1234043Y237298D01*
X1234770Y239051D01*
Y240949D01*
X1234043Y242702D01*
X1232702Y244044D01*
X1230948Y244770D01*
D02*
G37*
G36*
X1200948D02*
X1199051D01*
X1197298Y244044D01*
X1195956Y242702D01*
X1195230Y240949D01*
Y239051D01*
X1195956Y237298D01*
X1197298Y235956D01*
X1199051Y235230D01*
X1200948D01*
X1202702Y235956D01*
X1204043Y237298D01*
X1204770Y239051D01*
Y240949D01*
X1204043Y242702D01*
X1202702Y244044D01*
X1200948Y244770D01*
D02*
G37*
G36*
X1170948D02*
X1169051D01*
X1167298Y244044D01*
X1165956Y242702D01*
X1165230Y240949D01*
Y239051D01*
X1165956Y237298D01*
X1167298Y235956D01*
X1169051Y235230D01*
X1170948D01*
X1172702Y235956D01*
X1174043Y237298D01*
X1174770Y239051D01*
Y240949D01*
X1174043Y242702D01*
X1172702Y244044D01*
X1170948Y244770D01*
D02*
G37*
G36*
X1140948D02*
X1139051D01*
X1137298Y244044D01*
X1135956Y242702D01*
X1135230Y240949D01*
Y239051D01*
X1135956Y237298D01*
X1137298Y235956D01*
X1139051Y235230D01*
X1140948D01*
X1142702Y235956D01*
X1144044Y237298D01*
X1144770Y239051D01*
Y240949D01*
X1144044Y242702D01*
X1142702Y244044D01*
X1140948Y244770D01*
D02*
G37*
G36*
X1110948D02*
X1109051D01*
X1107298Y244044D01*
X1105956Y242702D01*
X1105230Y240949D01*
Y239051D01*
X1105956Y237298D01*
X1107298Y235956D01*
X1109051Y235230D01*
X1110948D01*
X1112702Y235956D01*
X1114044Y237298D01*
X1114770Y239051D01*
Y240949D01*
X1114044Y242702D01*
X1112702Y244044D01*
X1110948Y244770D01*
D02*
G37*
G36*
X1080948D02*
X1079051D01*
X1077298Y244044D01*
X1075956Y242702D01*
X1075230Y240949D01*
Y239051D01*
X1075956Y237298D01*
X1077298Y235956D01*
X1079051Y235230D01*
X1080948D01*
X1082702Y235956D01*
X1084044Y237298D01*
X1084770Y239051D01*
Y240949D01*
X1084044Y242702D01*
X1082702Y244044D01*
X1080948Y244770D01*
D02*
G37*
G36*
X1050948D02*
X1049051D01*
X1047298Y244044D01*
X1045956Y242702D01*
X1045230Y240949D01*
Y239051D01*
X1045956Y237298D01*
X1047298Y235956D01*
X1049051Y235230D01*
X1050948D01*
X1052702Y235956D01*
X1054044Y237298D01*
X1054770Y239051D01*
Y240949D01*
X1054044Y242702D01*
X1052702Y244044D01*
X1050948Y244770D01*
D02*
G37*
G36*
X1020948D02*
X1019051D01*
X1017298Y244044D01*
X1015956Y242702D01*
X1015230Y240949D01*
Y239051D01*
X1015956Y237298D01*
X1017298Y235956D01*
X1019051Y235230D01*
X1020948D01*
X1022702Y235956D01*
X1024044Y237298D01*
X1024770Y239051D01*
Y240949D01*
X1024044Y242702D01*
X1022702Y244044D01*
X1020948Y244770D01*
D02*
G37*
G36*
X960948D02*
X959051D01*
X957298Y244044D01*
X955956Y242702D01*
X955230Y240949D01*
Y239051D01*
X955956Y237298D01*
X957298Y235956D01*
X959051Y235230D01*
X960948D01*
X962702Y235956D01*
X964044Y237298D01*
X964770Y239051D01*
Y240949D01*
X964044Y242702D01*
X962702Y244044D01*
X960948Y244770D01*
D02*
G37*
G36*
X720949D02*
X719051D01*
X717298Y244044D01*
X715956Y242702D01*
X715230Y240949D01*
Y239051D01*
X715956Y237298D01*
X717298Y235956D01*
X719051Y235230D01*
X720949D01*
X722702Y235956D01*
X724044Y237298D01*
X724770Y239051D01*
Y240949D01*
X724044Y242702D01*
X722702Y244044D01*
X720949Y244770D01*
D02*
G37*
G36*
X681470Y234910D02*
X679970D01*
X678585Y234336D01*
X677524Y233276D01*
X676950Y231890D01*
Y230390D01*
X677524Y229004D01*
X678585Y227944D01*
X679970Y227370D01*
X681470D01*
X682856Y227944D01*
X683916Y229004D01*
X684490Y230390D01*
Y231890D01*
X683916Y233276D01*
X682856Y234336D01*
X681470Y234910D01*
D02*
G37*
G36*
X347460Y231100D02*
X345960D01*
X344575Y230526D01*
X343514Y229466D01*
X342940Y228080D01*
Y226580D01*
X343514Y225194D01*
X344575Y224134D01*
X345960Y223560D01*
X347460D01*
X348845Y224134D01*
X349906Y225194D01*
X350480Y226580D01*
Y228080D01*
X349906Y229466D01*
X348845Y230526D01*
X347460Y231100D01*
D02*
G37*
G36*
X82901Y235435D02*
X80098D01*
X77391Y234709D01*
X74964Y233308D01*
X72982Y231326D01*
X71581Y228899D01*
X70855Y226191D01*
Y223389D01*
X71581Y220681D01*
X72982Y218254D01*
X74964Y216272D01*
X77391Y214870D01*
X80098Y214145D01*
X82901D01*
X85609Y214870D01*
X88036Y216272D01*
X90018Y218254D01*
X91419Y220681D01*
X92145Y223389D01*
Y226191D01*
X91419Y228899D01*
X90018Y231326D01*
X88036Y233308D01*
X85609Y234709D01*
X82901Y235435D01*
D02*
G37*
G36*
X962339Y219370D02*
X960441D01*
X958688Y218644D01*
X957346Y217302D01*
X956620Y215549D01*
Y213651D01*
X957346Y211898D01*
X958688Y210556D01*
X960441Y209830D01*
X962339D01*
X964092Y210556D01*
X965434Y211898D01*
X966160Y213651D01*
Y215549D01*
X965434Y217302D01*
X964092Y218644D01*
X962339Y219370D01*
D02*
G37*
G36*
X1410101Y230925D02*
X1407299D01*
X1404591Y230200D01*
X1402164Y228798D01*
X1400182Y226816D01*
X1398781Y224389D01*
X1398055Y221681D01*
Y218879D01*
X1398781Y216171D01*
X1400182Y213744D01*
X1402164Y211762D01*
X1404591Y210361D01*
X1407299Y209635D01*
X1410101D01*
X1412809Y210361D01*
X1415236Y211762D01*
X1417218Y213744D01*
X1418620Y216171D01*
X1419345Y218879D01*
Y221681D01*
X1418620Y224389D01*
X1417218Y226816D01*
X1415236Y228798D01*
X1412809Y230200D01*
X1410101Y230925D01*
D02*
G37*
G36*
X1347157Y240950D02*
X1345243D01*
X1343394Y240455D01*
X1341736Y239497D01*
X1340383Y238144D01*
X1339425Y236486D01*
X1338930Y234637D01*
Y232723D01*
X1339425Y230874D01*
X1340383Y229216D01*
X1341736Y227863D01*
X1343394Y226905D01*
X1345243Y226410D01*
X1347157D01*
X1348723Y226830D01*
X1349365Y226231D01*
X1349595Y225800D01*
X1348781Y224389D01*
X1348055Y221681D01*
Y218879D01*
X1348781Y216171D01*
X1350182Y213744D01*
X1352164Y211762D01*
X1354591Y210361D01*
X1357299Y209635D01*
X1360101D01*
X1362809Y210361D01*
X1365236Y211762D01*
X1367218Y213744D01*
X1368620Y216171D01*
X1369345Y218879D01*
Y221681D01*
X1368620Y224389D01*
X1367218Y226816D01*
X1365236Y228798D01*
X1362809Y230200D01*
X1360101Y230925D01*
X1357299D01*
X1354591Y230200D01*
X1353782Y229732D01*
X1352852Y230662D01*
X1352975Y230874D01*
X1353470Y232723D01*
Y234637D01*
X1352975Y236486D01*
X1352017Y238144D01*
X1350664Y239497D01*
X1349006Y240455D01*
X1347157Y240950D01*
D02*
G37*
G36*
X1310101Y230925D02*
X1307299D01*
X1304591Y230200D01*
X1302164Y228798D01*
X1300182Y226816D01*
X1298781Y224389D01*
X1298055Y221681D01*
Y218879D01*
X1298781Y216171D01*
X1300182Y213744D01*
X1302164Y211762D01*
X1304591Y210361D01*
X1307299Y209635D01*
X1310101D01*
X1312809Y210361D01*
X1315236Y211762D01*
X1317218Y213744D01*
X1318620Y216171D01*
X1319345Y218879D01*
Y221681D01*
X1318620Y224389D01*
X1317218Y226816D01*
X1315236Y228798D01*
X1312809Y230200D01*
X1310101Y230925D01*
D02*
G37*
G36*
X1285101D02*
X1282299D01*
X1279591Y230200D01*
X1277164Y228798D01*
X1275182Y226816D01*
X1273781Y224389D01*
X1273055Y221681D01*
Y218879D01*
X1273781Y216171D01*
X1275182Y213744D01*
X1277164Y211762D01*
X1279591Y210361D01*
X1282299Y209635D01*
X1285101D01*
X1287809Y210361D01*
X1290236Y211762D01*
X1292218Y213744D01*
X1293620Y216171D01*
X1294345Y218879D01*
Y221681D01*
X1293620Y224389D01*
X1292218Y226816D01*
X1290236Y228798D01*
X1287809Y230200D01*
X1285101Y230925D01*
D02*
G37*
G36*
X1425948Y214770D02*
X1424051D01*
X1422298Y214044D01*
X1420956Y212702D01*
X1420230Y210949D01*
Y209051D01*
X1420956Y207298D01*
X1422298Y205956D01*
X1424051Y205230D01*
X1425948D01*
X1427702Y205956D01*
X1429043Y207298D01*
X1429770Y209051D01*
Y210949D01*
X1429043Y212702D01*
X1427702Y214044D01*
X1425948Y214770D01*
D02*
G37*
G36*
X1385101Y230925D02*
X1382299D01*
X1379591Y230200D01*
X1377164Y228798D01*
X1375182Y226816D01*
X1373781Y224389D01*
X1373055Y221681D01*
Y218879D01*
X1373781Y216171D01*
X1375182Y213744D01*
X1377164Y211762D01*
X1379591Y210361D01*
X1382299Y209635D01*
X1385101D01*
X1387809Y210361D01*
X1389001Y211049D01*
X1390230Y210292D01*
Y209051D01*
X1390956Y207298D01*
X1392298Y205956D01*
X1394051Y205230D01*
X1395948D01*
X1397702Y205956D01*
X1399043Y207298D01*
X1399770Y209051D01*
Y210949D01*
X1399043Y212702D01*
X1397702Y214044D01*
X1395948Y214770D01*
X1394277D01*
X1393384Y215764D01*
X1393620Y216171D01*
X1394345Y218879D01*
Y221681D01*
X1393620Y224389D01*
X1392218Y226816D01*
X1390236Y228798D01*
X1387809Y230200D01*
X1385101Y230925D01*
D02*
G37*
G36*
X945948Y214770D02*
X944051D01*
X942298Y214044D01*
X940956Y212702D01*
X940230Y210949D01*
Y209051D01*
X940956Y207298D01*
X942298Y205956D01*
X944051Y205230D01*
X945948D01*
X947702Y205956D01*
X949044Y207298D01*
X949770Y209051D01*
Y210949D01*
X949044Y212702D01*
X947702Y214044D01*
X945948Y214770D01*
D02*
G37*
G36*
X765949D02*
X764051D01*
X762298Y214044D01*
X760956Y212702D01*
X760230Y210949D01*
Y209051D01*
X760956Y207298D01*
X762298Y205956D01*
X764051Y205230D01*
X765949D01*
X767702Y205956D01*
X769044Y207298D01*
X769770Y209051D01*
Y210949D01*
X769044Y212702D01*
X767702Y214044D01*
X765949Y214770D01*
D02*
G37*
G36*
X675949D02*
X674051D01*
X672298Y214044D01*
X670956Y212702D01*
X670230Y210949D01*
Y209051D01*
X670956Y207298D01*
X672298Y205956D01*
X674051Y205230D01*
X675949D01*
X677702Y205956D01*
X679044Y207298D01*
X679770Y209051D01*
Y210949D01*
X679044Y212702D01*
X677702Y214044D01*
X675949Y214770D01*
D02*
G37*
G36*
X483350Y209510D02*
X481850D01*
X480465Y208936D01*
X479404Y207875D01*
X478830Y206490D01*
Y204990D01*
X479404Y203605D01*
X480465Y202544D01*
X481850Y201970D01*
X483350D01*
X484735Y202544D01*
X485796Y203605D01*
X486370Y204990D01*
Y206490D01*
X485796Y207875D01*
X484735Y208936D01*
X483350Y209510D01*
D02*
G37*
G36*
X1360101Y205925D02*
X1357299D01*
X1354591Y205200D01*
X1352164Y203798D01*
X1350182Y201816D01*
X1348781Y199389D01*
X1348055Y196681D01*
Y193879D01*
X1348781Y191171D01*
X1350182Y188744D01*
X1352164Y186762D01*
X1354591Y185361D01*
X1357299Y184635D01*
X1360101D01*
X1362809Y185361D01*
X1365236Y186762D01*
X1367218Y188744D01*
X1368620Y191171D01*
X1369345Y193879D01*
Y196681D01*
X1368620Y199389D01*
X1367218Y201816D01*
X1365236Y203798D01*
X1362809Y205200D01*
X1360101Y205925D01*
D02*
G37*
G36*
X1335101D02*
X1332299D01*
X1329591Y205200D01*
X1327164Y203798D01*
X1325182Y201816D01*
X1323781Y199389D01*
X1323055Y196681D01*
Y193879D01*
X1323781Y191171D01*
X1325182Y188744D01*
X1327164Y186762D01*
X1329591Y185361D01*
X1332299Y184635D01*
X1335101D01*
X1337809Y185361D01*
X1340236Y186762D01*
X1342218Y188744D01*
X1343620Y191171D01*
X1344345Y193879D01*
Y196681D01*
X1343620Y199389D01*
X1342218Y201816D01*
X1340236Y203798D01*
X1337809Y205200D01*
X1335101Y205925D01*
D02*
G37*
G36*
X1310101D02*
X1307299D01*
X1304591Y205200D01*
X1302164Y203798D01*
X1300182Y201816D01*
X1298781Y199389D01*
X1298055Y196681D01*
Y193879D01*
X1298781Y191171D01*
X1300182Y188744D01*
X1302164Y186762D01*
X1304591Y185361D01*
X1307299Y184635D01*
X1310101D01*
X1312809Y185361D01*
X1315236Y186762D01*
X1317218Y188744D01*
X1318620Y191171D01*
X1319345Y193879D01*
Y196681D01*
X1318620Y199389D01*
X1317218Y201816D01*
X1315236Y203798D01*
X1312809Y205200D01*
X1310101Y205925D01*
D02*
G37*
G36*
X1285101D02*
X1282299D01*
X1279591Y205200D01*
X1277164Y203798D01*
X1275182Y201816D01*
X1273781Y199389D01*
X1273055Y196681D01*
Y193879D01*
X1273781Y191171D01*
X1275182Y188744D01*
X1277164Y186762D01*
X1279591Y185361D01*
X1282299Y184635D01*
X1285101D01*
X1287809Y185361D01*
X1290236Y186762D01*
X1292218Y188744D01*
X1293620Y191171D01*
X1294345Y193879D01*
Y196681D01*
X1293620Y199389D01*
X1292218Y201816D01*
X1290236Y203798D01*
X1287809Y205200D01*
X1285101Y205925D01*
D02*
G37*
G36*
X82901Y210435D02*
X80098D01*
X77391Y209709D01*
X74964Y208308D01*
X72982Y206326D01*
X71581Y203899D01*
X70855Y201191D01*
Y198389D01*
X71581Y195681D01*
X72982Y193254D01*
X74964Y191272D01*
X77391Y189870D01*
X80098Y189145D01*
X82901D01*
X85609Y189870D01*
X87020Y190685D01*
X87451Y190455D01*
X88050Y189813D01*
X87630Y188247D01*
Y186333D01*
X88050Y184767D01*
X87451Y184125D01*
X87020Y183895D01*
X85609Y184709D01*
X82901Y185435D01*
X80098D01*
X77391Y184709D01*
X74964Y183308D01*
X72982Y181326D01*
X71581Y178899D01*
X70855Y176191D01*
Y173389D01*
X71581Y170681D01*
X72982Y168254D01*
X74964Y166272D01*
X77391Y164870D01*
X80098Y164145D01*
X82901D01*
X85609Y164870D01*
X88036Y166272D01*
X90018Y168254D01*
X91419Y170681D01*
X92145Y173389D01*
Y176191D01*
X91419Y178899D01*
X90952Y179708D01*
X91882Y180638D01*
X92094Y180515D01*
X93943Y180020D01*
X95857D01*
X97706Y180515D01*
X99364Y181473D01*
X100717Y182826D01*
X101674Y184484D01*
X102170Y186333D01*
Y188247D01*
X101674Y190096D01*
X100717Y191754D01*
X99364Y193107D01*
X97706Y194065D01*
X95857Y194560D01*
X93943D01*
X92094Y194065D01*
X91882Y193942D01*
X90952Y194872D01*
X91419Y195681D01*
X92145Y198389D01*
Y201191D01*
X91419Y203899D01*
X90018Y206326D01*
X88036Y208308D01*
X85609Y209709D01*
X82901Y210435D01*
D02*
G37*
G36*
X968205Y185635D02*
X966705D01*
X965320Y185061D01*
X964400Y184142D01*
X963897Y183915D01*
X963007Y183738D01*
X962702Y184044D01*
X960948Y184770D01*
X959051D01*
X957298Y184044D01*
X955956Y182702D01*
X955230Y180949D01*
Y179051D01*
X955956Y177298D01*
X957298Y175956D01*
X959051Y175230D01*
X960948D01*
X962702Y175956D01*
X964044Y177298D01*
X964293Y177900D01*
X965320Y178669D01*
X966705Y178095D01*
X968205D01*
X969591Y178669D01*
X970651Y179729D01*
X971225Y181115D01*
Y182615D01*
X970651Y184000D01*
X969591Y185061D01*
X968205Y185635D01*
D02*
G37*
G36*
X199069Y188920D02*
X197171D01*
X195418Y188194D01*
X194076Y186852D01*
X193350Y185099D01*
Y183201D01*
X194076Y181448D01*
X195418Y180106D01*
X197171Y179380D01*
X199069D01*
X200822Y180106D01*
X202164Y181448D01*
X202890Y183201D01*
Y185099D01*
X202164Y186852D01*
X200822Y188194D01*
X199069Y188920D01*
D02*
G37*
G36*
X1410101Y205925D02*
X1407299D01*
X1404591Y205200D01*
X1402164Y203798D01*
X1400182Y201816D01*
X1398781Y199389D01*
X1398055Y196681D01*
Y193879D01*
X1398781Y191171D01*
X1400182Y188744D01*
X1402164Y186762D01*
X1404591Y185361D01*
X1406348Y184890D01*
X1406727Y183473D01*
X1405956Y182702D01*
X1405230Y180949D01*
Y179051D01*
X1405956Y177298D01*
X1407298Y175956D01*
X1409051Y175230D01*
X1410948D01*
X1412702Y175956D01*
X1414043Y177298D01*
X1414770Y179051D01*
Y180949D01*
X1414043Y182702D01*
X1412702Y184044D01*
X1412804Y185301D01*
X1412822Y185368D01*
X1415236Y186762D01*
X1417218Y188744D01*
X1418620Y191171D01*
X1419345Y193879D01*
Y196681D01*
X1418620Y199389D01*
X1417218Y201816D01*
X1415236Y203798D01*
X1412809Y205200D01*
X1410101Y205925D01*
D02*
G37*
G36*
X1385101D02*
X1382299D01*
X1379591Y205200D01*
X1377164Y203798D01*
X1375182Y201816D01*
X1373781Y199389D01*
X1373055Y196681D01*
Y193879D01*
X1373781Y191171D01*
X1375182Y188744D01*
X1377164Y186762D01*
X1378582Y185943D01*
X1378482Y184534D01*
X1377298Y184044D01*
X1375956Y182702D01*
X1375230Y180949D01*
Y179051D01*
X1375956Y177298D01*
X1377298Y175956D01*
X1379051Y175230D01*
X1380948D01*
X1382702Y175956D01*
X1384043Y177298D01*
X1384770Y179051D01*
Y180949D01*
X1384043Y182702D01*
X1383380Y183365D01*
X1383906Y184635D01*
X1385101D01*
X1387809Y185361D01*
X1390236Y186762D01*
X1392218Y188744D01*
X1393620Y191171D01*
X1394345Y193879D01*
Y196681D01*
X1393620Y199389D01*
X1392218Y201816D01*
X1390236Y203798D01*
X1387809Y205200D01*
X1385101Y205925D01*
D02*
G37*
G36*
X930948Y184770D02*
X929051D01*
X927298Y184044D01*
X925956Y182702D01*
X925230Y180949D01*
Y179051D01*
X925956Y177298D01*
X927298Y175956D01*
X929051Y175230D01*
X930948D01*
X932702Y175956D01*
X934044Y177298D01*
X934770Y179051D01*
Y180949D01*
X934044Y182702D01*
X932702Y184044D01*
X930948Y184770D01*
D02*
G37*
G36*
X780949D02*
X779051D01*
X777298Y184044D01*
X775956Y182702D01*
X775230Y180949D01*
Y179051D01*
X775956Y177298D01*
X777298Y175956D01*
X779051Y175230D01*
X780949D01*
X782702Y175956D01*
X784044Y177298D01*
X784770Y179051D01*
Y180949D01*
X784044Y182702D01*
X782702Y184044D01*
X780949Y184770D01*
D02*
G37*
G36*
X750949D02*
X749051D01*
X747298Y184044D01*
X745956Y182702D01*
X745230Y180949D01*
Y179051D01*
X745956Y177298D01*
X747298Y175956D01*
X749051Y175230D01*
X750949D01*
X752702Y175956D01*
X754044Y177298D01*
X754770Y179051D01*
Y180949D01*
X754044Y182702D01*
X752702Y184044D01*
X750949Y184770D01*
D02*
G37*
G36*
X720949D02*
X719051D01*
X717298Y184044D01*
X715956Y182702D01*
X715230Y180949D01*
Y179051D01*
X715956Y177298D01*
X717298Y175956D01*
X719051Y175230D01*
X720949D01*
X722702Y175956D01*
X724044Y177298D01*
X724770Y179051D01*
Y180949D01*
X724044Y182702D01*
X722702Y184044D01*
X720949Y184770D01*
D02*
G37*
G36*
X969371Y175220D02*
X967871D01*
X966486Y174646D01*
X965425Y173585D01*
X964851Y172200D01*
Y170700D01*
X965425Y169314D01*
X966486Y168254D01*
X967871Y167680D01*
X969371D01*
X970757Y168254D01*
X971817Y169314D01*
X972391Y170700D01*
Y172200D01*
X971817Y173585D01*
X970757Y174646D01*
X969371Y175220D01*
D02*
G37*
G36*
X57901Y185435D02*
X55099D01*
X52391Y184709D01*
X49964Y183308D01*
X47982Y181326D01*
X46581Y178899D01*
X45855Y176191D01*
Y173389D01*
X46581Y170681D01*
X47982Y168254D01*
X49964Y166272D01*
X52391Y164870D01*
X55099Y164145D01*
X57901D01*
X60609Y164870D01*
X63036Y166272D01*
X65018Y168254D01*
X66420Y170681D01*
X67145Y173389D01*
Y176191D01*
X66420Y178899D01*
X65018Y181326D01*
X63036Y183308D01*
X60609Y184709D01*
X57901Y185435D01*
D02*
G37*
G36*
X1183120Y166330D02*
X1181620D01*
X1180235Y165756D01*
X1179174Y164695D01*
X1178600Y163310D01*
Y161810D01*
X1179174Y160424D01*
X1180235Y159364D01*
X1181620Y158790D01*
X1183120D01*
X1184505Y159364D01*
X1185566Y160424D01*
X1186140Y161810D01*
Y163310D01*
X1185566Y164695D01*
X1184505Y165756D01*
X1183120Y166330D01*
D02*
G37*
G36*
X687514Y156170D02*
X686014D01*
X684628Y155596D01*
X683568Y154536D01*
X682994Y153150D01*
Y151650D01*
X683568Y150265D01*
X684628Y149204D01*
X686014Y148630D01*
X687514D01*
X688900Y149204D01*
X689960Y150265D01*
X690534Y151650D01*
Y153150D01*
X689960Y154536D01*
X688900Y155596D01*
X687514Y156170D01*
D02*
G37*
G36*
X757897Y149470D02*
X756000D01*
X754246Y148744D01*
X752905Y147402D01*
X752178Y145649D01*
Y143751D01*
X752905Y141998D01*
X754246Y140656D01*
X756000Y139930D01*
X757897D01*
X759650Y140656D01*
X760992Y141998D01*
X761718Y143751D01*
Y145649D01*
X760992Y147402D01*
X759650Y148744D01*
X757897Y149470D01*
D02*
G37*
G36*
X82901Y160435D02*
X80098D01*
X77391Y159710D01*
X74964Y158308D01*
X72982Y156326D01*
X71581Y153899D01*
X70855Y151191D01*
Y148389D01*
X71581Y145681D01*
X72982Y143254D01*
X74964Y141272D01*
X77391Y139871D01*
X80098Y139145D01*
X82901D01*
X85609Y139871D01*
X88036Y141272D01*
X90018Y143254D01*
X91419Y145681D01*
X92145Y148389D01*
Y151191D01*
X91419Y153899D01*
X90018Y156326D01*
X88036Y158308D01*
X85609Y159710D01*
X82901Y160435D01*
D02*
G37*
G36*
X57901D02*
X55099D01*
X52391Y159710D01*
X49964Y158308D01*
X47982Y156326D01*
X46581Y153899D01*
X45855Y151191D01*
Y148389D01*
X46581Y145681D01*
X47982Y143254D01*
X49964Y141272D01*
X52391Y139871D01*
X55099Y139145D01*
X57901D01*
X60609Y139871D01*
X63036Y141272D01*
X65018Y143254D01*
X66420Y145681D01*
X67145Y148389D01*
Y151191D01*
X66420Y153899D01*
X65018Y156326D01*
X63036Y158308D01*
X60609Y159710D01*
X57901Y160435D01*
D02*
G37*
G36*
X930948Y124770D02*
X929051D01*
X927298Y124044D01*
X925956Y122702D01*
X925230Y120949D01*
Y119051D01*
X925956Y117298D01*
X927298Y115956D01*
X929051Y115230D01*
X930948D01*
X932702Y115956D01*
X934044Y117298D01*
X934770Y119051D01*
Y120949D01*
X934044Y122702D01*
X932702Y124044D01*
X930948Y124770D01*
D02*
G37*
G36*
X900948D02*
X899051D01*
X897298Y124044D01*
X895956Y122702D01*
X895230Y120949D01*
Y119051D01*
X895956Y117298D01*
X897298Y115956D01*
X899051Y115230D01*
X900948D01*
X902702Y115956D01*
X904044Y117298D01*
X904770Y119051D01*
Y120949D01*
X904044Y122702D01*
X902702Y124044D01*
X900948Y124770D01*
D02*
G37*
G36*
X870949D02*
X869051D01*
X867298Y124044D01*
X865956Y122702D01*
X865230Y120949D01*
Y119051D01*
X865956Y117298D01*
X867298Y115956D01*
X869051Y115230D01*
X870949D01*
X872702Y115956D01*
X874044Y117298D01*
X874770Y119051D01*
Y120949D01*
X874044Y122702D01*
X872702Y124044D01*
X870949Y124770D01*
D02*
G37*
G36*
X810949D02*
X809051D01*
X807298Y124044D01*
X805956Y122702D01*
X805230Y120949D01*
Y119051D01*
X805956Y117298D01*
X807298Y115956D01*
X809051Y115230D01*
X810949D01*
X812702Y115956D01*
X814044Y117298D01*
X814770Y119051D01*
Y120949D01*
X814044Y122702D01*
X812702Y124044D01*
X810949Y124770D01*
D02*
G37*
G36*
X780949D02*
X779051D01*
X777298Y124044D01*
X775956Y122702D01*
X775230Y120949D01*
Y119051D01*
X775956Y117298D01*
X777298Y115956D01*
X779051Y115230D01*
X780949D01*
X782702Y115956D01*
X784044Y117298D01*
X784770Y119051D01*
Y120949D01*
X784044Y122702D01*
X782702Y124044D01*
X780949Y124770D01*
D02*
G37*
G36*
X750949D02*
X749051D01*
X747298Y124044D01*
X745956Y122702D01*
X745230Y120949D01*
Y119051D01*
X745956Y117298D01*
X747298Y115956D01*
X749051Y115230D01*
X750949D01*
X752702Y115956D01*
X754044Y117298D01*
X754770Y119051D01*
Y120949D01*
X754044Y122702D01*
X752702Y124044D01*
X750949Y124770D01*
D02*
G37*
G36*
X82901Y135435D02*
X80098D01*
X77391Y134710D01*
X74964Y133308D01*
X72982Y131326D01*
X71581Y128899D01*
X70855Y126191D01*
Y123389D01*
X71581Y120681D01*
X72982Y118254D01*
X74964Y116272D01*
X77391Y114871D01*
X80098Y114145D01*
X82901D01*
X85609Y114871D01*
X88036Y116272D01*
X90018Y118254D01*
X91419Y120681D01*
X92145Y123389D01*
Y126191D01*
X91419Y128899D01*
X90018Y131326D01*
X88036Y133308D01*
X85609Y134710D01*
X82901Y135435D01*
D02*
G37*
G36*
X57901D02*
X55099D01*
X52391Y134710D01*
X49964Y133308D01*
X47982Y131326D01*
X46581Y128899D01*
X45855Y126191D01*
Y123389D01*
X46581Y120681D01*
X47982Y118254D01*
X49964Y116272D01*
X52391Y114871D01*
X55099Y114145D01*
X57901D01*
X60609Y114871D01*
X63036Y116272D01*
X65018Y118254D01*
X66420Y120681D01*
X67145Y123389D01*
Y126191D01*
X66420Y128899D01*
X65018Y131326D01*
X63036Y133308D01*
X60609Y134710D01*
X57901Y135435D01*
D02*
G37*
G36*
X996430Y111720D02*
X994930D01*
X993544Y111146D01*
X992484Y110085D01*
X991910Y108700D01*
Y107200D01*
X992484Y105815D01*
X993544Y104754D01*
X994930Y104180D01*
X996430D01*
X997815Y104754D01*
X998876Y105815D01*
X999450Y107200D01*
Y108700D01*
X998876Y110085D01*
X997815Y111146D01*
X996430Y111720D01*
D02*
G37*
G36*
X809939Y105100D02*
X808041D01*
X806288Y104374D01*
X804946Y103032D01*
X804220Y101279D01*
Y99381D01*
X804946Y97628D01*
X806288Y96286D01*
X808041Y95560D01*
X809939D01*
X811692Y96286D01*
X813034Y97628D01*
X813760Y99381D01*
Y101279D01*
X813034Y103032D01*
X811692Y104374D01*
X809939Y105100D01*
D02*
G37*
G36*
X795969Y103830D02*
X794071D01*
X792318Y103104D01*
X790976Y101762D01*
X790250Y100009D01*
Y98111D01*
X790976Y96358D01*
X792318Y95016D01*
X794071Y94290D01*
X795969D01*
X797722Y95016D01*
X799064Y96358D01*
X799790Y98111D01*
Y100009D01*
X799064Y101762D01*
X797722Y103104D01*
X795969Y103830D01*
D02*
G37*
G36*
X1095948Y94770D02*
X1094051D01*
X1092298Y94044D01*
X1090956Y92702D01*
X1090230Y90949D01*
Y89051D01*
X1090956Y87298D01*
X1092298Y85956D01*
X1094051Y85230D01*
X1095948D01*
X1097702Y85956D01*
X1099044Y87298D01*
X1099770Y89051D01*
Y90949D01*
X1099044Y92702D01*
X1097702Y94044D01*
X1095948Y94770D01*
D02*
G37*
G36*
X1065948D02*
X1064051D01*
X1062298Y94044D01*
X1060956Y92702D01*
X1060230Y90949D01*
Y89051D01*
X1060956Y87298D01*
X1062298Y85956D01*
X1064051Y85230D01*
X1065948D01*
X1067702Y85956D01*
X1069044Y87298D01*
X1069770Y89051D01*
Y90949D01*
X1069044Y92702D01*
X1067702Y94044D01*
X1065948Y94770D01*
D02*
G37*
G36*
X1035948D02*
X1034051D01*
X1032298Y94044D01*
X1030956Y92702D01*
X1030230Y90949D01*
Y89051D01*
X1030956Y87298D01*
X1032298Y85956D01*
X1034051Y85230D01*
X1035948D01*
X1037702Y85956D01*
X1039044Y87298D01*
X1039770Y89051D01*
Y90949D01*
X1039044Y92702D01*
X1037702Y94044D01*
X1035948Y94770D01*
D02*
G37*
G36*
X1005948D02*
X1004051D01*
X1002298Y94044D01*
X1000956Y92702D01*
X1000230Y90949D01*
Y89051D01*
X1000956Y87298D01*
X1002298Y85956D01*
X1004051Y85230D01*
X1005948D01*
X1007702Y85956D01*
X1009044Y87298D01*
X1009770Y89051D01*
Y90949D01*
X1009044Y92702D01*
X1007702Y94044D01*
X1005948Y94770D01*
D02*
G37*
G36*
X975948D02*
X974051D01*
X972298Y94044D01*
X970956Y92702D01*
X970230Y90949D01*
Y89051D01*
X970956Y87298D01*
X972298Y85956D01*
X974051Y85230D01*
X975948D01*
X977702Y85956D01*
X979044Y87298D01*
X979770Y89051D01*
Y90949D01*
X979044Y92702D01*
X977702Y94044D01*
X975948Y94770D01*
D02*
G37*
G36*
X1037070Y76160D02*
X1035570D01*
X1034184Y75586D01*
X1033124Y74525D01*
X1032550Y73140D01*
Y71640D01*
X1033124Y70255D01*
X1034184Y69194D01*
X1035570Y68620D01*
X1037070D01*
X1038456Y69194D01*
X1039516Y70255D01*
X1040090Y71640D01*
Y73140D01*
X1039516Y74525D01*
X1038456Y75586D01*
X1037070Y76160D01*
D02*
G37*
G36*
X1050948Y64770D02*
X1049051D01*
X1047298Y64044D01*
X1045956Y62702D01*
X1045230Y60949D01*
Y59051D01*
X1045956Y57298D01*
X1047298Y55956D01*
X1049051Y55230D01*
X1050948D01*
X1052702Y55956D01*
X1054044Y57298D01*
X1054770Y59051D01*
Y60949D01*
X1054044Y62702D01*
X1052702Y64044D01*
X1050948Y64770D01*
D02*
G37*
G36*
X990948D02*
X989051D01*
X987298Y64044D01*
X985956Y62702D01*
X985230Y60949D01*
Y59051D01*
X985956Y57298D01*
X987298Y55956D01*
X989051Y55230D01*
X990948D01*
X992702Y55956D01*
X994044Y57298D01*
X994770Y59051D01*
Y60949D01*
X994044Y62702D01*
X992702Y64044D01*
X990948Y64770D01*
D02*
G37*
G36*
X960948D02*
X959051D01*
X957298Y64044D01*
X955956Y62702D01*
X955230Y60949D01*
Y59051D01*
X955956Y57298D01*
X957298Y55956D01*
X959051Y55230D01*
X960948D01*
X962702Y55956D01*
X964044Y57298D01*
X964770Y59051D01*
Y60949D01*
X964044Y62702D01*
X962702Y64044D01*
X960948Y64770D01*
D02*
G37*
%LPD*%
D33*
X553060Y496160D02*
D03*
X1153060Y46160D02*
D03*
Y496160D02*
D03*
X553060Y46160D02*
D03*
D34*
X82550Y418770D02*
D03*
Y393770D02*
D03*
Y368770D02*
D03*
Y343770D02*
D03*
Y318770D02*
D03*
Y293770D02*
D03*
X107550Y418770D02*
D03*
Y393770D02*
D03*
Y368770D02*
D03*
Y343770D02*
D03*
Y318770D02*
D03*
Y293770D02*
D03*
X1283700Y195280D02*
D03*
X1308700D02*
D03*
X1333700D02*
D03*
X1358700D02*
D03*
X1383700D02*
D03*
X1408700D02*
D03*
X1283700Y220280D02*
D03*
X1308700D02*
D03*
X1333700D02*
D03*
X1358700D02*
D03*
X1383700D02*
D03*
X1408700D02*
D03*
X1404890Y383840D02*
D03*
X1379890D02*
D03*
X1354890D02*
D03*
X1329890D02*
D03*
X1304890D02*
D03*
X1279890D02*
D03*
X1404890Y358840D02*
D03*
X1379890D02*
D03*
X1354890D02*
D03*
X1329890D02*
D03*
X1304890D02*
D03*
X1279890D02*
D03*
X56500Y249790D02*
D03*
Y224790D02*
D03*
Y199790D02*
D03*
Y174790D02*
D03*
Y149790D02*
D03*
Y124790D02*
D03*
X81500Y249790D02*
D03*
Y224790D02*
D03*
Y199790D02*
D03*
Y174790D02*
D03*
Y149790D02*
D03*
Y124790D02*
D03*
D35*
X69150Y356270D02*
D03*
X1346200Y233680D02*
D03*
X1342390Y345440D02*
D03*
X94900Y187290D02*
D03*
D36*
X50000Y50000D02*
D03*
X1450000Y500000D02*
D03*
Y50000D02*
D03*
X50000Y500000D02*
D03*
D37*
X1470000Y450000D02*
D03*
Y390000D02*
D03*
X1485000Y360000D02*
D03*
X1470000Y330000D02*
D03*
X1485000Y300000D02*
D03*
X1470000Y270000D02*
D03*
X1485000Y240000D02*
D03*
X1470000Y210000D02*
D03*
X1485000Y180000D02*
D03*
X1470000Y150000D02*
D03*
X1440000Y450000D02*
D03*
Y390000D02*
D03*
X1455000Y360000D02*
D03*
X1440000Y330000D02*
D03*
X1455000Y300000D02*
D03*
X1440000Y270000D02*
D03*
X1455000Y240000D02*
D03*
X1440000Y210000D02*
D03*
X1455000Y180000D02*
D03*
X1440000Y150000D02*
D03*
X1410000Y450000D02*
D03*
X1425000Y360000D02*
D03*
X1410000Y150000D02*
D03*
Y90000D02*
D03*
X1380000Y510000D02*
D03*
X1395000Y480000D02*
D03*
X1380000Y450000D02*
D03*
Y150000D02*
D03*
Y90000D02*
D03*
X1395000Y60000D02*
D03*
X1350000Y510000D02*
D03*
X1365000Y480000D02*
D03*
X1350000Y450000D02*
D03*
Y150000D02*
D03*
Y90000D02*
D03*
X1320000Y510000D02*
D03*
X1335000Y480000D02*
D03*
X1320000Y450000D02*
D03*
Y90000D02*
D03*
X1290000Y510000D02*
D03*
X1305000Y480000D02*
D03*
X1290000Y90000D02*
D03*
X1260000Y510000D02*
D03*
X1275000Y480000D02*
D03*
X1260000Y90000D02*
D03*
X1230000Y510000D02*
D03*
X1245000Y480000D02*
D03*
X1230000Y90000D02*
D03*
X1245000Y60000D02*
D03*
X1230000Y30000D02*
D03*
X1200000Y510000D02*
D03*
X1215000Y480000D02*
D03*
X1200000Y90000D02*
D03*
X1215000Y60000D02*
D03*
X1200000Y30000D02*
D03*
X1170000Y90000D02*
D03*
X1140000D02*
D03*
X1110000Y510000D02*
D03*
Y30000D02*
D03*
X1080000Y510000D02*
D03*
X1095000Y480000D02*
D03*
Y60000D02*
D03*
X1080000Y30000D02*
D03*
X1050000Y510000D02*
D03*
X1065000Y480000D02*
D03*
X1050000Y30000D02*
D03*
X1020000Y510000D02*
D03*
X1035000Y480000D02*
D03*
X1020000Y30000D02*
D03*
X990000Y510000D02*
D03*
X1005000Y480000D02*
D03*
X990000Y30000D02*
D03*
X960000Y510000D02*
D03*
X975000Y480000D02*
D03*
X960000Y30000D02*
D03*
X930000Y510000D02*
D03*
X945000Y480000D02*
D03*
X930000Y30000D02*
D03*
X900000Y510000D02*
D03*
X915000Y480000D02*
D03*
X900000Y30000D02*
D03*
X870000Y510000D02*
D03*
X885000Y480000D02*
D03*
X870000Y30000D02*
D03*
X840000Y510000D02*
D03*
X855000Y480000D02*
D03*
X840000Y30000D02*
D03*
X810000Y510000D02*
D03*
X825000Y480000D02*
D03*
X810000Y30000D02*
D03*
X780000Y510000D02*
D03*
X795000Y480000D02*
D03*
X780000Y30000D02*
D03*
X750000Y510000D02*
D03*
X765000Y480000D02*
D03*
Y420000D02*
D03*
X750000Y390000D02*
D03*
Y30000D02*
D03*
X720000Y510000D02*
D03*
X735000Y480000D02*
D03*
X720000Y330000D02*
D03*
Y30000D02*
D03*
X690000Y510000D02*
D03*
X705000Y480000D02*
D03*
Y420000D02*
D03*
X690000Y30000D02*
D03*
X660000Y510000D02*
D03*
X675000Y480000D02*
D03*
Y420000D02*
D03*
X660000Y330000D02*
D03*
X675000Y300000D02*
D03*
X660000Y270000D02*
D03*
X675000Y240000D02*
D03*
Y60000D02*
D03*
X660000Y30000D02*
D03*
X630000Y510000D02*
D03*
X645000Y480000D02*
D03*
Y420000D02*
D03*
X630000Y330000D02*
D03*
X645000Y300000D02*
D03*
X630000Y270000D02*
D03*
X645000Y240000D02*
D03*
X630000Y210000D02*
D03*
Y150000D02*
D03*
X645000Y120000D02*
D03*
Y60000D02*
D03*
X630000Y30000D02*
D03*
X600000Y510000D02*
D03*
X615000Y480000D02*
D03*
Y420000D02*
D03*
Y300000D02*
D03*
X600000Y270000D02*
D03*
X615000Y240000D02*
D03*
X600000Y210000D02*
D03*
X615000Y180000D02*
D03*
X600000Y150000D02*
D03*
X615000Y120000D02*
D03*
Y60000D02*
D03*
X600000Y30000D02*
D03*
X585000Y420000D02*
D03*
Y300000D02*
D03*
X570000Y270000D02*
D03*
X585000Y240000D02*
D03*
X570000Y210000D02*
D03*
X585000Y180000D02*
D03*
X555000Y420000D02*
D03*
Y240000D02*
D03*
X540000Y210000D02*
D03*
X555000Y180000D02*
D03*
X540000Y150000D02*
D03*
X555000Y120000D02*
D03*
X510000Y510000D02*
D03*
X525000Y420000D02*
D03*
Y300000D02*
D03*
Y240000D02*
D03*
X510000Y150000D02*
D03*
X525000Y120000D02*
D03*
X510000Y30000D02*
D03*
X480000Y510000D02*
D03*
X495000Y480000D02*
D03*
X480000Y150000D02*
D03*
X495000Y120000D02*
D03*
X480000Y90000D02*
D03*
Y30000D02*
D03*
X450000Y510000D02*
D03*
X465000Y480000D02*
D03*
Y240000D02*
D03*
Y120000D02*
D03*
X450000Y90000D02*
D03*
Y30000D02*
D03*
X420000Y510000D02*
D03*
X435000Y480000D02*
D03*
Y420000D02*
D03*
X420000Y270000D02*
D03*
X390000Y510000D02*
D03*
X405000Y480000D02*
D03*
Y420000D02*
D03*
X390000Y210000D02*
D03*
Y150000D02*
D03*
Y90000D02*
D03*
Y30000D02*
D03*
X360000Y510000D02*
D03*
X375000Y480000D02*
D03*
Y420000D02*
D03*
Y300000D02*
D03*
X360000Y270000D02*
D03*
X375000Y240000D02*
D03*
X360000Y210000D02*
D03*
Y150000D02*
D03*
X375000Y120000D02*
D03*
X360000Y90000D02*
D03*
Y30000D02*
D03*
X330000Y510000D02*
D03*
X345000Y480000D02*
D03*
Y420000D02*
D03*
Y300000D02*
D03*
Y240000D02*
D03*
Y120000D02*
D03*
X300000Y510000D02*
D03*
X315000Y480000D02*
D03*
Y420000D02*
D03*
Y300000D02*
D03*
X300000Y150000D02*
D03*
X270000Y510000D02*
D03*
X285000Y480000D02*
D03*
Y420000D02*
D03*
Y240000D02*
D03*
X270000Y210000D02*
D03*
Y150000D02*
D03*
X285000Y120000D02*
D03*
X240000Y510000D02*
D03*
X255000Y480000D02*
D03*
Y420000D02*
D03*
Y300000D02*
D03*
X240000Y270000D02*
D03*
X255000Y240000D02*
D03*
X240000Y210000D02*
D03*
X255000Y120000D02*
D03*
X240000Y90000D02*
D03*
X210000Y510000D02*
D03*
X225000Y480000D02*
D03*
Y420000D02*
D03*
Y300000D02*
D03*
X210000Y150000D02*
D03*
X225000Y120000D02*
D03*
X210000Y90000D02*
D03*
X180000Y510000D02*
D03*
X195000Y480000D02*
D03*
X180000Y450000D02*
D03*
X195000Y300000D02*
D03*
X180000Y270000D02*
D03*
Y210000D02*
D03*
X195000Y120000D02*
D03*
X180000Y90000D02*
D03*
X150000Y510000D02*
D03*
X165000Y480000D02*
D03*
X150000Y450000D02*
D03*
X165000Y300000D02*
D03*
X150000Y270000D02*
D03*
Y210000D02*
D03*
X165000Y120000D02*
D03*
X150000Y90000D02*
D03*
X120000Y510000D02*
D03*
X135000Y480000D02*
D03*
Y300000D02*
D03*
X120000Y270000D02*
D03*
Y210000D02*
D03*
X135000Y120000D02*
D03*
X120000Y30000D02*
D03*
X105000Y480000D02*
D03*
X90000Y270000D02*
D03*
X105000Y60000D02*
D03*
X60000Y450000D02*
D03*
Y330000D02*
D03*
Y270000D02*
D03*
X30000Y450000D02*
D03*
X45000Y420000D02*
D03*
X30000Y390000D02*
D03*
X45000Y360000D02*
D03*
X30000Y330000D02*
D03*
X45000Y300000D02*
D03*
X30000Y270000D02*
D03*
X45000Y240000D02*
D03*
X30000Y210000D02*
D03*
X1410000Y300000D02*
D03*
Y240000D02*
D03*
X1425000Y210000D02*
D03*
X1410000Y180000D02*
D03*
X1395000Y330000D02*
D03*
X1380000Y300000D02*
D03*
Y240000D02*
D03*
X1395000Y210000D02*
D03*
X1380000Y180000D02*
D03*
X1365000Y330000D02*
D03*
Y270000D02*
D03*
X1320000Y240000D02*
D03*
X1305000Y270000D02*
D03*
X1275000Y450000D02*
D03*
X1260000Y360000D02*
D03*
Y300000D02*
D03*
Y240000D02*
D03*
X1245000Y450000D02*
D03*
Y390000D02*
D03*
X1230000Y240000D02*
D03*
X1215000Y450000D02*
D03*
Y390000D02*
D03*
Y330000D02*
D03*
X1200000Y240000D02*
D03*
X1185000Y450000D02*
D03*
Y390000D02*
D03*
Y330000D02*
D03*
X1170000Y240000D02*
D03*
X1155000Y450000D02*
D03*
Y390000D02*
D03*
Y330000D02*
D03*
X1140000Y240000D02*
D03*
X1125000Y450000D02*
D03*
Y330000D02*
D03*
X1110000Y240000D02*
D03*
X1095000Y450000D02*
D03*
Y330000D02*
D03*
X1080000Y240000D02*
D03*
X1095000Y90000D02*
D03*
X1065000Y450000D02*
D03*
Y330000D02*
D03*
X1050000Y240000D02*
D03*
X1065000Y90000D02*
D03*
X1050000Y60000D02*
D03*
X1035000Y450000D02*
D03*
X1020000Y240000D02*
D03*
X1035000Y90000D02*
D03*
X1005000Y450000D02*
D03*
Y90000D02*
D03*
X990000Y60000D02*
D03*
X975000Y450000D02*
D03*
Y330000D02*
D03*
X960000Y240000D02*
D03*
Y180000D02*
D03*
X975000Y90000D02*
D03*
X960000Y60000D02*
D03*
X945000Y450000D02*
D03*
Y270000D02*
D03*
Y210000D02*
D03*
X930000Y180000D02*
D03*
Y120000D02*
D03*
X900000D02*
D03*
X885000Y330000D02*
D03*
X870000Y120000D02*
D03*
X840000Y360000D02*
D03*
X855000Y330000D02*
D03*
X810000Y360000D02*
D03*
Y120000D02*
D03*
X780000Y180000D02*
D03*
Y120000D02*
D03*
X765000Y210000D02*
D03*
X750000Y180000D02*
D03*
Y120000D02*
D03*
X720000Y240000D02*
D03*
Y180000D02*
D03*
X675000Y210000D02*
D03*
X198120Y184150D02*
D03*
X204470Y266700D02*
D03*
X553060Y523660D02*
D03*
X573060Y516160D02*
D03*
X580560Y496160D02*
D03*
X573060Y476160D02*
D03*
X553060Y468660D02*
D03*
X533060Y476160D02*
D03*
X525560Y496160D02*
D03*
X533060Y516160D02*
D03*
X756948Y144700D02*
D03*
X795020Y99060D02*
D03*
X808990Y100330D02*
D03*
X961390Y214600D02*
D03*
X943610Y252700D02*
D03*
X957580Y265400D02*
D03*
X975360Y278130D02*
D03*
X958850Y290830D02*
D03*
X947420Y303530D02*
D03*
X958850Y316230D02*
D03*
X1153060Y73660D02*
D03*
X1173060Y66160D02*
D03*
X1180560Y46160D02*
D03*
X1173060Y26160D02*
D03*
X1153060Y18660D02*
D03*
X1133060Y26160D02*
D03*
X1125560Y46160D02*
D03*
X1133060Y66160D02*
D03*
X52070Y79570D02*
D03*
X72070Y72070D02*
D03*
X79570Y52070D02*
D03*
X72070Y32070D02*
D03*
X52070Y24570D02*
D03*
X32070Y32070D02*
D03*
X24570Y52070D02*
D03*
X32070Y72070D02*
D03*
X1153060Y523660D02*
D03*
X1173060Y516160D02*
D03*
X1180560Y496160D02*
D03*
X1173060Y476160D02*
D03*
X1153060Y468660D02*
D03*
X1133060Y476160D02*
D03*
X1125560Y496160D02*
D03*
X1133060Y516160D02*
D03*
X553060Y73660D02*
D03*
X573060Y66160D02*
D03*
X580560Y46160D02*
D03*
X573060Y26160D02*
D03*
X553060Y18660D02*
D03*
X533060Y26160D02*
D03*
X525560Y46160D02*
D03*
X533060Y66160D02*
D03*
X1450000Y527500D02*
D03*
X1470000Y520000D02*
D03*
X1477500Y500000D02*
D03*
X1470000Y480000D02*
D03*
X1450000Y472500D02*
D03*
X1430000Y480000D02*
D03*
X1422500Y500000D02*
D03*
X1430000Y520000D02*
D03*
X1450000Y77500D02*
D03*
X1470000Y70000D02*
D03*
X1477500Y50000D02*
D03*
X1470000Y30000D02*
D03*
X1450000Y22500D02*
D03*
X1430000Y30000D02*
D03*
X1422500Y50000D02*
D03*
X1430000Y70000D02*
D03*
X50000Y527500D02*
D03*
X70000Y520000D02*
D03*
X77500Y500000D02*
D03*
X70000Y480000D02*
D03*
X50000Y472500D02*
D03*
X30000Y480000D02*
D03*
X22500Y500000D02*
D03*
X30000Y520000D02*
D03*
D38*
X1051560Y339090D02*
D03*
X396240Y424100D02*
D03*
X466090D02*
D03*
X782320Y438150D02*
D03*
X680720Y231140D02*
D03*
X1036320Y72390D02*
D03*
X995680Y107950D02*
D03*
X686764Y152400D02*
D03*
X968621Y171450D02*
D03*
X967455Y181865D02*
D03*
X270510Y308610D02*
D03*
X391160Y265430D02*
D03*
X495300Y384810D02*
D03*
X458470Y364490D02*
D03*
X462280Y328930D02*
D03*
X463550Y299720D02*
D03*
X468630Y270510D02*
D03*
X506730Y232410D02*
D03*
X468630Y201930D02*
D03*
X281940Y133350D02*
D03*
X295910Y191770D02*
D03*
X346710Y227330D02*
D03*
X345440Y309880D02*
D03*
X482600Y205740D02*
D03*
X476250Y302260D02*
D03*
Y327660D02*
D03*
X480060Y365760D02*
D03*
X478790Y247650D02*
D03*
X477520Y274320D02*
D03*
X478790Y389890D02*
D03*
X1182370Y162560D02*
D03*
M02*
