G04*
G04 #@! TF.GenerationSoftware,Altium Limited,Altium Designer,24.3.1 (35)*
G04*
G04 Layer_Color=8388736*
%FSLAX44Y44*%
%MOMM*%
G71*
G04*
G04 #@! TF.SameCoordinates,C3A98564-D86C-46C7-A890-955D0AD343B8*
G04*
G04*
G04 #@! TF.FilePolarity,Negative*
G04*
G01*
G75*
%ADD23R,0.9432X1.9032*%
%ADD24R,1.9032X0.9432*%
G04:AMPARAMS|DCode=25|XSize=0.8532mm|YSize=1.4532mm|CornerRadius=0.2641mm|HoleSize=0mm|Usage=FLASHONLY|Rotation=90.000|XOffset=0mm|YOffset=0mm|HoleType=Round|Shape=RoundedRectangle|*
%AMROUNDEDRECTD25*
21,1,0.8532,0.9250,0,0,90.0*
21,1,0.3250,1.4532,0,0,90.0*
1,1,0.5282,0.4625,0.1625*
1,1,0.5282,0.4625,-0.1625*
1,1,0.5282,-0.4625,-0.1625*
1,1,0.5282,-0.4625,0.1625*
%
%ADD25ROUNDEDRECTD25*%
%ADD26R,1.1032X1.5032*%
%ADD27R,1.5032X1.1032*%
%ADD28R,1.3532X1.5532*%
%ADD29R,1.5532X1.3532*%
G04:AMPARAMS|DCode=30|XSize=1.9532mm|YSize=1.4532mm|CornerRadius=0.4141mm|HoleSize=0mm|Usage=FLASHONLY|Rotation=180.000|XOffset=0mm|YOffset=0mm|HoleType=Round|Shape=RoundedRectangle|*
%AMROUNDEDRECTD30*
21,1,1.9532,0.6250,0,0,180.0*
21,1,1.1250,1.4532,0,0,180.0*
1,1,0.8282,-0.5625,0.3125*
1,1,0.8282,0.5625,0.3125*
1,1,0.8282,0.5625,-0.3125*
1,1,0.8282,-0.5625,-0.3125*
%
%ADD30ROUNDEDRECTD30*%
G04:AMPARAMS|DCode=31|XSize=1.9532mm|YSize=1.4532mm|CornerRadius=0.4141mm|HoleSize=0mm|Usage=FLASHONLY|Rotation=90.000|XOffset=0mm|YOffset=0mm|HoleType=Round|Shape=RoundedRectangle|*
%AMROUNDEDRECTD31*
21,1,1.9532,0.6250,0,0,90.0*
21,1,1.1250,1.4532,0,0,90.0*
1,1,0.8282,0.3125,0.5625*
1,1,0.8282,0.3125,-0.5625*
1,1,0.8282,-0.3125,-0.5625*
1,1,0.8282,-0.3125,0.5625*
%
%ADD31ROUNDEDRECTD31*%
%ADD32C,7.2032*%
%ADD33C,2.0782*%
%ADD34C,8.2032*%
%ADD35C,0.8782*%
%ADD36C,0.9032*%
%ADD37C,0.7032*%
D23*
X578160Y61770D02*
D03*
X565460D02*
D03*
X552760D02*
D03*
X540060D02*
D03*
X527360D02*
D03*
X514660D02*
D03*
X489260D02*
D03*
X501960D02*
D03*
X476560D02*
D03*
X463860D02*
D03*
X451160D02*
D03*
X438460D02*
D03*
X425760D02*
D03*
X578160Y100770D02*
D03*
X565460D02*
D03*
X552760D02*
D03*
X540060D02*
D03*
X527360D02*
D03*
X514660D02*
D03*
X501960D02*
D03*
X489260D02*
D03*
X476560D02*
D03*
X463860D02*
D03*
X451160D02*
D03*
X425760D02*
D03*
X438460D02*
D03*
X581850Y381770D02*
D03*
X569150D02*
D03*
X556450D02*
D03*
X543750D02*
D03*
X531050D02*
D03*
X518350D02*
D03*
X505650D02*
D03*
X492950D02*
D03*
X480250D02*
D03*
X467550D02*
D03*
X454850D02*
D03*
X442150D02*
D03*
X429450D02*
D03*
X581850Y420770D02*
D03*
X569150D02*
D03*
X556450D02*
D03*
X531050D02*
D03*
X543750D02*
D03*
X518350D02*
D03*
X505650D02*
D03*
X492950D02*
D03*
X467550D02*
D03*
X480250D02*
D03*
X454850D02*
D03*
X442150D02*
D03*
X429450D02*
D03*
X413060Y61770D02*
D03*
Y100770D02*
D03*
X416750Y420770D02*
D03*
Y381770D02*
D03*
D24*
X665110Y244920D02*
D03*
Y232220D02*
D03*
Y219520D02*
D03*
Y181420D02*
D03*
Y194120D02*
D03*
Y206820D02*
D03*
Y333820D02*
D03*
Y321120D02*
D03*
Y308420D02*
D03*
Y295720D02*
D03*
Y283020D02*
D03*
Y270320D02*
D03*
Y257620D02*
D03*
X626110Y333820D02*
D03*
Y321120D02*
D03*
Y308420D02*
D03*
Y295720D02*
D03*
Y283020D02*
D03*
Y270320D02*
D03*
Y257620D02*
D03*
Y244920D02*
D03*
Y232220D02*
D03*
Y219520D02*
D03*
Y206820D02*
D03*
Y194120D02*
D03*
Y181420D02*
D03*
X365110Y333820D02*
D03*
Y321120D02*
D03*
Y308420D02*
D03*
Y295720D02*
D03*
Y283020D02*
D03*
Y270320D02*
D03*
Y257620D02*
D03*
Y244920D02*
D03*
Y232220D02*
D03*
Y219520D02*
D03*
Y206820D02*
D03*
Y194120D02*
D03*
Y181420D02*
D03*
X326110Y333820D02*
D03*
Y321120D02*
D03*
Y308420D02*
D03*
Y295720D02*
D03*
Y283020D02*
D03*
Y270320D02*
D03*
Y257620D02*
D03*
Y244920D02*
D03*
Y232220D02*
D03*
Y219520D02*
D03*
Y206820D02*
D03*
Y194120D02*
D03*
Y181420D02*
D03*
X665110Y168720D02*
D03*
X626110D02*
D03*
X365110D02*
D03*
X326110D02*
D03*
D25*
X1308380Y339090D02*
D03*
X1279880Y329590D02*
D03*
Y348590D02*
D03*
X1377670Y436880D02*
D03*
X1406170Y446380D02*
D03*
Y427380D02*
D03*
X1310920Y276860D02*
D03*
X1282420Y267360D02*
D03*
Y286360D02*
D03*
D26*
X1341780Y274320D02*
D03*
X1322730Y185420D02*
D03*
X1341730D02*
D03*
X1360780Y274320D02*
D03*
X1171550Y218440D02*
D03*
X1152550D02*
D03*
X1197000Y220980D02*
D03*
X1216000D02*
D03*
D27*
X1367790Y333350D02*
D03*
X1096010Y251460D02*
D03*
Y232460D02*
D03*
X1367790Y314350D02*
D03*
X1092200Y184760D02*
D03*
Y165760D02*
D03*
X1243330Y215290D02*
D03*
Y234290D02*
D03*
D28*
X1410060Y323850D02*
D03*
X1413150Y290830D02*
D03*
X1431650D02*
D03*
X1415690Y347980D02*
D03*
X1434190D02*
D03*
X1391560Y323850D02*
D03*
X1154070Y254000D02*
D03*
X1172570D02*
D03*
D29*
X1341120Y226970D02*
D03*
X1347470Y147320D02*
D03*
Y128820D02*
D03*
X1275080Y210460D02*
D03*
Y228960D02*
D03*
X1121410Y230780D02*
D03*
Y249280D02*
D03*
X1066800Y180700D02*
D03*
Y162200D02*
D03*
X1117600Y160930D02*
D03*
Y179430D02*
D03*
X1249680Y144420D02*
D03*
Y162920D02*
D03*
X1172210Y154580D02*
D03*
Y173080D02*
D03*
X1198880Y152040D02*
D03*
Y170540D02*
D03*
X1144270Y157120D02*
D03*
Y175620D02*
D03*
X1341120Y245470D02*
D03*
X1342390Y424900D02*
D03*
Y406400D02*
D03*
X1313180Y389530D02*
D03*
Y408030D02*
D03*
X1369060Y373740D02*
D03*
Y355240D02*
D03*
X1252220Y306430D02*
D03*
Y287930D02*
D03*
X1310640Y430170D02*
D03*
Y448670D02*
D03*
X1244600Y336190D02*
D03*
Y354690D02*
D03*
X1224280Y158750D02*
D03*
Y140250D02*
D03*
X1202690Y278490D02*
D03*
Y259990D02*
D03*
D30*
X1358900Y77190D02*
D03*
Y105690D02*
D03*
X1289050Y165380D02*
D03*
Y136880D02*
D03*
X1316990Y141250D02*
D03*
Y112750D02*
D03*
D31*
X1394180Y173990D02*
D03*
X1422680D02*
D03*
X1394180Y110490D02*
D03*
X1422680D02*
D03*
X1394180Y142240D02*
D03*
X1422680D02*
D03*
X1422680Y240030D02*
D03*
X1394180D02*
D03*
X1422680Y212090D02*
D03*
X1394180D02*
D03*
D32*
X800000Y500000D02*
D03*
Y50000D02*
D03*
X200000Y500000D02*
D03*
Y50000D02*
D03*
D33*
X1175620Y56500D02*
D03*
X970280Y439420D02*
D03*
X1494790Y437820D02*
D03*
X1469790D02*
D03*
Y412820D02*
D03*
Y387820D02*
D03*
Y362820D02*
D03*
Y337820D02*
D03*
Y312820D02*
D03*
X1494790Y412820D02*
D03*
Y387820D02*
D03*
Y362820D02*
D03*
Y337820D02*
D03*
Y312820D02*
D03*
X1467250Y258280D02*
D03*
Y233280D02*
D03*
Y208280D02*
D03*
Y183280D02*
D03*
Y158280D02*
D03*
Y133280D02*
D03*
X1492250Y258280D02*
D03*
Y233280D02*
D03*
Y208280D02*
D03*
Y183280D02*
D03*
Y158280D02*
D03*
Y133280D02*
D03*
X1125620Y56500D02*
D03*
X1150620D02*
D03*
X1200620D02*
D03*
X1225620D02*
D03*
X1250620D02*
D03*
X1125620Y81500D02*
D03*
X1150620D02*
D03*
X1175620D02*
D03*
X1200620D02*
D03*
X1225620D02*
D03*
X1250620D02*
D03*
X995280Y389420D02*
D03*
Y414420D02*
D03*
Y439420D02*
D03*
Y464420D02*
D03*
Y489420D02*
D03*
Y514420D02*
D03*
X970280Y389420D02*
D03*
Y414420D02*
D03*
Y464420D02*
D03*
Y489420D02*
D03*
Y514420D02*
D03*
D34*
X1500000Y500000D02*
D03*
X50000D02*
D03*
X1500000Y50000D02*
D03*
X50000D02*
D03*
D35*
X1508190Y375320D02*
D03*
X1505650Y195780D02*
D03*
X1188120Y94900D02*
D03*
X956880Y451920D02*
D03*
D36*
X403860Y59690D02*
D03*
X1400810Y394970D02*
D03*
X1278890Y448670D02*
D03*
X464820Y401320D02*
D03*
X697230Y298450D02*
D03*
X379730Y226520D02*
D03*
X380892Y238279D02*
D03*
X417700Y244980D02*
D03*
X420370Y232410D02*
D03*
X598170Y250840D02*
D03*
X394934Y230916D02*
D03*
X824436Y93980D02*
D03*
X350520Y217170D02*
D03*
X642620Y274320D02*
D03*
X690880Y317500D02*
D03*
X826770Y337820D02*
D03*
X1291590Y396240D02*
D03*
X1305560Y365760D02*
D03*
X642620Y260350D02*
D03*
X342900Y170180D02*
D03*
X341630Y184150D02*
D03*
X494030Y396240D02*
D03*
X481330Y361950D02*
D03*
X220000Y480000D02*
D03*
X172500Y500000D02*
D03*
X227500D02*
D03*
X180000Y520000D02*
D03*
X220000D02*
D03*
X200000Y527500D02*
D03*
Y472500D02*
D03*
X180000Y480000D02*
D03*
X800000Y472500D02*
D03*
X780000Y480000D02*
D03*
X820000D02*
D03*
X772500Y500000D02*
D03*
X827500D02*
D03*
X780000Y520000D02*
D03*
X820000D02*
D03*
X800000Y527500D02*
D03*
X772500Y50000D02*
D03*
X780000Y30000D02*
D03*
Y70000D02*
D03*
X800000Y77500D02*
D03*
Y22500D02*
D03*
X820000Y30000D02*
D03*
Y70000D02*
D03*
X827500Y50000D02*
D03*
X172500D02*
D03*
X200000Y22500D02*
D03*
X180000Y30000D02*
D03*
X220000D02*
D03*
X227500Y50000D02*
D03*
X180000Y70000D02*
D03*
X220000D02*
D03*
X200000Y77500D02*
D03*
X1480000Y520000D02*
D03*
X1472500Y500000D02*
D03*
X1500000Y472500D02*
D03*
X1480000Y480000D02*
D03*
X1520000D02*
D03*
X1527500Y500000D02*
D03*
X1520000Y520000D02*
D03*
X1500000Y527500D02*
D03*
X30000Y480000D02*
D03*
X22500Y500000D02*
D03*
X77500D02*
D03*
X30000Y520000D02*
D03*
X70000D02*
D03*
X50000Y527500D02*
D03*
Y472500D02*
D03*
X70000Y480000D02*
D03*
X1500000Y22500D02*
D03*
X1480000Y30000D02*
D03*
X1520000D02*
D03*
X1527500Y50000D02*
D03*
X1480000Y70000D02*
D03*
X1520000D02*
D03*
X1500000Y77500D02*
D03*
X1472500Y50000D02*
D03*
X30000Y30000D02*
D03*
X77500Y50000D02*
D03*
X70000Y30000D02*
D03*
X50000Y22500D02*
D03*
X22500Y50000D02*
D03*
X50000Y77500D02*
D03*
X30000Y70000D02*
D03*
X70000D02*
D03*
D37*
X1540000Y480000D02*
D03*
X1520000Y440000D02*
D03*
X1540000Y400000D02*
D03*
X1520000Y360000D02*
D03*
X1540000Y320000D02*
D03*
X1520000Y280000D02*
D03*
X1540000Y240000D02*
D03*
X1520000Y200000D02*
D03*
X1540000Y160000D02*
D03*
X1520000Y120000D02*
D03*
X1540000Y80000D02*
D03*
X1480000Y200000D02*
D03*
X1440000Y520000D02*
D03*
X1460000Y480000D02*
D03*
X1440000Y440000D02*
D03*
Y200000D02*
D03*
X1460000Y80000D02*
D03*
X1440000Y40000D02*
D03*
X1400000Y520000D02*
D03*
X1420000Y480000D02*
D03*
Y80000D02*
D03*
X1400000Y40000D02*
D03*
X1360000Y520000D02*
D03*
X1380000Y480000D02*
D03*
Y80000D02*
D03*
X1360000Y40000D02*
D03*
X1320000Y520000D02*
D03*
X1340000Y480000D02*
D03*
X1320000Y360000D02*
D03*
X1340000Y80000D02*
D03*
X1280000Y520000D02*
D03*
X1300000Y480000D02*
D03*
Y320000D02*
D03*
Y240000D02*
D03*
X1280000Y120000D02*
D03*
X1240000Y520000D02*
D03*
X1260000Y480000D02*
D03*
X1240000Y440000D02*
D03*
X1260000Y320000D02*
D03*
X1240000Y120000D02*
D03*
X1200000Y520000D02*
D03*
X1220000Y480000D02*
D03*
X1200000Y440000D02*
D03*
X1220000Y400000D02*
D03*
Y320000D02*
D03*
X1200000Y40000D02*
D03*
X1160000Y520000D02*
D03*
X1180000Y480000D02*
D03*
X1160000Y440000D02*
D03*
X1180000Y400000D02*
D03*
X1160000Y200000D02*
D03*
Y120000D02*
D03*
Y40000D02*
D03*
X1120000Y520000D02*
D03*
X1140000Y480000D02*
D03*
X1120000Y440000D02*
D03*
X1140000Y400000D02*
D03*
Y320000D02*
D03*
X1120000Y200000D02*
D03*
Y40000D02*
D03*
X1080000Y520000D02*
D03*
X1100000Y480000D02*
D03*
X1080000Y440000D02*
D03*
X1100000Y400000D02*
D03*
Y320000D02*
D03*
X1080000Y200000D02*
D03*
Y120000D02*
D03*
X1100000Y80000D02*
D03*
X1080000Y40000D02*
D03*
X1040000Y520000D02*
D03*
Y440000D02*
D03*
X1060000Y400000D02*
D03*
Y320000D02*
D03*
X1040000Y200000D02*
D03*
Y120000D02*
D03*
X1060000Y80000D02*
D03*
X1040000Y40000D02*
D03*
X1020000Y480000D02*
D03*
Y400000D02*
D03*
Y320000D02*
D03*
Y80000D02*
D03*
X1000000Y40000D02*
D03*
X980000Y320000D02*
D03*
X960000Y200000D02*
D03*
Y120000D02*
D03*
X980000Y80000D02*
D03*
X960000Y40000D02*
D03*
X920000Y440000D02*
D03*
X940000Y320000D02*
D03*
X920000Y200000D02*
D03*
X940000Y80000D02*
D03*
X920000Y40000D02*
D03*
X880000Y520000D02*
D03*
Y440000D02*
D03*
X900000Y320000D02*
D03*
X880000Y200000D02*
D03*
X900000Y160000D02*
D03*
Y80000D02*
D03*
X880000Y40000D02*
D03*
X840000Y520000D02*
D03*
X860000Y320000D02*
D03*
X840000Y200000D02*
D03*
X860000Y160000D02*
D03*
Y80000D02*
D03*
X840000Y40000D02*
D03*
X800000Y440000D02*
D03*
X820000Y320000D02*
D03*
X800000Y200000D02*
D03*
X820000Y160000D02*
D03*
X760000Y520000D02*
D03*
Y440000D02*
D03*
X780000Y320000D02*
D03*
X760000Y200000D02*
D03*
X780000Y160000D02*
D03*
X760000Y40000D02*
D03*
X720000Y520000D02*
D03*
X740000Y480000D02*
D03*
X720000Y440000D02*
D03*
X740000Y320000D02*
D03*
X720000Y200000D02*
D03*
X740000Y160000D02*
D03*
Y80000D02*
D03*
X720000Y40000D02*
D03*
X700000Y480000D02*
D03*
X680000Y440000D02*
D03*
X700000Y320000D02*
D03*
X680000Y200000D02*
D03*
X700000Y160000D02*
D03*
Y80000D02*
D03*
X680000Y40000D02*
D03*
X640000Y520000D02*
D03*
X660000Y480000D02*
D03*
X640000Y440000D02*
D03*
Y200000D02*
D03*
X660000Y160000D02*
D03*
Y80000D02*
D03*
X640000Y40000D02*
D03*
X600000Y520000D02*
D03*
X620000Y480000D02*
D03*
X600000Y280000D02*
D03*
Y200000D02*
D03*
X620000Y160000D02*
D03*
Y80000D02*
D03*
X600000Y40000D02*
D03*
X560000Y520000D02*
D03*
X580000Y480000D02*
D03*
X560000Y440000D02*
D03*
Y280000D02*
D03*
Y200000D02*
D03*
X580000Y160000D02*
D03*
Y80000D02*
D03*
X560000Y40000D02*
D03*
X520000Y520000D02*
D03*
X540000Y480000D02*
D03*
X520000Y440000D02*
D03*
X540000Y320000D02*
D03*
X520000Y280000D02*
D03*
Y200000D02*
D03*
X540000Y160000D02*
D03*
Y80000D02*
D03*
X520000Y40000D02*
D03*
X480000Y520000D02*
D03*
X500000Y480000D02*
D03*
X480000Y440000D02*
D03*
X500000Y320000D02*
D03*
X480000Y280000D02*
D03*
Y200000D02*
D03*
X500000Y160000D02*
D03*
Y80000D02*
D03*
X480000Y40000D02*
D03*
X440000Y520000D02*
D03*
X460000Y480000D02*
D03*
X440000Y440000D02*
D03*
Y360000D02*
D03*
X460000Y320000D02*
D03*
X440000Y280000D02*
D03*
Y200000D02*
D03*
X460000Y80000D02*
D03*
X440000Y40000D02*
D03*
X400000Y520000D02*
D03*
X420000Y480000D02*
D03*
X400000Y440000D02*
D03*
X420000Y400000D02*
D03*
X400000Y360000D02*
D03*
X420000Y160000D02*
D03*
X400000Y120000D02*
D03*
X420000Y80000D02*
D03*
X400000Y40000D02*
D03*
X360000Y520000D02*
D03*
X380000Y480000D02*
D03*
X360000Y440000D02*
D03*
X380000Y400000D02*
D03*
X360000Y360000D02*
D03*
X380000Y320000D02*
D03*
Y160000D02*
D03*
X360000Y120000D02*
D03*
X380000Y80000D02*
D03*
X360000Y40000D02*
D03*
X320000Y520000D02*
D03*
X340000Y480000D02*
D03*
X320000Y440000D02*
D03*
X340000Y400000D02*
D03*
X320000Y360000D02*
D03*
X340000Y320000D02*
D03*
Y160000D02*
D03*
X320000Y120000D02*
D03*
X340000Y80000D02*
D03*
X320000Y40000D02*
D03*
X280000Y520000D02*
D03*
X300000Y480000D02*
D03*
X280000Y440000D02*
D03*
X300000Y400000D02*
D03*
X280000Y360000D02*
D03*
X300000Y320000D02*
D03*
X280000Y280000D02*
D03*
X300000Y240000D02*
D03*
X280000Y200000D02*
D03*
X300000Y160000D02*
D03*
X280000Y120000D02*
D03*
X300000Y80000D02*
D03*
X280000Y40000D02*
D03*
X240000Y520000D02*
D03*
X260000Y480000D02*
D03*
X240000Y440000D02*
D03*
X260000Y400000D02*
D03*
X240000Y360000D02*
D03*
X260000Y320000D02*
D03*
X240000Y280000D02*
D03*
X260000Y240000D02*
D03*
X240000Y200000D02*
D03*
X260000Y160000D02*
D03*
X240000Y120000D02*
D03*
X260000Y80000D02*
D03*
X240000Y40000D02*
D03*
X200000Y440000D02*
D03*
X220000Y400000D02*
D03*
X200000Y360000D02*
D03*
X220000Y320000D02*
D03*
X200000Y280000D02*
D03*
X220000Y240000D02*
D03*
X200000Y200000D02*
D03*
X220000Y160000D02*
D03*
X200000Y120000D02*
D03*
X160000Y520000D02*
D03*
Y440000D02*
D03*
X180000Y400000D02*
D03*
X160000Y360000D02*
D03*
X180000Y320000D02*
D03*
X160000Y280000D02*
D03*
X180000Y240000D02*
D03*
X160000Y200000D02*
D03*
X180000Y160000D02*
D03*
X160000Y120000D02*
D03*
Y40000D02*
D03*
X120000Y520000D02*
D03*
X140000Y480000D02*
D03*
X120000Y440000D02*
D03*
X140000Y400000D02*
D03*
X120000Y360000D02*
D03*
X140000Y320000D02*
D03*
X120000Y280000D02*
D03*
X140000Y240000D02*
D03*
X120000Y200000D02*
D03*
X140000Y160000D02*
D03*
X120000Y120000D02*
D03*
X140000Y80000D02*
D03*
X120000Y40000D02*
D03*
X100000Y480000D02*
D03*
X80000Y440000D02*
D03*
X100000Y400000D02*
D03*
X80000Y360000D02*
D03*
X100000Y320000D02*
D03*
X80000Y280000D02*
D03*
X100000Y240000D02*
D03*
X80000Y200000D02*
D03*
X100000Y160000D02*
D03*
X80000Y120000D02*
D03*
X100000Y80000D02*
D03*
X40000Y440000D02*
D03*
X60000Y400000D02*
D03*
X40000Y360000D02*
D03*
X60000Y320000D02*
D03*
X40000Y280000D02*
D03*
X60000Y240000D02*
D03*
X40000Y200000D02*
D03*
X60000Y160000D02*
D03*
X40000Y120000D02*
D03*
X1329870Y224790D02*
D03*
X1234440Y238410D02*
D03*
X1336040Y135890D02*
D03*
X1394180Y190220D02*
D03*
X1381400Y373740D02*
D03*
M02*
