G04*
G04 #@! TF.GenerationSoftware,Altium Limited,Altium Designer,24.3.1 (35)*
G04*
G04 Layer_Color=16711935*
%FSLAX44Y44*%
%MOMM*%
G71*
G04*
G04 #@! TF.SameCoordinates,C3A98564-D86C-46C7-A890-955D0AD343B8*
G04*
G04*
G04 #@! TF.FilePolarity,Negative*
G04*
G01*
G75*
%ADD26R,1.1032X1.5032*%
%ADD27R,1.5032X1.1032*%
%ADD28R,1.3532X1.5532*%
%ADD29R,1.5532X1.3532*%
%ADD32C,7.2032*%
%ADD33C,2.0782*%
%ADD34C,8.2032*%
%ADD35C,0.8782*%
%ADD36C,0.9032*%
%ADD37C,0.7032*%
D26*
X1351940Y88900D02*
D03*
X1370940D02*
D03*
X1353210Y228600D02*
D03*
X1372210D02*
D03*
X1352600Y157480D02*
D03*
X1371600D02*
D03*
X1353210Y190500D02*
D03*
X1372210D02*
D03*
D27*
X1371600Y266090D02*
D03*
Y285090D02*
D03*
D28*
X1317900Y209550D02*
D03*
X1336400D02*
D03*
X1401720Y212090D02*
D03*
X1420220D02*
D03*
X1400450Y175260D02*
D03*
X1418950D02*
D03*
X1413870Y246380D02*
D03*
X1395370D02*
D03*
X1328060Y127000D02*
D03*
X1346560D02*
D03*
X1400450Y137160D02*
D03*
X1418950D02*
D03*
X1402990Y101600D02*
D03*
X1421490D02*
D03*
X1383940Y64770D02*
D03*
X1402440D02*
D03*
X1419500Y281940D02*
D03*
X1438000D02*
D03*
D29*
X868680Y498560D02*
D03*
Y480060D02*
D03*
X906780Y484230D02*
D03*
Y465730D02*
D03*
X1399540Y317860D02*
D03*
Y299360D02*
D03*
D32*
X800000Y500000D02*
D03*
Y50000D02*
D03*
X200000Y500000D02*
D03*
Y50000D02*
D03*
D33*
X1175620Y56500D02*
D03*
X970280Y439420D02*
D03*
X1494790Y437820D02*
D03*
X1469790D02*
D03*
Y412820D02*
D03*
Y387820D02*
D03*
Y362820D02*
D03*
Y337820D02*
D03*
Y312820D02*
D03*
X1494790Y412820D02*
D03*
Y387820D02*
D03*
Y362820D02*
D03*
Y337820D02*
D03*
Y312820D02*
D03*
X1467250Y258280D02*
D03*
Y233280D02*
D03*
Y208280D02*
D03*
Y183280D02*
D03*
Y158280D02*
D03*
Y133280D02*
D03*
X1492250Y258280D02*
D03*
Y233280D02*
D03*
Y208280D02*
D03*
Y183280D02*
D03*
Y158280D02*
D03*
Y133280D02*
D03*
X1125620Y56500D02*
D03*
X1150620D02*
D03*
X1200620D02*
D03*
X1225620D02*
D03*
X1250620D02*
D03*
X1125620Y81500D02*
D03*
X1150620D02*
D03*
X1175620D02*
D03*
X1200620D02*
D03*
X1225620D02*
D03*
X1250620D02*
D03*
X995280Y389420D02*
D03*
Y414420D02*
D03*
Y439420D02*
D03*
Y464420D02*
D03*
Y489420D02*
D03*
Y514420D02*
D03*
X970280Y389420D02*
D03*
Y414420D02*
D03*
Y464420D02*
D03*
Y489420D02*
D03*
Y514420D02*
D03*
D34*
X1500000Y500000D02*
D03*
X50000D02*
D03*
X1500000Y50000D02*
D03*
X50000D02*
D03*
D35*
X1508190Y375320D02*
D03*
X1505650Y195780D02*
D03*
X1188120Y94900D02*
D03*
X956880Y451920D02*
D03*
D36*
X403860Y59690D02*
D03*
X1400810Y394970D02*
D03*
X1278890Y448670D02*
D03*
X464820Y401320D02*
D03*
X697230Y298450D02*
D03*
X379730Y226520D02*
D03*
X380892Y238279D02*
D03*
X417700Y244980D02*
D03*
X420370Y232410D02*
D03*
X598170Y250840D02*
D03*
X394934Y230916D02*
D03*
X824436Y93980D02*
D03*
X350520Y217170D02*
D03*
X642620Y274320D02*
D03*
X690880Y317500D02*
D03*
X826770Y337820D02*
D03*
X1291590Y396240D02*
D03*
X1305560Y365760D02*
D03*
X642620Y260350D02*
D03*
X342900Y170180D02*
D03*
X341630Y184150D02*
D03*
X494030Y396240D02*
D03*
X481330Y361950D02*
D03*
X220000Y480000D02*
D03*
X172500Y500000D02*
D03*
X227500D02*
D03*
X180000Y520000D02*
D03*
X220000D02*
D03*
X200000Y527500D02*
D03*
Y472500D02*
D03*
X180000Y480000D02*
D03*
X800000Y472500D02*
D03*
X780000Y480000D02*
D03*
X820000D02*
D03*
X772500Y500000D02*
D03*
X827500D02*
D03*
X780000Y520000D02*
D03*
X820000D02*
D03*
X800000Y527500D02*
D03*
X772500Y50000D02*
D03*
X780000Y30000D02*
D03*
Y70000D02*
D03*
X800000Y77500D02*
D03*
Y22500D02*
D03*
X820000Y30000D02*
D03*
Y70000D02*
D03*
X827500Y50000D02*
D03*
X172500D02*
D03*
X200000Y22500D02*
D03*
X180000Y30000D02*
D03*
X220000D02*
D03*
X227500Y50000D02*
D03*
X180000Y70000D02*
D03*
X220000D02*
D03*
X200000Y77500D02*
D03*
X1480000Y520000D02*
D03*
X1472500Y500000D02*
D03*
X1500000Y472500D02*
D03*
X1480000Y480000D02*
D03*
X1520000D02*
D03*
X1527500Y500000D02*
D03*
X1520000Y520000D02*
D03*
X1500000Y527500D02*
D03*
X30000Y480000D02*
D03*
X22500Y500000D02*
D03*
X77500D02*
D03*
X30000Y520000D02*
D03*
X70000D02*
D03*
X50000Y527500D02*
D03*
Y472500D02*
D03*
X70000Y480000D02*
D03*
X1500000Y22500D02*
D03*
X1480000Y30000D02*
D03*
X1520000D02*
D03*
X1527500Y50000D02*
D03*
X1480000Y70000D02*
D03*
X1520000D02*
D03*
X1500000Y77500D02*
D03*
X1472500Y50000D02*
D03*
X30000Y30000D02*
D03*
X77500Y50000D02*
D03*
X70000Y30000D02*
D03*
X50000Y22500D02*
D03*
X22500Y50000D02*
D03*
X50000Y77500D02*
D03*
X30000Y70000D02*
D03*
X70000D02*
D03*
D37*
X1540000Y480000D02*
D03*
X1520000Y440000D02*
D03*
X1540000Y400000D02*
D03*
X1520000Y360000D02*
D03*
X1540000Y320000D02*
D03*
X1520000Y280000D02*
D03*
X1540000Y240000D02*
D03*
X1520000Y200000D02*
D03*
X1540000Y160000D02*
D03*
X1520000Y120000D02*
D03*
X1540000Y80000D02*
D03*
X1480000Y200000D02*
D03*
X1440000Y520000D02*
D03*
X1460000Y480000D02*
D03*
X1440000Y440000D02*
D03*
Y200000D02*
D03*
X1460000Y80000D02*
D03*
X1440000Y40000D02*
D03*
X1400000Y520000D02*
D03*
X1420000Y480000D02*
D03*
Y80000D02*
D03*
X1400000Y40000D02*
D03*
X1360000Y520000D02*
D03*
X1380000Y480000D02*
D03*
Y80000D02*
D03*
X1360000Y40000D02*
D03*
X1320000Y520000D02*
D03*
X1340000Y480000D02*
D03*
X1320000Y360000D02*
D03*
X1340000Y80000D02*
D03*
X1280000Y520000D02*
D03*
X1300000Y480000D02*
D03*
Y320000D02*
D03*
Y240000D02*
D03*
X1280000Y120000D02*
D03*
X1240000Y520000D02*
D03*
X1260000Y480000D02*
D03*
X1240000Y440000D02*
D03*
X1260000Y320000D02*
D03*
X1240000Y120000D02*
D03*
X1200000Y520000D02*
D03*
X1220000Y480000D02*
D03*
X1200000Y440000D02*
D03*
X1220000Y400000D02*
D03*
Y320000D02*
D03*
X1200000Y40000D02*
D03*
X1160000Y520000D02*
D03*
X1180000Y480000D02*
D03*
X1160000Y440000D02*
D03*
X1180000Y400000D02*
D03*
X1160000Y200000D02*
D03*
Y120000D02*
D03*
Y40000D02*
D03*
X1120000Y520000D02*
D03*
X1140000Y480000D02*
D03*
X1120000Y440000D02*
D03*
X1140000Y400000D02*
D03*
Y320000D02*
D03*
X1120000Y200000D02*
D03*
Y40000D02*
D03*
X1080000Y520000D02*
D03*
X1100000Y480000D02*
D03*
X1080000Y440000D02*
D03*
X1100000Y400000D02*
D03*
Y320000D02*
D03*
X1080000Y200000D02*
D03*
Y120000D02*
D03*
X1100000Y80000D02*
D03*
X1080000Y40000D02*
D03*
X1040000Y520000D02*
D03*
Y440000D02*
D03*
X1060000Y400000D02*
D03*
Y320000D02*
D03*
X1040000Y200000D02*
D03*
Y120000D02*
D03*
X1060000Y80000D02*
D03*
X1040000Y40000D02*
D03*
X1020000Y480000D02*
D03*
Y400000D02*
D03*
Y320000D02*
D03*
Y80000D02*
D03*
X1000000Y40000D02*
D03*
X980000Y320000D02*
D03*
X960000Y200000D02*
D03*
Y120000D02*
D03*
X980000Y80000D02*
D03*
X960000Y40000D02*
D03*
X920000Y440000D02*
D03*
X940000Y320000D02*
D03*
X920000Y200000D02*
D03*
X940000Y80000D02*
D03*
X920000Y40000D02*
D03*
X880000Y520000D02*
D03*
Y440000D02*
D03*
X900000Y320000D02*
D03*
X880000Y200000D02*
D03*
X900000Y160000D02*
D03*
Y80000D02*
D03*
X880000Y40000D02*
D03*
X840000Y520000D02*
D03*
X860000Y320000D02*
D03*
X840000Y200000D02*
D03*
X860000Y160000D02*
D03*
Y80000D02*
D03*
X840000Y40000D02*
D03*
X800000Y440000D02*
D03*
X820000Y320000D02*
D03*
X800000Y200000D02*
D03*
X820000Y160000D02*
D03*
X760000Y520000D02*
D03*
Y440000D02*
D03*
X780000Y320000D02*
D03*
X760000Y200000D02*
D03*
X780000Y160000D02*
D03*
X760000Y40000D02*
D03*
X720000Y520000D02*
D03*
X740000Y480000D02*
D03*
X720000Y440000D02*
D03*
X740000Y320000D02*
D03*
X720000Y200000D02*
D03*
X740000Y160000D02*
D03*
Y80000D02*
D03*
X720000Y40000D02*
D03*
X700000Y480000D02*
D03*
X680000Y440000D02*
D03*
X700000Y320000D02*
D03*
X680000Y200000D02*
D03*
X700000Y160000D02*
D03*
Y80000D02*
D03*
X680000Y40000D02*
D03*
X640000Y520000D02*
D03*
X660000Y480000D02*
D03*
X640000Y440000D02*
D03*
Y200000D02*
D03*
X660000Y160000D02*
D03*
Y80000D02*
D03*
X640000Y40000D02*
D03*
X600000Y520000D02*
D03*
X620000Y480000D02*
D03*
X600000Y280000D02*
D03*
Y200000D02*
D03*
X620000Y160000D02*
D03*
Y80000D02*
D03*
X600000Y40000D02*
D03*
X560000Y520000D02*
D03*
X580000Y480000D02*
D03*
X560000Y440000D02*
D03*
Y280000D02*
D03*
Y200000D02*
D03*
X580000Y160000D02*
D03*
Y80000D02*
D03*
X560000Y40000D02*
D03*
X520000Y520000D02*
D03*
X540000Y480000D02*
D03*
X520000Y440000D02*
D03*
X540000Y320000D02*
D03*
X520000Y280000D02*
D03*
Y200000D02*
D03*
X540000Y160000D02*
D03*
Y80000D02*
D03*
X520000Y40000D02*
D03*
X480000Y520000D02*
D03*
X500000Y480000D02*
D03*
X480000Y440000D02*
D03*
X500000Y320000D02*
D03*
X480000Y280000D02*
D03*
Y200000D02*
D03*
X500000Y160000D02*
D03*
Y80000D02*
D03*
X480000Y40000D02*
D03*
X440000Y520000D02*
D03*
X460000Y480000D02*
D03*
X440000Y440000D02*
D03*
Y360000D02*
D03*
X460000Y320000D02*
D03*
X440000Y280000D02*
D03*
Y200000D02*
D03*
X460000Y80000D02*
D03*
X440000Y40000D02*
D03*
X400000Y520000D02*
D03*
X420000Y480000D02*
D03*
X400000Y440000D02*
D03*
X420000Y400000D02*
D03*
X400000Y360000D02*
D03*
X420000Y160000D02*
D03*
X400000Y120000D02*
D03*
X420000Y80000D02*
D03*
X400000Y40000D02*
D03*
X360000Y520000D02*
D03*
X380000Y480000D02*
D03*
X360000Y440000D02*
D03*
X380000Y400000D02*
D03*
X360000Y360000D02*
D03*
X380000Y320000D02*
D03*
Y160000D02*
D03*
X360000Y120000D02*
D03*
X380000Y80000D02*
D03*
X360000Y40000D02*
D03*
X320000Y520000D02*
D03*
X340000Y480000D02*
D03*
X320000Y440000D02*
D03*
X340000Y400000D02*
D03*
X320000Y360000D02*
D03*
X340000Y320000D02*
D03*
Y160000D02*
D03*
X320000Y120000D02*
D03*
X340000Y80000D02*
D03*
X320000Y40000D02*
D03*
X280000Y520000D02*
D03*
X300000Y480000D02*
D03*
X280000Y440000D02*
D03*
X300000Y400000D02*
D03*
X280000Y360000D02*
D03*
X300000Y320000D02*
D03*
X280000Y280000D02*
D03*
X300000Y240000D02*
D03*
X280000Y200000D02*
D03*
X300000Y160000D02*
D03*
X280000Y120000D02*
D03*
X300000Y80000D02*
D03*
X280000Y40000D02*
D03*
X240000Y520000D02*
D03*
X260000Y480000D02*
D03*
X240000Y440000D02*
D03*
X260000Y400000D02*
D03*
X240000Y360000D02*
D03*
X260000Y320000D02*
D03*
X240000Y280000D02*
D03*
X260000Y240000D02*
D03*
X240000Y200000D02*
D03*
X260000Y160000D02*
D03*
X240000Y120000D02*
D03*
X260000Y80000D02*
D03*
X240000Y40000D02*
D03*
X200000Y440000D02*
D03*
X220000Y400000D02*
D03*
X200000Y360000D02*
D03*
X220000Y320000D02*
D03*
X200000Y280000D02*
D03*
X220000Y240000D02*
D03*
X200000Y200000D02*
D03*
X220000Y160000D02*
D03*
X200000Y120000D02*
D03*
X160000Y520000D02*
D03*
Y440000D02*
D03*
X180000Y400000D02*
D03*
X160000Y360000D02*
D03*
X180000Y320000D02*
D03*
X160000Y280000D02*
D03*
X180000Y240000D02*
D03*
X160000Y200000D02*
D03*
X180000Y160000D02*
D03*
X160000Y120000D02*
D03*
Y40000D02*
D03*
X120000Y520000D02*
D03*
X140000Y480000D02*
D03*
X120000Y440000D02*
D03*
X140000Y400000D02*
D03*
X120000Y360000D02*
D03*
X140000Y320000D02*
D03*
X120000Y280000D02*
D03*
X140000Y240000D02*
D03*
X120000Y200000D02*
D03*
X140000Y160000D02*
D03*
X120000Y120000D02*
D03*
X140000Y80000D02*
D03*
X120000Y40000D02*
D03*
X100000Y480000D02*
D03*
X80000Y440000D02*
D03*
X100000Y400000D02*
D03*
X80000Y360000D02*
D03*
X100000Y320000D02*
D03*
X80000Y280000D02*
D03*
X100000Y240000D02*
D03*
X80000Y200000D02*
D03*
X100000Y160000D02*
D03*
X80000Y120000D02*
D03*
X100000Y80000D02*
D03*
X40000Y440000D02*
D03*
X60000Y400000D02*
D03*
X40000Y360000D02*
D03*
X60000Y320000D02*
D03*
X40000Y280000D02*
D03*
X60000Y240000D02*
D03*
X40000Y200000D02*
D03*
X60000Y160000D02*
D03*
X40000Y120000D02*
D03*
X1329870Y224790D02*
D03*
X1234440Y238410D02*
D03*
X1336040Y135890D02*
D03*
X1394180Y190220D02*
D03*
X1381400Y373740D02*
D03*
M02*
