G04*
G04 #@! TF.GenerationSoftware,Altium Limited,Altium Designer,24.3.1 (35)*
G04*
G04 Layer_Color=32896*
%FSLAX44Y44*%
%MOMM*%
G71*
G04*
G04 #@! TF.SameCoordinates,C3A98564-D86C-46C7-A890-955D0AD343B8*
G04*
G04*
G04 #@! TF.FilePolarity,Positive*
G04*
G01*
G75*
%ADD13C,0.2000*%
G36*
X873704Y522100D02*
X873871Y522044D01*
X873926Y522007D01*
X873982Y521970D01*
X874019Y521952D01*
X874037D01*
X875667Y520970D01*
X875741Y520915D01*
X875796Y520859D01*
X875852Y520730D01*
X875889Y520637D01*
Y520619D01*
Y520600D01*
Y519674D01*
X875871Y519582D01*
X875834Y519526D01*
X875796Y519489D01*
X875630D01*
X875593Y519508D01*
X875574D01*
X873871Y520508D01*
Y512323D01*
X873852Y512231D01*
X873834Y512175D01*
X873723Y512101D01*
X873630Y512064D01*
X872575D01*
X872501Y512082D01*
X872426Y512101D01*
X872371Y512194D01*
X872334Y512286D01*
Y512305D01*
Y512323D01*
Y521859D01*
X872352Y521952D01*
X872371Y522007D01*
X872464Y522081D01*
X872556Y522118D01*
X873537D01*
X873704Y522100D01*
D02*
G37*
G36*
X860298D02*
X860465Y522044D01*
X860520Y522007D01*
X860576Y521970D01*
X860613Y521952D01*
X860631D01*
X862261Y520970D01*
X862335Y520915D01*
X862390Y520859D01*
X862446Y520730D01*
X862483Y520637D01*
Y520619D01*
Y520600D01*
Y519674D01*
X862465Y519582D01*
X862428Y519526D01*
X862390Y519489D01*
X862224D01*
X862187Y519508D01*
X862168D01*
X860465Y520508D01*
Y512323D01*
X860446Y512231D01*
X860428Y512175D01*
X860317Y512101D01*
X860224Y512064D01*
X859168D01*
X859094Y512082D01*
X859020Y512101D01*
X858965Y512194D01*
X858928Y512286D01*
Y512305D01*
Y512323D01*
Y521859D01*
X858946Y521952D01*
X858965Y522007D01*
X859057Y522081D01*
X859150Y522118D01*
X860131D01*
X860298Y522100D01*
D02*
G37*
G36*
X883499D02*
X883573Y522081D01*
X883611Y522044D01*
X883648Y521989D01*
X883684Y521896D01*
Y521878D01*
Y521859D01*
Y512323D01*
X883666Y512231D01*
X883648Y512175D01*
X883536Y512101D01*
X883444Y512064D01*
X882425D01*
X882333Y512082D01*
X882277Y512101D01*
X882203Y512194D01*
X882166Y512286D01*
Y512305D01*
Y512323D01*
Y515767D01*
X882129Y515860D01*
X882074Y515897D01*
X882018Y515915D01*
X880389D01*
X878722Y512323D01*
X878667Y512231D01*
X878593Y512175D01*
X878426Y512101D01*
X878352Y512082D01*
X878278Y512064D01*
X877259D01*
X877148Y512082D01*
X877074Y512119D01*
X877037Y512157D01*
X877019Y512212D01*
X877037Y512323D01*
X877056Y512342D01*
Y512360D01*
X878796Y516027D01*
Y516101D01*
X878537Y516212D01*
X878296Y516323D01*
X878092Y516489D01*
X877926Y516656D01*
X877778Y516823D01*
X877667Y517026D01*
X877555Y517212D01*
X877482Y517397D01*
X877370Y517767D01*
X877333Y517934D01*
X877315Y518063D01*
Y518193D01*
X877296Y518286D01*
Y518341D01*
Y518360D01*
Y519693D01*
X877333Y520100D01*
X877407Y520452D01*
X877500Y520748D01*
X877630Y521007D01*
X877759Y521211D01*
X877852Y521359D01*
X877926Y521433D01*
X877963Y521470D01*
X878222Y521693D01*
X878518Y521841D01*
X878815Y521952D01*
X879092Y522044D01*
X879352Y522081D01*
X879555Y522100D01*
X879629Y522118D01*
X883407D01*
X883499Y522100D01*
D02*
G37*
G36*
X868242D02*
X868612Y522026D01*
X868927Y521915D01*
X869186Y521804D01*
X869390Y521693D01*
X869538Y521581D01*
X869612Y521507D01*
X869649Y521489D01*
X869853Y521230D01*
X870019Y520952D01*
X870130Y520637D01*
X870204Y520359D01*
X870241Y520100D01*
X870260Y519878D01*
X870278Y519804D01*
Y519748D01*
Y519711D01*
Y519693D01*
Y514490D01*
X870260Y514082D01*
X870186Y513731D01*
X870075Y513416D01*
X869964Y513157D01*
X869853Y512953D01*
X869742Y512805D01*
X869668Y512731D01*
X869649Y512694D01*
X869390Y512490D01*
X869093Y512323D01*
X868797Y512212D01*
X868501Y512138D01*
X868242Y512101D01*
X868019Y512082D01*
X867945Y512064D01*
X866279D01*
X865872Y512082D01*
X865520Y512157D01*
X865205Y512268D01*
X864964Y512379D01*
X864761Y512490D01*
X864612Y512601D01*
X864538Y512675D01*
X864501Y512694D01*
X864279Y512953D01*
X864131Y513249D01*
X864020Y513545D01*
X863927Y513842D01*
X863890Y514101D01*
X863872Y514305D01*
X863853Y514379D01*
Y514434D01*
Y514471D01*
Y514490D01*
Y519693D01*
X863872Y520100D01*
X863946Y520471D01*
X864057Y520767D01*
X864168Y521026D01*
X864298Y521230D01*
X864390Y521378D01*
X864464Y521452D01*
X864501Y521489D01*
X864761Y521693D01*
X865038Y521859D01*
X865335Y521970D01*
X865631Y522044D01*
X865890Y522081D01*
X866094Y522118D01*
X867834D01*
X868242Y522100D01*
D02*
G37*
G36*
X914598Y507876D02*
X914765Y507820D01*
X914820Y507783D01*
X914876Y507746D01*
X914913Y507728D01*
X914931D01*
X916561Y506746D01*
X916635Y506691D01*
X916690Y506635D01*
X916746Y506506D01*
X916783Y506413D01*
Y506395D01*
Y506376D01*
Y505450D01*
X916765Y505358D01*
X916728Y505302D01*
X916690Y505265D01*
X916524D01*
X916487Y505284D01*
X916468D01*
X914765Y506284D01*
Y498099D01*
X914746Y498007D01*
X914728Y497951D01*
X914617Y497877D01*
X914524Y497840D01*
X913469D01*
X913394Y497859D01*
X913320Y497877D01*
X913265Y497970D01*
X913228Y498062D01*
Y498081D01*
Y498099D01*
Y507635D01*
X913246Y507728D01*
X913265Y507783D01*
X913357Y507858D01*
X913450Y507895D01*
X914431D01*
X914598Y507876D01*
D02*
G37*
G36*
X901025D02*
X901396Y507802D01*
X901711Y507691D01*
X901970Y507580D01*
X902173Y507469D01*
X902322Y507357D01*
X902396Y507284D01*
X902433Y507265D01*
X902636Y507006D01*
X902803Y506728D01*
X902914Y506432D01*
X902988Y506154D01*
X903025Y505895D01*
X903044Y505691D01*
X903062Y505617D01*
Y505561D01*
Y505524D01*
Y505506D01*
Y504895D01*
X903044Y504802D01*
X903025Y504728D01*
X902988Y504691D01*
X902933Y504654D01*
X902840Y504617D01*
X901785D01*
X901692Y504636D01*
X901636Y504654D01*
X901562Y504765D01*
X901525Y504858D01*
Y504876D01*
Y504895D01*
Y505469D01*
X901507Y505691D01*
X901488Y505858D01*
X901451Y506006D01*
X901396Y506135D01*
X901340Y506228D01*
X901303Y506284D01*
X901285Y506321D01*
X901266Y506339D01*
X901155Y506432D01*
X901007Y506487D01*
X900729Y506561D01*
X900600Y506580D01*
X900488Y506598D01*
X899637D01*
X899433Y506580D01*
X899248Y506543D01*
X899081Y506487D01*
X898951Y506432D01*
X898840Y506339D01*
X898748Y506246D01*
X898600Y506043D01*
X898507Y505821D01*
X898470Y505654D01*
X898452Y505580D01*
Y505524D01*
Y505487D01*
Y505469D01*
Y504950D01*
X898489Y504673D01*
X898563Y504413D01*
X898692Y504173D01*
X898822Y503969D01*
X898970Y503802D01*
X899100Y503691D01*
X899174Y503599D01*
X899211Y503580D01*
X902173Y501173D01*
X902322Y501043D01*
X902451Y500914D01*
X902655Y500636D01*
X902803Y500358D01*
X902896Y500117D01*
X902970Y499877D01*
X902988Y499710D01*
X903007Y499636D01*
Y499581D01*
Y499562D01*
Y499543D01*
Y498099D01*
X902988Y498007D01*
X902951Y497951D01*
X902859Y497877D01*
X902747Y497840D01*
X897211D01*
X897118Y497859D01*
X897044Y497877D01*
X897007Y497914D01*
X896970Y497970D01*
X896933Y498062D01*
Y498081D01*
Y498099D01*
Y498932D01*
X896952Y499025D01*
X896970Y499081D01*
X897063Y499155D01*
X897174Y499192D01*
X901285D01*
Y499692D01*
X901266Y499840D01*
X901229Y499969D01*
X901173Y500099D01*
X901099Y500192D01*
X901044Y500284D01*
X900988Y500340D01*
X900951Y500377D01*
X900933Y500395D01*
X897915Y502858D01*
X897748Y503006D01*
X897600Y503173D01*
X897470Y503339D01*
X897359Y503506D01*
X897193Y503839D01*
X897081Y504154D01*
X897026Y504432D01*
X897007Y504543D01*
X896989Y504654D01*
X896970Y504747D01*
Y504802D01*
Y504839D01*
Y504858D01*
Y505506D01*
X896989Y505913D01*
X897063Y506265D01*
X897174Y506561D01*
X897285Y506821D01*
X897415Y507006D01*
X897507Y507154D01*
X897581Y507228D01*
X897618Y507265D01*
X897878Y507469D01*
X898155Y507635D01*
X898452Y507746D01*
X898748Y507820D01*
X899007Y507858D01*
X899211Y507895D01*
X900618D01*
X901025Y507876D01*
D02*
G37*
G36*
X924393D02*
X924467Y507858D01*
X924504Y507820D01*
X924541Y507765D01*
X924578Y507672D01*
Y507654D01*
Y507635D01*
Y498099D01*
X924560Y498007D01*
X924541Y497951D01*
X924430Y497877D01*
X924338Y497840D01*
X923319D01*
X923227Y497859D01*
X923171Y497877D01*
X923097Y497970D01*
X923060Y498062D01*
Y498081D01*
Y498099D01*
Y501543D01*
X923023Y501636D01*
X922968Y501673D01*
X922912Y501692D01*
X921283D01*
X919616Y498099D01*
X919560Y498007D01*
X919486Y497951D01*
X919320Y497877D01*
X919246Y497859D01*
X919172Y497840D01*
X918153D01*
X918042Y497859D01*
X917968Y497896D01*
X917931Y497933D01*
X917913Y497988D01*
X917931Y498099D01*
X917950Y498118D01*
Y498136D01*
X919690Y501803D01*
Y501877D01*
X919431Y501988D01*
X919190Y502099D01*
X918987Y502266D01*
X918820Y502432D01*
X918672Y502599D01*
X918561Y502802D01*
X918449Y502988D01*
X918375Y503173D01*
X918264Y503543D01*
X918227Y503710D01*
X918209Y503839D01*
Y503969D01*
X918190Y504062D01*
Y504117D01*
Y504136D01*
Y505469D01*
X918227Y505876D01*
X918301Y506228D01*
X918394Y506524D01*
X918524Y506783D01*
X918653Y506987D01*
X918746Y507135D01*
X918820Y507209D01*
X918857Y507246D01*
X919116Y507469D01*
X919412Y507617D01*
X919709Y507728D01*
X919986Y507820D01*
X920246Y507858D01*
X920449Y507876D01*
X920523Y507895D01*
X924301D01*
X924393Y507876D01*
D02*
G37*
G36*
X909136D02*
X909506Y507802D01*
X909821Y507691D01*
X910080Y507580D01*
X910284Y507469D01*
X910432Y507357D01*
X910506Y507284D01*
X910543Y507265D01*
X910747Y507006D01*
X910913Y506728D01*
X911024Y506413D01*
X911098Y506135D01*
X911135Y505876D01*
X911154Y505654D01*
X911172Y505580D01*
Y505524D01*
Y505487D01*
Y505469D01*
Y500266D01*
X911154Y499858D01*
X911080Y499506D01*
X910969Y499192D01*
X910858Y498932D01*
X910747Y498729D01*
X910636Y498581D01*
X910562Y498507D01*
X910543Y498470D01*
X910284Y498266D01*
X909987Y498099D01*
X909691Y497988D01*
X909395Y497914D01*
X909136Y497877D01*
X908913Y497859D01*
X908839Y497840D01*
X907173D01*
X906766Y497859D01*
X906414Y497933D01*
X906099Y498044D01*
X905858Y498155D01*
X905655Y498266D01*
X905506Y498377D01*
X905432Y498451D01*
X905395Y498470D01*
X905173Y498729D01*
X905025Y499025D01*
X904914Y499321D01*
X904821Y499618D01*
X904784Y499877D01*
X904766Y500080D01*
X904747Y500155D01*
Y500210D01*
Y500247D01*
Y500266D01*
Y505469D01*
X904766Y505876D01*
X904840Y506246D01*
X904951Y506543D01*
X905062Y506802D01*
X905192Y507006D01*
X905284Y507154D01*
X905358Y507228D01*
X905395Y507265D01*
X905655Y507469D01*
X905932Y507635D01*
X906229Y507746D01*
X906525Y507820D01*
X906784Y507858D01*
X906988Y507895D01*
X908728D01*
X909136Y507876D01*
D02*
G37*
G36*
X1412420Y306708D02*
X1412587Y306652D01*
X1412643Y306615D01*
X1412698Y306578D01*
X1412735Y306560D01*
X1412754D01*
X1414383Y305578D01*
X1414457Y305523D01*
X1414513Y305467D01*
X1414568Y305338D01*
X1414605Y305245D01*
Y305227D01*
Y305208D01*
Y304282D01*
X1414587Y304190D01*
X1414550Y304134D01*
X1414513Y304097D01*
X1414346D01*
X1414309Y304116D01*
X1414291D01*
X1412587Y305116D01*
Y296931D01*
X1412569Y296839D01*
X1412550Y296783D01*
X1412439Y296709D01*
X1412346Y296672D01*
X1411291D01*
X1411217Y296691D01*
X1411143Y296709D01*
X1411087Y296802D01*
X1411050Y296894D01*
Y296913D01*
Y296931D01*
Y306467D01*
X1411069Y306560D01*
X1411087Y306615D01*
X1411180Y306689D01*
X1411272Y306726D01*
X1412254D01*
X1412420Y306708D01*
D02*
G37*
G36*
X1427511D02*
X1427882Y306634D01*
X1428197Y306523D01*
X1428456Y306412D01*
X1428659Y306301D01*
X1428808Y306189D01*
X1428882Y306115D01*
X1428919Y306097D01*
X1429122Y305838D01*
X1429289Y305560D01*
X1429400Y305264D01*
X1429474Y304986D01*
X1429511Y304727D01*
X1429530Y304523D01*
X1429548Y304449D01*
Y304393D01*
Y304356D01*
Y304338D01*
Y303727D01*
X1429530Y303634D01*
X1429511Y303560D01*
X1429474Y303523D01*
X1429419Y303486D01*
X1429326Y303449D01*
X1428271D01*
X1428178Y303468D01*
X1428123Y303486D01*
X1428048Y303597D01*
X1428011Y303690D01*
Y303708D01*
Y303727D01*
Y304301D01*
X1427993Y304523D01*
X1427974Y304690D01*
X1427937Y304838D01*
X1427882Y304967D01*
X1427826Y305060D01*
X1427789Y305116D01*
X1427771Y305153D01*
X1427752Y305171D01*
X1427641Y305264D01*
X1427493Y305319D01*
X1427215Y305393D01*
X1427086Y305412D01*
X1426974Y305430D01*
X1426123D01*
X1425919Y305412D01*
X1425734Y305375D01*
X1425567Y305319D01*
X1425438Y305264D01*
X1425327Y305171D01*
X1425234Y305079D01*
X1425086Y304875D01*
X1424993Y304653D01*
X1424956Y304486D01*
X1424938Y304412D01*
Y304356D01*
Y304319D01*
Y304301D01*
Y303782D01*
X1424975Y303505D01*
X1425049Y303245D01*
X1425178Y303005D01*
X1425308Y302801D01*
X1425456Y302634D01*
X1425586Y302523D01*
X1425660Y302431D01*
X1425697Y302412D01*
X1428659Y300005D01*
X1428808Y299875D01*
X1428937Y299746D01*
X1429141Y299468D01*
X1429289Y299190D01*
X1429382Y298950D01*
X1429456Y298709D01*
X1429474Y298542D01*
X1429493Y298468D01*
Y298413D01*
Y298394D01*
Y298375D01*
Y296931D01*
X1429474Y296839D01*
X1429437Y296783D01*
X1429345Y296709D01*
X1429234Y296672D01*
X1423697D01*
X1423604Y296691D01*
X1423530Y296709D01*
X1423493Y296746D01*
X1423456Y296802D01*
X1423419Y296894D01*
Y296913D01*
Y296931D01*
Y297764D01*
X1423438Y297857D01*
X1423456Y297913D01*
X1423549Y297987D01*
X1423660Y298024D01*
X1427771D01*
Y298524D01*
X1427752Y298672D01*
X1427715Y298801D01*
X1427660Y298931D01*
X1427585Y299024D01*
X1427530Y299116D01*
X1427474Y299172D01*
X1427437Y299209D01*
X1427419Y299227D01*
X1424401Y301690D01*
X1424234Y301838D01*
X1424086Y302005D01*
X1423956Y302171D01*
X1423845Y302338D01*
X1423678Y302671D01*
X1423567Y302986D01*
X1423512Y303264D01*
X1423493Y303375D01*
X1423475Y303486D01*
X1423456Y303579D01*
Y303634D01*
Y303671D01*
Y303690D01*
Y304338D01*
X1423475Y304745D01*
X1423549Y305097D01*
X1423660Y305393D01*
X1423771Y305653D01*
X1423901Y305838D01*
X1423993Y305986D01*
X1424067Y306060D01*
X1424104Y306097D01*
X1424364Y306301D01*
X1424641Y306467D01*
X1424938Y306578D01*
X1425234Y306652D01*
X1425493Y306689D01*
X1425697Y306726D01*
X1427104D01*
X1427511Y306708D01*
D02*
G37*
G36*
X1419883D02*
X1420253Y306634D01*
X1420568Y306523D01*
X1420827Y306412D01*
X1421031Y306301D01*
X1421179Y306189D01*
X1421253Y306115D01*
X1421290Y306097D01*
X1421494Y305838D01*
X1421660Y305560D01*
X1421771Y305264D01*
X1421845Y304986D01*
X1421882Y304727D01*
X1421901Y304523D01*
X1421919Y304449D01*
Y304393D01*
Y304356D01*
Y304338D01*
Y303727D01*
X1421901Y303634D01*
X1421882Y303560D01*
X1421845Y303523D01*
X1421790Y303486D01*
X1421697Y303449D01*
X1420642D01*
X1420549Y303468D01*
X1420494Y303486D01*
X1420420Y303597D01*
X1420383Y303690D01*
Y303708D01*
Y303727D01*
Y304301D01*
X1420364Y304523D01*
X1420345Y304690D01*
X1420309Y304838D01*
X1420253Y304967D01*
X1420197Y305060D01*
X1420160Y305116D01*
X1420142Y305153D01*
X1420123Y305171D01*
X1420012Y305264D01*
X1419864Y305319D01*
X1419586Y305393D01*
X1419457Y305412D01*
X1419346Y305430D01*
X1418494D01*
X1418290Y305412D01*
X1418105Y305375D01*
X1417938Y305319D01*
X1417809Y305264D01*
X1417698Y305171D01*
X1417605Y305079D01*
X1417457Y304875D01*
X1417364Y304653D01*
X1417327Y304486D01*
X1417309Y304412D01*
Y304356D01*
Y304319D01*
Y304301D01*
Y303782D01*
X1417346Y303505D01*
X1417420Y303245D01*
X1417549Y303005D01*
X1417679Y302801D01*
X1417827Y302634D01*
X1417957Y302523D01*
X1418031Y302431D01*
X1418068Y302412D01*
X1421031Y300005D01*
X1421179Y299875D01*
X1421308Y299746D01*
X1421512Y299468D01*
X1421660Y299190D01*
X1421753Y298950D01*
X1421827Y298709D01*
X1421845Y298542D01*
X1421864Y298468D01*
Y298413D01*
Y298394D01*
Y298375D01*
Y296931D01*
X1421845Y296839D01*
X1421808Y296783D01*
X1421716Y296709D01*
X1421605Y296672D01*
X1416068D01*
X1415976Y296691D01*
X1415901Y296709D01*
X1415865Y296746D01*
X1415827Y296802D01*
X1415790Y296894D01*
Y296913D01*
Y296931D01*
Y297764D01*
X1415809Y297857D01*
X1415827Y297913D01*
X1415920Y297987D01*
X1416031Y298024D01*
X1420142D01*
Y298524D01*
X1420123Y298672D01*
X1420086Y298801D01*
X1420031Y298931D01*
X1419957Y299024D01*
X1419901Y299116D01*
X1419845Y299172D01*
X1419809Y299209D01*
X1419790Y299227D01*
X1416772Y301690D01*
X1416605Y301838D01*
X1416457Y302005D01*
X1416327Y302171D01*
X1416216Y302338D01*
X1416050Y302671D01*
X1415939Y302986D01*
X1415883Y303264D01*
X1415865Y303375D01*
X1415846Y303486D01*
X1415827Y303579D01*
Y303634D01*
Y303671D01*
Y303690D01*
Y304338D01*
X1415846Y304745D01*
X1415920Y305097D01*
X1416031Y305393D01*
X1416142Y305653D01*
X1416272Y305838D01*
X1416364Y305986D01*
X1416438Y306060D01*
X1416476Y306097D01*
X1416735Y306301D01*
X1417012Y306467D01*
X1417309Y306578D01*
X1417605Y306652D01*
X1417864Y306689D01*
X1418068Y306726D01*
X1419475D01*
X1419883Y306708D01*
D02*
G37*
G36*
X1437473D02*
X1437547Y306689D01*
X1437585Y306652D01*
X1437621Y306597D01*
X1437659Y306504D01*
Y306486D01*
Y306467D01*
Y296931D01*
X1437640Y296839D01*
X1437621Y296783D01*
X1437510Y296709D01*
X1437418Y296672D01*
X1436399D01*
X1436307Y296691D01*
X1436251Y296709D01*
X1436177Y296802D01*
X1436140Y296894D01*
Y296913D01*
Y296931D01*
Y300375D01*
X1436103Y300468D01*
X1436048Y300505D01*
X1435992Y300523D01*
X1434363D01*
X1432696Y296931D01*
X1432641Y296839D01*
X1432567Y296783D01*
X1432400Y296709D01*
X1432326Y296691D01*
X1432252Y296672D01*
X1431233D01*
X1431122Y296691D01*
X1431048Y296728D01*
X1431011Y296765D01*
X1430992Y296820D01*
X1431011Y296931D01*
X1431030Y296950D01*
Y296968D01*
X1432770Y300635D01*
Y300709D01*
X1432511Y300820D01*
X1432270Y300931D01*
X1432066Y301098D01*
X1431900Y301264D01*
X1431752Y301431D01*
X1431641Y301634D01*
X1431530Y301820D01*
X1431456Y302005D01*
X1431344Y302375D01*
X1431307Y302542D01*
X1431289Y302671D01*
Y302801D01*
X1431270Y302894D01*
Y302949D01*
Y302968D01*
Y304301D01*
X1431307Y304708D01*
X1431381Y305060D01*
X1431474Y305356D01*
X1431604Y305616D01*
X1431733Y305819D01*
X1431826Y305967D01*
X1431900Y306041D01*
X1431937Y306078D01*
X1432196Y306301D01*
X1432492Y306449D01*
X1432789Y306560D01*
X1433066Y306652D01*
X1433326Y306689D01*
X1433529Y306708D01*
X1433603Y306726D01*
X1437381D01*
X1437473Y306708D01*
D02*
G37*
G36*
X1407445Y271148D02*
X1407816Y271074D01*
X1408130Y270963D01*
X1408390Y270852D01*
X1408593Y270741D01*
X1408742Y270630D01*
X1408816Y270555D01*
X1408853Y270537D01*
X1409056Y270278D01*
X1409223Y270000D01*
X1409334Y269704D01*
X1409408Y269426D01*
X1409445Y269167D01*
X1409464Y268963D01*
X1409482Y268889D01*
Y268833D01*
Y268796D01*
Y268778D01*
Y268167D01*
X1409464Y268074D01*
X1409445Y268000D01*
X1409408Y267963D01*
X1409353Y267926D01*
X1409260Y267889D01*
X1408205D01*
X1408112Y267908D01*
X1408056Y267926D01*
X1407982Y268037D01*
X1407945Y268130D01*
Y268148D01*
Y268167D01*
Y268741D01*
X1407927Y268963D01*
X1407908Y269130D01*
X1407871Y269278D01*
X1407816Y269407D01*
X1407760Y269500D01*
X1407723Y269556D01*
X1407705Y269593D01*
X1407686Y269611D01*
X1407575Y269704D01*
X1407427Y269759D01*
X1407149Y269833D01*
X1407020Y269852D01*
X1406908Y269870D01*
X1406057D01*
X1405853Y269852D01*
X1405668Y269815D01*
X1405501Y269759D01*
X1405372Y269704D01*
X1405260Y269611D01*
X1405168Y269519D01*
X1405020Y269315D01*
X1404927Y269093D01*
X1404890Y268926D01*
X1404872Y268852D01*
Y268796D01*
Y268759D01*
Y268741D01*
Y268222D01*
X1404909Y267945D01*
X1404983Y267685D01*
X1405112Y267445D01*
X1405242Y267241D01*
X1405390Y267074D01*
X1405520Y266963D01*
X1405594Y266871D01*
X1405631Y266852D01*
X1408593Y264445D01*
X1408742Y264315D01*
X1408871Y264186D01*
X1409075Y263908D01*
X1409223Y263630D01*
X1409316Y263389D01*
X1409390Y263149D01*
X1409408Y262982D01*
X1409427Y262908D01*
Y262853D01*
Y262834D01*
Y262815D01*
Y261371D01*
X1409408Y261279D01*
X1409371Y261223D01*
X1409279Y261149D01*
X1409167Y261112D01*
X1403631D01*
X1403538Y261131D01*
X1403464Y261149D01*
X1403427Y261186D01*
X1403390Y261242D01*
X1403353Y261334D01*
Y261353D01*
Y261371D01*
Y262204D01*
X1403372Y262297D01*
X1403390Y262353D01*
X1403483Y262427D01*
X1403594Y262464D01*
X1407705D01*
Y262964D01*
X1407686Y263112D01*
X1407649Y263241D01*
X1407594Y263371D01*
X1407520Y263464D01*
X1407464Y263556D01*
X1407408Y263612D01*
X1407371Y263649D01*
X1407353Y263667D01*
X1404335Y266130D01*
X1404168Y266278D01*
X1404020Y266445D01*
X1403890Y266611D01*
X1403779Y266778D01*
X1403613Y267111D01*
X1403501Y267426D01*
X1403446Y267704D01*
X1403427Y267815D01*
X1403409Y267926D01*
X1403390Y268019D01*
Y268074D01*
Y268111D01*
Y268130D01*
Y268778D01*
X1403409Y269185D01*
X1403483Y269537D01*
X1403594Y269833D01*
X1403705Y270093D01*
X1403835Y270278D01*
X1403927Y270426D01*
X1404001Y270500D01*
X1404038Y270537D01*
X1404298Y270741D01*
X1404575Y270907D01*
X1404872Y271018D01*
X1405168Y271092D01*
X1405427Y271129D01*
X1405631Y271166D01*
X1407038D01*
X1407445Y271148D01*
D02*
G37*
G36*
X1417407D02*
X1417481Y271129D01*
X1417518Y271092D01*
X1417556Y271037D01*
X1417592Y270944D01*
Y270926D01*
Y270907D01*
Y261371D01*
X1417574Y261279D01*
X1417556Y261223D01*
X1417444Y261149D01*
X1417352Y261112D01*
X1416333D01*
X1416241Y261131D01*
X1416185Y261149D01*
X1416111Y261242D01*
X1416074Y261334D01*
Y261353D01*
Y261371D01*
Y264815D01*
X1416037Y264908D01*
X1415982Y264945D01*
X1415926Y264963D01*
X1414297D01*
X1412630Y261371D01*
X1412574Y261279D01*
X1412500Y261223D01*
X1412334Y261149D01*
X1412260Y261131D01*
X1412186Y261112D01*
X1411167D01*
X1411056Y261131D01*
X1410982Y261168D01*
X1410945Y261205D01*
X1410927Y261260D01*
X1410945Y261371D01*
X1410964Y261390D01*
Y261408D01*
X1412704Y265075D01*
Y265149D01*
X1412445Y265260D01*
X1412204Y265371D01*
X1412000Y265537D01*
X1411834Y265704D01*
X1411686Y265871D01*
X1411575Y266074D01*
X1411463Y266260D01*
X1411389Y266445D01*
X1411278Y266815D01*
X1411241Y266982D01*
X1411223Y267111D01*
Y267241D01*
X1411204Y267334D01*
Y267389D01*
Y267408D01*
Y268741D01*
X1411241Y269148D01*
X1411315Y269500D01*
X1411408Y269796D01*
X1411538Y270056D01*
X1411667Y270259D01*
X1411760Y270407D01*
X1411834Y270481D01*
X1411871Y270518D01*
X1412130Y270741D01*
X1412426Y270889D01*
X1412723Y271000D01*
X1413000Y271092D01*
X1413260Y271129D01*
X1413463Y271148D01*
X1413537Y271166D01*
X1417315D01*
X1417407Y271148D01*
D02*
G37*
G36*
X1399650D02*
X1400020Y271074D01*
X1400335Y270963D01*
X1400594Y270852D01*
X1400798Y270741D01*
X1400946Y270630D01*
X1401020Y270555D01*
X1401057Y270537D01*
X1401261Y270278D01*
X1401427Y270000D01*
X1401539Y269685D01*
X1401613Y269407D01*
X1401650Y269148D01*
X1401668Y268926D01*
X1401687Y268852D01*
Y268796D01*
Y268759D01*
Y268741D01*
Y263538D01*
X1401668Y263130D01*
X1401594Y262778D01*
X1401483Y262464D01*
X1401372Y262204D01*
X1401261Y262001D01*
X1401150Y261853D01*
X1401076Y261779D01*
X1401057Y261742D01*
X1400798Y261538D01*
X1400502Y261371D01*
X1400205Y261260D01*
X1399909Y261186D01*
X1399650Y261149D01*
X1399428Y261131D01*
X1399354Y261112D01*
X1397687D01*
X1397280Y261131D01*
X1396928Y261205D01*
X1396613Y261316D01*
X1396373Y261427D01*
X1396169Y261538D01*
X1396021Y261649D01*
X1395947Y261723D01*
X1395910Y261742D01*
X1395687Y262001D01*
X1395539Y262297D01*
X1395428Y262593D01*
X1395336Y262890D01*
X1395298Y263149D01*
X1395280Y263353D01*
X1395262Y263427D01*
Y263482D01*
Y263519D01*
Y263538D01*
Y268741D01*
X1395280Y269148D01*
X1395354Y269519D01*
X1395465Y269815D01*
X1395576Y270074D01*
X1395706Y270278D01*
X1395798Y270426D01*
X1395872Y270500D01*
X1395910Y270537D01*
X1396169Y270741D01*
X1396447Y270907D01*
X1396743Y271018D01*
X1397039Y271092D01*
X1397298Y271129D01*
X1397502Y271166D01*
X1399243D01*
X1399650Y271148D01*
D02*
G37*
G36*
X1391373D02*
X1391743Y271074D01*
X1392058Y270981D01*
X1392317Y270870D01*
X1392521Y270759D01*
X1392669Y270667D01*
X1392743Y270592D01*
X1392780Y270574D01*
X1392984Y270333D01*
X1393151Y270056D01*
X1393262Y269778D01*
X1393336Y269500D01*
X1393373Y269241D01*
X1393391Y269037D01*
X1393410Y268963D01*
Y268908D01*
Y268871D01*
Y268852D01*
Y268056D01*
X1393391Y267796D01*
X1393354Y267556D01*
X1393317Y267334D01*
X1393243Y267148D01*
X1393169Y266963D01*
X1393076Y266815D01*
X1392965Y266686D01*
X1392873Y266556D01*
X1392669Y266371D01*
X1392502Y266260D01*
X1392428Y266223D01*
X1392373Y266185D01*
X1392354Y266167D01*
X1392336D01*
X1392521Y266074D01*
X1392688Y265963D01*
X1392836Y265834D01*
X1392947Y265686D01*
X1393058Y265537D01*
X1393151Y265371D01*
X1393280Y265056D01*
X1393354Y264760D01*
X1393373Y264630D01*
X1393391Y264519D01*
X1393410Y264408D01*
Y264334D01*
Y264297D01*
Y264278D01*
Y263445D01*
X1393391Y263038D01*
X1393317Y262686D01*
X1393206Y262390D01*
X1393095Y262149D01*
X1392984Y261945D01*
X1392873Y261816D01*
X1392799Y261742D01*
X1392780Y261705D01*
X1392521Y261501D01*
X1392225Y261371D01*
X1391929Y261260D01*
X1391632Y261186D01*
X1391373Y261149D01*
X1391151Y261131D01*
X1391077Y261112D01*
X1389318D01*
X1388910Y261131D01*
X1388540Y261205D01*
X1388244Y261297D01*
X1387984Y261408D01*
X1387781Y261519D01*
X1387633Y261612D01*
X1387559Y261686D01*
X1387522Y261705D01*
X1387318Y261945D01*
X1387151Y262223D01*
X1387040Y262519D01*
X1386966Y262797D01*
X1386929Y263056D01*
X1386892Y263260D01*
Y263334D01*
Y263389D01*
Y263427D01*
Y263445D01*
Y264260D01*
X1386911Y264519D01*
X1386929Y264760D01*
X1386985Y264982D01*
X1387059Y265186D01*
X1387133Y265352D01*
X1387225Y265519D01*
X1387318Y265649D01*
X1387410Y265778D01*
X1387614Y265963D01*
X1387781Y266074D01*
X1387855Y266112D01*
X1387910Y266148D01*
X1387929Y266167D01*
X1387947D01*
X1387781Y266241D01*
X1387633Y266334D01*
X1387503Y266445D01*
X1387392Y266556D01*
X1387299Y266667D01*
X1387244Y266760D01*
X1387207Y266815D01*
X1387188Y266834D01*
X1387096Y267037D01*
X1387022Y267241D01*
X1386966Y267445D01*
X1386929Y267630D01*
X1386911Y267796D01*
X1386892Y267945D01*
Y268019D01*
Y268056D01*
Y268852D01*
X1386911Y269259D01*
X1386985Y269593D01*
X1387096Y269889D01*
X1387207Y270130D01*
X1387318Y270333D01*
X1387429Y270463D01*
X1387503Y270555D01*
X1387522Y270574D01*
X1387781Y270778D01*
X1388058Y270926D01*
X1388373Y271018D01*
X1388651Y271092D01*
X1388910Y271129D01*
X1389133Y271166D01*
X1390966D01*
X1391373Y271148D01*
D02*
G37*
G36*
X1412525Y236858D02*
X1412896Y236784D01*
X1413210Y236673D01*
X1413470Y236562D01*
X1413673Y236451D01*
X1413822Y236339D01*
X1413896Y236266D01*
X1413933Y236247D01*
X1414136Y235988D01*
X1414303Y235710D01*
X1414414Y235414D01*
X1414488Y235136D01*
X1414525Y234877D01*
X1414544Y234673D01*
X1414562Y234599D01*
Y234543D01*
Y234506D01*
Y234488D01*
Y233877D01*
X1414544Y233784D01*
X1414525Y233710D01*
X1414488Y233673D01*
X1414433Y233636D01*
X1414340Y233599D01*
X1413285D01*
X1413192Y233618D01*
X1413136Y233636D01*
X1413062Y233747D01*
X1413025Y233840D01*
Y233858D01*
Y233877D01*
Y234451D01*
X1413007Y234673D01*
X1412988Y234840D01*
X1412951Y234988D01*
X1412896Y235117D01*
X1412840Y235210D01*
X1412803Y235266D01*
X1412785Y235303D01*
X1412766Y235321D01*
X1412655Y235414D01*
X1412507Y235469D01*
X1412229Y235543D01*
X1412099Y235562D01*
X1411988Y235580D01*
X1411137D01*
X1410933Y235562D01*
X1410748Y235525D01*
X1410581Y235469D01*
X1410452Y235414D01*
X1410341Y235321D01*
X1410248Y235229D01*
X1410100Y235025D01*
X1410007Y234803D01*
X1409970Y234636D01*
X1409952Y234562D01*
Y234506D01*
Y234469D01*
Y234451D01*
Y233932D01*
X1409989Y233655D01*
X1410063Y233395D01*
X1410192Y233155D01*
X1410322Y232951D01*
X1410470Y232784D01*
X1410600Y232673D01*
X1410674Y232581D01*
X1410711Y232562D01*
X1413673Y230155D01*
X1413822Y230025D01*
X1413951Y229896D01*
X1414155Y229618D01*
X1414303Y229340D01*
X1414396Y229100D01*
X1414470Y228859D01*
X1414488Y228692D01*
X1414507Y228618D01*
Y228563D01*
Y228544D01*
Y228526D01*
Y227081D01*
X1414488Y226989D01*
X1414451Y226933D01*
X1414359Y226859D01*
X1414247Y226822D01*
X1408711D01*
X1408618Y226840D01*
X1408544Y226859D01*
X1408507Y226896D01*
X1408470Y226952D01*
X1408433Y227044D01*
Y227063D01*
Y227081D01*
Y227915D01*
X1408452Y228007D01*
X1408470Y228063D01*
X1408563Y228137D01*
X1408674Y228174D01*
X1412785D01*
Y228674D01*
X1412766Y228822D01*
X1412729Y228951D01*
X1412674Y229081D01*
X1412599Y229174D01*
X1412544Y229266D01*
X1412488Y229322D01*
X1412451Y229359D01*
X1412433Y229377D01*
X1409415Y231840D01*
X1409248Y231988D01*
X1409100Y232155D01*
X1408970Y232321D01*
X1408859Y232488D01*
X1408692Y232821D01*
X1408581Y233136D01*
X1408526Y233414D01*
X1408507Y233525D01*
X1408489Y233636D01*
X1408470Y233729D01*
Y233784D01*
Y233821D01*
Y233840D01*
Y234488D01*
X1408489Y234895D01*
X1408563Y235247D01*
X1408674Y235543D01*
X1408785Y235803D01*
X1408915Y235988D01*
X1409007Y236136D01*
X1409081Y236210D01*
X1409118Y236247D01*
X1409378Y236451D01*
X1409655Y236617D01*
X1409952Y236728D01*
X1410248Y236802D01*
X1410507Y236840D01*
X1410711Y236877D01*
X1412118D01*
X1412525Y236858D01*
D02*
G37*
G36*
X1422487D02*
X1422561Y236840D01*
X1422599Y236802D01*
X1422635Y236747D01*
X1422672Y236654D01*
Y236636D01*
Y236617D01*
Y227081D01*
X1422654Y226989D01*
X1422635Y226933D01*
X1422524Y226859D01*
X1422432Y226822D01*
X1421413D01*
X1421321Y226840D01*
X1421265Y226859D01*
X1421191Y226952D01*
X1421154Y227044D01*
Y227063D01*
Y227081D01*
Y230525D01*
X1421117Y230618D01*
X1421062Y230655D01*
X1421006Y230674D01*
X1419377D01*
X1417710Y227081D01*
X1417655Y226989D01*
X1417581Y226933D01*
X1417414Y226859D01*
X1417340Y226840D01*
X1417266Y226822D01*
X1416247D01*
X1416136Y226840D01*
X1416062Y226877D01*
X1416025Y226915D01*
X1416006Y226970D01*
X1416025Y227081D01*
X1416044Y227100D01*
Y227118D01*
X1417784Y230785D01*
Y230859D01*
X1417525Y230970D01*
X1417284Y231081D01*
X1417081Y231248D01*
X1416914Y231414D01*
X1416766Y231581D01*
X1416655Y231784D01*
X1416543Y231970D01*
X1416470Y232155D01*
X1416358Y232525D01*
X1416321Y232692D01*
X1416303Y232821D01*
Y232951D01*
X1416284Y233044D01*
Y233099D01*
Y233118D01*
Y234451D01*
X1416321Y234858D01*
X1416395Y235210D01*
X1416488Y235506D01*
X1416618Y235765D01*
X1416747Y235969D01*
X1416840Y236117D01*
X1416914Y236191D01*
X1416951Y236228D01*
X1417210Y236451D01*
X1417506Y236599D01*
X1417803Y236710D01*
X1418080Y236802D01*
X1418340Y236840D01*
X1418543Y236858D01*
X1418617Y236877D01*
X1422395D01*
X1422487Y236858D01*
D02*
G37*
G36*
X1404730D02*
X1405100Y236784D01*
X1405415Y236673D01*
X1405674Y236562D01*
X1405878Y236451D01*
X1406026Y236339D01*
X1406100Y236266D01*
X1406137Y236247D01*
X1406341Y235988D01*
X1406508Y235710D01*
X1406619Y235395D01*
X1406693Y235117D01*
X1406730Y234858D01*
X1406748Y234636D01*
X1406767Y234562D01*
Y234506D01*
Y234469D01*
Y234451D01*
Y229248D01*
X1406748Y228840D01*
X1406674Y228489D01*
X1406563Y228174D01*
X1406452Y227915D01*
X1406341Y227711D01*
X1406230Y227563D01*
X1406156Y227489D01*
X1406137Y227452D01*
X1405878Y227248D01*
X1405582Y227081D01*
X1405285Y226970D01*
X1404989Y226896D01*
X1404730Y226859D01*
X1404508Y226840D01*
X1404434Y226822D01*
X1402767D01*
X1402360Y226840D01*
X1402008Y226915D01*
X1401693Y227026D01*
X1401452Y227137D01*
X1401249Y227248D01*
X1401101Y227359D01*
X1401027Y227433D01*
X1400990Y227452D01*
X1400767Y227711D01*
X1400619Y228007D01*
X1400508Y228303D01*
X1400416Y228600D01*
X1400379Y228859D01*
X1400360Y229062D01*
X1400341Y229137D01*
Y229192D01*
Y229229D01*
Y229248D01*
Y234451D01*
X1400360Y234858D01*
X1400434Y235229D01*
X1400545Y235525D01*
X1400656Y235784D01*
X1400786Y235988D01*
X1400878Y236136D01*
X1400952Y236210D01*
X1400990Y236247D01*
X1401249Y236451D01*
X1401527Y236617D01*
X1401823Y236728D01*
X1402119Y236802D01*
X1402378Y236840D01*
X1402582Y236877D01*
X1404323D01*
X1404730Y236858D01*
D02*
G37*
G36*
X1398953D02*
X1399008Y236840D01*
X1399082Y236747D01*
X1399119Y236654D01*
Y236636D01*
Y236617D01*
Y235765D01*
X1399101Y235673D01*
X1399082Y235599D01*
X1399045Y235543D01*
X1398990Y235506D01*
X1398897Y235469D01*
X1394916D01*
X1398268Y227118D01*
X1398305Y227026D01*
Y226952D01*
X1398286Y226896D01*
X1398249Y226859D01*
X1398156Y226822D01*
X1397045D01*
X1396916Y226840D01*
X1396823Y226859D01*
X1396749Y226896D01*
X1396694Y226952D01*
X1396620Y227026D01*
X1396601Y227044D01*
Y227063D01*
X1393435Y234988D01*
X1393342Y235266D01*
X1393305Y235377D01*
X1393287Y235469D01*
X1393268Y235543D01*
Y235617D01*
Y235636D01*
Y235654D01*
Y236617D01*
X1393287Y236710D01*
X1393305Y236765D01*
X1393398Y236840D01*
X1393509Y236877D01*
X1398860D01*
X1398953Y236858D01*
D02*
G37*
G36*
X1329721Y234318D02*
X1330092Y234244D01*
X1330406Y234133D01*
X1330666Y234022D01*
X1330869Y233911D01*
X1331018Y233799D01*
X1331092Y233725D01*
X1331129Y233707D01*
X1331332Y233448D01*
X1331499Y233170D01*
X1331610Y232874D01*
X1331684Y232596D01*
X1331721Y232337D01*
X1331740Y232133D01*
X1331758Y232059D01*
Y232003D01*
Y231966D01*
Y231948D01*
Y231337D01*
X1331740Y231244D01*
X1331721Y231170D01*
X1331684Y231133D01*
X1331629Y231096D01*
X1331536Y231059D01*
X1330481D01*
X1330388Y231078D01*
X1330332Y231096D01*
X1330258Y231207D01*
X1330221Y231300D01*
Y231318D01*
Y231337D01*
Y231911D01*
X1330203Y232133D01*
X1330184Y232300D01*
X1330147Y232448D01*
X1330092Y232577D01*
X1330036Y232670D01*
X1329999Y232726D01*
X1329981Y232763D01*
X1329962Y232781D01*
X1329851Y232874D01*
X1329703Y232929D01*
X1329425Y233003D01*
X1329296Y233022D01*
X1329184Y233040D01*
X1328333D01*
X1328129Y233022D01*
X1327944Y232985D01*
X1327777Y232929D01*
X1327648Y232874D01*
X1327536Y232781D01*
X1327444Y232689D01*
X1327296Y232485D01*
X1327203Y232263D01*
X1327166Y232096D01*
X1327148Y232022D01*
Y231966D01*
Y231929D01*
Y231911D01*
Y231392D01*
X1327185Y231115D01*
X1327259Y230855D01*
X1327388Y230615D01*
X1327518Y230411D01*
X1327666Y230244D01*
X1327796Y230133D01*
X1327870Y230041D01*
X1327907Y230022D01*
X1330869Y227615D01*
X1331018Y227485D01*
X1331147Y227356D01*
X1331351Y227078D01*
X1331499Y226800D01*
X1331592Y226560D01*
X1331666Y226319D01*
X1331684Y226152D01*
X1331703Y226078D01*
Y226023D01*
Y226004D01*
Y225986D01*
Y224541D01*
X1331684Y224449D01*
X1331647Y224393D01*
X1331555Y224319D01*
X1331443Y224282D01*
X1325907D01*
X1325814Y224300D01*
X1325740Y224319D01*
X1325703Y224356D01*
X1325666Y224412D01*
X1325629Y224504D01*
Y224523D01*
Y224541D01*
Y225375D01*
X1325648Y225467D01*
X1325666Y225523D01*
X1325759Y225597D01*
X1325870Y225634D01*
X1329981D01*
Y226134D01*
X1329962Y226282D01*
X1329925Y226411D01*
X1329870Y226541D01*
X1329796Y226634D01*
X1329740Y226726D01*
X1329684Y226782D01*
X1329647Y226819D01*
X1329629Y226837D01*
X1326611Y229300D01*
X1326444Y229448D01*
X1326296Y229615D01*
X1326166Y229781D01*
X1326055Y229948D01*
X1325889Y230281D01*
X1325777Y230596D01*
X1325722Y230874D01*
X1325703Y230985D01*
X1325685Y231096D01*
X1325666Y231189D01*
Y231244D01*
Y231281D01*
Y231300D01*
Y231948D01*
X1325685Y232355D01*
X1325759Y232707D01*
X1325870Y233003D01*
X1325981Y233263D01*
X1326111Y233448D01*
X1326203Y233596D01*
X1326277Y233670D01*
X1326314Y233707D01*
X1326574Y233911D01*
X1326851Y234077D01*
X1327148Y234188D01*
X1327444Y234262D01*
X1327703Y234300D01*
X1327907Y234336D01*
X1329314D01*
X1329721Y234318D01*
D02*
G37*
G36*
X1339683D02*
X1339757Y234300D01*
X1339794Y234262D01*
X1339832Y234207D01*
X1339868Y234114D01*
Y234096D01*
Y234077D01*
Y224541D01*
X1339850Y224449D01*
X1339832Y224393D01*
X1339720Y224319D01*
X1339628Y224282D01*
X1338609D01*
X1338517Y224300D01*
X1338461Y224319D01*
X1338387Y224412D01*
X1338350Y224504D01*
Y224523D01*
Y224541D01*
Y227985D01*
X1338313Y228078D01*
X1338258Y228115D01*
X1338202Y228134D01*
X1336573D01*
X1334906Y224541D01*
X1334850Y224449D01*
X1334776Y224393D01*
X1334610Y224319D01*
X1334536Y224300D01*
X1334462Y224282D01*
X1333443D01*
X1333332Y224300D01*
X1333258Y224338D01*
X1333221Y224375D01*
X1333203Y224430D01*
X1333221Y224541D01*
X1333240Y224560D01*
Y224578D01*
X1334980Y228245D01*
Y228319D01*
X1334721Y228430D01*
X1334480Y228541D01*
X1334276Y228708D01*
X1334110Y228874D01*
X1333962Y229041D01*
X1333851Y229244D01*
X1333739Y229430D01*
X1333665Y229615D01*
X1333554Y229985D01*
X1333517Y230152D01*
X1333499Y230281D01*
Y230411D01*
X1333480Y230504D01*
Y230559D01*
Y230578D01*
Y231911D01*
X1333517Y232318D01*
X1333591Y232670D01*
X1333684Y232966D01*
X1333814Y233225D01*
X1333943Y233429D01*
X1334036Y233577D01*
X1334110Y233651D01*
X1334147Y233688D01*
X1334406Y233911D01*
X1334702Y234059D01*
X1334999Y234170D01*
X1335276Y234262D01*
X1335536Y234300D01*
X1335739Y234318D01*
X1335813Y234336D01*
X1339591D01*
X1339683Y234318D01*
D02*
G37*
G36*
X1321926D02*
X1322296Y234244D01*
X1322611Y234133D01*
X1322870Y234022D01*
X1323074Y233911D01*
X1323222Y233799D01*
X1323296Y233725D01*
X1323333Y233707D01*
X1323537Y233448D01*
X1323703Y233170D01*
X1323815Y232855D01*
X1323889Y232577D01*
X1323926Y232318D01*
X1323944Y232096D01*
X1323963Y232022D01*
Y231966D01*
Y231929D01*
Y231911D01*
Y226708D01*
X1323944Y226300D01*
X1323870Y225949D01*
X1323759Y225634D01*
X1323648Y225375D01*
X1323537Y225171D01*
X1323426Y225023D01*
X1323352Y224949D01*
X1323333Y224912D01*
X1323074Y224708D01*
X1322778Y224541D01*
X1322481Y224430D01*
X1322185Y224356D01*
X1321926Y224319D01*
X1321704Y224300D01*
X1321630Y224282D01*
X1319963D01*
X1319556Y224300D01*
X1319204Y224375D01*
X1318889Y224486D01*
X1318649Y224597D01*
X1318445Y224708D01*
X1318297Y224819D01*
X1318223Y224893D01*
X1318186Y224912D01*
X1317963Y225171D01*
X1317815Y225467D01*
X1317704Y225763D01*
X1317612Y226060D01*
X1317574Y226319D01*
X1317556Y226523D01*
X1317538Y226597D01*
Y226652D01*
Y226689D01*
Y226708D01*
Y231911D01*
X1317556Y232318D01*
X1317630Y232689D01*
X1317741Y232985D01*
X1317852Y233244D01*
X1317982Y233448D01*
X1318074Y233596D01*
X1318148Y233670D01*
X1318186Y233707D01*
X1318445Y233911D01*
X1318723Y234077D01*
X1319019Y234188D01*
X1319315Y234262D01*
X1319574Y234300D01*
X1319778Y234336D01*
X1321519D01*
X1321926Y234318D01*
D02*
G37*
G36*
X1313723D02*
X1314075Y234244D01*
X1314390Y234133D01*
X1314649Y234022D01*
X1314853Y233911D01*
X1315001Y233799D01*
X1315075Y233725D01*
X1315112Y233707D01*
X1315334Y233448D01*
X1315482Y233170D01*
X1315593Y232855D01*
X1315686Y232577D01*
X1315723Y232318D01*
X1315741Y232096D01*
X1315760Y232022D01*
Y231966D01*
Y231929D01*
Y231911D01*
Y226708D01*
X1315723Y226300D01*
X1315649Y225949D01*
X1315556Y225634D01*
X1315427Y225375D01*
X1315316Y225171D01*
X1315204Y225023D01*
X1315130Y224949D01*
X1315112Y224912D01*
X1314853Y224708D01*
X1314556Y224541D01*
X1314260Y224430D01*
X1313964Y224356D01*
X1313705Y224319D01*
X1313501Y224300D01*
X1313427Y224282D01*
X1311816D01*
X1311409Y224300D01*
X1311038Y224375D01*
X1310742Y224486D01*
X1310483Y224597D01*
X1310279Y224708D01*
X1310131Y224819D01*
X1310057Y224893D01*
X1310020Y224912D01*
X1309798Y225171D01*
X1309649Y225467D01*
X1309538Y225763D01*
X1309446Y226060D01*
X1309409Y226319D01*
X1309390Y226523D01*
X1309372Y226597D01*
Y226652D01*
Y226689D01*
Y226708D01*
Y228078D01*
X1309390Y228485D01*
X1309464Y228856D01*
X1309575Y229152D01*
X1309686Y229411D01*
X1309816Y229615D01*
X1309909Y229763D01*
X1309983Y229837D01*
X1310020Y229874D01*
X1310279Y230078D01*
X1310557Y230244D01*
X1310871Y230355D01*
X1311149Y230429D01*
X1311409Y230466D01*
X1311631Y230504D01*
X1314223D01*
Y231855D01*
X1314205Y232059D01*
X1314167Y232244D01*
X1314112Y232392D01*
X1314038Y232522D01*
X1313964Y232652D01*
X1313871Y232744D01*
X1313649Y232874D01*
X1313445Y232966D01*
X1313260Y233003D01*
X1313205Y233022D01*
X1310186D01*
X1310094Y233040D01*
X1310038Y233059D01*
X1309964Y233151D01*
X1309927Y233225D01*
Y233244D01*
Y233263D01*
Y234077D01*
X1309946Y234170D01*
X1309964Y234225D01*
X1310057Y234300D01*
X1310149Y234336D01*
X1313316D01*
X1313723Y234318D01*
D02*
G37*
G36*
X1412017Y200028D02*
X1412388Y199954D01*
X1412702Y199843D01*
X1412962Y199732D01*
X1413165Y199621D01*
X1413314Y199510D01*
X1413388Y199436D01*
X1413425Y199417D01*
X1413628Y199158D01*
X1413795Y198880D01*
X1413906Y198584D01*
X1413980Y198306D01*
X1414017Y198047D01*
X1414036Y197843D01*
X1414054Y197769D01*
Y197713D01*
Y197676D01*
Y197658D01*
Y197047D01*
X1414036Y196954D01*
X1414017Y196880D01*
X1413980Y196843D01*
X1413925Y196806D01*
X1413832Y196769D01*
X1412777D01*
X1412684Y196788D01*
X1412628Y196806D01*
X1412554Y196917D01*
X1412517Y197010D01*
Y197028D01*
Y197047D01*
Y197621D01*
X1412499Y197843D01*
X1412480Y198010D01*
X1412443Y198158D01*
X1412388Y198287D01*
X1412332Y198380D01*
X1412295Y198436D01*
X1412277Y198473D01*
X1412258Y198491D01*
X1412147Y198584D01*
X1411999Y198639D01*
X1411721Y198713D01*
X1411591Y198732D01*
X1411480Y198750D01*
X1410629D01*
X1410425Y198732D01*
X1410240Y198695D01*
X1410073Y198639D01*
X1409944Y198584D01*
X1409832Y198491D01*
X1409740Y198398D01*
X1409592Y198195D01*
X1409499Y197973D01*
X1409462Y197806D01*
X1409444Y197732D01*
Y197676D01*
Y197639D01*
Y197621D01*
Y197102D01*
X1409481Y196825D01*
X1409555Y196565D01*
X1409684Y196325D01*
X1409814Y196121D01*
X1409962Y195954D01*
X1410092Y195843D01*
X1410166Y195751D01*
X1410203Y195732D01*
X1413165Y193325D01*
X1413314Y193195D01*
X1413443Y193066D01*
X1413647Y192788D01*
X1413795Y192510D01*
X1413888Y192269D01*
X1413962Y192029D01*
X1413980Y191862D01*
X1413999Y191788D01*
Y191733D01*
Y191714D01*
Y191695D01*
Y190251D01*
X1413980Y190159D01*
X1413943Y190103D01*
X1413851Y190029D01*
X1413739Y189992D01*
X1408203D01*
X1408110Y190011D01*
X1408036Y190029D01*
X1407999Y190066D01*
X1407962Y190122D01*
X1407925Y190214D01*
Y190233D01*
Y190251D01*
Y191084D01*
X1407944Y191177D01*
X1407962Y191233D01*
X1408055Y191307D01*
X1408166Y191344D01*
X1412277D01*
Y191844D01*
X1412258Y191992D01*
X1412221Y192121D01*
X1412166Y192251D01*
X1412092Y192344D01*
X1412036Y192436D01*
X1411980Y192492D01*
X1411943Y192529D01*
X1411925Y192547D01*
X1408907Y195010D01*
X1408740Y195158D01*
X1408592Y195325D01*
X1408462Y195491D01*
X1408351Y195658D01*
X1408185Y195991D01*
X1408073Y196306D01*
X1408018Y196584D01*
X1407999Y196695D01*
X1407981Y196806D01*
X1407962Y196899D01*
Y196954D01*
Y196991D01*
Y197010D01*
Y197658D01*
X1407981Y198065D01*
X1408055Y198417D01*
X1408166Y198713D01*
X1408277Y198973D01*
X1408407Y199158D01*
X1408499Y199306D01*
X1408573Y199380D01*
X1408610Y199417D01*
X1408870Y199621D01*
X1409147Y199787D01*
X1409444Y199898D01*
X1409740Y199972D01*
X1409999Y200009D01*
X1410203Y200047D01*
X1411610D01*
X1412017Y200028D01*
D02*
G37*
G36*
X1397797D02*
X1397871Y200009D01*
X1397908Y199972D01*
X1397945Y199917D01*
X1397982Y199824D01*
Y199806D01*
Y199787D01*
Y194862D01*
X1397963Y194769D01*
X1397945Y194714D01*
X1397834Y194640D01*
X1397741Y194603D01*
X1396723D01*
X1396630Y194621D01*
X1396537Y194658D01*
X1396408Y194788D01*
X1396334Y194917D01*
X1396297Y194954D01*
Y194973D01*
X1396241Y195047D01*
X1396149Y195121D01*
X1396093Y195177D01*
X1396056Y195195D01*
X1395889Y195269D01*
X1395723Y195288D01*
X1395649Y195306D01*
X1394575D01*
X1394334Y195288D01*
X1394149Y195269D01*
X1393982Y195214D01*
X1393853Y195158D01*
X1393760Y195103D01*
X1393705Y195065D01*
X1393667Y195028D01*
X1393649Y195010D01*
X1393556Y194880D01*
X1393482Y194732D01*
X1393445Y194566D01*
X1393408Y194399D01*
X1393390Y194251D01*
X1393371Y194121D01*
Y194047D01*
Y194010D01*
Y192418D01*
X1393390Y192214D01*
X1393427Y192047D01*
X1393482Y191899D01*
X1393556Y191770D01*
X1393630Y191658D01*
X1393741Y191566D01*
X1393945Y191436D01*
X1394149Y191344D01*
X1394334Y191307D01*
X1394408Y191288D01*
X1395426D01*
X1395630Y191307D01*
X1395797Y191344D01*
X1395945Y191399D01*
X1396075Y191473D01*
X1396186Y191547D01*
X1396278Y191640D01*
X1396408Y191862D01*
X1396501Y192066D01*
X1396537Y192251D01*
X1396556Y192307D01*
Y192362D01*
Y192399D01*
Y192418D01*
Y192825D01*
X1396575Y192918D01*
X1396593Y192992D01*
X1396630Y193029D01*
X1396686Y193066D01*
X1396778Y193103D01*
X1397797D01*
X1397889Y193084D01*
X1397963Y193066D01*
X1398000Y193010D01*
X1398037Y192973D01*
X1398074Y192862D01*
Y192844D01*
Y192825D01*
Y192418D01*
X1398056Y192010D01*
X1397982Y191658D01*
X1397871Y191344D01*
X1397760Y191084D01*
X1397648Y190881D01*
X1397537Y190733D01*
X1397463Y190659D01*
X1397445Y190622D01*
X1397186Y190418D01*
X1396889Y190251D01*
X1396593Y190140D01*
X1396297Y190066D01*
X1396038Y190029D01*
X1395834Y190011D01*
X1395760Y189992D01*
X1394316D01*
X1393908Y190011D01*
X1393556Y190085D01*
X1393242Y190196D01*
X1392982Y190307D01*
X1392779Y190418D01*
X1392630Y190529D01*
X1392556Y190603D01*
X1392519Y190622D01*
X1392297Y190881D01*
X1392149Y191177D01*
X1392038Y191473D01*
X1391945Y191770D01*
X1391908Y192029D01*
X1391890Y192232D01*
X1391871Y192307D01*
Y192362D01*
Y192399D01*
Y192418D01*
Y194232D01*
X1391890Y194640D01*
X1391964Y194991D01*
X1392056Y195288D01*
X1392168Y195529D01*
X1392297Y195714D01*
X1392390Y195843D01*
X1392464Y195936D01*
X1392482Y195954D01*
X1392723Y196158D01*
X1393001Y196306D01*
X1393279Y196399D01*
X1393556Y196473D01*
X1393816Y196510D01*
X1394019Y196547D01*
X1395130D01*
X1395482Y196510D01*
X1395778Y196436D01*
X1396001Y196306D01*
X1396167Y196176D01*
X1396297Y196028D01*
X1396389Y195899D01*
X1396426Y195825D01*
X1396445Y195788D01*
Y198621D01*
X1392390D01*
X1392297Y198639D01*
X1392223Y198658D01*
X1392186Y198713D01*
X1392149Y198769D01*
X1392112Y198862D01*
Y198880D01*
Y198899D01*
Y199787D01*
X1392131Y199880D01*
X1392149Y199935D01*
X1392242Y200009D01*
X1392353Y200047D01*
X1397704D01*
X1397797Y200028D01*
D02*
G37*
G36*
X1421979D02*
X1422053Y200009D01*
X1422090Y199972D01*
X1422128Y199917D01*
X1422164Y199824D01*
Y199806D01*
Y199787D01*
Y190251D01*
X1422146Y190159D01*
X1422128Y190103D01*
X1422016Y190029D01*
X1421924Y189992D01*
X1420905D01*
X1420813Y190011D01*
X1420757Y190029D01*
X1420683Y190122D01*
X1420646Y190214D01*
Y190233D01*
Y190251D01*
Y193695D01*
X1420609Y193788D01*
X1420554Y193825D01*
X1420498Y193843D01*
X1418869D01*
X1417202Y190251D01*
X1417146Y190159D01*
X1417072Y190103D01*
X1416906Y190029D01*
X1416832Y190011D01*
X1416758Y189992D01*
X1415739D01*
X1415628Y190011D01*
X1415554Y190047D01*
X1415517Y190085D01*
X1415499Y190140D01*
X1415517Y190251D01*
X1415536Y190270D01*
Y190288D01*
X1417276Y193955D01*
Y194029D01*
X1417017Y194140D01*
X1416776Y194251D01*
X1416573Y194417D01*
X1416406Y194584D01*
X1416258Y194751D01*
X1416147Y194954D01*
X1416035Y195140D01*
X1415961Y195325D01*
X1415850Y195695D01*
X1415813Y195862D01*
X1415795Y195991D01*
Y196121D01*
X1415776Y196214D01*
Y196269D01*
Y196288D01*
Y197621D01*
X1415813Y198028D01*
X1415887Y198380D01*
X1415980Y198676D01*
X1416110Y198936D01*
X1416239Y199139D01*
X1416332Y199287D01*
X1416406Y199361D01*
X1416443Y199398D01*
X1416702Y199621D01*
X1416998Y199769D01*
X1417295Y199880D01*
X1417572Y199972D01*
X1417832Y200009D01*
X1418035Y200028D01*
X1418109Y200047D01*
X1421887D01*
X1421979Y200028D01*
D02*
G37*
G36*
X1404222D02*
X1404592Y199954D01*
X1404907Y199843D01*
X1405166Y199732D01*
X1405370Y199621D01*
X1405518Y199510D01*
X1405592Y199436D01*
X1405629Y199417D01*
X1405833Y199158D01*
X1405999Y198880D01*
X1406111Y198565D01*
X1406185Y198287D01*
X1406222Y198028D01*
X1406240Y197806D01*
X1406259Y197732D01*
Y197676D01*
Y197639D01*
Y197621D01*
Y192418D01*
X1406240Y192010D01*
X1406166Y191658D01*
X1406055Y191344D01*
X1405944Y191084D01*
X1405833Y190881D01*
X1405722Y190733D01*
X1405648Y190659D01*
X1405629Y190622D01*
X1405370Y190418D01*
X1405074Y190251D01*
X1404777Y190140D01*
X1404481Y190066D01*
X1404222Y190029D01*
X1404000Y190011D01*
X1403926Y189992D01*
X1402259D01*
X1401852Y190011D01*
X1401500Y190085D01*
X1401185Y190196D01*
X1400945Y190307D01*
X1400741Y190418D01*
X1400593Y190529D01*
X1400519Y190603D01*
X1400482Y190622D01*
X1400259Y190881D01*
X1400111Y191177D01*
X1400000Y191473D01*
X1399908Y191770D01*
X1399870Y192029D01*
X1399852Y192232D01*
X1399834Y192307D01*
Y192362D01*
Y192399D01*
Y192418D01*
Y197621D01*
X1399852Y198028D01*
X1399926Y198398D01*
X1400037Y198695D01*
X1400148Y198954D01*
X1400278Y199158D01*
X1400370Y199306D01*
X1400444Y199380D01*
X1400482Y199417D01*
X1400741Y199621D01*
X1401019Y199787D01*
X1401315Y199898D01*
X1401611Y199972D01*
X1401870Y200009D01*
X1402074Y200047D01*
X1403815D01*
X1404222Y200028D01*
D02*
G37*
G36*
X1340643Y151768D02*
X1341014Y151694D01*
X1341328Y151583D01*
X1341588Y151472D01*
X1341791Y151361D01*
X1341940Y151250D01*
X1342014Y151175D01*
X1342051Y151157D01*
X1342254Y150898D01*
X1342421Y150620D01*
X1342532Y150324D01*
X1342606Y150046D01*
X1342643Y149787D01*
X1342662Y149583D01*
X1342680Y149509D01*
Y149453D01*
Y149416D01*
Y149398D01*
Y148787D01*
X1342662Y148694D01*
X1342643Y148620D01*
X1342606Y148583D01*
X1342551Y148546D01*
X1342458Y148509D01*
X1341403D01*
X1341310Y148528D01*
X1341254Y148546D01*
X1341180Y148657D01*
X1341143Y148750D01*
Y148768D01*
Y148787D01*
Y149361D01*
X1341125Y149583D01*
X1341106Y149750D01*
X1341069Y149898D01*
X1341014Y150027D01*
X1340958Y150120D01*
X1340921Y150176D01*
X1340903Y150213D01*
X1340884Y150231D01*
X1340773Y150324D01*
X1340625Y150379D01*
X1340347Y150453D01*
X1340217Y150472D01*
X1340106Y150490D01*
X1339255D01*
X1339051Y150472D01*
X1338866Y150435D01*
X1338699Y150379D01*
X1338570Y150324D01*
X1338459Y150231D01*
X1338366Y150139D01*
X1338218Y149935D01*
X1338125Y149713D01*
X1338088Y149546D01*
X1338070Y149472D01*
Y149416D01*
Y149379D01*
Y149361D01*
Y148842D01*
X1338107Y148565D01*
X1338181Y148305D01*
X1338310Y148065D01*
X1338440Y147861D01*
X1338588Y147694D01*
X1338718Y147583D01*
X1338792Y147491D01*
X1338829Y147472D01*
X1341791Y145065D01*
X1341940Y144935D01*
X1342069Y144806D01*
X1342273Y144528D01*
X1342421Y144250D01*
X1342514Y144010D01*
X1342588Y143769D01*
X1342606Y143602D01*
X1342625Y143528D01*
Y143473D01*
Y143454D01*
Y143435D01*
Y141991D01*
X1342606Y141899D01*
X1342569Y141843D01*
X1342477Y141769D01*
X1342366Y141732D01*
X1336829D01*
X1336736Y141750D01*
X1336662Y141769D01*
X1336625Y141806D01*
X1336588Y141862D01*
X1336551Y141954D01*
Y141973D01*
Y141991D01*
Y142824D01*
X1336570Y142917D01*
X1336588Y142973D01*
X1336681Y143047D01*
X1336792Y143084D01*
X1340903D01*
Y143584D01*
X1340884Y143732D01*
X1340847Y143861D01*
X1340792Y143991D01*
X1340717Y144084D01*
X1340662Y144176D01*
X1340606Y144232D01*
X1340569Y144269D01*
X1340551Y144287D01*
X1337533Y146750D01*
X1337366Y146898D01*
X1337218Y147065D01*
X1337088Y147231D01*
X1336977Y147398D01*
X1336810Y147731D01*
X1336699Y148046D01*
X1336644Y148324D01*
X1336625Y148435D01*
X1336607Y148546D01*
X1336588Y148639D01*
Y148694D01*
Y148731D01*
Y148750D01*
Y149398D01*
X1336607Y149805D01*
X1336681Y150157D01*
X1336792Y150453D01*
X1336903Y150713D01*
X1337033Y150898D01*
X1337125Y151046D01*
X1337199Y151120D01*
X1337236Y151157D01*
X1337496Y151361D01*
X1337773Y151527D01*
X1338070Y151638D01*
X1338366Y151712D01*
X1338625Y151749D01*
X1338829Y151786D01*
X1340236D01*
X1340643Y151768D01*
D02*
G37*
G36*
X1350605D02*
X1350679Y151749D01*
X1350717Y151712D01*
X1350753Y151657D01*
X1350791Y151564D01*
Y151546D01*
Y151527D01*
Y141991D01*
X1350772Y141899D01*
X1350753Y141843D01*
X1350642Y141769D01*
X1350550Y141732D01*
X1349531D01*
X1349439Y141750D01*
X1349383Y141769D01*
X1349309Y141862D01*
X1349272Y141954D01*
Y141973D01*
Y141991D01*
Y145435D01*
X1349235Y145528D01*
X1349180Y145565D01*
X1349124Y145583D01*
X1347495D01*
X1345828Y141991D01*
X1345773Y141899D01*
X1345699Y141843D01*
X1345532Y141769D01*
X1345458Y141750D01*
X1345384Y141732D01*
X1344365D01*
X1344254Y141750D01*
X1344180Y141788D01*
X1344143Y141825D01*
X1344124Y141880D01*
X1344143Y141991D01*
X1344162Y142010D01*
Y142028D01*
X1345902Y145695D01*
Y145769D01*
X1345643Y145880D01*
X1345402Y145991D01*
X1345199Y146158D01*
X1345032Y146324D01*
X1344884Y146491D01*
X1344773Y146694D01*
X1344662Y146880D01*
X1344588Y147065D01*
X1344476Y147435D01*
X1344439Y147602D01*
X1344421Y147731D01*
Y147861D01*
X1344402Y147954D01*
Y148009D01*
Y148028D01*
Y149361D01*
X1344439Y149768D01*
X1344513Y150120D01*
X1344606Y150416D01*
X1344736Y150675D01*
X1344865Y150879D01*
X1344958Y151027D01*
X1345032Y151101D01*
X1345069Y151138D01*
X1345328Y151361D01*
X1345624Y151509D01*
X1345921Y151620D01*
X1346198Y151712D01*
X1346458Y151749D01*
X1346661Y151768D01*
X1346735Y151786D01*
X1350513D01*
X1350605Y151768D01*
D02*
G37*
G36*
X1332848D02*
X1333218Y151694D01*
X1333533Y151583D01*
X1333792Y151472D01*
X1333996Y151361D01*
X1334144Y151250D01*
X1334218Y151175D01*
X1334255Y151157D01*
X1334459Y150898D01*
X1334626Y150620D01*
X1334737Y150305D01*
X1334811Y150027D01*
X1334848Y149768D01*
X1334866Y149546D01*
X1334885Y149472D01*
Y149416D01*
Y149379D01*
Y149361D01*
Y144158D01*
X1334866Y143750D01*
X1334792Y143399D01*
X1334681Y143084D01*
X1334570Y142824D01*
X1334459Y142621D01*
X1334348Y142473D01*
X1334274Y142399D01*
X1334255Y142362D01*
X1333996Y142158D01*
X1333700Y141991D01*
X1333403Y141880D01*
X1333107Y141806D01*
X1332848Y141769D01*
X1332626Y141750D01*
X1332552Y141732D01*
X1330885D01*
X1330478Y141750D01*
X1330126Y141825D01*
X1329811Y141936D01*
X1329570Y142047D01*
X1329367Y142158D01*
X1329219Y142269D01*
X1329145Y142343D01*
X1329108Y142362D01*
X1328885Y142621D01*
X1328737Y142917D01*
X1328626Y143213D01*
X1328534Y143510D01*
X1328497Y143769D01*
X1328478Y143973D01*
X1328459Y144047D01*
Y144102D01*
Y144139D01*
Y144158D01*
Y149361D01*
X1328478Y149768D01*
X1328552Y150139D01*
X1328663Y150435D01*
X1328774Y150694D01*
X1328904Y150898D01*
X1328996Y151046D01*
X1329070Y151120D01*
X1329108Y151157D01*
X1329367Y151361D01*
X1329645Y151527D01*
X1329941Y151638D01*
X1330237Y151712D01*
X1330496Y151749D01*
X1330700Y151786D01*
X1332441D01*
X1332848Y151768D01*
D02*
G37*
G36*
X1322867D02*
X1322979Y151749D01*
X1323034Y151731D01*
X1323053Y151712D01*
X1323145Y151638D01*
X1323219Y151527D01*
X1323275Y151435D01*
X1323293Y151416D01*
Y151398D01*
X1326793Y145176D01*
X1326867Y144972D01*
X1326904Y144769D01*
X1326923Y144695D01*
Y144621D01*
Y144584D01*
Y144565D01*
Y144084D01*
X1326904Y143935D01*
X1326849Y143824D01*
X1326774Y143750D01*
X1326700Y143695D01*
X1326626Y143658D01*
X1326552Y143639D01*
X1322330D01*
Y141991D01*
X1322312Y141899D01*
X1322294Y141843D01*
X1322201Y141769D01*
X1322108Y141732D01*
X1321145D01*
X1321071Y141750D01*
X1320997Y141769D01*
X1320942Y141862D01*
X1320905Y141954D01*
Y141973D01*
Y141991D01*
Y143639D01*
X1319757D01*
X1319664Y143658D01*
X1319590Y143695D01*
X1319553Y143732D01*
X1319516Y143787D01*
X1319479Y143898D01*
Y143917D01*
Y143935D01*
Y144713D01*
X1319498Y144806D01*
X1319516Y144861D01*
X1319609Y144935D01*
X1319720Y144972D01*
X1320905D01*
Y151342D01*
X1320923Y151490D01*
X1320979Y151601D01*
X1321053Y151675D01*
X1321127Y151731D01*
X1321201Y151768D01*
X1321275Y151786D01*
X1322738D01*
X1322867Y151768D01*
D02*
G37*
G36*
X1396130Y161928D02*
X1396482Y161854D01*
X1396797Y161743D01*
X1397056Y161632D01*
X1397260Y161521D01*
X1397408Y161409D01*
X1397482Y161336D01*
X1397519Y161317D01*
X1397741Y161058D01*
X1397889Y160780D01*
X1398000Y160484D01*
X1398093Y160206D01*
X1398130Y159947D01*
X1398148Y159743D01*
X1398167Y159669D01*
Y159613D01*
Y159576D01*
Y159558D01*
Y159076D01*
X1398148Y158984D01*
X1398130Y158910D01*
X1398074Y158873D01*
X1398019Y158836D01*
X1397926Y158799D01*
X1396889D01*
X1396797Y158817D01*
X1396741Y158836D01*
X1396667Y158947D01*
X1396630Y159039D01*
Y159058D01*
Y159076D01*
Y159521D01*
X1396612Y159743D01*
X1396593Y159910D01*
X1396537Y160058D01*
X1396482Y160187D01*
X1396445Y160280D01*
X1396389Y160336D01*
X1396371Y160373D01*
X1396352Y160391D01*
X1396241Y160484D01*
X1396093Y160539D01*
X1395815Y160613D01*
X1395704Y160632D01*
X1395593Y160650D01*
X1394575D01*
X1394371Y160632D01*
X1394186Y160595D01*
X1394038Y160539D01*
X1393908Y160484D01*
X1393779Y160391D01*
X1393686Y160299D01*
X1393556Y160095D01*
X1393464Y159873D01*
X1393427Y159706D01*
X1393408Y159632D01*
Y159576D01*
Y159539D01*
Y159521D01*
Y158706D01*
X1393427Y158502D01*
X1393464Y158336D01*
X1393519Y158188D01*
X1393593Y158058D01*
X1393686Y157947D01*
X1393779Y157854D01*
X1393982Y157725D01*
X1394205Y157632D01*
X1394390Y157595D01*
X1394464Y157577D01*
X1395445D01*
X1395538Y157558D01*
X1395593Y157540D01*
X1395667Y157429D01*
X1395704Y157336D01*
Y157299D01*
Y157280D01*
Y156577D01*
X1395686Y156484D01*
X1395667Y156429D01*
X1395575Y156355D01*
X1395482Y156318D01*
X1394575D01*
X1394371Y156299D01*
X1394186Y156262D01*
X1394038Y156206D01*
X1393908Y156132D01*
X1393779Y156058D01*
X1393686Y155947D01*
X1393556Y155744D01*
X1393464Y155540D01*
X1393427Y155355D01*
X1393408Y155281D01*
Y155225D01*
Y155188D01*
Y155169D01*
Y154318D01*
X1393427Y154114D01*
X1393464Y153947D01*
X1393519Y153799D01*
X1393593Y153670D01*
X1393686Y153559D01*
X1393779Y153466D01*
X1393982Y153336D01*
X1394205Y153244D01*
X1394390Y153207D01*
X1394464Y153188D01*
X1395501D01*
X1395704Y153207D01*
X1395871Y153225D01*
X1396019Y153262D01*
X1396149Y153318D01*
X1396241Y153373D01*
X1396297Y153410D01*
X1396334Y153429D01*
X1396352Y153447D01*
X1396445Y153559D01*
X1396519Y153707D01*
X1396556Y153836D01*
X1396593Y153984D01*
X1396612Y154114D01*
X1396630Y154225D01*
Y154299D01*
Y154318D01*
Y154836D01*
X1396649Y154929D01*
X1396667Y155003D01*
X1396704Y155040D01*
X1396760Y155077D01*
X1396852Y155114D01*
X1397889D01*
X1397982Y155095D01*
X1398056Y155077D01*
X1398093Y155021D01*
X1398130Y154984D01*
X1398167Y154873D01*
Y154855D01*
Y154836D01*
Y154281D01*
X1398130Y153873D01*
X1398056Y153521D01*
X1397963Y153207D01*
X1397834Y152966D01*
X1397723Y152762D01*
X1397612Y152614D01*
X1397537Y152540D01*
X1397519Y152503D01*
X1397260Y152299D01*
X1396963Y152151D01*
X1396667Y152040D01*
X1396371Y151966D01*
X1396112Y151929D01*
X1395908Y151910D01*
X1395834Y151892D01*
X1394353D01*
X1393945Y151910D01*
X1393593Y151985D01*
X1393279Y152077D01*
X1393019Y152207D01*
X1392816Y152318D01*
X1392668Y152410D01*
X1392594Y152485D01*
X1392556Y152503D01*
X1392334Y152762D01*
X1392186Y153040D01*
X1392075Y153336D01*
X1391983Y153633D01*
X1391945Y153892D01*
X1391927Y154095D01*
X1391908Y154170D01*
Y154225D01*
Y154262D01*
Y154281D01*
Y155188D01*
X1391927Y155447D01*
X1391964Y155688D01*
X1392020Y155892D01*
X1392112Y156077D01*
X1392205Y156243D01*
X1392297Y156391D01*
X1392427Y156503D01*
X1392538Y156614D01*
X1392760Y156780D01*
X1392964Y156873D01*
X1393056Y156910D01*
X1393112Y156929D01*
X1393149Y156947D01*
X1393168D01*
X1392945Y157021D01*
X1392760Y157132D01*
X1392575Y157243D01*
X1392445Y157373D01*
X1392316Y157521D01*
X1392223Y157669D01*
X1392056Y157965D01*
X1391983Y158243D01*
X1391927Y158484D01*
X1391908Y158576D01*
Y158651D01*
Y158688D01*
Y158706D01*
Y159558D01*
X1391927Y159965D01*
X1392001Y160317D01*
X1392112Y160613D01*
X1392223Y160873D01*
X1392353Y161058D01*
X1392445Y161206D01*
X1392519Y161280D01*
X1392556Y161317D01*
X1392816Y161521D01*
X1393112Y161687D01*
X1393408Y161798D01*
X1393705Y161872D01*
X1393964Y161910D01*
X1394167Y161947D01*
X1395723D01*
X1396130Y161928D01*
D02*
G37*
G36*
X1412017D02*
X1412388Y161854D01*
X1412702Y161743D01*
X1412962Y161632D01*
X1413165Y161521D01*
X1413314Y161409D01*
X1413388Y161336D01*
X1413425Y161317D01*
X1413628Y161058D01*
X1413795Y160780D01*
X1413906Y160484D01*
X1413980Y160206D01*
X1414017Y159947D01*
X1414036Y159743D01*
X1414054Y159669D01*
Y159613D01*
Y159576D01*
Y159558D01*
Y158947D01*
X1414036Y158854D01*
X1414017Y158780D01*
X1413980Y158743D01*
X1413925Y158706D01*
X1413832Y158669D01*
X1412777D01*
X1412684Y158688D01*
X1412628Y158706D01*
X1412554Y158817D01*
X1412517Y158910D01*
Y158928D01*
Y158947D01*
Y159521D01*
X1412499Y159743D01*
X1412480Y159910D01*
X1412443Y160058D01*
X1412388Y160187D01*
X1412332Y160280D01*
X1412295Y160336D01*
X1412277Y160373D01*
X1412258Y160391D01*
X1412147Y160484D01*
X1411999Y160539D01*
X1411721Y160613D01*
X1411591Y160632D01*
X1411480Y160650D01*
X1410629D01*
X1410425Y160632D01*
X1410240Y160595D01*
X1410073Y160539D01*
X1409944Y160484D01*
X1409832Y160391D01*
X1409740Y160299D01*
X1409592Y160095D01*
X1409499Y159873D01*
X1409462Y159706D01*
X1409444Y159632D01*
Y159576D01*
Y159539D01*
Y159521D01*
Y159002D01*
X1409481Y158725D01*
X1409555Y158465D01*
X1409684Y158225D01*
X1409814Y158021D01*
X1409962Y157854D01*
X1410092Y157743D01*
X1410166Y157651D01*
X1410203Y157632D01*
X1413165Y155225D01*
X1413314Y155095D01*
X1413443Y154966D01*
X1413647Y154688D01*
X1413795Y154410D01*
X1413888Y154170D01*
X1413962Y153929D01*
X1413980Y153762D01*
X1413999Y153688D01*
Y153633D01*
Y153614D01*
Y153596D01*
Y152151D01*
X1413980Y152059D01*
X1413943Y152003D01*
X1413851Y151929D01*
X1413739Y151892D01*
X1408203D01*
X1408110Y151910D01*
X1408036Y151929D01*
X1407999Y151966D01*
X1407962Y152022D01*
X1407925Y152114D01*
Y152133D01*
Y152151D01*
Y152985D01*
X1407944Y153077D01*
X1407962Y153133D01*
X1408055Y153207D01*
X1408166Y153244D01*
X1412277D01*
Y153744D01*
X1412258Y153892D01*
X1412221Y154021D01*
X1412166Y154151D01*
X1412092Y154244D01*
X1412036Y154336D01*
X1411980Y154392D01*
X1411943Y154429D01*
X1411925Y154447D01*
X1408907Y156910D01*
X1408740Y157058D01*
X1408592Y157225D01*
X1408462Y157391D01*
X1408351Y157558D01*
X1408185Y157891D01*
X1408073Y158206D01*
X1408018Y158484D01*
X1407999Y158595D01*
X1407981Y158706D01*
X1407962Y158799D01*
Y158854D01*
Y158891D01*
Y158910D01*
Y159558D01*
X1407981Y159965D01*
X1408055Y160317D01*
X1408166Y160613D01*
X1408277Y160873D01*
X1408407Y161058D01*
X1408499Y161206D01*
X1408573Y161280D01*
X1408610Y161317D01*
X1408870Y161521D01*
X1409147Y161687D01*
X1409444Y161798D01*
X1409740Y161872D01*
X1409999Y161910D01*
X1410203Y161947D01*
X1411610D01*
X1412017Y161928D01*
D02*
G37*
G36*
X1421979D02*
X1422053Y161910D01*
X1422090Y161872D01*
X1422128Y161817D01*
X1422164Y161724D01*
Y161706D01*
Y161687D01*
Y152151D01*
X1422146Y152059D01*
X1422128Y152003D01*
X1422016Y151929D01*
X1421924Y151892D01*
X1420905D01*
X1420813Y151910D01*
X1420757Y151929D01*
X1420683Y152022D01*
X1420646Y152114D01*
Y152133D01*
Y152151D01*
Y155595D01*
X1420609Y155688D01*
X1420554Y155725D01*
X1420498Y155744D01*
X1418869D01*
X1417202Y152151D01*
X1417146Y152059D01*
X1417072Y152003D01*
X1416906Y151929D01*
X1416832Y151910D01*
X1416758Y151892D01*
X1415739D01*
X1415628Y151910D01*
X1415554Y151947D01*
X1415517Y151985D01*
X1415499Y152040D01*
X1415517Y152151D01*
X1415536Y152170D01*
Y152188D01*
X1417276Y155855D01*
Y155929D01*
X1417017Y156040D01*
X1416776Y156151D01*
X1416573Y156318D01*
X1416406Y156484D01*
X1416258Y156651D01*
X1416147Y156854D01*
X1416035Y157040D01*
X1415961Y157225D01*
X1415850Y157595D01*
X1415813Y157762D01*
X1415795Y157891D01*
Y158021D01*
X1415776Y158114D01*
Y158169D01*
Y158188D01*
Y159521D01*
X1415813Y159928D01*
X1415887Y160280D01*
X1415980Y160576D01*
X1416110Y160835D01*
X1416239Y161039D01*
X1416332Y161187D01*
X1416406Y161261D01*
X1416443Y161298D01*
X1416702Y161521D01*
X1416998Y161669D01*
X1417295Y161780D01*
X1417572Y161872D01*
X1417832Y161910D01*
X1418035Y161928D01*
X1418109Y161947D01*
X1421887D01*
X1421979Y161928D01*
D02*
G37*
G36*
X1404222D02*
X1404592Y161854D01*
X1404907Y161743D01*
X1405166Y161632D01*
X1405370Y161521D01*
X1405518Y161409D01*
X1405592Y161336D01*
X1405629Y161317D01*
X1405833Y161058D01*
X1405999Y160780D01*
X1406111Y160465D01*
X1406185Y160187D01*
X1406222Y159928D01*
X1406240Y159706D01*
X1406259Y159632D01*
Y159576D01*
Y159539D01*
Y159521D01*
Y154318D01*
X1406240Y153910D01*
X1406166Y153559D01*
X1406055Y153244D01*
X1405944Y152985D01*
X1405833Y152781D01*
X1405722Y152633D01*
X1405648Y152559D01*
X1405629Y152522D01*
X1405370Y152318D01*
X1405074Y152151D01*
X1404777Y152040D01*
X1404481Y151966D01*
X1404222Y151929D01*
X1404000Y151910D01*
X1403926Y151892D01*
X1402259D01*
X1401852Y151910D01*
X1401500Y151985D01*
X1401185Y152096D01*
X1400945Y152207D01*
X1400741Y152318D01*
X1400593Y152429D01*
X1400519Y152503D01*
X1400482Y152522D01*
X1400259Y152781D01*
X1400111Y153077D01*
X1400000Y153373D01*
X1399908Y153670D01*
X1399870Y153929D01*
X1399852Y154132D01*
X1399834Y154207D01*
Y154262D01*
Y154299D01*
Y154318D01*
Y159521D01*
X1399852Y159928D01*
X1399926Y160299D01*
X1400037Y160595D01*
X1400148Y160854D01*
X1400278Y161058D01*
X1400370Y161206D01*
X1400444Y161280D01*
X1400482Y161317D01*
X1400741Y161521D01*
X1401019Y161687D01*
X1401315Y161798D01*
X1401611Y161872D01*
X1401870Y161910D01*
X1402074Y161947D01*
X1403815D01*
X1404222Y161928D01*
D02*
G37*
G36*
X1395507Y89538D02*
X1395878Y89464D01*
X1396192Y89353D01*
X1396452Y89242D01*
X1396655Y89131D01*
X1396804Y89019D01*
X1396878Y88946D01*
X1396915Y88927D01*
X1397118Y88668D01*
X1397285Y88390D01*
X1397396Y88094D01*
X1397470Y87816D01*
X1397507Y87557D01*
X1397526Y87353D01*
X1397544Y87279D01*
Y87223D01*
Y87186D01*
Y87168D01*
Y86557D01*
X1397526Y86464D01*
X1397507Y86390D01*
X1397470Y86353D01*
X1397415Y86316D01*
X1397322Y86279D01*
X1396267D01*
X1396174Y86298D01*
X1396118Y86316D01*
X1396044Y86427D01*
X1396007Y86520D01*
Y86538D01*
Y86557D01*
Y87131D01*
X1395989Y87353D01*
X1395970Y87520D01*
X1395933Y87668D01*
X1395878Y87797D01*
X1395822Y87890D01*
X1395785Y87946D01*
X1395767Y87983D01*
X1395748Y88001D01*
X1395637Y88094D01*
X1395489Y88149D01*
X1395211Y88223D01*
X1395081Y88242D01*
X1394970Y88260D01*
X1394119D01*
X1393915Y88242D01*
X1393730Y88205D01*
X1393563Y88149D01*
X1393434Y88094D01*
X1393322Y88001D01*
X1393230Y87908D01*
X1393082Y87705D01*
X1392989Y87483D01*
X1392952Y87316D01*
X1392934Y87242D01*
Y87186D01*
Y87149D01*
Y87131D01*
Y86612D01*
X1392971Y86335D01*
X1393045Y86075D01*
X1393174Y85835D01*
X1393304Y85631D01*
X1393452Y85464D01*
X1393582Y85353D01*
X1393656Y85261D01*
X1393693Y85242D01*
X1396655Y82835D01*
X1396804Y82705D01*
X1396933Y82576D01*
X1397137Y82298D01*
X1397285Y82020D01*
X1397378Y81779D01*
X1397452Y81539D01*
X1397470Y81372D01*
X1397489Y81298D01*
Y81243D01*
Y81224D01*
Y81206D01*
Y79761D01*
X1397470Y79669D01*
X1397433Y79613D01*
X1397341Y79539D01*
X1397229Y79502D01*
X1391693D01*
X1391600Y79521D01*
X1391526Y79539D01*
X1391489Y79576D01*
X1391452Y79632D01*
X1391415Y79724D01*
Y79743D01*
Y79761D01*
Y80595D01*
X1391434Y80687D01*
X1391452Y80743D01*
X1391545Y80817D01*
X1391656Y80854D01*
X1395767D01*
Y81354D01*
X1395748Y81502D01*
X1395711Y81631D01*
X1395656Y81761D01*
X1395582Y81854D01*
X1395526Y81946D01*
X1395470Y82002D01*
X1395433Y82039D01*
X1395415Y82057D01*
X1392397Y84520D01*
X1392230Y84668D01*
X1392082Y84835D01*
X1391952Y85001D01*
X1391841Y85168D01*
X1391674Y85501D01*
X1391563Y85816D01*
X1391508Y86094D01*
X1391489Y86205D01*
X1391471Y86316D01*
X1391452Y86409D01*
Y86464D01*
Y86501D01*
Y86520D01*
Y87168D01*
X1391471Y87575D01*
X1391545Y87927D01*
X1391656Y88223D01*
X1391767Y88483D01*
X1391897Y88668D01*
X1391989Y88816D01*
X1392063Y88890D01*
X1392100Y88927D01*
X1392360Y89131D01*
X1392637Y89297D01*
X1392934Y89408D01*
X1393230Y89482D01*
X1393489Y89520D01*
X1393693Y89557D01*
X1395100D01*
X1395507Y89538D01*
D02*
G37*
G36*
X1379602D02*
X1379972Y89464D01*
X1380287Y89353D01*
X1380546Y89242D01*
X1380750Y89131D01*
X1380898Y89019D01*
X1380972Y88946D01*
X1381009Y88927D01*
X1381213Y88668D01*
X1381379Y88390D01*
X1381490Y88094D01*
X1381564Y87816D01*
X1381602Y87557D01*
X1381620Y87353D01*
X1381638Y87279D01*
Y87223D01*
Y87186D01*
Y87168D01*
Y86557D01*
X1381620Y86464D01*
X1381602Y86390D01*
X1381564Y86353D01*
X1381509Y86316D01*
X1381416Y86279D01*
X1380361D01*
X1380268Y86298D01*
X1380213Y86316D01*
X1380139Y86427D01*
X1380102Y86520D01*
Y86538D01*
Y86557D01*
Y87131D01*
X1380083Y87353D01*
X1380065Y87520D01*
X1380027Y87668D01*
X1379972Y87797D01*
X1379916Y87890D01*
X1379879Y87946D01*
X1379861Y87983D01*
X1379842Y88001D01*
X1379731Y88094D01*
X1379583Y88149D01*
X1379305Y88223D01*
X1379176Y88242D01*
X1379065Y88260D01*
X1378213D01*
X1378009Y88242D01*
X1377824Y88205D01*
X1377657Y88149D01*
X1377528Y88094D01*
X1377417Y88001D01*
X1377324Y87908D01*
X1377176Y87705D01*
X1377083Y87483D01*
X1377046Y87316D01*
X1377028Y87242D01*
Y87186D01*
Y87149D01*
Y87131D01*
Y86612D01*
X1377065Y86335D01*
X1377139Y86075D01*
X1377269Y85835D01*
X1377398Y85631D01*
X1377546Y85464D01*
X1377676Y85353D01*
X1377750Y85261D01*
X1377787Y85242D01*
X1380750Y82835D01*
X1380898Y82705D01*
X1381027Y82576D01*
X1381231Y82298D01*
X1381379Y82020D01*
X1381472Y81779D01*
X1381546Y81539D01*
X1381564Y81372D01*
X1381583Y81298D01*
Y81243D01*
Y81224D01*
Y81206D01*
Y79761D01*
X1381564Y79669D01*
X1381527Y79613D01*
X1381435Y79539D01*
X1381324Y79502D01*
X1375787D01*
X1375695Y79521D01*
X1375621Y79539D01*
X1375584Y79576D01*
X1375547Y79632D01*
X1375509Y79724D01*
Y79743D01*
Y79761D01*
Y80595D01*
X1375528Y80687D01*
X1375547Y80743D01*
X1375639Y80817D01*
X1375750Y80854D01*
X1379861D01*
Y81354D01*
X1379842Y81502D01*
X1379805Y81631D01*
X1379750Y81761D01*
X1379676Y81854D01*
X1379620Y81946D01*
X1379565Y82002D01*
X1379528Y82039D01*
X1379509Y82057D01*
X1376491Y84520D01*
X1376324Y84668D01*
X1376176Y84835D01*
X1376046Y85001D01*
X1375935Y85168D01*
X1375769Y85501D01*
X1375658Y85816D01*
X1375602Y86094D01*
X1375584Y86205D01*
X1375565Y86316D01*
X1375547Y86409D01*
Y86464D01*
Y86501D01*
Y86520D01*
Y87168D01*
X1375565Y87575D01*
X1375639Y87927D01*
X1375750Y88223D01*
X1375861Y88483D01*
X1375991Y88668D01*
X1376084Y88816D01*
X1376158Y88890D01*
X1376195Y88927D01*
X1376454Y89131D01*
X1376732Y89297D01*
X1377028Y89408D01*
X1377324Y89482D01*
X1377583Y89520D01*
X1377787Y89557D01*
X1379194D01*
X1379602Y89538D01*
D02*
G37*
G36*
X1405469D02*
X1405543Y89520D01*
X1405580Y89482D01*
X1405618Y89427D01*
X1405654Y89334D01*
Y89316D01*
Y89297D01*
Y79761D01*
X1405636Y79669D01*
X1405618Y79613D01*
X1405506Y79539D01*
X1405414Y79502D01*
X1404395D01*
X1404303Y79521D01*
X1404247Y79539D01*
X1404173Y79632D01*
X1404136Y79724D01*
Y79743D01*
Y79761D01*
Y83205D01*
X1404099Y83298D01*
X1404044Y83335D01*
X1403988Y83354D01*
X1402359D01*
X1400692Y79761D01*
X1400636Y79669D01*
X1400562Y79613D01*
X1400396Y79539D01*
X1400322Y79521D01*
X1400248Y79502D01*
X1399229D01*
X1399118Y79521D01*
X1399044Y79557D01*
X1399007Y79595D01*
X1398988Y79650D01*
X1399007Y79761D01*
X1399026Y79780D01*
Y79798D01*
X1400766Y83465D01*
Y83539D01*
X1400507Y83650D01*
X1400266Y83761D01*
X1400063Y83927D01*
X1399896Y84094D01*
X1399748Y84261D01*
X1399637Y84464D01*
X1399525Y84650D01*
X1399451Y84835D01*
X1399340Y85205D01*
X1399303Y85372D01*
X1399285Y85501D01*
Y85631D01*
X1399266Y85724D01*
Y85779D01*
Y85798D01*
Y87131D01*
X1399303Y87538D01*
X1399377Y87890D01*
X1399470Y88186D01*
X1399600Y88446D01*
X1399729Y88649D01*
X1399822Y88797D01*
X1399896Y88871D01*
X1399933Y88908D01*
X1400192Y89131D01*
X1400488Y89279D01*
X1400785Y89390D01*
X1401062Y89482D01*
X1401322Y89520D01*
X1401525Y89538D01*
X1401599Y89557D01*
X1405377D01*
X1405469Y89538D01*
D02*
G37*
G36*
X1387712D02*
X1388082Y89464D01*
X1388397Y89353D01*
X1388656Y89242D01*
X1388860Y89131D01*
X1389008Y89019D01*
X1389082Y88946D01*
X1389119Y88927D01*
X1389323Y88668D01*
X1389489Y88390D01*
X1389601Y88075D01*
X1389675Y87797D01*
X1389712Y87538D01*
X1389730Y87316D01*
X1389749Y87242D01*
Y87186D01*
Y87149D01*
Y87131D01*
Y81928D01*
X1389730Y81520D01*
X1389656Y81168D01*
X1389545Y80854D01*
X1389434Y80595D01*
X1389323Y80391D01*
X1389212Y80243D01*
X1389138Y80169D01*
X1389119Y80132D01*
X1388860Y79928D01*
X1388564Y79761D01*
X1388267Y79650D01*
X1387971Y79576D01*
X1387712Y79539D01*
X1387490Y79521D01*
X1387416Y79502D01*
X1385749D01*
X1385342Y79521D01*
X1384990Y79595D01*
X1384675Y79706D01*
X1384435Y79817D01*
X1384231Y79928D01*
X1384083Y80039D01*
X1384009Y80113D01*
X1383972Y80132D01*
X1383749Y80391D01*
X1383601Y80687D01*
X1383490Y80983D01*
X1383398Y81280D01*
X1383360Y81539D01*
X1383342Y81742D01*
X1383324Y81817D01*
Y81872D01*
Y81909D01*
Y81928D01*
Y87131D01*
X1383342Y87538D01*
X1383416Y87908D01*
X1383527Y88205D01*
X1383638Y88464D01*
X1383768Y88668D01*
X1383860Y88816D01*
X1383934Y88890D01*
X1383972Y88927D01*
X1384231Y89131D01*
X1384509Y89297D01*
X1384805Y89408D01*
X1385101Y89482D01*
X1385360Y89520D01*
X1385564Y89557D01*
X1387305D01*
X1387712Y89538D01*
D02*
G37*
G36*
X1395770Y126368D02*
X1395937Y126312D01*
X1395992Y126275D01*
X1396048Y126238D01*
X1396085Y126220D01*
X1396104D01*
X1397733Y125239D01*
X1397807Y125183D01*
X1397863Y125127D01*
X1397918Y124998D01*
X1397955Y124905D01*
Y124887D01*
Y124868D01*
Y123942D01*
X1397937Y123850D01*
X1397900Y123794D01*
X1397863Y123757D01*
X1397696D01*
X1397659Y123776D01*
X1397641D01*
X1395937Y124776D01*
Y116591D01*
X1395918Y116499D01*
X1395900Y116443D01*
X1395789Y116369D01*
X1395696Y116332D01*
X1394641D01*
X1394567Y116350D01*
X1394493Y116369D01*
X1394437Y116462D01*
X1394400Y116554D01*
Y116573D01*
Y116591D01*
Y126127D01*
X1394419Y126220D01*
X1394437Y126275D01*
X1394530Y126349D01*
X1394622Y126386D01*
X1395604D01*
X1395770Y126368D01*
D02*
G37*
G36*
X1411509D02*
X1411880Y126294D01*
X1412195Y126183D01*
X1412454Y126072D01*
X1412657Y125961D01*
X1412806Y125850D01*
X1412880Y125775D01*
X1412917Y125757D01*
X1413120Y125498D01*
X1413287Y125220D01*
X1413398Y124924D01*
X1413472Y124646D01*
X1413509Y124387D01*
X1413528Y124183D01*
X1413546Y124109D01*
Y124053D01*
Y124016D01*
Y123998D01*
Y123387D01*
X1413528Y123294D01*
X1413509Y123220D01*
X1413472Y123183D01*
X1413417Y123146D01*
X1413324Y123109D01*
X1412269D01*
X1412176Y123128D01*
X1412121Y123146D01*
X1412046Y123257D01*
X1412009Y123350D01*
Y123368D01*
Y123387D01*
Y123961D01*
X1411991Y124183D01*
X1411972Y124350D01*
X1411935Y124498D01*
X1411880Y124627D01*
X1411824Y124720D01*
X1411787Y124776D01*
X1411769Y124813D01*
X1411750Y124831D01*
X1411639Y124924D01*
X1411491Y124979D01*
X1411213Y125053D01*
X1411084Y125072D01*
X1410972Y125090D01*
X1410121D01*
X1409917Y125072D01*
X1409732Y125035D01*
X1409565Y124979D01*
X1409436Y124924D01*
X1409324Y124831D01*
X1409232Y124739D01*
X1409084Y124535D01*
X1408991Y124313D01*
X1408954Y124146D01*
X1408936Y124072D01*
Y124016D01*
Y123979D01*
Y123961D01*
Y123442D01*
X1408973Y123165D01*
X1409047Y122905D01*
X1409176Y122665D01*
X1409306Y122461D01*
X1409454Y122294D01*
X1409584Y122183D01*
X1409658Y122091D01*
X1409695Y122072D01*
X1412657Y119665D01*
X1412806Y119535D01*
X1412935Y119406D01*
X1413139Y119128D01*
X1413287Y118850D01*
X1413380Y118610D01*
X1413454Y118369D01*
X1413472Y118202D01*
X1413491Y118128D01*
Y118073D01*
Y118054D01*
Y118035D01*
Y116591D01*
X1413472Y116499D01*
X1413435Y116443D01*
X1413343Y116369D01*
X1413232Y116332D01*
X1407695D01*
X1407602Y116350D01*
X1407528Y116369D01*
X1407491Y116406D01*
X1407454Y116462D01*
X1407417Y116554D01*
Y116573D01*
Y116591D01*
Y117424D01*
X1407436Y117517D01*
X1407454Y117573D01*
X1407547Y117647D01*
X1407658Y117684D01*
X1411769D01*
Y118184D01*
X1411750Y118332D01*
X1411713Y118461D01*
X1411658Y118591D01*
X1411584Y118684D01*
X1411528Y118776D01*
X1411472Y118832D01*
X1411435Y118869D01*
X1411417Y118887D01*
X1408399Y121350D01*
X1408232Y121498D01*
X1408084Y121665D01*
X1407954Y121831D01*
X1407843Y121998D01*
X1407677Y122331D01*
X1407565Y122646D01*
X1407510Y122924D01*
X1407491Y123035D01*
X1407473Y123146D01*
X1407454Y123239D01*
Y123294D01*
Y123331D01*
Y123350D01*
Y123998D01*
X1407473Y124405D01*
X1407547Y124757D01*
X1407658Y125053D01*
X1407769Y125313D01*
X1407899Y125498D01*
X1407991Y125646D01*
X1408065Y125720D01*
X1408102Y125757D01*
X1408362Y125961D01*
X1408639Y126127D01*
X1408936Y126238D01*
X1409232Y126312D01*
X1409491Y126349D01*
X1409695Y126386D01*
X1411102D01*
X1411509Y126368D01*
D02*
G37*
G36*
X1421471D02*
X1421545Y126349D01*
X1421582Y126312D01*
X1421620Y126257D01*
X1421656Y126164D01*
Y126146D01*
Y126127D01*
Y116591D01*
X1421638Y116499D01*
X1421620Y116443D01*
X1421508Y116369D01*
X1421416Y116332D01*
X1420397D01*
X1420305Y116350D01*
X1420249Y116369D01*
X1420175Y116462D01*
X1420138Y116554D01*
Y116573D01*
Y116591D01*
Y120035D01*
X1420101Y120128D01*
X1420046Y120165D01*
X1419990Y120183D01*
X1418361D01*
X1416694Y116591D01*
X1416638Y116499D01*
X1416564Y116443D01*
X1416398Y116369D01*
X1416324Y116350D01*
X1416250Y116332D01*
X1415231D01*
X1415120Y116350D01*
X1415046Y116388D01*
X1415009Y116425D01*
X1414991Y116480D01*
X1415009Y116591D01*
X1415028Y116610D01*
Y116628D01*
X1416768Y120295D01*
Y120369D01*
X1416509Y120480D01*
X1416268Y120591D01*
X1416064Y120758D01*
X1415898Y120924D01*
X1415750Y121091D01*
X1415639Y121294D01*
X1415527Y121480D01*
X1415453Y121665D01*
X1415342Y122035D01*
X1415305Y122202D01*
X1415287Y122331D01*
Y122461D01*
X1415268Y122554D01*
Y122609D01*
Y122628D01*
Y123961D01*
X1415305Y124368D01*
X1415379Y124720D01*
X1415472Y125016D01*
X1415602Y125275D01*
X1415731Y125479D01*
X1415824Y125627D01*
X1415898Y125701D01*
X1415935Y125738D01*
X1416194Y125961D01*
X1416490Y126109D01*
X1416787Y126220D01*
X1417064Y126312D01*
X1417324Y126349D01*
X1417527Y126368D01*
X1417601Y126386D01*
X1421379D01*
X1421471Y126368D01*
D02*
G37*
G36*
X1403714D02*
X1404084Y126294D01*
X1404399Y126183D01*
X1404658Y126072D01*
X1404862Y125961D01*
X1405010Y125850D01*
X1405084Y125775D01*
X1405121Y125757D01*
X1405325Y125498D01*
X1405491Y125220D01*
X1405603Y124905D01*
X1405677Y124627D01*
X1405714Y124368D01*
X1405732Y124146D01*
X1405751Y124072D01*
Y124016D01*
Y123979D01*
Y123961D01*
Y118758D01*
X1405732Y118350D01*
X1405658Y117999D01*
X1405547Y117684D01*
X1405436Y117424D01*
X1405325Y117221D01*
X1405214Y117073D01*
X1405140Y116999D01*
X1405121Y116962D01*
X1404862Y116758D01*
X1404566Y116591D01*
X1404269Y116480D01*
X1403973Y116406D01*
X1403714Y116369D01*
X1403492Y116350D01*
X1403418Y116332D01*
X1401751D01*
X1401344Y116350D01*
X1400992Y116425D01*
X1400677Y116536D01*
X1400437Y116647D01*
X1400233Y116758D01*
X1400085Y116869D01*
X1400011Y116943D01*
X1399974Y116962D01*
X1399751Y117221D01*
X1399603Y117517D01*
X1399492Y117813D01*
X1399400Y118110D01*
X1399362Y118369D01*
X1399344Y118573D01*
X1399326Y118647D01*
Y118702D01*
Y118739D01*
Y118758D01*
Y123961D01*
X1399344Y124368D01*
X1399418Y124739D01*
X1399529Y125035D01*
X1399640Y125294D01*
X1399770Y125498D01*
X1399863Y125646D01*
X1399937Y125720D01*
X1399974Y125757D01*
X1400233Y125961D01*
X1400511Y126127D01*
X1400807Y126238D01*
X1401103Y126312D01*
X1401362Y126349D01*
X1401566Y126386D01*
X1403307D01*
X1403714Y126368D01*
D02*
G37*
G36*
X1409223Y341506D02*
X1409594Y341432D01*
X1409908Y341321D01*
X1410168Y341210D01*
X1410371Y341099D01*
X1410520Y340988D01*
X1410594Y340914D01*
X1410631Y340895D01*
X1410834Y340636D01*
X1411001Y340358D01*
X1411112Y340062D01*
X1411186Y339784D01*
X1411223Y339525D01*
X1411242Y339321D01*
X1411260Y339247D01*
Y339191D01*
Y339154D01*
Y339136D01*
Y338525D01*
X1411242Y338432D01*
X1411223Y338358D01*
X1411186Y338321D01*
X1411131Y338284D01*
X1411038Y338247D01*
X1409983D01*
X1409890Y338266D01*
X1409834Y338284D01*
X1409760Y338395D01*
X1409723Y338488D01*
Y338506D01*
Y338525D01*
Y339099D01*
X1409705Y339321D01*
X1409686Y339488D01*
X1409649Y339636D01*
X1409594Y339765D01*
X1409538Y339858D01*
X1409501Y339914D01*
X1409483Y339951D01*
X1409464Y339969D01*
X1409353Y340062D01*
X1409205Y340117D01*
X1408927Y340191D01*
X1408797Y340210D01*
X1408686Y340228D01*
X1407835D01*
X1407631Y340210D01*
X1407446Y340173D01*
X1407279Y340117D01*
X1407150Y340062D01*
X1407039Y339969D01*
X1406946Y339877D01*
X1406798Y339673D01*
X1406705Y339451D01*
X1406668Y339284D01*
X1406650Y339210D01*
Y339154D01*
Y339117D01*
Y339099D01*
Y338580D01*
X1406687Y338303D01*
X1406761Y338043D01*
X1406890Y337803D01*
X1407020Y337599D01*
X1407168Y337432D01*
X1407298Y337321D01*
X1407372Y337229D01*
X1407409Y337210D01*
X1410371Y334803D01*
X1410520Y334673D01*
X1410649Y334544D01*
X1410853Y334266D01*
X1411001Y333988D01*
X1411094Y333747D01*
X1411168Y333507D01*
X1411186Y333340D01*
X1411205Y333266D01*
Y333211D01*
Y333192D01*
Y333173D01*
Y331729D01*
X1411186Y331637D01*
X1411149Y331581D01*
X1411057Y331507D01*
X1410945Y331470D01*
X1405409D01*
X1405316Y331488D01*
X1405242Y331507D01*
X1405205Y331544D01*
X1405168Y331600D01*
X1405131Y331692D01*
Y331711D01*
Y331729D01*
Y332562D01*
X1405150Y332655D01*
X1405168Y332711D01*
X1405261Y332785D01*
X1405372Y332822D01*
X1409483D01*
Y333322D01*
X1409464Y333470D01*
X1409427Y333599D01*
X1409372Y333729D01*
X1409297Y333822D01*
X1409242Y333914D01*
X1409186Y333970D01*
X1409149Y334007D01*
X1409131Y334025D01*
X1406113Y336488D01*
X1405946Y336636D01*
X1405798Y336803D01*
X1405668Y336969D01*
X1405557Y337136D01*
X1405390Y337469D01*
X1405279Y337784D01*
X1405224Y338062D01*
X1405205Y338173D01*
X1405187Y338284D01*
X1405168Y338377D01*
Y338432D01*
Y338469D01*
Y338488D01*
Y339136D01*
X1405187Y339543D01*
X1405261Y339895D01*
X1405372Y340191D01*
X1405483Y340451D01*
X1405613Y340636D01*
X1405705Y340784D01*
X1405779Y340858D01*
X1405816Y340895D01*
X1406076Y341099D01*
X1406353Y341265D01*
X1406650Y341376D01*
X1406946Y341450D01*
X1407205Y341488D01*
X1407409Y341525D01*
X1408816D01*
X1409223Y341506D01*
D02*
G37*
G36*
X1401595D02*
X1401965Y341432D01*
X1402280Y341321D01*
X1402539Y341210D01*
X1402743Y341099D01*
X1402891Y340988D01*
X1402965Y340914D01*
X1403002Y340895D01*
X1403206Y340636D01*
X1403372Y340358D01*
X1403483Y340062D01*
X1403557Y339784D01*
X1403594Y339525D01*
X1403613Y339321D01*
X1403631Y339247D01*
Y339191D01*
Y339154D01*
Y339136D01*
Y338525D01*
X1403613Y338432D01*
X1403594Y338358D01*
X1403557Y338321D01*
X1403502Y338284D01*
X1403409Y338247D01*
X1402354D01*
X1402261Y338266D01*
X1402206Y338284D01*
X1402132Y338395D01*
X1402095Y338488D01*
Y338506D01*
Y338525D01*
Y339099D01*
X1402076Y339321D01*
X1402057Y339488D01*
X1402021Y339636D01*
X1401965Y339765D01*
X1401909Y339858D01*
X1401872Y339914D01*
X1401854Y339951D01*
X1401835Y339969D01*
X1401724Y340062D01*
X1401576Y340117D01*
X1401298Y340191D01*
X1401169Y340210D01*
X1401058Y340228D01*
X1400206D01*
X1400002Y340210D01*
X1399817Y340173D01*
X1399650Y340117D01*
X1399521Y340062D01*
X1399410Y339969D01*
X1399317Y339877D01*
X1399169Y339673D01*
X1399076Y339451D01*
X1399039Y339284D01*
X1399021Y339210D01*
Y339154D01*
Y339117D01*
Y339099D01*
Y338580D01*
X1399058Y338303D01*
X1399132Y338043D01*
X1399261Y337803D01*
X1399391Y337599D01*
X1399539Y337432D01*
X1399669Y337321D01*
X1399743Y337229D01*
X1399780Y337210D01*
X1402743Y334803D01*
X1402891Y334673D01*
X1403020Y334544D01*
X1403224Y334266D01*
X1403372Y333988D01*
X1403465Y333747D01*
X1403539Y333507D01*
X1403557Y333340D01*
X1403576Y333266D01*
Y333211D01*
Y333192D01*
Y333173D01*
Y331729D01*
X1403557Y331637D01*
X1403520Y331581D01*
X1403428Y331507D01*
X1403317Y331470D01*
X1397780D01*
X1397688Y331488D01*
X1397614Y331507D01*
X1397576Y331544D01*
X1397539Y331600D01*
X1397502Y331692D01*
Y331711D01*
Y331729D01*
Y332562D01*
X1397521Y332655D01*
X1397539Y332711D01*
X1397632Y332785D01*
X1397743Y332822D01*
X1401854D01*
Y333322D01*
X1401835Y333470D01*
X1401798Y333599D01*
X1401743Y333729D01*
X1401669Y333822D01*
X1401613Y333914D01*
X1401557Y333970D01*
X1401521Y334007D01*
X1401502Y334025D01*
X1398484Y336488D01*
X1398317Y336636D01*
X1398169Y336803D01*
X1398039Y336969D01*
X1397928Y337136D01*
X1397762Y337469D01*
X1397650Y337784D01*
X1397595Y338062D01*
X1397576Y338173D01*
X1397558Y338284D01*
X1397539Y338377D01*
Y338432D01*
Y338469D01*
Y338488D01*
Y339136D01*
X1397558Y339543D01*
X1397632Y339895D01*
X1397743Y340191D01*
X1397854Y340451D01*
X1397984Y340636D01*
X1398076Y340784D01*
X1398150Y340858D01*
X1398188Y340895D01*
X1398447Y341099D01*
X1398725Y341265D01*
X1399021Y341376D01*
X1399317Y341450D01*
X1399576Y341488D01*
X1399780Y341525D01*
X1401187D01*
X1401595Y341506D01*
D02*
G37*
G36*
X1393966D02*
X1394336Y341432D01*
X1394651Y341321D01*
X1394910Y341210D01*
X1395114Y341099D01*
X1395262Y340988D01*
X1395336Y340914D01*
X1395373Y340895D01*
X1395577Y340636D01*
X1395743Y340358D01*
X1395854Y340062D01*
X1395928Y339784D01*
X1395966Y339525D01*
X1395984Y339321D01*
X1396003Y339247D01*
Y339191D01*
Y339154D01*
Y339136D01*
Y338525D01*
X1395984Y338432D01*
X1395966Y338358D01*
X1395928Y338321D01*
X1395873Y338284D01*
X1395780Y338247D01*
X1394725D01*
X1394632Y338266D01*
X1394577Y338284D01*
X1394503Y338395D01*
X1394466Y338488D01*
Y338506D01*
Y338525D01*
Y339099D01*
X1394447Y339321D01*
X1394429Y339488D01*
X1394392Y339636D01*
X1394336Y339765D01*
X1394281Y339858D01*
X1394243Y339914D01*
X1394225Y339951D01*
X1394207Y339969D01*
X1394095Y340062D01*
X1393947Y340117D01*
X1393669Y340191D01*
X1393540Y340210D01*
X1393429Y340228D01*
X1392577D01*
X1392373Y340210D01*
X1392188Y340173D01*
X1392021Y340117D01*
X1391892Y340062D01*
X1391781Y339969D01*
X1391688Y339877D01*
X1391540Y339673D01*
X1391447Y339451D01*
X1391411Y339284D01*
X1391392Y339210D01*
Y339154D01*
Y339117D01*
Y339099D01*
Y338580D01*
X1391429Y338303D01*
X1391503Y338043D01*
X1391633Y337803D01*
X1391762Y337599D01*
X1391910Y337432D01*
X1392040Y337321D01*
X1392114Y337229D01*
X1392151Y337210D01*
X1395114Y334803D01*
X1395262Y334673D01*
X1395392Y334544D01*
X1395595Y334266D01*
X1395743Y333988D01*
X1395836Y333747D01*
X1395910Y333507D01*
X1395928Y333340D01*
X1395947Y333266D01*
Y333211D01*
Y333192D01*
Y333173D01*
Y331729D01*
X1395928Y331637D01*
X1395892Y331581D01*
X1395799Y331507D01*
X1395688Y331470D01*
X1390151D01*
X1390059Y331488D01*
X1389985Y331507D01*
X1389948Y331544D01*
X1389911Y331600D01*
X1389874Y331692D01*
Y331711D01*
Y331729D01*
Y332562D01*
X1389892Y332655D01*
X1389911Y332711D01*
X1390003Y332785D01*
X1390114Y332822D01*
X1394225D01*
Y333322D01*
X1394207Y333470D01*
X1394169Y333599D01*
X1394114Y333729D01*
X1394040Y333822D01*
X1393984Y333914D01*
X1393929Y333970D01*
X1393892Y334007D01*
X1393873Y334025D01*
X1390855Y336488D01*
X1390688Y336636D01*
X1390540Y336803D01*
X1390411Y336969D01*
X1390300Y337136D01*
X1390133Y337469D01*
X1390022Y337784D01*
X1389966Y338062D01*
X1389948Y338173D01*
X1389929Y338284D01*
X1389911Y338377D01*
Y338432D01*
Y338469D01*
Y338488D01*
Y339136D01*
X1389929Y339543D01*
X1390003Y339895D01*
X1390114Y340191D01*
X1390225Y340451D01*
X1390355Y340636D01*
X1390448Y340784D01*
X1390522Y340858D01*
X1390559Y340895D01*
X1390818Y341099D01*
X1391096Y341265D01*
X1391392Y341376D01*
X1391688Y341450D01*
X1391947Y341488D01*
X1392151Y341525D01*
X1393558D01*
X1393966Y341506D01*
D02*
G37*
G36*
X1419185D02*
X1419259Y341488D01*
X1419297Y341450D01*
X1419333Y341395D01*
X1419371Y341302D01*
Y341284D01*
Y341265D01*
Y331729D01*
X1419352Y331637D01*
X1419333Y331581D01*
X1419222Y331507D01*
X1419130Y331470D01*
X1418111D01*
X1418019Y331488D01*
X1417963Y331507D01*
X1417889Y331600D01*
X1417852Y331692D01*
Y331711D01*
Y331729D01*
Y335173D01*
X1417815Y335266D01*
X1417760Y335303D01*
X1417704Y335322D01*
X1416075D01*
X1414408Y331729D01*
X1414353Y331637D01*
X1414279Y331581D01*
X1414112Y331507D01*
X1414038Y331488D01*
X1413964Y331470D01*
X1412945D01*
X1412834Y331488D01*
X1412760Y331525D01*
X1412723Y331563D01*
X1412704Y331618D01*
X1412723Y331729D01*
X1412742Y331748D01*
Y331766D01*
X1414482Y335433D01*
Y335507D01*
X1414223Y335618D01*
X1413982Y335729D01*
X1413779Y335896D01*
X1413612Y336062D01*
X1413464Y336229D01*
X1413353Y336432D01*
X1413241Y336618D01*
X1413168Y336803D01*
X1413056Y337173D01*
X1413019Y337340D01*
X1413001Y337469D01*
Y337599D01*
X1412982Y337692D01*
Y337747D01*
Y337766D01*
Y339099D01*
X1413019Y339506D01*
X1413093Y339858D01*
X1413186Y340154D01*
X1413316Y340414D01*
X1413445Y340617D01*
X1413538Y340765D01*
X1413612Y340839D01*
X1413649Y340876D01*
X1413908Y341099D01*
X1414204Y341247D01*
X1414501Y341358D01*
X1414778Y341450D01*
X1415038Y341488D01*
X1415241Y341506D01*
X1415315Y341525D01*
X1419093D01*
X1419185Y341506D01*
D02*
G37*
G36*
X1369882Y306962D02*
X1370048Y306906D01*
X1370104Y306869D01*
X1370159Y306832D01*
X1370196Y306814D01*
X1370215D01*
X1371844Y305833D01*
X1371918Y305777D01*
X1371974Y305721D01*
X1372030Y305592D01*
X1372067Y305499D01*
Y305481D01*
Y305462D01*
Y304536D01*
X1372048Y304444D01*
X1372011Y304388D01*
X1371974Y304351D01*
X1371807D01*
X1371770Y304370D01*
X1371752D01*
X1370048Y305370D01*
Y297185D01*
X1370030Y297093D01*
X1370011Y297037D01*
X1369900Y296963D01*
X1369807Y296926D01*
X1368752D01*
X1368678Y296945D01*
X1368604Y296963D01*
X1368548Y297056D01*
X1368511Y297148D01*
Y297167D01*
Y297185D01*
Y306721D01*
X1368530Y306814D01*
X1368548Y306869D01*
X1368641Y306943D01*
X1368734Y306980D01*
X1369715D01*
X1369882Y306962D01*
D02*
G37*
G36*
X1364753D02*
X1364919Y306906D01*
X1364975Y306869D01*
X1365030Y306832D01*
X1365067Y306814D01*
X1365086D01*
X1366715Y305833D01*
X1366789Y305777D01*
X1366845Y305721D01*
X1366900Y305592D01*
X1366938Y305499D01*
Y305481D01*
Y305462D01*
Y304536D01*
X1366919Y304444D01*
X1366882Y304388D01*
X1366845Y304351D01*
X1366678D01*
X1366641Y304370D01*
X1366623D01*
X1364919Y305370D01*
Y297185D01*
X1364901Y297093D01*
X1364882Y297037D01*
X1364771Y296963D01*
X1364678Y296926D01*
X1363623D01*
X1363549Y296945D01*
X1363475Y296963D01*
X1363419Y297056D01*
X1363382Y297148D01*
Y297167D01*
Y297185D01*
Y306721D01*
X1363401Y306814D01*
X1363419Y306869D01*
X1363512Y306943D01*
X1363604Y306980D01*
X1364586D01*
X1364753Y306962D01*
D02*
G37*
G36*
X1377344D02*
X1377714Y306888D01*
X1378029Y306777D01*
X1378288Y306666D01*
X1378492Y306555D01*
X1378640Y306444D01*
X1378714Y306369D01*
X1378751Y306351D01*
X1378955Y306092D01*
X1379121Y305814D01*
X1379232Y305518D01*
X1379307Y305240D01*
X1379344Y304981D01*
X1379362Y304777D01*
X1379381Y304703D01*
Y304647D01*
Y304610D01*
Y304592D01*
Y303981D01*
X1379362Y303888D01*
X1379344Y303814D01*
X1379307Y303777D01*
X1379251Y303740D01*
X1379158Y303703D01*
X1378103D01*
X1378010Y303722D01*
X1377955Y303740D01*
X1377881Y303851D01*
X1377844Y303944D01*
Y303962D01*
Y303981D01*
Y304555D01*
X1377825Y304777D01*
X1377807Y304944D01*
X1377770Y305092D01*
X1377714Y305221D01*
X1377659Y305314D01*
X1377622Y305370D01*
X1377603Y305407D01*
X1377585Y305425D01*
X1377473Y305518D01*
X1377325Y305573D01*
X1377047Y305647D01*
X1376918Y305666D01*
X1376807Y305684D01*
X1375955D01*
X1375751Y305666D01*
X1375566Y305629D01*
X1375400Y305573D01*
X1375270Y305518D01*
X1375159Y305425D01*
X1375066Y305333D01*
X1374918Y305129D01*
X1374825Y304907D01*
X1374789Y304740D01*
X1374770Y304666D01*
Y304610D01*
Y304573D01*
Y304555D01*
Y304036D01*
X1374807Y303759D01*
X1374881Y303499D01*
X1375011Y303259D01*
X1375140Y303055D01*
X1375289Y302888D01*
X1375418Y302777D01*
X1375492Y302685D01*
X1375529Y302666D01*
X1378492Y300259D01*
X1378640Y300129D01*
X1378770Y300000D01*
X1378973Y299722D01*
X1379121Y299444D01*
X1379214Y299203D01*
X1379288Y298963D01*
X1379307Y298796D01*
X1379325Y298722D01*
Y298667D01*
Y298648D01*
Y298629D01*
Y297185D01*
X1379307Y297093D01*
X1379270Y297037D01*
X1379177Y296963D01*
X1379066Y296926D01*
X1373529D01*
X1373437Y296945D01*
X1373363Y296963D01*
X1373326Y297000D01*
X1373289Y297056D01*
X1373252Y297148D01*
Y297167D01*
Y297185D01*
Y298018D01*
X1373270Y298111D01*
X1373289Y298167D01*
X1373381Y298241D01*
X1373492Y298278D01*
X1377603D01*
Y298778D01*
X1377585Y298926D01*
X1377547Y299055D01*
X1377492Y299185D01*
X1377418Y299278D01*
X1377362Y299370D01*
X1377307Y299426D01*
X1377270Y299463D01*
X1377251Y299481D01*
X1374233Y301944D01*
X1374066Y302092D01*
X1373918Y302259D01*
X1373789Y302425D01*
X1373678Y302592D01*
X1373511Y302925D01*
X1373400Y303240D01*
X1373344Y303518D01*
X1373326Y303629D01*
X1373307Y303740D01*
X1373289Y303833D01*
Y303888D01*
Y303925D01*
Y303944D01*
Y304592D01*
X1373307Y304999D01*
X1373381Y305351D01*
X1373492Y305647D01*
X1373604Y305907D01*
X1373733Y306092D01*
X1373826Y306240D01*
X1373900Y306314D01*
X1373937Y306351D01*
X1374196Y306555D01*
X1374474Y306721D01*
X1374770Y306832D01*
X1375066Y306906D01*
X1375325Y306943D01*
X1375529Y306980D01*
X1376936D01*
X1377344Y306962D01*
D02*
G37*
G36*
X1385584D02*
X1385954Y306888D01*
X1386250Y306777D01*
X1386510Y306666D01*
X1386713Y306555D01*
X1386861Y306444D01*
X1386935Y306369D01*
X1386972Y306351D01*
X1387176Y306092D01*
X1387343Y305814D01*
X1387454Y305499D01*
X1387528Y305221D01*
X1387565Y304962D01*
X1387583Y304740D01*
X1387602Y304666D01*
Y304610D01*
Y304573D01*
Y304555D01*
Y299352D01*
X1387583Y298944D01*
X1387509Y298592D01*
X1387398Y298278D01*
X1387287Y298018D01*
X1387176Y297815D01*
X1387065Y297667D01*
X1386991Y297593D01*
X1386972Y297556D01*
X1386713Y297352D01*
X1386417Y297185D01*
X1386121Y297074D01*
X1385843Y297000D01*
X1385584Y296963D01*
X1385361Y296945D01*
X1385287Y296926D01*
X1383362D01*
X1382954Y296945D01*
X1382603Y297019D01*
X1382288Y297130D01*
X1382047Y297241D01*
X1381843Y297352D01*
X1381695Y297463D01*
X1381621Y297537D01*
X1381584Y297556D01*
X1381362Y297815D01*
X1381214Y298111D01*
X1381103Y298407D01*
X1381010Y298704D01*
X1380973Y298963D01*
X1380954Y299167D01*
X1380936Y299241D01*
Y299296D01*
Y299333D01*
Y299352D01*
Y300092D01*
X1380954Y300185D01*
X1380973Y300259D01*
X1381029Y300296D01*
X1381066Y300333D01*
X1381177Y300370D01*
X1382195D01*
X1382288Y300352D01*
X1382362Y300333D01*
X1382399Y300278D01*
X1382436Y300240D01*
X1382473Y300129D01*
Y300111D01*
Y300092D01*
Y299407D01*
X1382491Y299203D01*
X1382529Y299018D01*
X1382584Y298870D01*
X1382640Y298741D01*
X1382732Y298629D01*
X1382825Y298518D01*
X1383028Y298389D01*
X1383251Y298296D01*
X1383417Y298259D01*
X1383491Y298241D01*
X1384954D01*
X1385158Y298259D01*
X1385325Y298296D01*
X1385473Y298352D01*
X1385602Y298426D01*
X1385713Y298518D01*
X1385806Y298611D01*
X1385936Y298833D01*
X1386028Y299037D01*
X1386065Y299222D01*
X1386084Y299296D01*
Y299352D01*
Y299389D01*
Y299407D01*
Y304499D01*
X1386065Y304703D01*
X1386028Y304888D01*
X1385972Y305036D01*
X1385898Y305166D01*
X1385824Y305296D01*
X1385732Y305388D01*
X1385510Y305518D01*
X1385306Y305610D01*
X1385121Y305647D01*
X1385065Y305666D01*
X1383602D01*
X1383399Y305647D01*
X1383232Y305610D01*
X1383084Y305555D01*
X1382954Y305481D01*
X1382843Y305388D01*
X1382751Y305296D01*
X1382621Y305092D01*
X1382529Y304870D01*
X1382491Y304685D01*
X1382473Y304610D01*
Y304555D01*
Y304518D01*
Y304499D01*
Y303814D01*
X1382454Y303722D01*
X1382436Y303647D01*
X1382380Y303610D01*
X1382325Y303573D01*
X1382232Y303536D01*
X1381214D01*
X1381121Y303555D01*
X1381047Y303573D01*
X1381010Y303629D01*
X1380973Y303685D01*
X1380936Y303777D01*
Y303796D01*
Y303814D01*
Y304555D01*
X1380954Y304962D01*
X1381029Y305333D01*
X1381140Y305629D01*
X1381251Y305888D01*
X1381380Y306092D01*
X1381473Y306240D01*
X1381547Y306314D01*
X1381584Y306351D01*
X1381843Y306555D01*
X1382121Y306721D01*
X1382417Y306832D01*
X1382714Y306906D01*
X1382973Y306943D01*
X1383177Y306980D01*
X1385176D01*
X1385584Y306962D01*
D02*
G37*
G36*
X1367692Y251844D02*
X1368062Y251770D01*
X1368377Y251659D01*
X1368636Y251548D01*
X1368840Y251437D01*
X1368988Y251325D01*
X1369062Y251252D01*
X1369099Y251233D01*
X1369303Y250974D01*
X1369469Y250696D01*
X1369581Y250400D01*
X1369655Y250122D01*
X1369692Y249863D01*
X1369710Y249659D01*
X1369729Y249585D01*
Y249529D01*
Y249492D01*
Y249474D01*
Y248863D01*
X1369710Y248770D01*
X1369692Y248696D01*
X1369655Y248659D01*
X1369599Y248622D01*
X1369506Y248585D01*
X1368451D01*
X1368358Y248604D01*
X1368303Y248622D01*
X1368229Y248733D01*
X1368192Y248826D01*
Y248844D01*
Y248863D01*
Y249437D01*
X1368173Y249659D01*
X1368155Y249826D01*
X1368118Y249974D01*
X1368062Y250103D01*
X1368007Y250196D01*
X1367970Y250252D01*
X1367951Y250289D01*
X1367932Y250307D01*
X1367821Y250400D01*
X1367673Y250455D01*
X1367395Y250529D01*
X1367266Y250548D01*
X1367155Y250566D01*
X1366303D01*
X1366099Y250548D01*
X1365914Y250511D01*
X1365748Y250455D01*
X1365618Y250400D01*
X1365507Y250307D01*
X1365414Y250215D01*
X1365266Y250011D01*
X1365173Y249789D01*
X1365137Y249622D01*
X1365118Y249548D01*
Y249492D01*
Y249455D01*
Y249437D01*
Y248918D01*
X1365155Y248641D01*
X1365229Y248381D01*
X1365359Y248141D01*
X1365488Y247937D01*
X1365636Y247770D01*
X1365766Y247659D01*
X1365840Y247567D01*
X1365877Y247548D01*
X1368840Y245141D01*
X1368988Y245011D01*
X1369118Y244882D01*
X1369321Y244604D01*
X1369469Y244326D01*
X1369562Y244086D01*
X1369636Y243845D01*
X1369655Y243678D01*
X1369673Y243604D01*
Y243549D01*
Y243530D01*
Y243512D01*
Y242067D01*
X1369655Y241975D01*
X1369617Y241919D01*
X1369525Y241845D01*
X1369414Y241808D01*
X1363877D01*
X1363785Y241826D01*
X1363711Y241845D01*
X1363674Y241882D01*
X1363637Y241938D01*
X1363600Y242030D01*
Y242049D01*
Y242067D01*
Y242901D01*
X1363618Y242993D01*
X1363637Y243049D01*
X1363729Y243123D01*
X1363840Y243160D01*
X1367951D01*
Y243660D01*
X1367932Y243808D01*
X1367896Y243937D01*
X1367840Y244067D01*
X1367766Y244160D01*
X1367710Y244252D01*
X1367655Y244308D01*
X1367618Y244345D01*
X1367599Y244363D01*
X1364581Y246826D01*
X1364414Y246974D01*
X1364266Y247141D01*
X1364137Y247307D01*
X1364026Y247474D01*
X1363859Y247807D01*
X1363748Y248122D01*
X1363692Y248400D01*
X1363674Y248511D01*
X1363655Y248622D01*
X1363637Y248715D01*
Y248770D01*
Y248807D01*
Y248826D01*
Y249474D01*
X1363655Y249881D01*
X1363729Y250233D01*
X1363840Y250529D01*
X1363952Y250789D01*
X1364081Y250974D01*
X1364174Y251122D01*
X1364248Y251196D01*
X1364285Y251233D01*
X1364544Y251437D01*
X1364822Y251603D01*
X1365118Y251714D01*
X1365414Y251788D01*
X1365674Y251826D01*
X1365877Y251863D01*
X1367284D01*
X1367692Y251844D01*
D02*
G37*
G36*
X1375932D02*
X1376302Y251770D01*
X1376598Y251659D01*
X1376857Y251548D01*
X1377061Y251437D01*
X1377209Y251325D01*
X1377283Y251252D01*
X1377320Y251233D01*
X1377524Y250974D01*
X1377691Y250696D01*
X1377802Y250381D01*
X1377876Y250103D01*
X1377913Y249844D01*
X1377932Y249622D01*
X1377950Y249548D01*
Y249492D01*
Y249455D01*
Y249437D01*
Y244234D01*
X1377932Y243826D01*
X1377857Y243475D01*
X1377746Y243160D01*
X1377635Y242901D01*
X1377524Y242697D01*
X1377413Y242549D01*
X1377339Y242475D01*
X1377320Y242438D01*
X1377061Y242234D01*
X1376765Y242067D01*
X1376469Y241956D01*
X1376191Y241882D01*
X1375932Y241845D01*
X1375710Y241826D01*
X1375635Y241808D01*
X1373710D01*
X1373302Y241826D01*
X1372950Y241901D01*
X1372636Y242012D01*
X1372395Y242123D01*
X1372191Y242234D01*
X1372043Y242345D01*
X1371969Y242419D01*
X1371932Y242438D01*
X1371710Y242697D01*
X1371562Y242993D01*
X1371451Y243289D01*
X1371358Y243586D01*
X1371321Y243845D01*
X1371302Y244049D01*
X1371284Y244123D01*
Y244178D01*
Y244215D01*
Y244234D01*
Y244974D01*
X1371302Y245067D01*
X1371321Y245141D01*
X1371377Y245178D01*
X1371414Y245215D01*
X1371525Y245252D01*
X1372543D01*
X1372636Y245234D01*
X1372710Y245215D01*
X1372747Y245159D01*
X1372784Y245123D01*
X1372821Y245011D01*
Y244993D01*
Y244974D01*
Y244289D01*
X1372839Y244086D01*
X1372876Y243900D01*
X1372932Y243752D01*
X1372988Y243623D01*
X1373080Y243512D01*
X1373173Y243400D01*
X1373376Y243271D01*
X1373599Y243178D01*
X1373765Y243141D01*
X1373839Y243123D01*
X1375302D01*
X1375506Y243141D01*
X1375672Y243178D01*
X1375821Y243234D01*
X1375950Y243308D01*
X1376061Y243400D01*
X1376154Y243493D01*
X1376284Y243715D01*
X1376376Y243919D01*
X1376413Y244104D01*
X1376432Y244178D01*
Y244234D01*
Y244271D01*
Y244289D01*
Y249381D01*
X1376413Y249585D01*
X1376376Y249770D01*
X1376320Y249918D01*
X1376246Y250048D01*
X1376172Y250177D01*
X1376080Y250270D01*
X1375858Y250400D01*
X1375654Y250492D01*
X1375469Y250529D01*
X1375413Y250548D01*
X1373950D01*
X1373747Y250529D01*
X1373580Y250492D01*
X1373432Y250437D01*
X1373302Y250363D01*
X1373191Y250270D01*
X1373099Y250177D01*
X1372969Y249974D01*
X1372876Y249752D01*
X1372839Y249566D01*
X1372821Y249492D01*
Y249437D01*
Y249400D01*
Y249381D01*
Y248696D01*
X1372802Y248604D01*
X1372784Y248529D01*
X1372728Y248493D01*
X1372673Y248456D01*
X1372580Y248418D01*
X1371562D01*
X1371469Y248437D01*
X1371395Y248456D01*
X1371358Y248511D01*
X1371321Y248567D01*
X1371284Y248659D01*
Y248678D01*
Y248696D01*
Y249437D01*
X1371302Y249844D01*
X1371377Y250215D01*
X1371488Y250511D01*
X1371599Y250770D01*
X1371728Y250974D01*
X1371821Y251122D01*
X1371895Y251196D01*
X1371932Y251233D01*
X1372191Y251437D01*
X1372469Y251603D01*
X1372765Y251714D01*
X1373062Y251788D01*
X1373321Y251826D01*
X1373524Y251863D01*
X1375524D01*
X1375932Y251844D01*
D02*
G37*
G36*
X1359896D02*
X1360267Y251770D01*
X1360581Y251659D01*
X1360841Y251548D01*
X1361044Y251437D01*
X1361192Y251325D01*
X1361266Y251252D01*
X1361304Y251233D01*
X1361507Y250974D01*
X1361674Y250696D01*
X1361785Y250381D01*
X1361859Y250103D01*
X1361896Y249844D01*
X1361915Y249622D01*
X1361933Y249548D01*
Y249492D01*
Y249455D01*
Y249437D01*
Y244234D01*
X1361915Y243826D01*
X1361841Y243475D01*
X1361729Y243160D01*
X1361618Y242901D01*
X1361507Y242697D01*
X1361396Y242549D01*
X1361322Y242475D01*
X1361304Y242438D01*
X1361044Y242234D01*
X1360748Y242067D01*
X1360452Y241956D01*
X1360155Y241882D01*
X1359896Y241845D01*
X1359674Y241826D01*
X1359600Y241808D01*
X1357934D01*
X1357526Y241826D01*
X1357174Y241901D01*
X1356860Y242012D01*
X1356619Y242123D01*
X1356415Y242234D01*
X1356267Y242345D01*
X1356193Y242419D01*
X1356156Y242438D01*
X1355934Y242697D01*
X1355786Y242993D01*
X1355674Y243289D01*
X1355582Y243586D01*
X1355545Y243845D01*
X1355526Y244049D01*
X1355508Y244123D01*
Y244178D01*
Y244215D01*
Y244234D01*
Y249437D01*
X1355526Y249844D01*
X1355600Y250215D01*
X1355712Y250511D01*
X1355823Y250770D01*
X1355952Y250974D01*
X1356045Y251122D01*
X1356119Y251196D01*
X1356156Y251233D01*
X1356415Y251437D01*
X1356693Y251603D01*
X1356989Y251714D01*
X1357285Y251788D01*
X1357545Y251826D01*
X1357748Y251863D01*
X1359489D01*
X1359896Y251844D01*
D02*
G37*
G36*
X1349916D02*
X1350027Y251826D01*
X1350083Y251807D01*
X1350101Y251788D01*
X1350194Y251714D01*
X1350268Y251603D01*
X1350323Y251511D01*
X1350342Y251492D01*
Y251474D01*
X1353841Y245252D01*
X1353916Y245048D01*
X1353952Y244845D01*
X1353971Y244771D01*
Y244697D01*
Y244660D01*
Y244641D01*
Y244160D01*
X1353952Y244011D01*
X1353897Y243900D01*
X1353823Y243826D01*
X1353749Y243771D01*
X1353675Y243734D01*
X1353601Y243715D01*
X1349379D01*
Y242067D01*
X1349360Y241975D01*
X1349342Y241919D01*
X1349249Y241845D01*
X1349157Y241808D01*
X1348194D01*
X1348120Y241826D01*
X1348046Y241845D01*
X1347990Y241938D01*
X1347953Y242030D01*
Y242049D01*
Y242067D01*
Y243715D01*
X1346805D01*
X1346712Y243734D01*
X1346638Y243771D01*
X1346601Y243808D01*
X1346564Y243863D01*
X1346527Y243974D01*
Y243993D01*
Y244011D01*
Y244789D01*
X1346546Y244882D01*
X1346564Y244937D01*
X1346657Y245011D01*
X1346768Y245048D01*
X1347953D01*
Y251418D01*
X1347972Y251566D01*
X1348027Y251677D01*
X1348101Y251751D01*
X1348175Y251807D01*
X1348249Y251844D01*
X1348323Y251863D01*
X1349786D01*
X1349916Y251844D01*
D02*
G37*
G36*
X1350789Y213744D02*
X1351140Y213670D01*
X1351455Y213559D01*
X1351714Y213448D01*
X1351918Y213337D01*
X1352066Y213225D01*
X1352140Y213151D01*
X1352177Y213133D01*
X1352399Y212874D01*
X1352548Y212596D01*
X1352659Y212300D01*
X1352751Y212022D01*
X1352788Y211763D01*
X1352807Y211559D01*
X1352825Y211485D01*
Y211429D01*
Y211392D01*
Y211374D01*
Y210892D01*
X1352807Y210800D01*
X1352788Y210726D01*
X1352733Y210689D01*
X1352677Y210652D01*
X1352585Y210615D01*
X1351548D01*
X1351455Y210633D01*
X1351400Y210652D01*
X1351326Y210763D01*
X1351288Y210855D01*
Y210874D01*
Y210892D01*
Y211337D01*
X1351270Y211559D01*
X1351252Y211726D01*
X1351196Y211874D01*
X1351140Y212003D01*
X1351103Y212096D01*
X1351048Y212152D01*
X1351029Y212189D01*
X1351011Y212207D01*
X1350900Y212300D01*
X1350751Y212355D01*
X1350474Y212429D01*
X1350363Y212448D01*
X1350252Y212466D01*
X1349233D01*
X1349030Y212448D01*
X1348844Y212411D01*
X1348696Y212355D01*
X1348567Y212300D01*
X1348437Y212207D01*
X1348344Y212115D01*
X1348215Y211911D01*
X1348122Y211689D01*
X1348085Y211522D01*
X1348067Y211448D01*
Y211392D01*
Y211355D01*
Y211337D01*
Y210522D01*
X1348085Y210318D01*
X1348122Y210152D01*
X1348178Y210004D01*
X1348252Y209874D01*
X1348344Y209763D01*
X1348437Y209670D01*
X1348641Y209541D01*
X1348863Y209448D01*
X1349048Y209411D01*
X1349122Y209393D01*
X1350103D01*
X1350196Y209374D01*
X1350252Y209356D01*
X1350326Y209244D01*
X1350363Y209152D01*
Y209115D01*
Y209096D01*
Y208393D01*
X1350344Y208300D01*
X1350326Y208245D01*
X1350233Y208171D01*
X1350141Y208134D01*
X1349233D01*
X1349030Y208115D01*
X1348844Y208078D01*
X1348696Y208022D01*
X1348567Y207948D01*
X1348437Y207874D01*
X1348344Y207763D01*
X1348215Y207560D01*
X1348122Y207356D01*
X1348085Y207171D01*
X1348067Y207097D01*
Y207041D01*
Y207004D01*
Y206985D01*
Y206134D01*
X1348085Y205930D01*
X1348122Y205763D01*
X1348178Y205615D01*
X1348252Y205486D01*
X1348344Y205375D01*
X1348437Y205282D01*
X1348641Y205152D01*
X1348863Y205060D01*
X1349048Y205023D01*
X1349122Y205004D01*
X1350159D01*
X1350363Y205023D01*
X1350529Y205041D01*
X1350677Y205078D01*
X1350807Y205134D01*
X1350900Y205189D01*
X1350955Y205226D01*
X1350992Y205245D01*
X1351011Y205263D01*
X1351103Y205375D01*
X1351177Y205523D01*
X1351214Y205652D01*
X1351252Y205800D01*
X1351270Y205930D01*
X1351288Y206041D01*
Y206115D01*
Y206134D01*
Y206652D01*
X1351307Y206745D01*
X1351326Y206819D01*
X1351363Y206856D01*
X1351418Y206893D01*
X1351511Y206930D01*
X1352548D01*
X1352640Y206911D01*
X1352714Y206893D01*
X1352751Y206837D01*
X1352788Y206800D01*
X1352825Y206689D01*
Y206671D01*
Y206652D01*
Y206097D01*
X1352788Y205689D01*
X1352714Y205338D01*
X1352622Y205023D01*
X1352492Y204782D01*
X1352381Y204578D01*
X1352270Y204430D01*
X1352196Y204356D01*
X1352177Y204319D01*
X1351918Y204115D01*
X1351622Y203967D01*
X1351326Y203856D01*
X1351029Y203782D01*
X1350770Y203745D01*
X1350566Y203727D01*
X1350492Y203708D01*
X1349011D01*
X1348604Y203727D01*
X1348252Y203801D01*
X1347937Y203893D01*
X1347678Y204023D01*
X1347474Y204134D01*
X1347326Y204226D01*
X1347252Y204300D01*
X1347215Y204319D01*
X1346993Y204578D01*
X1346844Y204856D01*
X1346733Y205152D01*
X1346641Y205449D01*
X1346604Y205708D01*
X1346585Y205912D01*
X1346567Y205986D01*
Y206041D01*
Y206078D01*
Y206097D01*
Y207004D01*
X1346585Y207263D01*
X1346622Y207504D01*
X1346678Y207708D01*
X1346770Y207893D01*
X1346863Y208059D01*
X1346956Y208207D01*
X1347085Y208319D01*
X1347196Y208430D01*
X1347419Y208596D01*
X1347622Y208689D01*
X1347715Y208726D01*
X1347770Y208745D01*
X1347807Y208763D01*
X1347826D01*
X1347604Y208837D01*
X1347419Y208948D01*
X1347233Y209059D01*
X1347104Y209189D01*
X1346974Y209337D01*
X1346882Y209485D01*
X1346715Y209781D01*
X1346641Y210059D01*
X1346585Y210300D01*
X1346567Y210392D01*
Y210467D01*
Y210504D01*
Y210522D01*
Y211374D01*
X1346585Y211781D01*
X1346659Y212133D01*
X1346770Y212429D01*
X1346882Y212689D01*
X1347011Y212874D01*
X1347104Y213022D01*
X1347178Y213096D01*
X1347215Y213133D01*
X1347474Y213337D01*
X1347770Y213503D01*
X1348067Y213614D01*
X1348363Y213688D01*
X1348622Y213725D01*
X1348826Y213762D01*
X1350381D01*
X1350789Y213744D01*
D02*
G37*
G36*
X1366676D02*
X1367046Y213670D01*
X1367361Y213559D01*
X1367620Y213448D01*
X1367824Y213337D01*
X1367972Y213225D01*
X1368046Y213151D01*
X1368083Y213133D01*
X1368287Y212874D01*
X1368453Y212596D01*
X1368564Y212300D01*
X1368639Y212022D01*
X1368676Y211763D01*
X1368694Y211559D01*
X1368713Y211485D01*
Y211429D01*
Y211392D01*
Y211374D01*
Y210763D01*
X1368694Y210670D01*
X1368676Y210596D01*
X1368639Y210559D01*
X1368583Y210522D01*
X1368490Y210485D01*
X1367435D01*
X1367342Y210504D01*
X1367287Y210522D01*
X1367213Y210633D01*
X1367176Y210726D01*
Y210744D01*
Y210763D01*
Y211337D01*
X1367157Y211559D01*
X1367139Y211726D01*
X1367102Y211874D01*
X1367046Y212003D01*
X1366991Y212096D01*
X1366954Y212152D01*
X1366935Y212189D01*
X1366917Y212207D01*
X1366805Y212300D01*
X1366657Y212355D01*
X1366380Y212429D01*
X1366250Y212448D01*
X1366139Y212466D01*
X1365287D01*
X1365083Y212448D01*
X1364898Y212411D01*
X1364732Y212355D01*
X1364602Y212300D01*
X1364491Y212207D01*
X1364398Y212115D01*
X1364250Y211911D01*
X1364158Y211689D01*
X1364120Y211522D01*
X1364102Y211448D01*
Y211392D01*
Y211355D01*
Y211337D01*
Y210818D01*
X1364139Y210541D01*
X1364213Y210281D01*
X1364343Y210041D01*
X1364472Y209837D01*
X1364621Y209670D01*
X1364750Y209559D01*
X1364824Y209467D01*
X1364861Y209448D01*
X1367824Y207041D01*
X1367972Y206911D01*
X1368102Y206782D01*
X1368305Y206504D01*
X1368453Y206226D01*
X1368546Y205986D01*
X1368620Y205745D01*
X1368639Y205578D01*
X1368657Y205504D01*
Y205449D01*
Y205430D01*
Y205411D01*
Y203967D01*
X1368639Y203875D01*
X1368602Y203819D01*
X1368509Y203745D01*
X1368398Y203708D01*
X1362861D01*
X1362769Y203727D01*
X1362695Y203745D01*
X1362658Y203782D01*
X1362621Y203838D01*
X1362584Y203930D01*
Y203949D01*
Y203967D01*
Y204800D01*
X1362602Y204893D01*
X1362621Y204949D01*
X1362713Y205023D01*
X1362824Y205060D01*
X1366935D01*
Y205560D01*
X1366917Y205708D01*
X1366879Y205837D01*
X1366824Y205967D01*
X1366750Y206060D01*
X1366694Y206152D01*
X1366639Y206208D01*
X1366602Y206245D01*
X1366583Y206263D01*
X1363565Y208726D01*
X1363398Y208874D01*
X1363250Y209041D01*
X1363121Y209207D01*
X1363009Y209374D01*
X1362843Y209707D01*
X1362732Y210022D01*
X1362676Y210300D01*
X1362658Y210411D01*
X1362639Y210522D01*
X1362621Y210615D01*
Y210670D01*
Y210707D01*
Y210726D01*
Y211374D01*
X1362639Y211781D01*
X1362713Y212133D01*
X1362824Y212429D01*
X1362935Y212689D01*
X1363065Y212874D01*
X1363158Y213022D01*
X1363232Y213096D01*
X1363269Y213133D01*
X1363528Y213337D01*
X1363806Y213503D01*
X1364102Y213614D01*
X1364398Y213688D01*
X1364657Y213725D01*
X1364861Y213762D01*
X1366268D01*
X1366676Y213744D01*
D02*
G37*
G36*
X1374916D02*
X1375286Y213670D01*
X1375582Y213559D01*
X1375842Y213448D01*
X1376045Y213337D01*
X1376193Y213225D01*
X1376267Y213151D01*
X1376304Y213133D01*
X1376508Y212874D01*
X1376675Y212596D01*
X1376786Y212281D01*
X1376860Y212003D01*
X1376897Y211744D01*
X1376915Y211522D01*
X1376934Y211448D01*
Y211392D01*
Y211355D01*
Y211337D01*
Y206134D01*
X1376915Y205726D01*
X1376841Y205375D01*
X1376730Y205060D01*
X1376619Y204800D01*
X1376508Y204597D01*
X1376397Y204449D01*
X1376323Y204375D01*
X1376304Y204338D01*
X1376045Y204134D01*
X1375749Y203967D01*
X1375453Y203856D01*
X1375175Y203782D01*
X1374916Y203745D01*
X1374693Y203727D01*
X1374619Y203708D01*
X1372694D01*
X1372286Y203727D01*
X1371935Y203801D01*
X1371620Y203912D01*
X1371379Y204023D01*
X1371175Y204134D01*
X1371027Y204245D01*
X1370953Y204319D01*
X1370916Y204338D01*
X1370694Y204597D01*
X1370546Y204893D01*
X1370435Y205189D01*
X1370342Y205486D01*
X1370305Y205745D01*
X1370287Y205949D01*
X1370268Y206023D01*
Y206078D01*
Y206115D01*
Y206134D01*
Y206874D01*
X1370287Y206967D01*
X1370305Y207041D01*
X1370361Y207078D01*
X1370398Y207115D01*
X1370509Y207152D01*
X1371527D01*
X1371620Y207134D01*
X1371694Y207115D01*
X1371731Y207059D01*
X1371768Y207022D01*
X1371805Y206911D01*
Y206893D01*
Y206874D01*
Y206189D01*
X1371823Y205986D01*
X1371861Y205800D01*
X1371916Y205652D01*
X1371972Y205523D01*
X1372064Y205411D01*
X1372157Y205300D01*
X1372360Y205171D01*
X1372583Y205078D01*
X1372749Y205041D01*
X1372823Y205023D01*
X1374286D01*
X1374490Y205041D01*
X1374657Y205078D01*
X1374805Y205134D01*
X1374934Y205208D01*
X1375045Y205300D01*
X1375138Y205393D01*
X1375267Y205615D01*
X1375360Y205819D01*
X1375397Y206004D01*
X1375416Y206078D01*
Y206134D01*
Y206171D01*
Y206189D01*
Y211281D01*
X1375397Y211485D01*
X1375360Y211670D01*
X1375305Y211818D01*
X1375231Y211948D01*
X1375156Y212078D01*
X1375064Y212170D01*
X1374842Y212300D01*
X1374638Y212392D01*
X1374453Y212429D01*
X1374397Y212448D01*
X1372934D01*
X1372731Y212429D01*
X1372564Y212392D01*
X1372416Y212337D01*
X1372286Y212263D01*
X1372175Y212170D01*
X1372083Y212078D01*
X1371953Y211874D01*
X1371861Y211652D01*
X1371823Y211467D01*
X1371805Y211392D01*
Y211337D01*
Y211300D01*
Y211281D01*
Y210596D01*
X1371786Y210504D01*
X1371768Y210429D01*
X1371712Y210392D01*
X1371657Y210355D01*
X1371564Y210318D01*
X1370546D01*
X1370453Y210337D01*
X1370379Y210355D01*
X1370342Y210411D01*
X1370305Y210467D01*
X1370268Y210559D01*
Y210578D01*
Y210596D01*
Y211337D01*
X1370287Y211744D01*
X1370361Y212115D01*
X1370472Y212411D01*
X1370583Y212670D01*
X1370712Y212874D01*
X1370805Y213022D01*
X1370879Y213096D01*
X1370916Y213133D01*
X1371175Y213337D01*
X1371453Y213503D01*
X1371749Y213614D01*
X1372046Y213688D01*
X1372305Y213725D01*
X1372509Y213762D01*
X1374508D01*
X1374916Y213744D01*
D02*
G37*
G36*
X1358880D02*
X1359251Y213670D01*
X1359565Y213559D01*
X1359825Y213448D01*
X1360028Y213337D01*
X1360177Y213225D01*
X1360251Y213151D01*
X1360288Y213133D01*
X1360491Y212874D01*
X1360658Y212596D01*
X1360769Y212281D01*
X1360843Y212003D01*
X1360880Y211744D01*
X1360899Y211522D01*
X1360917Y211448D01*
Y211392D01*
Y211355D01*
Y211337D01*
Y206134D01*
X1360899Y205726D01*
X1360825Y205375D01*
X1360714Y205060D01*
X1360602Y204800D01*
X1360491Y204597D01*
X1360380Y204449D01*
X1360306Y204375D01*
X1360288Y204338D01*
X1360028Y204134D01*
X1359732Y203967D01*
X1359436Y203856D01*
X1359140Y203782D01*
X1358880Y203745D01*
X1358658Y203727D01*
X1358584Y203708D01*
X1356918D01*
X1356510Y203727D01*
X1356158Y203801D01*
X1355844Y203912D01*
X1355603Y204023D01*
X1355399Y204134D01*
X1355251Y204245D01*
X1355177Y204319D01*
X1355140Y204338D01*
X1354918Y204597D01*
X1354770Y204893D01*
X1354659Y205189D01*
X1354566Y205486D01*
X1354529Y205745D01*
X1354510Y205949D01*
X1354492Y206023D01*
Y206078D01*
Y206115D01*
Y206134D01*
Y211337D01*
X1354510Y211744D01*
X1354585Y212115D01*
X1354696Y212411D01*
X1354807Y212670D01*
X1354936Y212874D01*
X1355029Y213022D01*
X1355103Y213096D01*
X1355140Y213133D01*
X1355399Y213337D01*
X1355677Y213503D01*
X1355973Y213614D01*
X1356270Y213688D01*
X1356529Y213725D01*
X1356732Y213762D01*
X1358473D01*
X1358880Y213744D01*
D02*
G37*
G36*
X1365914Y180724D02*
X1366284Y180650D01*
X1366599Y180539D01*
X1366858Y180428D01*
X1367062Y180317D01*
X1367210Y180205D01*
X1367284Y180131D01*
X1367321Y180113D01*
X1367525Y179854D01*
X1367691Y179576D01*
X1367802Y179280D01*
X1367877Y179002D01*
X1367914Y178743D01*
X1367932Y178539D01*
X1367951Y178465D01*
Y178409D01*
Y178372D01*
Y178354D01*
Y177743D01*
X1367932Y177650D01*
X1367914Y177576D01*
X1367877Y177539D01*
X1367821Y177502D01*
X1367728Y177465D01*
X1366673D01*
X1366580Y177484D01*
X1366525Y177502D01*
X1366451Y177613D01*
X1366414Y177706D01*
Y177724D01*
Y177743D01*
Y178317D01*
X1366395Y178539D01*
X1366377Y178706D01*
X1366340Y178854D01*
X1366284Y178983D01*
X1366229Y179076D01*
X1366192Y179132D01*
X1366173Y179169D01*
X1366154Y179187D01*
X1366043Y179280D01*
X1365895Y179335D01*
X1365618Y179409D01*
X1365488Y179428D01*
X1365377Y179446D01*
X1364525D01*
X1364321Y179428D01*
X1364136Y179391D01*
X1363970Y179335D01*
X1363840Y179280D01*
X1363729Y179187D01*
X1363636Y179095D01*
X1363488Y178891D01*
X1363396Y178669D01*
X1363358Y178502D01*
X1363340Y178428D01*
Y178372D01*
Y178335D01*
Y178317D01*
Y177798D01*
X1363377Y177521D01*
X1363451Y177261D01*
X1363581Y177021D01*
X1363710Y176817D01*
X1363858Y176650D01*
X1363988Y176539D01*
X1364062Y176447D01*
X1364099Y176428D01*
X1367062Y174021D01*
X1367210Y173891D01*
X1367340Y173762D01*
X1367543Y173484D01*
X1367691Y173206D01*
X1367784Y172966D01*
X1367858Y172725D01*
X1367877Y172558D01*
X1367895Y172484D01*
Y172429D01*
Y172410D01*
Y172391D01*
Y170947D01*
X1367877Y170855D01*
X1367840Y170799D01*
X1367747Y170725D01*
X1367636Y170688D01*
X1362099D01*
X1362007Y170707D01*
X1361933Y170725D01*
X1361896Y170762D01*
X1361859Y170818D01*
X1361822Y170910D01*
Y170929D01*
Y170947D01*
Y171780D01*
X1361840Y171873D01*
X1361859Y171929D01*
X1361951Y172003D01*
X1362062Y172040D01*
X1366173D01*
Y172540D01*
X1366154Y172688D01*
X1366118Y172817D01*
X1366062Y172947D01*
X1365988Y173040D01*
X1365932Y173132D01*
X1365877Y173188D01*
X1365840Y173225D01*
X1365821Y173243D01*
X1362803Y175706D01*
X1362636Y175854D01*
X1362488Y176021D01*
X1362359Y176187D01*
X1362247Y176354D01*
X1362081Y176687D01*
X1361970Y177002D01*
X1361914Y177280D01*
X1361896Y177391D01*
X1361877Y177502D01*
X1361859Y177595D01*
Y177650D01*
Y177687D01*
Y177706D01*
Y178354D01*
X1361877Y178761D01*
X1361951Y179113D01*
X1362062Y179409D01*
X1362173Y179669D01*
X1362303Y179854D01*
X1362396Y180002D01*
X1362470Y180076D01*
X1362507Y180113D01*
X1362766Y180317D01*
X1363044Y180483D01*
X1363340Y180594D01*
X1363636Y180668D01*
X1363896Y180706D01*
X1364099Y180742D01*
X1365506D01*
X1365914Y180724D01*
D02*
G37*
G36*
X1350008D02*
X1350378Y180650D01*
X1350693Y180539D01*
X1350952Y180428D01*
X1351156Y180317D01*
X1351304Y180205D01*
X1351378Y180131D01*
X1351415Y180113D01*
X1351619Y179854D01*
X1351786Y179576D01*
X1351897Y179280D01*
X1351971Y179002D01*
X1352008Y178743D01*
X1352026Y178539D01*
X1352045Y178465D01*
Y178409D01*
Y178372D01*
Y178354D01*
Y177743D01*
X1352026Y177650D01*
X1352008Y177576D01*
X1351971Y177539D01*
X1351915Y177502D01*
X1351823Y177465D01*
X1350767D01*
X1350675Y177484D01*
X1350619Y177502D01*
X1350545Y177613D01*
X1350508Y177706D01*
Y177724D01*
Y177743D01*
Y178317D01*
X1350490Y178539D01*
X1350471Y178706D01*
X1350434Y178854D01*
X1350378Y178983D01*
X1350323Y179076D01*
X1350286Y179132D01*
X1350267Y179169D01*
X1350249Y179187D01*
X1350138Y179280D01*
X1349989Y179335D01*
X1349712Y179409D01*
X1349582Y179428D01*
X1349471Y179446D01*
X1348619D01*
X1348416Y179428D01*
X1348230Y179391D01*
X1348064Y179335D01*
X1347934Y179280D01*
X1347823Y179187D01*
X1347731Y179095D01*
X1347582Y178891D01*
X1347490Y178669D01*
X1347453Y178502D01*
X1347434Y178428D01*
Y178372D01*
Y178335D01*
Y178317D01*
Y177798D01*
X1347471Y177521D01*
X1347545Y177261D01*
X1347675Y177021D01*
X1347805Y176817D01*
X1347953Y176650D01*
X1348082Y176539D01*
X1348156Y176447D01*
X1348193Y176428D01*
X1351156Y174021D01*
X1351304Y173891D01*
X1351434Y173762D01*
X1351638Y173484D01*
X1351786Y173206D01*
X1351878Y172966D01*
X1351952Y172725D01*
X1351971Y172558D01*
X1351989Y172484D01*
Y172429D01*
Y172410D01*
Y172391D01*
Y170947D01*
X1351971Y170855D01*
X1351934Y170799D01*
X1351841Y170725D01*
X1351730Y170688D01*
X1346194D01*
X1346101Y170707D01*
X1346027Y170725D01*
X1345990Y170762D01*
X1345953Y170818D01*
X1345916Y170910D01*
Y170929D01*
Y170947D01*
Y171780D01*
X1345934Y171873D01*
X1345953Y171929D01*
X1346046Y172003D01*
X1346157Y172040D01*
X1350267D01*
Y172540D01*
X1350249Y172688D01*
X1350212Y172817D01*
X1350156Y172947D01*
X1350082Y173040D01*
X1350027Y173132D01*
X1349971Y173188D01*
X1349934Y173225D01*
X1349915Y173243D01*
X1346897Y175706D01*
X1346731Y175854D01*
X1346582Y176021D01*
X1346453Y176187D01*
X1346342Y176354D01*
X1346175Y176687D01*
X1346064Y177002D01*
X1346008Y177280D01*
X1345990Y177391D01*
X1345971Y177502D01*
X1345953Y177595D01*
Y177650D01*
Y177687D01*
Y177706D01*
Y178354D01*
X1345971Y178761D01*
X1346046Y179113D01*
X1346157Y179409D01*
X1346268Y179669D01*
X1346397Y179854D01*
X1346490Y180002D01*
X1346564Y180076D01*
X1346601Y180113D01*
X1346860Y180317D01*
X1347138Y180483D01*
X1347434Y180594D01*
X1347731Y180668D01*
X1347990Y180706D01*
X1348193Y180742D01*
X1349601D01*
X1350008Y180724D01*
D02*
G37*
G36*
X1374154D02*
X1374524Y180650D01*
X1374820Y180539D01*
X1375079Y180428D01*
X1375283Y180317D01*
X1375431Y180205D01*
X1375505Y180131D01*
X1375542Y180113D01*
X1375746Y179854D01*
X1375913Y179576D01*
X1376024Y179261D01*
X1376098Y178983D01*
X1376135Y178724D01*
X1376154Y178502D01*
X1376172Y178428D01*
Y178372D01*
Y178335D01*
Y178317D01*
Y173114D01*
X1376154Y172706D01*
X1376079Y172355D01*
X1375968Y172040D01*
X1375857Y171780D01*
X1375746Y171577D01*
X1375635Y171429D01*
X1375561Y171355D01*
X1375542Y171318D01*
X1375283Y171114D01*
X1374987Y170947D01*
X1374691Y170836D01*
X1374413Y170762D01*
X1374154Y170725D01*
X1373931Y170707D01*
X1373857Y170688D01*
X1371932D01*
X1371524Y170707D01*
X1371172Y170781D01*
X1370858Y170892D01*
X1370617Y171003D01*
X1370413Y171114D01*
X1370265Y171225D01*
X1370191Y171299D01*
X1370154Y171318D01*
X1369932Y171577D01*
X1369784Y171873D01*
X1369673Y172169D01*
X1369580Y172466D01*
X1369543Y172725D01*
X1369525Y172929D01*
X1369506Y173003D01*
Y173058D01*
Y173095D01*
Y173114D01*
Y173854D01*
X1369525Y173947D01*
X1369543Y174021D01*
X1369599Y174058D01*
X1369636Y174095D01*
X1369747Y174132D01*
X1370765D01*
X1370858Y174114D01*
X1370932Y174095D01*
X1370969Y174039D01*
X1371006Y174002D01*
X1371043Y173891D01*
Y173873D01*
Y173854D01*
Y173169D01*
X1371061Y172966D01*
X1371098Y172780D01*
X1371154Y172632D01*
X1371210Y172503D01*
X1371302Y172391D01*
X1371395Y172280D01*
X1371598Y172151D01*
X1371821Y172058D01*
X1371987Y172021D01*
X1372061Y172003D01*
X1373524D01*
X1373728Y172021D01*
X1373895Y172058D01*
X1374043Y172114D01*
X1374172Y172188D01*
X1374283Y172280D01*
X1374376Y172373D01*
X1374505Y172595D01*
X1374598Y172799D01*
X1374635Y172984D01*
X1374654Y173058D01*
Y173114D01*
Y173151D01*
Y173169D01*
Y178261D01*
X1374635Y178465D01*
X1374598Y178650D01*
X1374543Y178798D01*
X1374469Y178928D01*
X1374394Y179058D01*
X1374302Y179150D01*
X1374080Y179280D01*
X1373876Y179372D01*
X1373691Y179409D01*
X1373635Y179428D01*
X1372172D01*
X1371969Y179409D01*
X1371802Y179372D01*
X1371654Y179317D01*
X1371524Y179243D01*
X1371413Y179150D01*
X1371321Y179058D01*
X1371191Y178854D01*
X1371098Y178632D01*
X1371061Y178447D01*
X1371043Y178372D01*
Y178317D01*
Y178280D01*
Y178261D01*
Y177576D01*
X1371024Y177484D01*
X1371006Y177409D01*
X1370950Y177372D01*
X1370895Y177335D01*
X1370802Y177298D01*
X1369784D01*
X1369691Y177317D01*
X1369617Y177335D01*
X1369580Y177391D01*
X1369543Y177447D01*
X1369506Y177539D01*
Y177558D01*
Y177576D01*
Y178317D01*
X1369525Y178724D01*
X1369599Y179095D01*
X1369710Y179391D01*
X1369821Y179650D01*
X1369950Y179854D01*
X1370043Y180002D01*
X1370117Y180076D01*
X1370154Y180113D01*
X1370413Y180317D01*
X1370691Y180483D01*
X1370987Y180594D01*
X1371284Y180668D01*
X1371543Y180706D01*
X1371747Y180742D01*
X1373746D01*
X1374154Y180724D01*
D02*
G37*
G36*
X1358118D02*
X1358489Y180650D01*
X1358803Y180539D01*
X1359063Y180428D01*
X1359266Y180317D01*
X1359415Y180205D01*
X1359489Y180131D01*
X1359526Y180113D01*
X1359729Y179854D01*
X1359896Y179576D01*
X1360007Y179261D01*
X1360081Y178983D01*
X1360118Y178724D01*
X1360137Y178502D01*
X1360155Y178428D01*
Y178372D01*
Y178335D01*
Y178317D01*
Y173114D01*
X1360137Y172706D01*
X1360063Y172355D01*
X1359951Y172040D01*
X1359840Y171780D01*
X1359729Y171577D01*
X1359618Y171429D01*
X1359544Y171355D01*
X1359526Y171318D01*
X1359266Y171114D01*
X1358970Y170947D01*
X1358674Y170836D01*
X1358378Y170762D01*
X1358118Y170725D01*
X1357896Y170707D01*
X1357822Y170688D01*
X1356156D01*
X1355748Y170707D01*
X1355396Y170781D01*
X1355082Y170892D01*
X1354841Y171003D01*
X1354637Y171114D01*
X1354489Y171225D01*
X1354415Y171299D01*
X1354378Y171318D01*
X1354156Y171577D01*
X1354008Y171873D01*
X1353896Y172169D01*
X1353804Y172466D01*
X1353767Y172725D01*
X1353748Y172929D01*
X1353730Y173003D01*
Y173058D01*
Y173095D01*
Y173114D01*
Y178317D01*
X1353748Y178724D01*
X1353822Y179095D01*
X1353934Y179391D01*
X1354045Y179650D01*
X1354174Y179854D01*
X1354267Y180002D01*
X1354341Y180076D01*
X1354378Y180113D01*
X1354637Y180317D01*
X1354915Y180483D01*
X1355211Y180594D01*
X1355508Y180668D01*
X1355767Y180706D01*
X1355970Y180742D01*
X1357711D01*
X1358118Y180724D01*
D02*
G37*
G36*
X1346619Y112144D02*
X1346785Y112088D01*
X1346841Y112051D01*
X1346896Y112014D01*
X1346933Y111996D01*
X1346952D01*
X1348582Y111014D01*
X1348656Y110959D01*
X1348711Y110903D01*
X1348767Y110774D01*
X1348804Y110681D01*
Y110663D01*
Y110644D01*
Y109718D01*
X1348785Y109626D01*
X1348748Y109570D01*
X1348711Y109533D01*
X1348544D01*
X1348507Y109552D01*
X1348489D01*
X1346785Y110552D01*
Y102367D01*
X1346767Y102275D01*
X1346748Y102219D01*
X1346637Y102145D01*
X1346545Y102108D01*
X1345489D01*
X1345415Y102127D01*
X1345341Y102145D01*
X1345285Y102238D01*
X1345249Y102330D01*
Y102349D01*
Y102367D01*
Y111903D01*
X1345267Y111996D01*
X1345285Y112051D01*
X1345378Y112126D01*
X1345471Y112163D01*
X1346452D01*
X1346619Y112144D01*
D02*
G37*
G36*
X1362358D02*
X1362728Y112070D01*
X1363043Y111959D01*
X1363302Y111848D01*
X1363506Y111737D01*
X1363654Y111625D01*
X1363728Y111552D01*
X1363765Y111533D01*
X1363969Y111274D01*
X1364135Y110996D01*
X1364247Y110700D01*
X1364321Y110422D01*
X1364358Y110163D01*
X1364376Y109959D01*
X1364395Y109885D01*
Y109829D01*
Y109792D01*
Y109774D01*
Y109163D01*
X1364376Y109070D01*
X1364358Y108996D01*
X1364321Y108959D01*
X1364265Y108922D01*
X1364172Y108885D01*
X1363117D01*
X1363024Y108904D01*
X1362969Y108922D01*
X1362895Y109033D01*
X1362858Y109126D01*
Y109144D01*
Y109163D01*
Y109737D01*
X1362839Y109959D01*
X1362821Y110126D01*
X1362784Y110274D01*
X1362728Y110403D01*
X1362673Y110496D01*
X1362636Y110552D01*
X1362617Y110589D01*
X1362599Y110607D01*
X1362487Y110700D01*
X1362339Y110755D01*
X1362061Y110829D01*
X1361932Y110848D01*
X1361821Y110866D01*
X1360969D01*
X1360765Y110848D01*
X1360580Y110811D01*
X1360414Y110755D01*
X1360284Y110700D01*
X1360173Y110607D01*
X1360080Y110514D01*
X1359932Y110311D01*
X1359839Y110089D01*
X1359803Y109922D01*
X1359784Y109848D01*
Y109792D01*
Y109755D01*
Y109737D01*
Y109218D01*
X1359821Y108941D01*
X1359895Y108681D01*
X1360025Y108441D01*
X1360154Y108237D01*
X1360302Y108070D01*
X1360432Y107959D01*
X1360506Y107867D01*
X1360543Y107848D01*
X1363506Y105441D01*
X1363654Y105311D01*
X1363784Y105182D01*
X1363987Y104904D01*
X1364135Y104626D01*
X1364228Y104385D01*
X1364302Y104145D01*
X1364321Y103978D01*
X1364339Y103904D01*
Y103849D01*
Y103830D01*
Y103812D01*
Y102367D01*
X1364321Y102275D01*
X1364283Y102219D01*
X1364191Y102145D01*
X1364080Y102108D01*
X1358543D01*
X1358451Y102127D01*
X1358377Y102145D01*
X1358340Y102182D01*
X1358303Y102238D01*
X1358266Y102330D01*
Y102349D01*
Y102367D01*
Y103201D01*
X1358284Y103293D01*
X1358303Y103349D01*
X1358395Y103423D01*
X1358506Y103460D01*
X1362617D01*
Y103960D01*
X1362599Y104108D01*
X1362561Y104237D01*
X1362506Y104367D01*
X1362432Y104460D01*
X1362376Y104552D01*
X1362321Y104608D01*
X1362284Y104645D01*
X1362265Y104663D01*
X1359247Y107126D01*
X1359080Y107274D01*
X1358932Y107441D01*
X1358803Y107607D01*
X1358692Y107774D01*
X1358525Y108107D01*
X1358414Y108422D01*
X1358358Y108700D01*
X1358340Y108811D01*
X1358321Y108922D01*
X1358303Y109015D01*
Y109070D01*
Y109107D01*
Y109126D01*
Y109774D01*
X1358321Y110181D01*
X1358395Y110533D01*
X1358506Y110829D01*
X1358618Y111089D01*
X1358747Y111274D01*
X1358840Y111422D01*
X1358914Y111496D01*
X1358951Y111533D01*
X1359210Y111737D01*
X1359488Y111903D01*
X1359784Y112014D01*
X1360080Y112088D01*
X1360340Y112126D01*
X1360543Y112163D01*
X1361950D01*
X1362358Y112144D01*
D02*
G37*
G36*
X1370598D02*
X1370968Y112070D01*
X1371264Y111959D01*
X1371523Y111848D01*
X1371727Y111737D01*
X1371875Y111625D01*
X1371949Y111552D01*
X1371986Y111533D01*
X1372190Y111274D01*
X1372357Y110996D01*
X1372468Y110681D01*
X1372542Y110403D01*
X1372579Y110144D01*
X1372598Y109922D01*
X1372616Y109848D01*
Y109792D01*
Y109755D01*
Y109737D01*
Y104534D01*
X1372598Y104126D01*
X1372523Y103774D01*
X1372412Y103460D01*
X1372301Y103201D01*
X1372190Y102997D01*
X1372079Y102849D01*
X1372005Y102775D01*
X1371986Y102738D01*
X1371727Y102534D01*
X1371431Y102367D01*
X1371135Y102256D01*
X1370857Y102182D01*
X1370598Y102145D01*
X1370376Y102127D01*
X1370301Y102108D01*
X1368376D01*
X1367968Y102127D01*
X1367616Y102201D01*
X1367302Y102312D01*
X1367061Y102423D01*
X1366857Y102534D01*
X1366709Y102645D01*
X1366635Y102719D01*
X1366598Y102738D01*
X1366376Y102997D01*
X1366228Y103293D01*
X1366117Y103589D01*
X1366024Y103886D01*
X1365987Y104145D01*
X1365968Y104348D01*
X1365950Y104423D01*
Y104478D01*
Y104515D01*
Y104534D01*
Y105274D01*
X1365968Y105367D01*
X1365987Y105441D01*
X1366043Y105478D01*
X1366080Y105515D01*
X1366191Y105552D01*
X1367209D01*
X1367302Y105534D01*
X1367376Y105515D01*
X1367413Y105459D01*
X1367450Y105422D01*
X1367487Y105311D01*
Y105293D01*
Y105274D01*
Y104589D01*
X1367505Y104385D01*
X1367543Y104200D01*
X1367598Y104052D01*
X1367654Y103923D01*
X1367746Y103812D01*
X1367839Y103700D01*
X1368042Y103571D01*
X1368265Y103478D01*
X1368431Y103441D01*
X1368505Y103423D01*
X1369968D01*
X1370172Y103441D01*
X1370338Y103478D01*
X1370487Y103534D01*
X1370616Y103608D01*
X1370727Y103700D01*
X1370820Y103793D01*
X1370950Y104015D01*
X1371042Y104219D01*
X1371079Y104404D01*
X1371098Y104478D01*
Y104534D01*
Y104571D01*
Y104589D01*
Y109681D01*
X1371079Y109885D01*
X1371042Y110070D01*
X1370986Y110218D01*
X1370912Y110348D01*
X1370838Y110478D01*
X1370746Y110570D01*
X1370524Y110700D01*
X1370320Y110792D01*
X1370135Y110829D01*
X1370079Y110848D01*
X1368616D01*
X1368413Y110829D01*
X1368246Y110792D01*
X1368098Y110737D01*
X1367968Y110663D01*
X1367857Y110570D01*
X1367765Y110478D01*
X1367635Y110274D01*
X1367543Y110052D01*
X1367505Y109867D01*
X1367487Y109792D01*
Y109737D01*
Y109700D01*
Y109681D01*
Y108996D01*
X1367468Y108904D01*
X1367450Y108829D01*
X1367394Y108792D01*
X1367339Y108756D01*
X1367246Y108718D01*
X1366228D01*
X1366135Y108737D01*
X1366061Y108756D01*
X1366024Y108811D01*
X1365987Y108867D01*
X1365950Y108959D01*
Y108978D01*
Y108996D01*
Y109737D01*
X1365968Y110144D01*
X1366043Y110514D01*
X1366154Y110811D01*
X1366265Y111070D01*
X1366394Y111274D01*
X1366487Y111422D01*
X1366561Y111496D01*
X1366598Y111533D01*
X1366857Y111737D01*
X1367135Y111903D01*
X1367431Y112014D01*
X1367728Y112088D01*
X1367987Y112126D01*
X1368190Y112163D01*
X1370190D01*
X1370598Y112144D01*
D02*
G37*
G36*
X1354562D02*
X1354933Y112070D01*
X1355247Y111959D01*
X1355507Y111848D01*
X1355710Y111737D01*
X1355858Y111625D01*
X1355932Y111552D01*
X1355970Y111533D01*
X1356173Y111274D01*
X1356340Y110996D01*
X1356451Y110681D01*
X1356525Y110403D01*
X1356562Y110144D01*
X1356581Y109922D01*
X1356599Y109848D01*
Y109792D01*
Y109755D01*
Y109737D01*
Y104534D01*
X1356581Y104126D01*
X1356507Y103774D01*
X1356396Y103460D01*
X1356284Y103201D01*
X1356173Y102997D01*
X1356062Y102849D01*
X1355988Y102775D01*
X1355970Y102738D01*
X1355710Y102534D01*
X1355414Y102367D01*
X1355118Y102256D01*
X1354821Y102182D01*
X1354562Y102145D01*
X1354340Y102127D01*
X1354266Y102108D01*
X1352600D01*
X1352192Y102127D01*
X1351840Y102201D01*
X1351526Y102312D01*
X1351285Y102423D01*
X1351081Y102534D01*
X1350933Y102645D01*
X1350859Y102719D01*
X1350822Y102738D01*
X1350600Y102997D01*
X1350452Y103293D01*
X1350341Y103589D01*
X1350248Y103886D01*
X1350211Y104145D01*
X1350192Y104348D01*
X1350174Y104423D01*
Y104478D01*
Y104515D01*
Y104534D01*
Y109737D01*
X1350192Y110144D01*
X1350267Y110514D01*
X1350378Y110811D01*
X1350489Y111070D01*
X1350618Y111274D01*
X1350711Y111422D01*
X1350785Y111496D01*
X1350822Y111533D01*
X1351081Y111737D01*
X1351359Y111903D01*
X1351655Y112014D01*
X1351951Y112088D01*
X1352211Y112126D01*
X1352414Y112163D01*
X1354155D01*
X1354562Y112144D01*
D02*
G37*
%LPC*%
G36*
X882018Y520804D02*
X880000D01*
X879796Y520785D01*
X879611Y520748D01*
X879463Y520693D01*
X879333Y520619D01*
X879203Y520526D01*
X879111Y520434D01*
X878981Y520230D01*
X878889Y520008D01*
X878852Y519823D01*
X878833Y519748D01*
Y519693D01*
Y519656D01*
Y519637D01*
Y518323D01*
X878852Y518119D01*
X878889Y517952D01*
X878944Y517786D01*
X879018Y517656D01*
X879111Y517545D01*
X879203Y517452D01*
X879407Y517323D01*
X879629Y517230D01*
X879815Y517193D01*
X879889Y517175D01*
X881981D01*
X882092Y517193D01*
X882148Y517267D01*
X882166Y517323D01*
Y517341D01*
Y520637D01*
X882129Y520730D01*
X882074Y520785D01*
X882018Y520804D01*
D02*
G37*
G36*
X867723D02*
X866501D01*
X866297Y520785D01*
X866131Y520748D01*
X865983Y520693D01*
X865853Y520619D01*
X865742Y520526D01*
X865649Y520434D01*
X865520Y520230D01*
X865427Y520008D01*
X865390Y519823D01*
X865372Y519748D01*
Y519693D01*
Y519656D01*
Y519637D01*
Y514545D01*
X865390Y514342D01*
X865427Y514156D01*
X865483Y514008D01*
X865538Y513879D01*
X865631Y513768D01*
X865723Y513656D01*
X865927Y513527D01*
X866149Y513434D01*
X866316Y513397D01*
X866390Y513379D01*
X867612D01*
X867816Y513397D01*
X867982Y513434D01*
X868131Y513490D01*
X868260Y513564D01*
X868371Y513656D01*
X868464Y513749D01*
X868594Y513971D01*
X868686Y514175D01*
X868723Y514360D01*
X868742Y514434D01*
Y514490D01*
Y514527D01*
Y514545D01*
Y519637D01*
X868723Y519841D01*
X868686Y520026D01*
X868631Y520174D01*
X868557Y520304D01*
X868482Y520434D01*
X868390Y520526D01*
X868168Y520656D01*
X867964Y520748D01*
X867779Y520785D01*
X867723Y520804D01*
D02*
G37*
G36*
X922912Y506580D02*
X920894D01*
X920690Y506561D01*
X920505Y506524D01*
X920357Y506469D01*
X920227Y506395D01*
X920098Y506302D01*
X920005Y506209D01*
X919875Y506006D01*
X919783Y505784D01*
X919746Y505598D01*
X919727Y505524D01*
Y505469D01*
Y505432D01*
Y505413D01*
Y504099D01*
X919746Y503895D01*
X919783Y503728D01*
X919838Y503562D01*
X919912Y503432D01*
X920005Y503321D01*
X920098Y503228D01*
X920301Y503099D01*
X920523Y503006D01*
X920708Y502969D01*
X920783Y502951D01*
X922875D01*
X922986Y502969D01*
X923042Y503043D01*
X923060Y503099D01*
Y503117D01*
Y506413D01*
X923023Y506506D01*
X922968Y506561D01*
X922912Y506580D01*
D02*
G37*
G36*
X908617D02*
X907395D01*
X907191Y506561D01*
X907025Y506524D01*
X906877Y506469D01*
X906747Y506395D01*
X906636Y506302D01*
X906543Y506209D01*
X906414Y506006D01*
X906321Y505784D01*
X906284Y505598D01*
X906266Y505524D01*
Y505469D01*
Y505432D01*
Y505413D01*
Y500321D01*
X906284Y500117D01*
X906321Y499932D01*
X906377Y499784D01*
X906432Y499655D01*
X906525Y499543D01*
X906617Y499432D01*
X906821Y499303D01*
X907043Y499210D01*
X907210Y499173D01*
X907284Y499155D01*
X908506D01*
X908710Y499173D01*
X908876Y499210D01*
X909025Y499266D01*
X909154Y499340D01*
X909265Y499432D01*
X909358Y499525D01*
X909488Y499747D01*
X909580Y499951D01*
X909617Y500136D01*
X909636Y500210D01*
Y500266D01*
Y500303D01*
Y500321D01*
Y505413D01*
X909617Y505617D01*
X909580Y505802D01*
X909525Y505950D01*
X909451Y506080D01*
X909376Y506209D01*
X909284Y506302D01*
X909062Y506432D01*
X908858Y506524D01*
X908673Y506561D01*
X908617Y506580D01*
D02*
G37*
G36*
X1435992Y305412D02*
X1433974D01*
X1433770Y305393D01*
X1433585Y305356D01*
X1433437Y305301D01*
X1433307Y305227D01*
X1433177Y305134D01*
X1433085Y305042D01*
X1432955Y304838D01*
X1432863Y304616D01*
X1432826Y304431D01*
X1432807Y304356D01*
Y304301D01*
Y304264D01*
Y304245D01*
Y302931D01*
X1432826Y302727D01*
X1432863Y302560D01*
X1432918Y302394D01*
X1432992Y302264D01*
X1433085Y302153D01*
X1433177Y302060D01*
X1433381Y301931D01*
X1433603Y301838D01*
X1433788Y301801D01*
X1433863Y301783D01*
X1435955D01*
X1436066Y301801D01*
X1436122Y301875D01*
X1436140Y301931D01*
Y301949D01*
Y305245D01*
X1436103Y305338D01*
X1436048Y305393D01*
X1435992Y305412D01*
D02*
G37*
G36*
X1415926Y269852D02*
X1413908D01*
X1413704Y269833D01*
X1413519Y269796D01*
X1413371Y269741D01*
X1413241Y269667D01*
X1413112Y269574D01*
X1413019Y269482D01*
X1412889Y269278D01*
X1412797Y269056D01*
X1412760Y268871D01*
X1412741Y268796D01*
Y268741D01*
Y268704D01*
Y268685D01*
Y267371D01*
X1412760Y267167D01*
X1412797Y267000D01*
X1412852Y266834D01*
X1412926Y266704D01*
X1413019Y266593D01*
X1413112Y266500D01*
X1413315Y266371D01*
X1413537Y266278D01*
X1413723Y266241D01*
X1413797Y266223D01*
X1415889D01*
X1416000Y266241D01*
X1416056Y266315D01*
X1416074Y266371D01*
Y266389D01*
Y269685D01*
X1416037Y269778D01*
X1415982Y269833D01*
X1415926Y269852D01*
D02*
G37*
G36*
X1399131D02*
X1397909D01*
X1397706Y269833D01*
X1397539Y269796D01*
X1397391Y269741D01*
X1397261Y269667D01*
X1397150Y269574D01*
X1397058Y269482D01*
X1396928Y269278D01*
X1396835Y269056D01*
X1396798Y268871D01*
X1396780Y268796D01*
Y268741D01*
Y268704D01*
Y268685D01*
Y263593D01*
X1396798Y263389D01*
X1396835Y263204D01*
X1396891Y263056D01*
X1396947Y262927D01*
X1397039Y262815D01*
X1397132Y262704D01*
X1397335Y262575D01*
X1397558Y262482D01*
X1397724Y262445D01*
X1397798Y262427D01*
X1399020D01*
X1399224Y262445D01*
X1399391Y262482D01*
X1399539Y262538D01*
X1399668Y262612D01*
X1399780Y262704D01*
X1399872Y262797D01*
X1400002Y263019D01*
X1400094Y263223D01*
X1400131Y263408D01*
X1400150Y263482D01*
Y263538D01*
Y263575D01*
Y263593D01*
Y268685D01*
X1400131Y268889D01*
X1400094Y269074D01*
X1400039Y269222D01*
X1399965Y269352D01*
X1399891Y269482D01*
X1399798Y269574D01*
X1399576Y269704D01*
X1399372Y269796D01*
X1399187Y269833D01*
X1399131Y269852D01*
D02*
G37*
G36*
X1390854D02*
X1389540D01*
X1389336Y269833D01*
X1389151Y269815D01*
X1389003Y269759D01*
X1388892Y269722D01*
X1388799Y269667D01*
X1388744Y269611D01*
X1388707Y269593D01*
X1388688Y269574D01*
X1388595Y269463D01*
X1388522Y269333D01*
X1388484Y269204D01*
X1388447Y269056D01*
X1388429Y268944D01*
X1388410Y268833D01*
Y268759D01*
Y268741D01*
Y267963D01*
X1388429Y267759D01*
X1388466Y267574D01*
X1388522Y267426D01*
X1388577Y267297D01*
X1388670Y267185D01*
X1388762Y267074D01*
X1388966Y266945D01*
X1389188Y266852D01*
X1389355Y266815D01*
X1389429Y266797D01*
X1390762D01*
X1390966Y266815D01*
X1391132Y266852D01*
X1391280Y266908D01*
X1391410Y266982D01*
X1391521Y267074D01*
X1391614Y267167D01*
X1391743Y267389D01*
X1391836Y267593D01*
X1391873Y267778D01*
X1391891Y267852D01*
Y267908D01*
Y267945D01*
Y267963D01*
Y268741D01*
X1391873Y268944D01*
X1391854Y269111D01*
X1391817Y269259D01*
X1391762Y269370D01*
X1391706Y269463D01*
X1391669Y269519D01*
X1391651Y269556D01*
X1391632Y269574D01*
X1391521Y269667D01*
X1391373Y269741D01*
X1391243Y269778D01*
X1391095Y269815D01*
X1390966Y269833D01*
X1390854Y269852D01*
D02*
G37*
G36*
X1390873Y265574D02*
X1389540D01*
X1389336Y265556D01*
X1389169Y265519D01*
X1389021Y265463D01*
X1388892Y265389D01*
X1388781Y265297D01*
X1388688Y265204D01*
X1388559Y264982D01*
X1388466Y264760D01*
X1388429Y264575D01*
X1388410Y264501D01*
Y264445D01*
Y264408D01*
Y264389D01*
Y263538D01*
X1388429Y263334D01*
X1388447Y263167D01*
X1388503Y263019D01*
X1388540Y262890D01*
X1388595Y262797D01*
X1388651Y262742D01*
X1388670Y262704D01*
X1388688Y262686D01*
X1388799Y262593D01*
X1388929Y262538D01*
X1389207Y262464D01*
X1389336Y262445D01*
X1389447Y262427D01*
X1390762D01*
X1390966Y262445D01*
X1391151Y262464D01*
X1391299Y262501D01*
X1391410Y262556D01*
X1391521Y262612D01*
X1391577Y262649D01*
X1391614Y262667D01*
X1391632Y262686D01*
X1391725Y262797D01*
X1391780Y262945D01*
X1391854Y263223D01*
X1391873Y263334D01*
X1391891Y263445D01*
Y263519D01*
Y263538D01*
Y264389D01*
X1391873Y264593D01*
X1391836Y264778D01*
X1391780Y264945D01*
X1391706Y265075D01*
X1391632Y265186D01*
X1391540Y265278D01*
X1391317Y265426D01*
X1391114Y265519D01*
X1390929Y265556D01*
X1390873Y265574D01*
D02*
G37*
G36*
X1421006Y235562D02*
X1418988D01*
X1418784Y235543D01*
X1418599Y235506D01*
X1418451Y235451D01*
X1418321Y235377D01*
X1418192Y235284D01*
X1418099Y235191D01*
X1417969Y234988D01*
X1417877Y234766D01*
X1417840Y234580D01*
X1417821Y234506D01*
Y234451D01*
Y234414D01*
Y234395D01*
Y233081D01*
X1417840Y232877D01*
X1417877Y232710D01*
X1417932Y232544D01*
X1418006Y232414D01*
X1418099Y232303D01*
X1418192Y232210D01*
X1418395Y232081D01*
X1418617Y231988D01*
X1418802Y231951D01*
X1418877Y231933D01*
X1420969D01*
X1421080Y231951D01*
X1421136Y232025D01*
X1421154Y232081D01*
Y232099D01*
Y235395D01*
X1421117Y235488D01*
X1421062Y235543D01*
X1421006Y235562D01*
D02*
G37*
G36*
X1404211D02*
X1402989D01*
X1402786Y235543D01*
X1402619Y235506D01*
X1402471Y235451D01*
X1402341Y235377D01*
X1402230Y235284D01*
X1402138Y235191D01*
X1402008Y234988D01*
X1401915Y234766D01*
X1401878Y234580D01*
X1401860Y234506D01*
Y234451D01*
Y234414D01*
Y234395D01*
Y229303D01*
X1401878Y229100D01*
X1401915Y228914D01*
X1401971Y228766D01*
X1402027Y228637D01*
X1402119Y228526D01*
X1402212Y228414D01*
X1402415Y228285D01*
X1402638Y228192D01*
X1402804Y228155D01*
X1402878Y228137D01*
X1404100D01*
X1404304Y228155D01*
X1404471Y228192D01*
X1404619Y228248D01*
X1404748Y228322D01*
X1404859Y228414D01*
X1404952Y228507D01*
X1405082Y228729D01*
X1405174Y228933D01*
X1405211Y229118D01*
X1405230Y229192D01*
Y229248D01*
Y229285D01*
Y229303D01*
Y234395D01*
X1405211Y234599D01*
X1405174Y234784D01*
X1405119Y234932D01*
X1405045Y235062D01*
X1404971Y235191D01*
X1404878Y235284D01*
X1404656Y235414D01*
X1404452Y235506D01*
X1404267Y235543D01*
X1404211Y235562D01*
D02*
G37*
G36*
X1338202Y233022D02*
X1336184D01*
X1335980Y233003D01*
X1335795Y232966D01*
X1335647Y232911D01*
X1335517Y232837D01*
X1335388Y232744D01*
X1335295Y232652D01*
X1335165Y232448D01*
X1335073Y232226D01*
X1335036Y232041D01*
X1335017Y231966D01*
Y231911D01*
Y231874D01*
Y231855D01*
Y230541D01*
X1335036Y230337D01*
X1335073Y230170D01*
X1335128Y230004D01*
X1335202Y229874D01*
X1335295Y229763D01*
X1335388Y229670D01*
X1335591Y229541D01*
X1335813Y229448D01*
X1335999Y229411D01*
X1336073Y229393D01*
X1338165D01*
X1338276Y229411D01*
X1338332Y229485D01*
X1338350Y229541D01*
Y229559D01*
Y232855D01*
X1338313Y232948D01*
X1338258Y233003D01*
X1338202Y233022D01*
D02*
G37*
G36*
X1321407D02*
X1320185D01*
X1319982Y233003D01*
X1319815Y232966D01*
X1319667Y232911D01*
X1319537Y232837D01*
X1319426Y232744D01*
X1319334Y232652D01*
X1319204Y232448D01*
X1319111Y232226D01*
X1319074Y232041D01*
X1319056Y231966D01*
Y231911D01*
Y231874D01*
Y231855D01*
Y226763D01*
X1319074Y226560D01*
X1319111Y226374D01*
X1319167Y226226D01*
X1319223Y226097D01*
X1319315Y225986D01*
X1319408Y225874D01*
X1319611Y225745D01*
X1319834Y225652D01*
X1320000Y225615D01*
X1320074Y225597D01*
X1321296D01*
X1321500Y225615D01*
X1321667Y225652D01*
X1321815Y225708D01*
X1321944Y225782D01*
X1322056Y225874D01*
X1322148Y225967D01*
X1322278Y226189D01*
X1322370Y226393D01*
X1322407Y226578D01*
X1322426Y226652D01*
Y226708D01*
Y226745D01*
Y226763D01*
Y231855D01*
X1322407Y232059D01*
X1322370Y232244D01*
X1322315Y232392D01*
X1322241Y232522D01*
X1322167Y232652D01*
X1322074Y232744D01*
X1321852Y232874D01*
X1321648Y232966D01*
X1321463Y233003D01*
X1321407Y233022D01*
D02*
G37*
G36*
X1314223Y229170D02*
X1312020D01*
X1311816Y229152D01*
X1311649Y229115D01*
X1311501Y229059D01*
X1311371Y228985D01*
X1311260Y228911D01*
X1311186Y228800D01*
X1311038Y228596D01*
X1310964Y228393D01*
X1310927Y228207D01*
X1310909Y228134D01*
Y228078D01*
Y228041D01*
Y228022D01*
Y226763D01*
X1310927Y226560D01*
X1310964Y226374D01*
X1311020Y226226D01*
X1311075Y226097D01*
X1311168Y225986D01*
X1311260Y225874D01*
X1311464Y225745D01*
X1311668Y225652D01*
X1311853Y225615D01*
X1311909Y225597D01*
X1313094D01*
X1313297Y225615D01*
X1313464Y225652D01*
X1313612Y225708D01*
X1313742Y225782D01*
X1313853Y225874D01*
X1313945Y225967D01*
X1314075Y226189D01*
X1314167Y226393D01*
X1314205Y226578D01*
X1314223Y226652D01*
Y226708D01*
Y226745D01*
Y226763D01*
Y229170D01*
D02*
G37*
G36*
X1420498Y198732D02*
X1418480D01*
X1418276Y198713D01*
X1418091Y198676D01*
X1417943Y198621D01*
X1417813Y198547D01*
X1417684Y198454D01*
X1417591Y198361D01*
X1417461Y198158D01*
X1417369Y197936D01*
X1417332Y197750D01*
X1417313Y197676D01*
Y197621D01*
Y197584D01*
Y197565D01*
Y196251D01*
X1417332Y196047D01*
X1417369Y195880D01*
X1417424Y195714D01*
X1417498Y195584D01*
X1417591Y195473D01*
X1417684Y195380D01*
X1417887Y195251D01*
X1418109Y195158D01*
X1418295Y195121D01*
X1418369Y195103D01*
X1420461D01*
X1420572Y195121D01*
X1420628Y195195D01*
X1420646Y195251D01*
Y195269D01*
Y198565D01*
X1420609Y198658D01*
X1420554Y198713D01*
X1420498Y198732D01*
D02*
G37*
G36*
X1403703D02*
X1402481D01*
X1402278Y198713D01*
X1402111Y198676D01*
X1401963Y198621D01*
X1401833Y198547D01*
X1401722Y198454D01*
X1401630Y198361D01*
X1401500Y198158D01*
X1401407Y197936D01*
X1401370Y197750D01*
X1401352Y197676D01*
Y197621D01*
Y197584D01*
Y197565D01*
Y192473D01*
X1401370Y192269D01*
X1401407Y192084D01*
X1401463Y191936D01*
X1401519Y191807D01*
X1401611Y191695D01*
X1401704Y191584D01*
X1401907Y191455D01*
X1402130Y191362D01*
X1402296Y191325D01*
X1402370Y191307D01*
X1403592D01*
X1403796Y191325D01*
X1403963Y191362D01*
X1404111Y191418D01*
X1404240Y191492D01*
X1404352Y191584D01*
X1404444Y191677D01*
X1404574Y191899D01*
X1404666Y192103D01*
X1404703Y192288D01*
X1404722Y192362D01*
Y192418D01*
Y192455D01*
Y192473D01*
Y197565D01*
X1404703Y197769D01*
X1404666Y197954D01*
X1404611Y198102D01*
X1404537Y198232D01*
X1404463Y198361D01*
X1404370Y198454D01*
X1404148Y198584D01*
X1403944Y198676D01*
X1403759Y198713D01*
X1403703Y198732D01*
D02*
G37*
G36*
X1349124Y150472D02*
X1347106D01*
X1346902Y150453D01*
X1346717Y150416D01*
X1346569Y150361D01*
X1346439Y150287D01*
X1346310Y150194D01*
X1346217Y150101D01*
X1346087Y149898D01*
X1345995Y149676D01*
X1345958Y149490D01*
X1345939Y149416D01*
Y149361D01*
Y149324D01*
Y149305D01*
Y147991D01*
X1345958Y147787D01*
X1345995Y147620D01*
X1346050Y147454D01*
X1346124Y147324D01*
X1346217Y147213D01*
X1346310Y147120D01*
X1346513Y146991D01*
X1346735Y146898D01*
X1346920Y146861D01*
X1346995Y146843D01*
X1349087D01*
X1349198Y146861D01*
X1349254Y146935D01*
X1349272Y146991D01*
Y147009D01*
Y150305D01*
X1349235Y150398D01*
X1349180Y150453D01*
X1349124Y150472D01*
D02*
G37*
G36*
X1332330D02*
X1331107D01*
X1330904Y150453D01*
X1330737Y150416D01*
X1330589Y150361D01*
X1330459Y150287D01*
X1330348Y150194D01*
X1330256Y150101D01*
X1330126Y149898D01*
X1330033Y149676D01*
X1329996Y149490D01*
X1329978Y149416D01*
Y149361D01*
Y149324D01*
Y149305D01*
Y144213D01*
X1329996Y144010D01*
X1330033Y143824D01*
X1330089Y143676D01*
X1330145Y143547D01*
X1330237Y143435D01*
X1330330Y143324D01*
X1330533Y143195D01*
X1330756Y143102D01*
X1330922Y143065D01*
X1330996Y143047D01*
X1332218D01*
X1332422Y143065D01*
X1332589Y143102D01*
X1332737Y143158D01*
X1332866Y143232D01*
X1332977Y143324D01*
X1333070Y143417D01*
X1333200Y143639D01*
X1333292Y143843D01*
X1333329Y144028D01*
X1333348Y144102D01*
Y144158D01*
Y144195D01*
Y144213D01*
Y149305D01*
X1333329Y149509D01*
X1333292Y149694D01*
X1333237Y149842D01*
X1333163Y149972D01*
X1333089Y150101D01*
X1332996Y150194D01*
X1332774Y150324D01*
X1332570Y150416D01*
X1332385Y150453D01*
X1332330Y150472D01*
D02*
G37*
G36*
X1322330Y150527D02*
Y144972D01*
X1325423D01*
X1322330Y150527D01*
D02*
G37*
G36*
X1420498Y160632D02*
X1418480D01*
X1418276Y160613D01*
X1418091Y160576D01*
X1417943Y160521D01*
X1417813Y160447D01*
X1417684Y160354D01*
X1417591Y160261D01*
X1417461Y160058D01*
X1417369Y159836D01*
X1417332Y159650D01*
X1417313Y159576D01*
Y159521D01*
Y159484D01*
Y159465D01*
Y158151D01*
X1417332Y157947D01*
X1417369Y157780D01*
X1417424Y157614D01*
X1417498Y157484D01*
X1417591Y157373D01*
X1417684Y157280D01*
X1417887Y157151D01*
X1418109Y157058D01*
X1418295Y157021D01*
X1418369Y157003D01*
X1420461D01*
X1420572Y157021D01*
X1420628Y157095D01*
X1420646Y157151D01*
Y157169D01*
Y160465D01*
X1420609Y160558D01*
X1420554Y160613D01*
X1420498Y160632D01*
D02*
G37*
G36*
X1403703D02*
X1402481D01*
X1402278Y160613D01*
X1402111Y160576D01*
X1401963Y160521D01*
X1401833Y160447D01*
X1401722Y160354D01*
X1401630Y160261D01*
X1401500Y160058D01*
X1401407Y159836D01*
X1401370Y159650D01*
X1401352Y159576D01*
Y159521D01*
Y159484D01*
Y159465D01*
Y154373D01*
X1401370Y154170D01*
X1401407Y153984D01*
X1401463Y153836D01*
X1401519Y153707D01*
X1401611Y153596D01*
X1401704Y153484D01*
X1401907Y153355D01*
X1402130Y153262D01*
X1402296Y153225D01*
X1402370Y153207D01*
X1403592D01*
X1403796Y153225D01*
X1403963Y153262D01*
X1404111Y153318D01*
X1404240Y153392D01*
X1404352Y153484D01*
X1404444Y153577D01*
X1404574Y153799D01*
X1404666Y154003D01*
X1404703Y154188D01*
X1404722Y154262D01*
Y154318D01*
Y154355D01*
Y154373D01*
Y159465D01*
X1404703Y159669D01*
X1404666Y159854D01*
X1404611Y160002D01*
X1404537Y160132D01*
X1404463Y160261D01*
X1404370Y160354D01*
X1404148Y160484D01*
X1403944Y160576D01*
X1403759Y160613D01*
X1403703Y160632D01*
D02*
G37*
G36*
X1403988Y88242D02*
X1401970D01*
X1401766Y88223D01*
X1401581Y88186D01*
X1401433Y88131D01*
X1401303Y88057D01*
X1401174Y87964D01*
X1401081Y87872D01*
X1400951Y87668D01*
X1400859Y87446D01*
X1400822Y87261D01*
X1400803Y87186D01*
Y87131D01*
Y87094D01*
Y87075D01*
Y85761D01*
X1400822Y85557D01*
X1400859Y85390D01*
X1400914Y85224D01*
X1400988Y85094D01*
X1401081Y84983D01*
X1401174Y84890D01*
X1401377Y84761D01*
X1401599Y84668D01*
X1401785Y84631D01*
X1401859Y84613D01*
X1403951D01*
X1404062Y84631D01*
X1404118Y84705D01*
X1404136Y84761D01*
Y84779D01*
Y88075D01*
X1404099Y88168D01*
X1404044Y88223D01*
X1403988Y88242D01*
D02*
G37*
G36*
X1387193D02*
X1385971D01*
X1385768Y88223D01*
X1385601Y88186D01*
X1385453Y88131D01*
X1385323Y88057D01*
X1385212Y87964D01*
X1385120Y87872D01*
X1384990Y87668D01*
X1384897Y87446D01*
X1384860Y87261D01*
X1384842Y87186D01*
Y87131D01*
Y87094D01*
Y87075D01*
Y81983D01*
X1384860Y81779D01*
X1384897Y81594D01*
X1384953Y81446D01*
X1385009Y81317D01*
X1385101Y81206D01*
X1385194Y81094D01*
X1385397Y80965D01*
X1385620Y80872D01*
X1385786Y80835D01*
X1385860Y80817D01*
X1387082D01*
X1387286Y80835D01*
X1387453Y80872D01*
X1387601Y80928D01*
X1387730Y81002D01*
X1387841Y81094D01*
X1387934Y81187D01*
X1388064Y81409D01*
X1388156Y81613D01*
X1388193Y81798D01*
X1388212Y81872D01*
Y81928D01*
Y81965D01*
Y81983D01*
Y87075D01*
X1388193Y87279D01*
X1388156Y87464D01*
X1388101Y87612D01*
X1388027Y87742D01*
X1387953Y87872D01*
X1387860Y87964D01*
X1387638Y88094D01*
X1387434Y88186D01*
X1387249Y88223D01*
X1387193Y88242D01*
D02*
G37*
G36*
X1419990Y125072D02*
X1417972D01*
X1417768Y125053D01*
X1417583Y125016D01*
X1417435Y124961D01*
X1417305Y124887D01*
X1417175Y124794D01*
X1417083Y124701D01*
X1416953Y124498D01*
X1416861Y124276D01*
X1416824Y124090D01*
X1416805Y124016D01*
Y123961D01*
Y123924D01*
Y123905D01*
Y122591D01*
X1416824Y122387D01*
X1416861Y122220D01*
X1416916Y122054D01*
X1416990Y121924D01*
X1417083Y121813D01*
X1417175Y121720D01*
X1417379Y121591D01*
X1417601Y121498D01*
X1417787Y121461D01*
X1417861Y121443D01*
X1419953D01*
X1420064Y121461D01*
X1420120Y121535D01*
X1420138Y121591D01*
Y121609D01*
Y124905D01*
X1420101Y124998D01*
X1420046Y125053D01*
X1419990Y125072D01*
D02*
G37*
G36*
X1403195D02*
X1401973D01*
X1401770Y125053D01*
X1401603Y125016D01*
X1401455Y124961D01*
X1401325Y124887D01*
X1401214Y124794D01*
X1401122Y124701D01*
X1400992Y124498D01*
X1400899Y124276D01*
X1400862Y124090D01*
X1400844Y124016D01*
Y123961D01*
Y123924D01*
Y123905D01*
Y118813D01*
X1400862Y118610D01*
X1400899Y118424D01*
X1400955Y118276D01*
X1401010Y118147D01*
X1401103Y118035D01*
X1401196Y117924D01*
X1401399Y117795D01*
X1401622Y117702D01*
X1401788Y117665D01*
X1401862Y117647D01*
X1403084D01*
X1403288Y117665D01*
X1403455Y117702D01*
X1403603Y117758D01*
X1403732Y117832D01*
X1403844Y117924D01*
X1403936Y118017D01*
X1404066Y118239D01*
X1404158Y118443D01*
X1404195Y118628D01*
X1404214Y118702D01*
Y118758D01*
Y118795D01*
Y118813D01*
Y123905D01*
X1404195Y124109D01*
X1404158Y124294D01*
X1404103Y124442D01*
X1404029Y124572D01*
X1403955Y124701D01*
X1403862Y124794D01*
X1403640Y124924D01*
X1403436Y125016D01*
X1403251Y125053D01*
X1403195Y125072D01*
D02*
G37*
G36*
X1417704Y340210D02*
X1415686D01*
X1415482Y340191D01*
X1415297Y340154D01*
X1415149Y340099D01*
X1415019Y340025D01*
X1414890Y339932D01*
X1414797Y339840D01*
X1414667Y339636D01*
X1414575Y339414D01*
X1414538Y339229D01*
X1414519Y339154D01*
Y339099D01*
Y339062D01*
Y339043D01*
Y337729D01*
X1414538Y337525D01*
X1414575Y337358D01*
X1414630Y337192D01*
X1414704Y337062D01*
X1414797Y336951D01*
X1414890Y336858D01*
X1415093Y336729D01*
X1415315Y336636D01*
X1415500Y336599D01*
X1415575Y336581D01*
X1417667D01*
X1417778Y336599D01*
X1417834Y336673D01*
X1417852Y336729D01*
Y336747D01*
Y340043D01*
X1417815Y340136D01*
X1417760Y340191D01*
X1417704Y340210D01*
D02*
G37*
G36*
X1359378Y250548D02*
X1358156D01*
X1357952Y250529D01*
X1357785Y250492D01*
X1357637Y250437D01*
X1357508Y250363D01*
X1357397Y250270D01*
X1357304Y250177D01*
X1357174Y249974D01*
X1357082Y249752D01*
X1357045Y249566D01*
X1357026Y249492D01*
Y249437D01*
Y249400D01*
Y249381D01*
Y244289D01*
X1357045Y244086D01*
X1357082Y243900D01*
X1357137Y243752D01*
X1357193Y243623D01*
X1357285Y243512D01*
X1357378Y243400D01*
X1357582Y243271D01*
X1357804Y243178D01*
X1357971Y243141D01*
X1358045Y243123D01*
X1359267D01*
X1359470Y243141D01*
X1359637Y243178D01*
X1359785Y243234D01*
X1359915Y243308D01*
X1360026Y243400D01*
X1360119Y243493D01*
X1360248Y243715D01*
X1360341Y243919D01*
X1360378Y244104D01*
X1360396Y244178D01*
Y244234D01*
Y244271D01*
Y244289D01*
Y249381D01*
X1360378Y249585D01*
X1360341Y249770D01*
X1360285Y249918D01*
X1360211Y250048D01*
X1360137Y250177D01*
X1360044Y250270D01*
X1359822Y250400D01*
X1359619Y250492D01*
X1359433Y250529D01*
X1359378Y250548D01*
D02*
G37*
G36*
X1349379Y250603D02*
Y245048D01*
X1352471D01*
X1349379Y250603D01*
D02*
G37*
G36*
X1358362Y212448D02*
X1357140D01*
X1356936Y212429D01*
X1356769Y212392D01*
X1356621Y212337D01*
X1356492Y212263D01*
X1356381Y212170D01*
X1356288Y212078D01*
X1356158Y211874D01*
X1356066Y211652D01*
X1356029Y211467D01*
X1356010Y211392D01*
Y211337D01*
Y211300D01*
Y211281D01*
Y206189D01*
X1356029Y205986D01*
X1356066Y205800D01*
X1356121Y205652D01*
X1356177Y205523D01*
X1356270Y205411D01*
X1356362Y205300D01*
X1356566Y205171D01*
X1356788Y205078D01*
X1356955Y205041D01*
X1357029Y205023D01*
X1358251D01*
X1358454Y205041D01*
X1358621Y205078D01*
X1358769Y205134D01*
X1358899Y205208D01*
X1359010Y205300D01*
X1359102Y205393D01*
X1359232Y205615D01*
X1359325Y205819D01*
X1359362Y206004D01*
X1359380Y206078D01*
Y206134D01*
Y206171D01*
Y206189D01*
Y211281D01*
X1359362Y211485D01*
X1359325Y211670D01*
X1359269Y211818D01*
X1359195Y211948D01*
X1359121Y212078D01*
X1359028Y212170D01*
X1358806Y212300D01*
X1358603Y212392D01*
X1358417Y212429D01*
X1358362Y212448D01*
D02*
G37*
G36*
X1357600Y179428D02*
X1356378D01*
X1356174Y179409D01*
X1356007Y179372D01*
X1355859Y179317D01*
X1355730Y179243D01*
X1355619Y179150D01*
X1355526Y179058D01*
X1355396Y178854D01*
X1355304Y178632D01*
X1355267Y178447D01*
X1355248Y178372D01*
Y178317D01*
Y178280D01*
Y178261D01*
Y173169D01*
X1355267Y172966D01*
X1355304Y172780D01*
X1355359Y172632D01*
X1355415Y172503D01*
X1355508Y172391D01*
X1355600Y172280D01*
X1355804Y172151D01*
X1356026Y172058D01*
X1356193Y172021D01*
X1356267Y172003D01*
X1357489D01*
X1357692Y172021D01*
X1357859Y172058D01*
X1358007Y172114D01*
X1358137Y172188D01*
X1358248Y172280D01*
X1358340Y172373D01*
X1358470Y172595D01*
X1358563Y172799D01*
X1358600Y172984D01*
X1358618Y173058D01*
Y173114D01*
Y173151D01*
Y173169D01*
Y178261D01*
X1358600Y178465D01*
X1358563Y178650D01*
X1358507Y178798D01*
X1358433Y178928D01*
X1358359Y179058D01*
X1358266Y179150D01*
X1358044Y179280D01*
X1357841Y179372D01*
X1357655Y179409D01*
X1357600Y179428D01*
D02*
G37*
G36*
X1354044Y110848D02*
X1352822D01*
X1352618Y110829D01*
X1352451Y110792D01*
X1352303Y110737D01*
X1352174Y110663D01*
X1352063Y110570D01*
X1351970Y110478D01*
X1351840Y110274D01*
X1351748Y110052D01*
X1351711Y109867D01*
X1351692Y109792D01*
Y109737D01*
Y109700D01*
Y109681D01*
Y104589D01*
X1351711Y104385D01*
X1351748Y104200D01*
X1351803Y104052D01*
X1351859Y103923D01*
X1351951Y103812D01*
X1352044Y103700D01*
X1352248Y103571D01*
X1352470Y103478D01*
X1352637Y103441D01*
X1352711Y103423D01*
X1353933D01*
X1354136Y103441D01*
X1354303Y103478D01*
X1354451Y103534D01*
X1354581Y103608D01*
X1354692Y103700D01*
X1354785Y103793D01*
X1354914Y104015D01*
X1355007Y104219D01*
X1355044Y104404D01*
X1355062Y104478D01*
Y104534D01*
Y104571D01*
Y104589D01*
Y109681D01*
X1355044Y109885D01*
X1355007Y110070D01*
X1354951Y110218D01*
X1354877Y110348D01*
X1354803Y110478D01*
X1354710Y110570D01*
X1354488Y110700D01*
X1354285Y110792D01*
X1354099Y110829D01*
X1354044Y110848D01*
D02*
G37*
%LPD*%
D13*
X1359940Y82400D02*
X1362940D01*
X1359940Y95400D02*
X1362940D01*
X1361210Y222100D02*
X1364210D01*
X1361210Y235100D02*
X1364210D01*
X1360600Y150980D02*
X1363600D01*
X1360600Y163980D02*
X1363600D01*
X1361210Y184000D02*
X1364210D01*
X1361210Y197000D02*
X1364210D01*
X1378100Y274090D02*
Y277090D01*
X1365100Y274090D02*
Y277090D01*
M02*
