G04*
G04 #@! TF.GenerationSoftware,Altium Limited,Altium Designer,24.3.1 (35)*
G04*
G04 Layer_Physical_Order=2*
G04 Layer_Color=36540*
%FSLAX44Y44*%
%MOMM*%
G71*
G04*
G04 #@! TF.SameCoordinates,C3A98564-D86C-46C7-A890-955D0AD343B8*
G04*
G04*
G04 #@! TF.FilePolarity,Positive*
G04*
G01*
G75*
%ADD38C,0.3000*%
%ADD40C,7.0000*%
%ADD41C,1.8750*%
%ADD42C,8.0000*%
%ADD43C,0.6750*%
%ADD44C,0.7000*%
%ADD45C,0.5000*%
G36*
X1500000Y550000D02*
X1503277D01*
X1509775Y549144D01*
X1516106Y547448D01*
X1522162Y544940D01*
X1527838Y541663D01*
X1533038Y537673D01*
X1537673Y533038D01*
X1541663Y527838D01*
X1544940Y522162D01*
X1547448Y516106D01*
X1549144Y509775D01*
X1550000Y503277D01*
Y500000D01*
X1550000Y500000D01*
X1550000Y500000D01*
X1550000Y50000D01*
Y46723D01*
X1549144Y40224D01*
X1547448Y33893D01*
X1544940Y27838D01*
X1541663Y22162D01*
X1537673Y16962D01*
X1533038Y12327D01*
X1527838Y8337D01*
X1522162Y5060D01*
X1516106Y2552D01*
X1509775Y856D01*
X1503277Y0D01*
X1500000Y0D01*
X50000Y0D01*
X46723D01*
X40224Y856D01*
X33893Y2552D01*
X27838Y5060D01*
X22162Y8337D01*
X16962Y12327D01*
X12327Y16962D01*
X8337Y22162D01*
X5060Y27838D01*
X2552Y33893D01*
X856Y40224D01*
X0Y46723D01*
X0Y50000D01*
X0Y500000D01*
Y503277D01*
X856Y509775D01*
X2552Y516106D01*
X5060Y522162D01*
X8337Y527838D01*
X12327Y533038D01*
X16962Y537673D01*
X22162Y541663D01*
X27838Y544940D01*
X33893Y547448D01*
X40224Y549144D01*
X46723Y550000D01*
X50000D01*
X50000Y550000D01*
X1500000Y550000D01*
D02*
G37*
%LPC*%
G36*
X1440895Y524500D02*
X1439105D01*
X1437451Y523815D01*
X1436185Y522549D01*
X1435500Y520895D01*
Y519105D01*
X1436185Y517451D01*
X1437451Y516185D01*
X1439105Y515500D01*
X1440895D01*
X1442549Y516185D01*
X1443815Y517451D01*
X1444500Y519105D01*
Y520895D01*
X1443815Y522549D01*
X1442549Y523815D01*
X1440895Y524500D01*
D02*
G37*
G36*
X1400895D02*
X1399105D01*
X1397451Y523815D01*
X1396185Y522549D01*
X1395500Y520895D01*
Y519105D01*
X1396185Y517451D01*
X1397451Y516185D01*
X1399105Y515500D01*
X1400895D01*
X1402549Y516185D01*
X1403815Y517451D01*
X1404500Y519105D01*
Y520895D01*
X1403815Y522549D01*
X1402549Y523815D01*
X1400895Y524500D01*
D02*
G37*
G36*
X1360895D02*
X1359105D01*
X1357451Y523815D01*
X1356185Y522549D01*
X1355500Y520895D01*
Y519105D01*
X1356185Y517451D01*
X1357451Y516185D01*
X1359105Y515500D01*
X1360895D01*
X1362549Y516185D01*
X1363815Y517451D01*
X1364500Y519105D01*
Y520895D01*
X1363815Y522549D01*
X1362549Y523815D01*
X1360895Y524500D01*
D02*
G37*
G36*
X1320895D02*
X1319105D01*
X1317451Y523815D01*
X1316185Y522549D01*
X1315500Y520895D01*
Y519105D01*
X1316185Y517451D01*
X1317451Y516185D01*
X1319105Y515500D01*
X1320895D01*
X1322549Y516185D01*
X1323815Y517451D01*
X1324500Y519105D01*
Y520895D01*
X1323815Y522549D01*
X1322549Y523815D01*
X1320895Y524500D01*
D02*
G37*
G36*
X1280895D02*
X1279105D01*
X1277451Y523815D01*
X1276185Y522549D01*
X1275500Y520895D01*
Y519105D01*
X1276185Y517451D01*
X1277451Y516185D01*
X1279105Y515500D01*
X1280895D01*
X1282549Y516185D01*
X1283815Y517451D01*
X1284500Y519105D01*
Y520895D01*
X1283815Y522549D01*
X1282549Y523815D01*
X1280895Y524500D01*
D02*
G37*
G36*
X1240895D02*
X1239105D01*
X1237451Y523815D01*
X1236185Y522549D01*
X1235500Y520895D01*
Y519105D01*
X1236185Y517451D01*
X1237451Y516185D01*
X1239105Y515500D01*
X1240895D01*
X1242549Y516185D01*
X1243815Y517451D01*
X1244500Y519105D01*
Y520895D01*
X1243815Y522549D01*
X1242549Y523815D01*
X1240895Y524500D01*
D02*
G37*
G36*
X1200895D02*
X1199105D01*
X1197451Y523815D01*
X1196185Y522549D01*
X1195500Y520895D01*
Y519105D01*
X1196185Y517451D01*
X1197451Y516185D01*
X1199105Y515500D01*
X1200895D01*
X1202549Y516185D01*
X1203815Y517451D01*
X1204500Y519105D01*
Y520895D01*
X1203815Y522549D01*
X1202549Y523815D01*
X1200895Y524500D01*
D02*
G37*
G36*
X1160895D02*
X1159105D01*
X1157451Y523815D01*
X1156185Y522549D01*
X1155500Y520895D01*
Y519105D01*
X1156185Y517451D01*
X1157451Y516185D01*
X1159105Y515500D01*
X1160895D01*
X1162549Y516185D01*
X1163815Y517451D01*
X1164500Y519105D01*
Y520895D01*
X1163815Y522549D01*
X1162549Y523815D01*
X1160895Y524500D01*
D02*
G37*
G36*
X1120895D02*
X1119105D01*
X1117451Y523815D01*
X1116185Y522549D01*
X1115500Y520895D01*
Y519105D01*
X1116185Y517451D01*
X1117451Y516185D01*
X1119105Y515500D01*
X1120895D01*
X1122549Y516185D01*
X1123815Y517451D01*
X1124500Y519105D01*
Y520895D01*
X1123815Y522549D01*
X1122549Y523815D01*
X1120895Y524500D01*
D02*
G37*
G36*
X1080895D02*
X1079105D01*
X1077451Y523815D01*
X1076185Y522549D01*
X1075500Y520895D01*
Y519105D01*
X1076185Y517451D01*
X1077451Y516185D01*
X1079105Y515500D01*
X1080895D01*
X1082549Y516185D01*
X1083815Y517451D01*
X1084500Y519105D01*
Y520895D01*
X1083815Y522549D01*
X1082549Y523815D01*
X1080895Y524500D01*
D02*
G37*
G36*
X1040895D02*
X1039105D01*
X1037451Y523815D01*
X1036185Y522549D01*
X1035500Y520895D01*
Y519105D01*
X1036185Y517451D01*
X1037451Y516185D01*
X1039105Y515500D01*
X1040895D01*
X1042549Y516185D01*
X1043815Y517451D01*
X1044500Y519105D01*
Y520895D01*
X1043815Y522549D01*
X1042549Y523815D01*
X1040895Y524500D01*
D02*
G37*
G36*
X880895D02*
X879105D01*
X877451Y523815D01*
X876185Y522549D01*
X875500Y520895D01*
Y519105D01*
X876185Y517451D01*
X877451Y516185D01*
X879105Y515500D01*
X880895D01*
X882549Y516185D01*
X883815Y517451D01*
X884500Y519105D01*
Y520895D01*
X883815Y522549D01*
X882549Y523815D01*
X880895Y524500D01*
D02*
G37*
G36*
X840895D02*
X839105D01*
X837451Y523815D01*
X836185Y522549D01*
X835500Y520895D01*
Y519105D01*
X836185Y517451D01*
X837451Y516185D01*
X839105Y515500D01*
X840895D01*
X842549Y516185D01*
X843815Y517451D01*
X844500Y519105D01*
Y520895D01*
X843815Y522549D01*
X842549Y523815D01*
X840895Y524500D01*
D02*
G37*
G36*
X760895D02*
X759105D01*
X757451Y523815D01*
X756185Y522549D01*
X755500Y520895D01*
Y519105D01*
X756185Y517451D01*
X757451Y516185D01*
X759105Y515500D01*
X760895D01*
X762549Y516185D01*
X763815Y517451D01*
X764500Y519105D01*
Y520895D01*
X763815Y522549D01*
X762549Y523815D01*
X760895Y524500D01*
D02*
G37*
G36*
X720895D02*
X719105D01*
X717451Y523815D01*
X716185Y522549D01*
X715500Y520895D01*
Y519105D01*
X716185Y517451D01*
X717451Y516185D01*
X719105Y515500D01*
X720895D01*
X722549Y516185D01*
X723815Y517451D01*
X724500Y519105D01*
Y520895D01*
X723815Y522549D01*
X722549Y523815D01*
X720895Y524500D01*
D02*
G37*
G36*
X640895D02*
X639105D01*
X637451Y523815D01*
X636185Y522549D01*
X635500Y520895D01*
Y519105D01*
X636185Y517451D01*
X637451Y516185D01*
X639105Y515500D01*
X640895D01*
X642549Y516185D01*
X643815Y517451D01*
X644500Y519105D01*
Y520895D01*
X643815Y522549D01*
X642549Y523815D01*
X640895Y524500D01*
D02*
G37*
G36*
X600895D02*
X599105D01*
X597451Y523815D01*
X596185Y522549D01*
X595500Y520895D01*
Y519105D01*
X596185Y517451D01*
X597451Y516185D01*
X599105Y515500D01*
X600895D01*
X602549Y516185D01*
X603815Y517451D01*
X604500Y519105D01*
Y520895D01*
X603815Y522549D01*
X602549Y523815D01*
X600895Y524500D01*
D02*
G37*
G36*
X560895D02*
X559105D01*
X557451Y523815D01*
X556185Y522549D01*
X555500Y520895D01*
Y519105D01*
X556185Y517451D01*
X557451Y516185D01*
X559105Y515500D01*
X560895D01*
X562549Y516185D01*
X563815Y517451D01*
X564500Y519105D01*
Y520895D01*
X563815Y522549D01*
X562549Y523815D01*
X560895Y524500D01*
D02*
G37*
G36*
X520895D02*
X519105D01*
X517451Y523815D01*
X516185Y522549D01*
X515500Y520895D01*
Y519105D01*
X516185Y517451D01*
X517451Y516185D01*
X519105Y515500D01*
X520895D01*
X522549Y516185D01*
X523815Y517451D01*
X524500Y519105D01*
Y520895D01*
X523815Y522549D01*
X522549Y523815D01*
X520895Y524500D01*
D02*
G37*
G36*
X480895D02*
X479105D01*
X477451Y523815D01*
X476185Y522549D01*
X475500Y520895D01*
Y519105D01*
X476185Y517451D01*
X477451Y516185D01*
X479105Y515500D01*
X480895D01*
X482549Y516185D01*
X483815Y517451D01*
X484500Y519105D01*
Y520895D01*
X483815Y522549D01*
X482549Y523815D01*
X480895Y524500D01*
D02*
G37*
G36*
X440895D02*
X439105D01*
X437451Y523815D01*
X436185Y522549D01*
X435500Y520895D01*
Y519105D01*
X436185Y517451D01*
X437451Y516185D01*
X439105Y515500D01*
X440895D01*
X442549Y516185D01*
X443815Y517451D01*
X444500Y519105D01*
Y520895D01*
X443815Y522549D01*
X442549Y523815D01*
X440895Y524500D01*
D02*
G37*
G36*
X400895D02*
X399105D01*
X397451Y523815D01*
X396185Y522549D01*
X395500Y520895D01*
Y519105D01*
X396185Y517451D01*
X397451Y516185D01*
X399105Y515500D01*
X400895D01*
X402549Y516185D01*
X403815Y517451D01*
X404500Y519105D01*
Y520895D01*
X403815Y522549D01*
X402549Y523815D01*
X400895Y524500D01*
D02*
G37*
G36*
X360895D02*
X359105D01*
X357451Y523815D01*
X356185Y522549D01*
X355500Y520895D01*
Y519105D01*
X356185Y517451D01*
X357451Y516185D01*
X359105Y515500D01*
X360895D01*
X362549Y516185D01*
X363815Y517451D01*
X364500Y519105D01*
Y520895D01*
X363815Y522549D01*
X362549Y523815D01*
X360895Y524500D01*
D02*
G37*
G36*
X320895D02*
X319105D01*
X317451Y523815D01*
X316185Y522549D01*
X315500Y520895D01*
Y519105D01*
X316185Y517451D01*
X317451Y516185D01*
X319105Y515500D01*
X320895D01*
X322549Y516185D01*
X323815Y517451D01*
X324500Y519105D01*
Y520895D01*
X323815Y522549D01*
X322549Y523815D01*
X320895Y524500D01*
D02*
G37*
G36*
X280895D02*
X279105D01*
X277451Y523815D01*
X276185Y522549D01*
X275500Y520895D01*
Y519105D01*
X276185Y517451D01*
X277451Y516185D01*
X279105Y515500D01*
X280895D01*
X282549Y516185D01*
X283815Y517451D01*
X284500Y519105D01*
Y520895D01*
X283815Y522549D01*
X282549Y523815D01*
X280895Y524500D01*
D02*
G37*
G36*
X240895D02*
X239105D01*
X237451Y523815D01*
X236185Y522549D01*
X235500Y520895D01*
Y519105D01*
X236185Y517451D01*
X237451Y516185D01*
X239105Y515500D01*
X240895D01*
X242549Y516185D01*
X243815Y517451D01*
X244500Y519105D01*
Y520895D01*
X243815Y522549D01*
X242549Y523815D01*
X240895Y524500D01*
D02*
G37*
G36*
X160895D02*
X159105D01*
X157451Y523815D01*
X156185Y522549D01*
X155500Y520895D01*
Y519105D01*
X156185Y517451D01*
X157451Y516185D01*
X159105Y515500D01*
X160895D01*
X162549Y516185D01*
X163815Y517451D01*
X164500Y519105D01*
Y520895D01*
X163815Y522549D01*
X162549Y523815D01*
X160895Y524500D01*
D02*
G37*
G36*
X120895D02*
X119105D01*
X117451Y523815D01*
X116185Y522549D01*
X115500Y520895D01*
Y519105D01*
X116185Y517451D01*
X117451Y516185D01*
X119105Y515500D01*
X120895D01*
X122549Y516185D01*
X123815Y517451D01*
X124500Y519105D01*
Y520895D01*
X123815Y522549D01*
X122549Y523815D01*
X120895Y524500D01*
D02*
G37*
G36*
X996777Y525795D02*
X993783D01*
X990889Y525020D01*
X988296Y523522D01*
X986178Y521404D01*
X984680Y518811D01*
X983905Y515918D01*
Y512923D01*
X984680Y510029D01*
X986178Y507436D01*
X988296Y505318D01*
X990889Y503820D01*
X993783Y503045D01*
X996777D01*
X999671Y503820D01*
X1002264Y505318D01*
X1004382Y507436D01*
X1005880Y510029D01*
X1006655Y512923D01*
Y515918D01*
X1005880Y518811D01*
X1004382Y521404D01*
X1002264Y523522D01*
X999671Y525020D01*
X996777Y525795D01*
D02*
G37*
G36*
Y500795D02*
X993783D01*
X990889Y500020D01*
X988296Y498522D01*
X986178Y496404D01*
X984680Y493811D01*
X983905Y490918D01*
Y487923D01*
X984680Y485029D01*
X986178Y482436D01*
X988296Y480318D01*
X990889Y478820D01*
X993783Y478045D01*
X996777D01*
X999671Y478820D01*
X1002264Y480318D01*
X1004382Y482436D01*
X1005880Y485029D01*
X1006655Y487923D01*
Y490918D01*
X1005880Y493811D01*
X1004382Y496404D01*
X1002264Y498522D01*
X999671Y500020D01*
X996777Y500795D01*
D02*
G37*
G36*
X971777D02*
X968783D01*
X965889Y500020D01*
X963296Y498522D01*
X961178Y496404D01*
X959680Y493811D01*
X958905Y490918D01*
Y487923D01*
X959680Y485029D01*
X961178Y482436D01*
X963296Y480318D01*
X965889Y478820D01*
X968783Y478045D01*
X971777D01*
X974671Y478820D01*
X977264Y480318D01*
X979382Y482436D01*
X980880Y485029D01*
X981655Y487923D01*
Y490918D01*
X980880Y493811D01*
X979382Y496404D01*
X977264Y498522D01*
X974671Y500020D01*
X971777Y500795D01*
D02*
G37*
G36*
X1502753Y542000D02*
X1497247D01*
X1491789Y541281D01*
X1486471Y539856D01*
X1481384Y537749D01*
X1476616Y534997D01*
X1472248Y531645D01*
X1468355Y527752D01*
X1465003Y523384D01*
X1462251Y518616D01*
X1460144Y513529D01*
X1458719Y508211D01*
X1458000Y502753D01*
Y497247D01*
X1458719Y491789D01*
X1460144Y486471D01*
X1460434Y485770D01*
X1459585Y484500D01*
X1459105D01*
X1457451Y483815D01*
X1456185Y482549D01*
X1455500Y480895D01*
Y479105D01*
X1456185Y477451D01*
X1457451Y476185D01*
X1459105Y475500D01*
X1460895D01*
X1462549Y476185D01*
X1463333Y476969D01*
X1464849Y476883D01*
X1465003Y476616D01*
X1468355Y472248D01*
X1472248Y468355D01*
X1476616Y465003D01*
X1481384Y462251D01*
X1486471Y460144D01*
X1491789Y458719D01*
X1497247Y458000D01*
X1502753D01*
X1508211Y458719D01*
X1513529Y460144D01*
X1518616Y462251D01*
X1523384Y465003D01*
X1527752Y468355D01*
X1531645Y472248D01*
X1534997Y476616D01*
X1535150Y476882D01*
X1536667Y476969D01*
X1537451Y476185D01*
X1539105Y475500D01*
X1540895D01*
X1542549Y476185D01*
X1543815Y477451D01*
X1544500Y479105D01*
Y480895D01*
X1543815Y482549D01*
X1542549Y483815D01*
X1540895Y484500D01*
X1540415D01*
X1539566Y485770D01*
X1539856Y486471D01*
X1541281Y491789D01*
X1542000Y497247D01*
Y502753D01*
X1541281Y508211D01*
X1539856Y513529D01*
X1537749Y518616D01*
X1534997Y523384D01*
X1531645Y527752D01*
X1527752Y531645D01*
X1523384Y534997D01*
X1518616Y537749D01*
X1513529Y539856D01*
X1508211Y541281D01*
X1502753Y542000D01*
D02*
G37*
G36*
X1420895Y484500D02*
X1419105D01*
X1417451Y483815D01*
X1416185Y482549D01*
X1415500Y480895D01*
Y479105D01*
X1416185Y477451D01*
X1417451Y476185D01*
X1419105Y475500D01*
X1420895D01*
X1422549Y476185D01*
X1423815Y477451D01*
X1424500Y479105D01*
Y480895D01*
X1423815Y482549D01*
X1422549Y483815D01*
X1420895Y484500D01*
D02*
G37*
G36*
X1380895D02*
X1379105D01*
X1377451Y483815D01*
X1376185Y482549D01*
X1375500Y480895D01*
Y479105D01*
X1376185Y477451D01*
X1377451Y476185D01*
X1379105Y475500D01*
X1380895D01*
X1382549Y476185D01*
X1383815Y477451D01*
X1384500Y479105D01*
Y480895D01*
X1383815Y482549D01*
X1382549Y483815D01*
X1380895Y484500D01*
D02*
G37*
G36*
X1340895D02*
X1339105D01*
X1337451Y483815D01*
X1336185Y482549D01*
X1335500Y480895D01*
Y479105D01*
X1336185Y477451D01*
X1337451Y476185D01*
X1339105Y475500D01*
X1340895D01*
X1342549Y476185D01*
X1343815Y477451D01*
X1344500Y479105D01*
Y480895D01*
X1343815Y482549D01*
X1342549Y483815D01*
X1340895Y484500D01*
D02*
G37*
G36*
X1300895D02*
X1299105D01*
X1297451Y483815D01*
X1296185Y482549D01*
X1295500Y480895D01*
Y479105D01*
X1296185Y477451D01*
X1297451Y476185D01*
X1299105Y475500D01*
X1300895D01*
X1302549Y476185D01*
X1303815Y477451D01*
X1304500Y479105D01*
Y480895D01*
X1303815Y482549D01*
X1302549Y483815D01*
X1300895Y484500D01*
D02*
G37*
G36*
X1260895D02*
X1259105D01*
X1257451Y483815D01*
X1256185Y482549D01*
X1255500Y480895D01*
Y479105D01*
X1256185Y477451D01*
X1257451Y476185D01*
X1259105Y475500D01*
X1260895D01*
X1262549Y476185D01*
X1263815Y477451D01*
X1264500Y479105D01*
Y480895D01*
X1263815Y482549D01*
X1262549Y483815D01*
X1260895Y484500D01*
D02*
G37*
G36*
X1220895D02*
X1219105D01*
X1217451Y483815D01*
X1216185Y482549D01*
X1215500Y480895D01*
Y479105D01*
X1216185Y477451D01*
X1217451Y476185D01*
X1219105Y475500D01*
X1220895D01*
X1222549Y476185D01*
X1223815Y477451D01*
X1224500Y479105D01*
Y480895D01*
X1223815Y482549D01*
X1222549Y483815D01*
X1220895Y484500D01*
D02*
G37*
G36*
X1180895D02*
X1179105D01*
X1177451Y483815D01*
X1176185Y482549D01*
X1175500Y480895D01*
Y479105D01*
X1176185Y477451D01*
X1177451Y476185D01*
X1179105Y475500D01*
X1180895D01*
X1182549Y476185D01*
X1183815Y477451D01*
X1184500Y479105D01*
Y480895D01*
X1183815Y482549D01*
X1182549Y483815D01*
X1180895Y484500D01*
D02*
G37*
G36*
X1140895D02*
X1139105D01*
X1137451Y483815D01*
X1136185Y482549D01*
X1135500Y480895D01*
Y479105D01*
X1136185Y477451D01*
X1137451Y476185D01*
X1139105Y475500D01*
X1140895D01*
X1142549Y476185D01*
X1143815Y477451D01*
X1144500Y479105D01*
Y480895D01*
X1143815Y482549D01*
X1142549Y483815D01*
X1140895Y484500D01*
D02*
G37*
G36*
X1100895D02*
X1099105D01*
X1097451Y483815D01*
X1096185Y482549D01*
X1095500Y480895D01*
Y479105D01*
X1096185Y477451D01*
X1097451Y476185D01*
X1099105Y475500D01*
X1100895D01*
X1102549Y476185D01*
X1103815Y477451D01*
X1104500Y479105D01*
Y480895D01*
X1103815Y482549D01*
X1102549Y483815D01*
X1100895Y484500D01*
D02*
G37*
G36*
X1020895D02*
X1019105D01*
X1017451Y483815D01*
X1016185Y482549D01*
X1015500Y480895D01*
Y479105D01*
X1016185Y477451D01*
X1017451Y476185D01*
X1019105Y475500D01*
X1020895D01*
X1022549Y476185D01*
X1023815Y477451D01*
X1024500Y479105D01*
Y480895D01*
X1023815Y482549D01*
X1022549Y483815D01*
X1020895Y484500D01*
D02*
G37*
G36*
X740895D02*
X739105D01*
X737451Y483815D01*
X736185Y482549D01*
X735500Y480895D01*
Y479105D01*
X736185Y477451D01*
X737451Y476185D01*
X739105Y475500D01*
X740895D01*
X742549Y476185D01*
X743815Y477451D01*
X744500Y479105D01*
Y480895D01*
X743815Y482549D01*
X742549Y483815D01*
X740895Y484500D01*
D02*
G37*
G36*
X700895D02*
X699105D01*
X697451Y483815D01*
X696185Y482549D01*
X695500Y480895D01*
Y479105D01*
X696185Y477451D01*
X697451Y476185D01*
X699105Y475500D01*
X700895D01*
X702549Y476185D01*
X703815Y477451D01*
X704500Y479105D01*
Y480895D01*
X703815Y482549D01*
X702549Y483815D01*
X700895Y484500D01*
D02*
G37*
G36*
X660895D02*
X659105D01*
X657451Y483815D01*
X656185Y482549D01*
X655500Y480895D01*
Y479105D01*
X656185Y477451D01*
X657451Y476185D01*
X659105Y475500D01*
X660895D01*
X662549Y476185D01*
X663815Y477451D01*
X664500Y479105D01*
Y480895D01*
X663815Y482549D01*
X662549Y483815D01*
X660895Y484500D01*
D02*
G37*
G36*
X620895D02*
X619105D01*
X617451Y483815D01*
X616185Y482549D01*
X615500Y480895D01*
Y479105D01*
X616185Y477451D01*
X617451Y476185D01*
X619105Y475500D01*
X620895D01*
X622549Y476185D01*
X623815Y477451D01*
X624500Y479105D01*
Y480895D01*
X623815Y482549D01*
X622549Y483815D01*
X620895Y484500D01*
D02*
G37*
G36*
X580895D02*
X579105D01*
X577451Y483815D01*
X576185Y482549D01*
X575500Y480895D01*
Y479105D01*
X576185Y477451D01*
X577451Y476185D01*
X579105Y475500D01*
X580895D01*
X582549Y476185D01*
X583815Y477451D01*
X584500Y479105D01*
Y480895D01*
X583815Y482549D01*
X582549Y483815D01*
X580895Y484500D01*
D02*
G37*
G36*
X540895D02*
X539105D01*
X537451Y483815D01*
X536185Y482549D01*
X535500Y480895D01*
Y479105D01*
X536185Y477451D01*
X537451Y476185D01*
X539105Y475500D01*
X540895D01*
X542549Y476185D01*
X543815Y477451D01*
X544500Y479105D01*
Y480895D01*
X543815Y482549D01*
X542549Y483815D01*
X540895Y484500D01*
D02*
G37*
G36*
X500895D02*
X499105D01*
X497451Y483815D01*
X496185Y482549D01*
X495500Y480895D01*
Y479105D01*
X496185Y477451D01*
X497451Y476185D01*
X499105Y475500D01*
X500895D01*
X502549Y476185D01*
X503815Y477451D01*
X504500Y479105D01*
Y480895D01*
X503815Y482549D01*
X502549Y483815D01*
X500895Y484500D01*
D02*
G37*
G36*
X460895D02*
X459105D01*
X457451Y483815D01*
X456185Y482549D01*
X455500Y480895D01*
Y479105D01*
X456185Y477451D01*
X457451Y476185D01*
X459105Y475500D01*
X460895D01*
X462549Y476185D01*
X463815Y477451D01*
X464500Y479105D01*
Y480895D01*
X463815Y482549D01*
X462549Y483815D01*
X460895Y484500D01*
D02*
G37*
G36*
X420895D02*
X419105D01*
X417451Y483815D01*
X416185Y482549D01*
X415500Y480895D01*
Y479105D01*
X416185Y477451D01*
X417451Y476185D01*
X419105Y475500D01*
X420895D01*
X422549Y476185D01*
X423815Y477451D01*
X424500Y479105D01*
Y480895D01*
X423815Y482549D01*
X422549Y483815D01*
X420895Y484500D01*
D02*
G37*
G36*
X380895D02*
X379105D01*
X377451Y483815D01*
X376185Y482549D01*
X375500Y480895D01*
Y479105D01*
X376185Y477451D01*
X377451Y476185D01*
X379105Y475500D01*
X380895D01*
X382549Y476185D01*
X383815Y477451D01*
X384500Y479105D01*
Y480895D01*
X383815Y482549D01*
X382549Y483815D01*
X380895Y484500D01*
D02*
G37*
G36*
X340895D02*
X339105D01*
X337451Y483815D01*
X336185Y482549D01*
X335500Y480895D01*
Y479105D01*
X336185Y477451D01*
X337451Y476185D01*
X339105Y475500D01*
X340895D01*
X342549Y476185D01*
X343815Y477451D01*
X344500Y479105D01*
Y480895D01*
X343815Y482549D01*
X342549Y483815D01*
X340895Y484500D01*
D02*
G37*
G36*
X300895D02*
X299105D01*
X297451Y483815D01*
X296185Y482549D01*
X295500Y480895D01*
Y479105D01*
X296185Y477451D01*
X297451Y476185D01*
X299105Y475500D01*
X300895D01*
X302549Y476185D01*
X303815Y477451D01*
X304500Y479105D01*
Y480895D01*
X303815Y482549D01*
X302549Y483815D01*
X300895Y484500D01*
D02*
G37*
G36*
X260895D02*
X259105D01*
X257451Y483815D01*
X256185Y482549D01*
X255500Y480895D01*
Y479105D01*
X256185Y477451D01*
X257451Y476185D01*
X259105Y475500D01*
X260895D01*
X262549Y476185D01*
X263815Y477451D01*
X264500Y479105D01*
Y480895D01*
X263815Y482549D01*
X262549Y483815D01*
X260895Y484500D01*
D02*
G37*
G36*
X140895D02*
X139105D01*
X137451Y483815D01*
X136185Y482549D01*
X135500Y480895D01*
Y479105D01*
X136185Y477451D01*
X137451Y476185D01*
X139105Y475500D01*
X140895D01*
X142549Y476185D01*
X143815Y477451D01*
X144500Y479105D01*
Y480895D01*
X143815Y482549D01*
X142549Y483815D01*
X140895Y484500D01*
D02*
G37*
G36*
X100895D02*
X99105D01*
X97451Y483815D01*
X96185Y482549D01*
X95500Y480895D01*
Y479105D01*
X96185Y477451D01*
X97451Y476185D01*
X99105Y475500D01*
X100895D01*
X102549Y476185D01*
X103815Y477451D01*
X104500Y479105D01*
Y480895D01*
X103815Y482549D01*
X102549Y483815D01*
X100895Y484500D01*
D02*
G37*
G36*
X802912Y537000D02*
X797088D01*
X791336Y536089D01*
X785797Y534289D01*
X780608Y531645D01*
X775896Y528222D01*
X771778Y524104D01*
X768355Y519392D01*
X765711Y514203D01*
X763911Y508664D01*
X763000Y502912D01*
Y497088D01*
X763911Y491336D01*
X765711Y485797D01*
X768355Y480608D01*
X771778Y475896D01*
X775896Y471778D01*
X780608Y468355D01*
X785797Y465711D01*
X791336Y463911D01*
X797088Y463000D01*
X802912D01*
X808664Y463911D01*
X814203Y465711D01*
X819392Y468355D01*
X824104Y471778D01*
X828222Y475896D01*
X831645Y480608D01*
X834289Y485797D01*
X836089Y491336D01*
X837000Y497088D01*
Y502912D01*
X836089Y508664D01*
X834289Y514203D01*
X831645Y519392D01*
X828222Y524104D01*
X824104Y528222D01*
X819392Y531645D01*
X814203Y534289D01*
X808664Y536089D01*
X802912Y537000D01*
D02*
G37*
G36*
X202912D02*
X197088D01*
X191336Y536089D01*
X185797Y534289D01*
X180608Y531645D01*
X175896Y528222D01*
X171778Y524104D01*
X168355Y519392D01*
X165711Y514203D01*
X163911Y508664D01*
X163000Y502912D01*
Y497088D01*
X163911Y491336D01*
X165711Y485797D01*
X168355Y480608D01*
X171778Y475896D01*
X175896Y471778D01*
X180608Y468355D01*
X185797Y465711D01*
X191336Y463911D01*
X197088Y463000D01*
X202912D01*
X208664Y463911D01*
X214203Y465711D01*
X219392Y468355D01*
X224104Y471778D01*
X228222Y475896D01*
X231645Y480608D01*
X234289Y485797D01*
X236089Y491336D01*
X237000Y497088D01*
Y502912D01*
X236089Y508664D01*
X234289Y514203D01*
X231645Y519392D01*
X228222Y524104D01*
X224104Y528222D01*
X219392Y531645D01*
X214203Y534289D01*
X208664Y536089D01*
X202912Y537000D01*
D02*
G37*
G36*
X971777Y475795D02*
X968783D01*
X965889Y475020D01*
X963296Y473522D01*
X961178Y471404D01*
X959680Y468811D01*
X958905Y465918D01*
Y462923D01*
X959467Y460824D01*
X958430Y459787D01*
X957933Y459920D01*
X955827D01*
X953792Y459375D01*
X951968Y458322D01*
X950478Y456832D01*
X949425Y455008D01*
X948880Y452973D01*
Y450867D01*
X949425Y448832D01*
X950478Y447008D01*
X951968Y445518D01*
X953792Y444465D01*
X955827Y443920D01*
X957933D01*
X958430Y444053D01*
X959467Y443016D01*
X958905Y440918D01*
Y437923D01*
X959680Y435029D01*
X961178Y432436D01*
X963296Y430318D01*
X965889Y428820D01*
X968783Y428045D01*
X971777D01*
X974671Y428820D01*
X977264Y430318D01*
X979382Y432436D01*
X980880Y435029D01*
X981655Y437923D01*
Y440918D01*
X980880Y443811D01*
X979382Y446404D01*
X977264Y448522D01*
X974671Y450020D01*
X971777Y450795D01*
X968783D01*
X965974Y450042D01*
X965372Y450382D01*
X964856Y450778D01*
X964880Y450867D01*
Y452973D01*
X964856Y453062D01*
X965372Y453458D01*
X965974Y453798D01*
X968783Y453045D01*
X971777D01*
X974671Y453820D01*
X977264Y455318D01*
X979382Y457436D01*
X980880Y460029D01*
X981655Y462923D01*
Y465918D01*
X980880Y468811D01*
X979382Y471404D01*
X977264Y473522D01*
X974671Y475020D01*
X971777Y475795D01*
D02*
G37*
G36*
X52753Y542000D02*
X47247D01*
X41789Y541281D01*
X36471Y539856D01*
X31384Y537749D01*
X26616Y534997D01*
X22248Y531645D01*
X18355Y527752D01*
X15003Y523384D01*
X12250Y518616D01*
X10144Y513529D01*
X8719Y508211D01*
X8000Y502753D01*
Y497247D01*
X8719Y491789D01*
X10144Y486471D01*
X12250Y481384D01*
X15003Y476616D01*
X18355Y472248D01*
X22248Y468355D01*
X26616Y465003D01*
X31384Y462251D01*
X36471Y460144D01*
X41789Y458719D01*
X47247Y458000D01*
X52753D01*
X58211Y458719D01*
X63529Y460144D01*
X68616Y462251D01*
X73384Y465003D01*
X77752Y468355D01*
X81645Y472248D01*
X84997Y476616D01*
X87750Y481384D01*
X89856Y486471D01*
X91281Y491789D01*
X92000Y497247D01*
Y502753D01*
X91281Y508211D01*
X89856Y513529D01*
X87750Y518616D01*
X84997Y523384D01*
X81645Y527752D01*
X77752Y531645D01*
X73384Y534997D01*
X68616Y537749D01*
X63529Y539856D01*
X58211Y541281D01*
X52753Y542000D01*
D02*
G37*
G36*
X996777Y475795D02*
X993783D01*
X990889Y475020D01*
X988296Y473522D01*
X986178Y471404D01*
X984680Y468811D01*
X983905Y465918D01*
Y462923D01*
X984680Y460029D01*
X986178Y457436D01*
X988296Y455318D01*
X990889Y453820D01*
X993783Y453045D01*
X996777D01*
X999671Y453820D01*
X1002264Y455318D01*
X1004382Y457436D01*
X1005880Y460029D01*
X1006655Y462923D01*
Y465918D01*
X1005880Y468811D01*
X1004382Y471404D01*
X1002264Y473522D01*
X999671Y475020D01*
X996777Y475795D01*
D02*
G37*
G36*
X1520895Y444500D02*
X1519105D01*
X1517451Y443815D01*
X1516185Y442549D01*
X1515500Y440895D01*
Y439105D01*
X1516185Y437451D01*
X1517451Y436185D01*
X1519105Y435500D01*
X1520895D01*
X1522549Y436185D01*
X1523815Y437451D01*
X1524500Y439105D01*
Y440895D01*
X1523815Y442549D01*
X1522549Y443815D01*
X1520895Y444500D01*
D02*
G37*
G36*
X1440895D02*
X1439105D01*
X1437451Y443815D01*
X1436185Y442549D01*
X1435500Y440895D01*
Y439105D01*
X1436185Y437451D01*
X1437451Y436185D01*
X1439105Y435500D01*
X1440895D01*
X1442549Y436185D01*
X1443815Y437451D01*
X1444500Y439105D01*
Y440895D01*
X1443815Y442549D01*
X1442549Y443815D01*
X1440895Y444500D01*
D02*
G37*
G36*
X1240895D02*
X1239105D01*
X1237451Y443815D01*
X1236185Y442549D01*
X1235500Y440895D01*
Y439105D01*
X1236185Y437451D01*
X1237451Y436185D01*
X1239105Y435500D01*
X1240895D01*
X1242549Y436185D01*
X1243815Y437451D01*
X1244500Y439105D01*
Y440895D01*
X1243815Y442549D01*
X1242549Y443815D01*
X1240895Y444500D01*
D02*
G37*
G36*
X1200895D02*
X1199105D01*
X1197451Y443815D01*
X1196185Y442549D01*
X1195500Y440895D01*
Y439105D01*
X1196185Y437451D01*
X1197451Y436185D01*
X1199105Y435500D01*
X1200895D01*
X1202549Y436185D01*
X1203815Y437451D01*
X1204500Y439105D01*
Y440895D01*
X1203815Y442549D01*
X1202549Y443815D01*
X1200895Y444500D01*
D02*
G37*
G36*
X1160895D02*
X1159105D01*
X1157451Y443815D01*
X1156185Y442549D01*
X1155500Y440895D01*
Y439105D01*
X1156185Y437451D01*
X1157451Y436185D01*
X1159105Y435500D01*
X1160895D01*
X1162549Y436185D01*
X1163815Y437451D01*
X1164500Y439105D01*
Y440895D01*
X1163815Y442549D01*
X1162549Y443815D01*
X1160895Y444500D01*
D02*
G37*
G36*
X1120895D02*
X1119105D01*
X1117451Y443815D01*
X1116185Y442549D01*
X1115500Y440895D01*
Y439105D01*
X1116185Y437451D01*
X1117451Y436185D01*
X1119105Y435500D01*
X1120895D01*
X1122549Y436185D01*
X1123815Y437451D01*
X1124500Y439105D01*
Y440895D01*
X1123815Y442549D01*
X1122549Y443815D01*
X1120895Y444500D01*
D02*
G37*
G36*
X1080895D02*
X1079105D01*
X1077451Y443815D01*
X1076185Y442549D01*
X1075500Y440895D01*
Y439105D01*
X1076185Y437451D01*
X1077451Y436185D01*
X1079105Y435500D01*
X1080895D01*
X1082549Y436185D01*
X1083815Y437451D01*
X1084500Y439105D01*
Y440895D01*
X1083815Y442549D01*
X1082549Y443815D01*
X1080895Y444500D01*
D02*
G37*
G36*
X1040895D02*
X1039105D01*
X1037451Y443815D01*
X1036185Y442549D01*
X1035500Y440895D01*
Y439105D01*
X1036185Y437451D01*
X1037451Y436185D01*
X1039105Y435500D01*
X1040895D01*
X1042549Y436185D01*
X1043815Y437451D01*
X1044500Y439105D01*
Y440895D01*
X1043815Y442549D01*
X1042549Y443815D01*
X1040895Y444500D01*
D02*
G37*
G36*
X920895D02*
X919105D01*
X917451Y443815D01*
X916185Y442549D01*
X915500Y440895D01*
Y439105D01*
X916185Y437451D01*
X917451Y436185D01*
X919105Y435500D01*
X920895D01*
X922549Y436185D01*
X923815Y437451D01*
X924500Y439105D01*
Y440895D01*
X923815Y442549D01*
X922549Y443815D01*
X920895Y444500D01*
D02*
G37*
G36*
X880895D02*
X879105D01*
X877451Y443815D01*
X876185Y442549D01*
X875500Y440895D01*
Y439105D01*
X876185Y437451D01*
X877451Y436185D01*
X879105Y435500D01*
X880895D01*
X882549Y436185D01*
X883815Y437451D01*
X884500Y439105D01*
Y440895D01*
X883815Y442549D01*
X882549Y443815D01*
X880895Y444500D01*
D02*
G37*
G36*
X800895D02*
X799105D01*
X797451Y443815D01*
X796185Y442549D01*
X795500Y440895D01*
Y439105D01*
X796185Y437451D01*
X797451Y436185D01*
X799105Y435500D01*
X800895D01*
X802549Y436185D01*
X803815Y437451D01*
X804500Y439105D01*
Y440895D01*
X803815Y442549D01*
X802549Y443815D01*
X800895Y444500D01*
D02*
G37*
G36*
X760895D02*
X759105D01*
X757451Y443815D01*
X756185Y442549D01*
X755500Y440895D01*
Y439105D01*
X756185Y437451D01*
X757451Y436185D01*
X759105Y435500D01*
X760895D01*
X762549Y436185D01*
X763815Y437451D01*
X764500Y439105D01*
Y440895D01*
X763815Y442549D01*
X762549Y443815D01*
X760895Y444500D01*
D02*
G37*
G36*
X720895D02*
X719105D01*
X717451Y443815D01*
X716185Y442549D01*
X715500Y440895D01*
Y439105D01*
X716185Y437451D01*
X717451Y436185D01*
X719105Y435500D01*
X720895D01*
X722549Y436185D01*
X723815Y437451D01*
X724500Y439105D01*
Y440895D01*
X723815Y442549D01*
X722549Y443815D01*
X720895Y444500D01*
D02*
G37*
G36*
X680895D02*
X679105D01*
X677451Y443815D01*
X676185Y442549D01*
X675500Y440895D01*
Y439105D01*
X676185Y437451D01*
X677451Y436185D01*
X679105Y435500D01*
X680895D01*
X682549Y436185D01*
X683815Y437451D01*
X684500Y439105D01*
Y440895D01*
X683815Y442549D01*
X682549Y443815D01*
X680895Y444500D01*
D02*
G37*
G36*
X640895D02*
X639105D01*
X637451Y443815D01*
X636185Y442549D01*
X635500Y440895D01*
Y439105D01*
X636185Y437451D01*
X637451Y436185D01*
X639105Y435500D01*
X640895D01*
X642549Y436185D01*
X643815Y437451D01*
X644500Y439105D01*
Y440895D01*
X643815Y442549D01*
X642549Y443815D01*
X640895Y444500D01*
D02*
G37*
G36*
X560895D02*
X559105D01*
X557451Y443815D01*
X556185Y442549D01*
X555500Y440895D01*
Y439105D01*
X556185Y437451D01*
X557451Y436185D01*
X559105Y435500D01*
X560895D01*
X562549Y436185D01*
X563815Y437451D01*
X564500Y439105D01*
Y440895D01*
X563815Y442549D01*
X562549Y443815D01*
X560895Y444500D01*
D02*
G37*
G36*
X520895D02*
X519105D01*
X517451Y443815D01*
X516185Y442549D01*
X515500Y440895D01*
Y439105D01*
X516185Y437451D01*
X517451Y436185D01*
X519105Y435500D01*
X520895D01*
X522549Y436185D01*
X523815Y437451D01*
X524500Y439105D01*
Y440895D01*
X523815Y442549D01*
X522549Y443815D01*
X520895Y444500D01*
D02*
G37*
G36*
X480895D02*
X479105D01*
X477451Y443815D01*
X476185Y442549D01*
X475500Y440895D01*
Y439105D01*
X476185Y437451D01*
X477451Y436185D01*
X479105Y435500D01*
X480895D01*
X482549Y436185D01*
X483815Y437451D01*
X484500Y439105D01*
Y440895D01*
X483815Y442549D01*
X482549Y443815D01*
X480895Y444500D01*
D02*
G37*
G36*
X440895D02*
X439105D01*
X437451Y443815D01*
X436185Y442549D01*
X435500Y440895D01*
Y439105D01*
X436185Y437451D01*
X437451Y436185D01*
X439105Y435500D01*
X440895D01*
X442549Y436185D01*
X443815Y437451D01*
X444500Y439105D01*
Y440895D01*
X443815Y442549D01*
X442549Y443815D01*
X440895Y444500D01*
D02*
G37*
G36*
X400895D02*
X399105D01*
X397451Y443815D01*
X396185Y442549D01*
X395500Y440895D01*
Y439105D01*
X396185Y437451D01*
X397451Y436185D01*
X399105Y435500D01*
X400895D01*
X402549Y436185D01*
X403815Y437451D01*
X404500Y439105D01*
Y440895D01*
X403815Y442549D01*
X402549Y443815D01*
X400895Y444500D01*
D02*
G37*
G36*
X360895D02*
X359105D01*
X357451Y443815D01*
X356185Y442549D01*
X355500Y440895D01*
Y439105D01*
X356185Y437451D01*
X357451Y436185D01*
X359105Y435500D01*
X360895D01*
X362549Y436185D01*
X363815Y437451D01*
X364500Y439105D01*
Y440895D01*
X363815Y442549D01*
X362549Y443815D01*
X360895Y444500D01*
D02*
G37*
G36*
X320895D02*
X319105D01*
X317451Y443815D01*
X316185Y442549D01*
X315500Y440895D01*
Y439105D01*
X316185Y437451D01*
X317451Y436185D01*
X319105Y435500D01*
X320895D01*
X322549Y436185D01*
X323815Y437451D01*
X324500Y439105D01*
Y440895D01*
X323815Y442549D01*
X322549Y443815D01*
X320895Y444500D01*
D02*
G37*
G36*
X280895D02*
X279105D01*
X277451Y443815D01*
X276185Y442549D01*
X275500Y440895D01*
Y439105D01*
X276185Y437451D01*
X277451Y436185D01*
X279105Y435500D01*
X280895D01*
X282549Y436185D01*
X283815Y437451D01*
X284500Y439105D01*
Y440895D01*
X283815Y442549D01*
X282549Y443815D01*
X280895Y444500D01*
D02*
G37*
G36*
X240895D02*
X239105D01*
X237451Y443815D01*
X236185Y442549D01*
X235500Y440895D01*
Y439105D01*
X236185Y437451D01*
X237451Y436185D01*
X239105Y435500D01*
X240895D01*
X242549Y436185D01*
X243815Y437451D01*
X244500Y439105D01*
Y440895D01*
X243815Y442549D01*
X242549Y443815D01*
X240895Y444500D01*
D02*
G37*
G36*
X200895D02*
X199105D01*
X197451Y443815D01*
X196185Y442549D01*
X195500Y440895D01*
Y439105D01*
X196185Y437451D01*
X197451Y436185D01*
X199105Y435500D01*
X200895D01*
X202549Y436185D01*
X203815Y437451D01*
X204500Y439105D01*
Y440895D01*
X203815Y442549D01*
X202549Y443815D01*
X200895Y444500D01*
D02*
G37*
G36*
X160895D02*
X159105D01*
X157451Y443815D01*
X156185Y442549D01*
X155500Y440895D01*
Y439105D01*
X156185Y437451D01*
X157451Y436185D01*
X159105Y435500D01*
X160895D01*
X162549Y436185D01*
X163815Y437451D01*
X164500Y439105D01*
Y440895D01*
X163815Y442549D01*
X162549Y443815D01*
X160895Y444500D01*
D02*
G37*
G36*
X120895D02*
X119105D01*
X117451Y443815D01*
X116185Y442549D01*
X115500Y440895D01*
Y439105D01*
X116185Y437451D01*
X117451Y436185D01*
X119105Y435500D01*
X120895D01*
X122549Y436185D01*
X123815Y437451D01*
X124500Y439105D01*
Y440895D01*
X123815Y442549D01*
X122549Y443815D01*
X120895Y444500D01*
D02*
G37*
G36*
X80895D02*
X79105D01*
X77451Y443815D01*
X76185Y442549D01*
X75500Y440895D01*
Y439105D01*
X76185Y437451D01*
X77451Y436185D01*
X79105Y435500D01*
X80895D01*
X82549Y436185D01*
X83815Y437451D01*
X84500Y439105D01*
Y440895D01*
X83815Y442549D01*
X82549Y443815D01*
X80895Y444500D01*
D02*
G37*
G36*
X40895D02*
X39105D01*
X37451Y443815D01*
X36185Y442549D01*
X35500Y440895D01*
Y439105D01*
X36185Y437451D01*
X37451Y436185D01*
X39105Y435500D01*
X40895D01*
X42549Y436185D01*
X43815Y437451D01*
X44500Y439105D01*
Y440895D01*
X43815Y442549D01*
X42549Y443815D01*
X40895Y444500D01*
D02*
G37*
G36*
X996777Y450795D02*
X993783D01*
X990889Y450020D01*
X988296Y448522D01*
X986178Y446404D01*
X984680Y443811D01*
X983905Y440918D01*
Y437923D01*
X984680Y435029D01*
X986178Y432436D01*
X988296Y430318D01*
X990889Y428820D01*
X993783Y428045D01*
X996777D01*
X999671Y428820D01*
X1002264Y430318D01*
X1004382Y432436D01*
X1005880Y435029D01*
X1006655Y437923D01*
Y440918D01*
X1005880Y443811D01*
X1004382Y446404D01*
X1002264Y448522D01*
X999671Y450020D01*
X996777Y450795D01*
D02*
G37*
G36*
X1496288Y449195D02*
X1493293D01*
X1490399Y448420D01*
X1487806Y446922D01*
X1485688Y444804D01*
X1484190Y442211D01*
X1483415Y439318D01*
Y436323D01*
X1484190Y433429D01*
X1485688Y430836D01*
X1487806Y428718D01*
X1490399Y427220D01*
X1493293Y426445D01*
X1496288D01*
X1499181Y427220D01*
X1501774Y428718D01*
X1503892Y430836D01*
X1505390Y433429D01*
X1506165Y436323D01*
Y439318D01*
X1505390Y442211D01*
X1503892Y444804D01*
X1501774Y446922D01*
X1499181Y448420D01*
X1496288Y449195D01*
D02*
G37*
G36*
X996777Y425795D02*
X993783D01*
X990889Y425020D01*
X988296Y423522D01*
X986178Y421404D01*
X984680Y418811D01*
X983905Y415918D01*
Y412923D01*
X984680Y410029D01*
X986178Y407436D01*
X988296Y405318D01*
X990889Y403820D01*
X993783Y403045D01*
X996777D01*
X999671Y403820D01*
X1002264Y405318D01*
X1004382Y407436D01*
X1005880Y410029D01*
X1006655Y412923D01*
Y415918D01*
X1005880Y418811D01*
X1004382Y421404D01*
X1002264Y423522D01*
X999671Y425020D01*
X996777Y425795D01*
D02*
G37*
G36*
X971777D02*
X968783D01*
X965889Y425020D01*
X963296Y423522D01*
X961178Y421404D01*
X959680Y418811D01*
X958905Y415918D01*
Y412923D01*
X959680Y410029D01*
X961178Y407436D01*
X963296Y405318D01*
X965889Y403820D01*
X968783Y403045D01*
X971777D01*
X974671Y403820D01*
X977264Y405318D01*
X979382Y407436D01*
X980880Y410029D01*
X981655Y412923D01*
Y415918D01*
X980880Y418811D01*
X979382Y421404D01*
X977264Y423522D01*
X974671Y425020D01*
X971777Y425795D01*
D02*
G37*
G36*
X1496288Y424195D02*
X1493293D01*
X1490399Y423420D01*
X1487806Y421922D01*
X1485688Y419804D01*
X1484190Y417211D01*
X1483415Y414318D01*
Y411323D01*
X1484190Y408429D01*
X1485688Y405836D01*
X1487806Y403718D01*
X1490399Y402220D01*
X1493293Y401445D01*
X1496288D01*
X1499181Y402220D01*
X1501774Y403718D01*
X1503892Y405836D01*
X1505390Y408429D01*
X1506165Y411323D01*
Y414318D01*
X1505390Y417211D01*
X1503892Y419804D01*
X1501774Y421922D01*
X1499181Y423420D01*
X1496288Y424195D01*
D02*
G37*
G36*
X1471288D02*
X1468293D01*
X1465399Y423420D01*
X1462806Y421922D01*
X1460688Y419804D01*
X1459190Y417211D01*
X1458415Y414318D01*
Y411323D01*
X1459190Y408429D01*
X1460688Y405836D01*
X1462806Y403718D01*
X1465399Y402220D01*
X1468293Y401445D01*
X1471288D01*
X1474181Y402220D01*
X1476774Y403718D01*
X1478892Y405836D01*
X1480390Y408429D01*
X1481165Y411323D01*
Y414318D01*
X1480390Y417211D01*
X1478892Y419804D01*
X1476774Y421922D01*
X1474181Y423420D01*
X1471288Y424195D01*
D02*
G37*
G36*
X1540895Y404500D02*
X1539105D01*
X1537451Y403815D01*
X1536185Y402549D01*
X1535500Y400895D01*
Y399105D01*
X1536185Y397451D01*
X1537451Y396185D01*
X1539105Y395500D01*
X1540895D01*
X1542549Y396185D01*
X1543815Y397451D01*
X1544500Y399105D01*
Y400895D01*
X1543815Y402549D01*
X1542549Y403815D01*
X1540895Y404500D01*
D02*
G37*
G36*
X1220895D02*
X1219105D01*
X1217451Y403815D01*
X1216185Y402549D01*
X1215500Y400895D01*
Y399105D01*
X1216185Y397451D01*
X1217451Y396185D01*
X1219105Y395500D01*
X1220895D01*
X1222549Y396185D01*
X1223815Y397451D01*
X1224500Y399105D01*
Y400895D01*
X1223815Y402549D01*
X1222549Y403815D01*
X1220895Y404500D01*
D02*
G37*
G36*
X1180895D02*
X1179105D01*
X1177451Y403815D01*
X1176185Y402549D01*
X1175500Y400895D01*
Y399105D01*
X1176185Y397451D01*
X1177451Y396185D01*
X1179105Y395500D01*
X1180895D01*
X1182549Y396185D01*
X1183815Y397451D01*
X1184500Y399105D01*
Y400895D01*
X1183815Y402549D01*
X1182549Y403815D01*
X1180895Y404500D01*
D02*
G37*
G36*
X1140895D02*
X1139105D01*
X1137451Y403815D01*
X1136185Y402549D01*
X1135500Y400895D01*
Y399105D01*
X1136185Y397451D01*
X1137451Y396185D01*
X1139105Y395500D01*
X1140895D01*
X1142549Y396185D01*
X1143815Y397451D01*
X1144500Y399105D01*
Y400895D01*
X1143815Y402549D01*
X1142549Y403815D01*
X1140895Y404500D01*
D02*
G37*
G36*
X1100895D02*
X1099105D01*
X1097451Y403815D01*
X1096185Y402549D01*
X1095500Y400895D01*
Y399105D01*
X1096185Y397451D01*
X1097451Y396185D01*
X1099105Y395500D01*
X1100895D01*
X1102549Y396185D01*
X1103815Y397451D01*
X1104500Y399105D01*
Y400895D01*
X1103815Y402549D01*
X1102549Y403815D01*
X1100895Y404500D01*
D02*
G37*
G36*
X1060895D02*
X1059105D01*
X1057451Y403815D01*
X1056185Y402549D01*
X1055500Y400895D01*
Y399105D01*
X1056185Y397451D01*
X1057451Y396185D01*
X1059105Y395500D01*
X1060895D01*
X1062549Y396185D01*
X1063815Y397451D01*
X1064500Y399105D01*
Y400895D01*
X1063815Y402549D01*
X1062549Y403815D01*
X1060895Y404500D01*
D02*
G37*
G36*
X1020895D02*
X1019105D01*
X1017451Y403815D01*
X1016185Y402549D01*
X1015500Y400895D01*
Y399105D01*
X1016185Y397451D01*
X1017451Y396185D01*
X1019105Y395500D01*
X1020895D01*
X1022549Y396185D01*
X1023815Y397451D01*
X1024500Y399105D01*
Y400895D01*
X1023815Y402549D01*
X1022549Y403815D01*
X1020895Y404500D01*
D02*
G37*
G36*
X420895D02*
X419105D01*
X417451Y403815D01*
X416185Y402549D01*
X415500Y400895D01*
Y399105D01*
X416185Y397451D01*
X417451Y396185D01*
X419105Y395500D01*
X420895D01*
X422549Y396185D01*
X423815Y397451D01*
X424500Y399105D01*
Y400895D01*
X423815Y402549D01*
X422549Y403815D01*
X420895Y404500D01*
D02*
G37*
G36*
X380895D02*
X379105D01*
X377451Y403815D01*
X376185Y402549D01*
X375500Y400895D01*
Y399105D01*
X376185Y397451D01*
X377451Y396185D01*
X379105Y395500D01*
X380895D01*
X382549Y396185D01*
X383815Y397451D01*
X384500Y399105D01*
Y400895D01*
X383815Y402549D01*
X382549Y403815D01*
X380895Y404500D01*
D02*
G37*
G36*
X340895D02*
X339105D01*
X337451Y403815D01*
X336185Y402549D01*
X335500Y400895D01*
Y399105D01*
X336185Y397451D01*
X337451Y396185D01*
X339105Y395500D01*
X340895D01*
X342549Y396185D01*
X343815Y397451D01*
X344500Y399105D01*
Y400895D01*
X343815Y402549D01*
X342549Y403815D01*
X340895Y404500D01*
D02*
G37*
G36*
X300895D02*
X299105D01*
X297451Y403815D01*
X296185Y402549D01*
X295500Y400895D01*
Y399105D01*
X296185Y397451D01*
X297451Y396185D01*
X299105Y395500D01*
X300895D01*
X302549Y396185D01*
X303815Y397451D01*
X304500Y399105D01*
Y400895D01*
X303815Y402549D01*
X302549Y403815D01*
X300895Y404500D01*
D02*
G37*
G36*
X260895D02*
X259105D01*
X257451Y403815D01*
X256185Y402549D01*
X255500Y400895D01*
Y399105D01*
X256185Y397451D01*
X257451Y396185D01*
X259105Y395500D01*
X260895D01*
X262549Y396185D01*
X263815Y397451D01*
X264500Y399105D01*
Y400895D01*
X263815Y402549D01*
X262549Y403815D01*
X260895Y404500D01*
D02*
G37*
G36*
X220895D02*
X219105D01*
X217451Y403815D01*
X216185Y402549D01*
X215500Y400895D01*
Y399105D01*
X216185Y397451D01*
X217451Y396185D01*
X219105Y395500D01*
X220895D01*
X222549Y396185D01*
X223815Y397451D01*
X224500Y399105D01*
Y400895D01*
X223815Y402549D01*
X222549Y403815D01*
X220895Y404500D01*
D02*
G37*
G36*
X180895D02*
X179105D01*
X177451Y403815D01*
X176185Y402549D01*
X175500Y400895D01*
Y399105D01*
X176185Y397451D01*
X177451Y396185D01*
X179105Y395500D01*
X180895D01*
X182549Y396185D01*
X183815Y397451D01*
X184500Y399105D01*
Y400895D01*
X183815Y402549D01*
X182549Y403815D01*
X180895Y404500D01*
D02*
G37*
G36*
X140895D02*
X139105D01*
X137451Y403815D01*
X136185Y402549D01*
X135500Y400895D01*
Y399105D01*
X136185Y397451D01*
X137451Y396185D01*
X139105Y395500D01*
X140895D01*
X142549Y396185D01*
X143815Y397451D01*
X144500Y399105D01*
Y400895D01*
X143815Y402549D01*
X142549Y403815D01*
X140895Y404500D01*
D02*
G37*
G36*
X100895D02*
X99105D01*
X97451Y403815D01*
X96185Y402549D01*
X95500Y400895D01*
Y399105D01*
X96185Y397451D01*
X97451Y396185D01*
X99105Y395500D01*
X100895D01*
X102549Y396185D01*
X103815Y397451D01*
X104500Y399105D01*
Y400895D01*
X103815Y402549D01*
X102549Y403815D01*
X100895Y404500D01*
D02*
G37*
G36*
X60895D02*
X59105D01*
X57451Y403815D01*
X56185Y402549D01*
X55500Y400895D01*
Y399105D01*
X56185Y397451D01*
X57451Y396185D01*
X59105Y395500D01*
X60895D01*
X62549Y396185D01*
X63815Y397451D01*
X64500Y399105D01*
Y400895D01*
X63815Y402549D01*
X62549Y403815D01*
X60895Y404500D01*
D02*
G37*
G36*
X1292684Y401740D02*
X1290496D01*
X1288474Y400903D01*
X1286927Y399356D01*
X1286090Y397334D01*
Y395146D01*
X1286927Y393125D01*
X1288474Y391577D01*
X1290496Y390740D01*
X1292684D01*
X1294706Y391577D01*
X1296253Y393125D01*
X1297090Y395146D01*
Y397334D01*
X1296253Y399356D01*
X1294706Y400903D01*
X1292684Y401740D01*
D02*
G37*
G36*
X495124D02*
X492936D01*
X490914Y400903D01*
X489367Y399356D01*
X488530Y397334D01*
Y395146D01*
X489367Y393125D01*
X490914Y391577D01*
X492936Y390740D01*
X495124D01*
X497146Y391577D01*
X498693Y393125D01*
X499530Y395146D01*
Y397334D01*
X498693Y399356D01*
X497146Y400903D01*
X495124Y401740D01*
D02*
G37*
G36*
X996777Y400795D02*
X993783D01*
X990889Y400020D01*
X988296Y398522D01*
X986178Y396404D01*
X984680Y393811D01*
X983905Y390918D01*
Y387923D01*
X984680Y385029D01*
X986178Y382436D01*
X988296Y380318D01*
X990889Y378820D01*
X993783Y378045D01*
X996777D01*
X999671Y378820D01*
X1002264Y380318D01*
X1004382Y382436D01*
X1005880Y385029D01*
X1006655Y387923D01*
Y390918D01*
X1005880Y393811D01*
X1004382Y396404D01*
X1002264Y398522D01*
X999671Y400020D01*
X996777Y400795D01*
D02*
G37*
G36*
X971777D02*
X968783D01*
X965889Y400020D01*
X963296Y398522D01*
X961178Y396404D01*
X959680Y393811D01*
X958905Y390918D01*
Y387923D01*
X959680Y385029D01*
X961178Y382436D01*
X963296Y380318D01*
X965889Y378820D01*
X968783Y378045D01*
X971777D01*
X974671Y378820D01*
X977264Y380318D01*
X979382Y382436D01*
X980880Y385029D01*
X981655Y387923D01*
Y390918D01*
X980880Y393811D01*
X979382Y396404D01*
X977264Y398522D01*
X974671Y400020D01*
X971777Y400795D01*
D02*
G37*
G36*
X1471288Y399195D02*
X1468293D01*
X1465399Y398420D01*
X1462806Y396922D01*
X1460688Y394804D01*
X1459190Y392211D01*
X1458415Y389318D01*
Y386323D01*
X1459190Y383429D01*
X1460688Y380836D01*
X1462806Y378718D01*
X1465399Y377220D01*
X1468293Y376445D01*
X1471288D01*
X1474181Y377220D01*
X1476774Y378718D01*
X1478892Y380836D01*
X1480390Y383429D01*
X1481165Y386323D01*
Y389318D01*
X1480390Y392211D01*
X1478892Y394804D01*
X1476774Y396922D01*
X1474181Y398420D01*
X1471288Y399195D01*
D02*
G37*
G36*
X1496288D02*
X1493293D01*
X1490399Y398420D01*
X1487806Y396922D01*
X1485688Y394804D01*
X1484190Y392211D01*
X1483415Y389318D01*
Y386323D01*
X1484190Y383429D01*
X1485688Y380836D01*
X1487806Y378718D01*
X1490399Y377220D01*
X1493293Y376445D01*
X1496288D01*
X1499096Y377198D01*
X1499698Y376858D01*
X1500214Y376462D01*
X1500190Y376373D01*
Y374267D01*
X1500214Y374178D01*
X1499698Y373782D01*
X1499096Y373442D01*
X1496288Y374195D01*
X1493293D01*
X1490399Y373420D01*
X1487806Y371922D01*
X1485688Y369804D01*
X1484190Y367211D01*
X1483415Y364318D01*
Y361323D01*
X1484190Y358429D01*
X1485688Y355836D01*
X1487806Y353718D01*
X1490399Y352220D01*
X1493293Y351445D01*
X1496288D01*
X1499181Y352220D01*
X1501774Y353718D01*
X1503892Y355836D01*
X1505390Y358429D01*
X1506165Y361323D01*
Y364318D01*
X1505603Y366416D01*
X1506640Y367453D01*
X1507137Y367320D01*
X1509243D01*
X1511278Y367865D01*
X1513102Y368918D01*
X1514592Y370408D01*
X1515645Y372232D01*
X1516190Y374267D01*
Y376373D01*
X1515645Y378408D01*
X1514592Y380232D01*
X1513102Y381722D01*
X1511278Y382775D01*
X1509243Y383320D01*
X1507137D01*
X1506640Y383187D01*
X1505603Y384224D01*
X1506165Y386323D01*
Y389318D01*
X1505390Y392211D01*
X1503892Y394804D01*
X1501774Y396922D01*
X1499181Y398420D01*
X1496288Y399195D01*
D02*
G37*
G36*
X1306654Y371260D02*
X1304466D01*
X1302444Y370423D01*
X1300897Y368876D01*
X1300060Y366854D01*
Y364666D01*
X1300897Y362645D01*
X1302444Y361097D01*
X1304466Y360260D01*
X1306654D01*
X1308676Y361097D01*
X1310223Y362645D01*
X1311060Y364666D01*
Y366854D01*
X1310223Y368876D01*
X1308676Y370423D01*
X1306654Y371260D01*
D02*
G37*
G36*
X482424Y367450D02*
X480236D01*
X478214Y366613D01*
X476667Y365065D01*
X475830Y363044D01*
Y360856D01*
X476667Y358834D01*
X478214Y357287D01*
X480236Y356450D01*
X482424D01*
X484445Y357287D01*
X485993Y358834D01*
X486830Y360856D01*
Y363044D01*
X485993Y365065D01*
X484445Y366613D01*
X482424Y367450D01*
D02*
G37*
G36*
X1520895Y364500D02*
X1519105D01*
X1517451Y363815D01*
X1516185Y362549D01*
X1515500Y360895D01*
Y359105D01*
X1516185Y357451D01*
X1517451Y356185D01*
X1519105Y355500D01*
X1520895D01*
X1522549Y356185D01*
X1523815Y357451D01*
X1524500Y359105D01*
Y360895D01*
X1523815Y362549D01*
X1522549Y363815D01*
X1520895Y364500D01*
D02*
G37*
G36*
X1320895D02*
X1319105D01*
X1317451Y363815D01*
X1316185Y362549D01*
X1315500Y360895D01*
Y359105D01*
X1316185Y357451D01*
X1317451Y356185D01*
X1319105Y355500D01*
X1320895D01*
X1322549Y356185D01*
X1323815Y357451D01*
X1324500Y359105D01*
Y360895D01*
X1323815Y362549D01*
X1322549Y363815D01*
X1320895Y364500D01*
D02*
G37*
G36*
X440895D02*
X439105D01*
X437451Y363815D01*
X436185Y362549D01*
X435500Y360895D01*
Y359105D01*
X436185Y357451D01*
X437451Y356185D01*
X439105Y355500D01*
X440895D01*
X442549Y356185D01*
X443815Y357451D01*
X444500Y359105D01*
Y360895D01*
X443815Y362549D01*
X442549Y363815D01*
X440895Y364500D01*
D02*
G37*
G36*
X400895D02*
X399105D01*
X397451Y363815D01*
X396185Y362549D01*
X395500Y360895D01*
Y359105D01*
X396185Y357451D01*
X397451Y356185D01*
X399105Y355500D01*
X400895D01*
X402549Y356185D01*
X403815Y357451D01*
X404500Y359105D01*
Y360895D01*
X403815Y362549D01*
X402549Y363815D01*
X400895Y364500D01*
D02*
G37*
G36*
X360895D02*
X359105D01*
X357451Y363815D01*
X356185Y362549D01*
X355500Y360895D01*
Y359105D01*
X356185Y357451D01*
X357451Y356185D01*
X359105Y355500D01*
X360895D01*
X362549Y356185D01*
X363815Y357451D01*
X364500Y359105D01*
Y360895D01*
X363815Y362549D01*
X362549Y363815D01*
X360895Y364500D01*
D02*
G37*
G36*
X320895D02*
X319105D01*
X317451Y363815D01*
X316185Y362549D01*
X315500Y360895D01*
Y359105D01*
X316185Y357451D01*
X317451Y356185D01*
X319105Y355500D01*
X320895D01*
X322549Y356185D01*
X323815Y357451D01*
X324500Y359105D01*
Y360895D01*
X323815Y362549D01*
X322549Y363815D01*
X320895Y364500D01*
D02*
G37*
G36*
X280895D02*
X279105D01*
X277451Y363815D01*
X276185Y362549D01*
X275500Y360895D01*
Y359105D01*
X276185Y357451D01*
X277451Y356185D01*
X279105Y355500D01*
X280895D01*
X282549Y356185D01*
X283815Y357451D01*
X284500Y359105D01*
Y360895D01*
X283815Y362549D01*
X282549Y363815D01*
X280895Y364500D01*
D02*
G37*
G36*
X240895D02*
X239105D01*
X237451Y363815D01*
X236185Y362549D01*
X235500Y360895D01*
Y359105D01*
X236185Y357451D01*
X237451Y356185D01*
X239105Y355500D01*
X240895D01*
X242549Y356185D01*
X243815Y357451D01*
X244500Y359105D01*
Y360895D01*
X243815Y362549D01*
X242549Y363815D01*
X240895Y364500D01*
D02*
G37*
G36*
X200895D02*
X199105D01*
X197451Y363815D01*
X196185Y362549D01*
X195500Y360895D01*
Y359105D01*
X196185Y357451D01*
X197451Y356185D01*
X199105Y355500D01*
X200895D01*
X202549Y356185D01*
X203815Y357451D01*
X204500Y359105D01*
Y360895D01*
X203815Y362549D01*
X202549Y363815D01*
X200895Y364500D01*
D02*
G37*
G36*
X160895D02*
X159105D01*
X157451Y363815D01*
X156185Y362549D01*
X155500Y360895D01*
Y359105D01*
X156185Y357451D01*
X157451Y356185D01*
X159105Y355500D01*
X160895D01*
X162549Y356185D01*
X163815Y357451D01*
X164500Y359105D01*
Y360895D01*
X163815Y362549D01*
X162549Y363815D01*
X160895Y364500D01*
D02*
G37*
G36*
X120895D02*
X119105D01*
X117451Y363815D01*
X116185Y362549D01*
X115500Y360895D01*
Y359105D01*
X116185Y357451D01*
X117451Y356185D01*
X119105Y355500D01*
X120895D01*
X122549Y356185D01*
X123815Y357451D01*
X124500Y359105D01*
Y360895D01*
X123815Y362549D01*
X122549Y363815D01*
X120895Y364500D01*
D02*
G37*
G36*
X80895D02*
X79105D01*
X77451Y363815D01*
X76185Y362549D01*
X75500Y360895D01*
Y359105D01*
X76185Y357451D01*
X77451Y356185D01*
X79105Y355500D01*
X80895D01*
X82549Y356185D01*
X83815Y357451D01*
X84500Y359105D01*
Y360895D01*
X83815Y362549D01*
X82549Y363815D01*
X80895Y364500D01*
D02*
G37*
G36*
X40895D02*
X39105D01*
X37451Y363815D01*
X36185Y362549D01*
X35500Y360895D01*
Y359105D01*
X36185Y357451D01*
X37451Y356185D01*
X39105Y355500D01*
X40895D01*
X42549Y356185D01*
X43815Y357451D01*
X44500Y359105D01*
Y360895D01*
X43815Y362549D01*
X42549Y363815D01*
X40895Y364500D01*
D02*
G37*
G36*
X827864Y343320D02*
X825676D01*
X823654Y342483D01*
X822107Y340936D01*
X821270Y338914D01*
Y336726D01*
X822107Y334705D01*
X823654Y333157D01*
X825676Y332320D01*
X827864D01*
X829885Y333157D01*
X831433Y334705D01*
X832270Y336726D01*
Y338914D01*
X831433Y340936D01*
X829885Y342483D01*
X827864Y343320D01*
D02*
G37*
G36*
X700895Y324500D02*
X699105D01*
X697451Y323815D01*
X696185Y322549D01*
X695957Y321998D01*
X694458Y321700D01*
X693996Y322163D01*
X691974Y323000D01*
X689786D01*
X687765Y322163D01*
X686217Y320616D01*
X685380Y318594D01*
Y316406D01*
X686217Y314384D01*
X687765Y312837D01*
X689786Y312000D01*
X691974D01*
X693996Y312837D01*
X695543Y314384D01*
X696103Y315737D01*
X697419Y316175D01*
X697543Y316147D01*
X699105Y315500D01*
X700895D01*
X702549Y316185D01*
X703815Y317451D01*
X704500Y319105D01*
Y320895D01*
X703815Y322549D01*
X702549Y323815D01*
X700895Y324500D01*
D02*
G37*
G36*
X1540895D02*
X1539105D01*
X1537451Y323815D01*
X1536185Y322549D01*
X1535500Y320895D01*
Y319105D01*
X1536185Y317451D01*
X1537451Y316185D01*
X1539105Y315500D01*
X1540895D01*
X1542549Y316185D01*
X1543815Y317451D01*
X1544500Y319105D01*
Y320895D01*
X1543815Y322549D01*
X1542549Y323815D01*
X1540895Y324500D01*
D02*
G37*
G36*
X1300895D02*
X1299105D01*
X1297451Y323815D01*
X1296185Y322549D01*
X1295500Y320895D01*
Y319105D01*
X1296185Y317451D01*
X1297451Y316185D01*
X1299105Y315500D01*
X1300895D01*
X1302549Y316185D01*
X1303815Y317451D01*
X1304500Y319105D01*
Y320895D01*
X1303815Y322549D01*
X1302549Y323815D01*
X1300895Y324500D01*
D02*
G37*
G36*
X1220895D02*
X1219105D01*
X1217451Y323815D01*
X1216185Y322549D01*
X1215500Y320895D01*
Y319105D01*
X1216185Y317451D01*
X1217451Y316185D01*
X1219105Y315500D01*
X1220895D01*
X1222549Y316185D01*
X1223815Y317451D01*
X1224500Y319105D01*
Y320895D01*
X1223815Y322549D01*
X1222549Y323815D01*
X1220895Y324500D01*
D02*
G37*
G36*
X1140895D02*
X1139105D01*
X1137451Y323815D01*
X1136185Y322549D01*
X1135500Y320895D01*
Y319105D01*
X1136185Y317451D01*
X1137451Y316185D01*
X1139105Y315500D01*
X1140895D01*
X1142549Y316185D01*
X1143815Y317451D01*
X1144500Y319105D01*
Y320895D01*
X1143815Y322549D01*
X1142549Y323815D01*
X1140895Y324500D01*
D02*
G37*
G36*
X1100895D02*
X1099105D01*
X1097451Y323815D01*
X1096185Y322549D01*
X1095500Y320895D01*
Y319105D01*
X1096185Y317451D01*
X1097451Y316185D01*
X1099105Y315500D01*
X1100895D01*
X1102549Y316185D01*
X1103815Y317451D01*
X1104500Y319105D01*
Y320895D01*
X1103815Y322549D01*
X1102549Y323815D01*
X1100895Y324500D01*
D02*
G37*
G36*
X1060895D02*
X1059105D01*
X1057451Y323815D01*
X1056185Y322549D01*
X1055500Y320895D01*
Y319105D01*
X1056185Y317451D01*
X1057451Y316185D01*
X1059105Y315500D01*
X1060895D01*
X1062549Y316185D01*
X1063815Y317451D01*
X1064500Y319105D01*
Y320895D01*
X1063815Y322549D01*
X1062549Y323815D01*
X1060895Y324500D01*
D02*
G37*
G36*
X1020895D02*
X1019105D01*
X1017451Y323815D01*
X1016185Y322549D01*
X1015500Y320895D01*
Y319105D01*
X1016185Y317451D01*
X1017451Y316185D01*
X1019105Y315500D01*
X1020895D01*
X1022549Y316185D01*
X1023815Y317451D01*
X1024500Y319105D01*
Y320895D01*
X1023815Y322549D01*
X1022549Y323815D01*
X1020895Y324500D01*
D02*
G37*
G36*
X980895D02*
X979105D01*
X977451Y323815D01*
X976185Y322549D01*
X975500Y320895D01*
Y319105D01*
X976185Y317451D01*
X977451Y316185D01*
X979105Y315500D01*
X980895D01*
X982549Y316185D01*
X983815Y317451D01*
X984500Y319105D01*
Y320895D01*
X983815Y322549D01*
X982549Y323815D01*
X980895Y324500D01*
D02*
G37*
G36*
X940895D02*
X939105D01*
X937451Y323815D01*
X936185Y322549D01*
X935500Y320895D01*
Y319105D01*
X936185Y317451D01*
X937451Y316185D01*
X939105Y315500D01*
X940895D01*
X942549Y316185D01*
X943815Y317451D01*
X944500Y319105D01*
Y320895D01*
X943815Y322549D01*
X942549Y323815D01*
X940895Y324500D01*
D02*
G37*
G36*
X900895D02*
X899105D01*
X897451Y323815D01*
X896185Y322549D01*
X895500Y320895D01*
Y319105D01*
X896185Y317451D01*
X897451Y316185D01*
X899105Y315500D01*
X900895D01*
X902549Y316185D01*
X903815Y317451D01*
X904500Y319105D01*
Y320895D01*
X903815Y322549D01*
X902549Y323815D01*
X900895Y324500D01*
D02*
G37*
G36*
X860895D02*
X859105D01*
X857451Y323815D01*
X856185Y322549D01*
X855500Y320895D01*
Y319105D01*
X856185Y317451D01*
X857451Y316185D01*
X859105Y315500D01*
X860895D01*
X862549Y316185D01*
X863815Y317451D01*
X864500Y319105D01*
Y320895D01*
X863815Y322549D01*
X862549Y323815D01*
X860895Y324500D01*
D02*
G37*
G36*
X820895D02*
X819105D01*
X817451Y323815D01*
X816185Y322549D01*
X815500Y320895D01*
Y319105D01*
X816185Y317451D01*
X817451Y316185D01*
X819105Y315500D01*
X820895D01*
X822549Y316185D01*
X823815Y317451D01*
X824500Y319105D01*
Y320895D01*
X823815Y322549D01*
X822549Y323815D01*
X820895Y324500D01*
D02*
G37*
G36*
X780895D02*
X779105D01*
X777451Y323815D01*
X776185Y322549D01*
X775500Y320895D01*
Y319105D01*
X776185Y317451D01*
X777451Y316185D01*
X779105Y315500D01*
X780895D01*
X782549Y316185D01*
X783815Y317451D01*
X784500Y319105D01*
Y320895D01*
X783815Y322549D01*
X782549Y323815D01*
X780895Y324500D01*
D02*
G37*
G36*
X740895D02*
X739105D01*
X737451Y323815D01*
X736185Y322549D01*
X735500Y320895D01*
Y319105D01*
X736185Y317451D01*
X737451Y316185D01*
X739105Y315500D01*
X740895D01*
X742549Y316185D01*
X743815Y317451D01*
X744500Y319105D01*
Y320895D01*
X743815Y322549D01*
X742549Y323815D01*
X740895Y324500D01*
D02*
G37*
G36*
X540895D02*
X539105D01*
X537451Y323815D01*
X536185Y322549D01*
X535500Y320895D01*
Y319105D01*
X536185Y317451D01*
X537451Y316185D01*
X539105Y315500D01*
X540895D01*
X542549Y316185D01*
X543815Y317451D01*
X544500Y319105D01*
Y320895D01*
X543815Y322549D01*
X542549Y323815D01*
X540895Y324500D01*
D02*
G37*
G36*
X500895D02*
X499105D01*
X497451Y323815D01*
X496185Y322549D01*
X495500Y320895D01*
Y319105D01*
X496185Y317451D01*
X497451Y316185D01*
X499105Y315500D01*
X500895D01*
X502549Y316185D01*
X503815Y317451D01*
X504500Y319105D01*
Y320895D01*
X503815Y322549D01*
X502549Y323815D01*
X500895Y324500D01*
D02*
G37*
G36*
X460895D02*
X459105D01*
X457451Y323815D01*
X456185Y322549D01*
X455500Y320895D01*
Y319105D01*
X456185Y317451D01*
X457451Y316185D01*
X459105Y315500D01*
X460895D01*
X462549Y316185D01*
X463815Y317451D01*
X464500Y319105D01*
Y320895D01*
X463815Y322549D01*
X462549Y323815D01*
X460895Y324500D01*
D02*
G37*
G36*
X380895D02*
X379105D01*
X377451Y323815D01*
X376185Y322549D01*
X375500Y320895D01*
Y319105D01*
X376185Y317451D01*
X377451Y316185D01*
X379105Y315500D01*
X380895D01*
X382549Y316185D01*
X383815Y317451D01*
X384500Y319105D01*
Y320895D01*
X383815Y322549D01*
X382549Y323815D01*
X380895Y324500D01*
D02*
G37*
G36*
X340895D02*
X339105D01*
X337451Y323815D01*
X336185Y322549D01*
X335500Y320895D01*
Y319105D01*
X336185Y317451D01*
X337451Y316185D01*
X339105Y315500D01*
X340895D01*
X342549Y316185D01*
X343815Y317451D01*
X344500Y319105D01*
Y320895D01*
X343815Y322549D01*
X342549Y323815D01*
X340895Y324500D01*
D02*
G37*
G36*
X300895D02*
X299105D01*
X297451Y323815D01*
X296185Y322549D01*
X295500Y320895D01*
Y319105D01*
X296185Y317451D01*
X297451Y316185D01*
X299105Y315500D01*
X300895D01*
X302549Y316185D01*
X303815Y317451D01*
X304500Y319105D01*
Y320895D01*
X303815Y322549D01*
X302549Y323815D01*
X300895Y324500D01*
D02*
G37*
G36*
X260895D02*
X259105D01*
X257451Y323815D01*
X256185Y322549D01*
X255500Y320895D01*
Y319105D01*
X256185Y317451D01*
X257451Y316185D01*
X259105Y315500D01*
X260895D01*
X262549Y316185D01*
X263815Y317451D01*
X264500Y319105D01*
Y320895D01*
X263815Y322549D01*
X262549Y323815D01*
X260895Y324500D01*
D02*
G37*
G36*
X220895D02*
X219105D01*
X217451Y323815D01*
X216185Y322549D01*
X215500Y320895D01*
Y319105D01*
X216185Y317451D01*
X217451Y316185D01*
X219105Y315500D01*
X220895D01*
X222549Y316185D01*
X223815Y317451D01*
X224500Y319105D01*
Y320895D01*
X223815Y322549D01*
X222549Y323815D01*
X220895Y324500D01*
D02*
G37*
G36*
X180895D02*
X179105D01*
X177451Y323815D01*
X176185Y322549D01*
X175500Y320895D01*
Y319105D01*
X176185Y317451D01*
X177451Y316185D01*
X179105Y315500D01*
X180895D01*
X182549Y316185D01*
X183815Y317451D01*
X184500Y319105D01*
Y320895D01*
X183815Y322549D01*
X182549Y323815D01*
X180895Y324500D01*
D02*
G37*
G36*
X140895D02*
X139105D01*
X137451Y323815D01*
X136185Y322549D01*
X135500Y320895D01*
Y319105D01*
X136185Y317451D01*
X137451Y316185D01*
X139105Y315500D01*
X140895D01*
X142549Y316185D01*
X143815Y317451D01*
X144500Y319105D01*
Y320895D01*
X143815Y322549D01*
X142549Y323815D01*
X140895Y324500D01*
D02*
G37*
G36*
X100895D02*
X99105D01*
X97451Y323815D01*
X96185Y322549D01*
X95500Y320895D01*
Y319105D01*
X96185Y317451D01*
X97451Y316185D01*
X99105Y315500D01*
X100895D01*
X102549Y316185D01*
X103815Y317451D01*
X104500Y319105D01*
Y320895D01*
X103815Y322549D01*
X102549Y323815D01*
X100895Y324500D01*
D02*
G37*
G36*
X60895D02*
X59105D01*
X57451Y323815D01*
X56185Y322549D01*
X55500Y320895D01*
Y319105D01*
X56185Y317451D01*
X57451Y316185D01*
X59105Y315500D01*
X60895D01*
X62549Y316185D01*
X63815Y317451D01*
X64500Y319105D01*
Y320895D01*
X63815Y322549D01*
X62549Y323815D01*
X60895Y324500D01*
D02*
G37*
G36*
X1258570Y460509D02*
X1257790Y460354D01*
X1257128Y459912D01*
X1257128Y459912D01*
X1255858Y458642D01*
X1255817Y458581D01*
X1255760Y458536D01*
X1255598Y458252D01*
X1255416Y457980D01*
X1255402Y457909D01*
X1255366Y457845D01*
X1255325Y457521D01*
X1255261Y457200D01*
X1255275Y457128D01*
X1255266Y457055D01*
X1255352Y456740D01*
X1255416Y456420D01*
X1255457Y456359D01*
X1255476Y456288D01*
X1256746Y453748D01*
X1256946Y453490D01*
X1257128Y453218D01*
X1341621Y368725D01*
Y181610D01*
X1341776Y180830D01*
X1342218Y180168D01*
X1342880Y179726D01*
X1343660Y179571D01*
X1421555D01*
X1424768Y176358D01*
X1425430Y175916D01*
X1426210Y175761D01*
X1426990Y175916D01*
X1427652Y176358D01*
X1427652Y176358D01*
X1436542Y185248D01*
X1436984Y185910D01*
X1437139Y186690D01*
Y194939D01*
X1438409Y195788D01*
X1439105Y195500D01*
X1440895D01*
X1442549Y196185D01*
X1443815Y197451D01*
X1444500Y199105D01*
Y200895D01*
X1443815Y202549D01*
X1442549Y203815D01*
X1440895Y204500D01*
X1439105D01*
X1438409Y204212D01*
X1437139Y205060D01*
Y291331D01*
X1516805D01*
X1518748Y289388D01*
X1519410Y288946D01*
X1520190Y288791D01*
X1520970Y288946D01*
X1521632Y289388D01*
X1521632Y289388D01*
X1524172Y291928D01*
X1524614Y292590D01*
X1524769Y293370D01*
Y322580D01*
X1524614Y323360D01*
X1524172Y324022D01*
X1523510Y324464D01*
X1522730Y324619D01*
X1500715D01*
X1499284Y326050D01*
X1499643Y327487D01*
X1501774Y328718D01*
X1503892Y330836D01*
X1505390Y333429D01*
X1506165Y336323D01*
Y339318D01*
X1505390Y342211D01*
X1503892Y344804D01*
X1501774Y346922D01*
X1499181Y348420D01*
X1496288Y349195D01*
X1493293D01*
X1490399Y348420D01*
X1487806Y346922D01*
X1485688Y344804D01*
X1484443Y342649D01*
X1484068Y342369D01*
X1483141Y342163D01*
X1482960Y342154D01*
X1482828Y342180D01*
X1482707Y342240D01*
X1482441Y342257D01*
X1482180Y342309D01*
X1482048Y342283D01*
X1481913Y342292D01*
X1481702Y342220D01*
X1481561Y342186D01*
X1481399Y342154D01*
X1480645Y342403D01*
X1480023Y342846D01*
X1478892Y344804D01*
X1476774Y346922D01*
X1474816Y348053D01*
X1474373Y348675D01*
X1474124Y349429D01*
X1474156Y349591D01*
X1474190Y349732D01*
X1474262Y349944D01*
X1474253Y350078D01*
X1474279Y350210D01*
X1474227Y350471D01*
X1474210Y350737D01*
X1474151Y350858D01*
X1474124Y350990D01*
X1474133Y351171D01*
X1474339Y352098D01*
X1474619Y352473D01*
X1476774Y353718D01*
X1478892Y355836D01*
X1480390Y358429D01*
X1481165Y361323D01*
Y364318D01*
X1480390Y367211D01*
X1478892Y369804D01*
X1476774Y371922D01*
X1474181Y373420D01*
X1471288Y374195D01*
X1468293D01*
X1465399Y373420D01*
X1464662Y372994D01*
X1440163Y397493D01*
X1439006Y398267D01*
X1437640Y398539D01*
X1425771D01*
X1424777Y399712D01*
X1424622Y400492D01*
X1424180Y401154D01*
X1365422Y459912D01*
X1364760Y460354D01*
X1363980Y460509D01*
X1258570D01*
X1258570Y460509D01*
D02*
G37*
G36*
X1520895Y284500D02*
X1519105D01*
X1517451Y283815D01*
X1516185Y282549D01*
X1515500Y280895D01*
Y279105D01*
X1516185Y277451D01*
X1517451Y276185D01*
X1519105Y275500D01*
X1520895D01*
X1522549Y276185D01*
X1523815Y277451D01*
X1524500Y279105D01*
Y280895D01*
X1523815Y282549D01*
X1522549Y283815D01*
X1520895Y284500D01*
D02*
G37*
G36*
X600895D02*
X599105D01*
X597451Y283815D01*
X596185Y282549D01*
X595500Y280895D01*
Y279105D01*
X596185Y277451D01*
X597451Y276185D01*
X599105Y275500D01*
X600895D01*
X602549Y276185D01*
X603815Y277451D01*
X604500Y279105D01*
Y280895D01*
X603815Y282549D01*
X602549Y283815D01*
X600895Y284500D01*
D02*
G37*
G36*
X560895D02*
X559105D01*
X557451Y283815D01*
X556185Y282549D01*
X555500Y280895D01*
Y279105D01*
X556185Y277451D01*
X557451Y276185D01*
X559105Y275500D01*
X560895D01*
X562549Y276185D01*
X563815Y277451D01*
X564500Y279105D01*
Y280895D01*
X563815Y282549D01*
X562549Y283815D01*
X560895Y284500D01*
D02*
G37*
G36*
X520895D02*
X519105D01*
X517451Y283815D01*
X516185Y282549D01*
X515500Y280895D01*
Y279105D01*
X516185Y277451D01*
X517451Y276185D01*
X519105Y275500D01*
X520895D01*
X522549Y276185D01*
X523815Y277451D01*
X524500Y279105D01*
Y280895D01*
X523815Y282549D01*
X522549Y283815D01*
X520895Y284500D01*
D02*
G37*
G36*
X480895D02*
X479105D01*
X477451Y283815D01*
X476185Y282549D01*
X475500Y280895D01*
Y279105D01*
X476185Y277451D01*
X477451Y276185D01*
X479105Y275500D01*
X480895D01*
X482549Y276185D01*
X483815Y277451D01*
X484500Y279105D01*
Y280895D01*
X483815Y282549D01*
X482549Y283815D01*
X480895Y284500D01*
D02*
G37*
G36*
X440895D02*
X439105D01*
X437451Y283815D01*
X436185Y282549D01*
X435500Y280895D01*
Y279105D01*
X436185Y277451D01*
X437451Y276185D01*
X439105Y275500D01*
X440895D01*
X442549Y276185D01*
X443815Y277451D01*
X444500Y279105D01*
Y280895D01*
X443815Y282549D01*
X442549Y283815D01*
X440895Y284500D01*
D02*
G37*
G36*
X280895D02*
X279105D01*
X277451Y283815D01*
X276185Y282549D01*
X275500Y280895D01*
Y279105D01*
X276185Y277451D01*
X277451Y276185D01*
X279105Y275500D01*
X280895D01*
X282549Y276185D01*
X283815Y277451D01*
X284500Y279105D01*
Y280895D01*
X283815Y282549D01*
X282549Y283815D01*
X280895Y284500D01*
D02*
G37*
G36*
X240895D02*
X239105D01*
X237451Y283815D01*
X236185Y282549D01*
X235500Y280895D01*
Y279105D01*
X236185Y277451D01*
X237451Y276185D01*
X239105Y275500D01*
X240895D01*
X242549Y276185D01*
X243815Y277451D01*
X244500Y279105D01*
Y280895D01*
X243815Y282549D01*
X242549Y283815D01*
X240895Y284500D01*
D02*
G37*
G36*
X200895D02*
X199105D01*
X197451Y283815D01*
X196185Y282549D01*
X195500Y280895D01*
Y279105D01*
X196185Y277451D01*
X197451Y276185D01*
X199105Y275500D01*
X200895D01*
X202549Y276185D01*
X203815Y277451D01*
X204500Y279105D01*
Y280895D01*
X203815Y282549D01*
X202549Y283815D01*
X200895Y284500D01*
D02*
G37*
G36*
X160895D02*
X159105D01*
X157451Y283815D01*
X156185Y282549D01*
X155500Y280895D01*
Y279105D01*
X156185Y277451D01*
X157451Y276185D01*
X159105Y275500D01*
X160895D01*
X162549Y276185D01*
X163815Y277451D01*
X164500Y279105D01*
Y280895D01*
X163815Y282549D01*
X162549Y283815D01*
X160895Y284500D01*
D02*
G37*
G36*
X120895D02*
X119105D01*
X117451Y283815D01*
X116185Y282549D01*
X115500Y280895D01*
Y279105D01*
X116185Y277451D01*
X117451Y276185D01*
X119105Y275500D01*
X120895D01*
X122549Y276185D01*
X123815Y277451D01*
X124500Y279105D01*
Y280895D01*
X123815Y282549D01*
X122549Y283815D01*
X120895Y284500D01*
D02*
G37*
G36*
X80895D02*
X79105D01*
X77451Y283815D01*
X76185Y282549D01*
X75500Y280895D01*
Y279105D01*
X76185Y277451D01*
X77451Y276185D01*
X79105Y275500D01*
X80895D01*
X82549Y276185D01*
X83815Y277451D01*
X84500Y279105D01*
Y280895D01*
X83815Y282549D01*
X82549Y283815D01*
X80895Y284500D01*
D02*
G37*
G36*
X40895D02*
X39105D01*
X37451Y283815D01*
X36185Y282549D01*
X35500Y280895D01*
Y279105D01*
X36185Y277451D01*
X37451Y276185D01*
X39105Y275500D01*
X40895D01*
X42549Y276185D01*
X43815Y277451D01*
X44500Y279105D01*
Y280895D01*
X43815Y282549D01*
X42549Y283815D01*
X40895Y284500D01*
D02*
G37*
G36*
X643714Y279820D02*
X641526D01*
X639505Y278983D01*
X637957Y277435D01*
X637120Y275414D01*
Y273226D01*
X637957Y271204D01*
X639505Y269657D01*
X641526Y268820D01*
X643714D01*
X645735Y269657D01*
X647283Y271204D01*
X648120Y273226D01*
Y275414D01*
X647283Y277435D01*
X645735Y278983D01*
X643714Y279820D01*
D02*
G37*
G36*
Y265850D02*
X641526D01*
X639505Y265013D01*
X637957Y263465D01*
X637120Y261444D01*
Y259256D01*
X637957Y257234D01*
X639505Y255687D01*
X641526Y254850D01*
X643714D01*
X645735Y255687D01*
X647283Y257234D01*
X648120Y259256D01*
Y261444D01*
X647283Y263465D01*
X645735Y265013D01*
X643714Y265850D01*
D02*
G37*
G36*
X1493748Y269655D02*
X1490753D01*
X1487859Y268880D01*
X1485266Y267382D01*
X1483148Y265264D01*
X1481650Y262671D01*
X1480875Y259778D01*
Y256782D01*
X1481650Y253889D01*
X1483148Y251296D01*
X1485266Y249178D01*
X1487859Y247680D01*
X1490753Y246905D01*
X1493748D01*
X1496641Y247680D01*
X1499234Y249178D01*
X1501352Y251296D01*
X1502850Y253889D01*
X1503625Y256782D01*
Y259778D01*
X1502850Y262671D01*
X1501352Y265264D01*
X1499234Y267382D01*
X1496641Y268880D01*
X1493748Y269655D01*
D02*
G37*
G36*
X1468748D02*
X1465753D01*
X1462859Y268880D01*
X1460266Y267382D01*
X1458148Y265264D01*
X1456650Y262671D01*
X1455875Y259778D01*
Y256782D01*
X1456650Y253889D01*
X1458148Y251296D01*
X1460266Y249178D01*
X1462859Y247680D01*
X1465753Y246905D01*
X1468748D01*
X1471641Y247680D01*
X1474234Y249178D01*
X1476352Y251296D01*
X1477850Y253889D01*
X1478625Y256782D01*
Y259778D01*
X1477850Y262671D01*
X1476352Y265264D01*
X1474234Y267382D01*
X1471641Y268880D01*
X1468748Y269655D01*
D02*
G37*
G36*
X599264Y256340D02*
X597076D01*
X595055Y255503D01*
X593507Y253955D01*
X592670Y251934D01*
Y249746D01*
X593507Y247724D01*
X595055Y246177D01*
X597076Y245340D01*
X599264D01*
X601286Y246177D01*
X602833Y247724D01*
X603670Y249746D01*
Y251934D01*
X602833Y253955D01*
X601286Y255503D01*
X599264Y256340D01*
D02*
G37*
G36*
X418794Y250480D02*
X416606D01*
X414584Y249642D01*
X413037Y248095D01*
X412200Y246074D01*
Y243886D01*
X413037Y241864D01*
X414584Y240317D01*
X416606Y239480D01*
X418794D01*
X420815Y240317D01*
X422362Y241864D01*
X423200Y243886D01*
Y246074D01*
X422362Y248095D01*
X420815Y249642D01*
X418794Y250480D01*
D02*
G37*
G36*
X1540895Y244500D02*
X1539105D01*
X1537451Y243815D01*
X1536185Y242549D01*
X1535500Y240895D01*
Y239105D01*
X1536185Y237451D01*
X1537451Y236185D01*
X1539105Y235500D01*
X1540895D01*
X1542549Y236185D01*
X1543815Y237451D01*
X1544500Y239105D01*
Y240895D01*
X1543815Y242549D01*
X1542549Y243815D01*
X1540895Y244500D01*
D02*
G37*
G36*
X1300895D02*
X1299105D01*
X1297451Y243815D01*
X1296185Y242549D01*
X1295500Y240895D01*
Y239105D01*
X1296185Y237451D01*
X1297451Y236185D01*
X1299105Y235500D01*
X1300895D01*
X1302549Y236185D01*
X1303815Y237451D01*
X1304500Y239105D01*
Y240895D01*
X1303815Y242549D01*
X1302549Y243815D01*
X1300895Y244500D01*
D02*
G37*
G36*
X300895D02*
X299105D01*
X297451Y243815D01*
X296185Y242549D01*
X295500Y240895D01*
Y239105D01*
X296185Y237451D01*
X297451Y236185D01*
X299105Y235500D01*
X300895D01*
X302549Y236185D01*
X303815Y237451D01*
X304500Y239105D01*
Y240895D01*
X303815Y242549D01*
X302549Y243815D01*
X300895Y244500D01*
D02*
G37*
G36*
X260895D02*
X259105D01*
X257451Y243815D01*
X256185Y242549D01*
X255500Y240895D01*
Y239105D01*
X256185Y237451D01*
X257451Y236185D01*
X259105Y235500D01*
X260895D01*
X262549Y236185D01*
X263815Y237451D01*
X264500Y239105D01*
Y240895D01*
X263815Y242549D01*
X262549Y243815D01*
X260895Y244500D01*
D02*
G37*
G36*
X220895D02*
X219105D01*
X217451Y243815D01*
X216185Y242549D01*
X215500Y240895D01*
Y239105D01*
X216185Y237451D01*
X217451Y236185D01*
X219105Y235500D01*
X220895D01*
X222549Y236185D01*
X223815Y237451D01*
X224500Y239105D01*
Y240895D01*
X223815Y242549D01*
X222549Y243815D01*
X220895Y244500D01*
D02*
G37*
G36*
X180895D02*
X179105D01*
X177451Y243815D01*
X176185Y242549D01*
X175500Y240895D01*
Y239105D01*
X176185Y237451D01*
X177451Y236185D01*
X179105Y235500D01*
X180895D01*
X182549Y236185D01*
X183815Y237451D01*
X184500Y239105D01*
Y240895D01*
X183815Y242549D01*
X182549Y243815D01*
X180895Y244500D01*
D02*
G37*
G36*
X140895D02*
X139105D01*
X137451Y243815D01*
X136185Y242549D01*
X135500Y240895D01*
Y239105D01*
X136185Y237451D01*
X137451Y236185D01*
X139105Y235500D01*
X140895D01*
X142549Y236185D01*
X143815Y237451D01*
X144500Y239105D01*
Y240895D01*
X143815Y242549D01*
X142549Y243815D01*
X140895Y244500D01*
D02*
G37*
G36*
X100895D02*
X99105D01*
X97451Y243815D01*
X96185Y242549D01*
X95500Y240895D01*
Y239105D01*
X96185Y237451D01*
X97451Y236185D01*
X99105Y235500D01*
X100895D01*
X102549Y236185D01*
X103815Y237451D01*
X104500Y239105D01*
Y240895D01*
X103815Y242549D01*
X102549Y243815D01*
X100895Y244500D01*
D02*
G37*
G36*
X60895D02*
X59105D01*
X57451Y243815D01*
X56185Y242549D01*
X55500Y240895D01*
Y239105D01*
X56185Y237451D01*
X57451Y236185D01*
X59105Y235500D01*
X60895D01*
X62549Y236185D01*
X63815Y237451D01*
X64500Y239105D01*
Y240895D01*
X63815Y242549D01*
X62549Y243815D01*
X60895Y244500D01*
D02*
G37*
G36*
X1235335Y242910D02*
X1233545D01*
X1231891Y242225D01*
X1230625Y240959D01*
X1229940Y239305D01*
Y237515D01*
X1230625Y235861D01*
X1231891Y234595D01*
X1233545Y233910D01*
X1235335D01*
X1236989Y234595D01*
X1238255Y235861D01*
X1238940Y237515D01*
Y239305D01*
X1238255Y240959D01*
X1236989Y242225D01*
X1235335Y242910D01*
D02*
G37*
G36*
X421464Y237910D02*
X419276D01*
X417254Y237073D01*
X415707Y235525D01*
X414870Y233504D01*
Y231316D01*
X415707Y229294D01*
X417254Y227747D01*
X419276Y226910D01*
X421464D01*
X423485Y227747D01*
X425033Y229294D01*
X425870Y231316D01*
Y233504D01*
X425033Y235525D01*
X423485Y237073D01*
X421464Y237910D01*
D02*
G37*
G36*
X396028Y236416D02*
X393839D01*
X391818Y235579D01*
X390271Y234032D01*
X389434Y232010D01*
Y229822D01*
X390271Y227801D01*
X391818Y226253D01*
X393839Y225416D01*
X396028D01*
X398049Y226253D01*
X399596Y227801D01*
X400434Y229822D01*
Y232010D01*
X399596Y234032D01*
X398049Y235579D01*
X396028Y236416D01*
D02*
G37*
G36*
X1493748Y244655D02*
X1490753D01*
X1487859Y243880D01*
X1485266Y242382D01*
X1483148Y240264D01*
X1481650Y237671D01*
X1480875Y234778D01*
Y231782D01*
X1481650Y228889D01*
X1483148Y226296D01*
X1485266Y224178D01*
X1487859Y222680D01*
X1490753Y221905D01*
X1493748D01*
X1496641Y222680D01*
X1499234Y224178D01*
X1501352Y226296D01*
X1502850Y228889D01*
X1503625Y231782D01*
Y234778D01*
X1502850Y237671D01*
X1501352Y240264D01*
X1499234Y242382D01*
X1496641Y243880D01*
X1493748Y244655D01*
D02*
G37*
G36*
X1468748D02*
X1465753D01*
X1462859Y243880D01*
X1460266Y242382D01*
X1458148Y240264D01*
X1456650Y237671D01*
X1455875Y234778D01*
Y231782D01*
X1456650Y228889D01*
X1458148Y226296D01*
X1460266Y224178D01*
X1462859Y222680D01*
X1465753Y221905D01*
X1468748D01*
X1471641Y222680D01*
X1474234Y224178D01*
X1476352Y226296D01*
X1477850Y228889D01*
X1478625Y231782D01*
Y234778D01*
X1477850Y237671D01*
X1476352Y240264D01*
X1474234Y242382D01*
X1471641Y243880D01*
X1468748Y244655D01*
D02*
G37*
G36*
X381986Y243779D02*
X379798D01*
X377777Y242941D01*
X376230Y241394D01*
X375392Y239373D01*
Y237185D01*
X376230Y235163D01*
X377777Y233616D01*
X378600Y233275D01*
X378622Y232520D01*
X378474Y231953D01*
X376614Y231183D01*
X375067Y229636D01*
X374230Y227614D01*
Y225426D01*
X375067Y223405D01*
X376614Y221857D01*
X378636Y221020D01*
X380824D01*
X382845Y221857D01*
X384393Y223405D01*
X385230Y225426D01*
Y227614D01*
X384393Y229636D01*
X382845Y231183D01*
X382022Y231524D01*
X382001Y232279D01*
X382149Y232846D01*
X384008Y233616D01*
X385555Y235163D01*
X386392Y237185D01*
Y239373D01*
X385555Y241394D01*
X384008Y242941D01*
X381986Y243779D01*
D02*
G37*
G36*
X465914Y406820D02*
X463726D01*
X461704Y405983D01*
X460157Y404436D01*
X459320Y402414D01*
Y400226D01*
X460157Y398204D01*
X461704Y396657D01*
X463726Y395820D01*
X465273D01*
X485157Y375937D01*
X486314Y375163D01*
X487680Y374891D01*
X566212D01*
X591837Y349267D01*
X592994Y348493D01*
X594360Y348221D01*
X1235502D01*
X1258217Y325507D01*
X1257919Y324009D01*
X1257451Y323815D01*
X1256185Y322549D01*
X1255500Y320895D01*
Y319105D01*
X1256185Y317451D01*
X1257451Y316185D01*
X1259105Y315500D01*
X1260895D01*
X1262549Y316185D01*
X1263815Y317451D01*
X1264008Y317919D01*
X1265507Y318217D01*
X1326301Y257422D01*
Y227585D01*
X1326055Y227339D01*
X1325370Y225685D01*
Y223895D01*
X1326055Y222241D01*
X1327321Y220975D01*
X1328975Y220290D01*
X1330765D01*
X1332419Y220975D01*
X1333685Y222241D01*
X1334370Y223895D01*
Y225685D01*
X1333685Y227339D01*
X1333439Y227585D01*
Y258900D01*
X1333167Y260266D01*
X1332393Y261423D01*
X1239503Y354313D01*
X1238346Y355087D01*
X1236980Y355359D01*
X595838D01*
X570213Y380983D01*
X569056Y381757D01*
X567690Y382029D01*
X489158D01*
X470320Y400867D01*
Y402414D01*
X469483Y404436D01*
X467935Y405983D01*
X465914Y406820D01*
D02*
G37*
G36*
X351614Y222670D02*
X349426D01*
X347405Y221833D01*
X345857Y220285D01*
X345020Y218264D01*
Y216076D01*
X345857Y214055D01*
X347405Y212507D01*
X349426Y211670D01*
X351614D01*
X353635Y212507D01*
X355183Y214055D01*
X356020Y216076D01*
Y218264D01*
X355183Y220285D01*
X353635Y221833D01*
X351614Y222670D01*
D02*
G37*
G36*
X1493748Y219655D02*
X1490753D01*
X1487859Y218880D01*
X1485266Y217382D01*
X1483148Y215264D01*
X1481650Y212671D01*
X1480875Y209778D01*
Y206782D01*
X1481178Y205653D01*
X1480172Y204500D01*
X1479328D01*
X1478260Y205420D01*
X1478625Y206782D01*
Y209778D01*
X1477850Y212671D01*
X1476352Y215264D01*
X1474234Y217382D01*
X1471641Y218880D01*
X1468748Y219655D01*
X1465753D01*
X1462859Y218880D01*
X1460266Y217382D01*
X1458148Y215264D01*
X1456650Y212671D01*
X1455875Y209778D01*
Y206782D01*
X1456650Y203889D01*
X1458148Y201296D01*
X1460266Y199178D01*
X1462859Y197680D01*
X1465753Y196905D01*
X1468748D01*
X1471641Y197680D01*
X1474234Y199178D01*
X1474326Y199270D01*
X1475634Y198781D01*
X1476185Y197451D01*
X1477451Y196185D01*
X1479105Y195500D01*
X1480895D01*
X1482549Y196185D01*
X1483815Y197451D01*
X1484219Y198428D01*
X1484464Y198603D01*
X1485649Y198936D01*
X1485697Y198929D01*
X1487859Y197680D01*
X1490753Y196905D01*
X1493748D01*
X1496556Y197658D01*
X1497158Y197318D01*
X1497674Y196922D01*
X1497650Y196833D01*
Y194727D01*
X1497674Y194638D01*
X1497158Y194242D01*
X1496556Y193902D01*
X1493748Y194655D01*
X1490753D01*
X1487859Y193880D01*
X1485266Y192382D01*
X1483148Y190264D01*
X1481650Y187671D01*
X1480875Y184778D01*
Y181782D01*
X1481650Y178889D01*
X1483148Y176296D01*
X1485266Y174178D01*
X1487859Y172680D01*
X1490753Y171905D01*
X1493748D01*
X1496641Y172680D01*
X1499234Y174178D01*
X1501352Y176296D01*
X1502850Y178889D01*
X1503625Y181782D01*
Y184778D01*
X1503063Y186876D01*
X1504100Y187913D01*
X1504597Y187780D01*
X1506703D01*
X1508738Y188325D01*
X1510562Y189378D01*
X1512052Y190868D01*
X1513105Y192692D01*
X1513650Y194727D01*
Y196833D01*
X1513105Y198868D01*
X1512052Y200692D01*
X1510562Y202182D01*
X1508738Y203235D01*
X1506703Y203780D01*
X1504597D01*
X1504100Y203647D01*
X1503063Y204684D01*
X1503625Y206782D01*
Y209778D01*
X1502850Y212671D01*
X1501352Y215264D01*
X1499234Y217382D01*
X1496641Y218880D01*
X1493748Y219655D01*
D02*
G37*
G36*
X1520895Y204500D02*
X1519105D01*
X1517451Y203815D01*
X1516185Y202549D01*
X1515500Y200895D01*
Y199105D01*
X1516185Y197451D01*
X1517451Y196185D01*
X1519105Y195500D01*
X1520895D01*
X1522549Y196185D01*
X1523815Y197451D01*
X1524500Y199105D01*
Y200895D01*
X1523815Y202549D01*
X1522549Y203815D01*
X1520895Y204500D01*
D02*
G37*
G36*
X1160895D02*
X1159105D01*
X1157451Y203815D01*
X1156185Y202549D01*
X1155500Y200895D01*
Y199105D01*
X1156185Y197451D01*
X1157451Y196185D01*
X1159105Y195500D01*
X1160895D01*
X1162549Y196185D01*
X1163815Y197451D01*
X1164500Y199105D01*
Y200895D01*
X1163815Y202549D01*
X1162549Y203815D01*
X1160895Y204500D01*
D02*
G37*
G36*
X1120895D02*
X1119105D01*
X1117451Y203815D01*
X1116185Y202549D01*
X1115500Y200895D01*
Y199105D01*
X1116185Y197451D01*
X1117451Y196185D01*
X1119105Y195500D01*
X1120895D01*
X1122549Y196185D01*
X1123815Y197451D01*
X1124500Y199105D01*
Y200895D01*
X1123815Y202549D01*
X1122549Y203815D01*
X1120895Y204500D01*
D02*
G37*
G36*
X1080895D02*
X1079105D01*
X1077451Y203815D01*
X1076185Y202549D01*
X1075500Y200895D01*
Y199105D01*
X1076185Y197451D01*
X1077451Y196185D01*
X1079105Y195500D01*
X1080895D01*
X1082549Y196185D01*
X1083815Y197451D01*
X1084500Y199105D01*
Y200895D01*
X1083815Y202549D01*
X1082549Y203815D01*
X1080895Y204500D01*
D02*
G37*
G36*
X1040895D02*
X1039105D01*
X1037451Y203815D01*
X1036185Y202549D01*
X1035500Y200895D01*
Y199105D01*
X1036185Y197451D01*
X1037451Y196185D01*
X1039105Y195500D01*
X1040895D01*
X1042549Y196185D01*
X1043815Y197451D01*
X1044500Y199105D01*
Y200895D01*
X1043815Y202549D01*
X1042549Y203815D01*
X1040895Y204500D01*
D02*
G37*
G36*
X960895D02*
X959105D01*
X957451Y203815D01*
X956185Y202549D01*
X955500Y200895D01*
Y199105D01*
X956185Y197451D01*
X957451Y196185D01*
X959105Y195500D01*
X960895D01*
X962549Y196185D01*
X963815Y197451D01*
X964500Y199105D01*
Y200895D01*
X963815Y202549D01*
X962549Y203815D01*
X960895Y204500D01*
D02*
G37*
G36*
X920895D02*
X919105D01*
X917451Y203815D01*
X916185Y202549D01*
X915500Y200895D01*
Y199105D01*
X916185Y197451D01*
X917451Y196185D01*
X919105Y195500D01*
X920895D01*
X922549Y196185D01*
X923815Y197451D01*
X924500Y199105D01*
Y200895D01*
X923815Y202549D01*
X922549Y203815D01*
X920895Y204500D01*
D02*
G37*
G36*
X880895D02*
X879105D01*
X877451Y203815D01*
X876185Y202549D01*
X875500Y200895D01*
Y199105D01*
X876185Y197451D01*
X877451Y196185D01*
X879105Y195500D01*
X880895D01*
X882549Y196185D01*
X883815Y197451D01*
X884500Y199105D01*
Y200895D01*
X883815Y202549D01*
X882549Y203815D01*
X880895Y204500D01*
D02*
G37*
G36*
X840895D02*
X839105D01*
X837451Y203815D01*
X836185Y202549D01*
X835500Y200895D01*
Y199105D01*
X836185Y197451D01*
X837451Y196185D01*
X839105Y195500D01*
X840895D01*
X842549Y196185D01*
X843815Y197451D01*
X844500Y199105D01*
Y200895D01*
X843815Y202549D01*
X842549Y203815D01*
X840895Y204500D01*
D02*
G37*
G36*
X800895D02*
X799105D01*
X797451Y203815D01*
X796185Y202549D01*
X795500Y200895D01*
Y199105D01*
X796185Y197451D01*
X797451Y196185D01*
X799105Y195500D01*
X800895D01*
X802549Y196185D01*
X803815Y197451D01*
X804500Y199105D01*
Y200895D01*
X803815Y202549D01*
X802549Y203815D01*
X800895Y204500D01*
D02*
G37*
G36*
X760895D02*
X759105D01*
X757451Y203815D01*
X756185Y202549D01*
X755500Y200895D01*
Y199105D01*
X756185Y197451D01*
X757451Y196185D01*
X759105Y195500D01*
X760895D01*
X762549Y196185D01*
X763815Y197451D01*
X764500Y199105D01*
Y200895D01*
X763815Y202549D01*
X762549Y203815D01*
X760895Y204500D01*
D02*
G37*
G36*
X720895D02*
X719105D01*
X717451Y203815D01*
X716185Y202549D01*
X715500Y200895D01*
Y199105D01*
X716185Y197451D01*
X717451Y196185D01*
X719105Y195500D01*
X720895D01*
X722549Y196185D01*
X723815Y197451D01*
X724500Y199105D01*
Y200895D01*
X723815Y202549D01*
X722549Y203815D01*
X720895Y204500D01*
D02*
G37*
G36*
X680895D02*
X679105D01*
X677451Y203815D01*
X676185Y202549D01*
X675500Y200895D01*
Y199105D01*
X676185Y197451D01*
X677451Y196185D01*
X679105Y195500D01*
X680895D01*
X682549Y196185D01*
X683815Y197451D01*
X684500Y199105D01*
Y200895D01*
X683815Y202549D01*
X682549Y203815D01*
X680895Y204500D01*
D02*
G37*
G36*
X640895D02*
X639105D01*
X637451Y203815D01*
X636185Y202549D01*
X635500Y200895D01*
Y199105D01*
X636185Y197451D01*
X637451Y196185D01*
X639105Y195500D01*
X640895D01*
X642549Y196185D01*
X643815Y197451D01*
X644500Y199105D01*
Y200895D01*
X643815Y202549D01*
X642549Y203815D01*
X640895Y204500D01*
D02*
G37*
G36*
X600895D02*
X599105D01*
X597451Y203815D01*
X596185Y202549D01*
X595500Y200895D01*
Y199105D01*
X596185Y197451D01*
X597451Y196185D01*
X599105Y195500D01*
X600895D01*
X602549Y196185D01*
X603815Y197451D01*
X604500Y199105D01*
Y200895D01*
X603815Y202549D01*
X602549Y203815D01*
X600895Y204500D01*
D02*
G37*
G36*
X560895D02*
X559105D01*
X557451Y203815D01*
X556185Y202549D01*
X555500Y200895D01*
Y199105D01*
X556185Y197451D01*
X557451Y196185D01*
X559105Y195500D01*
X560895D01*
X562549Y196185D01*
X563815Y197451D01*
X564500Y199105D01*
Y200895D01*
X563815Y202549D01*
X562549Y203815D01*
X560895Y204500D01*
D02*
G37*
G36*
X520895D02*
X519105D01*
X517451Y203815D01*
X516185Y202549D01*
X515500Y200895D01*
Y199105D01*
X516185Y197451D01*
X517451Y196185D01*
X519105Y195500D01*
X520895D01*
X522549Y196185D01*
X523815Y197451D01*
X524500Y199105D01*
Y200895D01*
X523815Y202549D01*
X522549Y203815D01*
X520895Y204500D01*
D02*
G37*
G36*
X480895D02*
X479105D01*
X477451Y203815D01*
X476185Y202549D01*
X475500Y200895D01*
Y199105D01*
X476185Y197451D01*
X477451Y196185D01*
X479105Y195500D01*
X480895D01*
X482549Y196185D01*
X483815Y197451D01*
X484500Y199105D01*
Y200895D01*
X483815Y202549D01*
X482549Y203815D01*
X480895Y204500D01*
D02*
G37*
G36*
X440895D02*
X439105D01*
X437451Y203815D01*
X436185Y202549D01*
X435500Y200895D01*
Y199105D01*
X436185Y197451D01*
X437451Y196185D01*
X439105Y195500D01*
X440895D01*
X442549Y196185D01*
X443815Y197451D01*
X444500Y199105D01*
Y200895D01*
X443815Y202549D01*
X442549Y203815D01*
X440895Y204500D01*
D02*
G37*
G36*
X280895D02*
X279105D01*
X277451Y203815D01*
X276185Y202549D01*
X275500Y200895D01*
Y199105D01*
X276185Y197451D01*
X277451Y196185D01*
X279105Y195500D01*
X280895D01*
X282549Y196185D01*
X283815Y197451D01*
X284500Y199105D01*
Y200895D01*
X283815Y202549D01*
X282549Y203815D01*
X280895Y204500D01*
D02*
G37*
G36*
X240895D02*
X239105D01*
X237451Y203815D01*
X236185Y202549D01*
X235500Y200895D01*
Y199105D01*
X236185Y197451D01*
X237451Y196185D01*
X239105Y195500D01*
X240895D01*
X242549Y196185D01*
X243815Y197451D01*
X244500Y199105D01*
Y200895D01*
X243815Y202549D01*
X242549Y203815D01*
X240895Y204500D01*
D02*
G37*
G36*
X200895D02*
X199105D01*
X197451Y203815D01*
X196185Y202549D01*
X195500Y200895D01*
Y199105D01*
X196185Y197451D01*
X197451Y196185D01*
X199105Y195500D01*
X200895D01*
X202549Y196185D01*
X203815Y197451D01*
X204500Y199105D01*
Y200895D01*
X203815Y202549D01*
X202549Y203815D01*
X200895Y204500D01*
D02*
G37*
G36*
X160895D02*
X159105D01*
X157451Y203815D01*
X156185Y202549D01*
X155500Y200895D01*
Y199105D01*
X156185Y197451D01*
X157451Y196185D01*
X159105Y195500D01*
X160895D01*
X162549Y196185D01*
X163815Y197451D01*
X164500Y199105D01*
Y200895D01*
X163815Y202549D01*
X162549Y203815D01*
X160895Y204500D01*
D02*
G37*
G36*
X120895D02*
X119105D01*
X117451Y203815D01*
X116185Y202549D01*
X115500Y200895D01*
Y199105D01*
X116185Y197451D01*
X117451Y196185D01*
X119105Y195500D01*
X120895D01*
X122549Y196185D01*
X123815Y197451D01*
X124500Y199105D01*
Y200895D01*
X123815Y202549D01*
X122549Y203815D01*
X120895Y204500D01*
D02*
G37*
G36*
X80895D02*
X79105D01*
X77451Y203815D01*
X76185Y202549D01*
X75500Y200895D01*
Y199105D01*
X76185Y197451D01*
X77451Y196185D01*
X79105Y195500D01*
X80895D01*
X82549Y196185D01*
X83815Y197451D01*
X84500Y199105D01*
Y200895D01*
X83815Y202549D01*
X82549Y203815D01*
X80895Y204500D01*
D02*
G37*
G36*
X40895D02*
X39105D01*
X37451Y203815D01*
X36185Y202549D01*
X35500Y200895D01*
Y199105D01*
X36185Y197451D01*
X37451Y196185D01*
X39105Y195500D01*
X40895D01*
X42549Y196185D01*
X43815Y197451D01*
X44500Y199105D01*
Y200895D01*
X43815Y202549D01*
X42549Y203815D01*
X40895Y204500D01*
D02*
G37*
G36*
X342724Y189650D02*
X340536D01*
X338515Y188813D01*
X336967Y187265D01*
X336130Y185244D01*
Y183056D01*
X336967Y181035D01*
X338515Y179487D01*
X340536Y178650D01*
X342724D01*
X344745Y179487D01*
X346293Y181035D01*
X347130Y183056D01*
Y185244D01*
X346293Y187265D01*
X344745Y188813D01*
X342724Y189650D01*
D02*
G37*
G36*
X1468748Y194655D02*
X1465753D01*
X1462859Y193880D01*
X1460266Y192382D01*
X1458148Y190264D01*
X1456650Y187671D01*
X1455875Y184778D01*
Y181782D01*
X1456650Y178889D01*
X1458148Y176296D01*
X1460266Y174178D01*
X1462859Y172680D01*
X1465753Y171905D01*
X1468748D01*
X1471641Y172680D01*
X1474234Y174178D01*
X1476352Y176296D01*
X1477850Y178889D01*
X1478625Y181782D01*
Y184778D01*
X1477850Y187671D01*
X1476352Y190264D01*
X1474234Y192382D01*
X1471641Y193880D01*
X1468748Y194655D01*
D02*
G37*
G36*
X1540895Y164500D02*
X1539105D01*
X1537451Y163815D01*
X1536185Y162549D01*
X1535500Y160895D01*
Y159105D01*
X1536185Y157451D01*
X1537451Y156185D01*
X1539105Y155500D01*
X1540895D01*
X1542549Y156185D01*
X1543815Y157451D01*
X1544500Y159105D01*
Y160895D01*
X1543815Y162549D01*
X1542549Y163815D01*
X1540895Y164500D01*
D02*
G37*
G36*
X900895D02*
X899105D01*
X897451Y163815D01*
X896185Y162549D01*
X895500Y160895D01*
Y159105D01*
X896185Y157451D01*
X897451Y156185D01*
X899105Y155500D01*
X900895D01*
X902549Y156185D01*
X903815Y157451D01*
X904500Y159105D01*
Y160895D01*
X903815Y162549D01*
X902549Y163815D01*
X900895Y164500D01*
D02*
G37*
G36*
X860895D02*
X859105D01*
X857451Y163815D01*
X856185Y162549D01*
X855500Y160895D01*
Y159105D01*
X856185Y157451D01*
X857451Y156185D01*
X859105Y155500D01*
X860895D01*
X862549Y156185D01*
X863815Y157451D01*
X864500Y159105D01*
Y160895D01*
X863815Y162549D01*
X862549Y163815D01*
X860895Y164500D01*
D02*
G37*
G36*
X820895D02*
X819105D01*
X817451Y163815D01*
X816185Y162549D01*
X815500Y160895D01*
Y159105D01*
X816185Y157451D01*
X817451Y156185D01*
X819105Y155500D01*
X820895D01*
X822549Y156185D01*
X823815Y157451D01*
X824500Y159105D01*
Y160895D01*
X823815Y162549D01*
X822549Y163815D01*
X820895Y164500D01*
D02*
G37*
G36*
X780895D02*
X779105D01*
X777451Y163815D01*
X776185Y162549D01*
X775500Y160895D01*
Y159105D01*
X776185Y157451D01*
X777451Y156185D01*
X779105Y155500D01*
X780895D01*
X782549Y156185D01*
X783815Y157451D01*
X784500Y159105D01*
Y160895D01*
X783815Y162549D01*
X782549Y163815D01*
X780895Y164500D01*
D02*
G37*
G36*
X740895D02*
X739105D01*
X737451Y163815D01*
X736185Y162549D01*
X735500Y160895D01*
Y159105D01*
X736185Y157451D01*
X737451Y156185D01*
X739105Y155500D01*
X740895D01*
X742549Y156185D01*
X743815Y157451D01*
X744500Y159105D01*
Y160895D01*
X743815Y162549D01*
X742549Y163815D01*
X740895Y164500D01*
D02*
G37*
G36*
X700895D02*
X699105D01*
X697451Y163815D01*
X696185Y162549D01*
X695500Y160895D01*
Y159105D01*
X696185Y157451D01*
X697451Y156185D01*
X699105Y155500D01*
X700895D01*
X702549Y156185D01*
X703815Y157451D01*
X704500Y159105D01*
Y160895D01*
X703815Y162549D01*
X702549Y163815D01*
X700895Y164500D01*
D02*
G37*
G36*
X660895D02*
X659105D01*
X657451Y163815D01*
X656185Y162549D01*
X655500Y160895D01*
Y159105D01*
X656185Y157451D01*
X657451Y156185D01*
X659105Y155500D01*
X660895D01*
X662549Y156185D01*
X663815Y157451D01*
X664500Y159105D01*
Y160895D01*
X663815Y162549D01*
X662549Y163815D01*
X660895Y164500D01*
D02*
G37*
G36*
X620895D02*
X619105D01*
X617451Y163815D01*
X616185Y162549D01*
X615500Y160895D01*
Y159105D01*
X616185Y157451D01*
X617451Y156185D01*
X619105Y155500D01*
X620895D01*
X622549Y156185D01*
X623815Y157451D01*
X624500Y159105D01*
Y160895D01*
X623815Y162549D01*
X622549Y163815D01*
X620895Y164500D01*
D02*
G37*
G36*
X580895D02*
X579105D01*
X577451Y163815D01*
X576185Y162549D01*
X575500Y160895D01*
Y159105D01*
X576185Y157451D01*
X577451Y156185D01*
X579105Y155500D01*
X580895D01*
X582549Y156185D01*
X583815Y157451D01*
X584500Y159105D01*
Y160895D01*
X583815Y162549D01*
X582549Y163815D01*
X580895Y164500D01*
D02*
G37*
G36*
X540895D02*
X539105D01*
X537451Y163815D01*
X536185Y162549D01*
X535500Y160895D01*
Y159105D01*
X536185Y157451D01*
X537451Y156185D01*
X539105Y155500D01*
X540895D01*
X542549Y156185D01*
X543815Y157451D01*
X544500Y159105D01*
Y160895D01*
X543815Y162549D01*
X542549Y163815D01*
X540895Y164500D01*
D02*
G37*
G36*
X500895D02*
X499105D01*
X497451Y163815D01*
X496185Y162549D01*
X495500Y160895D01*
Y159105D01*
X496185Y157451D01*
X497451Y156185D01*
X499105Y155500D01*
X500895D01*
X502549Y156185D01*
X503815Y157451D01*
X504500Y159105D01*
Y160895D01*
X503815Y162549D01*
X502549Y163815D01*
X500895Y164500D01*
D02*
G37*
G36*
X420895D02*
X419105D01*
X417451Y163815D01*
X416185Y162549D01*
X415500Y160895D01*
Y159105D01*
X416185Y157451D01*
X417451Y156185D01*
X419105Y155500D01*
X420895D01*
X422549Y156185D01*
X423815Y157451D01*
X424500Y159105D01*
Y160895D01*
X423815Y162549D01*
X422549Y163815D01*
X420895Y164500D01*
D02*
G37*
G36*
X380895D02*
X379105D01*
X377451Y163815D01*
X376185Y162549D01*
X375500Y160895D01*
Y159105D01*
X376185Y157451D01*
X377451Y156185D01*
X379105Y155500D01*
X380895D01*
X382549Y156185D01*
X383815Y157451D01*
X384500Y159105D01*
Y160895D01*
X383815Y162549D01*
X382549Y163815D01*
X380895Y164500D01*
D02*
G37*
G36*
X343994Y175680D02*
X341806D01*
X339785Y174843D01*
X338237Y173295D01*
X337400Y171274D01*
Y169086D01*
X338237Y167064D01*
X339532Y165770D01*
X339200Y164592D01*
X339142Y164500D01*
X339105D01*
X337451Y163815D01*
X336185Y162549D01*
X335500Y160895D01*
Y159105D01*
X336185Y157451D01*
X337451Y156185D01*
X339105Y155500D01*
X340895D01*
X342549Y156185D01*
X343815Y157451D01*
X344500Y159105D01*
Y160895D01*
X343815Y162549D01*
X342954Y163410D01*
X343480Y164680D01*
X343994D01*
X346016Y165517D01*
X347563Y167064D01*
X348400Y169086D01*
Y171274D01*
X347563Y173295D01*
X346016Y174843D01*
X343994Y175680D01*
D02*
G37*
G36*
X300895Y164500D02*
X299105D01*
X297451Y163815D01*
X296185Y162549D01*
X295500Y160895D01*
Y159105D01*
X296185Y157451D01*
X297451Y156185D01*
X299105Y155500D01*
X300895D01*
X302549Y156185D01*
X303815Y157451D01*
X304500Y159105D01*
Y160895D01*
X303815Y162549D01*
X302549Y163815D01*
X300895Y164500D01*
D02*
G37*
G36*
X260895D02*
X259105D01*
X257451Y163815D01*
X256185Y162549D01*
X255500Y160895D01*
Y159105D01*
X256185Y157451D01*
X257451Y156185D01*
X259105Y155500D01*
X260895D01*
X262549Y156185D01*
X263815Y157451D01*
X264500Y159105D01*
Y160895D01*
X263815Y162549D01*
X262549Y163815D01*
X260895Y164500D01*
D02*
G37*
G36*
X220895D02*
X219105D01*
X217451Y163815D01*
X216185Y162549D01*
X215500Y160895D01*
Y159105D01*
X216185Y157451D01*
X217451Y156185D01*
X219105Y155500D01*
X220895D01*
X222549Y156185D01*
X223815Y157451D01*
X224500Y159105D01*
Y160895D01*
X223815Y162549D01*
X222549Y163815D01*
X220895Y164500D01*
D02*
G37*
G36*
X180895D02*
X179105D01*
X177451Y163815D01*
X176185Y162549D01*
X175500Y160895D01*
Y159105D01*
X176185Y157451D01*
X177451Y156185D01*
X179105Y155500D01*
X180895D01*
X182549Y156185D01*
X183815Y157451D01*
X184500Y159105D01*
Y160895D01*
X183815Y162549D01*
X182549Y163815D01*
X180895Y164500D01*
D02*
G37*
G36*
X140895D02*
X139105D01*
X137451Y163815D01*
X136185Y162549D01*
X135500Y160895D01*
Y159105D01*
X136185Y157451D01*
X137451Y156185D01*
X139105Y155500D01*
X140895D01*
X142549Y156185D01*
X143815Y157451D01*
X144500Y159105D01*
Y160895D01*
X143815Y162549D01*
X142549Y163815D01*
X140895Y164500D01*
D02*
G37*
G36*
X100895D02*
X99105D01*
X97451Y163815D01*
X96185Y162549D01*
X95500Y160895D01*
Y159105D01*
X96185Y157451D01*
X97451Y156185D01*
X99105Y155500D01*
X100895D01*
X102549Y156185D01*
X103815Y157451D01*
X104500Y159105D01*
Y160895D01*
X103815Y162549D01*
X102549Y163815D01*
X100895Y164500D01*
D02*
G37*
G36*
X60895D02*
X59105D01*
X57451Y163815D01*
X56185Y162549D01*
X55500Y160895D01*
Y159105D01*
X56185Y157451D01*
X57451Y156185D01*
X59105Y155500D01*
X60895D01*
X62549Y156185D01*
X63815Y157451D01*
X64500Y159105D01*
Y160895D01*
X63815Y162549D01*
X62549Y163815D01*
X60895Y164500D01*
D02*
G37*
G36*
X1493748Y169655D02*
X1490753D01*
X1487859Y168880D01*
X1485266Y167382D01*
X1483148Y165264D01*
X1481650Y162671D01*
X1480875Y159777D01*
Y156783D01*
X1481650Y153889D01*
X1483148Y151296D01*
X1485266Y149178D01*
X1487859Y147680D01*
X1490753Y146905D01*
X1493748D01*
X1496641Y147680D01*
X1499234Y149178D01*
X1501352Y151296D01*
X1502850Y153889D01*
X1503625Y156783D01*
Y159777D01*
X1502850Y162671D01*
X1501352Y165264D01*
X1499234Y167382D01*
X1496641Y168880D01*
X1493748Y169655D01*
D02*
G37*
G36*
X1468748D02*
X1465753D01*
X1462859Y168880D01*
X1460266Y167382D01*
X1458148Y165264D01*
X1456650Y162671D01*
X1455875Y159777D01*
Y156783D01*
X1456650Y153889D01*
X1458148Y151296D01*
X1460266Y149178D01*
X1462859Y147680D01*
X1465753Y146905D01*
X1468748D01*
X1471641Y147680D01*
X1474234Y149178D01*
X1476352Y151296D01*
X1477850Y153889D01*
X1478625Y156783D01*
Y159777D01*
X1477850Y162671D01*
X1476352Y165264D01*
X1474234Y167382D01*
X1471641Y168880D01*
X1468748Y169655D01*
D02*
G37*
G36*
X1336935Y140390D02*
X1335145D01*
X1333491Y139705D01*
X1332225Y138439D01*
X1331540Y136785D01*
Y134995D01*
X1332225Y133341D01*
X1333491Y132075D01*
X1335145Y131390D01*
X1336935D01*
X1338589Y132075D01*
X1339855Y133341D01*
X1340540Y134995D01*
Y136785D01*
X1339855Y138439D01*
X1338589Y139705D01*
X1336935Y140390D01*
D02*
G37*
G36*
X1493748Y144655D02*
X1490753D01*
X1487859Y143880D01*
X1485266Y142382D01*
X1483148Y140264D01*
X1481650Y137671D01*
X1480875Y134777D01*
Y131783D01*
X1481650Y128889D01*
X1483148Y126296D01*
X1485266Y124178D01*
X1487859Y122680D01*
X1490753Y121905D01*
X1493748D01*
X1496641Y122680D01*
X1499234Y124178D01*
X1501352Y126296D01*
X1502850Y128889D01*
X1503625Y131783D01*
Y134777D01*
X1502850Y137671D01*
X1501352Y140264D01*
X1499234Y142382D01*
X1496641Y143880D01*
X1493748Y144655D01*
D02*
G37*
G36*
X1468748D02*
X1465753D01*
X1462859Y143880D01*
X1460266Y142382D01*
X1458148Y140264D01*
X1456650Y137671D01*
X1455875Y134777D01*
Y131783D01*
X1456650Y128889D01*
X1458148Y126296D01*
X1460266Y124178D01*
X1462859Y122680D01*
X1465753Y121905D01*
X1468748D01*
X1471641Y122680D01*
X1474234Y124178D01*
X1476352Y126296D01*
X1477850Y128889D01*
X1478625Y131783D01*
Y134777D01*
X1477850Y137671D01*
X1476352Y140264D01*
X1474234Y142382D01*
X1471641Y143880D01*
X1468748Y144655D01*
D02*
G37*
G36*
X1520895Y124500D02*
X1519105D01*
X1517451Y123815D01*
X1516185Y122549D01*
X1515500Y120895D01*
Y119105D01*
X1516185Y117451D01*
X1517451Y116185D01*
X1519105Y115500D01*
X1520895D01*
X1522549Y116185D01*
X1523815Y117451D01*
X1524500Y119105D01*
Y120895D01*
X1523815Y122549D01*
X1522549Y123815D01*
X1520895Y124500D01*
D02*
G37*
G36*
X1280895D02*
X1279105D01*
X1277451Y123815D01*
X1276185Y122549D01*
X1275500Y120895D01*
Y119105D01*
X1276185Y117451D01*
X1277451Y116185D01*
X1279105Y115500D01*
X1280895D01*
X1282549Y116185D01*
X1283815Y117451D01*
X1284500Y119105D01*
Y120895D01*
X1283815Y122549D01*
X1282549Y123815D01*
X1280895Y124500D01*
D02*
G37*
G36*
X1240895D02*
X1239105D01*
X1237451Y123815D01*
X1236185Y122549D01*
X1235500Y120895D01*
Y119105D01*
X1236185Y117451D01*
X1237451Y116185D01*
X1239105Y115500D01*
X1240895D01*
X1242549Y116185D01*
X1243815Y117451D01*
X1244500Y119105D01*
Y120895D01*
X1243815Y122549D01*
X1242549Y123815D01*
X1240895Y124500D01*
D02*
G37*
G36*
X1160895D02*
X1159105D01*
X1157451Y123815D01*
X1156185Y122549D01*
X1155500Y120895D01*
Y119105D01*
X1156185Y117451D01*
X1157451Y116185D01*
X1159105Y115500D01*
X1160895D01*
X1162549Y116185D01*
X1163815Y117451D01*
X1164500Y119105D01*
Y120895D01*
X1163815Y122549D01*
X1162549Y123815D01*
X1160895Y124500D01*
D02*
G37*
G36*
X1080895D02*
X1079105D01*
X1077451Y123815D01*
X1076185Y122549D01*
X1075500Y120895D01*
Y119105D01*
X1076185Y117451D01*
X1077451Y116185D01*
X1079105Y115500D01*
X1080895D01*
X1082549Y116185D01*
X1083815Y117451D01*
X1084500Y119105D01*
Y120895D01*
X1083815Y122549D01*
X1082549Y123815D01*
X1080895Y124500D01*
D02*
G37*
G36*
X1040895D02*
X1039105D01*
X1037451Y123815D01*
X1036185Y122549D01*
X1035500Y120895D01*
Y119105D01*
X1036185Y117451D01*
X1037451Y116185D01*
X1039105Y115500D01*
X1040895D01*
X1042549Y116185D01*
X1043815Y117451D01*
X1044500Y119105D01*
Y120895D01*
X1043815Y122549D01*
X1042549Y123815D01*
X1040895Y124500D01*
D02*
G37*
G36*
X960895D02*
X959105D01*
X957451Y123815D01*
X956185Y122549D01*
X955500Y120895D01*
Y119105D01*
X956185Y117451D01*
X957451Y116185D01*
X959105Y115500D01*
X960895D01*
X962549Y116185D01*
X963815Y117451D01*
X964500Y119105D01*
Y120895D01*
X963815Y122549D01*
X962549Y123815D01*
X960895Y124500D01*
D02*
G37*
G36*
X400895D02*
X399105D01*
X397451Y123815D01*
X396185Y122549D01*
X395500Y120895D01*
Y119105D01*
X396185Y117451D01*
X397451Y116185D01*
X399105Y115500D01*
X400895D01*
X402549Y116185D01*
X403815Y117451D01*
X404500Y119105D01*
Y120895D01*
X403815Y122549D01*
X402549Y123815D01*
X400895Y124500D01*
D02*
G37*
G36*
X360895D02*
X359105D01*
X357451Y123815D01*
X356185Y122549D01*
X355500Y120895D01*
Y119105D01*
X356185Y117451D01*
X357451Y116185D01*
X359105Y115500D01*
X360895D01*
X362549Y116185D01*
X363815Y117451D01*
X364500Y119105D01*
Y120895D01*
X363815Y122549D01*
X362549Y123815D01*
X360895Y124500D01*
D02*
G37*
G36*
X320895D02*
X319105D01*
X317451Y123815D01*
X316185Y122549D01*
X315500Y120895D01*
Y119105D01*
X316185Y117451D01*
X317451Y116185D01*
X319105Y115500D01*
X320895D01*
X322549Y116185D01*
X323815Y117451D01*
X324500Y119105D01*
Y120895D01*
X323815Y122549D01*
X322549Y123815D01*
X320895Y124500D01*
D02*
G37*
G36*
X280895D02*
X279105D01*
X277451Y123815D01*
X276185Y122549D01*
X275500Y120895D01*
Y119105D01*
X276185Y117451D01*
X277451Y116185D01*
X279105Y115500D01*
X280895D01*
X282549Y116185D01*
X283815Y117451D01*
X284500Y119105D01*
Y120895D01*
X283815Y122549D01*
X282549Y123815D01*
X280895Y124500D01*
D02*
G37*
G36*
X240895D02*
X239105D01*
X237451Y123815D01*
X236185Y122549D01*
X235500Y120895D01*
Y119105D01*
X236185Y117451D01*
X237451Y116185D01*
X239105Y115500D01*
X240895D01*
X242549Y116185D01*
X243815Y117451D01*
X244500Y119105D01*
Y120895D01*
X243815Y122549D01*
X242549Y123815D01*
X240895Y124500D01*
D02*
G37*
G36*
X200895D02*
X199105D01*
X197451Y123815D01*
X196185Y122549D01*
X195500Y120895D01*
Y119105D01*
X196185Y117451D01*
X197451Y116185D01*
X199105Y115500D01*
X200895D01*
X202549Y116185D01*
X203815Y117451D01*
X204500Y119105D01*
Y120895D01*
X203815Y122549D01*
X202549Y123815D01*
X200895Y124500D01*
D02*
G37*
G36*
X160895D02*
X159105D01*
X157451Y123815D01*
X156185Y122549D01*
X155500Y120895D01*
Y119105D01*
X156185Y117451D01*
X157451Y116185D01*
X159105Y115500D01*
X160895D01*
X162549Y116185D01*
X163815Y117451D01*
X164500Y119105D01*
Y120895D01*
X163815Y122549D01*
X162549Y123815D01*
X160895Y124500D01*
D02*
G37*
G36*
X120895D02*
X119105D01*
X117451Y123815D01*
X116185Y122549D01*
X115500Y120895D01*
Y119105D01*
X116185Y117451D01*
X117451Y116185D01*
X119105Y115500D01*
X120895D01*
X122549Y116185D01*
X123815Y117451D01*
X124500Y119105D01*
Y120895D01*
X123815Y122549D01*
X122549Y123815D01*
X120895Y124500D01*
D02*
G37*
G36*
X80895D02*
X79105D01*
X77451Y123815D01*
X76185Y122549D01*
X75500Y120895D01*
Y119105D01*
X76185Y117451D01*
X77451Y116185D01*
X79105Y115500D01*
X80895D01*
X82549Y116185D01*
X83815Y117451D01*
X84500Y119105D01*
Y120895D01*
X83815Y122549D01*
X82549Y123815D01*
X80895Y124500D01*
D02*
G37*
G36*
X40895D02*
X39105D01*
X37451Y123815D01*
X36185Y122549D01*
X35500Y120895D01*
Y119105D01*
X36185Y117451D01*
X37451Y116185D01*
X39105Y115500D01*
X40895D01*
X42549Y116185D01*
X43815Y117451D01*
X44500Y119105D01*
Y120895D01*
X43815Y122549D01*
X42549Y123815D01*
X40895Y124500D01*
D02*
G37*
G36*
X1189173Y102900D02*
X1187067D01*
X1185032Y102355D01*
X1183208Y101302D01*
X1181718Y99812D01*
X1180665Y97988D01*
X1180120Y95953D01*
Y93847D01*
X1180253Y93350D01*
X1179216Y92313D01*
X1177117Y92875D01*
X1174122D01*
X1171229Y92100D01*
X1168636Y90602D01*
X1166518Y88484D01*
X1165020Y85891D01*
X1164245Y82998D01*
Y80002D01*
X1165020Y77109D01*
X1166518Y74516D01*
X1168636Y72398D01*
X1171229Y70900D01*
X1174122Y70125D01*
X1177117D01*
X1180011Y70900D01*
X1182604Y72398D01*
X1184722Y74516D01*
X1186220Y77109D01*
X1186995Y80002D01*
Y82998D01*
X1186242Y85806D01*
X1186582Y86408D01*
X1186978Y86924D01*
X1187067Y86900D01*
X1189173D01*
X1189262Y86924D01*
X1189658Y86408D01*
X1189998Y85806D01*
X1189245Y82998D01*
Y80002D01*
X1190020Y77109D01*
X1191518Y74516D01*
X1193636Y72398D01*
X1196229Y70900D01*
X1199122Y70125D01*
X1202117D01*
X1205011Y70900D01*
X1207604Y72398D01*
X1209722Y74516D01*
X1211220Y77109D01*
X1211995Y80002D01*
Y82998D01*
X1211220Y85891D01*
X1209722Y88484D01*
X1207604Y90602D01*
X1205011Y92100D01*
X1202117Y92875D01*
X1199122D01*
X1197024Y92313D01*
X1195987Y93350D01*
X1196120Y93847D01*
Y95953D01*
X1195575Y97988D01*
X1194522Y99812D01*
X1193032Y101302D01*
X1191208Y102355D01*
X1189173Y102900D01*
D02*
G37*
G36*
X825530Y99480D02*
X823342D01*
X821321Y98643D01*
X819774Y97095D01*
X818936Y95074D01*
Y92886D01*
X819774Y90864D01*
X821321Y89317D01*
X823342Y88480D01*
X825530D01*
X827552Y89317D01*
X829099Y90864D01*
X829936Y92886D01*
Y95074D01*
X829099Y97095D01*
X827552Y98643D01*
X825530Y99480D01*
D02*
G37*
G36*
X1540895Y84500D02*
X1539105D01*
X1537451Y83815D01*
X1536185Y82549D01*
X1535500Y80895D01*
Y79105D01*
X1536185Y77451D01*
X1537451Y76185D01*
X1539105Y75500D01*
X1540895D01*
X1542549Y76185D01*
X1543815Y77451D01*
X1544500Y79105D01*
Y80895D01*
X1543815Y82549D01*
X1542549Y83815D01*
X1540895Y84500D01*
D02*
G37*
G36*
X1460895D02*
X1459105D01*
X1457451Y83815D01*
X1456185Y82549D01*
X1455500Y80895D01*
Y79105D01*
X1456185Y77451D01*
X1457451Y76185D01*
X1459105Y75500D01*
X1460895D01*
X1462549Y76185D01*
X1463815Y77451D01*
X1464500Y79105D01*
Y80895D01*
X1463815Y82549D01*
X1462549Y83815D01*
X1460895Y84500D01*
D02*
G37*
G36*
X1420895D02*
X1419105D01*
X1417451Y83815D01*
X1416185Y82549D01*
X1415500Y80895D01*
Y79105D01*
X1416185Y77451D01*
X1417451Y76185D01*
X1419105Y75500D01*
X1420895D01*
X1422549Y76185D01*
X1423815Y77451D01*
X1424500Y79105D01*
Y80895D01*
X1423815Y82549D01*
X1422549Y83815D01*
X1420895Y84500D01*
D02*
G37*
G36*
X1380895D02*
X1379105D01*
X1377451Y83815D01*
X1376185Y82549D01*
X1375500Y80895D01*
Y79105D01*
X1376185Y77451D01*
X1377451Y76185D01*
X1379105Y75500D01*
X1380895D01*
X1382549Y76185D01*
X1383815Y77451D01*
X1384500Y79105D01*
Y80895D01*
X1383815Y82549D01*
X1382549Y83815D01*
X1380895Y84500D01*
D02*
G37*
G36*
X1340895D02*
X1339105D01*
X1337451Y83815D01*
X1336185Y82549D01*
X1335500Y80895D01*
Y79105D01*
X1336185Y77451D01*
X1337451Y76185D01*
X1339105Y75500D01*
X1340895D01*
X1342549Y76185D01*
X1343815Y77451D01*
X1344500Y79105D01*
Y80895D01*
X1343815Y82549D01*
X1342549Y83815D01*
X1340895Y84500D01*
D02*
G37*
G36*
X1100895D02*
X1099105D01*
X1097451Y83815D01*
X1096185Y82549D01*
X1095500Y80895D01*
Y79105D01*
X1096185Y77451D01*
X1097451Y76185D01*
X1099105Y75500D01*
X1100895D01*
X1102549Y76185D01*
X1103815Y77451D01*
X1104500Y79105D01*
Y80895D01*
X1103815Y82549D01*
X1102549Y83815D01*
X1100895Y84500D01*
D02*
G37*
G36*
X1060895D02*
X1059105D01*
X1057451Y83815D01*
X1056185Y82549D01*
X1055500Y80895D01*
Y79105D01*
X1056185Y77451D01*
X1057451Y76185D01*
X1059105Y75500D01*
X1060895D01*
X1062549Y76185D01*
X1063815Y77451D01*
X1064500Y79105D01*
Y80895D01*
X1063815Y82549D01*
X1062549Y83815D01*
X1060895Y84500D01*
D02*
G37*
G36*
X1020895D02*
X1019105D01*
X1017451Y83815D01*
X1016185Y82549D01*
X1015500Y80895D01*
Y79105D01*
X1016185Y77451D01*
X1017451Y76185D01*
X1019105Y75500D01*
X1020895D01*
X1022549Y76185D01*
X1023815Y77451D01*
X1024500Y79105D01*
Y80895D01*
X1023815Y82549D01*
X1022549Y83815D01*
X1020895Y84500D01*
D02*
G37*
G36*
X980895D02*
X979105D01*
X977451Y83815D01*
X976185Y82549D01*
X975500Y80895D01*
Y79105D01*
X976185Y77451D01*
X977451Y76185D01*
X979105Y75500D01*
X980895D01*
X982549Y76185D01*
X983815Y77451D01*
X984500Y79105D01*
Y80895D01*
X983815Y82549D01*
X982549Y83815D01*
X980895Y84500D01*
D02*
G37*
G36*
X940895D02*
X939105D01*
X937451Y83815D01*
X936185Y82549D01*
X935500Y80895D01*
Y79105D01*
X936185Y77451D01*
X937451Y76185D01*
X939105Y75500D01*
X940895D01*
X942549Y76185D01*
X943815Y77451D01*
X944500Y79105D01*
Y80895D01*
X943815Y82549D01*
X942549Y83815D01*
X940895Y84500D01*
D02*
G37*
G36*
X900895D02*
X899105D01*
X897451Y83815D01*
X896185Y82549D01*
X895500Y80895D01*
Y79105D01*
X896185Y77451D01*
X897451Y76185D01*
X899105Y75500D01*
X900895D01*
X902549Y76185D01*
X903815Y77451D01*
X904500Y79105D01*
Y80895D01*
X903815Y82549D01*
X902549Y83815D01*
X900895Y84500D01*
D02*
G37*
G36*
X860895D02*
X859105D01*
X857451Y83815D01*
X856185Y82549D01*
X855500Y80895D01*
Y79105D01*
X856185Y77451D01*
X857451Y76185D01*
X859105Y75500D01*
X860895D01*
X862549Y76185D01*
X863815Y77451D01*
X864500Y79105D01*
Y80895D01*
X863815Y82549D01*
X862549Y83815D01*
X860895Y84500D01*
D02*
G37*
G36*
X740895D02*
X739105D01*
X737451Y83815D01*
X736185Y82549D01*
X735500Y80895D01*
Y79105D01*
X736185Y77451D01*
X737451Y76185D01*
X739105Y75500D01*
X740895D01*
X742549Y76185D01*
X743815Y77451D01*
X744500Y79105D01*
Y80895D01*
X743815Y82549D01*
X742549Y83815D01*
X740895Y84500D01*
D02*
G37*
G36*
X700895D02*
X699105D01*
X697451Y83815D01*
X696185Y82549D01*
X695500Y80895D01*
Y79105D01*
X696185Y77451D01*
X697451Y76185D01*
X699105Y75500D01*
X700895D01*
X702549Y76185D01*
X703815Y77451D01*
X704500Y79105D01*
Y80895D01*
X703815Y82549D01*
X702549Y83815D01*
X700895Y84500D01*
D02*
G37*
G36*
X660895D02*
X659105D01*
X657451Y83815D01*
X656185Y82549D01*
X655500Y80895D01*
Y79105D01*
X656185Y77451D01*
X657451Y76185D01*
X659105Y75500D01*
X660895D01*
X662549Y76185D01*
X663815Y77451D01*
X664500Y79105D01*
Y80895D01*
X663815Y82549D01*
X662549Y83815D01*
X660895Y84500D01*
D02*
G37*
G36*
X620895D02*
X619105D01*
X617451Y83815D01*
X616185Y82549D01*
X615500Y80895D01*
Y79105D01*
X616185Y77451D01*
X617451Y76185D01*
X619105Y75500D01*
X620895D01*
X622549Y76185D01*
X623815Y77451D01*
X624500Y79105D01*
Y80895D01*
X623815Y82549D01*
X622549Y83815D01*
X620895Y84500D01*
D02*
G37*
G36*
X580895D02*
X579105D01*
X577451Y83815D01*
X576185Y82549D01*
X575500Y80895D01*
Y79105D01*
X576185Y77451D01*
X577451Y76185D01*
X579105Y75500D01*
X580895D01*
X582549Y76185D01*
X583815Y77451D01*
X584500Y79105D01*
Y80895D01*
X583815Y82549D01*
X582549Y83815D01*
X580895Y84500D01*
D02*
G37*
G36*
X540895D02*
X539105D01*
X537451Y83815D01*
X536185Y82549D01*
X535500Y80895D01*
Y79105D01*
X536185Y77451D01*
X537451Y76185D01*
X539105Y75500D01*
X540895D01*
X542549Y76185D01*
X543815Y77451D01*
X544500Y79105D01*
Y80895D01*
X543815Y82549D01*
X542549Y83815D01*
X540895Y84500D01*
D02*
G37*
G36*
X500895D02*
X499105D01*
X497451Y83815D01*
X496185Y82549D01*
X495500Y80895D01*
Y79105D01*
X496185Y77451D01*
X497451Y76185D01*
X499105Y75500D01*
X500895D01*
X502549Y76185D01*
X503815Y77451D01*
X504500Y79105D01*
Y80895D01*
X503815Y82549D01*
X502549Y83815D01*
X500895Y84500D01*
D02*
G37*
G36*
X460895D02*
X459105D01*
X457451Y83815D01*
X456185Y82549D01*
X455500Y80895D01*
Y79105D01*
X456185Y77451D01*
X457451Y76185D01*
X459105Y75500D01*
X460895D01*
X462549Y76185D01*
X463815Y77451D01*
X464500Y79105D01*
Y80895D01*
X463815Y82549D01*
X462549Y83815D01*
X460895Y84500D01*
D02*
G37*
G36*
X420895D02*
X419105D01*
X417451Y83815D01*
X416185Y82549D01*
X415500Y80895D01*
Y79105D01*
X416185Y77451D01*
X417451Y76185D01*
X419105Y75500D01*
X420895D01*
X422549Y76185D01*
X423815Y77451D01*
X424500Y79105D01*
Y80895D01*
X423815Y82549D01*
X422549Y83815D01*
X420895Y84500D01*
D02*
G37*
G36*
X380895D02*
X379105D01*
X377451Y83815D01*
X376185Y82549D01*
X375500Y80895D01*
Y79105D01*
X376185Y77451D01*
X377451Y76185D01*
X379105Y75500D01*
X380895D01*
X382549Y76185D01*
X383815Y77451D01*
X384500Y79105D01*
Y80895D01*
X383815Y82549D01*
X382549Y83815D01*
X380895Y84500D01*
D02*
G37*
G36*
X340895D02*
X339105D01*
X337451Y83815D01*
X336185Y82549D01*
X335500Y80895D01*
Y79105D01*
X336185Y77451D01*
X337451Y76185D01*
X339105Y75500D01*
X340895D01*
X342549Y76185D01*
X343815Y77451D01*
X344500Y79105D01*
Y80895D01*
X343815Y82549D01*
X342549Y83815D01*
X340895Y84500D01*
D02*
G37*
G36*
X300895D02*
X299105D01*
X297451Y83815D01*
X296185Y82549D01*
X295500Y80895D01*
Y79105D01*
X296185Y77451D01*
X297451Y76185D01*
X299105Y75500D01*
X300895D01*
X302549Y76185D01*
X303815Y77451D01*
X304500Y79105D01*
Y80895D01*
X303815Y82549D01*
X302549Y83815D01*
X300895Y84500D01*
D02*
G37*
G36*
X260895D02*
X259105D01*
X257451Y83815D01*
X256185Y82549D01*
X255500Y80895D01*
Y79105D01*
X256185Y77451D01*
X257451Y76185D01*
X259105Y75500D01*
X260895D01*
X262549Y76185D01*
X263815Y77451D01*
X264500Y79105D01*
Y80895D01*
X263815Y82549D01*
X262549Y83815D01*
X260895Y84500D01*
D02*
G37*
G36*
X140895D02*
X139105D01*
X137451Y83815D01*
X136185Y82549D01*
X135500Y80895D01*
Y79105D01*
X136185Y77451D01*
X137451Y76185D01*
X139105Y75500D01*
X140895D01*
X142549Y76185D01*
X143815Y77451D01*
X144500Y79105D01*
Y80895D01*
X143815Y82549D01*
X142549Y83815D01*
X140895Y84500D01*
D02*
G37*
G36*
X100895D02*
X99105D01*
X97451Y83815D01*
X96185Y82549D01*
X95500Y80895D01*
Y79105D01*
X96185Y77451D01*
X97451Y76185D01*
X99105Y75500D01*
X100895D01*
X102549Y76185D01*
X103815Y77451D01*
X104500Y79105D01*
Y80895D01*
X103815Y82549D01*
X102549Y83815D01*
X100895Y84500D01*
D02*
G37*
G36*
X1252117Y92875D02*
X1249122D01*
X1246229Y92100D01*
X1243636Y90602D01*
X1241518Y88484D01*
X1240020Y85891D01*
X1239245Y82998D01*
Y80002D01*
X1240020Y77109D01*
X1241518Y74516D01*
X1243636Y72398D01*
X1246229Y70900D01*
X1249122Y70125D01*
X1252117D01*
X1255011Y70900D01*
X1257604Y72398D01*
X1259722Y74516D01*
X1261220Y77109D01*
X1261995Y80002D01*
Y82998D01*
X1261220Y85891D01*
X1259722Y88484D01*
X1257604Y90602D01*
X1255011Y92100D01*
X1252117Y92875D01*
D02*
G37*
G36*
X1227117D02*
X1224122D01*
X1221229Y92100D01*
X1218636Y90602D01*
X1216518Y88484D01*
X1215020Y85891D01*
X1214245Y82998D01*
Y80002D01*
X1215020Y77109D01*
X1216518Y74516D01*
X1218636Y72398D01*
X1221229Y70900D01*
X1224122Y70125D01*
X1227117D01*
X1230011Y70900D01*
X1232604Y72398D01*
X1234722Y74516D01*
X1236220Y77109D01*
X1236995Y80002D01*
Y82998D01*
X1236220Y85891D01*
X1234722Y88484D01*
X1232604Y90602D01*
X1230011Y92100D01*
X1227117Y92875D01*
D02*
G37*
G36*
X1152117D02*
X1149122D01*
X1146229Y92100D01*
X1143636Y90602D01*
X1141518Y88484D01*
X1140020Y85891D01*
X1139245Y82998D01*
Y80002D01*
X1140020Y77109D01*
X1141518Y74516D01*
X1143636Y72398D01*
X1146229Y70900D01*
X1149122Y70125D01*
X1152117D01*
X1155011Y70900D01*
X1157604Y72398D01*
X1159722Y74516D01*
X1161220Y77109D01*
X1161995Y80002D01*
Y82998D01*
X1161220Y85891D01*
X1159722Y88484D01*
X1157604Y90602D01*
X1155011Y92100D01*
X1152117Y92875D01*
D02*
G37*
G36*
X1127117D02*
X1124122D01*
X1121229Y92100D01*
X1118636Y90602D01*
X1116518Y88484D01*
X1115020Y85891D01*
X1114245Y82998D01*
Y80002D01*
X1115020Y77109D01*
X1116518Y74516D01*
X1118636Y72398D01*
X1121229Y70900D01*
X1124122Y70125D01*
X1127117D01*
X1130011Y70900D01*
X1132604Y72398D01*
X1134722Y74516D01*
X1136220Y77109D01*
X1136995Y80002D01*
Y82998D01*
X1136220Y85891D01*
X1134722Y88484D01*
X1132604Y90602D01*
X1130011Y92100D01*
X1127117Y92875D01*
D02*
G37*
G36*
X1252117Y67875D02*
X1249122D01*
X1246229Y67100D01*
X1243636Y65602D01*
X1241518Y63484D01*
X1240020Y60891D01*
X1239245Y57997D01*
Y55002D01*
X1240020Y52109D01*
X1241518Y49516D01*
X1243636Y47398D01*
X1246229Y45900D01*
X1249122Y45125D01*
X1252117D01*
X1255011Y45900D01*
X1257604Y47398D01*
X1259722Y49516D01*
X1261220Y52109D01*
X1261995Y55002D01*
Y57997D01*
X1261220Y60891D01*
X1259722Y63484D01*
X1257604Y65602D01*
X1255011Y67100D01*
X1252117Y67875D01*
D02*
G37*
G36*
X1227117D02*
X1224122D01*
X1221229Y67100D01*
X1218636Y65602D01*
X1216518Y63484D01*
X1215020Y60891D01*
X1214245Y57997D01*
Y55002D01*
X1215020Y52109D01*
X1216518Y49516D01*
X1218636Y47398D01*
X1221229Y45900D01*
X1224122Y45125D01*
X1227117D01*
X1230011Y45900D01*
X1232604Y47398D01*
X1234722Y49516D01*
X1236220Y52109D01*
X1236995Y55002D01*
Y57997D01*
X1236220Y60891D01*
X1234722Y63484D01*
X1232604Y65602D01*
X1230011Y67100D01*
X1227117Y67875D01*
D02*
G37*
G36*
X1177117D02*
X1174122D01*
X1171229Y67100D01*
X1168636Y65602D01*
X1166518Y63484D01*
X1165020Y60891D01*
X1164245Y57997D01*
Y55002D01*
X1165020Y52109D01*
X1166518Y49516D01*
X1168636Y47398D01*
X1171229Y45900D01*
X1174122Y45125D01*
X1177117D01*
X1180011Y45900D01*
X1182604Y47398D01*
X1184722Y49516D01*
X1186220Y52109D01*
X1186995Y55002D01*
Y57997D01*
X1186220Y60891D01*
X1184722Y63484D01*
X1182604Y65602D01*
X1180011Y67100D01*
X1177117Y67875D01*
D02*
G37*
G36*
X1152117D02*
X1149122D01*
X1146229Y67100D01*
X1143636Y65602D01*
X1141518Y63484D01*
X1140020Y60891D01*
X1139245Y57997D01*
Y55002D01*
X1140020Y52109D01*
X1141518Y49516D01*
X1143636Y47398D01*
X1146229Y45900D01*
X1149122Y45125D01*
X1152117D01*
X1155011Y45900D01*
X1157604Y47398D01*
X1159722Y49516D01*
X1161220Y52109D01*
X1161995Y55002D01*
Y57997D01*
X1161220Y60891D01*
X1159722Y63484D01*
X1157604Y65602D01*
X1155011Y67100D01*
X1152117Y67875D01*
D02*
G37*
G36*
X1127117D02*
X1124122D01*
X1121229Y67100D01*
X1118636Y65602D01*
X1116518Y63484D01*
X1115020Y60891D01*
X1114245Y57997D01*
Y55002D01*
X1115020Y52109D01*
X1116518Y49516D01*
X1118636Y47398D01*
X1121229Y45900D01*
X1124122Y45125D01*
X1127117D01*
X1130011Y45900D01*
X1132604Y47398D01*
X1134722Y49516D01*
X1136220Y52109D01*
X1136995Y55002D01*
Y57997D01*
X1136220Y60891D01*
X1134722Y63484D01*
X1132604Y65602D01*
X1130011Y67100D01*
X1127117Y67875D01*
D02*
G37*
G36*
X202912Y87000D02*
X197088D01*
X191336Y86089D01*
X185797Y84289D01*
X180608Y81645D01*
X175896Y78222D01*
X171778Y74104D01*
X168355Y69392D01*
X165711Y64203D01*
X163911Y58664D01*
X163000Y52912D01*
Y47088D01*
X163389Y44635D01*
X162210Y43955D01*
X160895Y44500D01*
X159105D01*
X157451Y43815D01*
X156185Y42549D01*
X155500Y40895D01*
Y39105D01*
X156185Y37451D01*
X157451Y36185D01*
X159105Y35500D01*
X160895D01*
X162549Y36185D01*
X163815Y37451D01*
X163828Y37482D01*
X165180Y37429D01*
X165711Y35797D01*
X168355Y30608D01*
X171778Y25896D01*
X175896Y21778D01*
X180608Y18355D01*
X185797Y15711D01*
X191336Y13911D01*
X197088Y13000D01*
X202912D01*
X208664Y13911D01*
X214203Y15711D01*
X219392Y18355D01*
X224104Y21778D01*
X228222Y25896D01*
X231645Y30608D01*
X234289Y35797D01*
X234820Y37429D01*
X236172Y37482D01*
X236185Y37451D01*
X237451Y36185D01*
X239105Y35500D01*
X240895D01*
X242549Y36185D01*
X243815Y37451D01*
X244500Y39105D01*
Y40895D01*
X243815Y42549D01*
X242549Y43815D01*
X240895Y44500D01*
X239105D01*
X237790Y43955D01*
X236611Y44635D01*
X237000Y47088D01*
Y52912D01*
X236089Y58664D01*
X234289Y64203D01*
X231645Y69392D01*
X228222Y74104D01*
X224104Y78222D01*
X219392Y81645D01*
X214203Y84289D01*
X208664Y86089D01*
X202912Y87000D01*
D02*
G37*
G36*
X802912D02*
X797088D01*
X791336Y86089D01*
X785797Y84289D01*
X780608Y81645D01*
X775896Y78222D01*
X771778Y74104D01*
X768355Y69392D01*
X765711Y64203D01*
X763911Y58664D01*
X763000Y52912D01*
Y47088D01*
X763389Y44635D01*
X762210Y43955D01*
X760895Y44500D01*
X759105D01*
X757451Y43815D01*
X756185Y42549D01*
X755500Y40895D01*
Y39105D01*
X756185Y37451D01*
X757451Y36185D01*
X759105Y35500D01*
X760895D01*
X762549Y36185D01*
X763815Y37451D01*
X763828Y37482D01*
X765180Y37429D01*
X765711Y35797D01*
X768355Y30608D01*
X771778Y25896D01*
X775896Y21778D01*
X780608Y18355D01*
X785797Y15711D01*
X791336Y13911D01*
X797088Y13000D01*
X802912D01*
X808664Y13911D01*
X814203Y15711D01*
X819392Y18355D01*
X824104Y21778D01*
X828222Y25896D01*
X831645Y30608D01*
X834289Y35797D01*
X834819Y37429D01*
X836172Y37482D01*
X836185Y37451D01*
X837451Y36185D01*
X839105Y35500D01*
X840895D01*
X842549Y36185D01*
X843815Y37451D01*
X844500Y39105D01*
Y40895D01*
X843815Y42549D01*
X842549Y43815D01*
X840895Y44500D01*
X839105D01*
X837790Y43955D01*
X836611Y44635D01*
X837000Y47088D01*
Y52912D01*
X836089Y58664D01*
X834289Y64203D01*
X831645Y69392D01*
X828222Y74104D01*
X824104Y78222D01*
X819392Y81645D01*
X814203Y84289D01*
X808664Y86089D01*
X802912Y87000D01*
D02*
G37*
G36*
X1440895Y44500D02*
X1439105D01*
X1437451Y43815D01*
X1436185Y42549D01*
X1435500Y40895D01*
Y39105D01*
X1436185Y37451D01*
X1437451Y36185D01*
X1439105Y35500D01*
X1440895D01*
X1442549Y36185D01*
X1443815Y37451D01*
X1444500Y39105D01*
Y40895D01*
X1443815Y42549D01*
X1442549Y43815D01*
X1440895Y44500D01*
D02*
G37*
G36*
X1400895D02*
X1399105D01*
X1397451Y43815D01*
X1396185Y42549D01*
X1395500Y40895D01*
Y39105D01*
X1396185Y37451D01*
X1397451Y36185D01*
X1399105Y35500D01*
X1400895D01*
X1402549Y36185D01*
X1403815Y37451D01*
X1404500Y39105D01*
Y40895D01*
X1403815Y42549D01*
X1402549Y43815D01*
X1400895Y44500D01*
D02*
G37*
G36*
X1360895D02*
X1359105D01*
X1357451Y43815D01*
X1356185Y42549D01*
X1355500Y40895D01*
Y39105D01*
X1356185Y37451D01*
X1357451Y36185D01*
X1359105Y35500D01*
X1360895D01*
X1362549Y36185D01*
X1363815Y37451D01*
X1364500Y39105D01*
Y40895D01*
X1363815Y42549D01*
X1362549Y43815D01*
X1360895Y44500D01*
D02*
G37*
G36*
X1202117Y67875D02*
X1199122D01*
X1196229Y67100D01*
X1193636Y65602D01*
X1191518Y63484D01*
X1190020Y60891D01*
X1189245Y57997D01*
Y55002D01*
X1190020Y52109D01*
X1191518Y49516D01*
X1193636Y47398D01*
X1196229Y45900D01*
X1198013Y45422D01*
X1198101Y44084D01*
X1197451Y43815D01*
X1196185Y42549D01*
X1195500Y40895D01*
Y39105D01*
X1196185Y37451D01*
X1197451Y36185D01*
X1199105Y35500D01*
X1200895D01*
X1202549Y36185D01*
X1203815Y37451D01*
X1204500Y39105D01*
Y40895D01*
X1203815Y42549D01*
X1202549Y43815D01*
X1202302Y43917D01*
X1202474Y45220D01*
X1205011Y45900D01*
X1207604Y47398D01*
X1209722Y49516D01*
X1211220Y52109D01*
X1211995Y55002D01*
Y57997D01*
X1211220Y60891D01*
X1209722Y63484D01*
X1207604Y65602D01*
X1205011Y67100D01*
X1202117Y67875D01*
D02*
G37*
G36*
X1160895Y44500D02*
X1159105D01*
X1157451Y43815D01*
X1156185Y42549D01*
X1155500Y40895D01*
Y39105D01*
X1156185Y37451D01*
X1157451Y36185D01*
X1159105Y35500D01*
X1160895D01*
X1162549Y36185D01*
X1163815Y37451D01*
X1164500Y39105D01*
Y40895D01*
X1163815Y42549D01*
X1162549Y43815D01*
X1160895Y44500D01*
D02*
G37*
G36*
X1120895D02*
X1119105D01*
X1117451Y43815D01*
X1116185Y42549D01*
X1115500Y40895D01*
Y39105D01*
X1116185Y37451D01*
X1117451Y36185D01*
X1119105Y35500D01*
X1120895D01*
X1122549Y36185D01*
X1123815Y37451D01*
X1124500Y39105D01*
Y40895D01*
X1123815Y42549D01*
X1122549Y43815D01*
X1120895Y44500D01*
D02*
G37*
G36*
X1080895D02*
X1079105D01*
X1077451Y43815D01*
X1076185Y42549D01*
X1075500Y40895D01*
Y39105D01*
X1076185Y37451D01*
X1077451Y36185D01*
X1079105Y35500D01*
X1080895D01*
X1082549Y36185D01*
X1083815Y37451D01*
X1084500Y39105D01*
Y40895D01*
X1083815Y42549D01*
X1082549Y43815D01*
X1080895Y44500D01*
D02*
G37*
G36*
X1040895D02*
X1039105D01*
X1037451Y43815D01*
X1036185Y42549D01*
X1035500Y40895D01*
Y39105D01*
X1036185Y37451D01*
X1037451Y36185D01*
X1039105Y35500D01*
X1040895D01*
X1042549Y36185D01*
X1043815Y37451D01*
X1044500Y39105D01*
Y40895D01*
X1043815Y42549D01*
X1042549Y43815D01*
X1040895Y44500D01*
D02*
G37*
G36*
X1000895D02*
X999105D01*
X997451Y43815D01*
X996185Y42549D01*
X995500Y40895D01*
Y39105D01*
X996185Y37451D01*
X997451Y36185D01*
X999105Y35500D01*
X1000895D01*
X1002549Y36185D01*
X1003815Y37451D01*
X1004500Y39105D01*
Y40895D01*
X1003815Y42549D01*
X1002549Y43815D01*
X1000895Y44500D01*
D02*
G37*
G36*
X960895D02*
X959105D01*
X957451Y43815D01*
X956185Y42549D01*
X955500Y40895D01*
Y39105D01*
X956185Y37451D01*
X957451Y36185D01*
X959105Y35500D01*
X960895D01*
X962549Y36185D01*
X963815Y37451D01*
X964500Y39105D01*
Y40895D01*
X963815Y42549D01*
X962549Y43815D01*
X960895Y44500D01*
D02*
G37*
G36*
X920895D02*
X919105D01*
X917451Y43815D01*
X916185Y42549D01*
X915500Y40895D01*
Y39105D01*
X916185Y37451D01*
X917451Y36185D01*
X919105Y35500D01*
X920895D01*
X922549Y36185D01*
X923815Y37451D01*
X924500Y39105D01*
Y40895D01*
X923815Y42549D01*
X922549Y43815D01*
X920895Y44500D01*
D02*
G37*
G36*
X880895D02*
X879105D01*
X877451Y43815D01*
X876185Y42549D01*
X875500Y40895D01*
Y39105D01*
X876185Y37451D01*
X877451Y36185D01*
X879105Y35500D01*
X880895D01*
X882549Y36185D01*
X883815Y37451D01*
X884500Y39105D01*
Y40895D01*
X883815Y42549D01*
X882549Y43815D01*
X880895Y44500D01*
D02*
G37*
G36*
X720895D02*
X719105D01*
X717451Y43815D01*
X716185Y42549D01*
X715500Y40895D01*
Y39105D01*
X716185Y37451D01*
X717451Y36185D01*
X719105Y35500D01*
X720895D01*
X722549Y36185D01*
X723815Y37451D01*
X724500Y39105D01*
Y40895D01*
X723815Y42549D01*
X722549Y43815D01*
X720895Y44500D01*
D02*
G37*
G36*
X680895D02*
X679105D01*
X677451Y43815D01*
X676185Y42549D01*
X675500Y40895D01*
Y39105D01*
X676185Y37451D01*
X677451Y36185D01*
X679105Y35500D01*
X680895D01*
X682549Y36185D01*
X683815Y37451D01*
X684500Y39105D01*
Y40895D01*
X683815Y42549D01*
X682549Y43815D01*
X680895Y44500D01*
D02*
G37*
G36*
X640895D02*
X639105D01*
X637451Y43815D01*
X636185Y42549D01*
X635500Y40895D01*
Y39105D01*
X636185Y37451D01*
X637451Y36185D01*
X639105Y35500D01*
X640895D01*
X642549Y36185D01*
X643815Y37451D01*
X644500Y39105D01*
Y40895D01*
X643815Y42549D01*
X642549Y43815D01*
X640895Y44500D01*
D02*
G37*
G36*
X600895D02*
X599105D01*
X597451Y43815D01*
X596185Y42549D01*
X595500Y40895D01*
Y39105D01*
X596185Y37451D01*
X597451Y36185D01*
X599105Y35500D01*
X600895D01*
X602549Y36185D01*
X603815Y37451D01*
X604500Y39105D01*
Y40895D01*
X603815Y42549D01*
X602549Y43815D01*
X600895Y44500D01*
D02*
G37*
G36*
X560895D02*
X559105D01*
X557451Y43815D01*
X556185Y42549D01*
X555500Y40895D01*
Y39105D01*
X556185Y37451D01*
X557451Y36185D01*
X559105Y35500D01*
X560895D01*
X562549Y36185D01*
X563815Y37451D01*
X564500Y39105D01*
Y40895D01*
X563815Y42549D01*
X562549Y43815D01*
X560895Y44500D01*
D02*
G37*
G36*
X520895D02*
X519105D01*
X517451Y43815D01*
X516185Y42549D01*
X515500Y40895D01*
Y39105D01*
X516185Y37451D01*
X517451Y36185D01*
X519105Y35500D01*
X520895D01*
X522549Y36185D01*
X523815Y37451D01*
X524500Y39105D01*
Y40895D01*
X523815Y42549D01*
X522549Y43815D01*
X520895Y44500D01*
D02*
G37*
G36*
X480895D02*
X479105D01*
X477451Y43815D01*
X476185Y42549D01*
X475500Y40895D01*
Y39105D01*
X476185Y37451D01*
X477451Y36185D01*
X479105Y35500D01*
X480895D01*
X482549Y36185D01*
X483815Y37451D01*
X484500Y39105D01*
Y40895D01*
X483815Y42549D01*
X482549Y43815D01*
X480895Y44500D01*
D02*
G37*
G36*
X440895D02*
X439105D01*
X437451Y43815D01*
X436185Y42549D01*
X435500Y40895D01*
Y39105D01*
X436185Y37451D01*
X437451Y36185D01*
X439105Y35500D01*
X440895D01*
X442549Y36185D01*
X443815Y37451D01*
X444500Y39105D01*
Y40895D01*
X443815Y42549D01*
X442549Y43815D01*
X440895Y44500D01*
D02*
G37*
G36*
X400895D02*
X399105D01*
X397451Y43815D01*
X396185Y42549D01*
X395500Y40895D01*
Y39105D01*
X396185Y37451D01*
X397451Y36185D01*
X399105Y35500D01*
X400895D01*
X402549Y36185D01*
X403815Y37451D01*
X404500Y39105D01*
Y40895D01*
X403815Y42549D01*
X402549Y43815D01*
X400895Y44500D01*
D02*
G37*
G36*
X360895D02*
X359105D01*
X357451Y43815D01*
X356185Y42549D01*
X355500Y40895D01*
Y39105D01*
X356185Y37451D01*
X357451Y36185D01*
X359105Y35500D01*
X360895D01*
X362549Y36185D01*
X363815Y37451D01*
X364500Y39105D01*
Y40895D01*
X363815Y42549D01*
X362549Y43815D01*
X360895Y44500D01*
D02*
G37*
G36*
X320895D02*
X319105D01*
X317451Y43815D01*
X316185Y42549D01*
X315500Y40895D01*
Y39105D01*
X316185Y37451D01*
X317451Y36185D01*
X319105Y35500D01*
X320895D01*
X322549Y36185D01*
X323815Y37451D01*
X324500Y39105D01*
Y40895D01*
X323815Y42549D01*
X322549Y43815D01*
X320895Y44500D01*
D02*
G37*
G36*
X280895D02*
X279105D01*
X277451Y43815D01*
X276185Y42549D01*
X275500Y40895D01*
Y39105D01*
X276185Y37451D01*
X277451Y36185D01*
X279105Y35500D01*
X280895D01*
X282549Y36185D01*
X283815Y37451D01*
X284500Y39105D01*
Y40895D01*
X283815Y42549D01*
X282549Y43815D01*
X280895Y44500D01*
D02*
G37*
G36*
X120895D02*
X119105D01*
X117451Y43815D01*
X116185Y42549D01*
X115500Y40895D01*
Y39105D01*
X116185Y37451D01*
X117451Y36185D01*
X119105Y35500D01*
X120895D01*
X122549Y36185D01*
X123815Y37451D01*
X124500Y39105D01*
Y40895D01*
X123815Y42549D01*
X122549Y43815D01*
X120895Y44500D01*
D02*
G37*
G36*
X1502753Y92000D02*
X1497247D01*
X1491789Y91281D01*
X1486471Y89856D01*
X1481384Y87750D01*
X1476616Y84997D01*
X1472248Y81645D01*
X1468355Y77752D01*
X1465003Y73384D01*
X1462251Y68616D01*
X1460144Y63529D01*
X1458719Y58211D01*
X1458000Y52753D01*
Y47247D01*
X1458719Y41789D01*
X1460144Y36471D01*
X1462251Y31384D01*
X1465003Y26616D01*
X1468355Y22248D01*
X1472248Y18355D01*
X1476616Y15003D01*
X1481384Y12250D01*
X1486471Y10144D01*
X1491789Y8719D01*
X1497247Y8000D01*
X1502753D01*
X1508211Y8719D01*
X1513529Y10144D01*
X1518616Y12250D01*
X1523384Y15003D01*
X1527752Y18355D01*
X1531645Y22248D01*
X1534997Y26616D01*
X1537749Y31384D01*
X1539856Y36471D01*
X1541281Y41789D01*
X1542000Y47247D01*
Y52753D01*
X1541281Y58211D01*
X1539856Y63529D01*
X1537749Y68616D01*
X1534997Y73384D01*
X1531645Y77752D01*
X1527752Y81645D01*
X1523384Y84997D01*
X1518616Y87750D01*
X1513529Y89856D01*
X1508211Y91281D01*
X1502753Y92000D01*
D02*
G37*
G36*
X52753D02*
X47247D01*
X41789Y91281D01*
X36471Y89856D01*
X31384Y87750D01*
X26616Y84997D01*
X22248Y81645D01*
X18355Y77752D01*
X15003Y73384D01*
X12250Y68616D01*
X10144Y63529D01*
X8719Y58211D01*
X8000Y52753D01*
Y47247D01*
X8719Y41789D01*
X10144Y36471D01*
X12250Y31384D01*
X15003Y26616D01*
X18355Y22248D01*
X22248Y18355D01*
X26616Y15003D01*
X31384Y12250D01*
X36471Y10144D01*
X41789Y8719D01*
X47247Y8000D01*
X52753D01*
X58211Y8719D01*
X63529Y10144D01*
X68616Y12250D01*
X73384Y15003D01*
X77752Y18355D01*
X81645Y22248D01*
X84997Y26616D01*
X87750Y31384D01*
X89856Y36471D01*
X91281Y41789D01*
X92000Y47247D01*
Y52753D01*
X91281Y58211D01*
X89856Y63529D01*
X87750Y68616D01*
X84997Y73384D01*
X81645Y77752D01*
X77752Y81645D01*
X73384Y84997D01*
X68616Y87750D01*
X63529Y89856D01*
X58211Y91281D01*
X52753Y92000D01*
D02*
G37*
%LPD*%
G36*
X1422738Y399712D02*
X1422252Y398539D01*
X1405020D01*
X1403925Y399633D01*
X1401904Y400470D01*
X1399716D01*
X1397695Y399633D01*
X1396147Y398086D01*
X1395310Y396064D01*
Y393876D01*
X1396147Y391855D01*
X1397695Y390307D01*
X1399716Y389470D01*
X1401904D01*
X1403925Y390307D01*
X1405020Y391401D01*
X1431049D01*
X1458415Y364035D01*
Y361323D01*
X1459190Y358429D01*
X1460688Y355836D01*
X1462806Y353718D01*
X1465399Y352220D01*
X1468293Y351445D01*
X1471005D01*
X1472240Y350210D01*
X1471605Y349110D01*
X1471288Y349195D01*
X1468293D01*
X1465399Y348420D01*
X1462806Y346922D01*
X1460688Y344804D01*
X1459190Y342211D01*
X1458415Y339318D01*
Y336323D01*
X1459190Y333429D01*
X1460688Y330836D01*
X1462806Y328718D01*
X1465399Y327220D01*
X1468293Y326445D01*
X1471288D01*
X1474181Y327220D01*
X1476774Y328718D01*
X1478892Y330836D01*
X1480390Y333429D01*
X1481165Y336323D01*
Y339318D01*
X1481080Y339635D01*
X1482180Y340270D01*
X1483415Y339035D01*
Y336323D01*
X1484190Y333429D01*
X1485688Y330836D01*
X1487806Y328718D01*
X1490399Y327220D01*
X1493293Y326445D01*
X1496005D01*
X1499870Y322580D01*
X1522730D01*
Y293370D01*
X1520190Y290830D01*
X1517650Y293370D01*
X1435100D01*
Y186690D01*
X1426210Y177800D01*
X1422400Y181610D01*
X1343660D01*
Y369570D01*
X1258570Y454660D01*
X1257300Y457200D01*
X1258570Y458470D01*
X1363980D01*
X1422738Y399712D01*
D02*
G37*
%LPC*%
G36*
X1471288Y324195D02*
X1468293D01*
X1465399Y323420D01*
X1462806Y321922D01*
X1460688Y319804D01*
X1459190Y317211D01*
X1458415Y314317D01*
Y311322D01*
X1459190Y308429D01*
X1460688Y305836D01*
X1462806Y303718D01*
X1465399Y302220D01*
X1468293Y301445D01*
X1471288D01*
X1474181Y302220D01*
X1476774Y303718D01*
X1478892Y305836D01*
X1480390Y308429D01*
X1481165Y311322D01*
Y314317D01*
X1480390Y317211D01*
X1478892Y319804D01*
X1476774Y321922D01*
X1474181Y323420D01*
X1471288Y324195D01*
D02*
G37*
%LPD*%
D38*
X1437640Y394970D02*
X1469790Y362820D01*
X1400810Y394970D02*
X1437640D01*
X594360Y351790D02*
X1236980D01*
X567690Y378460D02*
X594360Y351790D01*
X1236980D02*
X1329870Y258900D01*
Y224790D02*
Y258900D01*
X487680Y378460D02*
X567690D01*
X464820Y401320D02*
X487680Y378460D01*
D40*
X800000Y500000D02*
D03*
Y50000D02*
D03*
X200000Y500000D02*
D03*
Y50000D02*
D03*
D41*
X1175620Y56500D02*
D03*
X970280Y439420D02*
D03*
X1494790Y437820D02*
D03*
X1469790D02*
D03*
Y412820D02*
D03*
Y387820D02*
D03*
Y362820D02*
D03*
Y337820D02*
D03*
Y312820D02*
D03*
X1494790Y412820D02*
D03*
Y387820D02*
D03*
Y362820D02*
D03*
Y337820D02*
D03*
Y312820D02*
D03*
X1467250Y258280D02*
D03*
Y233280D02*
D03*
Y208280D02*
D03*
Y183280D02*
D03*
Y158280D02*
D03*
Y133280D02*
D03*
X1492250Y258280D02*
D03*
Y233280D02*
D03*
Y208280D02*
D03*
Y183280D02*
D03*
Y158280D02*
D03*
Y133280D02*
D03*
X1125620Y56500D02*
D03*
X1150620D02*
D03*
X1200620D02*
D03*
X1225620D02*
D03*
X1250620D02*
D03*
X1125620Y81500D02*
D03*
X1150620D02*
D03*
X1175620D02*
D03*
X1200620D02*
D03*
X1225620D02*
D03*
X1250620D02*
D03*
X995280Y389420D02*
D03*
Y414420D02*
D03*
Y439420D02*
D03*
Y464420D02*
D03*
Y489420D02*
D03*
Y514420D02*
D03*
X970280Y389420D02*
D03*
Y414420D02*
D03*
Y464420D02*
D03*
Y489420D02*
D03*
Y514420D02*
D03*
D42*
X1500000Y500000D02*
D03*
X50000D02*
D03*
X1500000Y50000D02*
D03*
X50000D02*
D03*
D43*
X1508190Y375320D02*
D03*
X1505650Y195780D02*
D03*
X1188120Y94900D02*
D03*
X956880Y451920D02*
D03*
D44*
X403860Y59690D02*
D03*
X1400810Y394970D02*
D03*
X1278890Y448670D02*
D03*
X464820Y401320D02*
D03*
X697230Y298450D02*
D03*
X379730Y226520D02*
D03*
X380892Y238279D02*
D03*
X417700Y244980D02*
D03*
X420370Y232410D02*
D03*
X598170Y250840D02*
D03*
X394934Y230916D02*
D03*
X824436Y93980D02*
D03*
X350520Y217170D02*
D03*
X642620Y274320D02*
D03*
X690880Y317500D02*
D03*
X826770Y337820D02*
D03*
X1291590Y396240D02*
D03*
X1305560Y365760D02*
D03*
X642620Y260350D02*
D03*
X342900Y170180D02*
D03*
X341630Y184150D02*
D03*
X494030Y396240D02*
D03*
X481330Y361950D02*
D03*
X220000Y480000D02*
D03*
X172500Y500000D02*
D03*
X227500D02*
D03*
X180000Y520000D02*
D03*
X220000D02*
D03*
X200000Y527500D02*
D03*
Y472500D02*
D03*
X180000Y480000D02*
D03*
X800000Y472500D02*
D03*
X780000Y480000D02*
D03*
X820000D02*
D03*
X772500Y500000D02*
D03*
X827500D02*
D03*
X780000Y520000D02*
D03*
X820000D02*
D03*
X800000Y527500D02*
D03*
X772500Y50000D02*
D03*
X780000Y30000D02*
D03*
Y70000D02*
D03*
X800000Y77500D02*
D03*
Y22500D02*
D03*
X820000Y30000D02*
D03*
Y70000D02*
D03*
X827500Y50000D02*
D03*
X172500D02*
D03*
X200000Y22500D02*
D03*
X180000Y30000D02*
D03*
X220000D02*
D03*
X227500Y50000D02*
D03*
X180000Y70000D02*
D03*
X220000D02*
D03*
X200000Y77500D02*
D03*
X1480000Y520000D02*
D03*
X1472500Y500000D02*
D03*
X1500000Y472500D02*
D03*
X1480000Y480000D02*
D03*
X1520000D02*
D03*
X1527500Y500000D02*
D03*
X1520000Y520000D02*
D03*
X1500000Y527500D02*
D03*
X30000Y480000D02*
D03*
X22500Y500000D02*
D03*
X77500D02*
D03*
X30000Y520000D02*
D03*
X70000D02*
D03*
X50000Y527500D02*
D03*
Y472500D02*
D03*
X70000Y480000D02*
D03*
X1500000Y22500D02*
D03*
X1480000Y30000D02*
D03*
X1520000D02*
D03*
X1527500Y50000D02*
D03*
X1480000Y70000D02*
D03*
X1520000D02*
D03*
X1500000Y77500D02*
D03*
X1472500Y50000D02*
D03*
X30000Y30000D02*
D03*
X77500Y50000D02*
D03*
X70000Y30000D02*
D03*
X50000Y22500D02*
D03*
X22500Y50000D02*
D03*
X50000Y77500D02*
D03*
X30000Y70000D02*
D03*
X70000D02*
D03*
D45*
X1540000Y480000D02*
D03*
X1520000Y440000D02*
D03*
X1540000Y400000D02*
D03*
X1520000Y360000D02*
D03*
X1540000Y320000D02*
D03*
X1520000Y280000D02*
D03*
X1540000Y240000D02*
D03*
X1520000Y200000D02*
D03*
X1540000Y160000D02*
D03*
X1520000Y120000D02*
D03*
X1540000Y80000D02*
D03*
X1480000Y200000D02*
D03*
X1440000Y520000D02*
D03*
X1460000Y480000D02*
D03*
X1440000Y440000D02*
D03*
Y200000D02*
D03*
X1460000Y80000D02*
D03*
X1440000Y40000D02*
D03*
X1400000Y520000D02*
D03*
X1420000Y480000D02*
D03*
Y80000D02*
D03*
X1400000Y40000D02*
D03*
X1360000Y520000D02*
D03*
X1380000Y480000D02*
D03*
Y80000D02*
D03*
X1360000Y40000D02*
D03*
X1320000Y520000D02*
D03*
X1340000Y480000D02*
D03*
X1320000Y360000D02*
D03*
X1340000Y80000D02*
D03*
X1280000Y520000D02*
D03*
X1300000Y480000D02*
D03*
Y320000D02*
D03*
Y240000D02*
D03*
X1280000Y120000D02*
D03*
X1240000Y520000D02*
D03*
X1260000Y480000D02*
D03*
X1240000Y440000D02*
D03*
X1260000Y320000D02*
D03*
X1240000Y120000D02*
D03*
X1200000Y520000D02*
D03*
X1220000Y480000D02*
D03*
X1200000Y440000D02*
D03*
X1220000Y400000D02*
D03*
Y320000D02*
D03*
X1200000Y40000D02*
D03*
X1160000Y520000D02*
D03*
X1180000Y480000D02*
D03*
X1160000Y440000D02*
D03*
X1180000Y400000D02*
D03*
X1160000Y200000D02*
D03*
Y120000D02*
D03*
Y40000D02*
D03*
X1120000Y520000D02*
D03*
X1140000Y480000D02*
D03*
X1120000Y440000D02*
D03*
X1140000Y400000D02*
D03*
Y320000D02*
D03*
X1120000Y200000D02*
D03*
Y40000D02*
D03*
X1080000Y520000D02*
D03*
X1100000Y480000D02*
D03*
X1080000Y440000D02*
D03*
X1100000Y400000D02*
D03*
Y320000D02*
D03*
X1080000Y200000D02*
D03*
Y120000D02*
D03*
X1100000Y80000D02*
D03*
X1080000Y40000D02*
D03*
X1040000Y520000D02*
D03*
Y440000D02*
D03*
X1060000Y400000D02*
D03*
Y320000D02*
D03*
X1040000Y200000D02*
D03*
Y120000D02*
D03*
X1060000Y80000D02*
D03*
X1040000Y40000D02*
D03*
X1020000Y480000D02*
D03*
Y400000D02*
D03*
Y320000D02*
D03*
Y80000D02*
D03*
X1000000Y40000D02*
D03*
X980000Y320000D02*
D03*
X960000Y200000D02*
D03*
Y120000D02*
D03*
X980000Y80000D02*
D03*
X960000Y40000D02*
D03*
X920000Y440000D02*
D03*
X940000Y320000D02*
D03*
X920000Y200000D02*
D03*
X940000Y80000D02*
D03*
X920000Y40000D02*
D03*
X880000Y520000D02*
D03*
Y440000D02*
D03*
X900000Y320000D02*
D03*
X880000Y200000D02*
D03*
X900000Y160000D02*
D03*
Y80000D02*
D03*
X880000Y40000D02*
D03*
X840000Y520000D02*
D03*
X860000Y320000D02*
D03*
X840000Y200000D02*
D03*
X860000Y160000D02*
D03*
Y80000D02*
D03*
X840000Y40000D02*
D03*
X800000Y440000D02*
D03*
X820000Y320000D02*
D03*
X800000Y200000D02*
D03*
X820000Y160000D02*
D03*
X760000Y520000D02*
D03*
Y440000D02*
D03*
X780000Y320000D02*
D03*
X760000Y200000D02*
D03*
X780000Y160000D02*
D03*
X760000Y40000D02*
D03*
X720000Y520000D02*
D03*
X740000Y480000D02*
D03*
X720000Y440000D02*
D03*
X740000Y320000D02*
D03*
X720000Y200000D02*
D03*
X740000Y160000D02*
D03*
Y80000D02*
D03*
X720000Y40000D02*
D03*
X700000Y480000D02*
D03*
X680000Y440000D02*
D03*
X700000Y320000D02*
D03*
X680000Y200000D02*
D03*
X700000Y160000D02*
D03*
Y80000D02*
D03*
X680000Y40000D02*
D03*
X640000Y520000D02*
D03*
X660000Y480000D02*
D03*
X640000Y440000D02*
D03*
Y200000D02*
D03*
X660000Y160000D02*
D03*
Y80000D02*
D03*
X640000Y40000D02*
D03*
X600000Y520000D02*
D03*
X620000Y480000D02*
D03*
X600000Y280000D02*
D03*
Y200000D02*
D03*
X620000Y160000D02*
D03*
Y80000D02*
D03*
X600000Y40000D02*
D03*
X560000Y520000D02*
D03*
X580000Y480000D02*
D03*
X560000Y440000D02*
D03*
Y280000D02*
D03*
Y200000D02*
D03*
X580000Y160000D02*
D03*
Y80000D02*
D03*
X560000Y40000D02*
D03*
X520000Y520000D02*
D03*
X540000Y480000D02*
D03*
X520000Y440000D02*
D03*
X540000Y320000D02*
D03*
X520000Y280000D02*
D03*
Y200000D02*
D03*
X540000Y160000D02*
D03*
Y80000D02*
D03*
X520000Y40000D02*
D03*
X480000Y520000D02*
D03*
X500000Y480000D02*
D03*
X480000Y440000D02*
D03*
X500000Y320000D02*
D03*
X480000Y280000D02*
D03*
Y200000D02*
D03*
X500000Y160000D02*
D03*
Y80000D02*
D03*
X480000Y40000D02*
D03*
X440000Y520000D02*
D03*
X460000Y480000D02*
D03*
X440000Y440000D02*
D03*
Y360000D02*
D03*
X460000Y320000D02*
D03*
X440000Y280000D02*
D03*
Y200000D02*
D03*
X460000Y80000D02*
D03*
X440000Y40000D02*
D03*
X400000Y520000D02*
D03*
X420000Y480000D02*
D03*
X400000Y440000D02*
D03*
X420000Y400000D02*
D03*
X400000Y360000D02*
D03*
X420000Y160000D02*
D03*
X400000Y120000D02*
D03*
X420000Y80000D02*
D03*
X400000Y40000D02*
D03*
X360000Y520000D02*
D03*
X380000Y480000D02*
D03*
X360000Y440000D02*
D03*
X380000Y400000D02*
D03*
X360000Y360000D02*
D03*
X380000Y320000D02*
D03*
Y160000D02*
D03*
X360000Y120000D02*
D03*
X380000Y80000D02*
D03*
X360000Y40000D02*
D03*
X320000Y520000D02*
D03*
X340000Y480000D02*
D03*
X320000Y440000D02*
D03*
X340000Y400000D02*
D03*
X320000Y360000D02*
D03*
X340000Y320000D02*
D03*
Y160000D02*
D03*
X320000Y120000D02*
D03*
X340000Y80000D02*
D03*
X320000Y40000D02*
D03*
X280000Y520000D02*
D03*
X300000Y480000D02*
D03*
X280000Y440000D02*
D03*
X300000Y400000D02*
D03*
X280000Y360000D02*
D03*
X300000Y320000D02*
D03*
X280000Y280000D02*
D03*
X300000Y240000D02*
D03*
X280000Y200000D02*
D03*
X300000Y160000D02*
D03*
X280000Y120000D02*
D03*
X300000Y80000D02*
D03*
X280000Y40000D02*
D03*
X240000Y520000D02*
D03*
X260000Y480000D02*
D03*
X240000Y440000D02*
D03*
X260000Y400000D02*
D03*
X240000Y360000D02*
D03*
X260000Y320000D02*
D03*
X240000Y280000D02*
D03*
X260000Y240000D02*
D03*
X240000Y200000D02*
D03*
X260000Y160000D02*
D03*
X240000Y120000D02*
D03*
X260000Y80000D02*
D03*
X240000Y40000D02*
D03*
X200000Y440000D02*
D03*
X220000Y400000D02*
D03*
X200000Y360000D02*
D03*
X220000Y320000D02*
D03*
X200000Y280000D02*
D03*
X220000Y240000D02*
D03*
X200000Y200000D02*
D03*
X220000Y160000D02*
D03*
X200000Y120000D02*
D03*
X160000Y520000D02*
D03*
Y440000D02*
D03*
X180000Y400000D02*
D03*
X160000Y360000D02*
D03*
X180000Y320000D02*
D03*
X160000Y280000D02*
D03*
X180000Y240000D02*
D03*
X160000Y200000D02*
D03*
X180000Y160000D02*
D03*
X160000Y120000D02*
D03*
Y40000D02*
D03*
X120000Y520000D02*
D03*
X140000Y480000D02*
D03*
X120000Y440000D02*
D03*
X140000Y400000D02*
D03*
X120000Y360000D02*
D03*
X140000Y320000D02*
D03*
X120000Y280000D02*
D03*
X140000Y240000D02*
D03*
X120000Y200000D02*
D03*
X140000Y160000D02*
D03*
X120000Y120000D02*
D03*
X140000Y80000D02*
D03*
X120000Y40000D02*
D03*
X100000Y480000D02*
D03*
X80000Y440000D02*
D03*
X100000Y400000D02*
D03*
X80000Y360000D02*
D03*
X100000Y320000D02*
D03*
X80000Y280000D02*
D03*
X100000Y240000D02*
D03*
X80000Y200000D02*
D03*
X100000Y160000D02*
D03*
X80000Y120000D02*
D03*
X100000Y80000D02*
D03*
X40000Y440000D02*
D03*
X60000Y400000D02*
D03*
X40000Y360000D02*
D03*
X60000Y320000D02*
D03*
X40000Y280000D02*
D03*
X60000Y240000D02*
D03*
X40000Y200000D02*
D03*
X60000Y160000D02*
D03*
X40000Y120000D02*
D03*
X1329870Y224790D02*
D03*
X1234440Y238410D02*
D03*
X1336040Y135890D02*
D03*
X1394180Y190220D02*
D03*
X1381400Y373740D02*
D03*
M02*
