G04*
G04 #@! TF.GenerationSoftware,Altium Limited,Altium Designer,24.3.1 (35)*
G04*
G04 Layer_Color=8421504*
%FSLAX44Y44*%
%MOMM*%
G71*
G04*
G04 #@! TF.SameCoordinates,C3A98564-D86C-46C7-A890-955D0AD343B8*
G04*
G04*
G04 #@! TF.FilePolarity,Positive*
G04*
G01*
G75*
%ADD14R,0.7400X1.7000*%
%ADD15R,1.7000X0.7400*%
G04:AMPARAMS|DCode=16|XSize=0.65mm|YSize=1.25mm|CornerRadius=0.1625mm|HoleSize=0mm|Usage=FLASHONLY|Rotation=90.000|XOffset=0mm|YOffset=0mm|HoleType=Round|Shape=RoundedRectangle|*
%AMROUNDEDRECTD16*
21,1,0.6500,0.9250,0,0,90.0*
21,1,0.3250,1.2500,0,0,90.0*
1,1,0.3250,0.4625,0.1625*
1,1,0.3250,0.4625,-0.1625*
1,1,0.3250,-0.4625,-0.1625*
1,1,0.3250,-0.4625,0.1625*
%
%ADD16ROUNDEDRECTD16*%
%ADD17R,0.9000X1.3000*%
%ADD18R,1.3000X0.9000*%
%ADD19R,1.1500X1.3500*%
%ADD20R,1.3500X1.1500*%
G04:AMPARAMS|DCode=21|XSize=1.75mm|YSize=1.25mm|CornerRadius=0.3125mm|HoleSize=0mm|Usage=FLASHONLY|Rotation=180.000|XOffset=0mm|YOffset=0mm|HoleType=Round|Shape=RoundedRectangle|*
%AMROUNDEDRECTD21*
21,1,1.7500,0.6250,0,0,180.0*
21,1,1.1250,1.2500,0,0,180.0*
1,1,0.6250,-0.5625,0.3125*
1,1,0.6250,0.5625,0.3125*
1,1,0.6250,0.5625,-0.3125*
1,1,0.6250,-0.5625,-0.3125*
%
%ADD21ROUNDEDRECTD21*%
G04:AMPARAMS|DCode=22|XSize=1.75mm|YSize=1.25mm|CornerRadius=0.3125mm|HoleSize=0mm|Usage=FLASHONLY|Rotation=90.000|XOffset=0mm|YOffset=0mm|HoleType=Round|Shape=RoundedRectangle|*
%AMROUNDEDRECTD22*
21,1,1.7500,0.6250,0,0,90.0*
21,1,1.1250,1.2500,0,0,90.0*
1,1,0.6250,0.3125,0.5625*
1,1,0.6250,0.3125,-0.5625*
1,1,0.6250,-0.3125,-0.5625*
1,1,0.6250,-0.3125,0.5625*
%
%ADD22ROUNDEDRECTD22*%
D14*
X578160Y61770D02*
D03*
X565460D02*
D03*
X552760D02*
D03*
X540060D02*
D03*
X527360D02*
D03*
X514660D02*
D03*
X489260D02*
D03*
X501960D02*
D03*
X476560D02*
D03*
X463860D02*
D03*
X451160D02*
D03*
X438460D02*
D03*
X425760D02*
D03*
X578160Y100770D02*
D03*
X565460D02*
D03*
X552760D02*
D03*
X540060D02*
D03*
X527360D02*
D03*
X514660D02*
D03*
X501960D02*
D03*
X489260D02*
D03*
X476560D02*
D03*
X463860D02*
D03*
X451160D02*
D03*
X425760D02*
D03*
X438460D02*
D03*
X581850Y381770D02*
D03*
X569150D02*
D03*
X556450D02*
D03*
X543750D02*
D03*
X531050D02*
D03*
X518350D02*
D03*
X505650D02*
D03*
X492950D02*
D03*
X480250D02*
D03*
X467550D02*
D03*
X454850D02*
D03*
X442150D02*
D03*
X429450D02*
D03*
X581850Y420770D02*
D03*
X569150D02*
D03*
X556450D02*
D03*
X531050D02*
D03*
X543750D02*
D03*
X518350D02*
D03*
X505650D02*
D03*
X492950D02*
D03*
X467550D02*
D03*
X480250D02*
D03*
X454850D02*
D03*
X442150D02*
D03*
X429450D02*
D03*
X413060Y61770D02*
D03*
Y100770D02*
D03*
X416750Y420770D02*
D03*
Y381770D02*
D03*
D15*
X665110Y244920D02*
D03*
Y232220D02*
D03*
Y219520D02*
D03*
Y181420D02*
D03*
Y194120D02*
D03*
Y206820D02*
D03*
Y333820D02*
D03*
Y321120D02*
D03*
Y308420D02*
D03*
Y295720D02*
D03*
Y283020D02*
D03*
Y270320D02*
D03*
Y257620D02*
D03*
X626110Y333820D02*
D03*
Y321120D02*
D03*
Y308420D02*
D03*
Y295720D02*
D03*
Y283020D02*
D03*
Y270320D02*
D03*
Y257620D02*
D03*
Y244920D02*
D03*
Y232220D02*
D03*
Y219520D02*
D03*
Y206820D02*
D03*
Y194120D02*
D03*
Y181420D02*
D03*
X365110Y333820D02*
D03*
Y321120D02*
D03*
Y308420D02*
D03*
Y295720D02*
D03*
Y283020D02*
D03*
Y270320D02*
D03*
Y257620D02*
D03*
Y244920D02*
D03*
Y232220D02*
D03*
Y219520D02*
D03*
Y206820D02*
D03*
Y194120D02*
D03*
Y181420D02*
D03*
X326110Y333820D02*
D03*
Y321120D02*
D03*
Y308420D02*
D03*
Y295720D02*
D03*
Y283020D02*
D03*
Y270320D02*
D03*
Y257620D02*
D03*
Y244920D02*
D03*
Y232220D02*
D03*
Y219520D02*
D03*
Y206820D02*
D03*
Y194120D02*
D03*
Y181420D02*
D03*
X665110Y168720D02*
D03*
X626110D02*
D03*
X365110D02*
D03*
X326110D02*
D03*
D16*
X1308380Y339090D02*
D03*
X1279880Y329590D02*
D03*
Y348590D02*
D03*
X1377670Y436880D02*
D03*
X1406170Y446380D02*
D03*
Y427380D02*
D03*
X1310920Y276860D02*
D03*
X1282420Y267360D02*
D03*
Y286360D02*
D03*
D17*
X1341780Y274320D02*
D03*
X1322730Y185420D02*
D03*
X1341730D02*
D03*
X1360780Y274320D02*
D03*
X1171550Y218440D02*
D03*
X1152550D02*
D03*
X1197000Y220980D02*
D03*
X1216000D02*
D03*
D18*
X1367790Y333350D02*
D03*
X1096010Y251460D02*
D03*
Y232460D02*
D03*
X1367790Y314350D02*
D03*
X1092200Y184760D02*
D03*
Y165760D02*
D03*
X1243330Y215290D02*
D03*
Y234290D02*
D03*
D19*
X1410060Y323850D02*
D03*
X1413150Y290830D02*
D03*
X1431650D02*
D03*
X1415690Y347980D02*
D03*
X1434190D02*
D03*
X1391560Y323850D02*
D03*
X1154070Y254000D02*
D03*
X1172570D02*
D03*
D20*
X1341120Y226970D02*
D03*
X1347470Y147320D02*
D03*
Y128820D02*
D03*
X1275080Y210460D02*
D03*
Y228960D02*
D03*
X1121410Y230780D02*
D03*
Y249280D02*
D03*
X1066800Y180700D02*
D03*
Y162200D02*
D03*
X1117600Y160930D02*
D03*
Y179430D02*
D03*
X1249680Y144420D02*
D03*
Y162920D02*
D03*
X1172210Y154580D02*
D03*
Y173080D02*
D03*
X1198880Y152040D02*
D03*
Y170540D02*
D03*
X1144270Y157120D02*
D03*
Y175620D02*
D03*
X1341120Y245470D02*
D03*
X1342390Y424900D02*
D03*
Y406400D02*
D03*
X1313180Y389530D02*
D03*
Y408030D02*
D03*
X1369060Y373740D02*
D03*
Y355240D02*
D03*
X1252220Y306430D02*
D03*
Y287930D02*
D03*
X1310640Y430170D02*
D03*
Y448670D02*
D03*
X1244600Y336190D02*
D03*
Y354690D02*
D03*
X1224280Y158750D02*
D03*
Y140250D02*
D03*
X1202690Y278490D02*
D03*
Y259990D02*
D03*
D21*
X1358900Y77190D02*
D03*
Y105690D02*
D03*
X1289050Y165380D02*
D03*
Y136880D02*
D03*
X1316990Y141250D02*
D03*
Y112750D02*
D03*
D22*
X1394180Y173990D02*
D03*
X1422680D02*
D03*
X1394180Y110490D02*
D03*
X1422680D02*
D03*
X1394180Y142240D02*
D03*
X1422680D02*
D03*
X1422680Y240030D02*
D03*
X1394180D02*
D03*
X1422680Y212090D02*
D03*
X1394180D02*
D03*
M02*
