G04*
G04 #@! TF.GenerationSoftware,Altium Limited,Altium Designer,24.0.1 (36)*
G04*
G04 Layer_Physical_Order=2*
G04 Layer_Color=36540*
%FSLAX44Y44*%
%MOMM*%
G71*
G04*
G04 #@! TF.SameCoordinates,0FB82E01-D644-434E-A1D8-1B95A2BBF3EB*
G04*
G04*
G04 #@! TF.FilePolarity,Positive*
G04*
G01*
G75*
%ADD40C,1.8750*%
%ADD41C,7.0000*%
%ADD42C,8.0000*%
%ADD43C,0.6750*%
%ADD44C,0.5000*%
%ADD45C,0.7000*%
G36*
X1500000Y550000D02*
X1503277D01*
X1509775Y549144D01*
X1516106Y547448D01*
X1522162Y544940D01*
X1527838Y541663D01*
X1533038Y537673D01*
X1537673Y533038D01*
X1541663Y527838D01*
X1544940Y522162D01*
X1547448Y516106D01*
X1549144Y509775D01*
X1550000Y503277D01*
Y500000D01*
X1550000Y500000D01*
X1550000Y500000D01*
X1550000Y50000D01*
Y46723D01*
X1549144Y40224D01*
X1547448Y33893D01*
X1544940Y27838D01*
X1541663Y22162D01*
X1537673Y16962D01*
X1533038Y12327D01*
X1527838Y8337D01*
X1522162Y5060D01*
X1516106Y2552D01*
X1509775Y856D01*
X1503277Y0D01*
X1500000Y0D01*
X50000Y0D01*
X46723D01*
X40224Y856D01*
X33893Y2552D01*
X27838Y5060D01*
X22162Y8337D01*
X16962Y12327D01*
X12327Y16962D01*
X8337Y22162D01*
X5060Y27838D01*
X2552Y33893D01*
X856Y40224D01*
X0Y46723D01*
X0Y50000D01*
X0Y500000D01*
Y503277D01*
X856Y509775D01*
X2552Y516106D01*
X5060Y522162D01*
X8337Y527838D01*
X12327Y533038D01*
X16962Y537673D01*
X22162Y541663D01*
X27838Y544940D01*
X33893Y547448D01*
X40224Y549144D01*
X46723Y550000D01*
X50000D01*
X50000Y550000D01*
X1500000Y550000D01*
D02*
G37*
%LPC*%
G36*
X996777Y525795D02*
X993783D01*
X990889Y525020D01*
X988296Y523522D01*
X986178Y521404D01*
X984680Y518811D01*
X983905Y515918D01*
Y512923D01*
X984680Y510029D01*
X986178Y507436D01*
X988296Y505318D01*
X990889Y503820D01*
X993783Y503045D01*
X996777D01*
X999671Y503820D01*
X1002264Y505318D01*
X1004382Y507436D01*
X1005880Y510029D01*
X1006655Y512923D01*
Y515918D01*
X1005880Y518811D01*
X1004382Y521404D01*
X1002264Y523522D01*
X999671Y525020D01*
X996777Y525795D01*
D02*
G37*
G36*
X971777D02*
X968783D01*
X965889Y525020D01*
X963296Y523522D01*
X961178Y521404D01*
X959680Y518811D01*
X958905Y515918D01*
Y512923D01*
X959680Y510029D01*
X961178Y507436D01*
X963296Y505318D01*
X965889Y503820D01*
X968783Y503045D01*
X971777D01*
X974671Y503820D01*
X977264Y505318D01*
X979382Y507436D01*
X980880Y510029D01*
X981655Y512923D01*
Y515918D01*
X980880Y518811D01*
X979382Y521404D01*
X977264Y523522D01*
X974671Y525020D01*
X971777Y525795D01*
D02*
G37*
G36*
X996777Y500795D02*
X993783D01*
X990889Y500020D01*
X988296Y498522D01*
X986178Y496404D01*
X984680Y493811D01*
X983905Y490918D01*
Y487923D01*
X984680Y485029D01*
X986178Y482436D01*
X988296Y480318D01*
X990889Y478820D01*
X993783Y478045D01*
X996777D01*
X999671Y478820D01*
X1002264Y480318D01*
X1004382Y482436D01*
X1005880Y485029D01*
X1006655Y487923D01*
Y490918D01*
X1005880Y493811D01*
X1004382Y496404D01*
X1002264Y498522D01*
X999671Y500020D01*
X996777Y500795D01*
D02*
G37*
G36*
X971777D02*
X968783D01*
X965889Y500020D01*
X963296Y498522D01*
X961178Y496404D01*
X959680Y493811D01*
X958905Y490918D01*
Y487923D01*
X959680Y485029D01*
X961178Y482436D01*
X963296Y480318D01*
X965889Y478820D01*
X968783Y478045D01*
X971777D01*
X974671Y478820D01*
X977264Y480318D01*
X979382Y482436D01*
X980880Y485029D01*
X981655Y487923D01*
Y490918D01*
X980880Y493811D01*
X979382Y496404D01*
X977264Y498522D01*
X974671Y500020D01*
X971777Y500795D01*
D02*
G37*
G36*
Y475795D02*
X968783D01*
X965889Y475020D01*
X963296Y473522D01*
X961178Y471404D01*
X959680Y468811D01*
X958905Y465918D01*
Y462923D01*
X959467Y460824D01*
X958430Y459787D01*
X957933Y459920D01*
X955827D01*
X953792Y459375D01*
X951968Y458322D01*
X950478Y456832D01*
X949425Y455008D01*
X948880Y452973D01*
Y450867D01*
X949425Y448832D01*
X950478Y447008D01*
X951968Y445518D01*
X953792Y444465D01*
X955827Y443920D01*
X957933D01*
X959968Y444465D01*
X961792Y445518D01*
X963282Y447008D01*
X964335Y448832D01*
X964880Y450867D01*
Y452973D01*
X964856Y453062D01*
X965372Y453458D01*
X965974Y453798D01*
X968783Y453045D01*
X971777D01*
X974671Y453820D01*
X977264Y455318D01*
X979382Y457436D01*
X980880Y460029D01*
X981655Y462923D01*
Y465918D01*
X980880Y468811D01*
X979382Y471404D01*
X977264Y473522D01*
X974671Y475020D01*
X971777Y475795D01*
D02*
G37*
G36*
X996777D02*
X993783D01*
X990889Y475020D01*
X988296Y473522D01*
X986178Y471404D01*
X984680Y468811D01*
X983905Y465918D01*
Y462923D01*
X984680Y460029D01*
X986178Y457436D01*
X988296Y455318D01*
X990889Y453820D01*
X993783Y453045D01*
X996777D01*
X999671Y453820D01*
X1002264Y455318D01*
X1004382Y457436D01*
X1005880Y460029D01*
X1006655Y462923D01*
Y465918D01*
X1005880Y468811D01*
X1004382Y471404D01*
X1002264Y473522D01*
X999671Y475020D01*
X996777Y475795D01*
D02*
G37*
G36*
X1289945Y453170D02*
X1288155D01*
X1286501Y452485D01*
X1285235Y451219D01*
X1284550Y449565D01*
Y447775D01*
X1285235Y446121D01*
X1286501Y444855D01*
X1288155Y444170D01*
X1289945D01*
X1291599Y444855D01*
X1292865Y446121D01*
X1293550Y447775D01*
Y449565D01*
X1292865Y451219D01*
X1291599Y452485D01*
X1289945Y453170D01*
D02*
G37*
G36*
X418725Y438840D02*
X416935D01*
X415281Y438155D01*
X414015Y436889D01*
X413330Y435235D01*
Y433445D01*
X414015Y431791D01*
X415281Y430525D01*
X416935Y429840D01*
X418725D01*
X420379Y430525D01*
X421645Y431791D01*
X422330Y433445D01*
Y435235D01*
X421645Y436889D01*
X420379Y438155D01*
X418725Y438840D01*
D02*
G37*
G36*
X996777Y450795D02*
X993783D01*
X990889Y450020D01*
X988296Y448522D01*
X986178Y446404D01*
X984680Y443811D01*
X983905Y440918D01*
Y437923D01*
X984680Y435029D01*
X986178Y432436D01*
X988296Y430318D01*
X990889Y428820D01*
X993783Y428045D01*
X996777D01*
X999671Y428820D01*
X1002264Y430318D01*
X1004382Y432436D01*
X1005880Y435029D01*
X1006655Y437923D01*
Y440918D01*
X1005880Y443811D01*
X1004382Y446404D01*
X1002264Y448522D01*
X999671Y450020D01*
X996777Y450795D01*
D02*
G37*
G36*
X1471288Y449195D02*
X1468293D01*
X1465399Y448420D01*
X1462806Y446922D01*
X1460688Y444804D01*
X1459190Y442211D01*
X1458415Y439318D01*
Y436323D01*
X1459190Y433429D01*
X1460688Y430836D01*
X1462806Y428718D01*
X1465399Y427220D01*
X1468293Y426445D01*
X1471288D01*
X1474181Y427220D01*
X1476774Y428718D01*
X1478892Y430836D01*
X1480390Y433429D01*
X1481165Y436323D01*
Y439318D01*
X1480390Y442211D01*
X1478892Y444804D01*
X1476774Y446922D01*
X1474181Y448420D01*
X1471288Y449195D01*
D02*
G37*
G36*
X996777Y425795D02*
X993783D01*
X990889Y425020D01*
X988296Y423522D01*
X986178Y421404D01*
X984680Y418811D01*
X983905Y415918D01*
Y412923D01*
X984680Y410029D01*
X986178Y407436D01*
X988296Y405318D01*
X990889Y403820D01*
X993783Y403045D01*
X996777D01*
X999671Y403820D01*
X1002264Y405318D01*
X1004382Y407436D01*
X1005880Y410029D01*
X1006655Y412923D01*
Y415918D01*
X1005880Y418811D01*
X1004382Y421404D01*
X1002264Y423522D01*
X999671Y425020D01*
X996777Y425795D01*
D02*
G37*
G36*
X971777D02*
X968783D01*
X965889Y425020D01*
X963296Y423522D01*
X961178Y421404D01*
X959680Y418811D01*
X958905Y415918D01*
Y412923D01*
X959680Y410029D01*
X961178Y407436D01*
X963296Y405318D01*
X965889Y403820D01*
X968783Y403045D01*
X971777D01*
X974671Y403820D01*
X977264Y405318D01*
X979382Y407436D01*
X980880Y410029D01*
X981655Y412923D01*
Y415918D01*
X980880Y418811D01*
X979382Y421404D01*
X977264Y423522D01*
X974671Y425020D01*
X971777Y425795D01*
D02*
G37*
G36*
X1496288Y424195D02*
X1493293D01*
X1490399Y423420D01*
X1487806Y421922D01*
X1485688Y419804D01*
X1484190Y417211D01*
X1483415Y414318D01*
Y411323D01*
X1484190Y408429D01*
X1485688Y405836D01*
X1487806Y403718D01*
X1490399Y402220D01*
X1493293Y401445D01*
X1496288D01*
X1499181Y402220D01*
X1501774Y403718D01*
X1503892Y405836D01*
X1505390Y408429D01*
X1506165Y411323D01*
Y414318D01*
X1505390Y417211D01*
X1503892Y419804D01*
X1501774Y421922D01*
X1499181Y423420D01*
X1496288Y424195D01*
D02*
G37*
G36*
X1471288D02*
X1468293D01*
X1465399Y423420D01*
X1462806Y421922D01*
X1460688Y419804D01*
X1459190Y417211D01*
X1458415Y414318D01*
Y411323D01*
X1459190Y408429D01*
X1460688Y405836D01*
X1462806Y403718D01*
X1465399Y402220D01*
X1468293Y401445D01*
X1471288D01*
X1474181Y402220D01*
X1476774Y403718D01*
X1478892Y405836D01*
X1480390Y408429D01*
X1481165Y411323D01*
Y414318D01*
X1480390Y417211D01*
X1478892Y419804D01*
X1476774Y421922D01*
X1474181Y423420D01*
X1471288Y424195D01*
D02*
G37*
G36*
X466985Y407090D02*
X465195D01*
X463541Y406405D01*
X462275Y405139D01*
X461590Y403485D01*
Y401695D01*
X462275Y400041D01*
X463541Y398775D01*
X465195Y398090D01*
X466985D01*
X468639Y398775D01*
X469905Y400041D01*
X470590Y401695D01*
Y403485D01*
X469905Y405139D01*
X468639Y406405D01*
X466985Y407090D01*
D02*
G37*
G36*
X494925Y400740D02*
X493135D01*
X491481Y400055D01*
X490215Y398789D01*
X489530Y397135D01*
Y395345D01*
X490215Y393691D01*
X491481Y392425D01*
X493135Y391740D01*
X494925D01*
X496579Y392425D01*
X497845Y393691D01*
X498530Y395345D01*
Y397135D01*
X497845Y398789D01*
X496579Y400055D01*
X494925Y400740D01*
D02*
G37*
G36*
X996777Y400795D02*
X993783D01*
X990889Y400020D01*
X988296Y398522D01*
X986178Y396404D01*
X984680Y393811D01*
X983905Y390918D01*
Y387923D01*
X984680Y385029D01*
X986178Y382436D01*
X988296Y380318D01*
X990889Y378820D01*
X993783Y378045D01*
X996777D01*
X999671Y378820D01*
X1002264Y380318D01*
X1004382Y382436D01*
X1005880Y385029D01*
X1006655Y387923D01*
Y390918D01*
X1005880Y393811D01*
X1004382Y396404D01*
X1002264Y398522D01*
X999671Y400020D01*
X996777Y400795D01*
D02*
G37*
G36*
X971777D02*
X968783D01*
X965889Y400020D01*
X963296Y398522D01*
X961178Y396404D01*
X959680Y393811D01*
X958905Y390918D01*
Y387923D01*
X959680Y385029D01*
X961178Y382436D01*
X963296Y380318D01*
X965889Y378820D01*
X968783Y378045D01*
X971777D01*
X974671Y378820D01*
X977264Y380318D01*
X979382Y382436D01*
X980880Y385029D01*
X981655Y387923D01*
Y390918D01*
X980880Y393811D01*
X979382Y396404D01*
X977264Y398522D01*
X974671Y400020D01*
X971777Y400795D01*
D02*
G37*
G36*
X1471288Y399195D02*
X1468293D01*
X1465399Y398420D01*
X1462806Y396922D01*
X1460688Y394804D01*
X1459190Y392211D01*
X1458415Y389318D01*
Y386323D01*
X1459190Y383429D01*
X1460688Y380836D01*
X1462806Y378718D01*
X1465399Y377220D01*
X1468293Y376445D01*
X1471288D01*
X1474181Y377220D01*
X1476774Y378718D01*
X1478892Y380836D01*
X1480390Y383429D01*
X1481165Y386323D01*
Y389318D01*
X1480390Y392211D01*
X1478892Y394804D01*
X1476774Y396922D01*
X1474181Y398420D01*
X1471288Y399195D01*
D02*
G37*
G36*
X1496288D02*
X1493293D01*
X1490399Y398420D01*
X1487806Y396922D01*
X1485688Y394804D01*
X1484190Y392211D01*
X1483415Y389318D01*
Y386323D01*
X1484190Y383429D01*
X1485688Y380836D01*
X1487806Y378718D01*
X1490399Y377220D01*
X1493293Y376445D01*
X1496288D01*
X1499096Y377198D01*
X1499698Y376858D01*
X1500214Y376462D01*
X1500190Y376373D01*
Y374267D01*
X1500214Y374178D01*
X1499698Y373782D01*
X1499096Y373442D01*
X1496288Y374195D01*
X1493293D01*
X1490399Y373420D01*
X1487806Y371922D01*
X1485688Y369804D01*
X1484190Y367211D01*
X1483415Y364318D01*
Y361323D01*
X1484190Y358429D01*
X1485688Y355836D01*
X1487806Y353718D01*
X1490399Y352220D01*
X1493293Y351445D01*
X1496288D01*
X1499181Y352220D01*
X1501774Y353718D01*
X1503892Y355836D01*
X1505390Y358429D01*
X1506165Y361323D01*
Y364318D01*
X1505603Y366416D01*
X1506640Y367453D01*
X1507137Y367320D01*
X1509243D01*
X1511278Y367865D01*
X1513102Y368918D01*
X1514592Y370408D01*
X1515645Y372232D01*
X1516190Y374267D01*
Y376373D01*
X1515645Y378408D01*
X1514592Y380232D01*
X1513102Y381722D01*
X1511278Y382775D01*
X1509243Y383320D01*
X1507137D01*
X1506640Y383187D01*
X1505603Y384224D01*
X1506165Y386323D01*
Y389318D01*
X1505390Y392211D01*
X1503892Y394804D01*
X1501774Y396922D01*
X1499181Y398420D01*
X1496288Y399195D01*
D02*
G37*
G36*
X1418215Y380420D02*
X1416425D01*
X1414771Y379735D01*
X1413505Y378469D01*
X1412820Y376815D01*
Y375025D01*
X1413505Y373371D01*
X1414771Y372105D01*
X1416425Y371420D01*
X1418215D01*
X1419869Y372105D01*
X1421135Y373371D01*
X1421820Y375025D01*
Y376815D01*
X1421135Y378469D01*
X1419869Y379735D01*
X1418215Y380420D01*
D02*
G37*
G36*
X1382295Y378240D02*
X1380505D01*
X1378851Y377555D01*
X1377585Y376289D01*
X1376900Y374635D01*
Y372845D01*
X1377585Y371191D01*
X1378851Y369925D01*
X1380505Y369240D01*
X1382295D01*
X1383949Y369925D01*
X1385215Y371191D01*
X1385900Y372845D01*
Y374635D01*
X1385215Y376289D01*
X1383949Y377555D01*
X1382295Y378240D01*
D02*
G37*
G36*
X482225Y366450D02*
X480435D01*
X478781Y365765D01*
X477515Y364499D01*
X476830Y362845D01*
Y361055D01*
X477515Y359401D01*
X478781Y358135D01*
X480435Y357450D01*
X482225D01*
X483879Y358135D01*
X485145Y359401D01*
X485830Y361055D01*
Y362845D01*
X485145Y364499D01*
X483879Y365765D01*
X482225Y366450D01*
D02*
G37*
G36*
X1471288Y374195D02*
X1468293D01*
X1465399Y373420D01*
X1462806Y371922D01*
X1460688Y369804D01*
X1459190Y367211D01*
X1458415Y364318D01*
Y361323D01*
X1459190Y358429D01*
X1460688Y355836D01*
X1462806Y353718D01*
X1465399Y352220D01*
X1468293Y351445D01*
X1471288D01*
X1474181Y352220D01*
X1476774Y353718D01*
X1478892Y355836D01*
X1480390Y358429D01*
X1481165Y361323D01*
Y364318D01*
X1480390Y367211D01*
X1478892Y369804D01*
X1476774Y371922D01*
X1474181Y373420D01*
X1471288Y374195D01*
D02*
G37*
G36*
X1496288Y349195D02*
X1493293D01*
X1490399Y348420D01*
X1487806Y346922D01*
X1485688Y344804D01*
X1484190Y342211D01*
X1483415Y339318D01*
Y336323D01*
X1484190Y333429D01*
X1485688Y330836D01*
X1487806Y328718D01*
X1490399Y327220D01*
X1493293Y326445D01*
X1496288D01*
X1499181Y327220D01*
X1501774Y328718D01*
X1503892Y330836D01*
X1505390Y333429D01*
X1506165Y336323D01*
Y339318D01*
X1505390Y342211D01*
X1503892Y344804D01*
X1501774Y346922D01*
X1499181Y348420D01*
X1496288Y349195D01*
D02*
G37*
G36*
X1471288D02*
X1468293D01*
X1465399Y348420D01*
X1462806Y346922D01*
X1460688Y344804D01*
X1459190Y342211D01*
X1458415Y339318D01*
Y336323D01*
X1459190Y333429D01*
X1460688Y330836D01*
X1462806Y328718D01*
X1465399Y327220D01*
X1468293Y326445D01*
X1471288D01*
X1474181Y327220D01*
X1476774Y328718D01*
X1478892Y330836D01*
X1480390Y333429D01*
X1481165Y336323D01*
Y339318D01*
X1480390Y342211D01*
X1478892Y344804D01*
X1476774Y346922D01*
X1474181Y348420D01*
X1471288Y349195D01*
D02*
G37*
G36*
X1423295Y313110D02*
X1421505D01*
X1419851Y312425D01*
X1418585Y311159D01*
X1417900Y309505D01*
Y307715D01*
X1418585Y306061D01*
X1419851Y304795D01*
X1421505Y304110D01*
X1423295D01*
X1424949Y304795D01*
X1426215Y306061D01*
X1426900Y307715D01*
Y309505D01*
X1426215Y311159D01*
X1424949Y312425D01*
X1423295Y313110D01*
D02*
G37*
G36*
X416185Y311840D02*
X414395D01*
X412741Y311155D01*
X411475Y309889D01*
X410790Y308235D01*
Y306445D01*
X411475Y304791D01*
X412741Y303525D01*
X414395Y302840D01*
X416185D01*
X417839Y303525D01*
X419105Y304791D01*
X419790Y306445D01*
Y308235D01*
X419105Y309889D01*
X417839Y311155D01*
X416185Y311840D01*
D02*
G37*
G36*
X1496288Y324195D02*
X1493293D01*
X1490399Y323420D01*
X1487806Y321922D01*
X1485688Y319804D01*
X1484190Y317211D01*
X1483415Y314317D01*
Y311322D01*
X1484190Y308429D01*
X1485688Y305836D01*
X1487806Y303718D01*
X1490399Y302220D01*
X1493293Y301445D01*
X1496288D01*
X1499181Y302220D01*
X1501774Y303718D01*
X1503892Y305836D01*
X1505390Y308429D01*
X1506165Y311322D01*
Y314317D01*
X1505390Y317211D01*
X1503892Y319804D01*
X1501774Y321922D01*
X1499181Y323420D01*
X1496288Y324195D01*
D02*
G37*
G36*
X1471288D02*
X1468293D01*
X1465399Y323420D01*
X1462806Y321922D01*
X1460688Y319804D01*
X1459190Y317211D01*
X1458415Y314317D01*
Y311322D01*
X1459190Y308429D01*
X1460688Y305836D01*
X1462806Y303718D01*
X1465399Y302220D01*
X1468293Y301445D01*
X1471288D01*
X1474181Y302220D01*
X1476774Y303718D01*
X1478892Y305836D01*
X1480390Y308429D01*
X1481165Y311322D01*
Y314317D01*
X1480390Y317211D01*
X1478892Y319804D01*
X1476774Y321922D01*
X1474181Y323420D01*
X1471288Y324195D01*
D02*
G37*
G36*
X400945Y273740D02*
X399155D01*
X397501Y273055D01*
X396235Y271789D01*
X395550Y270135D01*
Y268345D01*
X396235Y266691D01*
X397501Y265425D01*
X399155Y264740D01*
X400945D01*
X402599Y265425D01*
X403865Y266691D01*
X404550Y268345D01*
Y270135D01*
X403865Y271789D01*
X402599Y273055D01*
X400945Y273740D01*
D02*
G37*
G36*
X398405Y262310D02*
X396615D01*
X394961Y261625D01*
X393695Y260359D01*
X393010Y258705D01*
Y256915D01*
X393695Y255261D01*
X394961Y253995D01*
X396615Y253310D01*
X398405D01*
X400059Y253995D01*
X401325Y255261D01*
X402010Y256915D01*
Y258705D01*
X401325Y260359D01*
X400059Y261625D01*
X398405Y262310D01*
D02*
G37*
G36*
X611765Y259770D02*
X609975D01*
X608321Y259085D01*
X607055Y257819D01*
X606370Y256165D01*
Y254375D01*
X607055Y252721D01*
X608321Y251455D01*
X609975Y250770D01*
X611765D01*
X613419Y251455D01*
X614685Y252721D01*
X615370Y254375D01*
Y256165D01*
X614685Y257819D01*
X613419Y259085D01*
X611765Y259770D01*
D02*
G37*
G36*
X1468748Y269655D02*
X1465753D01*
X1462859Y268880D01*
X1460266Y267382D01*
X1458148Y265264D01*
X1456650Y262671D01*
X1455875Y259778D01*
Y256782D01*
X1456650Y253889D01*
X1458148Y251296D01*
X1460266Y249178D01*
X1462859Y247680D01*
X1465753Y246905D01*
X1468748D01*
X1471641Y247680D01*
X1474234Y249178D01*
X1476352Y251296D01*
X1477850Y253889D01*
X1478625Y256782D01*
Y259778D01*
X1477850Y262671D01*
X1476352Y265264D01*
X1474234Y267382D01*
X1471641Y268880D01*
X1468748Y269655D01*
D02*
G37*
G36*
X353955Y248340D02*
X352165D01*
X350511Y247655D01*
X349245Y246389D01*
X348560Y244735D01*
Y242945D01*
X349245Y241291D01*
X350511Y240025D01*
X352165Y239340D01*
X353955D01*
X355609Y240025D01*
X356875Y241291D01*
X357560Y242945D01*
Y244735D01*
X356875Y246389D01*
X355609Y247655D01*
X353955Y248340D01*
D02*
G37*
G36*
X599065Y244530D02*
X597275D01*
X595621Y243845D01*
X594355Y242579D01*
X593670Y240925D01*
Y239135D01*
X594355Y237481D01*
X595621Y236215D01*
X597275Y235530D01*
X599065D01*
X600719Y236215D01*
X601985Y237481D01*
X602670Y239135D01*
Y240925D01*
X601985Y242579D01*
X600719Y243845D01*
X599065Y244530D01*
D02*
G37*
G36*
X1319155Y239450D02*
X1317365D01*
X1315711Y238765D01*
X1314445Y237499D01*
X1313760Y235845D01*
Y234055D01*
X1314445Y232401D01*
X1315711Y231135D01*
X1317365Y230450D01*
X1319155D01*
X1320809Y231135D01*
X1322075Y232401D01*
X1322760Y234055D01*
Y235845D01*
X1322075Y237499D01*
X1320809Y238765D01*
X1319155Y239450D01*
D02*
G37*
G36*
X1468748Y244655D02*
X1465753D01*
X1462859Y243880D01*
X1460266Y242382D01*
X1458148Y240264D01*
X1456650Y237671D01*
X1455875Y234778D01*
Y231782D01*
X1456650Y228889D01*
X1458148Y226296D01*
X1460266Y224178D01*
X1462859Y222680D01*
X1465753Y221905D01*
X1468748D01*
X1471641Y222680D01*
X1474234Y224178D01*
X1476352Y226296D01*
X1477850Y228889D01*
X1478625Y231782D01*
Y234778D01*
X1477850Y237671D01*
X1476352Y240264D01*
X1474234Y242382D01*
X1471641Y243880D01*
X1468748Y244655D01*
D02*
G37*
G36*
X1330765Y229290D02*
X1328975D01*
X1327321Y228605D01*
X1326055Y227339D01*
X1325614Y226274D01*
D01*
X1325370Y225685D01*
Y223895D01*
X1326055Y222241D01*
X1327321Y220975D01*
X1328975Y220290D01*
X1330765D01*
X1332419Y220975D01*
X1333685Y222241D01*
X1334370Y223895D01*
Y225685D01*
X1333685Y227339D01*
X1332419Y228605D01*
X1330765Y229290D01*
D02*
G37*
G36*
X630815Y222940D02*
X629025D01*
X627371Y222255D01*
X626105Y220989D01*
X625420Y219335D01*
Y217545D01*
X626105Y215891D01*
X627371Y214625D01*
X629025Y213940D01*
X630815D01*
X632469Y214625D01*
X633735Y215891D01*
X634420Y217545D01*
Y219335D01*
X633735Y220989D01*
X632469Y222255D01*
X630815Y222940D01*
D02*
G37*
G36*
X389862Y222634D02*
X388072D01*
X386418Y221949D01*
X385152Y220683D01*
X384467Y219029D01*
Y217239D01*
X385152Y215585D01*
X386418Y214319D01*
X388072Y213634D01*
X389862D01*
X391516Y214319D01*
X392782Y215585D01*
X393467Y217239D01*
Y219029D01*
X392782Y220683D01*
X391516Y221949D01*
X389862Y222634D01*
D02*
G37*
G36*
X630815Y210240D02*
X629025D01*
X627371Y209555D01*
X626105Y208289D01*
X625420Y206635D01*
Y204845D01*
X626105Y203191D01*
X627371Y201925D01*
X629025Y201240D01*
X630815D01*
X632469Y201925D01*
X633735Y203191D01*
X634420Y204845D01*
Y206635D01*
X633735Y208289D01*
X632469Y209555D01*
X630815Y210240D01*
D02*
G37*
G36*
X1468748Y219655D02*
X1465753D01*
X1462859Y218880D01*
X1460266Y217382D01*
X1458148Y215264D01*
X1456650Y212671D01*
X1455875Y209778D01*
Y206782D01*
X1456650Y203889D01*
X1458148Y201296D01*
X1460266Y199178D01*
X1462859Y197680D01*
X1465753Y196905D01*
X1468748D01*
X1471641Y197680D01*
X1474234Y199178D01*
X1476352Y201296D01*
X1477850Y203889D01*
X1478625Y206782D01*
Y209778D01*
X1477850Y212671D01*
X1476352Y215264D01*
X1474234Y217382D01*
X1471641Y218880D01*
X1468748Y219655D01*
D02*
G37*
G36*
X1493748D02*
X1490753D01*
X1487859Y218880D01*
X1485266Y217382D01*
X1483148Y215264D01*
X1481650Y212671D01*
X1480875Y209778D01*
Y206782D01*
X1481650Y203889D01*
X1483148Y201296D01*
X1485266Y199178D01*
X1487859Y197680D01*
X1490753Y196905D01*
X1493748D01*
X1496556Y197658D01*
X1497158Y197318D01*
X1497674Y196922D01*
X1497650Y196833D01*
Y194727D01*
X1497674Y194638D01*
X1497158Y194242D01*
X1496556Y193902D01*
X1493748Y194655D01*
X1490753D01*
X1487859Y193880D01*
X1485266Y192382D01*
X1483148Y190264D01*
X1481650Y187671D01*
X1480875Y184778D01*
Y181782D01*
X1481650Y178889D01*
X1483148Y176296D01*
X1485266Y174178D01*
X1487859Y172680D01*
X1490753Y171905D01*
X1493748D01*
X1496641Y172680D01*
X1499234Y174178D01*
X1501352Y176296D01*
X1502850Y178889D01*
X1503625Y181782D01*
Y184778D01*
X1503063Y186876D01*
X1504100Y187913D01*
X1504597Y187780D01*
X1506703D01*
X1508738Y188325D01*
X1510562Y189378D01*
X1512052Y190868D01*
X1513105Y192692D01*
X1513650Y194727D01*
Y196833D01*
X1513105Y198868D01*
X1512052Y200692D01*
X1510562Y202182D01*
X1508738Y203235D01*
X1506703Y203780D01*
X1504597D01*
X1504100Y203647D01*
X1503063Y204684D01*
X1503625Y206782D01*
Y209778D01*
X1502850Y212671D01*
X1501352Y215264D01*
X1499234Y217382D01*
X1496641Y218880D01*
X1493748Y219655D01*
D02*
G37*
G36*
X630815Y197540D02*
X629025D01*
X627371Y196855D01*
X626105Y195589D01*
X625420Y193935D01*
Y192145D01*
X626105Y190491D01*
X627371Y189225D01*
X629025Y188540D01*
X630815D01*
X632469Y189225D01*
X633735Y190491D01*
X634420Y192145D01*
Y193935D01*
X633735Y195589D01*
X632469Y196855D01*
X630815Y197540D01*
D02*
G37*
G36*
X1395075Y194720D02*
X1393285D01*
X1391631Y194035D01*
X1390365Y192769D01*
X1389680Y191115D01*
Y189325D01*
X1390365Y187671D01*
X1391631Y186405D01*
X1393285Y185720D01*
X1395075D01*
X1396729Y186405D01*
X1397995Y187671D01*
X1398680Y189325D01*
Y191115D01*
X1397995Y192769D01*
X1396729Y194035D01*
X1395075Y194720D01*
D02*
G37*
G36*
X1468748Y194655D02*
X1465753D01*
X1462859Y193880D01*
X1460266Y192382D01*
X1458148Y190264D01*
X1456650Y187671D01*
X1455875Y184778D01*
Y181782D01*
X1456650Y178889D01*
X1458148Y176296D01*
X1460266Y174178D01*
X1462859Y172680D01*
X1465753Y171905D01*
X1468748D01*
X1471641Y172680D01*
X1474234Y174178D01*
X1476352Y176296D01*
X1477850Y178889D01*
X1478625Y181782D01*
Y184778D01*
X1477850Y187671D01*
X1476352Y190264D01*
X1474234Y192382D01*
X1471641Y193880D01*
X1468748Y194655D01*
D02*
G37*
G36*
X1493748Y169655D02*
X1490753D01*
X1487859Y168880D01*
X1485266Y167382D01*
X1483148Y165264D01*
X1481650Y162671D01*
X1480875Y159777D01*
Y156783D01*
X1481650Y153889D01*
X1483148Y151296D01*
X1485266Y149178D01*
X1487859Y147680D01*
X1490753Y146905D01*
X1493748D01*
X1496641Y147680D01*
X1499234Y149178D01*
X1501352Y151296D01*
X1502850Y153889D01*
X1503625Y156783D01*
Y159777D01*
X1502850Y162671D01*
X1501352Y165264D01*
X1499234Y167382D01*
X1496641Y168880D01*
X1493748Y169655D01*
D02*
G37*
G36*
X1468748D02*
X1465753D01*
X1462859Y168880D01*
X1460266Y167382D01*
X1458148Y165264D01*
X1456650Y162671D01*
X1455875Y159777D01*
Y156783D01*
X1456650Y153889D01*
X1458148Y151296D01*
X1460266Y149178D01*
X1462859Y147680D01*
X1465753Y146905D01*
X1468748D01*
X1471641Y147680D01*
X1474234Y149178D01*
X1476352Y151296D01*
X1477850Y153889D01*
X1478625Y156783D01*
Y159777D01*
X1477850Y162671D01*
X1476352Y165264D01*
X1474234Y167382D01*
X1471641Y168880D01*
X1468748Y169655D01*
D02*
G37*
G36*
X323475Y151820D02*
X321685D01*
X320031Y151135D01*
X318765Y149869D01*
X318080Y148215D01*
Y146425D01*
X318765Y144771D01*
X320031Y143505D01*
X321685Y142820D01*
X323475D01*
X325129Y143505D01*
X326395Y144771D01*
X327080Y146425D01*
Y148215D01*
X326395Y149869D01*
X325129Y151135D01*
X323475Y151820D01*
D02*
G37*
G36*
X332365Y142930D02*
X330575D01*
X328921Y142245D01*
X327655Y140979D01*
X326970Y139325D01*
Y137535D01*
X327655Y135881D01*
X328921Y134615D01*
X330575Y133930D01*
X332365D01*
X334019Y134615D01*
X335285Y135881D01*
X335970Y137535D01*
Y139325D01*
X335285Y140979D01*
X334019Y142245D01*
X332365Y142930D01*
D02*
G37*
G36*
X1493748Y144655D02*
X1490753D01*
X1487859Y143880D01*
X1485266Y142382D01*
X1483148Y140264D01*
X1481650Y137671D01*
X1480875Y134777D01*
Y131783D01*
X1481650Y128889D01*
X1483148Y126296D01*
X1485266Y124178D01*
X1487859Y122680D01*
X1490753Y121905D01*
X1493748D01*
X1496641Y122680D01*
X1499234Y124178D01*
X1501352Y126296D01*
X1502850Y128889D01*
X1503625Y131783D01*
Y134777D01*
X1502850Y137671D01*
X1501352Y140264D01*
X1499234Y142382D01*
X1496641Y143880D01*
X1493748Y144655D01*
D02*
G37*
G36*
X1468748D02*
X1465753D01*
X1462859Y143880D01*
X1460266Y142382D01*
X1458148Y140264D01*
X1456650Y137671D01*
X1455875Y134777D01*
Y131783D01*
X1456650Y128889D01*
X1458148Y126296D01*
X1460266Y124178D01*
X1462859Y122680D01*
X1465753Y121905D01*
X1468748D01*
X1471641Y122680D01*
X1474234Y124178D01*
X1476352Y126296D01*
X1477850Y128889D01*
X1478625Y131783D01*
Y134777D01*
X1477850Y137671D01*
X1476352Y140264D01*
X1474234Y142382D01*
X1471641Y143880D01*
X1468748Y144655D01*
D02*
G37*
G36*
X570745Y105000D02*
X568955D01*
X567301Y104315D01*
X566035Y103049D01*
X565350Y101395D01*
Y99605D01*
X566035Y97951D01*
X567301Y96685D01*
X568955Y96000D01*
X570745D01*
X572399Y96685D01*
X573665Y97951D01*
X574350Y99605D01*
Y101395D01*
X573665Y103049D01*
X572399Y104315D01*
X570745Y105000D01*
D02*
G37*
G36*
X583825Y104830D02*
X582035D01*
X580381Y104145D01*
X579115Y102879D01*
X578430Y101225D01*
Y99435D01*
X579115Y97781D01*
X580381Y96515D01*
X582035Y95830D01*
X583825D01*
X585479Y96515D01*
X586745Y97781D01*
X587430Y99435D01*
Y101225D01*
X586745Y102879D01*
X585479Y104145D01*
X583825Y104830D01*
D02*
G37*
G36*
X1189173Y102900D02*
X1187067D01*
X1185032Y102355D01*
X1183208Y101302D01*
X1181718Y99812D01*
X1180665Y97988D01*
X1180120Y95953D01*
Y93847D01*
X1180253Y93350D01*
X1179216Y92313D01*
X1177117Y92875D01*
X1174122D01*
X1171229Y92100D01*
X1168636Y90602D01*
X1166518Y88484D01*
X1165020Y85891D01*
X1164245Y82998D01*
Y80002D01*
X1165020Y77109D01*
X1166518Y74516D01*
X1168636Y72398D01*
X1171229Y70900D01*
X1174122Y70125D01*
X1177117D01*
X1180011Y70900D01*
X1182604Y72398D01*
X1184722Y74516D01*
X1186220Y77109D01*
X1186995Y80002D01*
Y82998D01*
X1186242Y85806D01*
X1186290Y85891D01*
X1186582Y86408D01*
X1186978Y86924D01*
X1187067Y86900D01*
X1189173D01*
X1189262Y86924D01*
X1189658Y86408D01*
X1189998Y85806D01*
X1189245Y82998D01*
Y80002D01*
X1190020Y77109D01*
X1191518Y74516D01*
X1193636Y72398D01*
X1196229Y70900D01*
X1199122Y70125D01*
X1202117D01*
X1205011Y70900D01*
X1207604Y72398D01*
X1209722Y74516D01*
X1211220Y77109D01*
X1211995Y80002D01*
Y82998D01*
X1211220Y85891D01*
X1209722Y88484D01*
X1207604Y90602D01*
X1205011Y92100D01*
X1202117Y92875D01*
X1199122D01*
X1197024Y92313D01*
X1195987Y93350D01*
X1196120Y93847D01*
Y95953D01*
X1195575Y97988D01*
X1194522Y99812D01*
X1193032Y101302D01*
X1191208Y102355D01*
X1189173Y102900D01*
D02*
G37*
G36*
X1252117Y92875D02*
X1249122D01*
X1246229Y92100D01*
X1243636Y90602D01*
X1241518Y88484D01*
X1240020Y85891D01*
X1239245Y82998D01*
Y80002D01*
X1240020Y77109D01*
X1241518Y74516D01*
X1243636Y72398D01*
X1246229Y70900D01*
X1249122Y70125D01*
X1252117D01*
X1255011Y70900D01*
X1257604Y72398D01*
X1259722Y74516D01*
X1261220Y77109D01*
X1261995Y80002D01*
Y82998D01*
X1261220Y85891D01*
X1259722Y88484D01*
X1257604Y90602D01*
X1255011Y92100D01*
X1252117Y92875D01*
D02*
G37*
G36*
X1227117D02*
X1224122D01*
X1221229Y92100D01*
X1218636Y90602D01*
X1216518Y88484D01*
X1215020Y85891D01*
X1214245Y82998D01*
Y80002D01*
X1215020Y77109D01*
X1216518Y74516D01*
X1218636Y72398D01*
X1221229Y70900D01*
X1224122Y70125D01*
X1227117D01*
X1230011Y70900D01*
X1232604Y72398D01*
X1234722Y74516D01*
X1236220Y77109D01*
X1236995Y80002D01*
Y82998D01*
X1236220Y85891D01*
X1234722Y88484D01*
X1232604Y90602D01*
X1230011Y92100D01*
X1227117Y92875D01*
D02*
G37*
G36*
X1152117D02*
X1149122D01*
X1146229Y92100D01*
X1143636Y90602D01*
X1141518Y88484D01*
X1140020Y85891D01*
X1139245Y82998D01*
Y80002D01*
X1140020Y77109D01*
X1141518Y74516D01*
X1143636Y72398D01*
X1146229Y70900D01*
X1149122Y70125D01*
X1152117D01*
X1155011Y70900D01*
X1157604Y72398D01*
X1159722Y74516D01*
X1161220Y77109D01*
X1161995Y80002D01*
Y82998D01*
X1161220Y85891D01*
X1159722Y88484D01*
X1157604Y90602D01*
X1155011Y92100D01*
X1152117Y92875D01*
D02*
G37*
G36*
X1127117D02*
X1124122D01*
X1121229Y92100D01*
X1118636Y90602D01*
X1116518Y88484D01*
X1115020Y85891D01*
X1114245Y82998D01*
Y80002D01*
X1115020Y77109D01*
X1116518Y74516D01*
X1118636Y72398D01*
X1121229Y70900D01*
X1124122Y70125D01*
X1127117D01*
X1130011Y70900D01*
X1132604Y72398D01*
X1134722Y74516D01*
X1136220Y77109D01*
X1136995Y80002D01*
Y82998D01*
X1136220Y85891D01*
X1134722Y88484D01*
X1132604Y90602D01*
X1130011Y92100D01*
X1127117Y92875D01*
D02*
G37*
G36*
X1252117Y67875D02*
X1249122D01*
X1246229Y67100D01*
X1243636Y65602D01*
X1241518Y63484D01*
X1240020Y60891D01*
X1239245Y57997D01*
Y55002D01*
X1240020Y52109D01*
X1241518Y49516D01*
X1243636Y47398D01*
X1246229Y45900D01*
X1249122Y45125D01*
X1252117D01*
X1255011Y45900D01*
X1257604Y47398D01*
X1259722Y49516D01*
X1261220Y52109D01*
X1261995Y55002D01*
Y57997D01*
X1261220Y60891D01*
X1259722Y63484D01*
X1257604Y65602D01*
X1255011Y67100D01*
X1252117Y67875D01*
D02*
G37*
G36*
X1227117D02*
X1224122D01*
X1221229Y67100D01*
X1218636Y65602D01*
X1216518Y63484D01*
X1215020Y60891D01*
X1214245Y57997D01*
Y55002D01*
X1215020Y52109D01*
X1216518Y49516D01*
X1218636Y47398D01*
X1221229Y45900D01*
X1224122Y45125D01*
X1227117D01*
X1230011Y45900D01*
X1232604Y47398D01*
X1234722Y49516D01*
X1236220Y52109D01*
X1236995Y55002D01*
Y57997D01*
X1236220Y60891D01*
X1234722Y63484D01*
X1232604Y65602D01*
X1230011Y67100D01*
X1227117Y67875D01*
D02*
G37*
G36*
X1202117D02*
X1199122D01*
X1196229Y67100D01*
X1193636Y65602D01*
X1191518Y63484D01*
X1190020Y60891D01*
X1189245Y57997D01*
Y55002D01*
X1190020Y52109D01*
X1191518Y49516D01*
X1193636Y47398D01*
X1196229Y45900D01*
X1199122Y45125D01*
X1202117D01*
X1205011Y45900D01*
X1207604Y47398D01*
X1209722Y49516D01*
X1211220Y52109D01*
X1211995Y55002D01*
Y57997D01*
X1211220Y60891D01*
X1209722Y63484D01*
X1207604Y65602D01*
X1205011Y67100D01*
X1202117Y67875D01*
D02*
G37*
%LPD*%
D40*
X1175620Y56500D02*
D03*
X970280Y439420D02*
D03*
X1494790Y437820D02*
D03*
X1469790D02*
D03*
Y412820D02*
D03*
Y387820D02*
D03*
Y362820D02*
D03*
Y337820D02*
D03*
Y312820D02*
D03*
X1494790Y412820D02*
D03*
Y387820D02*
D03*
Y362820D02*
D03*
Y337820D02*
D03*
Y312820D02*
D03*
X1467250Y258280D02*
D03*
Y233280D02*
D03*
Y208280D02*
D03*
Y183280D02*
D03*
Y158280D02*
D03*
Y133280D02*
D03*
X1492250Y258280D02*
D03*
Y233280D02*
D03*
Y208280D02*
D03*
Y183280D02*
D03*
Y158280D02*
D03*
Y133280D02*
D03*
X1125620Y56500D02*
D03*
X1150620D02*
D03*
X1200620D02*
D03*
X1225620D02*
D03*
X1250620D02*
D03*
X1125620Y81500D02*
D03*
X1150620D02*
D03*
X1175620D02*
D03*
X1200620D02*
D03*
X1225620D02*
D03*
X1250620D02*
D03*
X995280Y389420D02*
D03*
Y414420D02*
D03*
Y439420D02*
D03*
Y464420D02*
D03*
Y489420D02*
D03*
Y514420D02*
D03*
X970280Y389420D02*
D03*
Y414420D02*
D03*
Y464420D02*
D03*
Y489420D02*
D03*
Y514420D02*
D03*
D41*
X200000Y500000D02*
D03*
X850000D02*
D03*
Y50000D02*
D03*
X200000D02*
D03*
D42*
X1500000Y500000D02*
D03*
X50000D02*
D03*
X1500000Y50000D02*
D03*
X50000D02*
D03*
D43*
X1508190Y375320D02*
D03*
X1505650Y195780D02*
D03*
X1188120Y94900D02*
D03*
X956880Y451920D02*
D03*
D44*
X1500000Y450000D02*
D03*
X1525000Y400000D02*
D03*
Y300000D02*
D03*
Y200000D02*
D03*
Y100000D02*
D03*
X1450000Y250000D02*
D03*
Y150000D02*
D03*
X1475000Y100000D02*
D03*
X1425000Y500000D02*
D03*
X1375000D02*
D03*
X1350000Y450000D02*
D03*
Y350000D02*
D03*
X1325000Y500000D02*
D03*
Y400000D02*
D03*
X1300000Y350000D02*
D03*
X1325000Y300000D02*
D03*
X1275000Y500000D02*
D03*
Y400000D02*
D03*
Y300000D02*
D03*
X1225000Y500000D02*
D03*
Y400000D02*
D03*
X1200000Y350000D02*
D03*
X1225000Y300000D02*
D03*
X1175000Y500000D02*
D03*
Y400000D02*
D03*
Y300000D02*
D03*
X1125000Y500000D02*
D03*
Y400000D02*
D03*
Y300000D02*
D03*
X1100000Y150000D02*
D03*
Y50000D02*
D03*
X1075000Y500000D02*
D03*
X1050000Y450000D02*
D03*
X1075000Y400000D02*
D03*
Y300000D02*
D03*
X1050000Y50000D02*
D03*
X1025000Y500000D02*
D03*
Y400000D02*
D03*
Y300000D02*
D03*
X1000000Y250000D02*
D03*
Y50000D02*
D03*
X975000Y300000D02*
D03*
X950000Y250000D02*
D03*
Y50000D02*
D03*
X925000Y500000D02*
D03*
X900000Y450000D02*
D03*
X925000Y400000D02*
D03*
X900000Y250000D02*
D03*
Y50000D02*
D03*
X875000Y400000D02*
D03*
Y300000D02*
D03*
X800000Y450000D02*
D03*
X825000Y400000D02*
D03*
Y300000D02*
D03*
X800000Y250000D02*
D03*
Y50000D02*
D03*
X775000Y300000D02*
D03*
X750000Y250000D02*
D03*
Y50000D02*
D03*
X725000Y500000D02*
D03*
Y300000D02*
D03*
X700000Y250000D02*
D03*
Y50000D02*
D03*
X675000Y500000D02*
D03*
X650000Y250000D02*
D03*
Y150000D02*
D03*
Y50000D02*
D03*
X625000Y500000D02*
D03*
X600000Y350000D02*
D03*
Y150000D02*
D03*
X625000Y100000D02*
D03*
X600000Y50000D02*
D03*
X575000Y500000D02*
D03*
X550000Y350000D02*
D03*
X575000Y300000D02*
D03*
X550000Y150000D02*
D03*
X525000Y500000D02*
D03*
X500000Y350000D02*
D03*
X525000Y300000D02*
D03*
X500000Y250000D02*
D03*
Y150000D02*
D03*
X475000Y500000D02*
D03*
Y400000D02*
D03*
X450000Y350000D02*
D03*
X475000Y300000D02*
D03*
X450000Y250000D02*
D03*
X425000Y500000D02*
D03*
X400000Y450000D02*
D03*
Y350000D02*
D03*
X425000Y200000D02*
D03*
X400000Y50000D02*
D03*
X375000Y500000D02*
D03*
X350000Y450000D02*
D03*
Y350000D02*
D03*
X375000Y100000D02*
D03*
X350000Y50000D02*
D03*
X325000Y500000D02*
D03*
X300000Y450000D02*
D03*
Y350000D02*
D03*
Y250000D02*
D03*
X325000Y100000D02*
D03*
X300000Y50000D02*
D03*
X275000Y500000D02*
D03*
X250000Y450000D02*
D03*
X275000Y400000D02*
D03*
X250000Y350000D02*
D03*
X275000Y300000D02*
D03*
X250000Y250000D02*
D03*
X275000Y200000D02*
D03*
X250000Y150000D02*
D03*
X275000Y100000D02*
D03*
X250000Y50000D02*
D03*
X200000Y450000D02*
D03*
X225000Y400000D02*
D03*
X200000Y350000D02*
D03*
X225000Y300000D02*
D03*
X200000Y250000D02*
D03*
X225000Y200000D02*
D03*
X200000Y150000D02*
D03*
X225000Y100000D02*
D03*
X150000Y450000D02*
D03*
X175000Y400000D02*
D03*
X150000Y350000D02*
D03*
X175000Y300000D02*
D03*
X150000Y250000D02*
D03*
X175000Y200000D02*
D03*
X150000Y150000D02*
D03*
X175000Y100000D02*
D03*
X150000Y50000D02*
D03*
X125000Y500000D02*
D03*
X100000Y450000D02*
D03*
X125000Y400000D02*
D03*
X100000Y350000D02*
D03*
X125000Y300000D02*
D03*
Y200000D02*
D03*
X100000Y150000D02*
D03*
X125000Y100000D02*
D03*
X100000Y50000D02*
D03*
X50000Y450000D02*
D03*
X75000Y400000D02*
D03*
Y300000D02*
D03*
X50000Y150000D02*
D03*
X75000Y100000D02*
D03*
X1234440Y238760D02*
D03*
X1318260Y234950D02*
D03*
X1422400Y308610D02*
D03*
X1417320Y375920D02*
D03*
X1330001Y160000D02*
D03*
Y80000D02*
D03*
X1310001D02*
D03*
X1280001Y180000D02*
D03*
X1290001Y80000D02*
D03*
X1270001Y120000D02*
D03*
Y80000D02*
D03*
X1240001Y180000D02*
D03*
X1210001Y120000D02*
D03*
X1180001Y140000D02*
D03*
X1190001Y120000D02*
D03*
Y40000D02*
D03*
X1160001Y180000D02*
D03*
Y140000D02*
D03*
X1170001Y40000D02*
D03*
X1130001Y160000D02*
D03*
Y120000D02*
D03*
Y40000D02*
D03*
X1100001Y220000D02*
D03*
Y140000D02*
D03*
X1110001Y120000D02*
D03*
Y80000D02*
D03*
X1100001Y60000D02*
D03*
X1110001Y40000D02*
D03*
X1080001Y140000D02*
D03*
X1090001Y120000D02*
D03*
Y80000D02*
D03*
X1080001Y60000D02*
D03*
X1090001Y40000D02*
D03*
X1060001Y220000D02*
D03*
X1070001Y120000D02*
D03*
Y80000D02*
D03*
X1060001Y60000D02*
D03*
X1070001Y40000D02*
D03*
X1050001Y120000D02*
D03*
Y80000D02*
D03*
X1040001Y60000D02*
D03*
X1050001Y40000D02*
D03*
X1020001Y180000D02*
D03*
X1030001Y120000D02*
D03*
Y80000D02*
D03*
X1020001Y60000D02*
D03*
X1030001Y40000D02*
D03*
X1329870Y224790D02*
D03*
X1336040Y135890D02*
D03*
X466090Y402590D02*
D03*
X1394180Y190220D02*
D03*
X1381400Y373740D02*
D03*
X1289050Y448670D02*
D03*
X417830Y434340D02*
D03*
X331470Y138430D02*
D03*
X298260Y218250D02*
D03*
X629920Y218440D02*
D03*
X388967Y218134D02*
D03*
X322580Y147320D02*
D03*
X629920Y205740D02*
D03*
Y193040D02*
D03*
X610870Y255270D02*
D03*
X598170Y240030D02*
D03*
X582930Y100330D02*
D03*
X569850Y100500D02*
D03*
X481330Y361950D02*
D03*
X494030Y396240D02*
D03*
X415290Y307340D02*
D03*
X397510Y257810D02*
D03*
X400050Y269240D02*
D03*
X353060Y243840D02*
D03*
D45*
X220000Y480000D02*
D03*
X172500Y500000D02*
D03*
X227500D02*
D03*
X180000Y520000D02*
D03*
X220000D02*
D03*
X200000Y527500D02*
D03*
Y472500D02*
D03*
X180000Y480000D02*
D03*
X850000Y472500D02*
D03*
X830000Y480000D02*
D03*
X870000D02*
D03*
X822500Y500000D02*
D03*
X877500D02*
D03*
X830000Y520000D02*
D03*
X870000D02*
D03*
X850000Y527500D02*
D03*
X822500Y50000D02*
D03*
X830000Y30000D02*
D03*
Y70000D02*
D03*
X850000Y77500D02*
D03*
Y22500D02*
D03*
X870000Y30000D02*
D03*
Y70000D02*
D03*
X877500Y50000D02*
D03*
X172500D02*
D03*
X200000Y22500D02*
D03*
X180000Y30000D02*
D03*
X220000D02*
D03*
X227500Y50000D02*
D03*
X180000Y70000D02*
D03*
X220000D02*
D03*
X200000Y77500D02*
D03*
X1480000Y520000D02*
D03*
X1472500Y500000D02*
D03*
X1500000Y472500D02*
D03*
X1480000Y480000D02*
D03*
X1520000D02*
D03*
X1527500Y500000D02*
D03*
X1520000Y520000D02*
D03*
X1500000Y527500D02*
D03*
X30000Y480000D02*
D03*
X22500Y500000D02*
D03*
X77500D02*
D03*
X30000Y520000D02*
D03*
X70000D02*
D03*
X50000Y527500D02*
D03*
Y472500D02*
D03*
X70000Y480000D02*
D03*
X1500000Y22500D02*
D03*
X1480000Y30000D02*
D03*
X1520000D02*
D03*
X1527500Y50000D02*
D03*
X1480000Y70000D02*
D03*
X1520000D02*
D03*
X1500000Y77500D02*
D03*
X1472500Y50000D02*
D03*
X30000Y30000D02*
D03*
X77500Y50000D02*
D03*
X70000Y30000D02*
D03*
X50000Y22500D02*
D03*
X22500Y50000D02*
D03*
X50000Y77500D02*
D03*
X30000Y70000D02*
D03*
X70000D02*
D03*
M02*
