G04*
G04 #@! TF.GenerationSoftware,Altium Limited,Altium Designer,24.0.1 (36)*
G04*
G04 Layer_Color=16711935*
%FSLAX44Y44*%
%MOMM*%
G71*
G04*
G04 #@! TF.SameCoordinates,0FB82E01-D644-434E-A1D8-1B95A2BBF3EB*
G04*
G04*
G04 #@! TF.FilePolarity,Negative*
G04*
G01*
G75*
%ADD23R,1.5032X1.1032*%
%ADD24R,1.1032X1.5032*%
%ADD28R,1.3532X1.5532*%
%ADD29R,1.5532X1.3532*%
%ADD32C,2.0782*%
%ADD33C,7.2032*%
%ADD34C,8.2032*%
%ADD35C,0.8782*%
%ADD36C,0.7032*%
%ADD37C,0.9032*%
D23*
X1371600Y266090D02*
D03*
Y285090D02*
D03*
D24*
X1351940Y88900D02*
D03*
X1370940D02*
D03*
X1353210Y228600D02*
D03*
X1372210D02*
D03*
X1352600Y157480D02*
D03*
X1371600D02*
D03*
X1353210Y190500D02*
D03*
X1372210D02*
D03*
D28*
X1317900Y209550D02*
D03*
X1336400D02*
D03*
X1401720Y212090D02*
D03*
X1420220D02*
D03*
X1400450Y175260D02*
D03*
X1418950D02*
D03*
X1413870Y246380D02*
D03*
X1395370D02*
D03*
X1328060Y127000D02*
D03*
X1346560D02*
D03*
X1400450Y137160D02*
D03*
X1418950D02*
D03*
X1402990Y101600D02*
D03*
X1421490D02*
D03*
X1383940Y64770D02*
D03*
X1402440D02*
D03*
X1419500Y281940D02*
D03*
X1438000D02*
D03*
D29*
X1399540Y317860D02*
D03*
Y299360D02*
D03*
D32*
X1175620Y56500D02*
D03*
X970280Y439420D02*
D03*
X1494790Y437820D02*
D03*
X1469790D02*
D03*
Y412820D02*
D03*
Y387820D02*
D03*
Y362820D02*
D03*
Y337820D02*
D03*
Y312820D02*
D03*
X1494790Y412820D02*
D03*
Y387820D02*
D03*
Y362820D02*
D03*
Y337820D02*
D03*
Y312820D02*
D03*
X1467250Y258280D02*
D03*
Y233280D02*
D03*
Y208280D02*
D03*
Y183280D02*
D03*
Y158280D02*
D03*
Y133280D02*
D03*
X1492250Y258280D02*
D03*
Y233280D02*
D03*
Y208280D02*
D03*
Y183280D02*
D03*
Y158280D02*
D03*
Y133280D02*
D03*
X1125620Y56500D02*
D03*
X1150620D02*
D03*
X1200620D02*
D03*
X1225620D02*
D03*
X1250620D02*
D03*
X1125620Y81500D02*
D03*
X1150620D02*
D03*
X1175620D02*
D03*
X1200620D02*
D03*
X1225620D02*
D03*
X1250620D02*
D03*
X995280Y389420D02*
D03*
Y414420D02*
D03*
Y439420D02*
D03*
Y464420D02*
D03*
Y489420D02*
D03*
Y514420D02*
D03*
X970280Y389420D02*
D03*
Y414420D02*
D03*
Y464420D02*
D03*
Y489420D02*
D03*
Y514420D02*
D03*
D33*
X200000Y500000D02*
D03*
X850000D02*
D03*
Y50000D02*
D03*
X200000D02*
D03*
D34*
X1500000Y500000D02*
D03*
X50000D02*
D03*
X1500000Y50000D02*
D03*
X50000D02*
D03*
D35*
X1508190Y375320D02*
D03*
X1505650Y195780D02*
D03*
X1188120Y94900D02*
D03*
X956880Y451920D02*
D03*
D36*
X1500000Y450000D02*
D03*
X1525000Y400000D02*
D03*
Y300000D02*
D03*
Y200000D02*
D03*
Y100000D02*
D03*
X1450000Y250000D02*
D03*
Y150000D02*
D03*
X1475000Y100000D02*
D03*
X1425000Y500000D02*
D03*
X1375000D02*
D03*
X1350000Y450000D02*
D03*
Y350000D02*
D03*
X1325000Y500000D02*
D03*
Y400000D02*
D03*
X1300000Y350000D02*
D03*
X1325000Y300000D02*
D03*
X1275000Y500000D02*
D03*
Y400000D02*
D03*
Y300000D02*
D03*
X1225000Y500000D02*
D03*
Y400000D02*
D03*
X1200000Y350000D02*
D03*
X1225000Y300000D02*
D03*
X1175000Y500000D02*
D03*
Y400000D02*
D03*
Y300000D02*
D03*
X1125000Y500000D02*
D03*
Y400000D02*
D03*
Y300000D02*
D03*
X1100000Y150000D02*
D03*
Y50000D02*
D03*
X1075000Y500000D02*
D03*
X1050000Y450000D02*
D03*
X1075000Y400000D02*
D03*
Y300000D02*
D03*
X1050000Y50000D02*
D03*
X1025000Y500000D02*
D03*
Y400000D02*
D03*
Y300000D02*
D03*
X1000000Y250000D02*
D03*
Y50000D02*
D03*
X975000Y300000D02*
D03*
X950000Y250000D02*
D03*
Y50000D02*
D03*
X925000Y500000D02*
D03*
X900000Y450000D02*
D03*
X925000Y400000D02*
D03*
X900000Y250000D02*
D03*
Y50000D02*
D03*
X875000Y400000D02*
D03*
Y300000D02*
D03*
X800000Y450000D02*
D03*
X825000Y400000D02*
D03*
Y300000D02*
D03*
X800000Y250000D02*
D03*
Y50000D02*
D03*
X775000Y300000D02*
D03*
X750000Y250000D02*
D03*
Y50000D02*
D03*
X725000Y500000D02*
D03*
Y300000D02*
D03*
X700000Y250000D02*
D03*
Y50000D02*
D03*
X675000Y500000D02*
D03*
X650000Y250000D02*
D03*
Y150000D02*
D03*
Y50000D02*
D03*
X625000Y500000D02*
D03*
X600000Y350000D02*
D03*
Y150000D02*
D03*
X625000Y100000D02*
D03*
X600000Y50000D02*
D03*
X575000Y500000D02*
D03*
X550000Y350000D02*
D03*
X575000Y300000D02*
D03*
X550000Y150000D02*
D03*
X525000Y500000D02*
D03*
X500000Y350000D02*
D03*
X525000Y300000D02*
D03*
X500000Y250000D02*
D03*
Y150000D02*
D03*
X475000Y500000D02*
D03*
Y400000D02*
D03*
X450000Y350000D02*
D03*
X475000Y300000D02*
D03*
X450000Y250000D02*
D03*
X425000Y500000D02*
D03*
X400000Y450000D02*
D03*
Y350000D02*
D03*
X425000Y200000D02*
D03*
X400000Y50000D02*
D03*
X375000Y500000D02*
D03*
X350000Y450000D02*
D03*
Y350000D02*
D03*
X375000Y100000D02*
D03*
X350000Y50000D02*
D03*
X325000Y500000D02*
D03*
X300000Y450000D02*
D03*
Y350000D02*
D03*
Y250000D02*
D03*
X325000Y100000D02*
D03*
X300000Y50000D02*
D03*
X275000Y500000D02*
D03*
X250000Y450000D02*
D03*
X275000Y400000D02*
D03*
X250000Y350000D02*
D03*
X275000Y300000D02*
D03*
X250000Y250000D02*
D03*
X275000Y200000D02*
D03*
X250000Y150000D02*
D03*
X275000Y100000D02*
D03*
X250000Y50000D02*
D03*
X200000Y450000D02*
D03*
X225000Y400000D02*
D03*
X200000Y350000D02*
D03*
X225000Y300000D02*
D03*
X200000Y250000D02*
D03*
X225000Y200000D02*
D03*
X200000Y150000D02*
D03*
X225000Y100000D02*
D03*
X150000Y450000D02*
D03*
X175000Y400000D02*
D03*
X150000Y350000D02*
D03*
X175000Y300000D02*
D03*
X150000Y250000D02*
D03*
X175000Y200000D02*
D03*
X150000Y150000D02*
D03*
X175000Y100000D02*
D03*
X150000Y50000D02*
D03*
X125000Y500000D02*
D03*
X100000Y450000D02*
D03*
X125000Y400000D02*
D03*
X100000Y350000D02*
D03*
X125000Y300000D02*
D03*
Y200000D02*
D03*
X100000Y150000D02*
D03*
X125000Y100000D02*
D03*
X100000Y50000D02*
D03*
X50000Y450000D02*
D03*
X75000Y400000D02*
D03*
Y300000D02*
D03*
X50000Y150000D02*
D03*
X75000Y100000D02*
D03*
X1234440Y238760D02*
D03*
X1318260Y234950D02*
D03*
X1422400Y308610D02*
D03*
X1417320Y375920D02*
D03*
X1330001Y160000D02*
D03*
Y80000D02*
D03*
X1310001D02*
D03*
X1280001Y180000D02*
D03*
X1290001Y80000D02*
D03*
X1270001Y120000D02*
D03*
Y80000D02*
D03*
X1240001Y180000D02*
D03*
X1210001Y120000D02*
D03*
X1180001Y140000D02*
D03*
X1190001Y120000D02*
D03*
Y40000D02*
D03*
X1160001Y180000D02*
D03*
Y140000D02*
D03*
X1170001Y40000D02*
D03*
X1130001Y160000D02*
D03*
Y120000D02*
D03*
Y40000D02*
D03*
X1100001Y220000D02*
D03*
Y140000D02*
D03*
X1110001Y120000D02*
D03*
Y80000D02*
D03*
X1100001Y60000D02*
D03*
X1110001Y40000D02*
D03*
X1080001Y140000D02*
D03*
X1090001Y120000D02*
D03*
Y80000D02*
D03*
X1080001Y60000D02*
D03*
X1090001Y40000D02*
D03*
X1060001Y220000D02*
D03*
X1070001Y120000D02*
D03*
Y80000D02*
D03*
X1060001Y60000D02*
D03*
X1070001Y40000D02*
D03*
X1050001Y120000D02*
D03*
Y80000D02*
D03*
X1040001Y60000D02*
D03*
X1050001Y40000D02*
D03*
X1020001Y180000D02*
D03*
X1030001Y120000D02*
D03*
Y80000D02*
D03*
X1020001Y60000D02*
D03*
X1030001Y40000D02*
D03*
X1329870Y224790D02*
D03*
X1336040Y135890D02*
D03*
X466090Y402590D02*
D03*
X1394180Y190220D02*
D03*
X1381400Y373740D02*
D03*
X1289050Y448670D02*
D03*
X417830Y434340D02*
D03*
X331470Y138430D02*
D03*
X298260Y218250D02*
D03*
X629920Y218440D02*
D03*
X388967Y218134D02*
D03*
X322580Y147320D02*
D03*
X629920Y205740D02*
D03*
Y193040D02*
D03*
X610870Y255270D02*
D03*
X598170Y240030D02*
D03*
X582930Y100330D02*
D03*
X569850Y100500D02*
D03*
X481330Y361950D02*
D03*
X494030Y396240D02*
D03*
X415290Y307340D02*
D03*
X397510Y257810D02*
D03*
X400050Y269240D02*
D03*
X353060Y243840D02*
D03*
D37*
X220000Y480000D02*
D03*
X172500Y500000D02*
D03*
X227500D02*
D03*
X180000Y520000D02*
D03*
X220000D02*
D03*
X200000Y527500D02*
D03*
Y472500D02*
D03*
X180000Y480000D02*
D03*
X850000Y472500D02*
D03*
X830000Y480000D02*
D03*
X870000D02*
D03*
X822500Y500000D02*
D03*
X877500D02*
D03*
X830000Y520000D02*
D03*
X870000D02*
D03*
X850000Y527500D02*
D03*
X822500Y50000D02*
D03*
X830000Y30000D02*
D03*
Y70000D02*
D03*
X850000Y77500D02*
D03*
Y22500D02*
D03*
X870000Y30000D02*
D03*
Y70000D02*
D03*
X877500Y50000D02*
D03*
X172500D02*
D03*
X200000Y22500D02*
D03*
X180000Y30000D02*
D03*
X220000D02*
D03*
X227500Y50000D02*
D03*
X180000Y70000D02*
D03*
X220000D02*
D03*
X200000Y77500D02*
D03*
X1480000Y520000D02*
D03*
X1472500Y500000D02*
D03*
X1500000Y472500D02*
D03*
X1480000Y480000D02*
D03*
X1520000D02*
D03*
X1527500Y500000D02*
D03*
X1520000Y520000D02*
D03*
X1500000Y527500D02*
D03*
X30000Y480000D02*
D03*
X22500Y500000D02*
D03*
X77500D02*
D03*
X30000Y520000D02*
D03*
X70000D02*
D03*
X50000Y527500D02*
D03*
Y472500D02*
D03*
X70000Y480000D02*
D03*
X1500000Y22500D02*
D03*
X1480000Y30000D02*
D03*
X1520000D02*
D03*
X1527500Y50000D02*
D03*
X1480000Y70000D02*
D03*
X1520000D02*
D03*
X1500000Y77500D02*
D03*
X1472500Y50000D02*
D03*
X30000Y30000D02*
D03*
X77500Y50000D02*
D03*
X70000Y30000D02*
D03*
X50000Y22500D02*
D03*
X22500Y50000D02*
D03*
X50000Y77500D02*
D03*
X30000Y70000D02*
D03*
X70000D02*
D03*
M02*
