G04*
G04 #@! TF.GenerationSoftware,Altium Limited,Altium Designer,24.0.1 (36)*
G04*
G04 Layer_Color=8388736*
%FSLAX44Y44*%
%MOMM*%
G71*
G04*
G04 #@! TF.SameCoordinates,0FB82E01-D644-434E-A1D8-1B95A2BBF3EB*
G04*
G04*
G04 #@! TF.FilePolarity,Negative*
G04*
G01*
G75*
%ADD23R,1.5032X1.1032*%
%ADD24R,1.1032X1.5032*%
%ADD25R,0.9432X1.9032*%
%ADD26R,1.9032X0.9432*%
G04:AMPARAMS|DCode=27|XSize=0.8532mm|YSize=1.4032mm|CornerRadius=0.2641mm|HoleSize=0mm|Usage=FLASHONLY|Rotation=90.000|XOffset=0mm|YOffset=0mm|HoleType=Round|Shape=RoundedRectangle|*
%AMROUNDEDRECTD27*
21,1,0.8532,0.8750,0,0,90.0*
21,1,0.3250,1.4032,0,0,90.0*
1,1,0.5282,0.4375,0.1625*
1,1,0.5282,0.4375,-0.1625*
1,1,0.5282,-0.4375,-0.1625*
1,1,0.5282,-0.4375,0.1625*
%
%ADD27ROUNDEDRECTD27*%
%ADD28R,1.3532X1.5532*%
%ADD29R,1.5532X1.3532*%
G04:AMPARAMS|DCode=30|XSize=1.9532mm|YSize=1.4532mm|CornerRadius=0.4141mm|HoleSize=0mm|Usage=FLASHONLY|Rotation=180.000|XOffset=0mm|YOffset=0mm|HoleType=Round|Shape=RoundedRectangle|*
%AMROUNDEDRECTD30*
21,1,1.9532,0.6250,0,0,180.0*
21,1,1.1250,1.4532,0,0,180.0*
1,1,0.8282,-0.5625,0.3125*
1,1,0.8282,0.5625,0.3125*
1,1,0.8282,0.5625,-0.3125*
1,1,0.8282,-0.5625,-0.3125*
%
%ADD30ROUNDEDRECTD30*%
G04:AMPARAMS|DCode=31|XSize=1.9532mm|YSize=1.4532mm|CornerRadius=0.4141mm|HoleSize=0mm|Usage=FLASHONLY|Rotation=90.000|XOffset=0mm|YOffset=0mm|HoleType=Round|Shape=RoundedRectangle|*
%AMROUNDEDRECTD31*
21,1,1.9532,0.6250,0,0,90.0*
21,1,1.1250,1.4532,0,0,90.0*
1,1,0.8282,0.3125,0.5625*
1,1,0.8282,0.3125,-0.5625*
1,1,0.8282,-0.3125,-0.5625*
1,1,0.8282,-0.3125,0.5625*
%
%ADD31ROUNDEDRECTD31*%
%ADD32C,2.0782*%
%ADD33C,7.2032*%
%ADD34C,8.2032*%
%ADD35C,0.8782*%
%ADD36C,0.7032*%
%ADD37C,0.9032*%
D23*
X1398270Y387350D02*
D03*
X1436370Y407010D02*
D03*
X1336040Y363880D02*
D03*
X1367790Y333350D02*
D03*
X1096010Y251460D02*
D03*
Y232460D02*
D03*
X1367790Y314350D02*
D03*
X1336040Y382880D02*
D03*
X1436370Y388010D02*
D03*
X1398270Y368350D02*
D03*
X1092200Y184760D02*
D03*
Y165760D02*
D03*
X1243330Y215290D02*
D03*
Y234290D02*
D03*
D24*
X1341780Y274320D02*
D03*
X1322730Y185420D02*
D03*
X1341730D02*
D03*
X1360780Y274320D02*
D03*
X1171550Y218440D02*
D03*
X1152550D02*
D03*
X1197000Y220980D02*
D03*
X1216000D02*
D03*
D25*
X582550Y59500D02*
D03*
Y100500D02*
D03*
X569850D02*
D03*
X557150D02*
D03*
X544450D02*
D03*
X531750D02*
D03*
X569850Y59500D02*
D03*
X557150D02*
D03*
X544450D02*
D03*
X531750D02*
D03*
X480950Y100500D02*
D03*
X468250D02*
D03*
X480950Y59500D02*
D03*
X468250D02*
D03*
X442850Y100500D02*
D03*
X430150D02*
D03*
X442850Y59500D02*
D03*
X430150D02*
D03*
X417450D02*
D03*
Y100500D02*
D03*
X455550Y59500D02*
D03*
Y100500D02*
D03*
X493650Y59500D02*
D03*
Y100500D02*
D03*
X506350Y59500D02*
D03*
X519050D02*
D03*
X506350Y100500D02*
D03*
X519050D02*
D03*
X582550Y420500D02*
D03*
X569850D02*
D03*
X557150D02*
D03*
X544450D02*
D03*
X531750D02*
D03*
X582550Y379500D02*
D03*
X569850D02*
D03*
X557150D02*
D03*
X544450D02*
D03*
X531750D02*
D03*
X480950Y420500D02*
D03*
X468250D02*
D03*
X480950Y379500D02*
D03*
X468250D02*
D03*
X442850Y420500D02*
D03*
X430150D02*
D03*
X442850Y379500D02*
D03*
X430150D02*
D03*
X417450D02*
D03*
Y420500D02*
D03*
X455550Y379500D02*
D03*
Y420500D02*
D03*
X493650Y379500D02*
D03*
Y420500D02*
D03*
X506350Y379500D02*
D03*
X519050D02*
D03*
X506350Y420500D02*
D03*
X519050D02*
D03*
D26*
X670500Y192850D02*
D03*
X329500Y332550D02*
D03*
Y319850D02*
D03*
Y307150D02*
D03*
Y294450D02*
D03*
Y281750D02*
D03*
X370500Y332550D02*
D03*
Y319850D02*
D03*
Y307150D02*
D03*
Y294450D02*
D03*
Y281750D02*
D03*
X329500Y230950D02*
D03*
Y218250D02*
D03*
X370500Y230950D02*
D03*
Y218250D02*
D03*
X329500Y192850D02*
D03*
Y180150D02*
D03*
X370500Y192850D02*
D03*
Y180150D02*
D03*
Y167450D02*
D03*
X329500D02*
D03*
X370500Y205550D02*
D03*
X329500D02*
D03*
X370500Y243650D02*
D03*
X329500D02*
D03*
X370500Y256350D02*
D03*
Y269050D02*
D03*
X329500Y256350D02*
D03*
Y269050D02*
D03*
X670500Y167450D02*
D03*
Y180150D02*
D03*
Y205550D02*
D03*
Y218250D02*
D03*
X629500Y167450D02*
D03*
Y180150D02*
D03*
Y192850D02*
D03*
Y205550D02*
D03*
Y218250D02*
D03*
X670500Y269050D02*
D03*
Y281750D02*
D03*
X629500Y269050D02*
D03*
Y281750D02*
D03*
X670500Y307150D02*
D03*
Y319850D02*
D03*
X629500Y307150D02*
D03*
Y319850D02*
D03*
Y332550D02*
D03*
X670500D02*
D03*
X629500Y294450D02*
D03*
X670500D02*
D03*
X629500Y256350D02*
D03*
X670500D02*
D03*
X629500Y243650D02*
D03*
Y230950D02*
D03*
X670500Y243650D02*
D03*
Y230950D02*
D03*
D27*
X1283670Y267360D02*
D03*
X1404920Y446380D02*
D03*
X1281130Y329590D02*
D03*
X1378920Y436880D02*
D03*
X1404920Y427380D02*
D03*
X1309670Y276860D02*
D03*
X1283670Y286360D02*
D03*
X1307130Y339090D02*
D03*
X1281130Y348590D02*
D03*
D28*
X1410060Y323850D02*
D03*
X1413150Y290830D02*
D03*
X1431650D02*
D03*
X1415690Y347980D02*
D03*
X1434190D02*
D03*
X1391560Y323850D02*
D03*
X1154070Y254000D02*
D03*
X1172570D02*
D03*
D29*
X1341120Y226970D02*
D03*
X1347470Y147320D02*
D03*
Y128820D02*
D03*
X1275080Y210460D02*
D03*
Y228960D02*
D03*
X1121410Y230780D02*
D03*
Y249280D02*
D03*
X1066800Y180700D02*
D03*
Y162200D02*
D03*
X1117600Y160930D02*
D03*
Y179430D02*
D03*
X1249680Y144420D02*
D03*
Y162920D02*
D03*
X1172210Y154580D02*
D03*
Y173080D02*
D03*
X1198880Y152040D02*
D03*
Y170540D02*
D03*
X1144270Y157120D02*
D03*
Y175620D02*
D03*
X1341120Y245470D02*
D03*
X1342390Y424900D02*
D03*
Y406400D02*
D03*
X1313180Y389530D02*
D03*
Y408030D02*
D03*
X1369060Y373740D02*
D03*
Y355240D02*
D03*
X1252220Y306430D02*
D03*
Y287930D02*
D03*
X1310640Y430170D02*
D03*
Y448670D02*
D03*
X1244600Y354690D02*
D03*
Y336190D02*
D03*
X1224280Y158750D02*
D03*
Y140250D02*
D03*
X1202690Y278490D02*
D03*
Y259990D02*
D03*
D30*
X1358900Y77190D02*
D03*
Y105690D02*
D03*
X1289050Y165380D02*
D03*
Y136880D02*
D03*
X1316990Y141250D02*
D03*
Y112750D02*
D03*
D31*
X1394180Y173990D02*
D03*
X1422680D02*
D03*
X1394180Y110490D02*
D03*
X1422680D02*
D03*
X1394180Y142240D02*
D03*
X1422680D02*
D03*
X1422680Y240030D02*
D03*
X1394180D02*
D03*
X1422680Y212090D02*
D03*
X1394180D02*
D03*
D32*
X1175620Y56500D02*
D03*
X970280Y439420D02*
D03*
X1494790Y437820D02*
D03*
X1469790D02*
D03*
Y412820D02*
D03*
Y387820D02*
D03*
Y362820D02*
D03*
Y337820D02*
D03*
Y312820D02*
D03*
X1494790Y412820D02*
D03*
Y387820D02*
D03*
Y362820D02*
D03*
Y337820D02*
D03*
Y312820D02*
D03*
X1467250Y258280D02*
D03*
Y233280D02*
D03*
Y208280D02*
D03*
Y183280D02*
D03*
Y158280D02*
D03*
Y133280D02*
D03*
X1492250Y258280D02*
D03*
Y233280D02*
D03*
Y208280D02*
D03*
Y183280D02*
D03*
Y158280D02*
D03*
Y133280D02*
D03*
X1125620Y56500D02*
D03*
X1150620D02*
D03*
X1200620D02*
D03*
X1225620D02*
D03*
X1250620D02*
D03*
X1125620Y81500D02*
D03*
X1150620D02*
D03*
X1175620D02*
D03*
X1200620D02*
D03*
X1225620D02*
D03*
X1250620D02*
D03*
X995280Y389420D02*
D03*
Y414420D02*
D03*
Y439420D02*
D03*
Y464420D02*
D03*
Y489420D02*
D03*
Y514420D02*
D03*
X970280Y389420D02*
D03*
Y414420D02*
D03*
Y464420D02*
D03*
Y489420D02*
D03*
Y514420D02*
D03*
D33*
X200000Y500000D02*
D03*
X850000D02*
D03*
Y50000D02*
D03*
X200000D02*
D03*
D34*
X1500000Y500000D02*
D03*
X50000D02*
D03*
X1500000Y50000D02*
D03*
X50000D02*
D03*
D35*
X1508190Y375320D02*
D03*
X1505650Y195780D02*
D03*
X1188120Y94900D02*
D03*
X956880Y451920D02*
D03*
D36*
X1500000Y450000D02*
D03*
X1525000Y400000D02*
D03*
Y300000D02*
D03*
Y200000D02*
D03*
Y100000D02*
D03*
X1450000Y250000D02*
D03*
Y150000D02*
D03*
X1475000Y100000D02*
D03*
X1425000Y500000D02*
D03*
X1375000D02*
D03*
X1350000Y450000D02*
D03*
Y350000D02*
D03*
X1325000Y500000D02*
D03*
Y400000D02*
D03*
X1300000Y350000D02*
D03*
X1325000Y300000D02*
D03*
X1275000Y500000D02*
D03*
Y400000D02*
D03*
Y300000D02*
D03*
X1225000Y500000D02*
D03*
Y400000D02*
D03*
X1200000Y350000D02*
D03*
X1225000Y300000D02*
D03*
X1175000Y500000D02*
D03*
Y400000D02*
D03*
Y300000D02*
D03*
X1125000Y500000D02*
D03*
Y400000D02*
D03*
Y300000D02*
D03*
X1100000Y150000D02*
D03*
Y50000D02*
D03*
X1075000Y500000D02*
D03*
X1050000Y450000D02*
D03*
X1075000Y400000D02*
D03*
Y300000D02*
D03*
X1050000Y50000D02*
D03*
X1025000Y500000D02*
D03*
Y400000D02*
D03*
Y300000D02*
D03*
X1000000Y250000D02*
D03*
Y50000D02*
D03*
X975000Y300000D02*
D03*
X950000Y250000D02*
D03*
Y50000D02*
D03*
X925000Y500000D02*
D03*
X900000Y450000D02*
D03*
X925000Y400000D02*
D03*
X900000Y250000D02*
D03*
Y50000D02*
D03*
X875000Y400000D02*
D03*
Y300000D02*
D03*
X800000Y450000D02*
D03*
X825000Y400000D02*
D03*
Y300000D02*
D03*
X800000Y250000D02*
D03*
Y50000D02*
D03*
X775000Y300000D02*
D03*
X750000Y250000D02*
D03*
Y50000D02*
D03*
X725000Y500000D02*
D03*
Y300000D02*
D03*
X700000Y250000D02*
D03*
Y50000D02*
D03*
X675000Y500000D02*
D03*
X650000Y250000D02*
D03*
Y150000D02*
D03*
Y50000D02*
D03*
X625000Y500000D02*
D03*
X600000Y350000D02*
D03*
Y150000D02*
D03*
X625000Y100000D02*
D03*
X600000Y50000D02*
D03*
X575000Y500000D02*
D03*
X550000Y350000D02*
D03*
X575000Y300000D02*
D03*
X550000Y150000D02*
D03*
X525000Y500000D02*
D03*
X500000Y350000D02*
D03*
X525000Y300000D02*
D03*
X500000Y250000D02*
D03*
Y150000D02*
D03*
X475000Y500000D02*
D03*
Y400000D02*
D03*
X450000Y350000D02*
D03*
X475000Y300000D02*
D03*
X450000Y250000D02*
D03*
X425000Y500000D02*
D03*
X400000Y450000D02*
D03*
Y350000D02*
D03*
X425000Y200000D02*
D03*
X400000Y50000D02*
D03*
X375000Y500000D02*
D03*
X350000Y450000D02*
D03*
Y350000D02*
D03*
X375000Y100000D02*
D03*
X350000Y50000D02*
D03*
X325000Y500000D02*
D03*
X300000Y450000D02*
D03*
Y350000D02*
D03*
Y250000D02*
D03*
X325000Y100000D02*
D03*
X300000Y50000D02*
D03*
X275000Y500000D02*
D03*
X250000Y450000D02*
D03*
X275000Y400000D02*
D03*
X250000Y350000D02*
D03*
X275000Y300000D02*
D03*
X250000Y250000D02*
D03*
X275000Y200000D02*
D03*
X250000Y150000D02*
D03*
X275000Y100000D02*
D03*
X250000Y50000D02*
D03*
X200000Y450000D02*
D03*
X225000Y400000D02*
D03*
X200000Y350000D02*
D03*
X225000Y300000D02*
D03*
X200000Y250000D02*
D03*
X225000Y200000D02*
D03*
X200000Y150000D02*
D03*
X225000Y100000D02*
D03*
X150000Y450000D02*
D03*
X175000Y400000D02*
D03*
X150000Y350000D02*
D03*
X175000Y300000D02*
D03*
X150000Y250000D02*
D03*
X175000Y200000D02*
D03*
X150000Y150000D02*
D03*
X175000Y100000D02*
D03*
X150000Y50000D02*
D03*
X125000Y500000D02*
D03*
X100000Y450000D02*
D03*
X125000Y400000D02*
D03*
X100000Y350000D02*
D03*
X125000Y300000D02*
D03*
Y200000D02*
D03*
X100000Y150000D02*
D03*
X125000Y100000D02*
D03*
X100000Y50000D02*
D03*
X50000Y450000D02*
D03*
X75000Y400000D02*
D03*
Y300000D02*
D03*
X50000Y150000D02*
D03*
X75000Y100000D02*
D03*
X1234440Y238760D02*
D03*
X1318260Y234950D02*
D03*
X1422400Y308610D02*
D03*
X1417320Y375920D02*
D03*
X1330001Y160000D02*
D03*
Y80000D02*
D03*
X1310001D02*
D03*
X1280001Y180000D02*
D03*
X1290001Y80000D02*
D03*
X1270001Y120000D02*
D03*
Y80000D02*
D03*
X1240001Y180000D02*
D03*
X1210001Y120000D02*
D03*
X1180001Y140000D02*
D03*
X1190001Y120000D02*
D03*
Y40000D02*
D03*
X1160001Y180000D02*
D03*
Y140000D02*
D03*
X1170001Y40000D02*
D03*
X1130001Y160000D02*
D03*
Y120000D02*
D03*
Y40000D02*
D03*
X1100001Y220000D02*
D03*
Y140000D02*
D03*
X1110001Y120000D02*
D03*
Y80000D02*
D03*
X1100001Y60000D02*
D03*
X1110001Y40000D02*
D03*
X1080001Y140000D02*
D03*
X1090001Y120000D02*
D03*
Y80000D02*
D03*
X1080001Y60000D02*
D03*
X1090001Y40000D02*
D03*
X1060001Y220000D02*
D03*
X1070001Y120000D02*
D03*
Y80000D02*
D03*
X1060001Y60000D02*
D03*
X1070001Y40000D02*
D03*
X1050001Y120000D02*
D03*
Y80000D02*
D03*
X1040001Y60000D02*
D03*
X1050001Y40000D02*
D03*
X1020001Y180000D02*
D03*
X1030001Y120000D02*
D03*
Y80000D02*
D03*
X1020001Y60000D02*
D03*
X1030001Y40000D02*
D03*
X1329870Y224790D02*
D03*
X1336040Y135890D02*
D03*
X466090Y402590D02*
D03*
X1394180Y190220D02*
D03*
X1381400Y373740D02*
D03*
X1289050Y448670D02*
D03*
X417830Y434340D02*
D03*
X331470Y138430D02*
D03*
X298260Y218250D02*
D03*
X629920Y218440D02*
D03*
X388967Y218134D02*
D03*
X322580Y147320D02*
D03*
X629920Y205740D02*
D03*
Y193040D02*
D03*
X610870Y255270D02*
D03*
X598170Y240030D02*
D03*
X582930Y100330D02*
D03*
X569850Y100500D02*
D03*
X481330Y361950D02*
D03*
X494030Y396240D02*
D03*
X415290Y307340D02*
D03*
X397510Y257810D02*
D03*
X400050Y269240D02*
D03*
X353060Y243840D02*
D03*
D37*
X220000Y480000D02*
D03*
X172500Y500000D02*
D03*
X227500D02*
D03*
X180000Y520000D02*
D03*
X220000D02*
D03*
X200000Y527500D02*
D03*
Y472500D02*
D03*
X180000Y480000D02*
D03*
X850000Y472500D02*
D03*
X830000Y480000D02*
D03*
X870000D02*
D03*
X822500Y500000D02*
D03*
X877500D02*
D03*
X830000Y520000D02*
D03*
X870000D02*
D03*
X850000Y527500D02*
D03*
X822500Y50000D02*
D03*
X830000Y30000D02*
D03*
Y70000D02*
D03*
X850000Y77500D02*
D03*
Y22500D02*
D03*
X870000Y30000D02*
D03*
Y70000D02*
D03*
X877500Y50000D02*
D03*
X172500D02*
D03*
X200000Y22500D02*
D03*
X180000Y30000D02*
D03*
X220000D02*
D03*
X227500Y50000D02*
D03*
X180000Y70000D02*
D03*
X220000D02*
D03*
X200000Y77500D02*
D03*
X1480000Y520000D02*
D03*
X1472500Y500000D02*
D03*
X1500000Y472500D02*
D03*
X1480000Y480000D02*
D03*
X1520000D02*
D03*
X1527500Y500000D02*
D03*
X1520000Y520000D02*
D03*
X1500000Y527500D02*
D03*
X30000Y480000D02*
D03*
X22500Y500000D02*
D03*
X77500D02*
D03*
X30000Y520000D02*
D03*
X70000D02*
D03*
X50000Y527500D02*
D03*
Y472500D02*
D03*
X70000Y480000D02*
D03*
X1500000Y22500D02*
D03*
X1480000Y30000D02*
D03*
X1520000D02*
D03*
X1527500Y50000D02*
D03*
X1480000Y70000D02*
D03*
X1520000D02*
D03*
X1500000Y77500D02*
D03*
X1472500Y50000D02*
D03*
X30000Y30000D02*
D03*
X77500Y50000D02*
D03*
X70000Y30000D02*
D03*
X50000Y22500D02*
D03*
X22500Y50000D02*
D03*
X50000Y77500D02*
D03*
X30000Y70000D02*
D03*
X70000D02*
D03*
M02*
