G04*
G04 #@! TF.GenerationSoftware,Altium Limited,Altium Designer,24.0.1 (36)*
G04*
G04 Layer_Color=8421504*
%FSLAX44Y44*%
%MOMM*%
G71*
G04*
G04 #@! TF.SameCoordinates,0FB82E01-D644-434E-A1D8-1B95A2BBF3EB*
G04*
G04*
G04 #@! TF.FilePolarity,Positive*
G04*
G01*
G75*
%ADD14R,1.3000X0.9000*%
%ADD15R,0.9000X1.3000*%
%ADD16R,0.7400X1.7000*%
%ADD17R,1.7000X0.7400*%
G04:AMPARAMS|DCode=18|XSize=0.65mm|YSize=1.2mm|CornerRadius=0.1625mm|HoleSize=0mm|Usage=FLASHONLY|Rotation=90.000|XOffset=0mm|YOffset=0mm|HoleType=Round|Shape=RoundedRectangle|*
%AMROUNDEDRECTD18*
21,1,0.6500,0.8750,0,0,90.0*
21,1,0.3250,1.2000,0,0,90.0*
1,1,0.3250,0.4375,0.1625*
1,1,0.3250,0.4375,-0.1625*
1,1,0.3250,-0.4375,-0.1625*
1,1,0.3250,-0.4375,0.1625*
%
%ADD18ROUNDEDRECTD18*%
%ADD19R,1.1500X1.3500*%
%ADD20R,1.3500X1.1500*%
G04:AMPARAMS|DCode=21|XSize=1.75mm|YSize=1.25mm|CornerRadius=0.3125mm|HoleSize=0mm|Usage=FLASHONLY|Rotation=180.000|XOffset=0mm|YOffset=0mm|HoleType=Round|Shape=RoundedRectangle|*
%AMROUNDEDRECTD21*
21,1,1.7500,0.6250,0,0,180.0*
21,1,1.1250,1.2500,0,0,180.0*
1,1,0.6250,-0.5625,0.3125*
1,1,0.6250,0.5625,0.3125*
1,1,0.6250,0.5625,-0.3125*
1,1,0.6250,-0.5625,-0.3125*
%
%ADD21ROUNDEDRECTD21*%
G04:AMPARAMS|DCode=22|XSize=1.75mm|YSize=1.25mm|CornerRadius=0.3125mm|HoleSize=0mm|Usage=FLASHONLY|Rotation=90.000|XOffset=0mm|YOffset=0mm|HoleType=Round|Shape=RoundedRectangle|*
%AMROUNDEDRECTD22*
21,1,1.7500,0.6250,0,0,90.0*
21,1,1.1250,1.2500,0,0,90.0*
1,1,0.6250,0.3125,0.5625*
1,1,0.6250,0.3125,-0.5625*
1,1,0.6250,-0.3125,-0.5625*
1,1,0.6250,-0.3125,0.5625*
%
%ADD22ROUNDEDRECTD22*%
D14*
X1398270Y387350D02*
D03*
X1436370Y407010D02*
D03*
X1336040Y363880D02*
D03*
X1367790Y333350D02*
D03*
X1096010Y251460D02*
D03*
Y232460D02*
D03*
X1367790Y314350D02*
D03*
X1336040Y382880D02*
D03*
X1436370Y388010D02*
D03*
X1398270Y368350D02*
D03*
X1092200Y184760D02*
D03*
Y165760D02*
D03*
X1243330Y215290D02*
D03*
Y234290D02*
D03*
D15*
X1341780Y274320D02*
D03*
X1322730Y185420D02*
D03*
X1341730D02*
D03*
X1360780Y274320D02*
D03*
X1171550Y218440D02*
D03*
X1152550D02*
D03*
X1197000Y220980D02*
D03*
X1216000D02*
D03*
D16*
X582550Y59500D02*
D03*
Y100500D02*
D03*
X569850D02*
D03*
X557150D02*
D03*
X544450D02*
D03*
X531750D02*
D03*
X569850Y59500D02*
D03*
X557150D02*
D03*
X544450D02*
D03*
X531750D02*
D03*
X480950Y100500D02*
D03*
X468250D02*
D03*
X480950Y59500D02*
D03*
X468250D02*
D03*
X442850Y100500D02*
D03*
X430150D02*
D03*
X442850Y59500D02*
D03*
X430150D02*
D03*
X417450D02*
D03*
Y100500D02*
D03*
X455550Y59500D02*
D03*
Y100500D02*
D03*
X493650Y59500D02*
D03*
Y100500D02*
D03*
X506350Y59500D02*
D03*
X519050D02*
D03*
X506350Y100500D02*
D03*
X519050D02*
D03*
X582550Y420500D02*
D03*
X569850D02*
D03*
X557150D02*
D03*
X544450D02*
D03*
X531750D02*
D03*
X582550Y379500D02*
D03*
X569850D02*
D03*
X557150D02*
D03*
X544450D02*
D03*
X531750D02*
D03*
X480950Y420500D02*
D03*
X468250D02*
D03*
X480950Y379500D02*
D03*
X468250D02*
D03*
X442850Y420500D02*
D03*
X430150D02*
D03*
X442850Y379500D02*
D03*
X430150D02*
D03*
X417450D02*
D03*
Y420500D02*
D03*
X455550Y379500D02*
D03*
Y420500D02*
D03*
X493650Y379500D02*
D03*
Y420500D02*
D03*
X506350Y379500D02*
D03*
X519050D02*
D03*
X506350Y420500D02*
D03*
X519050D02*
D03*
D17*
X670500Y192850D02*
D03*
X329500Y332550D02*
D03*
Y319850D02*
D03*
Y307150D02*
D03*
Y294450D02*
D03*
Y281750D02*
D03*
X370500Y332550D02*
D03*
Y319850D02*
D03*
Y307150D02*
D03*
Y294450D02*
D03*
Y281750D02*
D03*
X329500Y230950D02*
D03*
Y218250D02*
D03*
X370500Y230950D02*
D03*
Y218250D02*
D03*
X329500Y192850D02*
D03*
Y180150D02*
D03*
X370500Y192850D02*
D03*
Y180150D02*
D03*
Y167450D02*
D03*
X329500D02*
D03*
X370500Y205550D02*
D03*
X329500D02*
D03*
X370500Y243650D02*
D03*
X329500D02*
D03*
X370500Y256350D02*
D03*
Y269050D02*
D03*
X329500Y256350D02*
D03*
Y269050D02*
D03*
X670500Y167450D02*
D03*
Y180150D02*
D03*
Y205550D02*
D03*
Y218250D02*
D03*
X629500Y167450D02*
D03*
Y180150D02*
D03*
Y192850D02*
D03*
Y205550D02*
D03*
Y218250D02*
D03*
X670500Y269050D02*
D03*
Y281750D02*
D03*
X629500Y269050D02*
D03*
Y281750D02*
D03*
X670500Y307150D02*
D03*
Y319850D02*
D03*
X629500Y307150D02*
D03*
Y319850D02*
D03*
Y332550D02*
D03*
X670500D02*
D03*
X629500Y294450D02*
D03*
X670500D02*
D03*
X629500Y256350D02*
D03*
X670500D02*
D03*
X629500Y243650D02*
D03*
Y230950D02*
D03*
X670500Y243650D02*
D03*
Y230950D02*
D03*
D18*
X1283670Y267360D02*
D03*
X1404920Y446380D02*
D03*
X1281130Y329590D02*
D03*
X1378920Y436880D02*
D03*
X1404920Y427380D02*
D03*
X1309670Y276860D02*
D03*
X1283670Y286360D02*
D03*
X1307130Y339090D02*
D03*
X1281130Y348590D02*
D03*
D19*
X1410060Y323850D02*
D03*
X1413150Y290830D02*
D03*
X1431650D02*
D03*
X1415690Y347980D02*
D03*
X1434190D02*
D03*
X1391560Y323850D02*
D03*
X1154070Y254000D02*
D03*
X1172570D02*
D03*
D20*
X1341120Y226970D02*
D03*
X1347470Y147320D02*
D03*
Y128820D02*
D03*
X1275080Y210460D02*
D03*
Y228960D02*
D03*
X1121410Y230780D02*
D03*
Y249280D02*
D03*
X1066800Y180700D02*
D03*
Y162200D02*
D03*
X1117600Y160930D02*
D03*
Y179430D02*
D03*
X1249680Y144420D02*
D03*
Y162920D02*
D03*
X1172210Y154580D02*
D03*
Y173080D02*
D03*
X1198880Y152040D02*
D03*
Y170540D02*
D03*
X1144270Y157120D02*
D03*
Y175620D02*
D03*
X1341120Y245470D02*
D03*
X1342390Y424900D02*
D03*
Y406400D02*
D03*
X1313180Y389530D02*
D03*
Y408030D02*
D03*
X1369060Y373740D02*
D03*
Y355240D02*
D03*
X1252220Y306430D02*
D03*
Y287930D02*
D03*
X1310640Y430170D02*
D03*
Y448670D02*
D03*
X1244600Y354690D02*
D03*
Y336190D02*
D03*
X1224280Y158750D02*
D03*
Y140250D02*
D03*
X1202690Y278490D02*
D03*
Y259990D02*
D03*
D21*
X1358900Y77190D02*
D03*
Y105690D02*
D03*
X1289050Y165380D02*
D03*
Y136880D02*
D03*
X1316990Y141250D02*
D03*
Y112750D02*
D03*
D22*
X1394180Y173990D02*
D03*
X1422680D02*
D03*
X1394180Y110490D02*
D03*
X1422680D02*
D03*
X1394180Y142240D02*
D03*
X1422680D02*
D03*
X1422680Y240030D02*
D03*
X1394180D02*
D03*
X1422680Y212090D02*
D03*
X1394180D02*
D03*
M02*
