G04*
G04 #@! TF.GenerationSoftware,Altium Limited,Altium Designer,24.0.1 (36)*
G04*
G04 Layer_Color=128*
%FSLAX44Y44*%
%MOMM*%
G71*
G04*
G04 #@! TF.SameCoordinates,0FB82E01-D644-434E-A1D8-1B95A2BBF3EB*
G04*
G04*
G04 #@! TF.FilePolarity,Positive*
G04*
G01*
G75*
%ADD14R,1.3000X0.9000*%
%ADD15R,0.9000X1.3000*%
%ADD19R,1.1500X1.3500*%
%ADD20R,1.3500X1.1500*%
D14*
X1371600Y266090D02*
D03*
Y285090D02*
D03*
D15*
X1351940Y88900D02*
D03*
X1370940D02*
D03*
X1353210Y228600D02*
D03*
X1372210D02*
D03*
X1352600Y157480D02*
D03*
X1371600D02*
D03*
X1353210Y190500D02*
D03*
X1372210D02*
D03*
D19*
X1317900Y209550D02*
D03*
X1336400D02*
D03*
X1401720Y212090D02*
D03*
X1420220D02*
D03*
X1400450Y175260D02*
D03*
X1418950D02*
D03*
X1413870Y246380D02*
D03*
X1395370D02*
D03*
X1328060Y127000D02*
D03*
X1346560D02*
D03*
X1400450Y137160D02*
D03*
X1418950D02*
D03*
X1402990Y101600D02*
D03*
X1421490D02*
D03*
X1383940Y64770D02*
D03*
X1402440D02*
D03*
X1419500Y281940D02*
D03*
X1438000D02*
D03*
D20*
X1399540Y317860D02*
D03*
Y299360D02*
D03*
M02*
