G04*
G04 #@! TF.GenerationSoftware,Altium Limited,Altium Designer,24.0.1 (36)*
G04*
G04 Layer_Physical_Order=1*
G04 Layer_Color=255*
%FSLAX44Y44*%
%MOMM*%
G71*
G04*
G04 #@! TF.SameCoordinates,0FB82E01-D644-434E-A1D8-1B95A2BBF3EB*
G04*
G04*
G04 #@! TF.FilePolarity,Positive*
G04*
G01*
G75*
%ADD12C,0.2000*%
%ADD13C,0.5000*%
%ADD14R,1.3000X0.9000*%
%ADD15R,0.9000X1.3000*%
%ADD16R,0.7400X1.7000*%
%ADD17R,1.7000X0.7400*%
G04:AMPARAMS|DCode=18|XSize=0.65mm|YSize=1.2mm|CornerRadius=0.1625mm|HoleSize=0mm|Usage=FLASHONLY|Rotation=90.000|XOffset=0mm|YOffset=0mm|HoleType=Round|Shape=RoundedRectangle|*
%AMROUNDEDRECTD18*
21,1,0.6500,0.8750,0,0,90.0*
21,1,0.3250,1.2000,0,0,90.0*
1,1,0.3250,0.4375,0.1625*
1,1,0.3250,0.4375,-0.1625*
1,1,0.3250,-0.4375,-0.1625*
1,1,0.3250,-0.4375,0.1625*
%
%ADD18ROUNDEDRECTD18*%
%ADD19R,1.1500X1.3500*%
%ADD20R,1.3500X1.1500*%
G04:AMPARAMS|DCode=21|XSize=1.75mm|YSize=1.25mm|CornerRadius=0.3125mm|HoleSize=0mm|Usage=FLASHONLY|Rotation=180.000|XOffset=0mm|YOffset=0mm|HoleType=Round|Shape=RoundedRectangle|*
%AMROUNDEDRECTD21*
21,1,1.7500,0.6250,0,0,180.0*
21,1,1.1250,1.2500,0,0,180.0*
1,1,0.6250,-0.5625,0.3125*
1,1,0.6250,0.5625,0.3125*
1,1,0.6250,0.5625,-0.3125*
1,1,0.6250,-0.5625,-0.3125*
%
%ADD21ROUNDEDRECTD21*%
G04:AMPARAMS|DCode=22|XSize=1.75mm|YSize=1.25mm|CornerRadius=0.3125mm|HoleSize=0mm|Usage=FLASHONLY|Rotation=90.000|XOffset=0mm|YOffset=0mm|HoleType=Round|Shape=RoundedRectangle|*
%AMROUNDEDRECTD22*
21,1,1.7500,0.6250,0,0,90.0*
21,1,1.1250,1.2500,0,0,90.0*
1,1,0.6250,0.3125,0.5625*
1,1,0.6250,0.3125,-0.5625*
1,1,0.6250,-0.3125,-0.5625*
1,1,0.6250,-0.3125,0.5625*
%
%ADD22ROUNDEDRECTD22*%
%ADD38C,0.3000*%
%ADD39C,0.3000*%
%ADD40C,1.8750*%
%ADD41C,7.0000*%
%ADD42C,8.0000*%
%ADD43C,0.6750*%
%ADD44C,0.5000*%
%ADD45C,0.7000*%
G36*
X1500000Y550135D02*
X1503277D01*
X1509775Y549279D01*
X1516106Y547583D01*
X1522162Y545075D01*
X1527838Y541797D01*
X1533038Y537807D01*
X1537673Y533173D01*
X1541663Y527973D01*
X1544940Y522297D01*
X1547448Y516241D01*
X1549144Y509910D01*
X1550000Y503412D01*
Y500135D01*
X1550000Y500135D01*
X1550000Y500135D01*
X1550000Y50135D01*
Y46858D01*
X1549144Y40359D01*
X1547448Y34028D01*
X1544940Y27973D01*
X1541663Y22297D01*
X1537673Y17097D01*
X1533038Y12462D01*
X1527838Y8472D01*
X1522162Y5195D01*
X1516106Y2687D01*
X1509775Y990D01*
X1503277Y135D01*
X1500000Y135D01*
X50000Y135D01*
X46723D01*
X40224Y990D01*
X33893Y2687D01*
X27838Y5195D01*
X22162Y8472D01*
X16962Y12462D01*
X12327Y17097D01*
X8337Y22297D01*
X5060Y27973D01*
X2552Y34028D01*
X856Y40359D01*
X0Y46858D01*
X0Y50135D01*
X0Y500135D01*
Y503412D01*
X856Y509910D01*
X2552Y516241D01*
X5060Y522297D01*
X8337Y527973D01*
X12327Y533173D01*
X16962Y537807D01*
X22162Y541797D01*
X27838Y545075D01*
X33893Y547583D01*
X40224Y549279D01*
X46723Y550135D01*
X50000D01*
X50000Y550135D01*
X1500000Y550135D01*
D02*
G37*
%LPC*%
G36*
X982905Y529854D02*
X982905Y529854D01*
X930535D01*
X930535Y529854D01*
X929365Y529621D01*
X928372Y528958D01*
X928372Y528958D01*
X787010Y387595D01*
X646758D01*
X645588Y387363D01*
X644596Y386699D01*
X644595Y386699D01*
X428405Y170509D01*
X381000D01*
Y173150D01*
X360000D01*
Y161750D01*
X381000D01*
Y164391D01*
X429672D01*
X429672Y164391D01*
X430842Y164624D01*
X431835Y165287D01*
X603839Y337291D01*
X604964Y336621D01*
X604761Y335601D01*
Y287020D01*
X605033Y285654D01*
X605807Y284497D01*
X609617Y280687D01*
X610774Y279913D01*
X612140Y279641D01*
X619000D01*
Y276050D01*
X633099D01*
X633778Y274780D01*
X633758Y274750D01*
X619000D01*
Y263350D01*
X640000D01*
Y269703D01*
X651049Y280752D01*
X651822Y281910D01*
X652094Y283275D01*
Y305755D01*
X658730Y312391D01*
X660000Y311865D01*
Y301450D01*
X681000D01*
Y312850D01*
X662480D01*
X661801Y314120D01*
X661821Y314150D01*
X681000D01*
Y325550D01*
X662069D01*
Y326850D01*
X681000D01*
Y336181D01*
X1165713D01*
X1201808Y300086D01*
D01*
X1209412Y292482D01*
X1208926Y291309D01*
X1194490D01*
X1193125Y291037D01*
X1191967Y290263D01*
X1189752Y288049D01*
X1071880D01*
X1070514Y287777D01*
X1069357Y287003D01*
X1005191Y222838D01*
X921732Y139379D01*
X473360D01*
X471994Y139107D01*
X470837Y138333D01*
X443503Y111000D01*
X437150D01*
Y90000D01*
X448550D01*
Y104758D01*
X448580Y104778D01*
X449850Y104099D01*
Y90000D01*
X461250D01*
Y108809D01*
X461280Y108829D01*
X462550Y108150D01*
Y90000D01*
X473950D01*
Y111000D01*
X473443D01*
X472917Y112270D01*
X478998Y118351D01*
X487159D01*
X487685Y117081D01*
X481603Y111000D01*
X475250D01*
Y90000D01*
X486650D01*
Y104758D01*
X486680Y104778D01*
X487950Y104099D01*
Y90000D01*
X492281D01*
Y89620D01*
X492553Y88254D01*
X493327Y87097D01*
X494305Y86119D01*
X493779Y84849D01*
X377398D01*
X352819Y109428D01*
Y222042D01*
X358158Y227381D01*
X360000D01*
Y225250D01*
X381000D01*
Y236650D01*
X360000D01*
Y234519D01*
X356680D01*
X355314Y234247D01*
X354157Y233473D01*
X346727Y226043D01*
X345953Y224886D01*
X345681Y223520D01*
Y107950D01*
X345953Y106584D01*
X346727Y105427D01*
X373397Y78757D01*
X374554Y77983D01*
X375920Y77711D01*
X818203D01*
X819568Y77983D01*
X820726Y78757D01*
X826901Y84931D01*
X974600D01*
X975966Y85203D01*
X977123Y85977D01*
X1003374Y112228D01*
X1064097Y172950D01*
X1075550D01*
Y181191D01*
X1083700D01*
Y178260D01*
X1095653D01*
X1097007Y176907D01*
X1098164Y176133D01*
X1099530Y175861D01*
X1108850D01*
Y171680D01*
X1126350D01*
Y187180D01*
X1108850D01*
Y182999D01*
X1101008D01*
X1100700Y183307D01*
Y191260D01*
X1083700D01*
Y188329D01*
X1075550D01*
Y188450D01*
X1058843D01*
X1058768Y188630D01*
D01*
X1058317Y189720D01*
X1059857Y191260D01*
X1094557Y225960D01*
X1104510D01*
Y227211D01*
X1112660D01*
Y223030D01*
X1125113D01*
X1140701Y207442D01*
Y183370D01*
X1135520D01*
Y167870D01*
X1153020D01*
Y183370D01*
X1147839D01*
Y208920D01*
X1147567Y210286D01*
X1146793Y211443D01*
X1130160Y228077D01*
Y238530D01*
X1112660D01*
Y234349D01*
X1104510D01*
Y238960D01*
X1087510D01*
Y229007D01*
X1046953Y188450D01*
X958592Y100089D01*
X819150D01*
X817784Y99817D01*
X816627Y99043D01*
X808782Y91199D01*
X588250D01*
Y111000D01*
X588898Y112001D01*
X710992D01*
X716297Y106697D01*
X717454Y105923D01*
X718820Y105651D01*
X937260D01*
X938626Y105923D01*
X939783Y106697D01*
X1003374Y170288D01*
X1093768Y260681D01*
X1161842D01*
X1164820Y257703D01*
Y245250D01*
X1169001D01*
Y226940D01*
X1165050D01*
Y209940D01*
X1168641D01*
Y180830D01*
X1163460D01*
Y165330D01*
X1180960D01*
Y180830D01*
X1175779D01*
Y209940D01*
X1178050D01*
Y226940D01*
X1176139D01*
Y245250D01*
X1180320D01*
Y256994D01*
X1181026Y257286D01*
X1181590Y257411D01*
X1182664Y256693D01*
X1184030Y256421D01*
X1193940D01*
Y252240D01*
X1199121D01*
Y230148D01*
X1198453Y229480D01*
X1190500D01*
Y212480D01*
X1195311D01*
Y178290D01*
X1190130D01*
Y162790D01*
X1207630D01*
Y178290D01*
X1202449D01*
Y212480D01*
X1203500D01*
Y224433D01*
X1205213Y226147D01*
X1205987Y227304D01*
X1206259Y228670D01*
Y252240D01*
X1211440D01*
Y261984D01*
X1212613Y262470D01*
X1220431Y254652D01*
Y223620D01*
X1220703Y222254D01*
X1221477Y221097D01*
X1229807Y212767D01*
X1230964Y211993D01*
X1232330Y211721D01*
X1234830D01*
Y208790D01*
X1239761D01*
Y197058D01*
X1223027Y180323D01*
X1222253Y179166D01*
X1221981Y177800D01*
Y166500D01*
X1215530D01*
Y151000D01*
X1233030D01*
Y166500D01*
X1229119D01*
Y176322D01*
X1245853Y193057D01*
X1246627Y194214D01*
X1246899Y195580D01*
Y208790D01*
X1251830D01*
Y209101D01*
X1266330D01*
Y202710D01*
X1281761D01*
Y199048D01*
X1253383Y170670D01*
X1240930D01*
Y155170D01*
X1258430D01*
Y159351D01*
X1264352D01*
X1275097Y148607D01*
X1276254Y147833D01*
X1277620Y147561D01*
X1305983D01*
X1306514Y146569D01*
X1306521Y146291D01*
X1306140Y144375D01*
Y138125D01*
X1306537Y136125D01*
X1307670Y134430D01*
X1309365Y133297D01*
X1311365Y132900D01*
X1321106D01*
X1321534Y132260D01*
X1346880Y106913D01*
X1348038Y106140D01*
X1348050Y106138D01*
Y102565D01*
X1348447Y100565D01*
X1349580Y98870D01*
X1351275Y97737D01*
X1353275Y97340D01*
X1364525D01*
X1366525Y97737D01*
X1368220Y98870D01*
X1369353Y100565D01*
X1369750Y102565D01*
Y108815D01*
X1369353Y110815D01*
X1368220Y112510D01*
X1366525Y113643D01*
X1364525Y114040D01*
X1362469D01*
Y172832D01*
X1378087Y188450D01*
X1381803Y192167D01*
X1390906Y201269D01*
X1391055Y201240D01*
X1397305D01*
X1399305Y201637D01*
X1401000Y202770D01*
X1402133Y204465D01*
X1402530Y206465D01*
Y217715D01*
X1402133Y219715D01*
X1401000Y221410D01*
X1399305Y222543D01*
X1397749Y222852D01*
Y229268D01*
X1399305Y229577D01*
X1401000Y230710D01*
X1402133Y232405D01*
X1402530Y234405D01*
Y245655D01*
X1402133Y247655D01*
X1401000Y249350D01*
X1399305Y250483D01*
X1397305Y250880D01*
X1391055D01*
X1389055Y250483D01*
X1387360Y249350D01*
X1386227Y247655D01*
X1385830Y245655D01*
Y243599D01*
X1353130D01*
X1351764Y243327D01*
X1351140Y242910D01*
X1349870Y243563D01*
Y248173D01*
X1353398Y251701D01*
X1357680D01*
X1359045Y251973D01*
X1360203Y252747D01*
X1371303Y263847D01*
X1372077Y265005D01*
X1372349Y266370D01*
Y305085D01*
X1373522Y305571D01*
X1390787Y288307D01*
X1391944Y287533D01*
X1393310Y287261D01*
X1405400D01*
Y282080D01*
X1420900D01*
Y299580D01*
X1405400D01*
Y294399D01*
X1394788D01*
X1376290Y312897D01*
Y320281D01*
X1383810D01*
Y315100D01*
X1399310D01*
Y325893D01*
X1400333Y326577D01*
X1412987Y339230D01*
X1423440D01*
Y356730D01*
X1407940D01*
Y344277D01*
X1396332Y332669D01*
X1395810D01*
X1395465Y332600D01*
X1383810D01*
Y327419D01*
X1361340D01*
X1359975Y327147D01*
X1358817Y326373D01*
X1355267Y322823D01*
X1354493Y321665D01*
X1354221Y320300D01*
Y277310D01*
X1354280Y277015D01*
Y270867D01*
X1347592Y264179D01*
X1254880D01*
X1225750Y293309D01*
D01*
X1217371Y301688D01*
X1217857Y302861D01*
X1243470D01*
Y298680D01*
X1260970D01*
Y314180D01*
X1243470D01*
Y309999D01*
X1216131D01*
X1194682Y331448D01*
X1195168Y332621D01*
X1235850D01*
Y328440D01*
X1253350D01*
Y343751D01*
X1253350Y343940D01*
X1253805Y345021D01*
X1273694D01*
X1274141Y344352D01*
X1275341Y343550D01*
X1276755Y343269D01*
X1285505D01*
X1286919Y343550D01*
X1288118Y344352D01*
X1288920Y345551D01*
X1289201Y346965D01*
Y350215D01*
X1288920Y351629D01*
X1288118Y352828D01*
X1286919Y353630D01*
X1285505Y353911D01*
X1276755D01*
X1275341Y353630D01*
X1274141Y352828D01*
X1273694Y352159D01*
X1253350D01*
Y362191D01*
X1253350Y362440D01*
X1253950Y363461D01*
X1290680D01*
X1292046Y363733D01*
X1293203Y364507D01*
X1310477Y381780D01*
X1321930D01*
Y397280D01*
X1304430D01*
Y385827D01*
X1289202Y370599D01*
X991098D01*
X989732Y370327D01*
X988575Y369553D01*
X983270Y364249D01*
X633409D01*
X632389Y364046D01*
X631718Y365171D01*
X648025Y381478D01*
X788277D01*
X788277Y381478D01*
X789447Y381711D01*
X790440Y382374D01*
X931802Y523736D01*
X961713D01*
X962240Y522466D01*
X961178Y521404D01*
X959680Y518811D01*
X958905Y515918D01*
Y512923D01*
X959680Y510029D01*
X961178Y507436D01*
X963296Y505318D01*
X965889Y503820D01*
X968783Y503045D01*
X971777D01*
X974671Y503820D01*
X977264Y505318D01*
X979382Y507436D01*
X980880Y510029D01*
X981655Y512923D01*
Y515918D01*
X980880Y518811D01*
X979382Y521404D01*
X978320Y522466D01*
X978847Y523736D01*
X981638D01*
X985370Y520005D01*
X984680Y518811D01*
X983905Y515918D01*
Y512923D01*
X984680Y510029D01*
X986178Y507436D01*
X988296Y505318D01*
X990889Y503820D01*
X993783Y503045D01*
X996777D01*
X999671Y503820D01*
X1002264Y505318D01*
X1004382Y507436D01*
X1005880Y510029D01*
X1006655Y512923D01*
Y515918D01*
X1005880Y518811D01*
X1004382Y521404D01*
X1002264Y523522D01*
X999671Y525020D01*
X996777Y525795D01*
X993783D01*
X990889Y525020D01*
X989695Y524330D01*
X985068Y528958D01*
X984075Y529621D01*
X982905Y529854D01*
D02*
G37*
G36*
X996777Y500795D02*
X993783D01*
X990889Y500020D01*
X988296Y498522D01*
X986178Y496404D01*
X984680Y493811D01*
X983905Y490918D01*
Y487923D01*
X984680Y485029D01*
X986178Y482436D01*
X988296Y480318D01*
X990889Y478820D01*
X993783Y478045D01*
X996777D01*
X999671Y478820D01*
X1002264Y480318D01*
X1004382Y482436D01*
X1005880Y485029D01*
X1006655Y487923D01*
Y490918D01*
X1005880Y493811D01*
X1004382Y496404D01*
X1002264Y498522D01*
X999671Y500020D01*
X996777Y500795D01*
D02*
G37*
G36*
X971777D02*
X968783D01*
X965889Y500020D01*
X963296Y498522D01*
X961178Y496404D01*
X959680Y493811D01*
X958905Y490918D01*
Y487923D01*
X959680Y485029D01*
X961178Y482436D01*
X963296Y480318D01*
X965889Y478820D01*
X968783Y478045D01*
X971777D01*
X974671Y478820D01*
X977264Y480318D01*
X979382Y482436D01*
X980880Y485029D01*
X981655Y487923D01*
Y490918D01*
X980880Y493811D01*
X979382Y496404D01*
X977264Y498522D01*
X974671Y500020D01*
X971777Y500795D01*
D02*
G37*
G36*
Y475795D02*
X968783D01*
X965889Y475020D01*
X963296Y473522D01*
X961178Y471404D01*
X959680Y468811D01*
X958905Y465918D01*
Y462923D01*
X959467Y460824D01*
X958430Y459787D01*
X957933Y459920D01*
X955827D01*
X953792Y459375D01*
X951968Y458322D01*
X950478Y456832D01*
X949425Y455008D01*
X948880Y452973D01*
Y450867D01*
X949425Y448832D01*
X950478Y447008D01*
X951968Y445518D01*
X953792Y444465D01*
X955827Y443920D01*
X957933D01*
X959968Y444465D01*
X961792Y445518D01*
X963282Y447008D01*
X964335Y448832D01*
X964880Y450867D01*
Y452973D01*
X964856Y453062D01*
X965372Y453458D01*
X965974Y453798D01*
X968783Y453045D01*
X971777D01*
X974671Y453820D01*
X977264Y455318D01*
X979382Y457436D01*
X980880Y460029D01*
X981655Y462923D01*
Y465918D01*
X980880Y468811D01*
X979382Y471404D01*
X977264Y473522D01*
X974671Y475020D01*
X971777Y475795D01*
D02*
G37*
G36*
X996777D02*
X993783D01*
X990889Y475020D01*
X988296Y473522D01*
X986178Y471404D01*
X984680Y468811D01*
X983905Y465918D01*
Y462923D01*
X984680Y460029D01*
X986178Y457436D01*
X988296Y455318D01*
X990889Y453820D01*
X993783Y453045D01*
X996777D01*
X999671Y453820D01*
X1002264Y455318D01*
X1004382Y457436D01*
X1005880Y460029D01*
X1006655Y462923D01*
Y465918D01*
X1005880Y468811D01*
X1004382Y471404D01*
X1002264Y473522D01*
X999671Y475020D01*
X996777Y475795D01*
D02*
G37*
G36*
Y450795D02*
X993783D01*
X990889Y450020D01*
X988296Y448522D01*
X986178Y446404D01*
X984680Y443811D01*
X983905Y440918D01*
Y437923D01*
X984680Y435029D01*
X986178Y432436D01*
X988296Y430318D01*
X990889Y428820D01*
X993783Y428045D01*
X996777D01*
X999671Y428820D01*
X1002264Y430318D01*
X1004382Y432436D01*
X1005880Y435029D01*
X1006655Y437923D01*
Y440918D01*
X1005880Y443811D01*
X1004382Y446404D01*
X1002264Y448522D01*
X999671Y450020D01*
X996777Y450795D01*
D02*
G37*
G36*
X1471288Y449195D02*
X1468293D01*
X1465399Y448420D01*
X1462806Y446922D01*
X1460688Y444804D01*
X1459190Y442211D01*
X1458415Y439318D01*
Y436323D01*
X1459190Y433429D01*
X1460688Y430836D01*
X1462806Y428718D01*
X1465399Y427220D01*
X1468293Y426445D01*
X1471288D01*
X1474181Y427220D01*
X1476774Y428718D01*
X1478892Y430836D01*
X1480390Y433429D01*
X1481165Y436323D01*
Y439318D01*
X1480390Y442211D01*
X1478892Y444804D01*
X1476774Y446922D01*
X1474181Y448420D01*
X1471288Y449195D01*
D02*
G37*
G36*
X473950Y431000D02*
X462550D01*
Y425088D01*
X461250D01*
Y431000D01*
X449850D01*
Y425088D01*
X448550D01*
Y431000D01*
X437150D01*
Y425088D01*
X435850D01*
Y431000D01*
X424450D01*
Y410000D01*
X435850D01*
Y415912D01*
X437150D01*
Y410000D01*
X448550D01*
Y415912D01*
X449850D01*
Y410000D01*
X461250D01*
Y415912D01*
X462550D01*
Y410000D01*
X463662D01*
Y406651D01*
X462846Y405834D01*
X462595Y405458D01*
X462275Y405139D01*
X462102Y404722D01*
X461851Y404346D01*
X461763Y403903D01*
X461590Y403485D01*
Y403033D01*
X461502Y402590D01*
X461590Y402147D01*
Y401695D01*
X461763Y401278D01*
X461851Y400834D01*
X462102Y400458D01*
X462275Y400041D01*
X462595Y399721D01*
X462846Y399346D01*
X463222Y399095D01*
X463541Y398775D01*
X463958Y398602D01*
X464334Y398351D01*
X464777Y398263D01*
X465195Y398090D01*
X465647D01*
X466090Y398002D01*
X466533Y398090D01*
X466985D01*
X467402Y398263D01*
X467846Y398351D01*
X468222Y398602D01*
X468639Y398775D01*
X468959Y399095D01*
X469334Y399346D01*
X471494Y401506D01*
X472489Y402994D01*
X472838Y404750D01*
Y410000D01*
X473950D01*
Y431000D01*
D02*
G37*
G36*
X1000400Y544088D02*
X699390D01*
X697634Y543739D01*
X696146Y542744D01*
X584401Y431000D01*
X576850D01*
Y424069D01*
X575550D01*
Y431000D01*
X564150D01*
Y424069D01*
X562850D01*
Y431000D01*
X551450D01*
Y410000D01*
X562850D01*
Y416931D01*
X564150D01*
Y410000D01*
X575550D01*
Y416931D01*
X576850D01*
Y410000D01*
X588250D01*
Y421871D01*
X701290Y534912D01*
X998499D01*
X1087985Y445426D01*
X1089474Y444431D01*
X1091230Y444082D01*
X1298346D01*
X1298832Y442909D01*
X1292877Y436953D01*
X1292103Y435796D01*
X1291831Y434430D01*
Y427960D01*
X1292103Y426595D01*
X1292877Y425437D01*
X1299917Y418397D01*
X1301075Y417623D01*
X1302440Y417351D01*
X1327585D01*
X1328071Y416178D01*
X1323492Y411599D01*
X1321930D01*
Y415780D01*
X1304430D01*
Y400280D01*
X1321930D01*
Y404461D01*
X1324970D01*
X1326336Y404733D01*
X1327493Y405507D01*
X1332467Y410480D01*
X1333640Y409994D01*
Y403697D01*
X1333517Y403573D01*
X1332743Y402416D01*
X1332471Y401050D01*
Y389380D01*
X1327540D01*
Y381427D01*
X1304607Y358493D01*
X1303833Y357336D01*
X1303562Y355970D01*
Y344411D01*
X1302755D01*
X1301341Y344130D01*
X1300141Y343329D01*
X1299340Y342129D01*
X1299059Y340715D01*
Y337465D01*
X1299340Y336051D01*
X1300141Y334851D01*
X1301341Y334050D01*
X1302755Y333769D01*
X1311505D01*
X1312919Y334050D01*
X1314118Y334851D01*
X1314920Y336051D01*
X1315201Y337465D01*
Y340715D01*
X1314920Y342129D01*
X1314118Y343329D01*
X1312919Y344130D01*
X1311505Y344411D01*
X1310699D01*
Y354492D01*
X1332587Y376380D01*
X1344540D01*
Y379311D01*
X1360310D01*
Y365990D01*
X1377810D01*
Y369170D01*
X1378247Y369487D01*
X1379080Y369830D01*
X1380505Y369240D01*
X1382295D01*
X1383949Y369925D01*
X1385215Y371191D01*
X1385900Y372845D01*
Y374635D01*
X1385215Y376289D01*
X1383949Y377555D01*
X1382295Y378240D01*
X1380505D01*
X1379080Y377650D01*
X1378247Y377993D01*
X1377810Y378310D01*
Y381490D01*
X1366066D01*
X1365580Y382663D01*
X1375358Y392441D01*
X1410122D01*
X1432471Y370092D01*
X1431985Y368919D01*
X1406770D01*
Y374850D01*
X1389770D01*
Y366897D01*
X1381682Y358809D01*
X1377810D01*
Y362990D01*
X1360310D01*
Y352537D01*
X1307147Y299373D01*
X1306373Y298216D01*
X1306102Y296850D01*
Y282181D01*
X1305295D01*
X1303881Y281900D01*
X1302681Y281098D01*
X1301880Y279899D01*
X1301599Y278485D01*
Y275235D01*
X1301880Y273821D01*
X1302681Y272621D01*
X1303881Y271820D01*
X1305295Y271539D01*
X1314045D01*
X1315459Y271820D01*
X1316658Y272621D01*
X1317460Y273821D01*
X1317741Y275235D01*
Y278485D01*
X1317460Y279899D01*
X1316658Y281098D01*
X1315459Y281900D01*
X1314045Y282181D01*
X1313239D01*
Y295372D01*
X1365357Y347490D01*
X1377810D01*
Y351671D01*
X1383160D01*
X1384526Y351943D01*
X1385683Y352717D01*
X1394817Y361850D01*
X1400925D01*
X1401270Y361781D01*
X1432792D01*
X1436670Y357903D01*
X1436184Y356730D01*
X1426440D01*
Y339230D01*
X1430621D01*
Y330212D01*
X1430893Y328846D01*
X1431667Y327689D01*
X1459668Y299687D01*
X1459182Y298514D01*
X1439400D01*
Y299580D01*
X1423900D01*
Y282080D01*
X1439400D01*
Y291376D01*
X1502194D01*
X1503560Y291648D01*
X1504717Y292422D01*
X1515188Y302893D01*
X1515962Y304050D01*
X1516234Y305416D01*
Y344945D01*
X1515962Y346311D01*
X1515188Y347468D01*
X1504964Y357692D01*
X1505390Y358429D01*
X1506165Y361323D01*
Y364318D01*
X1505603Y366416D01*
X1506640Y367453D01*
X1507137Y367320D01*
X1509243D01*
X1511278Y367865D01*
X1513102Y368918D01*
X1514592Y370408D01*
X1515645Y372232D01*
X1516190Y374267D01*
Y376373D01*
X1515645Y378408D01*
X1514592Y380232D01*
X1513102Y381722D01*
X1511278Y382775D01*
X1509243Y383320D01*
X1507137D01*
X1506640Y383187D01*
X1505603Y384224D01*
X1506165Y386323D01*
Y389318D01*
X1505390Y392211D01*
X1503892Y394804D01*
X1501774Y396922D01*
X1499181Y398420D01*
X1496288Y399195D01*
X1493293D01*
X1490399Y398420D01*
X1487806Y396922D01*
X1485688Y394804D01*
X1484190Y392211D01*
X1483415Y389318D01*
Y386323D01*
X1484190Y383429D01*
X1485688Y380836D01*
X1487806Y378718D01*
X1490399Y377220D01*
X1493293Y376445D01*
X1496288D01*
X1499096Y377198D01*
X1499698Y376858D01*
X1500214Y376462D01*
X1500190Y376373D01*
Y374267D01*
X1500214Y374178D01*
X1499698Y373782D01*
X1499096Y373442D01*
X1496288Y374195D01*
X1493293D01*
X1490399Y373420D01*
X1487806Y371922D01*
X1485688Y369804D01*
X1484190Y367211D01*
X1483415Y364318D01*
Y361323D01*
X1484190Y358429D01*
X1485688Y355836D01*
X1487806Y353718D01*
X1490399Y352220D01*
X1493293Y351445D01*
X1496288D01*
X1499181Y352220D01*
X1499918Y352646D01*
X1509096Y343467D01*
Y327680D01*
X1507923Y327194D01*
X1504035Y331082D01*
X1505390Y333429D01*
X1506165Y336323D01*
Y339318D01*
X1505390Y342211D01*
X1503892Y344804D01*
X1501774Y346922D01*
X1499181Y348420D01*
X1496288Y349195D01*
X1493293D01*
X1490399Y348420D01*
X1487806Y346922D01*
X1485688Y344804D01*
X1484190Y342211D01*
X1483415Y339318D01*
Y336323D01*
X1484190Y333429D01*
X1485688Y330836D01*
X1487806Y328718D01*
X1490399Y327220D01*
X1493293Y326445D01*
X1496288D01*
X1498094Y326929D01*
X1501444Y323580D01*
X1500664Y322564D01*
X1499181Y323420D01*
X1496288Y324195D01*
X1493293D01*
X1490399Y323420D01*
X1487806Y321922D01*
X1485688Y319804D01*
X1484190Y317211D01*
X1483415Y314317D01*
Y311322D01*
X1484190Y308429D01*
X1485688Y305836D01*
X1486740Y304784D01*
X1486214Y303514D01*
X1478366D01*
X1477840Y304784D01*
X1478892Y305836D01*
X1480390Y308429D01*
X1481165Y311322D01*
Y314317D01*
X1480390Y317211D01*
X1478892Y319804D01*
X1476774Y321922D01*
X1474181Y323420D01*
X1471288Y324195D01*
X1468293D01*
X1465399Y323420D01*
X1464662Y322994D01*
X1457652Y330005D01*
Y334265D01*
X1458922Y334432D01*
X1459190Y333429D01*
X1460688Y330836D01*
X1462806Y328718D01*
X1465399Y327220D01*
X1468293Y326445D01*
X1471288D01*
X1474181Y327220D01*
X1476774Y328718D01*
X1478892Y330836D01*
X1480390Y333429D01*
X1481165Y336323D01*
Y339318D01*
X1480390Y342211D01*
X1478892Y344804D01*
X1476774Y346922D01*
X1474181Y348420D01*
X1471288Y349195D01*
X1468293D01*
X1465399Y348420D01*
X1464662Y347994D01*
X1432320Y380337D01*
X1432806Y381510D01*
X1439025D01*
X1439370Y381441D01*
X1446122D01*
X1459616Y367948D01*
X1459190Y367211D01*
X1458415Y364318D01*
Y361323D01*
X1459190Y358429D01*
X1460688Y355836D01*
X1462806Y353718D01*
X1465399Y352220D01*
X1468293Y351445D01*
X1471288D01*
X1474181Y352220D01*
X1476774Y353718D01*
X1478892Y355836D01*
X1480390Y358429D01*
X1481165Y361323D01*
Y364318D01*
X1480390Y367211D01*
X1478892Y369804D01*
X1476774Y371922D01*
X1474181Y373420D01*
X1471288Y374195D01*
X1468293D01*
X1465399Y373420D01*
X1464662Y372994D01*
X1450123Y387533D01*
X1448966Y388307D01*
X1447600Y388579D01*
X1444870D01*
Y394510D01*
X1432917D01*
X1424962Y402464D01*
Y424154D01*
X1424691Y425520D01*
X1423917Y426677D01*
X1411191Y439403D01*
X1410034Y440177D01*
X1408668Y440449D01*
X1386356D01*
X1385909Y441119D01*
X1384709Y441920D01*
X1383295Y442201D01*
X1374545D01*
X1373131Y441920D01*
X1371931Y441119D01*
X1371484Y440449D01*
X1320465D01*
X1320441Y440459D01*
X1319390Y441004D01*
X1319390Y441004D01*
Y456420D01*
X1301890D01*
Y453258D01*
X1093130D01*
X1003644Y542744D01*
X1002156Y543739D01*
X1000400Y544088D01*
D02*
G37*
G36*
X550150Y431000D02*
X538750D01*
Y410000D01*
X550150D01*
Y431000D01*
D02*
G37*
G36*
X537450D02*
X526050D01*
Y410000D01*
X537450D01*
Y431000D01*
D02*
G37*
G36*
X524750D02*
X513350D01*
Y410000D01*
X524750D01*
Y431000D01*
D02*
G37*
G36*
X512050D02*
X500650D01*
Y410000D01*
X512050D01*
Y431000D01*
D02*
G37*
G36*
X499350D02*
X487950D01*
Y410000D01*
X499350D01*
Y431000D01*
D02*
G37*
G36*
X486650D02*
X475250D01*
Y410000D01*
X486650D01*
Y431000D01*
D02*
G37*
G36*
X996777Y425795D02*
X993783D01*
X990889Y425020D01*
X988296Y423522D01*
X986178Y421404D01*
X984680Y418811D01*
X983905Y415918D01*
Y412923D01*
X984680Y410029D01*
X986178Y407436D01*
X988296Y405318D01*
X990889Y403820D01*
X993783Y403045D01*
X996777D01*
X999671Y403820D01*
X1002264Y405318D01*
X1004382Y407436D01*
X1005880Y410029D01*
X1006655Y412923D01*
Y415918D01*
X1005880Y418811D01*
X1004382Y421404D01*
X1002264Y423522D01*
X999671Y425020D01*
X996777Y425795D01*
D02*
G37*
G36*
X971777D02*
X968783D01*
X965889Y425020D01*
X963296Y423522D01*
X961178Y421404D01*
X959680Y418811D01*
X958905Y415918D01*
Y412923D01*
X959680Y410029D01*
X961178Y407436D01*
X963296Y405318D01*
X965889Y403820D01*
X968783Y403045D01*
X971777D01*
X974671Y403820D01*
X977264Y405318D01*
X979382Y407436D01*
X980880Y410029D01*
X981655Y412923D01*
Y415918D01*
X980880Y418811D01*
X979382Y421404D01*
X977264Y423522D01*
X974671Y425020D01*
X971777Y425795D01*
D02*
G37*
G36*
X1496288Y424195D02*
X1493293D01*
X1490399Y423420D01*
X1487806Y421922D01*
X1485688Y419804D01*
X1484190Y417211D01*
X1483415Y414318D01*
Y411323D01*
X1484190Y408429D01*
X1485688Y405836D01*
X1487806Y403718D01*
X1490399Y402220D01*
X1493293Y401445D01*
X1496288D01*
X1499181Y402220D01*
X1501774Y403718D01*
X1503892Y405836D01*
X1505390Y408429D01*
X1506165Y411323D01*
Y414318D01*
X1505390Y417211D01*
X1503892Y419804D01*
X1501774Y421922D01*
X1499181Y423420D01*
X1496288Y424195D01*
D02*
G37*
G36*
X1471288D02*
X1468293D01*
X1465399Y423420D01*
X1462806Y421922D01*
X1460688Y419804D01*
X1459190Y417211D01*
X1458415Y414318D01*
Y411323D01*
X1459190Y408429D01*
X1460688Y405836D01*
X1462806Y403718D01*
X1465399Y402220D01*
X1468293Y401445D01*
X1471288D01*
X1474181Y402220D01*
X1476774Y403718D01*
X1478892Y405836D01*
X1480390Y408429D01*
X1481165Y411323D01*
Y414318D01*
X1480390Y417211D01*
X1478892Y419804D01*
X1476774Y421922D01*
X1474181Y423420D01*
X1471288Y424195D01*
D02*
G37*
G36*
X996777Y400795D02*
X993783D01*
X990889Y400020D01*
X988296Y398522D01*
X986178Y396404D01*
X984680Y393811D01*
X983905Y390918D01*
Y387923D01*
X984680Y385029D01*
X986178Y382436D01*
X988296Y380318D01*
X990889Y378820D01*
X993783Y378045D01*
X996777D01*
X999671Y378820D01*
X1002264Y380318D01*
X1004382Y382436D01*
X1005880Y385029D01*
X1006655Y387923D01*
Y390918D01*
X1005880Y393811D01*
X1004382Y396404D01*
X1002264Y398522D01*
X999671Y400020D01*
X996777Y400795D01*
D02*
G37*
G36*
X971777D02*
X968783D01*
X965889Y400020D01*
X963296Y398522D01*
X961178Y396404D01*
X959680Y393811D01*
X958905Y390918D01*
Y387923D01*
X959680Y385029D01*
X961178Y382436D01*
X963296Y380318D01*
X965889Y378820D01*
X968783Y378045D01*
X971777D01*
X974671Y378820D01*
X977264Y380318D01*
X979382Y382436D01*
X980880Y385029D01*
X981655Y387923D01*
Y390918D01*
X980880Y393811D01*
X979382Y396404D01*
X977264Y398522D01*
X974671Y400020D01*
X971777Y400795D01*
D02*
G37*
G36*
X1471288Y399195D02*
X1468293D01*
X1465399Y398420D01*
X1462806Y396922D01*
X1460688Y394804D01*
X1459190Y392211D01*
X1458415Y389318D01*
Y386323D01*
X1459190Y383429D01*
X1460688Y380836D01*
X1462806Y378718D01*
X1465399Y377220D01*
X1468293Y376445D01*
X1471288D01*
X1474181Y377220D01*
X1476774Y378718D01*
X1478892Y380836D01*
X1480390Y383429D01*
X1481165Y386323D01*
Y389318D01*
X1480390Y392211D01*
X1478892Y394804D01*
X1476774Y396922D01*
X1474181Y398420D01*
X1471288Y399195D01*
D02*
G37*
G36*
X1418215Y380420D02*
X1416425D01*
X1414771Y379735D01*
X1413505Y378469D01*
X1412820Y376815D01*
Y375025D01*
X1413505Y373371D01*
X1414771Y372105D01*
X1416425Y371420D01*
X1418215D01*
X1419869Y372105D01*
X1421135Y373371D01*
X1421820Y375025D01*
Y376815D01*
X1421135Y378469D01*
X1419869Y379735D01*
X1418215Y380420D01*
D02*
G37*
G36*
X588250Y390000D02*
X576850D01*
Y369000D01*
X588250D01*
Y390000D01*
D02*
G37*
G36*
X575550D02*
X564150D01*
Y369000D01*
X575550D01*
Y390000D01*
D02*
G37*
G36*
X562850D02*
X551450D01*
Y369000D01*
X562850D01*
Y390000D01*
D02*
G37*
G36*
X550150D02*
X538750D01*
Y369000D01*
X550150D01*
Y390000D01*
D02*
G37*
G36*
X537450D02*
X526050D01*
Y369000D01*
X537450D01*
Y390000D01*
D02*
G37*
G36*
X524750D02*
X513350D01*
Y369000D01*
X524750D01*
Y390000D01*
D02*
G37*
G36*
X512050D02*
X500650D01*
Y369000D01*
X512050D01*
Y390000D01*
D02*
G37*
G36*
X494925Y400740D02*
X493135D01*
X491481Y400055D01*
X490215Y398789D01*
X489530Y397135D01*
Y395345D01*
X490215Y393691D01*
X490271Y393635D01*
Y390000D01*
X487950D01*
Y369000D01*
X499350D01*
Y390000D01*
X497409D01*
Y393255D01*
X497845Y393691D01*
X498530Y395345D01*
Y397135D01*
X497845Y398789D01*
X496579Y400055D01*
X494925Y400740D01*
D02*
G37*
G36*
X473950Y390000D02*
X462550D01*
Y369000D01*
X473950D01*
Y390000D01*
D02*
G37*
G36*
X461250D02*
X449850D01*
Y369000D01*
X461250D01*
Y390000D01*
D02*
G37*
G36*
X448550D02*
X437150D01*
Y369000D01*
X448550D01*
Y390000D01*
D02*
G37*
G36*
X435850D02*
X424450D01*
Y369000D01*
X435850D01*
Y390000D01*
D02*
G37*
G36*
X423150D02*
X411750D01*
Y369000D01*
X423150D01*
Y390000D01*
D02*
G37*
G36*
X486650D02*
X475250D01*
Y369000D01*
X477571D01*
Y364555D01*
X477515Y364499D01*
X476830Y362845D01*
Y361055D01*
X477515Y359401D01*
X478781Y358135D01*
X480435Y357450D01*
X482225D01*
X483879Y358135D01*
X485145Y359401D01*
X485830Y361055D01*
Y362845D01*
X485145Y364499D01*
X484709Y364935D01*
Y369000D01*
X486650D01*
Y390000D01*
D02*
G37*
G36*
X381000Y338250D02*
X360000D01*
Y326850D01*
X381000D01*
Y338250D01*
D02*
G37*
G36*
X340000D02*
X319000D01*
Y326850D01*
X340000D01*
Y338250D01*
D02*
G37*
G36*
X381000Y325550D02*
X360000D01*
Y314150D01*
X381000D01*
Y325550D01*
D02*
G37*
G36*
X340000D02*
X319000D01*
Y314150D01*
X340000D01*
Y325550D01*
D02*
G37*
G36*
X1423295Y313110D02*
X1421505D01*
X1419851Y312425D01*
X1418585Y311159D01*
X1417900Y309505D01*
Y307715D01*
X1418585Y306061D01*
X1419851Y304795D01*
X1421505Y304110D01*
X1423295D01*
X1424949Y304795D01*
X1426215Y306061D01*
X1426900Y307715D01*
Y309505D01*
X1426215Y311159D01*
X1424949Y312425D01*
X1423295Y313110D01*
D02*
G37*
G36*
X381000Y312850D02*
X360000D01*
Y301450D01*
X381000D01*
Y312850D01*
D02*
G37*
G36*
X340000D02*
X319000D01*
Y301450D01*
X340000D01*
Y312850D01*
D02*
G37*
G36*
X681000Y300150D02*
X660000D01*
Y288750D01*
X681000D01*
Y300150D01*
D02*
G37*
G36*
X381000D02*
X360000D01*
Y288750D01*
X381000D01*
Y300150D01*
D02*
G37*
G36*
X340000D02*
X319000D01*
Y288750D01*
X340000D01*
Y300150D01*
D02*
G37*
G36*
X1260970Y295680D02*
X1243470D01*
Y288029D01*
D01*
Y280180D01*
X1260970D01*
Y282791D01*
X1276234D01*
X1276682Y282122D01*
X1277881Y281320D01*
X1279295Y281039D01*
X1288045D01*
X1289459Y281320D01*
X1290659Y282122D01*
X1291460Y283321D01*
X1291741Y284735D01*
Y287985D01*
X1291460Y289399D01*
X1290659Y290599D01*
X1289459Y291400D01*
X1288045Y291681D01*
X1279295D01*
X1277881Y291400D01*
X1276682Y290599D01*
X1276234Y289929D01*
X1260970D01*
Y295680D01*
D02*
G37*
G36*
X681000Y287450D02*
X660000D01*
Y276050D01*
X681000D01*
Y287450D01*
D02*
G37*
G36*
X381000D02*
X360000D01*
Y276050D01*
X381000D01*
Y287450D01*
D02*
G37*
G36*
X340000D02*
X319000D01*
Y276050D01*
X340000D01*
Y287450D01*
D02*
G37*
G36*
X381000Y274750D02*
X360000D01*
Y263350D01*
X381000D01*
Y265576D01*
X397350D01*
X397501Y265425D01*
X399155Y264740D01*
X400945D01*
X402599Y265425D01*
X403865Y266691D01*
X404550Y268345D01*
Y270135D01*
X403865Y271789D01*
X402599Y273055D01*
X400945Y273740D01*
X399155D01*
X397501Y273055D01*
X397160Y272714D01*
X381000D01*
Y274750D01*
D02*
G37*
G36*
X681000D02*
X660000D01*
Y263350D01*
X681000D01*
Y274750D01*
D02*
G37*
G36*
X340000D02*
X319000D01*
Y263350D01*
X340000D01*
Y274750D01*
D02*
G37*
G36*
X398405Y262310D02*
X396615D01*
X394961Y261625D01*
X394332Y260996D01*
X381000D01*
Y262050D01*
X360000D01*
Y250650D01*
X381000D01*
Y253859D01*
X395290D01*
X396615Y253310D01*
X398405D01*
X400059Y253995D01*
X401325Y255261D01*
X402010Y256915D01*
Y258705D01*
X401325Y260359D01*
X400059Y261625D01*
X398405Y262310D01*
D02*
G37*
G36*
X681000Y262050D02*
X660000D01*
Y250650D01*
X681000D01*
Y262050D01*
D02*
G37*
G36*
X640000D02*
X619000D01*
Y259919D01*
X612491D01*
X611744Y259770D01*
X609975D01*
X608321Y259085D01*
X607055Y257819D01*
X606370Y256165D01*
Y254375D01*
X607055Y252721D01*
X608321Y251455D01*
X609975Y250770D01*
X611765D01*
X613419Y251455D01*
X614685Y252721D01*
X614710Y252781D01*
X619000D01*
Y250650D01*
X640000D01*
Y262050D01*
D02*
G37*
G36*
X340000D02*
X319000D01*
Y250650D01*
X340000D01*
Y262050D01*
D02*
G37*
G36*
X381000Y249350D02*
X360000D01*
Y247314D01*
X355950D01*
X355609Y247655D01*
X353955Y248340D01*
X352165D01*
X350511Y247655D01*
X349245Y246389D01*
X348560Y244735D01*
Y242945D01*
X349245Y241291D01*
X350511Y240025D01*
X352165Y239340D01*
X353955D01*
X355609Y240025D01*
X355760Y240176D01*
X360000D01*
Y237950D01*
X381000D01*
Y249350D01*
D02*
G37*
G36*
X1468748Y269655D02*
X1465753D01*
X1462859Y268880D01*
X1460266Y267382D01*
X1458148Y265264D01*
X1456650Y262671D01*
X1455875Y259778D01*
Y256782D01*
X1456650Y253889D01*
X1457076Y253152D01*
X1447522Y243599D01*
X1431030D01*
Y245655D01*
X1430633Y247655D01*
X1429500Y249350D01*
X1427805Y250483D01*
X1425805Y250880D01*
X1419555D01*
X1417555Y250483D01*
X1415860Y249350D01*
X1414727Y247655D01*
X1414330Y245655D01*
Y234405D01*
X1414727Y232405D01*
X1415860Y230710D01*
X1417555Y229577D01*
X1419555Y229180D01*
X1425805D01*
X1427805Y229577D01*
X1429500Y230710D01*
X1430633Y232405D01*
X1431030Y234405D01*
Y236461D01*
X1449000D01*
X1450366Y236733D01*
X1451523Y237507D01*
X1462122Y248106D01*
X1462859Y247680D01*
X1465753Y246905D01*
X1468748D01*
X1471641Y247680D01*
X1474234Y249178D01*
X1476352Y251296D01*
X1477850Y253889D01*
X1478625Y256782D01*
Y259778D01*
X1477850Y262671D01*
X1476352Y265264D01*
X1474234Y267382D01*
X1471641Y268880D01*
X1468748Y269655D01*
D02*
G37*
G36*
X681000Y249350D02*
X660000D01*
Y237950D01*
X681000D01*
Y249350D01*
D02*
G37*
G36*
X640000D02*
X619000D01*
Y237950D01*
X640000D01*
Y249350D01*
D02*
G37*
G36*
X340000D02*
X319000D01*
Y237950D01*
X340000D01*
Y249350D01*
D02*
G37*
G36*
X681000Y236650D02*
X660000D01*
Y225250D01*
X681000D01*
Y236650D01*
D02*
G37*
G36*
X640000D02*
X619000D01*
Y225250D01*
X640000D01*
Y236650D01*
D02*
G37*
G36*
X340000D02*
X319000D01*
Y225250D01*
X340000D01*
Y236650D01*
D02*
G37*
G36*
X1468748Y244655D02*
X1465753D01*
X1462859Y243880D01*
X1460266Y242382D01*
X1458148Y240264D01*
X1456650Y237671D01*
X1455875Y234778D01*
Y231782D01*
X1456650Y228889D01*
X1457076Y228152D01*
X1444582Y215659D01*
X1431030D01*
Y217715D01*
X1430633Y219715D01*
X1429500Y221410D01*
X1427805Y222543D01*
X1425805Y222940D01*
X1419555D01*
X1417555Y222543D01*
X1415860Y221410D01*
X1414727Y219715D01*
X1414330Y217715D01*
Y206465D01*
X1414727Y204465D01*
X1415860Y202770D01*
X1417555Y201637D01*
X1419555Y201240D01*
X1425805D01*
X1427805Y201637D01*
X1429500Y202770D01*
X1430633Y204465D01*
X1431030Y206465D01*
Y208521D01*
X1446060D01*
X1447426Y208793D01*
X1448583Y209567D01*
X1462122Y223106D01*
X1462859Y222680D01*
X1465753Y221905D01*
X1468748D01*
X1471641Y222680D01*
X1474234Y224178D01*
X1476352Y226296D01*
X1477850Y228889D01*
X1478625Y231782D01*
Y234778D01*
X1477850Y237671D01*
X1476352Y240264D01*
X1474234Y242382D01*
X1471641Y243880D01*
X1468748Y244655D01*
D02*
G37*
G36*
X416185Y311840D02*
X414395D01*
X412741Y311155D01*
X411475Y309889D01*
X410790Y308235D01*
Y306445D01*
X411475Y304791D01*
X411721Y304545D01*
Y237450D01*
X394226Y219955D01*
X392980Y220202D01*
X392782Y220683D01*
X391516Y221949D01*
X389862Y222634D01*
X388072D01*
X386418Y221949D01*
X386230Y221760D01*
X381000D01*
Y223950D01*
X360000D01*
Y212550D01*
X381000D01*
Y214623D01*
X386113D01*
X386418Y214319D01*
X386898Y214120D01*
X387146Y212874D01*
X383390Y209119D01*
X381000D01*
Y211250D01*
X360000D01*
Y199850D01*
X381000D01*
Y201981D01*
X384868D01*
X386234Y202253D01*
X387392Y203027D01*
X417813Y233448D01*
X418587Y234606D01*
X418859Y235972D01*
Y304545D01*
X419105Y304791D01*
X419790Y306445D01*
Y308235D01*
X419105Y309889D01*
X417839Y311155D01*
X416185Y311840D01*
D02*
G37*
G36*
X417830Y438928D02*
X417387Y438840D01*
X416935D01*
X416517Y438667D01*
X416074Y438579D01*
X415698Y438328D01*
X415281Y438155D01*
X414962Y437835D01*
X414586Y437584D01*
X414206Y437204D01*
X413211Y435716D01*
X412862Y433960D01*
Y431000D01*
X411750D01*
Y419088D01*
X348460D01*
X346704Y418739D01*
X345216Y417744D01*
X285046Y357574D01*
X284051Y356086D01*
X283702Y354330D01*
Y208479D01*
Y96520D01*
X284051Y94764D01*
X285046Y93276D01*
X322066Y56256D01*
X323554Y55261D01*
X325310Y54912D01*
X411750D01*
Y49000D01*
X423150D01*
Y70000D01*
X411750D01*
Y64088D01*
X327211D01*
X292878Y98420D01*
Y200962D01*
X319000D01*
Y199850D01*
X324912D01*
Y198550D01*
X319000D01*
Y187150D01*
X340000D01*
Y198550D01*
X334088D01*
Y199850D01*
X340000D01*
Y211250D01*
X319000D01*
Y210138D01*
X293119D01*
X292878Y210379D01*
Y216093D01*
X293338Y216254D01*
X294148Y216304D01*
X295016Y215006D01*
X296504Y214011D01*
X298260Y213662D01*
X329500D01*
X331256Y214011D01*
X332744Y215006D01*
X333739Y216494D01*
X334088Y218250D01*
X333739Y220006D01*
X332744Y221494D01*
X331256Y222489D01*
X329500Y222838D01*
X298260D01*
X296504Y222489D01*
X295016Y221494D01*
X294148Y220196D01*
X293338Y220246D01*
X292878Y220407D01*
Y352430D01*
X350360Y409912D01*
X416250D01*
X416693Y410000D01*
X423150D01*
Y431000D01*
X422038D01*
Y432538D01*
X422069Y432584D01*
X422157Y433027D01*
X422330Y433445D01*
Y433897D01*
X422418Y434340D01*
X422330Y434783D01*
Y435235D01*
X422157Y435653D01*
X422069Y436096D01*
X421818Y436472D01*
X421645Y436889D01*
X421325Y437209D01*
X421074Y437584D01*
X420699Y437835D01*
X420379Y438155D01*
X419962Y438328D01*
X419586Y438579D01*
X419142Y438667D01*
X418725Y438840D01*
X418273D01*
X417830Y438928D01*
D02*
G37*
G36*
X681000Y223950D02*
X660000D01*
Y212550D01*
X681000D01*
Y223950D01*
D02*
G37*
G36*
X640000D02*
X619000D01*
Y212550D01*
X640000D01*
Y223950D01*
D02*
G37*
G36*
X681000Y211250D02*
X660000D01*
Y199850D01*
X681000D01*
Y211250D01*
D02*
G37*
G36*
X640000D02*
X619000D01*
Y199850D01*
X640000D01*
Y211250D01*
D02*
G37*
G36*
X1468748Y219655D02*
X1465753D01*
X1462859Y218880D01*
X1460266Y217382D01*
X1458148Y215264D01*
X1456650Y212671D01*
X1455875Y209778D01*
Y206782D01*
X1456650Y203889D01*
X1458148Y201296D01*
X1460266Y199178D01*
X1462859Y197680D01*
X1465753Y196905D01*
X1468748D01*
X1471641Y197680D01*
X1474234Y199178D01*
X1476352Y201296D01*
X1477850Y203889D01*
X1478625Y206782D01*
Y209778D01*
X1477850Y212671D01*
X1476352Y215264D01*
X1474234Y217382D01*
X1471641Y218880D01*
X1468748Y219655D01*
D02*
G37*
G36*
X1493748D02*
X1490753D01*
X1487859Y218880D01*
X1485266Y217382D01*
X1483148Y215264D01*
X1481650Y212671D01*
X1480875Y209778D01*
Y206782D01*
X1481650Y203889D01*
X1483148Y201296D01*
X1485266Y199178D01*
X1487859Y197680D01*
X1490753Y196905D01*
X1493748D01*
X1496556Y197658D01*
X1497158Y197318D01*
X1497674Y196922D01*
X1497650Y196833D01*
Y194727D01*
X1497674Y194638D01*
X1497158Y194242D01*
X1496556Y193902D01*
X1493748Y194655D01*
X1490753D01*
X1487859Y193880D01*
X1485266Y192382D01*
X1483148Y190264D01*
X1481650Y187671D01*
X1480875Y184778D01*
Y181782D01*
X1481650Y178889D01*
X1483148Y176296D01*
X1485266Y174178D01*
X1487859Y172680D01*
X1490753Y171905D01*
X1493748D01*
X1496641Y172680D01*
X1497378Y173106D01*
X1501556Y168927D01*
Y166856D01*
X1500286Y166330D01*
X1499234Y167382D01*
X1496641Y168880D01*
X1493748Y169655D01*
X1490753D01*
X1487859Y168880D01*
X1485266Y167382D01*
X1483148Y165264D01*
X1481650Y162671D01*
X1480875Y159777D01*
Y156783D01*
X1481650Y153889D01*
X1483148Y151296D01*
X1485266Y149178D01*
X1487859Y147680D01*
X1490753Y146905D01*
X1492087D01*
X1492759Y145907D01*
X1492240Y144655D01*
X1490753D01*
X1487859Y143880D01*
X1485266Y142382D01*
X1483148Y140264D01*
X1481650Y137671D01*
X1480875Y134777D01*
Y131783D01*
X1481650Y128889D01*
X1482076Y128152D01*
X1477897Y123974D01*
X1475826D01*
X1475300Y125244D01*
X1476352Y126296D01*
X1477850Y128889D01*
X1478625Y131783D01*
Y134777D01*
X1477850Y137671D01*
X1476352Y140264D01*
X1474234Y142382D01*
X1471641Y143880D01*
X1468748Y144655D01*
X1465753D01*
X1462859Y143880D01*
X1460266Y142382D01*
X1458148Y140264D01*
X1456650Y137671D01*
X1455875Y134777D01*
Y133508D01*
X1454605Y132991D01*
X1434981Y153105D01*
X1434979Y153106D01*
X1434978Y153107D01*
X1426253Y162031D01*
X1426382Y163254D01*
X1427805Y163537D01*
X1429500Y164670D01*
X1430633Y166365D01*
X1431030Y168365D01*
Y179615D01*
X1430633Y181615D01*
X1429500Y183310D01*
X1427805Y184443D01*
X1425805Y184840D01*
X1419555D01*
X1417555Y184443D01*
X1415860Y183310D01*
X1414727Y181615D01*
X1414330Y179615D01*
Y168365D01*
X1414727Y166365D01*
X1415860Y164670D01*
X1417555Y163537D01*
X1419111Y163228D01*
Y160581D01*
X1419243Y159917D01*
X1419368Y159252D01*
X1419379Y159235D01*
X1419383Y159215D01*
X1419759Y158652D01*
X1420128Y158086D01*
X1423868Y154261D01*
X1423376Y153090D01*
X1419555D01*
X1417555Y152693D01*
X1415860Y151560D01*
X1414727Y149865D01*
X1414330Y147865D01*
Y136615D01*
X1414727Y134615D01*
X1415860Y132920D01*
X1417555Y131787D01*
X1419555Y131390D01*
X1425805D01*
X1427805Y131787D01*
X1427973Y131900D01*
X1444641Y115232D01*
X1444155Y114059D01*
X1431030D01*
Y116115D01*
X1430633Y118115D01*
X1429500Y119810D01*
X1427805Y120943D01*
X1425805Y121340D01*
X1419555D01*
X1417555Y120943D01*
X1415860Y119810D01*
X1414727Y118115D01*
X1414330Y116115D01*
Y104865D01*
X1414727Y102865D01*
X1415860Y101170D01*
X1417555Y100037D01*
X1419555Y99640D01*
X1425805D01*
X1427805Y100037D01*
X1429500Y101170D01*
X1430633Y102865D01*
X1431030Y104865D01*
Y106921D01*
X1447017D01*
X1447444Y106836D01*
X1494654D01*
X1496020Y107108D01*
X1497177Y107882D01*
X1512648Y123353D01*
X1513422Y124510D01*
X1513694Y125876D01*
Y140684D01*
X1513422Y142050D01*
X1512648Y143207D01*
X1508694Y147162D01*
Y170405D01*
X1508422Y171771D01*
X1507648Y172928D01*
X1502424Y178152D01*
X1502850Y178889D01*
X1503625Y181782D01*
Y184778D01*
X1503063Y186876D01*
X1504100Y187913D01*
X1504597Y187780D01*
X1506703D01*
X1508738Y188325D01*
X1510562Y189378D01*
X1512052Y190868D01*
X1513105Y192692D01*
X1513650Y194727D01*
Y196833D01*
X1513105Y198868D01*
X1512052Y200692D01*
X1510562Y202182D01*
X1508738Y203235D01*
X1506703Y203780D01*
X1504597D01*
X1504100Y203647D01*
X1503063Y204684D01*
X1503625Y206782D01*
Y209778D01*
X1502850Y212671D01*
X1501352Y215264D01*
X1499234Y217382D01*
X1496641Y218880D01*
X1493748Y219655D01*
D02*
G37*
G36*
X640000Y198550D02*
X619000D01*
Y187150D01*
X640000D01*
Y198550D01*
D02*
G37*
G36*
X381000D02*
X360000D01*
Y187150D01*
X381000D01*
Y198550D01*
D02*
G37*
G36*
X681000Y185850D02*
X660000D01*
Y174450D01*
X681000D01*
Y185850D01*
D02*
G37*
G36*
X640000D02*
X619000D01*
Y174450D01*
X640000D01*
Y185850D01*
D02*
G37*
G36*
X381000D02*
X360000D01*
Y174450D01*
X381000D01*
Y185850D01*
D02*
G37*
G36*
X1468748Y194655D02*
X1465753D01*
X1462859Y193880D01*
X1460266Y192382D01*
X1458148Y190264D01*
X1456650Y187671D01*
X1455875Y184778D01*
Y181782D01*
X1456650Y178889D01*
X1458148Y176296D01*
X1460266Y174178D01*
X1462859Y172680D01*
X1465753Y171905D01*
X1468748D01*
X1471641Y172680D01*
X1474234Y174178D01*
X1476352Y176296D01*
X1477850Y178889D01*
X1478625Y181782D01*
Y184778D01*
X1477850Y187671D01*
X1476352Y190264D01*
X1474234Y192382D01*
X1471641Y193880D01*
X1468748Y194655D01*
D02*
G37*
G36*
X681000Y173150D02*
X660000D01*
Y161750D01*
X681000D01*
Y173150D01*
D02*
G37*
G36*
X640000D02*
X619000D01*
Y161750D01*
X640000D01*
Y173150D01*
D02*
G37*
G36*
X1468748Y169655D02*
X1465753D01*
X1462859Y168880D01*
X1460266Y167382D01*
X1458148Y165264D01*
X1456650Y162671D01*
X1455875Y159777D01*
Y156783D01*
X1456650Y153889D01*
X1458148Y151296D01*
X1460266Y149178D01*
X1462859Y147680D01*
X1465753Y146905D01*
X1468748D01*
X1471641Y147680D01*
X1474234Y149178D01*
X1476352Y151296D01*
X1477850Y153889D01*
X1478625Y156783D01*
Y159777D01*
X1477850Y162671D01*
X1476352Y165264D01*
X1474234Y167382D01*
X1471641Y168880D01*
X1468748Y169655D01*
D02*
G37*
G36*
X340000Y185850D02*
X319000D01*
Y178776D01*
X315837Y175613D01*
X315174Y174620D01*
X314941Y173450D01*
X314941Y173450D01*
Y151900D01*
X314941Y151900D01*
X315174Y150730D01*
X315837Y149737D01*
X318080Y147494D01*
Y146425D01*
X318765Y144771D01*
X320031Y143505D01*
X321685Y142820D01*
X323475D01*
X325129Y143505D01*
X326395Y144771D01*
X327080Y146425D01*
Y148215D01*
X326395Y149869D01*
X325129Y151135D01*
X323475Y151820D01*
X322406D01*
X321059Y153167D01*
Y161750D01*
X328411D01*
Y141735D01*
X327655Y140979D01*
X326970Y139325D01*
Y137535D01*
X327655Y135881D01*
X328921Y134615D01*
X330575Y133930D01*
X332365D01*
X334019Y134615D01*
X335285Y135881D01*
X335970Y137535D01*
Y139325D01*
X335285Y140979D01*
X334529Y141735D01*
Y161750D01*
X340000D01*
Y173150D01*
X325180D01*
X324501Y174420D01*
X324521Y174450D01*
X340000D01*
Y185850D01*
D02*
G37*
G36*
X1394180Y194808D02*
X1393737Y194720D01*
X1393285D01*
X1392867Y194547D01*
X1392424Y194459D01*
X1392048Y194208D01*
X1391631Y194035D01*
X1391311Y193715D01*
X1390936Y193464D01*
X1390685Y193088D01*
X1390365Y192769D01*
X1390192Y192352D01*
X1389941Y191976D01*
X1389853Y191533D01*
X1389680Y191115D01*
Y190663D01*
X1389592Y190220D01*
Y184549D01*
X1389055Y184443D01*
X1387360Y183310D01*
X1386227Y181615D01*
X1385830Y179615D01*
Y168365D01*
X1386227Y166365D01*
X1387360Y164670D01*
X1389055Y163537D01*
X1390611Y163228D01*
Y153002D01*
X1389055Y152693D01*
X1387360Y151560D01*
X1386227Y149865D01*
X1385830Y147865D01*
Y136615D01*
X1386227Y134615D01*
X1387360Y132920D01*
X1389055Y131787D01*
X1390611Y131478D01*
Y121252D01*
X1389055Y120943D01*
X1388184Y120361D01*
D01*
X1387360Y119810D01*
D01*
X1386227Y118115D01*
X1385830Y116115D01*
Y104865D01*
X1386227Y102865D01*
X1387360Y101170D01*
X1389055Y100037D01*
X1391055Y99640D01*
X1397305D01*
X1399305Y100037D01*
X1401000Y101170D01*
X1402133Y102865D01*
X1402530Y104865D01*
Y116115D01*
X1402133Y118115D01*
X1401000Y119810D01*
X1399305Y120943D01*
X1397749Y121252D01*
Y131478D01*
X1399305Y131787D01*
X1401000Y132920D01*
X1402133Y134615D01*
X1402530Y136615D01*
Y147865D01*
X1402133Y149865D01*
X1401000Y151560D01*
X1399305Y152693D01*
X1397749Y153002D01*
Y163228D01*
X1399305Y163537D01*
X1401000Y164670D01*
X1402133Y166365D01*
X1402530Y168365D01*
Y179615D01*
X1402133Y181615D01*
X1401000Y183310D01*
X1399305Y184443D01*
X1398768Y184549D01*
Y190220D01*
X1398680Y190663D01*
Y191115D01*
X1398507Y191533D01*
X1398419Y191976D01*
X1398168Y192352D01*
X1397995Y192769D01*
X1397675Y193088D01*
X1397424Y193464D01*
X1397048Y193715D01*
X1396729Y194035D01*
X1396312Y194208D01*
X1395936Y194459D01*
X1395493Y194547D01*
X1395075Y194720D01*
X1394623D01*
X1394180Y194808D01*
D02*
G37*
G36*
X599065Y244530D02*
X597275D01*
X595621Y243845D01*
X594355Y242579D01*
X593670Y240925D01*
Y239135D01*
X594355Y237481D01*
X594601Y237235D01*
Y205948D01*
X549702Y161049D01*
X476250D01*
X474884Y160777D01*
X473727Y160003D01*
X429747Y116023D01*
X428973Y114866D01*
X428702Y113500D01*
Y111000D01*
X424450D01*
Y90000D01*
X435850D01*
Y111000D01*
X435850Y111000D01*
X435850D01*
X436017Y112201D01*
X477728Y153911D01*
X551180D01*
X552546Y154183D01*
X553703Y154957D01*
X600693Y201947D01*
X601467Y203104D01*
X601739Y204470D01*
Y237235D01*
X601985Y237481D01*
X602670Y239135D01*
Y240925D01*
X601985Y242579D01*
X600719Y243845D01*
X599065Y244530D01*
D02*
G37*
G36*
X423150Y111000D02*
X411750D01*
Y90000D01*
X423150D01*
Y111000D01*
D02*
G37*
G36*
X1258430Y152170D02*
X1240930D01*
Y136670D01*
X1247051D01*
Y92320D01*
X1246229Y92100D01*
D01*
X1243636Y90602D01*
X1241518Y88484D01*
X1240020Y85891D01*
X1239245Y82998D01*
Y80002D01*
X1240020Y77109D01*
X1241518Y74516D01*
X1243636Y72398D01*
X1246229Y70900D01*
X1249122Y70125D01*
X1252117D01*
X1255011Y70900D01*
X1257604Y72398D01*
X1259722Y74516D01*
X1261220Y77109D01*
X1261995Y80002D01*
Y82998D01*
X1261220Y85891D01*
X1259722Y88484D01*
X1257604Y90602D01*
X1255011Y92100D01*
X1254189Y92320D01*
D01*
Y136670D01*
X1258430D01*
Y152170D01*
D02*
G37*
G36*
X1233030Y148000D02*
X1215530D01*
Y132500D01*
X1220711D01*
Y91801D01*
X1218636Y90602D01*
X1216518Y88484D01*
X1215020Y85891D01*
X1214245Y82998D01*
Y80002D01*
X1215020Y77109D01*
X1216518Y74516D01*
X1218636Y72398D01*
X1221229Y70900D01*
X1224122Y70125D01*
X1227117D01*
X1230011Y70900D01*
X1232604Y72398D01*
X1234722Y74516D01*
X1236220Y77109D01*
X1236995Y80002D01*
Y82998D01*
X1236220Y85891D01*
X1234722Y88484D01*
X1232604Y90602D01*
X1230011Y92100D01*
X1227849Y92679D01*
Y132500D01*
X1233030D01*
Y148000D01*
D02*
G37*
G36*
X1180960Y162330D02*
X1163460D01*
Y146830D01*
X1168641D01*
Y90606D01*
X1168636Y90602D01*
X1166518Y88484D01*
X1165020Y85891D01*
X1164245Y82998D01*
Y80002D01*
X1165020Y77109D01*
X1166518Y74516D01*
X1168636Y72398D01*
X1171229Y70900D01*
X1174122Y70125D01*
X1177117D01*
X1180011Y70900D01*
X1182604Y72398D01*
X1184722Y74516D01*
X1186220Y77109D01*
X1186995Y80002D01*
Y82998D01*
X1186242Y85806D01*
X1186582Y86408D01*
X1186978Y86924D01*
X1187067Y86900D01*
X1189173D01*
X1189262Y86924D01*
X1189658Y86408D01*
X1189998Y85806D01*
X1189763Y84931D01*
X1189245Y82998D01*
Y80002D01*
X1190020Y77109D01*
X1191518Y74516D01*
X1193636Y72398D01*
X1196229Y70900D01*
X1199122Y70125D01*
X1202117D01*
X1205011Y70900D01*
X1207604Y72398D01*
X1209722Y74516D01*
X1211220Y77109D01*
X1211995Y80002D01*
Y82998D01*
X1211220Y85891D01*
X1209722Y88484D01*
X1207604Y90602D01*
X1205011Y92100D01*
X1204189Y92320D01*
Y144290D01*
X1207630D01*
Y159790D01*
X1190130D01*
Y144290D01*
X1197051D01*
Y97384D01*
X1195781Y97217D01*
X1195575Y97988D01*
X1194522Y99812D01*
X1193032Y101302D01*
X1191208Y102355D01*
X1189173Y102900D01*
X1187067D01*
X1185032Y102355D01*
X1183208Y101302D01*
X1181718Y99812D01*
X1180665Y97988D01*
X1180120Y95953D01*
Y93847D01*
X1180253Y93350D01*
X1179216Y92313D01*
X1177117Y92875D01*
X1175779D01*
Y146830D01*
X1180960D01*
Y162330D01*
D02*
G37*
G36*
X1153020Y164870D02*
X1135520D01*
Y149370D01*
X1141701D01*
Y91112D01*
X1141973Y89746D01*
X1142296Y89263D01*
X1141518Y88484D01*
X1140020Y85891D01*
X1139245Y82998D01*
Y80002D01*
X1140020Y77109D01*
X1141518Y74516D01*
X1143636Y72398D01*
X1146229Y70900D01*
X1149122Y70125D01*
X1152117D01*
X1155011Y70900D01*
X1157604Y72398D01*
X1159722Y74516D01*
X1161220Y77109D01*
X1161995Y80002D01*
Y82998D01*
X1161220Y85891D01*
X1159722Y88484D01*
X1157604Y90602D01*
X1155011Y92100D01*
X1152117Y92875D01*
X1149122D01*
X1148839Y93093D01*
Y149370D01*
X1153020D01*
Y164870D01*
D02*
G37*
G36*
X1126350Y168680D02*
X1108850D01*
Y153180D01*
X1119281D01*
Y90975D01*
X1118636Y90602D01*
X1116518Y88484D01*
X1115020Y85891D01*
X1114245Y82998D01*
Y80002D01*
X1115020Y77109D01*
X1116518Y74516D01*
X1118636Y72398D01*
X1121229Y70900D01*
X1124122Y70125D01*
X1127117D01*
X1130011Y70900D01*
X1132604Y72398D01*
X1134722Y74516D01*
X1136220Y77109D01*
X1136995Y80002D01*
Y82998D01*
X1136220Y85891D01*
X1134722Y88484D01*
X1132604Y90602D01*
X1130011Y92100D01*
X1127117Y92875D01*
X1126419D01*
Y156680D01*
X1126350Y157025D01*
Y168680D01*
D02*
G37*
G36*
X1294675Y145230D02*
X1283425D01*
X1281425Y144833D01*
X1279730Y143700D01*
X1278597Y142005D01*
X1278200Y140005D01*
Y133755D01*
X1278597Y131755D01*
X1279730Y130060D01*
X1281425Y128927D01*
X1283425Y128530D01*
X1285481D01*
Y90378D01*
X1259155Y64052D01*
X1257604Y65602D01*
X1255011Y67100D01*
X1252117Y67875D01*
X1249122D01*
X1246229Y67100D01*
X1243636Y65602D01*
X1241518Y63484D01*
X1240020Y60891D01*
X1239245Y57997D01*
Y55002D01*
X1240020Y52109D01*
X1241518Y49516D01*
X1242570Y48464D01*
X1242044Y47194D01*
X1239973D01*
X1235794Y51372D01*
X1236220Y52109D01*
X1236995Y55002D01*
Y57997D01*
X1236220Y60891D01*
X1234722Y63484D01*
X1232604Y65602D01*
X1230011Y67100D01*
X1227117Y67875D01*
X1224122D01*
X1221229Y67100D01*
X1218636Y65602D01*
X1216518Y63484D01*
X1215020Y60891D01*
X1214245Y57997D01*
Y55002D01*
X1215020Y52109D01*
X1216518Y49516D01*
X1218636Y47398D01*
X1221229Y45900D01*
X1224122Y45125D01*
X1227117D01*
X1230011Y45900D01*
X1230748Y46326D01*
X1233706Y43367D01*
X1233220Y42194D01*
X1219973D01*
X1210794Y51372D01*
X1211220Y52109D01*
X1211995Y55002D01*
Y57997D01*
X1211220Y60891D01*
X1209722Y63484D01*
X1207604Y65602D01*
X1205011Y67100D01*
X1202117Y67875D01*
X1199122D01*
X1196229Y67100D01*
X1193636Y65602D01*
X1191518Y63484D01*
X1190020Y60891D01*
X1189245Y57997D01*
Y55002D01*
X1190020Y52109D01*
X1191518Y49516D01*
X1193636Y47398D01*
X1196229Y45900D01*
X1199122Y45125D01*
X1202117D01*
X1205011Y45900D01*
X1205748Y46326D01*
X1215972Y36102D01*
X1217129Y35328D01*
X1218495Y35056D01*
X1317835D01*
X1319201Y35328D01*
X1320358Y36102D01*
X1353126Y68869D01*
X1353275Y68840D01*
X1364525D01*
X1366525Y69237D01*
X1368220Y70370D01*
X1369353Y72065D01*
X1369750Y74065D01*
Y80315D01*
X1369353Y82315D01*
X1368220Y84010D01*
X1366525Y85143D01*
X1364525Y85540D01*
X1353275D01*
X1351275Y85143D01*
X1349580Y84010D01*
X1348447Y82315D01*
X1348050Y80315D01*
Y74065D01*
X1348079Y73916D01*
X1316357Y42194D01*
X1269370D01*
X1268884Y43367D01*
X1315388Y89872D01*
X1316162Y91029D01*
X1316434Y92395D01*
Y104400D01*
X1322615D01*
X1324615Y104797D01*
X1326310Y105930D01*
X1327443Y107625D01*
X1327840Y109625D01*
Y115875D01*
X1327443Y117875D01*
X1326310Y119570D01*
X1324615Y120703D01*
X1322615Y121100D01*
X1311365D01*
X1309365Y120703D01*
X1307670Y119570D01*
X1306537Y117875D01*
X1306140Y115875D01*
Y109625D01*
X1306537Y107625D01*
X1307670Y105930D01*
X1309296Y104843D01*
Y93873D01*
X1262617Y47194D01*
X1259196D01*
X1258670Y48464D01*
X1259722Y49516D01*
X1261220Y52109D01*
X1261995Y55002D01*
Y56862D01*
X1262187Y56990D01*
X1291573Y86377D01*
X1292347Y87534D01*
X1292619Y88900D01*
Y128530D01*
X1294675D01*
X1296675Y128927D01*
X1298370Y130060D01*
X1299503Y131755D01*
X1299900Y133755D01*
Y140005D01*
X1299503Y142005D01*
X1298370Y143700D01*
X1296675Y144833D01*
X1294675Y145230D01*
D02*
G37*
G36*
X575550Y70000D02*
X564150D01*
Y49000D01*
X575550D01*
Y70000D01*
D02*
G37*
G36*
X562850D02*
X551450D01*
Y49000D01*
X562850D01*
Y70000D01*
D02*
G37*
G36*
X550150D02*
X538750D01*
Y49000D01*
X550150D01*
Y70000D01*
D02*
G37*
G36*
X537450D02*
X526050D01*
Y49000D01*
X537450D01*
Y70000D01*
D02*
G37*
G36*
X524750D02*
X513350D01*
Y49000D01*
X524750D01*
Y70000D01*
D02*
G37*
G36*
X512050D02*
X500650D01*
Y49000D01*
X512050D01*
Y70000D01*
D02*
G37*
G36*
X499350D02*
X487950D01*
Y49000D01*
X499350D01*
Y70000D01*
D02*
G37*
G36*
X486650D02*
X475250D01*
Y49000D01*
X486650D01*
Y70000D01*
D02*
G37*
G36*
X473950D02*
X462550D01*
Y49000D01*
X473950D01*
Y70000D01*
D02*
G37*
G36*
X461250D02*
X449850D01*
Y49000D01*
X461250D01*
Y70000D01*
D02*
G37*
G36*
X448550D02*
X437150D01*
Y49000D01*
X448550D01*
Y70000D01*
D02*
G37*
G36*
X435850D02*
X424450D01*
Y49000D01*
X435850D01*
Y70000D01*
D02*
G37*
%LPD*%
G36*
X1235850Y362440D02*
X1235850Y362191D01*
Y346940D01*
X1248303D01*
X1249177Y346067D01*
X1250334Y345293D01*
X1250752Y345210D01*
X1250627Y343940D01*
X1235850D01*
Y339759D01*
X1193442D01*
X1175928Y357273D01*
X1174770Y358047D01*
X1173404Y358319D01*
X989093D01*
X988607Y359492D01*
X992576Y363461D01*
X1235250D01*
X1235850Y362440D01*
D02*
G37*
G36*
X613169Y320172D02*
X613896Y319084D01*
X615653Y317327D01*
X616811Y316553D01*
X618176Y316281D01*
X619000D01*
Y314150D01*
X633099D01*
X633778Y312880D01*
X633758Y312850D01*
X619000D01*
Y301450D01*
X633099D01*
X633778Y300180D01*
X633758Y300150D01*
X619000D01*
Y288750D01*
X640000D01*
Y295103D01*
X643783Y298887D01*
X644957Y298400D01*
Y284753D01*
X641173Y280970D01*
X640000Y281456D01*
Y287450D01*
X619000D01*
Y286779D01*
X613618D01*
X611899Y288498D01*
Y319610D01*
X613075Y320187D01*
X613169Y320172D01*
D02*
G37*
G36*
X1193940Y263559D02*
X1185508D01*
X1184568Y264498D01*
X1185054Y265671D01*
X1193940D01*
Y263559D01*
D02*
G37*
G36*
X1175050Y263923D02*
X1174564Y262750D01*
X1169867D01*
X1168109Y264508D01*
X1168595Y265681D01*
X1173292D01*
X1175050Y263923D01*
D02*
G37*
G36*
X1347471Y255868D02*
X1344823Y253220D01*
X1332370D01*
Y249039D01*
X1325728D01*
X1320783Y253983D01*
X1319626Y254757D01*
X1318260Y255029D01*
X1256959D01*
X1256120Y255868D01*
X1256606Y257041D01*
X1346985D01*
X1347471Y255868D01*
D02*
G37*
G36*
X1254777Y240047D02*
X1255934Y239273D01*
X1257300Y239001D01*
X1277442D01*
X1281761Y234682D01*
Y218210D01*
X1266330D01*
Y216239D01*
X1251830D01*
Y221790D01*
X1234830D01*
Y219458D01*
X1233560Y219107D01*
X1227569Y225098D01*
Y256130D01*
X1227297Y257495D01*
X1226523Y258653D01*
X1213413Y271763D01*
X1212255Y272537D01*
X1210890Y272809D01*
X1183329D01*
X1179364Y276773D01*
X1178206Y277547D01*
X1176841Y277819D01*
X1072061D01*
X1071657Y278422D01*
X1071498Y279051D01*
X1073358Y280911D01*
X1191230D01*
X1192596Y281183D01*
X1193754Y281957D01*
X1195968Y284171D01*
X1210652D01*
X1254777Y240047D01*
D02*
G37*
G36*
X1385830Y206465D02*
X1385859Y206316D01*
X1376757Y197213D01*
X1356377Y176833D01*
X1355603Y175676D01*
X1355331Y174310D01*
Y155070D01*
X1345299D01*
Y176920D01*
X1348230D01*
Y193920D01*
X1340986D01*
X1340500Y195093D01*
X1353928Y208521D01*
X1385830D01*
Y206465D01*
D02*
G37*
G36*
X1321727Y242947D02*
X1322884Y242173D01*
X1324250Y241901D01*
X1332370D01*
Y239679D01*
X1331555Y239517D01*
X1330397Y238743D01*
X1328347Y236693D01*
X1327573Y235535D01*
X1327301Y234170D01*
Y228585D01*
X1326055Y227339D01*
X1325370Y225685D01*
Y223895D01*
X1326055Y222241D01*
X1327321Y220975D01*
X1328975Y220290D01*
X1330765D01*
X1332419Y220975D01*
X1333685Y222241D01*
X1334370Y223895D01*
Y225685D01*
X1334330Y225783D01*
X1334439Y226331D01*
Y232651D01*
X1349320D01*
X1350685Y232923D01*
X1351843Y233697D01*
X1354608Y236461D01*
X1385830D01*
Y234405D01*
X1386227Y232405D01*
X1387360Y230710D01*
X1389055Y229577D01*
X1390611Y229268D01*
Y222852D01*
X1389055Y222543D01*
X1387360Y221410D01*
X1386227Y219715D01*
X1385830Y217715D01*
Y215659D01*
X1352450D01*
X1351085Y215387D01*
X1350500Y214996D01*
X1349927Y214613D01*
X1331207Y195893D01*
X1330433Y194735D01*
X1330161Y193370D01*
Y181948D01*
X1317162Y168949D01*
X1299812D01*
X1299503Y170505D01*
X1298370Y172200D01*
X1296675Y173333D01*
X1294675Y173730D01*
X1283425D01*
X1281425Y173333D01*
X1279730Y172200D01*
X1278597Y170505D01*
X1278200Y168505D01*
Y162255D01*
X1278597Y160255D01*
X1279730Y158560D01*
X1281425Y157427D01*
X1283425Y157030D01*
X1294675D01*
X1296675Y157427D01*
X1298370Y158560D01*
X1299503Y160255D01*
X1299812Y161811D01*
X1318640D01*
X1320005Y162083D01*
X1321163Y162857D01*
X1334385Y176078D01*
X1335230Y176920D01*
Y176920D01*
X1335230Y176920D01*
X1338161D01*
Y154699D01*
X1279098D01*
X1268353Y165443D01*
X1267196Y166217D01*
X1265830Y166489D01*
X1260955D01*
X1260469Y167662D01*
X1287853Y195047D01*
X1288627Y196204D01*
X1288899Y197570D01*
Y236160D01*
X1288627Y237525D01*
X1287853Y238683D01*
X1281443Y245093D01*
X1280285Y245867D01*
X1278920Y246139D01*
X1259278D01*
X1258911Y246621D01*
X1259541Y247891D01*
X1316782D01*
X1321727Y242947D01*
D02*
G37*
G36*
X922846Y130971D02*
X922446Y130489D01*
X475601D01*
X474971Y131759D01*
X475338Y132241D01*
X922248D01*
X922846Y130971D01*
D02*
G37*
G36*
X1338720Y139570D02*
X1355331D01*
Y114040D01*
X1353275D01*
X1351275Y113643D01*
X1350657Y113230D01*
X1327512Y136375D01*
X1327502Y136424D01*
X1327840Y138125D01*
Y144375D01*
X1327459Y146291D01*
X1327466Y146569D01*
X1327997Y147561D01*
X1338720D01*
Y139570D01*
D02*
G37*
G36*
X1087501Y264508D02*
X1004548Y181554D01*
X935782Y112789D01*
X720298D01*
X716005Y117081D01*
X716531Y118351D01*
X929640D01*
X931006Y118623D01*
X932163Y119397D01*
X1006646Y193880D01*
X1078448Y265681D01*
X1087015D01*
X1087501Y264508D01*
D02*
G37*
G36*
X1058050Y187657D02*
Y187509D01*
Y176997D01*
X973122Y92069D01*
X961820D01*
X961629Y92642D01*
X961609Y93339D01*
X962593Y93997D01*
X1003374Y134778D01*
X1056780Y188183D01*
X1058050Y187657D01*
D02*
G37*
%LPC*%
G36*
X1319155Y239450D02*
X1317365D01*
X1315711Y238765D01*
X1314445Y237499D01*
X1313760Y235845D01*
Y234055D01*
X1314445Y232401D01*
X1315711Y231135D01*
X1317365Y230450D01*
X1319155D01*
X1320809Y231135D01*
X1322075Y232401D01*
X1322760Y234055D01*
Y235845D01*
X1322075Y237499D01*
X1320809Y238765D01*
X1319155Y239450D01*
D02*
G37*
%LPD*%
G36*
X1417825Y422676D02*
Y400986D01*
X1418097Y399621D01*
X1418871Y398463D01*
X1427870Y389463D01*
Y386446D01*
X1426697Y385960D01*
X1414123Y398533D01*
X1412966Y399307D01*
X1411600Y399579D01*
X1373880D01*
X1372515Y399307D01*
X1371357Y398533D01*
X1359272Y386449D01*
X1344540D01*
Y389380D01*
X1339609D01*
Y398650D01*
X1351140D01*
Y412191D01*
X1351955Y412353D01*
X1353113Y413127D01*
X1363798Y423811D01*
X1397484D01*
X1397932Y423142D01*
X1399131Y422340D01*
X1400545Y422059D01*
X1409295D01*
X1410709Y422340D01*
X1411909Y423142D01*
X1412710Y424341D01*
X1412984Y425721D01*
X1413449Y426041D01*
X1414164Y426337D01*
X1417825Y422676D01*
D02*
G37*
G36*
X1450515Y344058D02*
Y328527D01*
X1450786Y327161D01*
X1451560Y326004D01*
X1459616Y317948D01*
X1459190Y317211D01*
X1458415Y314317D01*
Y312830D01*
X1457145Y312304D01*
X1437759Y331690D01*
Y339230D01*
X1441940D01*
Y350974D01*
X1443113Y351460D01*
X1450515Y344058D01*
D02*
G37*
G36*
X1454698Y122676D02*
X1454861Y122564D01*
X1455615Y121645D01*
X1456624Y120817D01*
X1456842Y120550D01*
X1456898Y120503D01*
X1456901Y120501D01*
X1456904Y120499D01*
X1457304Y120169D01*
X1456876Y118974D01*
X1450993D01*
X1431450Y138517D01*
X1431030Y138797D01*
Y145249D01*
X1432207Y145728D01*
X1454698Y122676D01*
D02*
G37*
D12*
X646758Y384537D02*
X788277D01*
X429672Y167450D02*
X646758Y384537D01*
X930535Y526795D02*
X982905D01*
X788277Y384537D02*
X930535Y526795D01*
X982905D02*
X995280Y514420D01*
X370500Y167450D02*
X429672D01*
X331470Y138430D02*
Y165480D01*
X318000Y151900D02*
X322580Y147320D01*
X318000Y151900D02*
Y173450D01*
X324700Y180150D01*
X329500D01*
Y167450D02*
X331470Y165480D01*
D13*
X466090Y402590D02*
X468250Y404750D01*
Y420500D01*
X288290Y354330D02*
X348460Y414500D01*
X288290Y208479D02*
Y354330D01*
X1394180Y173990D02*
Y190220D01*
X1289050Y448670D02*
X1309640D01*
X1091230D02*
X1289050D01*
X1000400Y539500D02*
X1091230Y448670D01*
X580390Y420500D02*
X699390Y539500D01*
X1309640Y448670D02*
X1310640D01*
X699390Y539500D02*
X1000400D01*
X417450Y420500D02*
Y433960D01*
X417830Y434340D01*
X325310Y59500D02*
X417450D01*
X288290Y96520D02*
X325310Y59500D01*
X288290Y96520D02*
Y208479D01*
X291219Y205550D02*
X329500D01*
X288290Y208479D02*
X291219Y205550D01*
X348460Y414500D02*
X416250D01*
X329500Y192850D02*
Y205550D01*
X417450Y415700D02*
Y420500D01*
X416250Y414500D02*
X417450Y415700D01*
X455550Y420500D02*
X468250D01*
X442850D02*
X455550D01*
X430150D02*
X442850D01*
X298260Y218250D02*
X329500D01*
D14*
X1398270Y387350D02*
D03*
X1436370Y407010D02*
D03*
X1336040Y363880D02*
D03*
X1367790Y333350D02*
D03*
X1096010Y251460D02*
D03*
Y232460D02*
D03*
X1367790Y314350D02*
D03*
X1336040Y382880D02*
D03*
X1436370Y388010D02*
D03*
X1398270Y368350D02*
D03*
X1092200Y184760D02*
D03*
Y165760D02*
D03*
X1243330Y215290D02*
D03*
Y234290D02*
D03*
D15*
X1341780Y274320D02*
D03*
X1322730Y185420D02*
D03*
X1341730D02*
D03*
X1360780Y274320D02*
D03*
X1171550Y218440D02*
D03*
X1152550D02*
D03*
X1197000Y220980D02*
D03*
X1216000D02*
D03*
D16*
X582550Y59500D02*
D03*
Y100500D02*
D03*
X569850D02*
D03*
X557150D02*
D03*
X544450D02*
D03*
X531750D02*
D03*
X569850Y59500D02*
D03*
X557150D02*
D03*
X544450D02*
D03*
X531750D02*
D03*
X480950Y100500D02*
D03*
X468250D02*
D03*
X480950Y59500D02*
D03*
X468250D02*
D03*
X442850Y100500D02*
D03*
X430150D02*
D03*
X442850Y59500D02*
D03*
X430150D02*
D03*
X417450D02*
D03*
Y100500D02*
D03*
X455550Y59500D02*
D03*
Y100500D02*
D03*
X493650Y59500D02*
D03*
Y100500D02*
D03*
X506350Y59500D02*
D03*
X519050D02*
D03*
X506350Y100500D02*
D03*
X519050D02*
D03*
X582550Y420500D02*
D03*
X569850D02*
D03*
X557150D02*
D03*
X544450D02*
D03*
X531750D02*
D03*
X582550Y379500D02*
D03*
X569850D02*
D03*
X557150D02*
D03*
X544450D02*
D03*
X531750D02*
D03*
X480950Y420500D02*
D03*
X468250D02*
D03*
X480950Y379500D02*
D03*
X468250D02*
D03*
X442850Y420500D02*
D03*
X430150D02*
D03*
X442850Y379500D02*
D03*
X430150D02*
D03*
X417450D02*
D03*
Y420500D02*
D03*
X455550Y379500D02*
D03*
Y420500D02*
D03*
X493650Y379500D02*
D03*
Y420500D02*
D03*
X506350Y379500D02*
D03*
X519050D02*
D03*
X506350Y420500D02*
D03*
X519050D02*
D03*
D17*
X670500Y192850D02*
D03*
X329500Y332550D02*
D03*
Y319850D02*
D03*
Y307150D02*
D03*
Y294450D02*
D03*
Y281750D02*
D03*
X370500Y332550D02*
D03*
Y319850D02*
D03*
Y307150D02*
D03*
Y294450D02*
D03*
Y281750D02*
D03*
X329500Y230950D02*
D03*
Y218250D02*
D03*
X370500Y230950D02*
D03*
Y218250D02*
D03*
X329500Y192850D02*
D03*
Y180150D02*
D03*
X370500Y192850D02*
D03*
Y180150D02*
D03*
Y167450D02*
D03*
X329500D02*
D03*
X370500Y205550D02*
D03*
X329500D02*
D03*
X370500Y243650D02*
D03*
X329500D02*
D03*
X370500Y256350D02*
D03*
Y269050D02*
D03*
X329500Y256350D02*
D03*
Y269050D02*
D03*
X670500Y167450D02*
D03*
Y180150D02*
D03*
Y205550D02*
D03*
Y218250D02*
D03*
X629500Y167450D02*
D03*
Y180150D02*
D03*
Y192850D02*
D03*
Y205550D02*
D03*
Y218250D02*
D03*
X670500Y269050D02*
D03*
Y281750D02*
D03*
X629500Y269050D02*
D03*
Y281750D02*
D03*
X670500Y307150D02*
D03*
Y319850D02*
D03*
X629500Y307150D02*
D03*
Y319850D02*
D03*
Y332550D02*
D03*
X670500D02*
D03*
X629500Y294450D02*
D03*
X670500D02*
D03*
X629500Y256350D02*
D03*
X670500D02*
D03*
X629500Y243650D02*
D03*
Y230950D02*
D03*
X670500Y243650D02*
D03*
Y230950D02*
D03*
D18*
X1283670Y267360D02*
D03*
X1404920Y446380D02*
D03*
X1281130Y329590D02*
D03*
X1378920Y436880D02*
D03*
X1404920Y427380D02*
D03*
X1309670Y276860D02*
D03*
X1283670Y286360D02*
D03*
X1307130Y339090D02*
D03*
X1281130Y348590D02*
D03*
D19*
X1410060Y323850D02*
D03*
X1413150Y290830D02*
D03*
X1431650D02*
D03*
X1415690Y347980D02*
D03*
X1434190D02*
D03*
X1391560Y323850D02*
D03*
X1154070Y254000D02*
D03*
X1172570D02*
D03*
D20*
X1341120Y226970D02*
D03*
X1347470Y147320D02*
D03*
Y128820D02*
D03*
X1275080Y210460D02*
D03*
Y228960D02*
D03*
X1121410Y230780D02*
D03*
Y249280D02*
D03*
X1066800Y180700D02*
D03*
Y162200D02*
D03*
X1117600Y160930D02*
D03*
Y179430D02*
D03*
X1249680Y144420D02*
D03*
Y162920D02*
D03*
X1172210Y154580D02*
D03*
Y173080D02*
D03*
X1198880Y152040D02*
D03*
Y170540D02*
D03*
X1144270Y157120D02*
D03*
Y175620D02*
D03*
X1341120Y245470D02*
D03*
X1342390Y424900D02*
D03*
Y406400D02*
D03*
X1313180Y389530D02*
D03*
Y408030D02*
D03*
X1369060Y373740D02*
D03*
Y355240D02*
D03*
X1252220Y306430D02*
D03*
Y287930D02*
D03*
X1310640Y430170D02*
D03*
Y448670D02*
D03*
X1244600Y354690D02*
D03*
Y336190D02*
D03*
X1224280Y158750D02*
D03*
Y140250D02*
D03*
X1202690Y278490D02*
D03*
Y259990D02*
D03*
D21*
X1358900Y77190D02*
D03*
Y105690D02*
D03*
X1289050Y165380D02*
D03*
Y136880D02*
D03*
X1316990Y141250D02*
D03*
Y112750D02*
D03*
D22*
X1394180Y173990D02*
D03*
X1422680D02*
D03*
X1394180Y110490D02*
D03*
X1422680D02*
D03*
X1394180Y142240D02*
D03*
X1422680D02*
D03*
X1422680Y240030D02*
D03*
X1394180D02*
D03*
X1422680Y212090D02*
D03*
X1394180D02*
D03*
D38*
X1457252Y125168D02*
G03*
X1459115Y123301I9998J8112D01*
G01*
X1330870Y226331D02*
Y234170D01*
X1329870Y225331D02*
X1330870Y226331D01*
Y234170D02*
X1332920Y236220D01*
X1329870Y224790D02*
Y225331D01*
X1353130Y240030D02*
X1394180D01*
X1349320Y236220D02*
X1353130Y240030D01*
X1332920Y236220D02*
X1349320D01*
X1394180Y212090D02*
Y240030D01*
X1324057Y134783D02*
X1349404Y109437D01*
X1355153D01*
X1318611Y141250D02*
X1324057Y135804D01*
Y134783D02*
Y135804D01*
X1316990Y141250D02*
X1318611D01*
X1369060Y373740D02*
X1381400D01*
X1311640Y430170D02*
X1318350Y436880D01*
X1378920D01*
X1310640Y430170D02*
X1311640D01*
X569850Y420500D02*
X580390D01*
X1324970Y408030D02*
X1332590Y415650D01*
X1295400Y427960D02*
X1302440Y420920D01*
X1332590Y415650D02*
X1340211D01*
X1302440Y420920D02*
X1338410D01*
X1342390Y424900D01*
X1295400Y427960D02*
Y434430D01*
X1340211Y415650D02*
X1350590D01*
X1295400Y434430D02*
X1309640Y448670D01*
X349250Y107950D02*
X375920Y81280D01*
X349250Y107950D02*
Y223520D01*
X375920Y81280D02*
X818203D01*
X415290Y235972D02*
Y307340D01*
X384868Y205550D02*
X415290Y235972D01*
X349250Y223520D02*
X356680Y230950D01*
X625160Y345360D02*
X644947D01*
X660550Y339750D02*
X1167191D01*
X658479Y344750D02*
X1169262D01*
X656408Y349750D02*
X1171333D01*
X608330Y335601D02*
X633409Y360680D01*
X654337Y354750D02*
X1173404D01*
X616419Y336619D02*
X625160Y345360D01*
X643525Y336867D02*
X656408Y349750D01*
X633409Y360680D02*
X984748D01*
X644947Y345360D02*
X654337Y354750D01*
X616419Y321607D02*
Y336619D01*
X608330Y287020D02*
Y335601D01*
Y287020D02*
X612140Y283210D01*
X628040D01*
X629500Y281750D01*
X557150Y420500D02*
X569850D01*
X924480Y126920D02*
X1071810Y274250D01*
X923210Y135810D02*
X1071880Y284480D01*
X929640Y121920D02*
X1076970Y269250D01*
X388909Y218192D02*
X388967Y218134D01*
X370500Y218250D02*
X370558Y218192D01*
X388909D01*
X610870Y255270D02*
X611411D01*
X612491Y256350D01*
X551180Y157480D02*
X598170Y204470D01*
X612491Y256350D02*
X629500D01*
X598170Y204470D02*
Y240030D01*
X491220Y115570D02*
X712470D01*
X477520Y121920D02*
X929640D01*
X480950Y105300D02*
X491220Y115570D01*
X472982Y126920D02*
X924480D01*
X712470Y115570D02*
X718820Y109220D01*
X937260D01*
X1092290Y264250D01*
X1096010Y230780D02*
X1121410D01*
X495850Y89620D02*
X497840Y87630D01*
X810260D01*
X493650Y100500D02*
X495850Y98300D01*
Y89620D02*
Y98300D01*
X810260Y87630D02*
X819150Y96520D01*
X818203Y81280D02*
X825423Y88500D01*
X481140Y362140D02*
X481330Y361950D01*
X480950Y379500D02*
X481140Y379310D01*
Y362140D02*
Y379310D01*
X493840Y379690D02*
Y396050D01*
X493650Y379500D02*
X493840Y379690D01*
Y396050D02*
X494030Y396240D01*
X370500Y205550D02*
X384868D01*
X1167191Y339750D02*
X1255481Y251460D01*
X984748Y360680D02*
X991098Y367030D01*
X1290680D01*
X1313180Y389530D01*
X618176Y319850D02*
X629500D01*
X616419Y321607D02*
X618176Y319850D01*
X1357790Y277310D02*
X1360780Y274320D01*
X1357790Y277310D02*
Y320300D01*
X1253790Y286360D02*
X1283670D01*
X1252220Y287930D02*
X1253790Y286360D01*
X1171333Y349750D02*
X1214653Y306430D01*
X1252220D01*
X1212130Y287740D02*
X1257300Y242570D01*
X1169262Y344750D02*
X1253402Y260610D01*
X1349070D01*
X1255481Y251460D02*
X1318260D01*
X1257300Y242570D02*
X1278920D01*
X1194490Y287740D02*
X1212130D01*
X1173404Y354750D02*
X1191964Y336190D01*
X1244600D01*
X643525Y309304D02*
X651510Y317289D01*
Y337781D02*
X658479Y344750D01*
X651510Y317289D02*
Y337781D01*
X634300Y307150D02*
X643525Y316375D01*
Y336867D01*
X648525Y307233D02*
X658500Y317208D01*
X629500Y294450D02*
X634300D01*
X643525Y303675D01*
Y309304D01*
X1360780Y272320D02*
Y274320D01*
X658500Y317208D02*
Y337700D01*
X1349070Y260610D02*
X1360780Y272320D01*
X648525Y283275D02*
Y307233D01*
X658500Y337700D02*
X660550Y339750D01*
X634300Y269050D02*
X648525Y283275D01*
X629500Y307150D02*
X634300D01*
X1324250Y245470D02*
X1341120D01*
X1318260Y251460D02*
X1324250Y245470D01*
X1341120D02*
X1342120D01*
X629500Y269050D02*
X634300D01*
X1071880Y284480D02*
X1191230D01*
X1194490Y287740D01*
X1278920Y242570D02*
X1285330Y236160D01*
X442850Y105300D02*
X473360Y135810D01*
X923210D01*
X457338Y111276D02*
X472982Y126920D01*
X455550Y100500D02*
X457338Y102288D01*
Y111276D01*
X1071810Y274250D02*
X1176841D01*
X1181851Y269240D01*
X1210890D01*
X1224000Y256130D01*
Y223620D02*
Y256130D01*
Y223620D02*
X1232330Y215290D01*
X1243330D01*
X1174770Y269250D02*
X1184030Y259990D01*
X1092290Y264250D02*
X1163320D01*
X1076970Y269250D02*
X1174770D01*
X960070Y96520D02*
X1095170Y231620D01*
X1096010Y232460D01*
X974600Y88500D02*
X1066800Y180700D01*
X468250Y112650D02*
X477520Y121920D01*
X468250Y100500D02*
Y112650D01*
X825423Y88500D02*
X974600D01*
X819150Y96520D02*
X960070D01*
X1250680Y162920D02*
X1265830D01*
X442850Y100500D02*
Y105300D01*
X432270Y113500D02*
X476250Y157480D01*
X432270Y102620D02*
Y113500D01*
X430150Y100500D02*
X432270Y102620D01*
X1285330Y197570D02*
Y236160D01*
X1250680Y162920D02*
X1285330Y197570D01*
X1249680Y162920D02*
X1250680D01*
X1172570Y219460D02*
Y254000D01*
X1163320Y264250D02*
X1172570Y255000D01*
Y254000D02*
Y255000D01*
X1184030Y259990D02*
X1202690D01*
X476250Y157480D02*
X551180D01*
X480950Y100500D02*
Y105300D01*
X1066800Y180700D02*
X1070860Y184760D01*
X356680Y230950D02*
X370500D01*
X1352450Y212090D02*
X1394180D01*
X1333730Y193370D02*
X1352450Y212090D01*
X1333730Y180470D02*
Y193370D01*
X1289050Y165380D02*
X1318640D01*
X1333730Y180470D01*
X1355153Y109437D02*
X1358900Y105690D01*
X1394180Y142240D02*
Y173990D01*
Y110490D02*
Y142240D01*
X1394180Y209590D02*
Y212090D01*
X1358900Y105690D02*
Y174310D01*
X1394180Y209590D01*
X1313180Y408030D02*
X1324970D01*
X1368060Y373740D02*
X1369060D01*
X1367790Y314350D02*
X1368780Y313360D01*
Y266370D02*
Y313360D01*
X1342120Y245470D02*
X1351920Y255270D01*
X1357680D02*
X1368780Y266370D01*
X1351920Y255270D02*
X1357680D01*
X1357790Y320300D02*
X1361340Y323850D01*
X1391560D01*
X1309670Y276860D02*
Y296850D01*
X1368060Y355240D01*
X1369060D01*
X1244600Y354690D02*
X1245600D01*
X1251700Y348590D02*
X1281130D01*
X1245600Y354690D02*
X1251700Y348590D01*
X1307130Y355970D02*
X1334040Y382880D01*
X1336040D01*
X1307130Y339090D02*
Y355970D01*
X1350590Y415650D02*
X1362320Y427380D01*
X1404920D01*
X1421394Y400986D02*
X1434370Y388010D01*
X1421394Y400986D02*
Y424154D01*
X1408668Y436880D02*
X1421394Y424154D01*
X1378920Y436880D02*
X1408668D01*
X1434370Y388010D02*
X1436370D01*
X1411600Y396010D02*
X1469790Y337820D01*
X1373880Y396010D02*
X1411600D01*
X1434270Y365350D02*
X1454083Y345537D01*
X1401270Y365350D02*
X1434270D01*
X1439370Y385010D02*
X1447600D01*
X1436370Y388010D02*
X1439370Y385010D01*
X1447600D02*
X1469790Y362820D01*
X1341390Y406400D02*
X1342390D01*
X1336040Y382880D02*
Y401050D01*
X1341390Y406400D01*
X1336040Y382880D02*
X1360750D01*
X1373880Y396010D01*
X1369060Y355240D02*
X1383160D01*
X1396270Y368350D02*
X1398270D01*
X1383160Y355240D02*
X1396270Y368350D01*
X1398270D02*
X1401270Y365350D01*
X1454083Y328527D02*
Y345537D01*
Y328527D02*
X1469790Y312820D01*
X1397810Y329100D02*
X1415690Y346980D01*
Y347980D01*
X1395810Y329100D02*
X1397810D01*
X1391560Y324850D02*
X1395810Y329100D01*
X1391560Y323850D02*
Y324850D01*
X1393310Y290830D02*
X1413150D01*
X1369790Y314350D02*
X1393310Y290830D01*
X1367790Y314350D02*
X1369790D01*
X1431650Y290830D02*
X1435765Y294945D01*
X1277620Y151130D02*
X1342660D01*
X1346470Y147320D01*
X1342220Y151570D02*
X1342660Y151130D01*
X1342220Y151570D02*
Y152570D01*
X1341730Y153060D02*
X1342220Y152570D01*
X1346470Y147320D02*
X1347470D01*
X1341730Y153060D02*
Y185420D01*
X1265830Y162920D02*
X1277620Y151130D01*
X1272870Y212670D02*
X1275080Y210460D01*
X1245950Y212670D02*
X1272870D01*
X1243330Y215290D02*
X1245950Y212670D01*
X1225550Y160020D02*
Y177800D01*
X1224280Y158750D02*
X1225550Y160020D01*
Y177800D02*
X1243330Y195580D01*
Y215290D01*
X1197000Y222980D02*
X1202690Y228670D01*
Y259990D01*
X1197000Y220980D02*
Y222980D01*
X1198880Y170540D02*
Y219100D01*
X1197000Y220980D02*
X1198880Y219100D01*
X1171550Y218440D02*
X1172570Y219460D01*
X1171550Y218440D02*
X1172210Y217780D01*
Y173080D02*
Y217780D01*
X1119730Y232460D02*
X1121410Y230780D01*
X1122410D01*
X1144270Y175620D02*
Y208920D01*
X1122410Y230780D02*
X1144270Y208920D01*
X1070860Y184760D02*
X1092200D01*
X1094200D01*
X1099530Y179430D02*
X1117600D01*
X1094200Y184760D02*
X1099530Y179430D01*
X397127Y257427D02*
X397510Y257810D01*
X371577Y257427D02*
X397127D01*
X370595Y269145D02*
X399955D01*
X370500Y269050D02*
X370595Y269145D01*
X399955D02*
X400050Y269240D01*
X370500Y256350D02*
X371577Y257427D01*
X353155Y243745D02*
X370405D01*
X370500Y243650D01*
X353060Y243840D02*
X353155Y243745D01*
X1224280Y82840D02*
Y140250D01*
Y82840D02*
X1225620Y81500D01*
X1200620D02*
Y150300D01*
X1198880Y152040D02*
X1200620Y150300D01*
X1172210Y89172D02*
Y154580D01*
X1175620Y81500D02*
Y85762D01*
X1172210Y89172D02*
X1175620Y85762D01*
X1145270Y91112D02*
Y157120D01*
X1150620Y81500D02*
Y85762D01*
X1145270Y91112D02*
X1150620Y85762D01*
X1122850Y84270D02*
Y156680D01*
X1118600Y160930D02*
X1122850Y156680D01*
Y84270D02*
X1125620Y81500D01*
X1117600Y160930D02*
X1118600D01*
X1249680Y144420D02*
X1250620Y143480D01*
Y81500D02*
Y143480D01*
X1356400Y77190D02*
X1358900D01*
X1317835Y38625D02*
X1356400Y77190D01*
X1289050Y88900D02*
Y136880D01*
X1259664Y59514D02*
X1289050Y88900D01*
X1250620Y56500D02*
X1253634Y59514D01*
X1259664D01*
X1264095Y43625D02*
X1312865Y92395D01*
X1238495Y43625D02*
X1264095D01*
X1312865Y92395D02*
Y108625D01*
X1218495Y38625D02*
X1317835D01*
X1200620Y56500D02*
X1218495Y38625D01*
X1225620Y56500D02*
X1238495Y43625D01*
X1312865Y108625D02*
X1316990Y112750D01*
X1494790Y335280D02*
X1507665Y322405D01*
Y307487D02*
Y322405D01*
X1494790Y335280D02*
Y337820D01*
X1512665Y305416D02*
Y344945D01*
X1494790Y362820D02*
X1512665Y344945D01*
X1500123Y299945D02*
X1507665Y307487D01*
X1434190Y330212D02*
X1464457Y299945D01*
X1500123D01*
X1434190Y330212D02*
Y347980D01*
X1435765Y294945D02*
X1502194D01*
X1512665Y305416D01*
X1459115Y123301D02*
X1459171Y123254D01*
X1462634Y120405D01*
X1432426Y150613D02*
X1457252Y125168D01*
X1422680Y160581D02*
Y173990D01*
Y160581D02*
X1432426Y150613D01*
X1462634Y120405D02*
X1479375D01*
X1492250Y133280D01*
X1492583Y115405D02*
X1505125Y127947D01*
X1449515Y115405D02*
X1492583D01*
X1494654Y110405D02*
X1510125Y125876D01*
X1447444Y110405D02*
X1494654D01*
X1428927Y135993D02*
X1449515Y115405D01*
X1422680Y110490D02*
X1447359D01*
X1447444Y110405D01*
X1446060Y212090D02*
X1467250Y233280D01*
X1422680Y212090D02*
X1446060D01*
X1422680Y240030D02*
X1449000D01*
X1467250Y258280D01*
X1505125Y145684D02*
X1510125Y140684D01*
X1495264Y148474D02*
Y155266D01*
X1422680Y140619D02*
Y142240D01*
X1492250Y158280D02*
X1495264Y155266D01*
X1422680Y140619D02*
X1427306Y135993D01*
X1428927D01*
X1495264Y148474D02*
X1505125Y138613D01*
Y145684D02*
Y170405D01*
Y127947D02*
Y138613D01*
X1510125Y125876D02*
Y140684D01*
X1492250Y183280D02*
X1505125Y170405D01*
D39*
X1462634Y120405D02*
D03*
D40*
X1175620Y56500D02*
D03*
X970280Y439420D02*
D03*
X1494790Y437820D02*
D03*
X1469790D02*
D03*
Y412820D02*
D03*
Y387820D02*
D03*
Y362820D02*
D03*
Y337820D02*
D03*
Y312820D02*
D03*
X1494790Y412820D02*
D03*
Y387820D02*
D03*
Y362820D02*
D03*
Y337820D02*
D03*
Y312820D02*
D03*
X1467250Y258280D02*
D03*
Y233280D02*
D03*
Y208280D02*
D03*
Y183280D02*
D03*
Y158280D02*
D03*
Y133280D02*
D03*
X1492250Y258280D02*
D03*
Y233280D02*
D03*
Y208280D02*
D03*
Y183280D02*
D03*
Y158280D02*
D03*
Y133280D02*
D03*
X1125620Y56500D02*
D03*
X1150620D02*
D03*
X1200620D02*
D03*
X1225620D02*
D03*
X1250620D02*
D03*
X1125620Y81500D02*
D03*
X1150620D02*
D03*
X1175620D02*
D03*
X1200620D02*
D03*
X1225620D02*
D03*
X1250620D02*
D03*
X995280Y389420D02*
D03*
Y414420D02*
D03*
Y439420D02*
D03*
Y464420D02*
D03*
Y489420D02*
D03*
Y514420D02*
D03*
X970280Y389420D02*
D03*
Y414420D02*
D03*
Y464420D02*
D03*
Y489420D02*
D03*
Y514420D02*
D03*
D41*
X200000Y500000D02*
D03*
X850000D02*
D03*
Y50000D02*
D03*
X200000D02*
D03*
D42*
X1500000Y500000D02*
D03*
X50000D02*
D03*
X1500000Y50000D02*
D03*
X50000D02*
D03*
D43*
X1508190Y375320D02*
D03*
X1505650Y195780D02*
D03*
X1188120Y94900D02*
D03*
X956880Y451920D02*
D03*
D44*
X1500000Y450000D02*
D03*
X1525000Y400000D02*
D03*
Y300000D02*
D03*
Y200000D02*
D03*
Y100000D02*
D03*
X1450000Y250000D02*
D03*
Y150000D02*
D03*
X1475000Y100000D02*
D03*
X1425000Y500000D02*
D03*
X1375000D02*
D03*
X1350000Y450000D02*
D03*
Y350000D02*
D03*
X1325000Y500000D02*
D03*
Y400000D02*
D03*
X1300000Y350000D02*
D03*
X1325000Y300000D02*
D03*
X1275000Y500000D02*
D03*
Y400000D02*
D03*
Y300000D02*
D03*
X1225000Y500000D02*
D03*
Y400000D02*
D03*
X1200000Y350000D02*
D03*
X1225000Y300000D02*
D03*
X1175000Y500000D02*
D03*
Y400000D02*
D03*
Y300000D02*
D03*
X1125000Y500000D02*
D03*
Y400000D02*
D03*
Y300000D02*
D03*
X1100000Y150000D02*
D03*
Y50000D02*
D03*
X1075000Y500000D02*
D03*
X1050000Y450000D02*
D03*
X1075000Y400000D02*
D03*
Y300000D02*
D03*
X1050000Y50000D02*
D03*
X1025000Y500000D02*
D03*
Y400000D02*
D03*
Y300000D02*
D03*
X1000000Y250000D02*
D03*
Y50000D02*
D03*
X975000Y300000D02*
D03*
X950000Y250000D02*
D03*
Y50000D02*
D03*
X925000Y500000D02*
D03*
X900000Y450000D02*
D03*
X925000Y400000D02*
D03*
X900000Y250000D02*
D03*
Y50000D02*
D03*
X875000Y400000D02*
D03*
Y300000D02*
D03*
X800000Y450000D02*
D03*
X825000Y400000D02*
D03*
Y300000D02*
D03*
X800000Y250000D02*
D03*
Y50000D02*
D03*
X775000Y300000D02*
D03*
X750000Y250000D02*
D03*
Y50000D02*
D03*
X725000Y500000D02*
D03*
Y300000D02*
D03*
X700000Y250000D02*
D03*
Y50000D02*
D03*
X675000Y500000D02*
D03*
X650000Y250000D02*
D03*
Y150000D02*
D03*
Y50000D02*
D03*
X625000Y500000D02*
D03*
X600000Y350000D02*
D03*
Y150000D02*
D03*
X625000Y100000D02*
D03*
X600000Y50000D02*
D03*
X575000Y500000D02*
D03*
X550000Y350000D02*
D03*
X575000Y300000D02*
D03*
X550000Y150000D02*
D03*
X525000Y500000D02*
D03*
X500000Y350000D02*
D03*
X525000Y300000D02*
D03*
X500000Y250000D02*
D03*
Y150000D02*
D03*
X475000Y500000D02*
D03*
Y400000D02*
D03*
X450000Y350000D02*
D03*
X475000Y300000D02*
D03*
X450000Y250000D02*
D03*
X425000Y500000D02*
D03*
X400000Y450000D02*
D03*
Y350000D02*
D03*
X425000Y200000D02*
D03*
X400000Y50000D02*
D03*
X375000Y500000D02*
D03*
X350000Y450000D02*
D03*
Y350000D02*
D03*
X375000Y100000D02*
D03*
X350000Y50000D02*
D03*
X325000Y500000D02*
D03*
X300000Y450000D02*
D03*
Y350000D02*
D03*
Y250000D02*
D03*
X325000Y100000D02*
D03*
X300000Y50000D02*
D03*
X275000Y500000D02*
D03*
X250000Y450000D02*
D03*
X275000Y400000D02*
D03*
X250000Y350000D02*
D03*
X275000Y300000D02*
D03*
X250000Y250000D02*
D03*
X275000Y200000D02*
D03*
X250000Y150000D02*
D03*
X275000Y100000D02*
D03*
X250000Y50000D02*
D03*
X200000Y450000D02*
D03*
X225000Y400000D02*
D03*
X200000Y350000D02*
D03*
X225000Y300000D02*
D03*
X200000Y250000D02*
D03*
X225000Y200000D02*
D03*
X200000Y150000D02*
D03*
X225000Y100000D02*
D03*
X150000Y450000D02*
D03*
X175000Y400000D02*
D03*
X150000Y350000D02*
D03*
X175000Y300000D02*
D03*
X150000Y250000D02*
D03*
X175000Y200000D02*
D03*
X150000Y150000D02*
D03*
X175000Y100000D02*
D03*
X150000Y50000D02*
D03*
X125000Y500000D02*
D03*
X100000Y450000D02*
D03*
X125000Y400000D02*
D03*
X100000Y350000D02*
D03*
X125000Y300000D02*
D03*
Y200000D02*
D03*
X100000Y150000D02*
D03*
X125000Y100000D02*
D03*
X100000Y50000D02*
D03*
X50000Y450000D02*
D03*
X75000Y400000D02*
D03*
Y300000D02*
D03*
X50000Y150000D02*
D03*
X75000Y100000D02*
D03*
X1234440Y238760D02*
D03*
X1318260Y234950D02*
D03*
X1422400Y308610D02*
D03*
X1417320Y375920D02*
D03*
X1330001Y160000D02*
D03*
Y80000D02*
D03*
X1310001D02*
D03*
X1280001Y180000D02*
D03*
X1290001Y80000D02*
D03*
X1270001Y120000D02*
D03*
Y80000D02*
D03*
X1240001Y180000D02*
D03*
X1210001Y120000D02*
D03*
X1180001Y140000D02*
D03*
X1190001Y120000D02*
D03*
Y40000D02*
D03*
X1160001Y180000D02*
D03*
Y140000D02*
D03*
X1170001Y40000D02*
D03*
X1130001Y160000D02*
D03*
Y120000D02*
D03*
Y40000D02*
D03*
X1100001Y220000D02*
D03*
Y140000D02*
D03*
X1110001Y120000D02*
D03*
Y80000D02*
D03*
X1100001Y60000D02*
D03*
X1110001Y40000D02*
D03*
X1080001Y140000D02*
D03*
X1090001Y120000D02*
D03*
Y80000D02*
D03*
X1080001Y60000D02*
D03*
X1090001Y40000D02*
D03*
X1060001Y220000D02*
D03*
X1070001Y120000D02*
D03*
Y80000D02*
D03*
X1060001Y60000D02*
D03*
X1070001Y40000D02*
D03*
X1050001Y120000D02*
D03*
Y80000D02*
D03*
X1040001Y60000D02*
D03*
X1050001Y40000D02*
D03*
X1020001Y180000D02*
D03*
X1030001Y120000D02*
D03*
Y80000D02*
D03*
X1020001Y60000D02*
D03*
X1030001Y40000D02*
D03*
X1329870Y224790D02*
D03*
X1336040Y135890D02*
D03*
X466090Y402590D02*
D03*
X1394180Y190220D02*
D03*
X1381400Y373740D02*
D03*
X1289050Y448670D02*
D03*
X417830Y434340D02*
D03*
X331470Y138430D02*
D03*
X298260Y218250D02*
D03*
X629920Y218440D02*
D03*
X388967Y218134D02*
D03*
X322580Y147320D02*
D03*
X629920Y205740D02*
D03*
Y193040D02*
D03*
X610870Y255270D02*
D03*
X598170Y240030D02*
D03*
X582930Y100330D02*
D03*
X569850Y100500D02*
D03*
X481330Y361950D02*
D03*
X494030Y396240D02*
D03*
X415290Y307340D02*
D03*
X397510Y257810D02*
D03*
X400050Y269240D02*
D03*
X353060Y243840D02*
D03*
D45*
X220000Y480000D02*
D03*
X172500Y500000D02*
D03*
X227500D02*
D03*
X180000Y520000D02*
D03*
X220000D02*
D03*
X200000Y527500D02*
D03*
Y472500D02*
D03*
X180000Y480000D02*
D03*
X850000Y472500D02*
D03*
X830000Y480000D02*
D03*
X870000D02*
D03*
X822500Y500000D02*
D03*
X877500D02*
D03*
X830000Y520000D02*
D03*
X870000D02*
D03*
X850000Y527500D02*
D03*
X822500Y50000D02*
D03*
X830000Y30000D02*
D03*
Y70000D02*
D03*
X850000Y77500D02*
D03*
Y22500D02*
D03*
X870000Y30000D02*
D03*
Y70000D02*
D03*
X877500Y50000D02*
D03*
X172500D02*
D03*
X200000Y22500D02*
D03*
X180000Y30000D02*
D03*
X220000D02*
D03*
X227500Y50000D02*
D03*
X180000Y70000D02*
D03*
X220000D02*
D03*
X200000Y77500D02*
D03*
X1480000Y520000D02*
D03*
X1472500Y500000D02*
D03*
X1500000Y472500D02*
D03*
X1480000Y480000D02*
D03*
X1520000D02*
D03*
X1527500Y500000D02*
D03*
X1520000Y520000D02*
D03*
X1500000Y527500D02*
D03*
X30000Y480000D02*
D03*
X22500Y500000D02*
D03*
X77500D02*
D03*
X30000Y520000D02*
D03*
X70000D02*
D03*
X50000Y527500D02*
D03*
Y472500D02*
D03*
X70000Y480000D02*
D03*
X1500000Y22500D02*
D03*
X1480000Y30000D02*
D03*
X1520000D02*
D03*
X1527500Y50000D02*
D03*
X1480000Y70000D02*
D03*
X1520000D02*
D03*
X1500000Y77500D02*
D03*
X1472500Y50000D02*
D03*
X30000Y30000D02*
D03*
X77500Y50000D02*
D03*
X70000Y30000D02*
D03*
X50000Y22500D02*
D03*
X22500Y50000D02*
D03*
X50000Y77500D02*
D03*
X30000Y70000D02*
D03*
X70000D02*
D03*
M02*
