G04*
G04 #@! TF.GenerationSoftware,Altium Limited,Altium Designer,24.0.1 (36)*
G04*
G04 Layer_Physical_Order=4*
G04 Layer_Color=16711680*
%FSLAX44Y44*%
%MOMM*%
G71*
G04*
G04 #@! TF.SameCoordinates,0FB82E01-D644-434E-A1D8-1B95A2BBF3EB*
G04*
G04*
G04 #@! TF.FilePolarity,Positive*
G04*
G01*
G75*
%ADD14R,1.3000X0.9000*%
%ADD15R,0.9000X1.3000*%
%ADD19R,1.1500X1.3500*%
%ADD20R,1.3500X1.1500*%
%ADD38C,0.3000*%
%ADD40C,1.8750*%
%ADD41C,7.0000*%
%ADD42C,8.0000*%
%ADD43C,0.6750*%
%ADD44C,0.5000*%
%ADD45C,0.7000*%
G36*
X1462181Y278989D02*
X1461655Y277719D01*
X1445750D01*
Y290690D01*
X1430250D01*
Y273190D01*
X1436893D01*
X1438457Y271627D01*
X1439614Y270853D01*
X1440980Y270581D01*
X1464303D01*
X1464470Y269311D01*
X1462859Y268880D01*
X1460266Y267382D01*
X1458148Y265264D01*
X1456650Y262671D01*
X1455875Y259778D01*
Y256782D01*
X1456650Y253889D01*
X1458148Y251296D01*
X1460266Y249178D01*
X1462859Y247680D01*
X1465753Y246905D01*
X1468748D01*
X1471641Y247680D01*
X1474234Y249178D01*
X1476352Y251296D01*
X1477850Y253889D01*
X1478625Y256782D01*
Y259778D01*
X1477850Y262671D01*
X1476352Y265264D01*
X1474234Y267382D01*
X1471641Y268880D01*
X1470030Y269311D01*
X1470197Y270581D01*
X1493110D01*
X1501556Y262135D01*
Y222633D01*
X1497378Y218454D01*
X1496641Y218880D01*
X1493748Y219655D01*
X1490753D01*
X1487859Y218880D01*
X1485266Y217382D01*
X1483148Y215264D01*
X1481650Y212671D01*
X1480875Y209778D01*
Y206782D01*
X1481650Y203889D01*
X1483148Y201296D01*
X1485266Y199178D01*
X1487859Y197680D01*
X1490753Y196905D01*
X1493748D01*
X1496556Y197658D01*
X1497158Y197318D01*
X1497674Y196922D01*
X1497650Y196833D01*
Y194727D01*
X1497674Y194638D01*
X1497158Y194242D01*
X1496556Y193902D01*
X1493748Y194655D01*
X1490753D01*
X1487859Y193880D01*
X1485266Y192382D01*
X1483148Y190264D01*
X1481650Y187671D01*
X1480875Y184778D01*
Y181782D01*
X1481650Y178889D01*
X1483148Y176296D01*
X1485266Y174178D01*
X1487859Y172680D01*
X1490753Y171905D01*
X1493748D01*
X1496641Y172680D01*
X1499234Y174178D01*
X1501352Y176296D01*
X1502850Y178889D01*
X1503625Y181782D01*
Y184778D01*
X1503063Y186876D01*
X1504100Y187913D01*
X1504597Y187780D01*
X1506703D01*
X1508738Y188325D01*
X1510562Y189378D01*
X1512052Y190868D01*
X1513105Y192692D01*
X1513650Y194727D01*
Y196833D01*
X1513105Y198868D01*
X1512052Y200692D01*
X1510562Y202182D01*
X1508738Y203235D01*
X1506703Y203780D01*
X1504597D01*
X1504100Y203647D01*
X1503063Y204684D01*
X1503625Y206782D01*
Y209778D01*
X1502850Y212671D01*
X1502424Y213408D01*
X1507648Y218632D01*
X1508422Y219789D01*
X1508694Y221155D01*
Y263613D01*
X1508422Y264979D01*
X1507648Y266136D01*
X1497111Y276673D01*
X1496832Y276860D01*
X1497217Y278130D01*
X1544320D01*
Y114300D01*
X1540510Y110490D01*
X1502410D01*
X1404620Y12700D01*
X1065530D01*
Y100831D01*
X1181119D01*
X1181574Y99561D01*
X1180665Y97988D01*
X1180120Y95953D01*
Y93847D01*
X1180253Y93350D01*
X1179216Y92313D01*
X1177117Y92875D01*
X1174122D01*
X1171229Y92100D01*
X1168636Y90602D01*
X1166518Y88484D01*
X1165020Y85891D01*
X1164245Y82998D01*
Y80002D01*
X1165020Y77109D01*
X1166518Y74516D01*
X1168636Y72398D01*
X1171229Y70900D01*
X1174122Y70125D01*
X1177117D01*
X1180011Y70900D01*
X1182604Y72398D01*
X1184722Y74516D01*
X1186220Y77109D01*
X1186995Y80002D01*
Y82998D01*
X1186242Y85806D01*
X1186582Y86408D01*
X1186978Y86924D01*
X1187067Y86900D01*
X1189173D01*
X1189262Y86924D01*
X1189658Y86408D01*
X1189998Y85806D01*
X1189245Y82998D01*
Y80002D01*
X1190020Y77109D01*
X1191518Y74516D01*
X1193636Y72398D01*
X1196229Y70900D01*
X1199122Y70125D01*
X1202117D01*
X1205011Y70900D01*
X1207604Y72398D01*
X1209722Y74516D01*
X1211220Y77109D01*
X1211995Y80002D01*
Y82998D01*
X1211220Y85891D01*
X1209722Y88484D01*
X1207604Y90602D01*
X1205011Y92100D01*
X1202117Y92875D01*
X1199122D01*
X1197024Y92313D01*
X1195987Y93350D01*
X1196120Y93847D01*
Y95953D01*
X1195575Y97988D01*
X1194666Y99561D01*
X1195121Y100831D01*
X1355962D01*
X1364440Y92353D01*
Y80400D01*
X1377440D01*
Y92353D01*
X1383118Y98031D01*
X1395240D01*
Y92850D01*
X1399421D01*
Y73520D01*
X1394690D01*
Y56020D01*
X1410190D01*
Y73520D01*
X1406559D01*
Y92850D01*
X1410740D01*
Y110350D01*
X1395240D01*
Y105169D01*
X1381640D01*
X1380274Y104897D01*
X1379117Y104123D01*
X1372393Y97400D01*
X1369487D01*
X1359963Y106923D01*
X1358806Y107697D01*
X1357440Y107969D01*
X1065530D01*
Y195471D01*
X1279897D01*
X1338741Y136627D01*
Y132250D01*
X1338810Y131905D01*
Y118250D01*
X1354310D01*
Y130905D01*
X1354379Y131250D01*
Y133212D01*
X1370147Y148980D01*
X1373053D01*
X1387397Y134637D01*
X1388554Y133863D01*
X1389920Y133591D01*
X1392700D01*
Y128410D01*
X1408200D01*
Y145910D01*
X1392700D01*
Y140729D01*
X1391398D01*
X1378100Y154027D01*
Y165980D01*
X1365100D01*
Y154027D01*
X1348287Y137213D01*
X1347513Y136056D01*
X1347452Y135750D01*
X1345879D01*
Y138105D01*
X1345607Y139471D01*
X1344833Y140629D01*
X1283899Y201563D01*
X1282741Y202337D01*
X1281375Y202609D01*
X1065530D01*
Y228926D01*
X1310752D01*
X1318554Y221124D01*
X1319081Y220772D01*
X1323586Y216267D01*
X1324744Y215493D01*
X1326110Y215221D01*
X1326682D01*
X1328650Y213253D01*
Y200800D01*
X1344150D01*
Y205981D01*
X1353682D01*
X1365710Y193953D01*
Y182000D01*
X1373663D01*
X1382927Y172737D01*
X1384084Y171963D01*
X1385450Y171691D01*
X1392700D01*
Y166510D01*
X1408200D01*
Y184010D01*
X1392700D01*
Y178829D01*
X1386928D01*
X1378710Y187047D01*
Y199000D01*
X1370757D01*
X1357683Y212073D01*
X1356526Y212847D01*
X1355160Y213119D01*
X1344150D01*
Y218300D01*
X1333697D01*
X1332202Y219795D01*
X1332425Y220981D01*
X1333685Y222241D01*
X1334370Y223895D01*
Y225685D01*
X1333685Y227339D01*
X1332419Y228605D01*
X1330765Y229290D01*
X1328975D01*
X1327321Y228605D01*
X1326055Y227339D01*
X1325571Y226171D01*
X1324197Y225750D01*
X1323776Y226171D01*
X1323248Y226523D01*
X1320081Y229690D01*
X1320329Y230936D01*
X1320809Y231135D01*
X1322075Y232401D01*
X1322760Y234055D01*
Y235845D01*
X1322075Y237499D01*
X1320809Y238765D01*
X1319155Y239450D01*
X1317365D01*
X1315711Y238765D01*
X1314445Y237499D01*
X1314185Y236871D01*
X1313633Y235861D01*
X1312554Y235999D01*
X1312230Y236064D01*
X1098381D01*
X1097996Y237334D01*
X1098255Y237507D01*
X1101940Y241191D01*
X1356572D01*
X1365710Y232053D01*
Y220100D01*
X1378710D01*
Y230031D01*
X1382590D01*
X1383956Y230303D01*
X1385113Y231077D01*
X1391667Y237630D01*
X1398073D01*
X1398151Y237552D01*
Y220840D01*
X1393970D01*
Y203340D01*
X1409470D01*
Y220840D01*
X1405289D01*
Y239030D01*
X1405017Y240396D01*
X1404243Y241553D01*
X1403120Y242677D01*
Y255130D01*
X1387620D01*
Y243669D01*
X1387597Y243653D01*
X1381112Y237169D01*
X1375210D01*
X1374865Y237100D01*
X1370757D01*
X1360573Y247283D01*
X1359416Y248057D01*
X1358050Y248329D01*
X1100462D01*
X1099096Y248057D01*
X1097938Y247283D01*
X1094254Y243599D01*
X1065530D01*
Y261620D01*
X1061720Y265430D01*
Y281521D01*
X1363100D01*
Y278590D01*
X1380100D01*
Y286543D01*
X1389348Y295791D01*
X1390790D01*
Y291610D01*
X1402071D01*
X1402267Y291317D01*
X1411750Y281833D01*
Y273190D01*
X1427250D01*
Y290690D01*
X1412987D01*
X1408307Y295370D01*
X1408290Y295455D01*
Y307110D01*
X1390790D01*
Y302929D01*
X1387870D01*
X1386504Y302657D01*
X1385347Y301883D01*
X1375053Y291590D01*
X1363100D01*
Y288659D01*
X1061720D01*
Y294640D01*
X1057910Y298450D01*
X1088390Y328930D01*
X1412240D01*
X1462181Y278989D01*
D02*
G37*
%LPC*%
G36*
X1423295Y313110D02*
X1421505D01*
X1419851Y312425D01*
X1418585Y311159D01*
X1417900Y309505D01*
Y307715D01*
X1418585Y306061D01*
X1419851Y304795D01*
X1421505Y304110D01*
X1423295D01*
X1424949Y304795D01*
X1426215Y306061D01*
X1426900Y307715D01*
Y309505D01*
X1426215Y311159D01*
X1424949Y312425D01*
X1423295Y313110D01*
D02*
G37*
G36*
X1468748Y244655D02*
X1465753D01*
X1462859Y243880D01*
X1460266Y242382D01*
X1458148Y240264D01*
X1456650Y237671D01*
X1455875Y234778D01*
Y231782D01*
X1456650Y228889D01*
X1458148Y226296D01*
X1460266Y224178D01*
X1462859Y222680D01*
X1465753Y221905D01*
X1468748D01*
X1471641Y222680D01*
X1474234Y224178D01*
X1476352Y226296D01*
X1477850Y228889D01*
X1478625Y231782D01*
Y234778D01*
X1477850Y237671D01*
X1476352Y240264D01*
X1474234Y242382D01*
X1471641Y243880D01*
X1468748Y244655D01*
D02*
G37*
G36*
X1427970Y220840D02*
X1412470D01*
Y203340D01*
X1427970D01*
Y204711D01*
X1456430D01*
X1456650Y203889D01*
X1458148Y201296D01*
X1460266Y199178D01*
X1462859Y197680D01*
X1465753Y196905D01*
X1468748D01*
X1471641Y197680D01*
X1474234Y199178D01*
X1476352Y201296D01*
X1477850Y203889D01*
X1478625Y206782D01*
Y209778D01*
X1477850Y212671D01*
X1476352Y215264D01*
X1474234Y217382D01*
X1471641Y218880D01*
X1468748Y219655D01*
X1465753D01*
X1462859Y218880D01*
X1460266Y217382D01*
X1458148Y215264D01*
X1456650Y212671D01*
X1456430Y211849D01*
X1427970D01*
Y220840D01*
D02*
G37*
G36*
X1395075Y194720D02*
X1393285D01*
X1391631Y194035D01*
X1390365Y192769D01*
X1389680Y191115D01*
Y189325D01*
X1390365Y187671D01*
X1391631Y186405D01*
X1393285Y185720D01*
X1395075D01*
X1396729Y186405D01*
X1397995Y187671D01*
X1398680Y189325D01*
Y191115D01*
X1397995Y192769D01*
X1396729Y194035D01*
X1395075Y194720D01*
D02*
G37*
G36*
X1468748Y194655D02*
X1465753D01*
X1462859Y193880D01*
X1460266Y192382D01*
X1458148Y190264D01*
X1456650Y187671D01*
X1455875Y184778D01*
Y181782D01*
X1456139Y180798D01*
X1454170Y178829D01*
X1426700D01*
Y184010D01*
X1411200D01*
Y166510D01*
X1426700D01*
Y171691D01*
X1455648D01*
X1457013Y171963D01*
X1458171Y172737D01*
X1459939Y174504D01*
X1460266Y174178D01*
X1462859Y172680D01*
X1465753Y171905D01*
X1468748D01*
X1471641Y172680D01*
X1474234Y174178D01*
X1476352Y176296D01*
X1477850Y178889D01*
X1478625Y181782D01*
Y184778D01*
X1477850Y187671D01*
X1476352Y190264D01*
X1474234Y192382D01*
X1471641Y193880D01*
X1468748Y194655D01*
D02*
G37*
G36*
X1493748Y169655D02*
X1490753D01*
X1487859Y168880D01*
X1485266Y167382D01*
X1483148Y165264D01*
X1481650Y162671D01*
X1480875Y159777D01*
Y156783D01*
X1481650Y153889D01*
X1483148Y151296D01*
X1485266Y149178D01*
X1487859Y147680D01*
X1490753Y146905D01*
X1493748D01*
X1496641Y147680D01*
X1499234Y149178D01*
X1501352Y151296D01*
X1502850Y153889D01*
X1503625Y156783D01*
Y159777D01*
X1502850Y162671D01*
X1501352Y165264D01*
X1499234Y167382D01*
X1496641Y168880D01*
X1493748Y169655D01*
D02*
G37*
G36*
X1468748D02*
X1465753D01*
X1462859Y168880D01*
X1460266Y167382D01*
X1458148Y165264D01*
X1456650Y162671D01*
X1455875Y159777D01*
Y156783D01*
X1456650Y153889D01*
X1457076Y153152D01*
X1444652Y140729D01*
X1426700D01*
Y145910D01*
X1411200D01*
Y128410D01*
X1426700D01*
Y133591D01*
X1445639D01*
X1446189Y132346D01*
X1424193Y110350D01*
X1413740D01*
Y92850D01*
X1429240D01*
Y105303D01*
X1453648Y129711D01*
X1456430D01*
X1456650Y128889D01*
X1458148Y126296D01*
X1460266Y124178D01*
X1462859Y122680D01*
X1465753Y121905D01*
X1468748D01*
X1471641Y122680D01*
X1474234Y124178D01*
X1476352Y126296D01*
X1477850Y128889D01*
X1478625Y131783D01*
Y134777D01*
X1477850Y137671D01*
X1476352Y140264D01*
X1474234Y142382D01*
X1471641Y143880D01*
X1468748Y144655D01*
X1465753D01*
X1462859Y143880D01*
X1460266Y142382D01*
X1458148Y140264D01*
X1456650Y137671D01*
X1456430Y136849D01*
X1452661D01*
X1452111Y138094D01*
X1462122Y148106D01*
X1462859Y147680D01*
X1465753Y146905D01*
X1468748D01*
X1471641Y147680D01*
X1474234Y149178D01*
X1476352Y151296D01*
X1477850Y153889D01*
X1478625Y156783D01*
Y159777D01*
X1477850Y162671D01*
X1476352Y165264D01*
X1474234Y167382D01*
X1471641Y168880D01*
X1468748Y169655D01*
D02*
G37*
G36*
X1493748Y144655D02*
X1490753D01*
X1487859Y143880D01*
X1485266Y142382D01*
X1483148Y140264D01*
X1481650Y137671D01*
X1480875Y134777D01*
Y131783D01*
X1481650Y128889D01*
X1483148Y126296D01*
X1485266Y124178D01*
X1487859Y122680D01*
X1490753Y121905D01*
X1493748D01*
X1496641Y122680D01*
X1499234Y124178D01*
X1501352Y126296D01*
X1502850Y128889D01*
X1503625Y131783D01*
Y134777D01*
X1502850Y137671D01*
X1501352Y140264D01*
X1499234Y142382D01*
X1496641Y143880D01*
X1493748Y144655D01*
D02*
G37*
G36*
X1252117Y92875D02*
X1249122D01*
X1246229Y92100D01*
X1243636Y90602D01*
X1241518Y88484D01*
X1240020Y85891D01*
X1239245Y82998D01*
Y80002D01*
X1240020Y77109D01*
X1241518Y74516D01*
X1243636Y72398D01*
X1246229Y70900D01*
X1249122Y70125D01*
X1252117D01*
X1255011Y70900D01*
X1257604Y72398D01*
X1259722Y74516D01*
X1261220Y77109D01*
X1261995Y80002D01*
Y82998D01*
X1261220Y85891D01*
X1259722Y88484D01*
X1257604Y90602D01*
X1255011Y92100D01*
X1252117Y92875D01*
D02*
G37*
G36*
X1227117D02*
X1224122D01*
X1221229Y92100D01*
X1218636Y90602D01*
X1216518Y88484D01*
X1215020Y85891D01*
X1214245Y82998D01*
Y80002D01*
X1215020Y77109D01*
X1216518Y74516D01*
X1218636Y72398D01*
X1221229Y70900D01*
X1224122Y70125D01*
X1227117D01*
X1230011Y70900D01*
X1232604Y72398D01*
X1234722Y74516D01*
X1236220Y77109D01*
X1236995Y80002D01*
Y82998D01*
X1236220Y85891D01*
X1234722Y88484D01*
X1232604Y90602D01*
X1230011Y92100D01*
X1227117Y92875D01*
D02*
G37*
G36*
X1152117D02*
X1149122D01*
X1146229Y92100D01*
X1143636Y90602D01*
X1141518Y88484D01*
X1140020Y85891D01*
X1139245Y82998D01*
Y80002D01*
X1140020Y77109D01*
X1141518Y74516D01*
X1143636Y72398D01*
X1146229Y70900D01*
X1149122Y70125D01*
X1152117D01*
X1155011Y70900D01*
X1157604Y72398D01*
X1159722Y74516D01*
X1161220Y77109D01*
X1161995Y80002D01*
Y82998D01*
X1161220Y85891D01*
X1159722Y88484D01*
X1157604Y90602D01*
X1155011Y92100D01*
X1152117Y92875D01*
D02*
G37*
G36*
X1127117D02*
X1124122D01*
X1121229Y92100D01*
X1118636Y90602D01*
X1116518Y88484D01*
X1115020Y85891D01*
X1114245Y82998D01*
Y80002D01*
X1115020Y77109D01*
X1116518Y74516D01*
X1118636Y72398D01*
X1121229Y70900D01*
X1124122Y70125D01*
X1127117D01*
X1130011Y70900D01*
X1132604Y72398D01*
X1134722Y74516D01*
X1136220Y77109D01*
X1136995Y80002D01*
Y82998D01*
X1136220Y85891D01*
X1134722Y88484D01*
X1132604Y90602D01*
X1130011Y92100D01*
X1127117Y92875D01*
D02*
G37*
G36*
X1252117Y67875D02*
X1249122D01*
X1246229Y67100D01*
X1243636Y65602D01*
X1241518Y63484D01*
X1240020Y60891D01*
X1239245Y57997D01*
Y55002D01*
X1240020Y52109D01*
X1241518Y49516D01*
X1243636Y47398D01*
X1246229Y45900D01*
X1249122Y45125D01*
X1252117D01*
X1255011Y45900D01*
X1257604Y47398D01*
X1259722Y49516D01*
X1261220Y52109D01*
X1261995Y55002D01*
Y57997D01*
X1261220Y60891D01*
X1259722Y63484D01*
X1257604Y65602D01*
X1255011Y67100D01*
X1252117Y67875D01*
D02*
G37*
G36*
X1227117D02*
X1224122D01*
X1221229Y67100D01*
X1218636Y65602D01*
X1216518Y63484D01*
X1215020Y60891D01*
X1214245Y57997D01*
Y55002D01*
X1215020Y52109D01*
X1216518Y49516D01*
X1218636Y47398D01*
X1221229Y45900D01*
X1224122Y45125D01*
X1227117D01*
X1230011Y45900D01*
X1232604Y47398D01*
X1234722Y49516D01*
X1236220Y52109D01*
X1236995Y55002D01*
Y57997D01*
X1236220Y60891D01*
X1234722Y63484D01*
X1232604Y65602D01*
X1230011Y67100D01*
X1227117Y67875D01*
D02*
G37*
G36*
X1202117D02*
X1199122D01*
X1196229Y67100D01*
X1193636Y65602D01*
X1191518Y63484D01*
X1190020Y60891D01*
X1189245Y57997D01*
Y55002D01*
X1190020Y52109D01*
X1191518Y49516D01*
X1193636Y47398D01*
X1196229Y45900D01*
X1199122Y45125D01*
X1202117D01*
X1205011Y45900D01*
X1207604Y47398D01*
X1209722Y49516D01*
X1211220Y52109D01*
X1211995Y55002D01*
Y57997D01*
X1211220Y60891D01*
X1209722Y63484D01*
X1207604Y65602D01*
X1205011Y67100D01*
X1202117Y67875D01*
D02*
G37*
%LPD*%
D14*
X1371600Y266090D02*
D03*
Y285090D02*
D03*
D15*
X1351940Y88900D02*
D03*
X1370940D02*
D03*
X1353210Y228600D02*
D03*
X1372210D02*
D03*
X1352600Y157480D02*
D03*
X1371600D02*
D03*
X1353210Y190500D02*
D03*
X1372210D02*
D03*
D19*
X1317900Y209550D02*
D03*
X1336400D02*
D03*
X1401720Y212090D02*
D03*
X1420220D02*
D03*
X1400450Y175260D02*
D03*
X1418950D02*
D03*
X1413870Y246380D02*
D03*
X1395370D02*
D03*
X1328060Y127000D02*
D03*
X1346560D02*
D03*
X1400450Y137160D02*
D03*
X1418950D02*
D03*
X1402990Y101600D02*
D03*
X1421490D02*
D03*
X1383940Y64770D02*
D03*
X1402440D02*
D03*
X1419500Y281940D02*
D03*
X1438000D02*
D03*
D20*
X1399540Y317860D02*
D03*
Y299360D02*
D03*
D38*
X446120Y199040D02*
X1281375D01*
X598170Y240030D02*
X1095732D01*
X1358050Y244760D02*
X1372210Y230600D01*
X1095732Y240030D02*
X1100462Y244760D01*
X1358050D01*
X436795Y232495D02*
X1312230D01*
X400050Y269240D02*
X436795Y232495D01*
X1312230D02*
X1321077Y223647D01*
X1321252D01*
X1326110Y218790D02*
X1328160D01*
X1321252Y223647D02*
X1326110Y218790D01*
X1328160D02*
X1336400Y210550D01*
X1281375Y199040D02*
X1342310Y138105D01*
Y132250D02*
Y138105D01*
Y132250D02*
X1346560Y128000D01*
X388967Y218134D02*
Y266642D01*
X397510Y247650D02*
X446120Y199040D01*
X1418230Y279400D02*
Y280400D01*
X610870Y255270D02*
X640690Y285090D01*
X854010Y456500D02*
X868018D01*
X759460Y361950D02*
X854010Y456500D01*
X481330Y361950D02*
X759460D01*
X851939Y461500D02*
X865947D01*
X875938Y464420D02*
X970280D01*
X868018Y456500D02*
X875938Y464420D01*
X494030Y396240D02*
X786679D01*
X851939Y461500D01*
X865947D02*
X893867Y489420D01*
X970280D01*
X1419790Y337820D02*
X1469790Y387820D01*
X388967Y266642D02*
X460145Y337820D01*
X1419790D01*
X415290Y307340D02*
X450850Y342900D01*
X1399870D02*
X1469790Y412820D01*
X450850Y342900D02*
X1399870D01*
X640690Y285090D02*
X1371600D01*
X1372210Y228600D02*
Y230600D01*
X397510Y247650D02*
Y257810D01*
X1336400Y209550D02*
Y210550D01*
X1346560Y127000D02*
Y128000D01*
X308610Y78740D02*
Y236864D01*
X358140Y29210D02*
X618490D01*
X308610Y78740D02*
X358140Y29210D01*
X315326Y243580D02*
X352800D01*
X308610Y236864D02*
X315326Y243580D01*
X352800D02*
X353060Y243840D01*
X636270Y46990D02*
Y72390D01*
X618490Y29210D02*
X636270Y46990D01*
Y72390D02*
X668280Y104400D01*
X1357440D01*
X1370940Y90900D01*
Y88900D02*
Y90900D01*
X1336400Y209550D02*
X1355160D01*
X1372210Y192500D01*
Y190500D02*
Y192500D01*
Y230600D02*
X1375210Y233600D01*
X1395370Y245380D02*
Y246380D01*
X1391120Y241130D02*
X1395370Y245380D01*
X1390120Y241130D02*
X1391120D01*
X1382590Y233600D02*
X1390120Y241130D01*
X1375210Y233600D02*
X1382590D01*
X1372210Y188500D02*
Y190500D01*
X1385450Y175260D02*
X1400450D01*
X1372210Y188500D02*
X1385450Y175260D01*
X1371600Y155480D02*
Y157480D01*
X1350810Y134690D02*
X1371600Y155480D01*
X1350810Y131250D02*
Y134690D01*
X1346560Y127000D02*
X1350810Y131250D01*
X1389920Y137160D02*
X1400450D01*
X1371600Y155480D02*
X1389920Y137160D01*
X1381640Y101600D02*
X1402990D01*
X1370940Y90900D02*
X1381640Y101600D01*
X1402990Y65320D02*
Y101600D01*
X1402440Y64770D02*
X1402990Y65320D01*
X1421490Y101600D02*
Y102600D01*
X1452170Y133280D02*
X1467250D01*
X1421490Y102600D02*
X1452170Y133280D01*
X1418950Y137160D02*
X1446130D01*
X1467250Y158280D01*
X1418950Y175260D02*
X1455648D01*
X1463668Y183280D01*
X1467250D01*
X1395370Y245380D02*
X1401720Y239030D01*
Y212090D02*
Y239030D01*
X1420220Y212090D02*
X1424030Y208280D01*
X1467250D01*
X1387870Y299360D02*
X1399540D01*
X1373600Y285090D02*
X1387870Y299360D01*
X1371600Y285090D02*
X1373600D01*
X1404790Y293840D02*
Y295110D01*
X1399540Y299360D02*
X1400540D01*
X1404790Y293840D02*
X1418230Y280400D01*
X1400540Y299360D02*
X1404790Y295110D01*
X1436730Y278400D02*
Y279400D01*
X1440980Y274150D02*
X1494588D01*
X1505125Y263613D01*
Y221155D02*
Y263613D01*
X1436730Y278400D02*
X1440980Y274150D01*
X1492250Y208280D02*
X1505125Y221155D01*
D40*
X1175620Y56500D02*
D03*
X970280Y439420D02*
D03*
X1494790Y437820D02*
D03*
X1469790D02*
D03*
Y412820D02*
D03*
Y387820D02*
D03*
Y362820D02*
D03*
Y337820D02*
D03*
Y312820D02*
D03*
X1494790Y412820D02*
D03*
Y387820D02*
D03*
Y362820D02*
D03*
Y337820D02*
D03*
Y312820D02*
D03*
X1467250Y258280D02*
D03*
Y233280D02*
D03*
Y208280D02*
D03*
Y183280D02*
D03*
Y158280D02*
D03*
Y133280D02*
D03*
X1492250Y258280D02*
D03*
Y233280D02*
D03*
Y208280D02*
D03*
Y183280D02*
D03*
Y158280D02*
D03*
Y133280D02*
D03*
X1125620Y56500D02*
D03*
X1150620D02*
D03*
X1200620D02*
D03*
X1225620D02*
D03*
X1250620D02*
D03*
X1125620Y81500D02*
D03*
X1150620D02*
D03*
X1175620D02*
D03*
X1200620D02*
D03*
X1225620D02*
D03*
X1250620D02*
D03*
X995280Y389420D02*
D03*
Y414420D02*
D03*
Y439420D02*
D03*
Y464420D02*
D03*
Y489420D02*
D03*
Y514420D02*
D03*
X970280Y389420D02*
D03*
Y414420D02*
D03*
Y464420D02*
D03*
Y489420D02*
D03*
Y514420D02*
D03*
D41*
X200000Y500000D02*
D03*
X850000D02*
D03*
Y50000D02*
D03*
X200000D02*
D03*
D42*
X1500000Y500000D02*
D03*
X50000D02*
D03*
X1500000Y50000D02*
D03*
X50000D02*
D03*
D43*
X1508190Y375320D02*
D03*
X1505650Y195780D02*
D03*
X1188120Y94900D02*
D03*
X956880Y451920D02*
D03*
D44*
X1500000Y450000D02*
D03*
X1525000Y400000D02*
D03*
Y300000D02*
D03*
Y200000D02*
D03*
Y100000D02*
D03*
X1450000Y250000D02*
D03*
Y150000D02*
D03*
X1475000Y100000D02*
D03*
X1425000Y500000D02*
D03*
X1375000D02*
D03*
X1350000Y450000D02*
D03*
Y350000D02*
D03*
X1325000Y500000D02*
D03*
Y400000D02*
D03*
X1300000Y350000D02*
D03*
X1325000Y300000D02*
D03*
X1275000Y500000D02*
D03*
Y400000D02*
D03*
Y300000D02*
D03*
X1225000Y500000D02*
D03*
Y400000D02*
D03*
X1200000Y350000D02*
D03*
X1225000Y300000D02*
D03*
X1175000Y500000D02*
D03*
Y400000D02*
D03*
Y300000D02*
D03*
X1125000Y500000D02*
D03*
Y400000D02*
D03*
Y300000D02*
D03*
X1100000Y150000D02*
D03*
Y50000D02*
D03*
X1075000Y500000D02*
D03*
X1050000Y450000D02*
D03*
X1075000Y400000D02*
D03*
Y300000D02*
D03*
X1050000Y50000D02*
D03*
X1025000Y500000D02*
D03*
Y400000D02*
D03*
Y300000D02*
D03*
X1000000Y250000D02*
D03*
Y50000D02*
D03*
X975000Y300000D02*
D03*
X950000Y250000D02*
D03*
Y50000D02*
D03*
X925000Y500000D02*
D03*
X900000Y450000D02*
D03*
X925000Y400000D02*
D03*
X900000Y250000D02*
D03*
Y50000D02*
D03*
X875000Y400000D02*
D03*
Y300000D02*
D03*
X800000Y450000D02*
D03*
X825000Y400000D02*
D03*
Y300000D02*
D03*
X800000Y250000D02*
D03*
Y50000D02*
D03*
X775000Y300000D02*
D03*
X750000Y250000D02*
D03*
Y50000D02*
D03*
X725000Y500000D02*
D03*
Y300000D02*
D03*
X700000Y250000D02*
D03*
Y50000D02*
D03*
X675000Y500000D02*
D03*
X650000Y250000D02*
D03*
Y150000D02*
D03*
Y50000D02*
D03*
X625000Y500000D02*
D03*
X600000Y350000D02*
D03*
Y150000D02*
D03*
X625000Y100000D02*
D03*
X600000Y50000D02*
D03*
X575000Y500000D02*
D03*
X550000Y350000D02*
D03*
X575000Y300000D02*
D03*
X550000Y150000D02*
D03*
X525000Y500000D02*
D03*
X500000Y350000D02*
D03*
X525000Y300000D02*
D03*
X500000Y250000D02*
D03*
Y150000D02*
D03*
X475000Y500000D02*
D03*
Y400000D02*
D03*
X450000Y350000D02*
D03*
X475000Y300000D02*
D03*
X450000Y250000D02*
D03*
X425000Y500000D02*
D03*
X400000Y450000D02*
D03*
Y350000D02*
D03*
X425000Y200000D02*
D03*
X400000Y50000D02*
D03*
X375000Y500000D02*
D03*
X350000Y450000D02*
D03*
Y350000D02*
D03*
X375000Y100000D02*
D03*
X350000Y50000D02*
D03*
X325000Y500000D02*
D03*
X300000Y450000D02*
D03*
Y350000D02*
D03*
Y250000D02*
D03*
X325000Y100000D02*
D03*
X300000Y50000D02*
D03*
X275000Y500000D02*
D03*
X250000Y450000D02*
D03*
X275000Y400000D02*
D03*
X250000Y350000D02*
D03*
X275000Y300000D02*
D03*
X250000Y250000D02*
D03*
X275000Y200000D02*
D03*
X250000Y150000D02*
D03*
X275000Y100000D02*
D03*
X250000Y50000D02*
D03*
X200000Y450000D02*
D03*
X225000Y400000D02*
D03*
X200000Y350000D02*
D03*
X225000Y300000D02*
D03*
X200000Y250000D02*
D03*
X225000Y200000D02*
D03*
X200000Y150000D02*
D03*
X225000Y100000D02*
D03*
X150000Y450000D02*
D03*
X175000Y400000D02*
D03*
X150000Y350000D02*
D03*
X175000Y300000D02*
D03*
X150000Y250000D02*
D03*
X175000Y200000D02*
D03*
X150000Y150000D02*
D03*
X175000Y100000D02*
D03*
X150000Y50000D02*
D03*
X125000Y500000D02*
D03*
X100000Y450000D02*
D03*
X125000Y400000D02*
D03*
X100000Y350000D02*
D03*
X125000Y300000D02*
D03*
Y200000D02*
D03*
X100000Y150000D02*
D03*
X125000Y100000D02*
D03*
X100000Y50000D02*
D03*
X50000Y450000D02*
D03*
X75000Y400000D02*
D03*
Y300000D02*
D03*
X50000Y150000D02*
D03*
X75000Y100000D02*
D03*
X1234440Y238760D02*
D03*
X1318260Y234950D02*
D03*
X1422400Y308610D02*
D03*
X1417320Y375920D02*
D03*
X1330001Y160000D02*
D03*
Y80000D02*
D03*
X1310001D02*
D03*
X1280001Y180000D02*
D03*
X1290001Y80000D02*
D03*
X1270001Y120000D02*
D03*
Y80000D02*
D03*
X1240001Y180000D02*
D03*
X1210001Y120000D02*
D03*
X1180001Y140000D02*
D03*
X1190001Y120000D02*
D03*
Y40000D02*
D03*
X1160001Y180000D02*
D03*
Y140000D02*
D03*
X1170001Y40000D02*
D03*
X1130001Y160000D02*
D03*
Y120000D02*
D03*
Y40000D02*
D03*
X1100001Y220000D02*
D03*
Y140000D02*
D03*
X1110001Y120000D02*
D03*
Y80000D02*
D03*
X1100001Y60000D02*
D03*
X1110001Y40000D02*
D03*
X1080001Y140000D02*
D03*
X1090001Y120000D02*
D03*
Y80000D02*
D03*
X1080001Y60000D02*
D03*
X1090001Y40000D02*
D03*
X1060001Y220000D02*
D03*
X1070001Y120000D02*
D03*
Y80000D02*
D03*
X1060001Y60000D02*
D03*
X1070001Y40000D02*
D03*
X1050001Y120000D02*
D03*
Y80000D02*
D03*
X1040001Y60000D02*
D03*
X1050001Y40000D02*
D03*
X1020001Y180000D02*
D03*
X1030001Y120000D02*
D03*
Y80000D02*
D03*
X1020001Y60000D02*
D03*
X1030001Y40000D02*
D03*
X1329870Y224790D02*
D03*
X1336040Y135890D02*
D03*
X466090Y402590D02*
D03*
X1394180Y190220D02*
D03*
X1381400Y373740D02*
D03*
X1289050Y448670D02*
D03*
X417830Y434340D02*
D03*
X331470Y138430D02*
D03*
X298260Y218250D02*
D03*
X629920Y218440D02*
D03*
X388967Y218134D02*
D03*
X322580Y147320D02*
D03*
X629920Y205740D02*
D03*
Y193040D02*
D03*
X610870Y255270D02*
D03*
X598170Y240030D02*
D03*
X582930Y100330D02*
D03*
X569850Y100500D02*
D03*
X481330Y361950D02*
D03*
X494030Y396240D02*
D03*
X415290Y307340D02*
D03*
X397510Y257810D02*
D03*
X400050Y269240D02*
D03*
X353060Y243840D02*
D03*
D45*
X220000Y480000D02*
D03*
X172500Y500000D02*
D03*
X227500D02*
D03*
X180000Y520000D02*
D03*
X220000D02*
D03*
X200000Y527500D02*
D03*
Y472500D02*
D03*
X180000Y480000D02*
D03*
X850000Y472500D02*
D03*
X830000Y480000D02*
D03*
X870000D02*
D03*
X822500Y500000D02*
D03*
X877500D02*
D03*
X830000Y520000D02*
D03*
X870000D02*
D03*
X850000Y527500D02*
D03*
X822500Y50000D02*
D03*
X830000Y30000D02*
D03*
Y70000D02*
D03*
X850000Y77500D02*
D03*
Y22500D02*
D03*
X870000Y30000D02*
D03*
Y70000D02*
D03*
X877500Y50000D02*
D03*
X172500D02*
D03*
X200000Y22500D02*
D03*
X180000Y30000D02*
D03*
X220000D02*
D03*
X227500Y50000D02*
D03*
X180000Y70000D02*
D03*
X220000D02*
D03*
X200000Y77500D02*
D03*
X1480000Y520000D02*
D03*
X1472500Y500000D02*
D03*
X1500000Y472500D02*
D03*
X1480000Y480000D02*
D03*
X1520000D02*
D03*
X1527500Y500000D02*
D03*
X1520000Y520000D02*
D03*
X1500000Y527500D02*
D03*
X30000Y480000D02*
D03*
X22500Y500000D02*
D03*
X77500D02*
D03*
X30000Y520000D02*
D03*
X70000D02*
D03*
X50000Y527500D02*
D03*
Y472500D02*
D03*
X70000Y480000D02*
D03*
X1500000Y22500D02*
D03*
X1480000Y30000D02*
D03*
X1520000D02*
D03*
X1527500Y50000D02*
D03*
X1480000Y70000D02*
D03*
X1520000D02*
D03*
X1500000Y77500D02*
D03*
X1472500Y50000D02*
D03*
X30000Y30000D02*
D03*
X77500Y50000D02*
D03*
X70000Y30000D02*
D03*
X50000Y22500D02*
D03*
X22500Y50000D02*
D03*
X50000Y77500D02*
D03*
X30000Y70000D02*
D03*
X70000D02*
D03*
M02*
