M48
;Layer_Color=9474304
;FILE_FORMAT=2:5
INCH
;TYPE=PLATED
T1F00S00C0.01181
T2F00S00C0.02756
T3F00S00C0.03937
T4F00S00C0.04016
T5F00S00C0.04213
T6F00S00C0.04724
T7F00S00C0.04921
T8F00S00C0.05039
T9F00S00C0.05433
T10F00S00C0.13780
;TYPE=NON_PLATED
T11F00S00C0.06890
%
T01
X0094488Y0094488
X0118110
X0141732
X0129921Y0118110
X0106299
X0101969Y0138524
X0094488Y0141732
X0140118Y0153150
X0165354Y0141732
X0169601Y0145270
X0178583Y0138524
X0188248Y0143307
X0194488
X0202362Y0141339
X0210236Y0143307
X0204331Y0153543
X0207087Y0118898
X0224410Y0118110
X0212598Y0094488
X0236221
X0188976
X0193622Y0105905
Y0112913
X0179606Y0123622
X0165354Y0094488
X0168386Y0183465
X0159471
X0159078Y0207283
X0168386Y0207087
X0177694
X0187002Y0207002
X0196310Y0207087
X0205619
X0214927
X0224432
X0248031Y0212598
X0236221Y0236221
Y0188976
X0187402Y0185936
X0151598Y0202559
X0153543Y0212598
X0129921
X0106299
X0094488Y0236221
X0118110
X0118335Y0252978
X0108493
X0128178
X0141732Y0236221
X0153543Y0165354
X0106299
X0094488Y0188976
T02
X0173327Y0177930
X0192520Y0177832
T03
X0216142Y0105905
X0216339Y0112913
T04
X0251575Y0135276
Y0145276
Y0155276
Y0165276
Y0175276
T05
X0111879Y0151746
X0115579Y0163558
X0127390
X0111879Y0175368
T06
X0164469Y0240807
Y0250453
X0174311
Y0240807
X0184153
Y0250453
X0193996
Y0240807
X0203839
Y0250453
X0213681
Y0240807
X0223524
Y0250453
X0154626
T07
X0140118Y0104965
Y0114807
X0149961
Y0104965
T08
X0154626Y0240807
T09
X0189075Y0255965
T10
X0249606Y0107758
Y0245669
X0107902Y0196457
T11
X0111850Y0104965
Y0114807
M30
