M48
;Layer_Color=9474304
;FILE_FORMAT=4:4
METRIC,LZ
;TYPE=PLATED
T1F00S00C0.2000
T2F00S00C0.3000
T3F00S00C0.5000
T4F00S00C1.0000
T5F00S00C1.1000
T6F00S00C1.2000
T7F00S00C1.6000
T8F00S00C1.8000
T9F00S00C3.2000
%
T01
X0031Y0072
X003175
X00325
X003325
X0034
X003475
X00355
X003625
Y0073
X00355
X003475
X0034
X003325
X00325
X003175
X0031
Y0074
X003175
X00325
X003325
X0034
X003475
X00355
X003625
Y0075
X00355
X003475
X0034
X003325
X00325
X003175
X0031
Y0076
X003175
X00325
X003325
X0034
X003475
X00355
X003625
Y0077
X00355
X003475
X0034
X003325
X00325
X003175
X0031
Y0078
X003175
X00325
X003325
X0034
X003475
X00355
X003625
Y0079
X00355
X003475
X0034
X003325
X00325
X003175
X0031
X003175Y008
X00325
X003325
X0034
X003475
X00355
X003625
Y0081
X00355
X003475
X0034
X003325
X00325
X003175
Y0082
X00325
X003325
Y0083
X00325
X003175
T02
X001075Y00105
X0035Y00035
X004725Y0043
Y00475
X004425
X004325Y005075
X004425Y0043
X003425Y004375
X003375Y004725
X0035Y00475
X0033623Y0051006
X003025Y005075
Y004975
Y004875
Y004775
X0028Y004775
X00235Y004725
X002225Y004875
Y004975
X001875Y00478
Y00468
X00135Y0048
X00145Y00445
X0007Y004375
X000725Y00465
X001075Y005025
X00195Y0037
X0025
X002375Y003225
X002025Y0032
X00155
X0014Y002925
X00135328Y00243127
X00115Y0025
Y002125
X00136994Y00171631
X001775Y001675
X0022575Y0016625
X002725Y001675
X003225
X002975Y002425
X002475
X00185
X0035
X00325Y0032
X00275
X003Y003925
X003525
X0032Y00455
X00455Y002025
X00025Y002125
Y0025
X00045Y004975
X001075Y00515
X000925Y0058
X001325Y00585
X0017Y005925
X001825Y006025
X001975Y005925
X002125Y006025
X002475Y0061
X002425Y005475
X0026
X00305
X002825Y0052
X003375Y0051873
Y005675
X0035Y005875
X003225Y006025
X003625Y006325
X0042Y006225
X004425Y006025
Y00645
X0044Y006775
X00405Y0072
Y0075
Y0077
X004225Y008175
X0042Y0084
Y008625
X0039Y008475
X002925
Y008575
Y008675
X002825
Y008575
X002725
Y008675
Y008475
X002825
X002425Y0085
X00225Y008175
X002Y0078
Y007325
Y007175
X001775Y006825
X0013Y006725
X001
X002225Y006575
X00245Y006825
X00268237Y00716902
X003Y007025
Y006875
X003025Y008
X00295Y0081
X0029Y008875
X00225Y007525
X002275Y00535
X004325Y005175
X004425
Y0056
X004725Y0056
Y006025
Y00645
X004675Y0073
Y0076
X004725Y005175
T03
X000175Y000175
X000375Y0001
X000575Y000175
Y000575
X000375Y00065
X000175Y000575
X0001Y000375
X00065
X00435
X004425Y000175
Y000575
X004625Y00065
X004825Y000575
X0049Y000375
X004825Y000175
X004625Y0001
X000575Y008925
X000375Y00885
X000175Y008925
X00445
X00465Y00885
X00485Y008925
X004925Y009125
X00485Y009325
X00465Y0094
X00445Y009325
X004375Y009125
X00065
X000575Y009325
X000375Y0094
X000175Y009325
X0001Y009125
T04
X004425Y00325
Y003504
Y003758
T05
X001438Y004175
X001692
X001946
X0022
X002454
X00375Y002702
Y002448
X003848Y002125
X004102
X000475Y005421
Y005675
Y005929
Y006183
T06
X00155Y00115
X0018
X00205
X0023
X00255
X0028
X00305
X0033
Y0014
X00305
X0028
X00255
X0023
X00205
X0018
X00155
X001475Y008041
X001225
X000975
Y008291
X001225
X001475
X001725
Y008041
T07
X000975Y009009
X001725
T08
X00155Y0004261
X0032899
T09
X000375Y000375
X004625
X004625Y009125
X000375
M30
