M48
;Layer_Color=9474304
;FILE_FORMAT=4:4
METRIC,LZ
;TYPE=PLATED
T1F00S00C0.2000
%
T01
X002825Y00700001
X003125Y00710001
X003025Y00720001
X003325
X003425
X003525
Y00730001
Y00740001
Y00750001
Y00760001
Y00770001
Y00780001
Y00790001
X003625
X003725
Y00800001
Y00810001
Y00820001
Y00830001
Y00840001
Y00850001
X003625
Y00840001
Y00830001
Y00820001
Y00810001
Y00800001
X003525
Y00810001
Y00820001
Y00830001
Y00840001
Y00850001
X003425
Y00840001
Y00830001
Y00820001
Y00810001
Y00800001
Y00790001
Y00780001
Y00770001
Y00760001
Y00750001
Y00740001
Y00730001
X003325
Y00740001
Y00750001
Y00760001
Y00770001
Y00780001
Y00790001
Y00800001
Y00810001
Y00820001
Y00830001
Y00840001
Y00850001
X003225
Y00840001
Y00830001
Y00820001
Y00810001
Y00800001
Y00790001
Y00780001
Y00770001
Y00760001
Y00750001
Y00740001
Y00730001
X003125Y00740001
Y00750001
Y00760001
Y00770001
Y00780001
Y00790001
Y00800001
Y00810001
Y00820001
Y00830001
Y00840001
Y00850001
X003025
Y00840001
Y00830001
Y00820001
X002925Y00850001
X002825
X003425Y00710001
X003525
X003625
Y00700001
X003725
X003925
X003525
M30
