M48
;Layer_Color=9474304
;FILE_FORMAT=4:4
METRIC,LZ
;TYPE=PLATED
T01F00S00C0.5000
T02F00S00C1.2000
T03F00S00C1.4000
T04F00S00C3.2000
%
T01
X000762Y0003556
X0001778Y0011811
X000308Y0017685
X000508Y0016935
X000708Y0017685
X000783Y0019685
X000708Y0021685
X000508Y0022435
X000308Y0021685
X000233Y0019685
X0015Y0012
X0027
X0033
X0039
X0036Y0018
X003
X0024
Y0006
X0022479Y0004318
X003Y0006
T02
X0003937Y00060525
X0006437
X0006477Y00085525
X0003937
T03
X0005207Y00099495
T04
X000508Y0019685
M30
