M48
;Layer_Color=9474304
;FILE_FORMAT=4:4
METRIC,LZ
;TYPE=PLATED
T01F00S00C0.5000
T02F00S00C0.8000
T03F00S00C1.1000
T04F00S00C1.2500
;TYPE=NON_PLATED
T05F00S00C1.2000
%
T01
X0006Y0006
X0004318Y0016891
Y0019304
Y0021971
Y0024511
X0004191Y0027051
Y0029464
X0006Y003
X0004445Y0032131
X0004318Y0034544
Y0037338
X0020447Y0031496
X0022225Y0032385
X0023749Y0031242
X0024Y003
X003
X0030734Y0034671
X0033Y0036
X0039
X0036Y003
X0039Y0024
X0033
X0027
X00301566Y00181566
X0036Y0018
X0027Y0036
X0042Y003
X0048
X0051Y0024
X0057
X0054Y0018
X006
X0066
X0069Y0012
X0075
X0072Y0006
X006
X0054
X0048
X0051Y0012
X0057
X0042Y0018
X0045Y0024
X0057Y0036
X0069
X0066Y003
X0072
X0081Y0036
Y0048
Y006
X0075
X0072Y0054
X0066
X0063Y006
X0054Y0054
X0048
X0042
X0051Y0048
X0057
X0054Y0042
X006
X0072
X0048
X0038989Y0043942
X0036Y0042
X0033Y0048
X0027
X003Y0054
X0036
X0033Y006
X0009
X0006Y0054
X0004064Y0044704
X0004191Y0042291
Y0039751
X0018Y0042
T02
X0044323Y0027305
Y0029845
Y0032385
X004699Y0045593
Y0048133
Y0050673
X0051181Y0060833
X0053721
X0056261
T03
X0034671Y0016764
Y0019304
X0038989Y0019177
Y0016637
X004318Y0016764
Y0019304
X0047879Y0019431
Y0016891
X00539014Y0014351
Y0011811
X00635
X006604
Y0015875
X00635
Y0019812
X006604
Y0023749
X00635
Y0027686
X006604
X0058547Y0030226
X0056007
X00635Y000762
X006604
X0065024Y0041529
X0067564
Y0045085
X0065024
Y0048641
X0067564
Y0052324
X0065024
Y005588
X0067564
X0067691Y005969
X0065151
X0058547Y0053086
X0056007
T04
X0016677Y0007239
Y0009739
X0019177
X0021677
X0024177
X0026677
X0029177
Y0007239
X0026677
X0024177
X0021677
X0019177
X0035152Y0009849
X0037652
Y0012349
X0035152
X0040152
Y0009849
X0042652
X0045152
X0047652
Y0012349
X0045152
X0042652
X0076835Y0015955
Y0018455
Y0020955
Y0023455
Y0025955
Y0028455
X0079335
Y0025955
Y0023455
Y0020955
Y0018455
Y0015955
X0077216Y0043046
Y0045546
Y0048046
Y0050546
Y0053046
Y0055546
X0074716
Y0053046
Y0050546
Y0048046
Y0045546
Y0043046
X0031082Y0057404
X0028582
X0026082
X0023582
X0021082
X0018582
Y0059904
X0021082
X0023582
X0026082
X0028582
X0031082
T05
X0022927Y0011079
X0041402Y0008509
X0075495Y0022205
X0078556Y0049296
X0024832Y0056064
M30
