G04*
G04 #@! TF.GenerationSoftware,Altium Limited,Altium Designer,19.1.8 (144)*
G04*
G04 Layer_Color=128*
%FSLAX44Y44*%
%MOMM*%
G71*
G01*
G75*
%ADD10C,0.2000*%
%ADD14C,0.1000*%
%ADD17R,0.6187X3.9500*%
%ADD18C,0.0500*%
%ADD63C,0.0508*%
D10*
X249000Y249410D02*
Y308810D01*
X333500D01*
Y249410D01*
X249000D01*
X348271Y382186D02*
Y448686D01*
X274571D01*
Y382186D01*
X348271D01*
D14*
X285072Y324000D02*
Y334000D01*
X284600Y346851D02*
Y356851D01*
X301600Y360851D02*
X267600D01*
Y342851D01*
X301600D01*
Y360851D01*
X289600Y351851D02*
X279600D01*
X301821Y337750D02*
X268321D01*
Y320250D01*
X301821D01*
Y337750D01*
X290072Y329000D02*
X280072D01*
X310250Y330900D02*
Y364400D01*
X327750D01*
Y330900D01*
X310250D01*
X314000Y347650D02*
X324000D01*
X319000Y342650D02*
Y352650D01*
X354000Y329000D02*
X394000D01*
Y379000D01*
X354000D01*
Y329000D01*
X374000Y349000D02*
Y359000D01*
X369000Y354000D02*
X379000D01*
X398500Y341000D02*
Y417000D01*
X579500D01*
Y341000D01*
X398500D01*
X426000Y313750D02*
X472000D01*
Y274250D01*
X426000D01*
Y313750D01*
X444000Y294000D02*
X454000D01*
X449000Y299000D02*
Y289000D01*
X447000Y287610D02*
X481000D01*
Y305610D01*
X447000D01*
Y287610D01*
X448500Y282250D02*
X480500D01*
Y276250D01*
D02*
G03*
X480500Y271750I0J-2250D01*
G01*
Y271752D02*
Y265752D01*
X448500D01*
X448502D02*
Y271752D01*
Y271750D02*
G03*
X448502Y276250I0J2250D01*
G01*
Y282250D01*
X459500Y274000D02*
X469500D01*
X464500Y269000D02*
Y279000D01*
X500500Y268000D02*
X517500D01*
Y300000D01*
X500500D01*
Y268000D01*
X500250Y267250D02*
Y300750D01*
X517750D01*
Y267250D01*
X500250D01*
X499000Y261000D02*
X519000D01*
Y307000D01*
X499000D01*
Y261000D01*
X509000Y279000D02*
Y289000D01*
Y289000D02*
Y279000D01*
X514000Y284000D02*
X504000D01*
X514000D01*
X464000Y291610D02*
Y301610D01*
X459000Y296610D02*
X469000D01*
X484000Y379000D02*
X494000D01*
X489000Y374000D02*
Y384000D01*
X485500Y387000D02*
Y421000D01*
X467500D01*
Y387000D01*
X485500D01*
X476500Y409000D02*
Y399000D01*
X481500Y404000D02*
X471500D01*
X459428D02*
X449428D01*
X454428Y399000D02*
Y409000D01*
X445429Y421000D02*
X463428D01*
Y387000D01*
X445429D01*
Y421000D01*
X390000Y370000D02*
G03*
X390000Y370000I-5000J0D01*
G01*
X508557Y484000D02*
Y518000D01*
X490557D01*
Y484000D01*
X508557D01*
X514057D02*
Y518000D01*
X532057D01*
Y484000D01*
X514057D01*
X518057Y501000D02*
X528057D01*
X523057Y496000D02*
Y506000D01*
X541557Y501000D02*
X551557D01*
X546557Y496000D02*
Y506000D01*
X537557Y484000D02*
Y518000D01*
X555557D01*
Y484000D01*
X537557D01*
X561057D02*
Y518000D01*
X579057D01*
Y484000D01*
X561057D01*
X565057Y501000D02*
X575057D01*
X570057Y496000D02*
Y506000D01*
X626554Y459799D02*
X651447Y459798D01*
X651446D02*
Y328999D01*
X626554D01*
Y459799D01*
X575500Y408000D02*
G03*
X575500Y408000I-5000J0D01*
G01*
X590000Y356000D02*
X608000D01*
Y322000D01*
X590000D01*
Y356000D01*
X594000Y339000D02*
X604000D01*
X599000Y334000D02*
Y344000D01*
X591690Y266500D02*
X671090D01*
Y99600D01*
X591690D01*
Y266500D01*
X504557Y501000D02*
X494557D01*
X499557Y496000D02*
Y506000D01*
X485057Y484000D02*
Y518000D01*
X467057D01*
Y484000D01*
X485057D01*
X461557Y518000D02*
Y484000D01*
X443557D01*
Y518000D01*
X461557D01*
X457557Y501000D02*
X447557D01*
X452557Y496000D02*
Y506000D01*
X432700Y501000D02*
X422700D01*
X432700D01*
X436450Y484250D02*
Y517750D01*
X418950D01*
X436450D01*
Y484250D01*
X418950D01*
Y517750D01*
Y484250D01*
X436450D01*
X471057Y501000D02*
X481057D01*
X476057Y496000D02*
Y506000D01*
X513521Y534250D02*
Y567750D01*
X531021D01*
Y534250D01*
X513521D01*
Y534250D02*
Y567750D01*
X531021D01*
Y534250D01*
X513521D01*
X517271Y551000D02*
X527271D01*
Y551000D02*
X517271D01*
X522271Y556000D02*
Y546000D01*
Y546000D02*
Y556000D01*
X540914Y551000D02*
X550914D01*
Y551000D02*
X540914D01*
X545914Y546000D02*
Y556000D01*
Y556000D02*
Y546000D01*
X537164Y534250D02*
X554664D01*
Y567750D01*
X537164D01*
Y534250D01*
Y534250D02*
Y567750D01*
X554664D01*
Y534250D01*
X537164D01*
X560807D02*
Y567750D01*
X578307D01*
Y534250D01*
X560807D01*
X561307Y534250D02*
X578807D01*
Y567750D01*
X561307D01*
Y534250D01*
X564557Y551000D02*
X574557D01*
X575057Y551000D02*
X565057D01*
X569557Y556000D02*
Y546000D01*
X570057Y546000D02*
Y556000D01*
X507379Y567750D02*
Y534250D01*
X489879D01*
Y567750D01*
X507379D01*
Y567750D02*
Y534250D01*
X489879D01*
Y567750D01*
X507379D01*
X483736D02*
Y534250D01*
X466236D01*
Y567750D01*
X483736D01*
Y567750D02*
Y534250D01*
X466236D01*
Y567750D01*
X483736D01*
X493629Y551000D02*
X503629D01*
Y551000D02*
X493629D01*
X498629Y546000D02*
Y556000D01*
Y556000D02*
Y546000D01*
X460093Y567750D02*
Y534250D01*
X442593D01*
Y567750D01*
X460093D01*
Y568651D02*
Y535151D01*
X442593D01*
Y568651D01*
X460093D01*
X469986Y551000D02*
X479986D01*
Y551000D02*
X469986D01*
X474986Y546000D02*
Y556000D01*
Y556000D02*
Y546000D01*
X437200Y568000D02*
Y534000D01*
X419200D01*
Y568000D01*
X437200D01*
X436450Y567750D02*
Y534250D01*
X418950D01*
Y567750D01*
X436450D01*
X433200Y551000D02*
X423200D01*
X422700D02*
X432700D01*
X446343Y551000D02*
X456343D01*
Y551901D02*
X446343D01*
X451343Y556000D02*
Y546000D01*
Y546901D02*
Y556901D01*
X413557Y568000D02*
Y534000D01*
X395557D01*
Y568000D01*
X413557D01*
X412807Y567750D02*
Y534250D01*
X395307D01*
Y567750D01*
X412807D01*
X409557Y551000D02*
X399557D01*
X399057D02*
X409057D01*
X427700Y546000D02*
Y556000D01*
X428200D02*
Y546000D01*
X413807Y517750D02*
Y484250D01*
X396307D01*
Y517750D01*
X413807D01*
X413307D02*
Y484250D01*
X395807D01*
Y517750D01*
X413307D01*
X410057Y501000D02*
X400057D01*
X399557D02*
X409557D01*
X427700Y496000D02*
Y506000D01*
Y496000D01*
X405057D02*
Y506000D01*
X404557D02*
Y496000D01*
Y546000D02*
Y556000D01*
X404057D02*
Y546000D01*
X334322Y585814D02*
Y619314D01*
X316821D01*
Y585814D01*
X334322D01*
X334072Y586564D02*
Y618564D01*
X317072D01*
Y586564D01*
X334072D01*
X330572Y602564D02*
X320572D01*
X330572D01*
X335572Y579564D02*
Y625564D01*
X315572D01*
Y579564D01*
X335572D01*
X325572Y597564D02*
Y607564D01*
Y597564D01*
X305572Y602564D02*
X295571D01*
X305572D01*
X309072Y586564D02*
Y618564D01*
X292072D01*
Y586564D01*
X309072D01*
X309322Y585814D02*
Y619314D01*
X291821D01*
Y585814D01*
X309322D01*
X310571Y579564D02*
Y625564D01*
X290572D01*
Y579564D01*
X310571D01*
X300571Y597564D02*
Y607564D01*
Y597564D01*
X280571Y602564D02*
X270571D01*
X280571D01*
X284072Y586564D02*
Y618564D01*
X267072D01*
Y586564D01*
X284072D01*
X284322Y585814D02*
Y619314D01*
X266821D01*
Y585814D01*
X284322D01*
X285571Y579564D02*
Y625564D01*
X265572D01*
Y579564D01*
X285571D01*
X275571Y597564D02*
Y607564D01*
Y597564D01*
D17*
X429094Y294000D02*
D03*
D18*
X309500Y328150D02*
Y367150D01*
X328500D01*
Y328150D01*
X309500D01*
X336500Y326500D02*
X411500D01*
Y381500D01*
X336500D01*
Y326500D01*
X393500Y315000D02*
Y443000D01*
X584500D01*
Y315000D01*
X393500D01*
X415105D02*
X482895D01*
Y273000D01*
X415105D01*
Y315000D01*
X444500Y286610D02*
X483500D01*
Y306610D01*
X444500D01*
Y286610D01*
X444500Y284000D02*
X484500D01*
Y264000D01*
X444500D01*
Y284000D01*
X499500Y264500D02*
Y303500D01*
X518500D01*
Y264500D01*
X499500D01*
X589000Y319500D02*
Y358500D01*
X609000D01*
Y319500D01*
X589000D01*
X624300Y326749D02*
Y462049D01*
X653700D01*
Y326749D01*
X624300D01*
X486000Y424000D02*
X467000D01*
Y384000D01*
X486000D01*
Y424000D01*
X463928D02*
X444929D01*
Y384000D01*
X463928D01*
Y424000D01*
X509557Y481500D02*
Y520500D01*
X489557D01*
Y481500D01*
X509557D01*
X513057D02*
Y520500D01*
X533057D01*
Y481500D01*
X513057D01*
X536557D02*
Y520500D01*
X556557D01*
Y481500D01*
X536557D01*
X560057D02*
Y520500D01*
X580057D01*
Y481500D01*
X560057D01*
X560057Y531500D02*
Y570500D01*
X579057D01*
Y531500D01*
X560057D01*
X560557Y531500D02*
X579557D01*
Y570500D01*
X560557D01*
Y531500D01*
X555414Y531500D02*
Y570500D01*
X536414D01*
Y531500D01*
X555414D01*
Y531500D02*
Y570500D01*
X536414D01*
Y531500D01*
X555414D01*
X531771D02*
Y570500D01*
X512771D01*
Y531500D01*
X531771D01*
Y531500D02*
Y570500D01*
X512771D01*
Y531500D01*
X531771D01*
X508129D02*
Y570500D01*
X489128D01*
Y531500D01*
X508129D01*
Y531500D02*
Y570500D01*
X489128D01*
Y531500D01*
X508129D01*
X484486D02*
Y570500D01*
X465486D01*
Y531500D01*
X484486D01*
Y531500D02*
Y570500D01*
X465486D01*
Y531500D01*
X484486D01*
X486057Y520500D02*
Y481500D01*
X466057D01*
Y520500D01*
X486057D01*
X462557D02*
Y481500D01*
X442557D01*
Y520500D01*
X462557D01*
X460843Y531500D02*
Y570500D01*
X441843D01*
Y531500D01*
X460843D01*
Y532401D02*
Y571401D01*
X441843D01*
Y532401D01*
X460843D01*
X438200Y531500D02*
Y570500D01*
X418200D01*
Y531500D01*
X438200D01*
X437200Y531500D02*
Y570500D01*
X418200D01*
Y531500D01*
X437200D01*
Y520500D02*
Y481500D01*
X418200D01*
Y520500D01*
X437200D01*
Y520500D02*
Y481500D01*
X418200D01*
Y520500D01*
X437200D01*
X414557Y520500D02*
Y481500D01*
X395557D01*
Y520500D01*
X414557D01*
X414057Y520500D02*
Y481500D01*
X395057D01*
Y520500D01*
X414057D01*
X414557Y531500D02*
Y570500D01*
X394557D01*
Y531500D01*
X414557D01*
X413557Y531500D02*
Y570500D01*
X394557D01*
Y531500D01*
X413557D01*
X335071Y583064D02*
Y622064D01*
X316072D01*
Y583064D01*
X335071D01*
X310072D02*
Y622064D01*
X291072D01*
Y583064D01*
X310072D01*
X285072D02*
Y622064D01*
X266072D01*
Y583064D01*
X285072D01*
X265100Y361851D02*
X304100D01*
Y341851D01*
X265100D01*
Y361851D01*
X265572Y338500D02*
X304572D01*
Y319500D01*
X265572D01*
Y338500D01*
D63*
X238500Y240000D02*
X241500D01*
X240000Y238500D02*
Y241500D01*
X275350Y266610D02*
X292850D01*
X284100Y257860D02*
Y275360D01*
X298500Y240000D02*
X301500D01*
X300000Y238500D02*
Y241500D01*
X349650Y266610D02*
X362150D01*
X355900Y260360D02*
Y272860D01*
X374650Y266610D02*
X387150D01*
X418500Y240000D02*
X421500D01*
X420000Y238500D02*
Y241500D01*
X478500Y240000D02*
X481500D01*
X480000Y238500D02*
Y241500D01*
X490300Y269000D02*
X493300D01*
X491800Y267500D02*
Y270500D01*
X524500Y302000D02*
X527500D01*
X526000Y300500D02*
Y303500D01*
X544000Y269000D02*
X554000D01*
X549000Y264000D02*
Y274000D01*
X541500Y240000D02*
X538500D01*
X540000Y238500D02*
Y241500D01*
X598500Y240000D02*
X601500D01*
X600000Y238500D02*
Y241500D01*
X616500Y273706D02*
X651500D01*
X634000Y291206D02*
Y256206D01*
X570000Y298500D02*
Y301500D01*
X568500Y300000D02*
X571500D01*
X554500Y286800D02*
X544500D01*
X549500Y281800D02*
Y291800D01*
X493300Y286800D02*
X490300D01*
X491800Y285300D02*
Y288300D01*
X457700Y314000D02*
X454700D01*
X456200Y312500D02*
Y315500D01*
X453601Y350351D02*
Y353351D01*
X452101Y351851D02*
X455101D01*
X476650Y364000D02*
X479650D01*
X478150Y362500D02*
Y365500D01*
X492500Y364000D02*
X495500D01*
X494000Y362500D02*
Y365500D01*
X512500Y359000D02*
X515500D01*
X514000Y357500D02*
Y360500D01*
X532500Y364000D02*
X535500D01*
X534000Y362500D02*
Y365500D01*
X519000Y388500D02*
Y391500D01*
X517500Y390000D02*
X520500D01*
X489000Y448193D02*
Y455193D01*
X485500Y451693D02*
X492500D01*
X476000Y470779D02*
Y473778D01*
X474500Y472279D02*
X477500D01*
X443750Y451943D02*
X436750D01*
X440250Y448443D02*
Y455443D01*
X427700Y464500D02*
Y467500D01*
X426200Y466000D02*
X429200D01*
X406557D02*
X403557D01*
X405057Y464500D02*
Y467500D01*
X391500Y420000D02*
X388500D01*
X390000Y418500D02*
Y421500D01*
X357400Y389000D02*
X354400D01*
X355900Y387500D02*
Y390500D01*
X418500Y360000D02*
X421500D01*
X420000Y358500D02*
Y361500D01*
X429286Y368986D02*
X432286D01*
X430786Y367486D02*
Y370486D01*
X380900Y297860D02*
Y285360D01*
X374650Y291610D02*
X387150D01*
X362150D02*
X349650D01*
X331500Y300000D02*
X328500D01*
X330000Y298500D02*
Y301500D01*
X292850Y291610D02*
X275350D01*
X270000Y298500D02*
Y301500D01*
X268500Y300000D02*
X271500D01*
X284100Y300360D02*
Y282860D01*
X259000Y350351D02*
Y353351D01*
X257500Y351851D02*
X260500D01*
X284172Y380086D02*
Y390786D01*
X289522Y385436D02*
X278822D01*
X288221Y415436D02*
X298922D01*
X293571Y410086D02*
Y420786D01*
X318221Y415436D02*
X328922D01*
X323572Y410086D02*
Y420786D01*
X284172Y440086D02*
Y450786D01*
X289522Y445436D02*
X278822D01*
X271500Y420000D02*
X268500D01*
X270000Y418500D02*
Y421500D01*
X241500Y360000D02*
X238500D01*
X240000Y358500D02*
Y361500D01*
X274072Y481500D02*
Y516500D01*
X256572Y499000D02*
X291572D01*
X331500Y540000D02*
X328500D01*
X330000Y538500D02*
Y541500D01*
X358500Y600000D02*
X361500D01*
X360000Y598500D02*
Y601500D01*
X392750Y605250D02*
Y618050D01*
Y630150D02*
Y642150D01*
X386750Y636150D02*
X398750D01*
X399150Y611650D02*
X386350D01*
X417750Y605650D02*
Y617650D01*
X411750Y611650D02*
X423750D01*
X417750Y630150D02*
Y642150D01*
X411750Y636150D02*
X423750D01*
X442750Y630150D02*
Y642150D01*
X436750Y636150D02*
X448750D01*
Y611650D02*
X436750D01*
X442750Y617650D02*
Y605650D01*
X467750D02*
Y617650D01*
X461750Y611650D02*
X473750D01*
X467750Y630150D02*
Y642150D01*
X461750Y636150D02*
X473750D01*
X480250Y643250D02*
Y657050D01*
X473350Y650150D02*
X487150D01*
X492750Y642150D02*
Y630150D01*
Y617650D02*
Y605650D01*
X517750D02*
Y617650D01*
X511750Y611650D02*
X523750D01*
X517750Y630150D02*
Y642150D01*
X511750Y636150D02*
X523750D01*
X542750Y630150D02*
Y642150D01*
X536750Y636150D02*
X548750D01*
Y611650D02*
X536750D01*
X542750Y617650D02*
Y605650D01*
X567750D02*
Y617650D01*
X561750Y611650D02*
X573750D01*
X567750Y630150D02*
Y642150D01*
X561750Y636150D02*
X573750D01*
X598500Y600000D02*
X601500D01*
X600000Y598500D02*
Y601500D01*
X634000Y606500D02*
Y641500D01*
X616500Y624000D02*
X651500D01*
X631500Y540000D02*
X628500D01*
X630000Y538500D02*
Y541500D01*
X571557Y526000D02*
X568557D01*
X570057Y524500D02*
Y527500D01*
X547414Y526000D02*
X544414D01*
X545914Y524500D02*
Y527500D01*
X523771Y526000D02*
X520771D01*
X522271Y524500D02*
Y527500D01*
X500129Y526000D02*
X497128D01*
X498629Y524500D02*
Y527500D01*
X476486Y525786D02*
X473486D01*
X474986Y524286D02*
Y527286D01*
X452843Y526000D02*
X449843D01*
X451343Y524500D02*
Y527500D01*
X429200Y526000D02*
X426200D01*
X427700Y524500D02*
Y527500D01*
X390000Y538500D02*
Y541500D01*
X388500Y540000D02*
X391500D01*
X402557Y526500D02*
X405557D01*
X404057Y525000D02*
Y528000D01*
X386560Y514500D02*
X383560D01*
X385060Y513000D02*
Y516000D01*
X486750Y611650D02*
X498750D01*
Y636150D02*
X486750D01*
X598500Y480000D02*
X601500D01*
X600000Y478500D02*
Y481500D01*
X633900Y445200D02*
X644100D01*
X639000Y440100D02*
Y450300D01*
Y424900D02*
Y414700D01*
X644100Y419800D02*
X633900D01*
Y394400D02*
X644100D01*
X639000Y389300D02*
Y399500D01*
Y374100D02*
Y363900D01*
X644100Y369000D02*
X633900D01*
Y343600D02*
X644100D01*
X639000Y338500D02*
Y348700D01*
X355900Y297860D02*
Y285360D01*
X380900Y272860D02*
Y260360D01*
X361500Y240000D02*
X358500D01*
X360000Y238500D02*
Y241500D01*
X240000Y478500D02*
Y481500D01*
X238500Y480000D02*
X241500D01*
X268500Y540000D02*
X271500D01*
X270000Y538500D02*
Y541500D01*
X298500Y600000D02*
X301500D01*
X300000Y598500D02*
Y601500D01*
X324072Y642564D02*
X327071D01*
X325572Y641064D02*
Y644064D01*
X302071Y642564D02*
X299072D01*
X300571Y641064D02*
Y644064D01*
X277071Y642564D02*
X274072D01*
X275571Y641064D02*
Y644064D01*
X241500Y600000D02*
X238500D01*
X240000Y598500D02*
Y601500D01*
M02*
