G04*
G04 #@! TF.GenerationSoftware,Altium Limited,Altium Designer,19.1.8 (144)*
G04*
G04 Layer_Physical_Order=1*
G04 Layer_Color=255*
%FSLAX44Y44*%
%MOMM*%
G71*
G01*
G75*
%ADD10C,0.2000*%
%ADD14C,0.1000*%
%ADD17R,0.6187X3.9500*%
%ADD18C,0.0500*%
%ADD19R,1.5000X1.4000*%
%ADD20R,1.0000X1.8000*%
%ADD21R,1.3000X1.7000*%
%ADD22R,1.7000X0.9500*%
%ADD23O,0.7000X2.6000*%
%ADD40C,0.4000*%
%ADD41C,0.5000*%
%ADD42C,6.0000*%
%ADD43C,1.6200*%
%ADD44R,1.5200X1.5200*%
%ADD45C,1.5200*%
%ADD46C,1.6000*%
%ADD47C,1.7000*%
%ADD48C,1.3000*%
%ADD49C,1.2500*%
%ADD50C,0.8750*%
%ADD51C,1.8750*%
%ADD52C,0.5000*%
G36*
X674000Y230063D02*
X673500Y229000D01*
X234000D01*
Y669000D01*
X674000D01*
Y230063D01*
D02*
G37*
%LPC*%
G36*
X480250Y660781D02*
X477499Y660419D01*
X474935Y659357D01*
X472733Y657667D01*
X471043Y655465D01*
X469981Y652902D01*
X469619Y650150D01*
X469932Y647775D01*
X469084Y646605D01*
X469020Y646614D01*
Y637420D01*
X478214D01*
X478068Y638525D01*
X478916Y639695D01*
X480250Y639519D01*
X481584Y639695D01*
X482432Y638525D01*
X482286Y637420D01*
X491480D01*
Y646614D01*
X491416Y646605D01*
X490568Y647775D01*
X490881Y650150D01*
X490519Y652902D01*
X489457Y655465D01*
X487767Y657667D01*
X485565Y659357D01*
X483001Y660419D01*
X480250Y660781D01*
D02*
G37*
G36*
X569020Y647118D02*
Y637420D01*
X578718D01*
X578506Y639032D01*
X577393Y641718D01*
X575624Y644024D01*
X573318Y645793D01*
X570632Y646906D01*
X569020Y647118D01*
D02*
G37*
G36*
X566480D02*
X564868Y646906D01*
X562182Y645793D01*
X559876Y644024D01*
X558107Y641718D01*
X556994Y639032D01*
X556782Y637420D01*
X566480D01*
Y647118D01*
D02*
G37*
G36*
X544020D02*
Y637420D01*
X553718D01*
X553506Y639032D01*
X552393Y641718D01*
X550624Y644024D01*
X548318Y645793D01*
X545632Y646906D01*
X544020Y647118D01*
D02*
G37*
G36*
X541480D02*
X539868Y646906D01*
X537182Y645793D01*
X534876Y644024D01*
X533107Y641718D01*
X531994Y639032D01*
X531782Y637420D01*
X541480D01*
Y647118D01*
D02*
G37*
G36*
X519020D02*
Y637420D01*
X528718D01*
X528506Y639032D01*
X527393Y641718D01*
X525624Y644024D01*
X523318Y645793D01*
X520632Y646906D01*
X519020Y647118D01*
D02*
G37*
G36*
X516480D02*
X514868Y646906D01*
X512182Y645793D01*
X509876Y644024D01*
X508107Y641718D01*
X506994Y639032D01*
X506782Y637420D01*
X516480D01*
Y647118D01*
D02*
G37*
G36*
X494020Y646614D02*
Y637420D01*
X503214D01*
X503019Y638901D01*
X501957Y641466D01*
X500267Y643667D01*
X498065Y645357D01*
X495501Y646419D01*
X494020Y646614D01*
D02*
G37*
G36*
X466480D02*
X464999Y646419D01*
X462435Y645357D01*
X460233Y643667D01*
X458543Y641466D01*
X457481Y638901D01*
X457286Y637420D01*
X466480D01*
Y646614D01*
D02*
G37*
G36*
X444020Y647118D02*
Y637420D01*
X453718D01*
X453506Y639032D01*
X452393Y641718D01*
X450624Y644024D01*
X448318Y645793D01*
X445632Y646906D01*
X444020Y647118D01*
D02*
G37*
G36*
X441480D02*
X439868Y646906D01*
X437182Y645793D01*
X434876Y644024D01*
X433107Y641718D01*
X431994Y639032D01*
X431782Y637420D01*
X441480D01*
Y647118D01*
D02*
G37*
G36*
X419020D02*
Y637420D01*
X428718D01*
X428506Y639032D01*
X427393Y641718D01*
X425624Y644024D01*
X423318Y645793D01*
X420632Y646906D01*
X419020Y647118D01*
D02*
G37*
G36*
X416480D02*
X414868Y646906D01*
X412182Y645793D01*
X409876Y644024D01*
X408106Y641718D01*
X406994Y639032D01*
X406782Y637420D01*
X416480D01*
Y647118D01*
D02*
G37*
G36*
X394020D02*
Y637420D01*
X403718D01*
X403506Y639032D01*
X402393Y641718D01*
X400624Y644024D01*
X398318Y645793D01*
X395632Y646906D01*
X394020Y647118D01*
D02*
G37*
G36*
X391480D02*
X389868Y646906D01*
X387182Y645793D01*
X384876Y644024D01*
X383106Y641718D01*
X381994Y639032D01*
X381782Y637420D01*
X391480D01*
Y647118D01*
D02*
G37*
G36*
X503214Y634880D02*
X494020D01*
Y625686D01*
X495501Y625881D01*
X498065Y626943D01*
X500267Y628633D01*
X501957Y630835D01*
X503019Y633399D01*
X503214Y634880D01*
D02*
G37*
G36*
X491480D02*
X482286D01*
X482481Y633399D01*
X483543Y630835D01*
X485233Y628633D01*
X487435Y626943D01*
X489999Y625881D01*
X491480Y625686D01*
Y634880D01*
D02*
G37*
G36*
X478214D02*
X469020D01*
Y625686D01*
X470501Y625881D01*
X473065Y626943D01*
X475267Y628633D01*
X476957Y630835D01*
X478019Y633399D01*
X478214Y634880D01*
D02*
G37*
G36*
X466480D02*
X457286D01*
X457481Y633399D01*
X458543Y630835D01*
X460233Y628633D01*
X462435Y626943D01*
X464999Y625881D01*
X466480Y625686D01*
Y634880D01*
D02*
G37*
G36*
X635270Y656541D02*
Y625270D01*
X666541D01*
X666239Y629106D01*
X665043Y634086D01*
X663083Y638819D01*
X660407Y643186D01*
X657080Y647080D01*
X653186Y650407D01*
X648819Y653083D01*
X644087Y655043D01*
X639106Y656239D01*
X635270Y656541D01*
D02*
G37*
G36*
X632730D02*
X628894Y656239D01*
X623913Y655043D01*
X619182Y653083D01*
X614814Y650407D01*
X610920Y647080D01*
X607593Y643186D01*
X604917Y638819D01*
X602957Y634086D01*
X601761Y629106D01*
X601459Y625270D01*
X632730D01*
Y656541D01*
D02*
G37*
G36*
X428718Y634880D02*
X419020D01*
Y625182D01*
X420632Y625394D01*
X423318Y626507D01*
X425624Y628276D01*
X427393Y630582D01*
X428506Y633268D01*
X428718Y634880D01*
D02*
G37*
G36*
X416480D02*
X406782D01*
X406994Y633268D01*
X408106Y630582D01*
X409876Y628276D01*
X412182Y626507D01*
X414868Y625394D01*
X416480Y625182D01*
Y634880D01*
D02*
G37*
G36*
X403718D02*
X394020D01*
Y625182D01*
X395632Y625394D01*
X398318Y626507D01*
X400624Y628276D01*
X402393Y630582D01*
X403506Y633268D01*
X403718Y634880D01*
D02*
G37*
G36*
X391480D02*
X381782D01*
X381994Y633268D01*
X383106Y630582D01*
X384876Y628276D01*
X387182Y626507D01*
X389868Y625394D01*
X391480Y625182D01*
Y634880D01*
D02*
G37*
G36*
X578718D02*
X569020D01*
Y625182D01*
X570632Y625394D01*
X573318Y626507D01*
X575624Y628276D01*
X577393Y630582D01*
X578506Y633268D01*
X578718Y634880D01*
D02*
G37*
G36*
X566480D02*
X556782D01*
X556994Y633268D01*
X558107Y630582D01*
X559876Y628276D01*
X562182Y626507D01*
X564868Y625394D01*
X566480Y625182D01*
Y634880D01*
D02*
G37*
G36*
X553718D02*
X544020D01*
Y625182D01*
X545632Y625394D01*
X548318Y626507D01*
X550624Y628276D01*
X552393Y630582D01*
X553506Y633268D01*
X553718Y634880D01*
D02*
G37*
G36*
X541480D02*
X531782D01*
X531994Y633268D01*
X533107Y630582D01*
X534876Y628276D01*
X537182Y626507D01*
X539868Y625394D01*
X541480Y625182D01*
Y634880D01*
D02*
G37*
G36*
X528718D02*
X519020D01*
Y625182D01*
X520632Y625394D01*
X523318Y626507D01*
X525624Y628276D01*
X527393Y630582D01*
X528506Y633268D01*
X528718Y634880D01*
D02*
G37*
G36*
X516480D02*
X506782D01*
X506994Y633268D01*
X508107Y630582D01*
X509876Y628276D01*
X512182Y626507D01*
X514868Y625394D01*
X516480Y625182D01*
Y634880D01*
D02*
G37*
G36*
X453718D02*
X444020D01*
Y625182D01*
X445632Y625394D01*
X448318Y626507D01*
X450624Y628276D01*
X452393Y630582D01*
X453506Y633268D01*
X453718Y634880D01*
D02*
G37*
G36*
X441480D02*
X431782D01*
X431994Y633268D01*
X433107Y630582D01*
X434876Y628276D01*
X437182Y626507D01*
X439868Y625394D01*
X441480Y625182D01*
Y634880D01*
D02*
G37*
G36*
X325572Y647703D02*
X323605Y647312D01*
X321938Y646198D01*
X320824Y644530D01*
X320433Y642564D01*
X320824Y640598D01*
X320943Y640420D01*
Y627662D01*
X320920Y627407D01*
X320870Y627104D01*
X315532D01*
Y608024D01*
X335611D01*
Y627104D01*
X330273D01*
X330223Y627407D01*
X330201Y627662D01*
Y640420D01*
X330319Y640598D01*
X330710Y642564D01*
X330319Y644530D01*
X329205Y646198D01*
X327538Y647312D01*
X325572Y647703D01*
D02*
G37*
G36*
X300571D02*
X298605Y647312D01*
X296938Y646198D01*
X295824Y644530D01*
X295433Y642564D01*
X295824Y640598D01*
X295943Y640420D01*
Y627662D01*
X295920Y627407D01*
X295870Y627104D01*
X290532D01*
Y608024D01*
X310611D01*
Y627104D01*
X305273D01*
X305223Y627407D01*
X305201Y627662D01*
Y640420D01*
X305319Y640598D01*
X305710Y642564D01*
X305319Y644530D01*
X304205Y646198D01*
X302538Y647312D01*
X300571Y647703D01*
D02*
G37*
G36*
X275571D02*
X273605Y647312D01*
X271938Y646198D01*
X270824Y644530D01*
X270433Y642564D01*
X270824Y640598D01*
X270943Y640420D01*
Y627662D01*
X270920Y627407D01*
X270870Y627104D01*
X265532D01*
Y608024D01*
X285611D01*
Y627104D01*
X280273D01*
X280223Y627407D01*
X280201Y627662D01*
Y640420D01*
X280319Y640598D01*
X280710Y642564D01*
X280319Y644530D01*
X279205Y646198D01*
X277538Y647312D01*
X275571Y647703D01*
D02*
G37*
G36*
X666541Y622730D02*
X635270D01*
Y591459D01*
X639106Y591761D01*
X644087Y592957D01*
X648819Y594917D01*
X653186Y597593D01*
X657080Y600920D01*
X660407Y604814D01*
X663083Y609182D01*
X665043Y613913D01*
X666239Y618894D01*
X666541Y622730D01*
D02*
G37*
G36*
X632730D02*
X601459D01*
X601761Y618894D01*
X602957Y613913D01*
X604917Y609182D01*
X607593Y604814D01*
X610920Y600920D01*
X614814Y597593D01*
X619182Y594917D01*
X623913Y592957D01*
X628894Y591761D01*
X632730Y591459D01*
Y622730D01*
D02*
G37*
G36*
X417750Y622785D02*
X414868Y622406D01*
X412182Y621293D01*
X409876Y619524D01*
X408106Y617218D01*
X406994Y614532D01*
X406615Y611650D01*
X406994Y608768D01*
X408106Y606082D01*
X409876Y603776D01*
X412182Y602007D01*
X414868Y600894D01*
X417750Y600515D01*
X418074Y600557D01*
X418813Y600548D01*
X419690Y600493D01*
X420488Y600399D01*
X421207Y600268D01*
X421846Y600104D01*
X422407Y599912D01*
X422891Y599698D01*
X423071Y599597D01*
Y572348D01*
X423049Y572093D01*
X422999Y571790D01*
X416660D01*
Y557210D01*
X438740D01*
Y571790D01*
X432401D01*
X432351Y572093D01*
X432329Y572348D01*
Y601700D01*
X432329Y601700D01*
X431977Y603471D01*
X430973Y604973D01*
X430973Y604973D01*
X430140Y605806D01*
X429934Y606096D01*
X429702Y606509D01*
X429487Y606993D01*
X429296Y607553D01*
X429132Y608193D01*
X429008Y608875D01*
X428852Y610622D01*
X428843Y611326D01*
X428885Y611650D01*
X428506Y614532D01*
X427393Y617218D01*
X425624Y619524D01*
X423318Y621293D01*
X420632Y622406D01*
X417750Y622785D01*
D02*
G37*
G36*
X392750D02*
X389868Y622406D01*
X387182Y621293D01*
X384876Y619524D01*
X383106Y617218D01*
X381994Y614532D01*
X381615Y611650D01*
X381994Y608768D01*
X383106Y606082D01*
X384876Y603776D01*
X387182Y602007D01*
X389868Y600894D01*
X392750Y600515D01*
X393074Y600557D01*
X393813Y600548D01*
X394690Y600493D01*
X395488Y600399D01*
X396207Y600268D01*
X396846Y600104D01*
X397407Y599912D01*
X397891Y599698D01*
X398304Y599466D01*
X398594Y599260D01*
X399428Y598425D01*
Y572348D01*
X399406Y572093D01*
X399356Y571790D01*
X393017D01*
Y557210D01*
X415097D01*
Y571790D01*
X408759D01*
X408708Y572093D01*
X408686Y572348D01*
Y600343D01*
X408686Y600343D01*
X408334Y602114D01*
X407330Y603616D01*
X407330Y603616D01*
X405140Y605806D01*
X404934Y606096D01*
X404702Y606509D01*
X404487Y606993D01*
X404296Y607553D01*
X404132Y608193D01*
X404008Y608875D01*
X403852Y610622D01*
X403843Y611326D01*
X403885Y611650D01*
X403506Y614532D01*
X402393Y617218D01*
X400624Y619524D01*
X398318Y621293D01*
X395632Y622406D01*
X392750Y622785D01*
D02*
G37*
G36*
X567750D02*
X564868Y622406D01*
X562182Y621293D01*
X559876Y619524D01*
X558107Y617218D01*
X556994Y614532D01*
X556615Y611650D01*
X556994Y608768D01*
X558107Y606082D01*
X559876Y603776D01*
X561739Y602347D01*
X561780Y602305D01*
X561884Y602235D01*
X562182Y602007D01*
X562290Y601962D01*
X562529Y601801D01*
X563115Y601345D01*
X563607Y600897D01*
X564008Y600461D01*
X564325Y600042D01*
X564567Y599638D01*
X564744Y599247D01*
X564866Y598861D01*
X564928Y598520D01*
Y572348D01*
X564906Y572093D01*
X564856Y571790D01*
X558517D01*
Y557210D01*
X580597D01*
Y571790D01*
X574258D01*
X574208Y572093D01*
X574186Y572348D01*
Y599422D01*
X574235Y599748D01*
X574354Y600258D01*
X574534Y600838D01*
X574779Y601484D01*
X575069Y602143D01*
X576459Y604681D01*
X577039Y605593D01*
X577061Y605649D01*
X577393Y606082D01*
X578506Y608768D01*
X578885Y611650D01*
X578506Y614532D01*
X577393Y617218D01*
X575624Y619524D01*
X573318Y621293D01*
X570632Y622406D01*
X567750Y622785D01*
D02*
G37*
G36*
X542750D02*
X539868Y622406D01*
X537182Y621293D01*
X534876Y619524D01*
X533107Y617218D01*
X531994Y614532D01*
X531615Y611650D01*
X531994Y608768D01*
X533107Y606082D01*
X534876Y603776D01*
X537182Y602007D01*
X538237Y601570D01*
X538403Y601449D01*
X539144Y601107D01*
X539692Y600796D01*
X540139Y600482D01*
X540490Y600172D01*
X540760Y599869D01*
X540963Y599569D01*
X541115Y599263D01*
X541224Y598932D01*
X541285Y598608D01*
Y572348D01*
X541263Y572093D01*
X541213Y571790D01*
X534874D01*
Y557210D01*
X556954D01*
Y571790D01*
X550616D01*
X550565Y572093D01*
X550543Y572348D01*
Y600195D01*
X550688Y601073D01*
X550815Y601584D01*
X552445Y606124D01*
X552911Y607208D01*
X552912Y607211D01*
X552913Y607213D01*
X552967Y607467D01*
X553506Y608768D01*
X553885Y611650D01*
X553506Y614532D01*
X552393Y617218D01*
X550624Y619524D01*
X548318Y621293D01*
X545632Y622406D01*
X542750Y622785D01*
D02*
G37*
G36*
X517750D02*
X514868Y622406D01*
X512182Y621293D01*
X509876Y619524D01*
X508107Y617218D01*
X506994Y614532D01*
X506615Y611650D01*
X506994Y608768D01*
X508107Y606082D01*
X509876Y603776D01*
X512182Y602007D01*
X514868Y600894D01*
X515286Y600839D01*
X515969Y600657D01*
X516436Y600480D01*
X516792Y600294D01*
X517052Y600109D01*
X517239Y599928D01*
X517379Y599741D01*
X517492Y599524D01*
X517585Y599247D01*
X517642Y598937D01*
Y572348D01*
X517620Y572093D01*
X517570Y571790D01*
X511231D01*
Y557210D01*
X533311D01*
Y571790D01*
X526973D01*
X526923Y572093D01*
X526900Y572348D01*
Y601779D01*
X526987Y602655D01*
X527074Y603215D01*
X528084Y607484D01*
X528353Y608400D01*
X528506Y608768D01*
X528885Y611650D01*
X528506Y614532D01*
X527393Y617218D01*
X525624Y619524D01*
X523318Y621293D01*
X520632Y622406D01*
X517750Y622785D01*
D02*
G37*
G36*
X492750D02*
X489868Y622406D01*
X487182Y621293D01*
X484876Y619524D01*
X483107Y617218D01*
X481994Y614532D01*
X481615Y611650D01*
X481994Y608768D01*
X483107Y606082D01*
X484876Y603776D01*
X487182Y602007D01*
X489868Y600894D01*
X492750Y600515D01*
X492921Y600537D01*
X493073Y600527D01*
X493397Y600464D01*
X493596Y600393D01*
X493699Y600335D01*
X493753Y600288D01*
X493803Y600224D01*
X493871Y600093D01*
X493947Y599855D01*
X494000Y599547D01*
Y572348D01*
X493977Y572093D01*
X493927Y571790D01*
X487589D01*
Y557210D01*
X509669D01*
Y571790D01*
X503330D01*
X503280Y572093D01*
X503257Y572348D01*
Y603439D01*
X503395Y607055D01*
X503608Y609289D01*
X503694Y609860D01*
X503690Y609939D01*
X503712Y610014D01*
X503693Y610191D01*
X503885Y611650D01*
X503506Y614532D01*
X502393Y617218D01*
X500624Y619524D01*
X498318Y621293D01*
X495632Y622406D01*
X492750Y622785D01*
D02*
G37*
G36*
X467750D02*
X464868Y622406D01*
X462182Y621293D01*
X459876Y619524D01*
X458107Y617218D01*
X456994Y614532D01*
X456615Y611650D01*
X456994Y608768D01*
X458107Y606082D01*
X459876Y603776D01*
X462182Y602007D01*
X464868Y600894D01*
X467750Y600515D01*
X469402Y600732D01*
X470357Y599895D01*
Y572348D01*
X470334Y572093D01*
X470284Y571790D01*
X463946D01*
Y557210D01*
X486026D01*
Y571790D01*
X479687D01*
X479637Y572093D01*
X479615Y572348D01*
Y604414D01*
X479615Y604414D01*
X479262Y606186D01*
X478259Y607687D01*
X478117Y607829D01*
X478506Y608768D01*
X478885Y611650D01*
X478506Y614532D01*
X477393Y617218D01*
X475624Y619524D01*
X473318Y621293D01*
X470632Y622406D01*
X467750Y622785D01*
D02*
G37*
G36*
X442750D02*
X439868Y622406D01*
X437182Y621293D01*
X434876Y619524D01*
X433107Y617218D01*
X431994Y614532D01*
X431615Y611650D01*
X431994Y608768D01*
X433107Y606082D01*
X434876Y603776D01*
X437182Y602007D01*
X439868Y600894D01*
X442750Y600515D01*
X445464Y600872D01*
X445967Y600682D01*
X446299Y600471D01*
X446714Y600037D01*
Y572348D01*
X446692Y572093D01*
X446641Y571790D01*
X440303D01*
Y557210D01*
X462383D01*
Y571790D01*
X456044D01*
X455994Y572093D01*
X455972Y572348D01*
Y603057D01*
X455972Y603057D01*
X455619Y604829D01*
X454616Y606330D01*
X454616Y606330D01*
X454127Y606819D01*
X453980Y607002D01*
X453771Y607310D01*
X453620Y607585D01*
X453518Y607827D01*
X453455Y608039D01*
X453423Y608229D01*
X453414Y608409D01*
X453428Y608581D01*
X453506Y608768D01*
X453885Y611650D01*
X453506Y614532D01*
X452393Y617218D01*
X450624Y619524D01*
X448318Y621293D01*
X445632Y622406D01*
X442750Y622785D01*
D02*
G37*
G36*
X438740Y544790D02*
X416660D01*
Y530210D01*
X422996D01*
X423049Y529893D01*
X423071Y529644D01*
Y528144D01*
X422952Y527966D01*
X422561Y526000D01*
X422952Y524034D01*
X423603Y523060D01*
X422924Y521790D01*
X416867D01*
X416660Y521790D01*
X415597D01*
X415390Y521790D01*
X408192D01*
X407820Y523060D01*
X408805Y524534D01*
X409196Y526500D01*
X408805Y528466D01*
X408686Y528644D01*
Y529644D01*
X408708Y529893D01*
X408761Y530210D01*
X415097D01*
Y544790D01*
X393017D01*
Y530210D01*
X399353D01*
X399406Y529893D01*
X399428Y529644D01*
Y528644D01*
X399310Y528466D01*
X398918Y526500D01*
X399310Y524534D01*
X400294Y523060D01*
X399922Y521790D01*
X393517D01*
Y517182D01*
X393638Y517200D01*
X394288Y517355D01*
X394838Y517555D01*
X395288Y517799D01*
X395638Y518088D01*
X395888Y518420D01*
X396038Y518798D01*
X396088Y519220D01*
Y515770D01*
X404557D01*
Y514500D01*
X405827D01*
Y507210D01*
X415390D01*
X415597Y507210D01*
X416660D01*
X416867Y507210D01*
X426430D01*
Y514500D01*
X427700D01*
Y515770D01*
X438740D01*
Y521790D01*
X432476D01*
X431797Y523060D01*
X432448Y524034D01*
X432839Y526000D01*
X432448Y527966D01*
X432329Y528144D01*
Y529644D01*
X432351Y529893D01*
X432404Y530210D01*
X438740D01*
Y544790D01*
D02*
G37*
G36*
X462383Y544790D02*
X440303D01*
Y530210D01*
X446639D01*
X446692Y529893D01*
X446714Y529644D01*
Y528144D01*
X446595Y527966D01*
X446204Y526000D01*
X446595Y524034D01*
X447709Y522366D01*
X449376Y521252D01*
X451343Y520861D01*
X453309Y521252D01*
X454976Y522366D01*
X456090Y524034D01*
X456482Y526000D01*
X456090Y527966D01*
X455972Y528144D01*
Y529644D01*
X455994Y529893D01*
X456047Y530210D01*
X462383D01*
Y544790D01*
D02*
G37*
G36*
X386330Y519386D02*
Y515770D01*
X389946D01*
X389808Y516466D01*
X388694Y518134D01*
X387026Y519248D01*
X386330Y519386D01*
D02*
G37*
G36*
X383790D02*
X383093Y519248D01*
X381426Y518134D01*
X380312Y516466D01*
X380174Y515770D01*
X383790D01*
Y519386D01*
D02*
G37*
G36*
X403287Y513230D02*
X396088D01*
Y509781D01*
X396038Y510202D01*
X395888Y510579D01*
X395638Y510912D01*
X395288Y511201D01*
X394838Y511445D01*
X394288Y511645D01*
X393638Y511800D01*
X393517Y511818D01*
Y507210D01*
X403287D01*
Y513230D01*
D02*
G37*
G36*
X389946D02*
X386330D01*
Y509614D01*
X387026Y509752D01*
X388694Y510866D01*
X389808Y512533D01*
X389946Y513230D01*
D02*
G37*
G36*
X383790D02*
X380174D01*
X380312Y512533D01*
X381426Y510866D01*
X383093Y509752D01*
X383790Y509614D01*
Y513230D01*
D02*
G37*
G36*
X438740D02*
X428970D01*
Y507210D01*
X438740D01*
Y513230D01*
D02*
G37*
G36*
X275341Y531541D02*
Y500270D01*
X306612D01*
X306310Y504106D01*
X305115Y509086D01*
X303155Y513819D01*
X300478Y518186D01*
X297152Y522080D01*
X293257Y525407D01*
X288890Y528083D01*
X284158Y530043D01*
X279178Y531239D01*
X275341Y531541D01*
D02*
G37*
G36*
X272801D02*
X268965Y531239D01*
X263985Y530043D01*
X259253Y528083D01*
X254886Y525407D01*
X250991Y522080D01*
X247665Y518186D01*
X244988Y513819D01*
X243028Y509086D01*
X241833Y504106D01*
X241531Y500270D01*
X272801D01*
Y531541D01*
D02*
G37*
G36*
X486026Y544790D02*
X463946D01*
Y530210D01*
X470282D01*
X470335Y529893D01*
X470357Y529644D01*
Y527930D01*
X470238Y527752D01*
X469847Y525786D01*
X470238Y523819D01*
X470357Y523642D01*
Y473293D01*
X470357Y473293D01*
X470709Y471521D01*
X471140Y470876D01*
X471252Y470312D01*
X472366Y468645D01*
X474034Y467531D01*
X476000Y467140D01*
X477966Y467531D01*
X479634Y468645D01*
X480748Y470312D01*
X481139Y472279D01*
X480748Y474245D01*
X479634Y475912D01*
X479615Y475925D01*
Y523642D01*
X479733Y523819D01*
X480124Y525786D01*
X479733Y527752D01*
X479615Y527930D01*
Y529644D01*
X479637Y529893D01*
X479689Y530210D01*
X486026D01*
Y544790D01*
D02*
G37*
G36*
X306612Y497730D02*
X275341D01*
Y466459D01*
X279178Y466761D01*
X284158Y467957D01*
X288890Y469917D01*
X293257Y472593D01*
X297152Y475920D01*
X300478Y479814D01*
X303155Y484182D01*
X305115Y488913D01*
X306310Y493894D01*
X306612Y497730D01*
D02*
G37*
G36*
X272801D02*
X241531D01*
X241833Y493894D01*
X243028Y488913D01*
X244988Y484182D01*
X247665Y479814D01*
X250991Y475920D01*
X254886Y472593D01*
X259253Y469917D01*
X263985Y467957D01*
X268965Y466761D01*
X272801Y466459D01*
Y497730D01*
D02*
G37*
G36*
X416660Y494790D02*
X415597D01*
X415390Y494790D01*
X393517D01*
Y480210D01*
X400353D01*
X400406Y479893D01*
X400428Y479644D01*
Y468144D01*
X400309Y467966D01*
X399918Y466000D01*
X400309Y464034D01*
X401423Y462366D01*
X403091Y461252D01*
X405057Y460861D01*
X407024Y461252D01*
X408691Y462366D01*
X409805Y464034D01*
X410196Y466000D01*
X409805Y467966D01*
X409686Y468144D01*
Y478971D01*
X410722Y480210D01*
X415390D01*
X415597Y480210D01*
X416660D01*
X416867Y480210D01*
X422996D01*
X423049Y479893D01*
X423071Y479644D01*
Y468144D01*
X422952Y467966D01*
X422561Y466000D01*
X422952Y464034D01*
X424066Y462366D01*
X425733Y461252D01*
X427700Y460861D01*
X429666Y461252D01*
X431334Y462366D01*
X432448Y464034D01*
X432839Y466000D01*
X432448Y467966D01*
X432329Y468144D01*
Y479644D01*
X432351Y479893D01*
X432404Y480210D01*
X438740D01*
Y494790D01*
X416867D01*
X416660Y494790D01*
D02*
G37*
G36*
X335611Y597104D02*
X315532D01*
Y578024D01*
X320868D01*
X320921Y577707D01*
X320943Y577458D01*
Y557564D01*
X320943Y557564D01*
X321295Y555793D01*
X322298Y554291D01*
X364371Y512218D01*
Y479000D01*
X364371Y479000D01*
X364723Y477229D01*
X365727Y475727D01*
X390727Y450727D01*
X390727Y450727D01*
X391966Y449899D01*
X391716Y448629D01*
X388289D01*
X353629Y483289D01*
Y509136D01*
X353629Y509136D01*
X353277Y510907D01*
X352273Y512409D01*
X352273Y512409D01*
X305201Y559481D01*
Y576714D01*
X305572Y577935D01*
X306019Y578024D01*
X310611D01*
Y597104D01*
X290532D01*
Y578024D01*
X295868D01*
X295921Y577707D01*
X295943Y577458D01*
Y557564D01*
X295943Y557564D01*
X296295Y555793D01*
X297298Y554291D01*
X344371Y507218D01*
Y481372D01*
X344371Y481371D01*
X344723Y479600D01*
X345727Y478098D01*
X383098Y440727D01*
X383098Y440727D01*
X384600Y439723D01*
X386371Y439371D01*
X386372Y439371D01*
X400913D01*
X401592Y438101D01*
X400760Y436857D01*
X400292Y434500D01*
Y433687D01*
X400077Y433651D01*
X399822Y433629D01*
X382917D01*
X330201Y486346D01*
Y507428D01*
X330201Y507429D01*
X329848Y509200D01*
X328845Y510702D01*
X328845Y510702D01*
X285201Y554346D01*
Y578024D01*
X285611D01*
Y580498D01*
X285631Y580594D01*
X285623Y580632D01*
X285630Y580669D01*
X285611Y580749D01*
Y597104D01*
X265532D01*
Y578024D01*
X275868D01*
X275921Y577707D01*
X275943Y577458D01*
Y552429D01*
X275943Y552429D01*
X276295Y550657D01*
X277298Y549155D01*
X320943Y505511D01*
Y484429D01*
X320942Y484428D01*
X321295Y482657D01*
X322298Y481155D01*
X377727Y425727D01*
X377727Y425727D01*
X379229Y424723D01*
X381000Y424371D01*
X381000Y424371D01*
X399822D01*
X400077Y424349D01*
X400292Y424313D01*
Y415500D01*
X400760Y413143D01*
X402095Y411145D01*
X404093Y409810D01*
X406450Y409342D01*
X408807Y409810D01*
X410805Y411145D01*
X412140Y413143D01*
X412153Y413209D01*
X413447D01*
X413461Y413143D01*
X414795Y411145D01*
X416793Y409810D01*
X419150Y409342D01*
X421507Y409810D01*
X423505Y411145D01*
X424840Y413143D01*
X424853Y413209D01*
X426147D01*
X426161Y413143D01*
X427495Y411145D01*
X429493Y409810D01*
X431850Y409342D01*
X434207Y409810D01*
X436205Y411145D01*
X437540Y413143D01*
X437553Y413209D01*
X438848D01*
X438861Y413143D01*
X440195Y411145D01*
X441984Y409950D01*
X441790Y412948D01*
X441710Y413301D01*
X441620Y413569D01*
X441519Y413750D01*
X443280D01*
Y425000D01*
Y440406D01*
X442193Y440190D01*
X440195Y438855D01*
X438861Y436857D01*
X438848Y436791D01*
X437553D01*
X437540Y436857D01*
X436862Y437871D01*
X436851Y438136D01*
X436819Y438206D01*
X436811Y438282D01*
X436730Y438550D01*
X436576Y438837D01*
X436465Y439142D01*
X436220Y439544D01*
X436129Y439643D01*
X436127Y439657D01*
X435123Y441159D01*
X435123Y441159D01*
X419009Y457273D01*
X417507Y458277D01*
X415736Y458629D01*
X415736Y458629D01*
X395917D01*
X373629Y480917D01*
Y514135D01*
X373629Y514136D01*
X373277Y515907D01*
X372273Y517409D01*
X372273Y517409D01*
X330201Y559481D01*
Y577458D01*
X330223Y577707D01*
X330275Y578024D01*
X335611D01*
Y597104D01*
D02*
G37*
G36*
X580597Y544790D02*
X558517D01*
Y530210D01*
X565353D01*
X565406Y529893D01*
X565428Y529644D01*
Y528144D01*
X565310Y527966D01*
X564918Y526000D01*
X565310Y524034D01*
X565428Y523856D01*
Y462617D01*
X555577Y452766D01*
X554573Y451264D01*
X554221Y449493D01*
X554221Y449493D01*
Y440088D01*
X554118Y439081D01*
X554054Y438711D01*
X553977Y438384D01*
X553900Y438132D01*
X553830Y437956D01*
X553780Y437859D01*
X553667Y437690D01*
X553585Y437492D01*
X553161Y436857D01*
X553148Y436791D01*
X551853D01*
X551840Y436857D01*
X551404Y437508D01*
X551314Y437718D01*
X551145Y437963D01*
X551046Y438142D01*
X550944Y438373D01*
X550843Y438659D01*
X550750Y439000D01*
X550667Y439398D01*
X550603Y439821D01*
X550543Y440579D01*
Y523856D01*
X550662Y524034D01*
X551053Y526000D01*
X550662Y527966D01*
X550543Y528144D01*
Y529644D01*
X550565Y529893D01*
X550618Y530210D01*
X556954D01*
Y544790D01*
X534874D01*
Y530210D01*
X541211D01*
X541263Y529893D01*
X541285Y529644D01*
Y528144D01*
X541167Y527966D01*
X540775Y526000D01*
X541167Y524034D01*
X541285Y523856D01*
Y439686D01*
X541262Y439320D01*
X541154Y438385D01*
X541099Y438093D01*
X541041Y437866D01*
X540998Y437742D01*
X540994Y437733D01*
X540939Y437648D01*
X540869Y437468D01*
X540461Y436857D01*
X540448Y436791D01*
X539153D01*
X539140Y436857D01*
X538715Y437492D01*
X538633Y437690D01*
X538520Y437859D01*
X538470Y437956D01*
X538400Y438132D01*
X538323Y438384D01*
X538246Y438711D01*
X538186Y439055D01*
X538079Y440367D01*
Y449493D01*
X538079Y449493D01*
X537727Y451264D01*
X536723Y452766D01*
X526900Y462589D01*
Y523856D01*
X527019Y524034D01*
X527410Y526000D01*
X527019Y527966D01*
X526900Y528144D01*
Y529644D01*
X526922Y529893D01*
X526975Y530210D01*
X533311D01*
Y544790D01*
X511231D01*
Y530210D01*
X517568D01*
X517620Y529893D01*
X517642Y529644D01*
Y528144D01*
X517524Y527966D01*
X517133Y526000D01*
X517524Y524034D01*
X517642Y523856D01*
Y460672D01*
X517642Y460672D01*
X517995Y458900D01*
X518998Y457398D01*
X528821Y447575D01*
Y440088D01*
X528718Y439081D01*
X528654Y438711D01*
X528577Y438384D01*
X528500Y438132D01*
X528430Y437956D01*
X528380Y437859D01*
X528267Y437690D01*
X528185Y437492D01*
X527761Y436857D01*
X527747Y436791D01*
X526453D01*
X526440Y436857D01*
X525379Y438444D01*
Y439250D01*
X525379Y439250D01*
X525027Y441021D01*
X524023Y442523D01*
X503257Y463289D01*
Y523856D01*
X503376Y524034D01*
X503767Y526000D01*
X503376Y527966D01*
X503257Y528144D01*
Y529644D01*
X503279Y529893D01*
X503332Y530210D01*
X509669D01*
Y544790D01*
X487589D01*
Y530210D01*
X493925D01*
X493978Y529893D01*
X494000Y529644D01*
Y528144D01*
X493881Y527966D01*
X493490Y526000D01*
X493881Y524034D01*
X494000Y523856D01*
Y461372D01*
X493999Y461371D01*
X494139Y460668D01*
X493014Y459815D01*
X491360Y460500D01*
X489000Y460811D01*
X486640Y460500D01*
X484441Y459589D01*
X482553Y458140D01*
X481922Y457318D01*
X481871Y457285D01*
X479726Y455171D01*
X479420Y454966D01*
X479420Y454966D01*
X466677Y442223D01*
X465673Y440721D01*
X465321Y438950D01*
X465321Y438950D01*
Y438444D01*
X464260Y436857D01*
X464248Y436791D01*
X462953D01*
X462940Y436857D01*
X461879Y438444D01*
Y438950D01*
X461879Y438950D01*
X461527Y440721D01*
X460523Y442223D01*
X460523Y442223D01*
X450793Y451953D01*
X450733Y452019D01*
X450480Y452335D01*
X449883Y453179D01*
X449638Y453568D01*
X448784Y455149D01*
X448523Y455708D01*
X448519Y455713D01*
X448517Y455720D01*
X448411Y455864D01*
X448146Y456502D01*
X446697Y458390D01*
X444809Y459839D01*
X442610Y460750D01*
X440250Y461061D01*
X437890Y460750D01*
X435691Y459839D01*
X433803Y458390D01*
X432354Y456502D01*
X431443Y454303D01*
X431132Y451943D01*
X431443Y449583D01*
X432354Y447384D01*
X433803Y445495D01*
X435691Y444047D01*
X437890Y443136D01*
X440250Y442825D01*
X442610Y443136D01*
X443986Y443706D01*
X444174Y443746D01*
X444584Y443924D01*
X444823Y443998D01*
X445015Y444031D01*
X445169Y444036D01*
X445307Y444022D01*
X445449Y443985D01*
X445615Y443918D01*
X445815Y443803D01*
X445949Y443705D01*
X451624Y438030D01*
X451332Y437380D01*
X449919Y437336D01*
X448905Y438855D01*
X446907Y440190D01*
X445820Y440406D01*
Y425000D01*
Y413750D01*
X447581D01*
X447480Y413569D01*
X447390Y413301D01*
X447310Y412948D01*
X447241Y412508D01*
X447135Y411369D01*
X447086Y409930D01*
X448905Y411145D01*
X450240Y413143D01*
X450253Y413209D01*
X451548D01*
X451561Y413143D01*
X452895Y411145D01*
X454893Y409810D01*
X457250Y409342D01*
X459607Y409810D01*
X461605Y411145D01*
X462940Y413143D01*
X462953Y413209D01*
X464248D01*
X464260Y413143D01*
X465595Y411145D01*
X467593Y409810D01*
X469950Y409342D01*
X472307Y409810D01*
X474305Y411145D01*
X475640Y413143D01*
X475653Y413209D01*
X476948D01*
X476960Y413143D01*
X478295Y411145D01*
X480084Y409950D01*
X479890Y412948D01*
X479810Y413301D01*
X479720Y413569D01*
X479619Y413750D01*
X481380D01*
Y425000D01*
Y440406D01*
X480293Y440190D01*
X478295Y438855D01*
X477281Y437337D01*
X475868Y437380D01*
X475576Y438030D01*
X481833Y444286D01*
X482844Y445012D01*
X482886Y444990D01*
X484441Y443797D01*
X486640Y442886D01*
X489000Y442575D01*
X491360Y442886D01*
X493559Y443797D01*
X495447Y445246D01*
X496896Y447134D01*
X497807Y449333D01*
X498118Y451693D01*
X497838Y453820D01*
X498391Y454262D01*
X498981Y454473D01*
X515636Y437817D01*
X514991Y436791D01*
X513753D01*
X513740Y436857D01*
X512405Y438855D01*
X510407Y440190D01*
X509320Y440406D01*
Y425000D01*
Y413750D01*
X511081D01*
X510980Y413569D01*
X510890Y413301D01*
X510810Y412948D01*
X510741Y412508D01*
X510635Y411369D01*
X510586Y409930D01*
X512405Y411145D01*
X513740Y413143D01*
X513753Y413209D01*
X515047D01*
X515061Y413143D01*
X516395Y411145D01*
X518393Y409810D01*
X520750Y409342D01*
X523107Y409810D01*
X525105Y411145D01*
X526440Y413143D01*
X526453Y413209D01*
X527747D01*
X527761Y413143D01*
X529095Y411145D01*
X531093Y409810D01*
X533450Y409342D01*
X535807Y409810D01*
X537805Y411145D01*
X539140Y413143D01*
X539153Y413209D01*
X540448D01*
X540461Y413143D01*
X541795Y411145D01*
X543793Y409810D01*
X546150Y409342D01*
X548507Y409810D01*
X550505Y411145D01*
X551840Y413143D01*
X551853Y413209D01*
X553148D01*
X553161Y413143D01*
X554495Y411145D01*
X556493Y409810D01*
X558850Y409342D01*
X561207Y409810D01*
X563205Y411145D01*
X564540Y413143D01*
X564553Y413209D01*
X565848D01*
X565860Y413143D01*
X567195Y411145D01*
X569193Y409810D01*
X571550Y409342D01*
X573907Y409810D01*
X575905Y411145D01*
X577240Y413143D01*
X577708Y415500D01*
Y420313D01*
X577923Y420349D01*
X578178Y420371D01*
X614600D01*
X614600Y420371D01*
X616371Y420723D01*
X617873Y421727D01*
X630891Y434745D01*
X630970Y434805D01*
X631109Y434897D01*
X631222Y434961D01*
X631310Y435002D01*
X631372Y435024D01*
X631409Y435034D01*
X631426Y435037D01*
X631567Y435044D01*
X631629Y435060D01*
X649140D01*
Y455340D01*
X628860D01*
Y447348D01*
X628852Y447194D01*
X628803Y446882D01*
X628720Y446555D01*
X628596Y446207D01*
X628428Y445837D01*
X628209Y445443D01*
X627937Y445027D01*
X627607Y444590D01*
X627398Y444344D01*
X612683Y429629D01*
X578178D01*
X577923Y429651D01*
X577708Y429687D01*
Y434500D01*
X577240Y436857D01*
X575905Y438855D01*
X573907Y440190D01*
X571550Y440658D01*
X569193Y440190D01*
X567195Y438855D01*
X565860Y436857D01*
X565848Y436791D01*
X564553D01*
X564540Y436857D01*
X564115Y437492D01*
X564033Y437690D01*
X563920Y437859D01*
X563870Y437956D01*
X563800Y438132D01*
X563723Y438384D01*
X563646Y438711D01*
X563587Y439055D01*
X563479Y440367D01*
Y447575D01*
X573330Y457427D01*
X573330Y457427D01*
X574334Y458929D01*
X574686Y460700D01*
Y523856D01*
X574805Y524034D01*
X575196Y526000D01*
X574805Y527966D01*
X574686Y528144D01*
Y529644D01*
X574708Y529893D01*
X574761Y530210D01*
X580597D01*
Y544790D01*
D02*
G37*
G36*
X506780Y440406D02*
X505693Y440190D01*
X503695Y438855D01*
X502360Y436857D01*
X502347Y436791D01*
X501053D01*
X501040Y436857D01*
X499705Y438855D01*
X497707Y440190D01*
X496620Y440406D01*
Y425000D01*
Y413750D01*
X498381D01*
X498280Y413569D01*
X498190Y413301D01*
X498110Y412948D01*
X498041Y412508D01*
X497935Y411369D01*
X497886Y409930D01*
X499705Y411145D01*
X501040Y413143D01*
X501053Y413209D01*
X502347D01*
X502360Y413143D01*
X503695Y411145D01*
X505484Y409950D01*
X505290Y412948D01*
X505210Y413301D01*
X505120Y413569D01*
X505019Y413750D01*
X506780D01*
Y425000D01*
Y440406D01*
D02*
G37*
G36*
X494080D02*
X492993Y440190D01*
X490995Y438855D01*
X489660Y436857D01*
X489647Y436791D01*
X488353D01*
X488340Y436857D01*
X487005Y438855D01*
X485007Y440190D01*
X483920Y440406D01*
Y425000D01*
Y413750D01*
X485681D01*
X485580Y413569D01*
X485490Y413301D01*
X485410Y412948D01*
X485341Y412508D01*
X485235Y411369D01*
X485186Y409930D01*
X487005Y411145D01*
X488340Y413143D01*
X488353Y413209D01*
X489647D01*
X489660Y413143D01*
X490995Y411145D01*
X492784Y409950D01*
X492590Y412948D01*
X492510Y413301D01*
X492420Y413569D01*
X492319Y413750D01*
X494080D01*
Y425000D01*
Y440406D01*
D02*
G37*
G36*
X284172Y456168D02*
X281394Y455802D01*
X278806Y454730D01*
X276583Y453024D01*
X274877Y450802D01*
X273805Y448214D01*
X273440Y445436D01*
X273805Y442658D01*
X274877Y440070D01*
X276583Y437847D01*
X278806Y436142D01*
X281394Y435070D01*
X284172Y434704D01*
X286949Y435070D01*
X289537Y436142D01*
X291760Y437847D01*
X293466Y440070D01*
X294538Y442658D01*
X294903Y445436D01*
X294538Y448214D01*
X293466Y450802D01*
X291760Y453024D01*
X289537Y454730D01*
X286949Y455802D01*
X284172Y456168D01*
D02*
G37*
G36*
X639000Y430028D02*
X636353Y429679D01*
X633886Y428657D01*
X631768Y427032D01*
X630143Y424914D01*
X629121Y422447D01*
X628773Y419800D01*
X629121Y417153D01*
X630143Y414686D01*
X631768Y412568D01*
X633886Y410943D01*
X636353Y409921D01*
X639000Y409572D01*
X641647Y409921D01*
X644114Y410943D01*
X646232Y412568D01*
X647857Y414686D01*
X648879Y417153D01*
X649228Y419800D01*
X648879Y422447D01*
X647857Y424914D01*
X646232Y427032D01*
X644114Y428657D01*
X641647Y429679D01*
X639000Y430028D01*
D02*
G37*
G36*
X323572Y426168D02*
X320794Y425802D01*
X318206Y424730D01*
X315983Y423024D01*
X314277Y420802D01*
X313205Y418214D01*
X312840Y415436D01*
X313205Y412658D01*
X314277Y410070D01*
X315983Y407847D01*
X318206Y406142D01*
X320794Y405070D01*
X323572Y404704D01*
X326349Y405070D01*
X328937Y406142D01*
X331160Y407847D01*
X332866Y410070D01*
X333938Y412658D01*
X334303Y415436D01*
X333938Y418214D01*
X332866Y420802D01*
X331160Y423024D01*
X328937Y424730D01*
X326349Y425802D01*
X323572Y426168D01*
D02*
G37*
G36*
X293571D02*
X290794Y425802D01*
X288206Y424730D01*
X285983Y423024D01*
X284277Y420802D01*
X283205Y418214D01*
X282840Y415436D01*
X283205Y412658D01*
X284277Y410070D01*
X285983Y407847D01*
X288206Y406142D01*
X290794Y405070D01*
X293571Y404704D01*
X296349Y405070D01*
X298937Y406142D01*
X301160Y407847D01*
X302866Y410070D01*
X303938Y412658D01*
X304303Y415436D01*
X303938Y418214D01*
X302866Y420802D01*
X301160Y423024D01*
X298937Y424730D01*
X296349Y425802D01*
X293571Y426168D01*
D02*
G37*
G36*
X640270Y404460D02*
Y395670D01*
X649060D01*
X648879Y397047D01*
X647857Y399514D01*
X646232Y401632D01*
X644114Y403257D01*
X641647Y404279D01*
X640270Y404460D01*
D02*
G37*
G36*
X637730D02*
X636353Y404279D01*
X633886Y403257D01*
X631768Y401632D01*
X630143Y399514D01*
X629121Y397047D01*
X628940Y395670D01*
X637730D01*
Y404460D01*
D02*
G37*
G36*
X630255Y393130D02*
X628940D01*
X629071Y392136D01*
X630255Y393130D01*
D02*
G37*
G36*
X520270Y394886D02*
Y391270D01*
X523886D01*
X523748Y391967D01*
X522634Y393634D01*
X520966Y394748D01*
X520270Y394886D01*
D02*
G37*
G36*
X517730D02*
X517034Y394748D01*
X515366Y393634D01*
X514252Y391967D01*
X514114Y391270D01*
X517730D01*
Y394886D01*
D02*
G37*
G36*
X357170Y393886D02*
Y390270D01*
X360786D01*
X360648Y390966D01*
X359534Y392634D01*
X357867Y393748D01*
X357170Y393886D01*
D02*
G37*
G36*
X354630D02*
X353933Y393748D01*
X352266Y392634D01*
X351152Y390966D01*
X351014Y390270D01*
X354630D01*
Y393886D01*
D02*
G37*
G36*
X637730Y393130D02*
X631796D01*
X633326Y389344D01*
X632168Y388232D01*
X629456Y390944D01*
X630143Y389286D01*
X631768Y387168D01*
X633886Y385543D01*
X636353Y384521D01*
X637730Y384340D01*
Y393130D01*
D02*
G37*
G36*
X491300Y386315D02*
X491300Y386315D01*
X474000D01*
X474000Y386315D01*
X472229Y385962D01*
X470727Y384959D01*
X470727Y384959D01*
X459383Y373615D01*
X432930D01*
X432752Y373733D01*
X430786Y374124D01*
X428819Y373733D01*
X427152Y372619D01*
X426038Y370952D01*
X425647Y368986D01*
X426038Y367019D01*
X427152Y365352D01*
X428819Y364238D01*
X430786Y363847D01*
X432752Y364238D01*
X432930Y364357D01*
X461300D01*
X461300Y364357D01*
X463071Y364709D01*
X464573Y365713D01*
X475917Y377057D01*
X489383D01*
X496336Y370104D01*
X495954Y368821D01*
X495878Y368765D01*
X494000Y369139D01*
X492034Y368748D01*
X490366Y367634D01*
X489252Y365966D01*
X488861Y364000D01*
X489252Y362034D01*
X490366Y360366D01*
X490721Y360129D01*
Y348088D01*
X490618Y347080D01*
X490554Y346711D01*
X490477Y346384D01*
X490400Y346132D01*
X490330Y345956D01*
X490280Y345859D01*
X490167Y345690D01*
X490085Y345492D01*
X489660Y344857D01*
X489647Y344791D01*
X488353D01*
X488340Y344857D01*
X487915Y345492D01*
X487833Y345690D01*
X487720Y345859D01*
X487670Y345956D01*
X487600Y346132D01*
X487523Y346384D01*
X487446Y346711D01*
X487387Y347055D01*
X487279Y348367D01*
Y359500D01*
X487279Y359500D01*
X486927Y361271D01*
X485923Y362773D01*
X482939Y365757D01*
X482897Y365966D01*
X481784Y367634D01*
X480117Y368748D01*
X478150Y369139D01*
X476184Y368748D01*
X474516Y367634D01*
X473402Y365966D01*
X473011Y364000D01*
X473402Y362034D01*
X474516Y360366D01*
X476184Y359252D01*
X476393Y359211D01*
X478021Y357583D01*
Y348088D01*
X477918Y347080D01*
X477854Y346711D01*
X477777Y346384D01*
X477700Y346132D01*
X477630Y345956D01*
X477580Y345859D01*
X477467Y345690D01*
X477385Y345492D01*
X476960Y344857D01*
X476948Y344791D01*
X475653D01*
X475640Y344857D01*
X474305Y346855D01*
X472307Y348190D01*
X469950Y348658D01*
X467593Y348190D01*
X465595Y346855D01*
X464260Y344857D01*
X464248Y344791D01*
X462953D01*
X462940Y344857D01*
X461605Y346855D01*
X459607Y348190D01*
X458618Y348386D01*
X458131Y349560D01*
X458349Y349884D01*
X458487Y350581D01*
X448715D01*
X448853Y349884D01*
X449967Y348217D01*
X451635Y347103D01*
X451773Y347076D01*
X452259Y345902D01*
X451561Y344857D01*
X451548Y344791D01*
X450253D01*
X450240Y344857D01*
X448905Y346855D01*
X447116Y348050D01*
X447310Y345052D01*
X447390Y344699D01*
X447480Y344431D01*
X447581Y344250D01*
X445820D01*
Y333000D01*
Y317594D01*
X446907Y317810D01*
X448905Y319145D01*
X450240Y321143D01*
X450253Y321209D01*
X451548D01*
X451561Y321143D01*
X452895Y319145D01*
X452912Y319134D01*
Y317864D01*
X452566Y317634D01*
X451452Y315966D01*
X451314Y315270D01*
X461086D01*
X460948Y315966D01*
X460387Y316805D01*
X460643Y318497D01*
X460658Y318512D01*
X461605Y319145D01*
X462776Y320899D01*
X463820Y320966D01*
X464184Y320894D01*
X464811Y320172D01*
Y319000D01*
X465202Y317034D01*
X466316Y315366D01*
X470861Y310821D01*
Y308964D01*
X470829Y308594D01*
X470741Y308062D01*
X470640Y307686D01*
X470626Y307650D01*
X466960D01*
Y285570D01*
X469702D01*
X470960Y285540D01*
Y262460D01*
X486040D01*
Y266263D01*
X487310Y266648D01*
X488166Y265366D01*
X489833Y264252D01*
X491800Y263861D01*
X493767Y264252D01*
X493944Y264371D01*
X498402D01*
X498657Y264349D01*
X498960Y264299D01*
Y259460D01*
X519040D01*
Y278540D01*
X498960D01*
Y273701D01*
X498657Y273651D01*
X498402Y273629D01*
X493944D01*
X493767Y273748D01*
X491800Y274139D01*
X489833Y273748D01*
X488166Y272634D01*
X487310Y271352D01*
X486040Y271737D01*
Y272040D01*
X486056Y272335D01*
X486125Y272789D01*
X486245Y273258D01*
X486418Y273747D01*
X486651Y274258D01*
X486947Y274793D01*
X487311Y275351D01*
X487746Y275929D01*
X488037Y276270D01*
X493428Y281661D01*
X496800D01*
X498767Y282052D01*
X500434Y283166D01*
X504788Y287521D01*
X505667Y288336D01*
X506398Y288921D01*
X507042Y289368D01*
X507201Y289460D01*
X519040D01*
Y308321D01*
X525434D01*
X525559Y307051D01*
X525234Y306987D01*
X524034Y306748D01*
X522366Y305634D01*
X521252Y303967D01*
X521114Y303270D01*
X530886D01*
X530748Y303967D01*
X529634Y305634D01*
X527966Y306748D01*
X526766Y306987D01*
X526441Y307051D01*
X526566Y308321D01*
X530633D01*
X543802Y295151D01*
X543936Y294937D01*
X543960Y294849D01*
X543716Y293442D01*
X543231Y293069D01*
X541822Y291233D01*
X540936Y289095D01*
X540634Y286800D01*
X540936Y284505D01*
X541822Y282367D01*
X543231Y280531D01*
X545067Y279122D01*
X546108Y278691D01*
Y277316D01*
X544829Y276787D01*
X544979Y276662D01*
X545448Y276327D01*
X545923Y276036D01*
X546407Y275792D01*
X546898Y275592D01*
X547396Y275438D01*
X547902Y275330D01*
X548416Y275267D01*
X548937Y275250D01*
X543958Y270270D01*
X549000D01*
X557699D01*
X557564Y271295D01*
X556678Y273433D01*
X555269Y275269D01*
X553433Y276678D01*
X552392Y277109D01*
Y278484D01*
X553933Y279122D01*
X555769Y280531D01*
X557178Y282367D01*
X558064Y284505D01*
X558366Y286800D01*
X558064Y289095D01*
X557178Y291233D01*
X555769Y293069D01*
X554793Y293818D01*
X554773Y293848D01*
X554633Y293942D01*
X554522Y294069D01*
X554401Y294162D01*
X554389Y294178D01*
X554351Y294247D01*
X554297Y294375D01*
X554237Y294569D01*
X554180Y294830D01*
X554133Y295157D01*
X554129Y295206D01*
Y296000D01*
X554129Y296000D01*
X553777Y297771D01*
X552773Y299273D01*
X552773Y299273D01*
X535823Y316223D01*
X535482Y316451D01*
X535750Y317799D01*
X535807Y317810D01*
X537805Y319145D01*
X539140Y321143D01*
X539153Y321209D01*
X540448D01*
X540461Y321143D01*
X541795Y319145D01*
X543584Y317950D01*
X543390Y320948D01*
X543310Y321301D01*
X543220Y321569D01*
X543119Y321750D01*
X544880D01*
Y333000D01*
Y348406D01*
X543793Y348190D01*
X541795Y346855D01*
X540461Y344857D01*
X540448Y344791D01*
X539153D01*
X539140Y344857D01*
X538795Y345373D01*
X538790Y345385D01*
X538772Y345459D01*
X538750Y345589D01*
X538629Y347611D01*
Y361856D01*
X538748Y362034D01*
X539139Y364000D01*
X538748Y365966D01*
X537634Y367634D01*
X535966Y368748D01*
X534000Y369139D01*
X532034Y368748D01*
X530366Y367634D01*
X529252Y365966D01*
X528861Y364000D01*
X529252Y362034D01*
X529371Y361856D01*
Y348785D01*
X529360Y348633D01*
X529300Y348174D01*
X529219Y347750D01*
X529118Y347359D01*
X529000Y347000D01*
X528865Y346670D01*
X528714Y346367D01*
X528547Y346087D01*
X528305Y345745D01*
X528206Y345524D01*
X527761Y344857D01*
X527747Y344791D01*
X526453D01*
X526440Y344857D01*
X526015Y345492D01*
X525933Y345690D01*
X525820Y345859D01*
X525770Y345956D01*
X525700Y346132D01*
X525623Y346384D01*
X525546Y346711D01*
X525486Y347055D01*
X525379Y348367D01*
Y352250D01*
X525379Y352250D01*
X525027Y354021D01*
X524023Y355523D01*
X524023Y355523D01*
X518789Y360757D01*
X518748Y360966D01*
X517634Y362634D01*
X515966Y363748D01*
X514000Y364139D01*
X512859Y363912D01*
X511589Y364862D01*
Y366026D01*
X511589Y366026D01*
X511237Y367797D01*
X510233Y369299D01*
X510233Y369299D01*
X494573Y384959D01*
X493071Y385962D01*
X491300Y386315D01*
D02*
G37*
G36*
X523886Y388730D02*
X520270D01*
Y385114D01*
X520966Y385252D01*
X522634Y386366D01*
X523748Y388033D01*
X523886Y388730D01*
D02*
G37*
G36*
X517730D02*
X514114D01*
X514252Y388033D01*
X515366Y386366D01*
X517034Y385252D01*
X517730Y385114D01*
Y388730D01*
D02*
G37*
G36*
X649060Y393130D02*
X640270D01*
Y384340D01*
X641647Y384521D01*
X644114Y385543D01*
X646232Y387168D01*
X647857Y389286D01*
X648879Y391753D01*
X649060Y393130D01*
D02*
G37*
G36*
X360786Y387730D02*
X357170D01*
Y384114D01*
X357867Y384252D01*
X359534Y385366D01*
X360648Y387034D01*
X360786Y387730D01*
D02*
G37*
G36*
X354630D02*
X351014D01*
X351152Y387034D01*
X352266Y385366D01*
X353933Y384252D01*
X354630Y384114D01*
Y387730D01*
D02*
G37*
G36*
X284172Y396168D02*
X281394Y395802D01*
X278806Y394730D01*
X276583Y393024D01*
X274877Y390802D01*
X273805Y388214D01*
X273440Y385436D01*
X273805Y382658D01*
X274877Y380070D01*
X276583Y377847D01*
X278806Y376142D01*
X281394Y375070D01*
X284172Y374704D01*
X286949Y375070D01*
X289537Y376142D01*
X291760Y377847D01*
X293466Y380070D01*
X294538Y382658D01*
X294903Y385436D01*
X294538Y388214D01*
X293466Y390802D01*
X291760Y393024D01*
X289537Y394730D01*
X286949Y395802D01*
X284172Y396168D01*
D02*
G37*
G36*
X639000Y379227D02*
X636353Y378879D01*
X633886Y377857D01*
X631768Y376232D01*
X631602Y376016D01*
X631158Y375584D01*
X630623Y375117D01*
X630107Y374720D01*
X629612Y374389D01*
X629141Y374123D01*
X628694Y373915D01*
X628270Y373762D01*
X627867Y373658D01*
X627586Y373615D01*
X588286D01*
X588286Y373615D01*
X586514Y373262D01*
X585013Y372259D01*
X585013Y372259D01*
X568277Y355523D01*
X567273Y354021D01*
X566921Y352250D01*
X566921Y352250D01*
Y348088D01*
X566818Y347080D01*
X566754Y346711D01*
X566677Y346384D01*
X566600Y346132D01*
X566530Y345956D01*
X566480Y345859D01*
X566367Y345690D01*
X566285Y345492D01*
X565860Y344857D01*
X565848Y344791D01*
X564553D01*
X564540Y344857D01*
X563205Y346855D01*
X561207Y348190D01*
X558850Y348658D01*
X556493Y348190D01*
X554495Y346855D01*
X553161Y344857D01*
X553148Y344791D01*
X551853D01*
X551840Y344857D01*
X550505Y346855D01*
X548507Y348190D01*
X547420Y348406D01*
Y333000D01*
Y321750D01*
X549181D01*
X549080Y321569D01*
X548990Y321301D01*
X548910Y320948D01*
X548841Y320508D01*
X548735Y319369D01*
X548686Y317930D01*
X550505Y319145D01*
X551840Y321143D01*
X551853Y321209D01*
X553148D01*
X553161Y321143D01*
X554221Y319556D01*
Y319150D01*
X554221Y319150D01*
X554573Y317379D01*
X555577Y315877D01*
X561777Y309677D01*
X563279Y308673D01*
X565050Y308321D01*
X565050Y308321D01*
X604150D01*
X604150Y308321D01*
X605921Y308673D01*
X607423Y309677D01*
X631956Y334210D01*
X632168Y334359D01*
X632427Y334496D01*
X632680Y334588D01*
X632942Y334645D01*
X633233Y334668D01*
X633569Y334650D01*
X633961Y334584D01*
X634414Y334456D01*
X635026Y334219D01*
X635242Y334181D01*
X636353Y333721D01*
X639000Y333372D01*
X641647Y333721D01*
X644114Y334743D01*
X646232Y336368D01*
X647857Y338486D01*
X648879Y340953D01*
X649228Y343600D01*
X648879Y346247D01*
X647857Y348714D01*
X646232Y350832D01*
X644114Y352457D01*
X641647Y353479D01*
X639000Y353828D01*
X636353Y353479D01*
X633886Y352457D01*
X631768Y350832D01*
X630143Y348714D01*
X629728Y347713D01*
X629591Y347512D01*
X629591Y347511D01*
X629590Y347510D01*
X629207Y346606D01*
X628084Y344239D01*
X627771Y343664D01*
X627110Y342591D01*
X626841Y342215D01*
X626726Y342072D01*
X602233Y317579D01*
X575846D01*
X575461Y318849D01*
X575905Y319145D01*
X577240Y321143D01*
X577708Y323500D01*
Y342500D01*
X577240Y344857D01*
X576815Y345492D01*
X576733Y345690D01*
X576620Y345859D01*
X576570Y345956D01*
X576500Y346132D01*
X576423Y346384D01*
X576346Y346711D01*
X576287Y347055D01*
X576179Y348367D01*
Y350333D01*
X590203Y364357D01*
X627594D01*
X627875Y364313D01*
X628279Y364209D01*
X628704Y364057D01*
X629154Y363849D01*
X629627Y363582D01*
X630124Y363252D01*
X630644Y362855D01*
X631182Y362389D01*
X631609Y361976D01*
X631768Y361768D01*
X633886Y360143D01*
X636353Y359121D01*
X639000Y358773D01*
X641647Y359121D01*
X644114Y360143D01*
X646232Y361768D01*
X647857Y363886D01*
X648879Y366353D01*
X649228Y369000D01*
X648879Y371647D01*
X647857Y374114D01*
X646232Y376232D01*
X644114Y377857D01*
X641647Y378879D01*
X639000Y379227D01*
D02*
G37*
G36*
X454871Y356737D02*
Y353121D01*
X458487D01*
X458349Y353817D01*
X457235Y355485D01*
X455568Y356599D01*
X454871Y356737D01*
D02*
G37*
G36*
X452331D02*
X451635Y356599D01*
X449967Y355485D01*
X448853Y353817D01*
X448715Y353121D01*
X452331D01*
Y356737D01*
D02*
G37*
G36*
X260270D02*
Y353121D01*
X263886D01*
X263748Y353817D01*
X262634Y355485D01*
X260966Y356599D01*
X260270Y356737D01*
D02*
G37*
G36*
X257730D02*
X257034Y356599D01*
X255366Y355485D01*
X254252Y353817D01*
X254114Y353121D01*
X257730D01*
Y356737D01*
D02*
G37*
G36*
X263886Y350581D02*
X260270D01*
Y346965D01*
X260966Y347103D01*
X262634Y348217D01*
X263748Y349884D01*
X263886Y350581D01*
D02*
G37*
G36*
X257730D02*
X254114D01*
X254252Y349884D01*
X255366Y348217D01*
X257034Y347103D01*
X257730Y346965D01*
Y350581D01*
D02*
G37*
G36*
X442014Y348070D02*
X440195Y346855D01*
X438861Y344857D01*
X438848Y344791D01*
X437553D01*
X437540Y344857D01*
X436205Y346855D01*
X434405Y348057D01*
X434610Y345031D01*
X434690Y344689D01*
X434780Y344429D01*
X434881Y344250D01*
X433120D01*
Y333000D01*
Y317594D01*
X434207Y317810D01*
X436205Y319145D01*
X437540Y321143D01*
X437553Y321209D01*
X438848D01*
X438861Y321143D01*
X440195Y319145D01*
X442193Y317810D01*
X443280Y317594D01*
Y333000D01*
Y344250D01*
X441519D01*
X441620Y344431D01*
X441710Y344699D01*
X441790Y345052D01*
X441859Y345492D01*
X441965Y346631D01*
X442014Y348070D01*
D02*
G37*
G36*
X429319Y348073D02*
X427495Y346855D01*
X426161Y344857D01*
X426147Y344791D01*
X424853D01*
X424840Y344857D01*
X423505Y346855D01*
X421716Y348050D01*
X421910Y345052D01*
X421990Y344699D01*
X422080Y344431D01*
X422181Y344250D01*
X420420D01*
Y333000D01*
Y317594D01*
X421507Y317810D01*
X423505Y319145D01*
X424840Y321143D01*
X424853Y321209D01*
X426147D01*
X426161Y321143D01*
X427495Y319145D01*
X429493Y317810D01*
X430580Y317594D01*
Y333000D01*
Y344250D01*
X428819D01*
X428920Y344429D01*
X429010Y344689D01*
X429090Y345031D01*
X429159Y345454D01*
X429265Y346544D01*
X429319Y348073D01*
D02*
G37*
G36*
X416614Y348070D02*
X414795Y346855D01*
X413461Y344857D01*
X413447Y344791D01*
X412153D01*
X412140Y344857D01*
X410805Y346855D01*
X409016Y348050D01*
X409210Y345052D01*
X409290Y344699D01*
X409380Y344431D01*
X409481Y344250D01*
X407720D01*
Y333000D01*
Y317594D01*
X408807Y317810D01*
X410805Y319145D01*
X412140Y321143D01*
X412153Y321209D01*
X413447D01*
X413461Y321143D01*
X414795Y319145D01*
X416793Y317810D01*
X417880Y317594D01*
Y333000D01*
Y344250D01*
X416119D01*
X416220Y344431D01*
X416310Y344699D01*
X416390Y345052D01*
X416459Y345492D01*
X416565Y346631D01*
X416614Y348070D01*
D02*
G37*
G36*
X403914D02*
X402095Y346855D01*
X400760Y344857D01*
X400292Y342500D01*
Y334270D01*
X405180D01*
Y344250D01*
X403419D01*
X403520Y344431D01*
X403610Y344699D01*
X403690Y345052D01*
X403759Y345492D01*
X403865Y346631D01*
X403914Y348070D01*
D02*
G37*
G36*
X405180Y331730D02*
X400292D01*
Y323500D01*
X400760Y321143D01*
X402095Y319145D01*
X404093Y317810D01*
X405180Y317594D01*
Y331730D01*
D02*
G37*
G36*
X461086Y312730D02*
X451314D01*
X451452Y312034D01*
X452566Y310366D01*
X454234Y309252D01*
X455305Y309039D01*
X455905Y308920D01*
X455780Y307650D01*
X454502D01*
X454621Y305049D01*
X453270D01*
Y297880D01*
X461040D01*
Y307650D01*
X456620D01*
X456495Y308920D01*
X457095Y309039D01*
X458167Y309252D01*
X459834Y310366D01*
X460948Y312034D01*
X461086Y312730D01*
D02*
G37*
G36*
X449499Y307650D02*
X442960D01*
Y297880D01*
X450730D01*
Y305049D01*
X449380D01*
X449402Y305075D01*
X449423Y305155D01*
X449441Y305288D01*
X449470Y305712D01*
X449499Y307650D01*
D02*
G37*
G36*
X530886Y300730D02*
X527270D01*
Y297114D01*
X527966Y297253D01*
X529634Y298366D01*
X530748Y300033D01*
X530886Y300730D01*
D02*
G37*
G36*
X524730D02*
X521114D01*
X521252Y300033D01*
X522366Y298366D01*
X524034Y297253D01*
X524730Y297114D01*
Y300730D01*
D02*
G37*
G36*
X380900Y303628D02*
X377790Y303218D01*
X374891Y302018D01*
X372402Y300108D01*
X370492Y297619D01*
X369292Y294720D01*
X369040Y292812D01*
X367760D01*
X367508Y294720D01*
X366308Y297619D01*
X364398Y300108D01*
X361909Y302018D01*
X359011Y303218D01*
X355900Y303628D01*
X352790Y303218D01*
X349891Y302018D01*
X347402Y300108D01*
X345492Y297619D01*
X344292Y294720D01*
X343882Y291610D01*
X344292Y288500D01*
X345492Y285601D01*
X347402Y283112D01*
X349891Y281202D01*
X352790Y280002D01*
X354698Y279750D01*
Y278470D01*
X352790Y278218D01*
X349891Y277018D01*
X347402Y275108D01*
X345492Y272619D01*
X344292Y269720D01*
X343882Y266610D01*
X344292Y263500D01*
X345492Y260601D01*
X347402Y258112D01*
X349891Y256202D01*
X352790Y255002D01*
X355900Y254592D01*
X359011Y255002D01*
X361909Y256202D01*
X364398Y258112D01*
X366308Y260601D01*
X367508Y263500D01*
X367760Y265408D01*
X369040D01*
X369292Y263500D01*
X370492Y260601D01*
X372402Y258112D01*
X374891Y256202D01*
X377790Y255002D01*
X379630Y254759D01*
Y266610D01*
X380900D01*
Y267880D01*
X392751D01*
X392508Y269720D01*
X391308Y272619D01*
X389398Y275108D01*
X386909Y277018D01*
X384011Y278218D01*
X382102Y278470D01*
Y279750D01*
X384011Y280002D01*
X386909Y281202D01*
X389398Y283112D01*
X389623Y283405D01*
X390138Y283902D01*
X390822Y284488D01*
X391494Y284992D01*
X392154Y285416D01*
X392800Y285765D01*
X393433Y286043D01*
X394055Y286253D01*
X394670Y286401D01*
X395164Y286471D01*
X421871D01*
X437976Y270366D01*
X439644Y269252D01*
X441610Y268861D01*
X442812D01*
X442960Y268844D01*
Y262460D01*
X458040D01*
Y284300D01*
X458040Y285540D01*
X459298Y285570D01*
X459473D01*
X459354Y285685D01*
X457396Y287360D01*
X456553Y287956D01*
X455800Y288391D01*
X455138Y288663D01*
X454567Y288775D01*
X454087Y288725D01*
X453697Y288513D01*
X453399Y288141D01*
X457423Y295340D01*
X452000D01*
X442960D01*
Y286810D01*
X442960Y285540D01*
X442960Y284300D01*
Y281577D01*
X441787Y281091D01*
X427634Y295244D01*
X425966Y296358D01*
X424000Y296749D01*
X395164D01*
X394670Y296819D01*
X394055Y296967D01*
X393433Y297177D01*
X392800Y297455D01*
X392154Y297804D01*
X391494Y298228D01*
X390822Y298732D01*
X390138Y299318D01*
X389623Y299814D01*
X389398Y300108D01*
X386909Y302018D01*
X384011Y303218D01*
X380900Y303628D01*
D02*
G37*
G36*
X461040Y295340D02*
X458332D01*
X458427Y294992D01*
X458719Y294310D01*
X459134Y293577D01*
X459669Y292794D01*
X460327Y291960D01*
X461040Y291150D01*
Y295340D01*
D02*
G37*
G36*
Y286661D02*
X460737Y285570D01*
X461040D01*
Y286661D01*
D02*
G37*
G36*
X284100Y302997D02*
X281153Y302609D01*
X278406Y301472D01*
X276048Y299662D01*
X274238Y297304D01*
X273101Y294557D01*
X272713Y291610D01*
X273101Y288663D01*
X274238Y285916D01*
X276048Y283558D01*
X278406Y281748D01*
X281153Y280611D01*
X284100Y280223D01*
X287047Y280611D01*
X289794Y281748D01*
X292152Y283558D01*
X293962Y285916D01*
X295099Y288663D01*
X295487Y291610D01*
X295099Y294557D01*
X293962Y297304D01*
X292152Y299662D01*
X289794Y301472D01*
X287047Y302609D01*
X284100Y302997D01*
D02*
G37*
G36*
X635270Y306246D02*
Y274976D01*
X666541D01*
X666239Y278812D01*
X665043Y283792D01*
X663083Y288524D01*
X660407Y292892D01*
X657080Y296786D01*
X653186Y300113D01*
X648819Y302789D01*
X644087Y304749D01*
X639106Y305945D01*
X635270Y306246D01*
D02*
G37*
G36*
X632730D02*
X628894Y305945D01*
X623913Y304749D01*
X619182Y302789D01*
X614814Y300113D01*
X610920Y296786D01*
X607593Y292892D01*
X604917Y288524D01*
X603946Y286181D01*
X608799Y290771D01*
X612080Y294188D01*
Y274976D01*
X632730D01*
Y306246D01*
D02*
G37*
G36*
X541213Y273171D02*
X540436Y271295D01*
X540301Y270270D01*
X542633D01*
X542561Y270604D01*
X542408Y271102D01*
X542208Y271593D01*
X541964Y272076D01*
X541673Y272552D01*
X541338Y273021D01*
X541213Y273171D01*
D02*
G37*
G36*
X542633Y267730D02*
X540301D01*
X540436Y266705D01*
X541213Y264829D01*
X541338Y264979D01*
X541673Y265448D01*
X541964Y265923D01*
X542208Y266407D01*
X542408Y266898D01*
X542561Y267396D01*
X542633Y267730D01*
D02*
G37*
G36*
X547730D02*
X543958D01*
X547730Y263958D01*
Y267730D01*
D02*
G37*
G36*
Y262633D02*
X547396Y262561D01*
X546898Y262408D01*
X546407Y262208D01*
X545923Y261964D01*
X545448Y261673D01*
X544979Y261338D01*
X544829Y261213D01*
X546705Y260436D01*
X547730Y260301D01*
Y262633D01*
D02*
G37*
G36*
X557699Y267730D02*
X550270D01*
Y260301D01*
X551295Y260436D01*
X553433Y261322D01*
X555269Y262731D01*
X556678Y264567D01*
X557564Y266705D01*
X557699Y267730D01*
D02*
G37*
G36*
X284100Y277997D02*
X281153Y277609D01*
X278406Y276472D01*
X276048Y274662D01*
X274238Y272304D01*
X273101Y269557D01*
X272713Y266610D01*
X273101Y263663D01*
X274238Y260916D01*
X276048Y258558D01*
X278406Y256748D01*
X281153Y255611D01*
X284100Y255223D01*
X287047Y255611D01*
X289794Y256748D01*
X292152Y258558D01*
X293962Y260916D01*
X295099Y263663D01*
X295487Y266610D01*
X295099Y269557D01*
X293962Y272304D01*
X292152Y274662D01*
X289794Y276472D01*
X287047Y277609D01*
X284100Y277997D01*
D02*
G37*
G36*
X392751Y265340D02*
X382170D01*
Y254759D01*
X384011Y255002D01*
X386909Y256202D01*
X389398Y258112D01*
X391308Y260601D01*
X392508Y263500D01*
X392751Y265340D01*
D02*
G37*
G36*
X632730Y272436D02*
X612080D01*
Y253224D01*
X608799Y256641D01*
X604060Y260956D01*
X604917Y258887D01*
X607593Y254520D01*
X610920Y250625D01*
X614814Y247299D01*
X619182Y244623D01*
X623913Y242663D01*
X628894Y241467D01*
X632730Y241165D01*
Y272436D01*
D02*
G37*
G36*
X666541D02*
X635270D01*
Y241165D01*
X639106Y241467D01*
X644087Y242663D01*
X648819Y244623D01*
X653186Y247299D01*
X657080Y250625D01*
X660407Y254520D01*
X663083Y258887D01*
X665043Y263619D01*
X666239Y268600D01*
X666541Y272436D01*
D02*
G37*
%LPD*%
G36*
X327592Y627768D02*
X327651Y627083D01*
X327752Y626478D01*
X327892Y625954D01*
X328072Y625511D01*
X328292Y625148D01*
X328551Y624866D01*
X328852Y624664D01*
X329192Y624543D01*
X329571Y624503D01*
X321572D01*
X321952Y624543D01*
X322291Y624664D01*
X322592Y624866D01*
X322852Y625148D01*
X323072Y625511D01*
X323252Y625954D01*
X323391Y626478D01*
X323492Y627083D01*
X323551Y627768D01*
X323572Y628534D01*
X327571D01*
X327592Y627768D01*
D02*
G37*
G36*
X302591D02*
X302652Y627083D01*
X302752Y626478D01*
X302892Y625954D01*
X303071Y625511D01*
X303291Y625148D01*
X303552Y624866D01*
X303852Y624664D01*
X304191Y624543D01*
X304571Y624503D01*
X296572D01*
X296952Y624543D01*
X297292Y624664D01*
X297591Y624866D01*
X297852Y625148D01*
X298071Y625511D01*
X298251Y625954D01*
X298391Y626478D01*
X298491Y627083D01*
X298552Y627768D01*
X298571Y628534D01*
X302572D01*
X302591Y627768D01*
D02*
G37*
G36*
X277591D02*
X277652Y627083D01*
X277752Y626478D01*
X277892Y625954D01*
X278071Y625511D01*
X278291Y625148D01*
X278552Y624866D01*
X278852Y624664D01*
X279191Y624543D01*
X279571Y624503D01*
X271572D01*
X271952Y624543D01*
X272292Y624664D01*
X272591Y624866D01*
X272852Y625148D01*
X273071Y625511D01*
X273251Y625954D01*
X273391Y626478D01*
X273491Y627083D01*
X273552Y627768D01*
X273571Y628534D01*
X277572D01*
X277591Y627768D01*
D02*
G37*
G36*
X426263Y610490D02*
X426439Y608527D01*
X426601Y607638D01*
X426813Y606812D01*
X427074Y606049D01*
X427384Y605347D01*
X427744Y604708D01*
X428153Y604131D01*
X428612Y603616D01*
X425784Y600788D01*
X425269Y601247D01*
X424692Y601656D01*
X424053Y602016D01*
X423351Y602327D01*
X422588Y602588D01*
X421762Y602799D01*
X420873Y602961D01*
X419923Y603074D01*
X418910Y603137D01*
X417835Y603150D01*
X426250Y611565D01*
X426263Y610490D01*
D02*
G37*
G36*
X429720Y572454D02*
X429780Y571768D01*
X429880Y571164D01*
X430020Y570640D01*
X430200Y570197D01*
X430420Y569834D01*
X430680Y569552D01*
X430980Y569350D01*
X431320Y569229D01*
X431700Y569189D01*
X423700D01*
X424080Y569229D01*
X424420Y569350D01*
X424720Y569552D01*
X424980Y569834D01*
X425200Y570197D01*
X425380Y570640D01*
X425520Y571164D01*
X425620Y571768D01*
X425680Y572454D01*
X425700Y573219D01*
X429700D01*
X429720Y572454D01*
D02*
G37*
G36*
X401263Y610490D02*
X401439Y608527D01*
X401601Y607638D01*
X401813Y606812D01*
X402074Y606049D01*
X402384Y605347D01*
X402744Y604708D01*
X403153Y604131D01*
X403612Y603616D01*
X400784Y600788D01*
X400269Y601247D01*
X399692Y601656D01*
X399053Y602016D01*
X398351Y602327D01*
X397588Y602588D01*
X396762Y602799D01*
X395873Y602961D01*
X394923Y603074D01*
X393910Y603137D01*
X392835Y603150D01*
X401250Y611565D01*
X401263Y610490D01*
D02*
G37*
G36*
X406077Y572454D02*
X406137Y571768D01*
X406237Y571164D01*
X406377Y570640D01*
X406557Y570197D01*
X406777Y569834D01*
X407037Y569552D01*
X407337Y569350D01*
X407677Y569229D01*
X408057Y569189D01*
X400057D01*
X400437Y569229D01*
X400777Y569350D01*
X401077Y569552D01*
X401337Y569834D01*
X401557Y570197D01*
X401737Y570640D01*
X401877Y571164D01*
X401977Y571768D01*
X402037Y572454D01*
X402057Y573219D01*
X406057D01*
X406077Y572454D01*
D02*
G37*
G36*
X574228Y606000D02*
X572744Y603288D01*
X572381Y602465D01*
X572085Y601682D01*
X571854Y600939D01*
X571689Y600236D01*
X571590Y599573D01*
X571557Y598950D01*
X567557Y598052D01*
X567514Y598778D01*
X567384Y599486D01*
X567167Y600174D01*
X566864Y600843D01*
X566474Y601492D01*
X565998Y602123D01*
X565435Y602734D01*
X564785Y603326D01*
X564049Y603900D01*
X563227Y604454D01*
X574855Y606983D01*
X574228Y606000D01*
D02*
G37*
G36*
X571577Y572454D02*
X571637Y571768D01*
X571737Y571164D01*
X571877Y570640D01*
X572057Y570197D01*
X572277Y569834D01*
X572537Y569552D01*
X572837Y569350D01*
X573177Y569229D01*
X573557Y569189D01*
X565557D01*
X565937Y569229D01*
X566277Y569350D01*
X566577Y569552D01*
X566837Y569834D01*
X567057Y570197D01*
X567237Y570640D01*
X567377Y571164D01*
X567477Y571768D01*
X567537Y572454D01*
X567557Y573219D01*
X571557D01*
X571577Y572454D01*
D02*
G37*
G36*
X550035Y607074D02*
X548333Y602335D01*
X548150Y601597D01*
X547940Y600328D01*
X547914Y599799D01*
X543914Y598130D01*
X543870Y598876D01*
X543737Y599583D01*
X543516Y600249D01*
X543206Y600876D01*
X542808Y601463D01*
X542321Y602010D01*
X541745Y602518D01*
X541081Y602985D01*
X540328Y603413D01*
X539487Y603801D01*
X550532Y608231D01*
X550035Y607074D01*
D02*
G37*
G36*
X547934Y572454D02*
X547994Y571768D01*
X548094Y571164D01*
X548234Y570640D01*
X548414Y570197D01*
X548634Y569834D01*
X548894Y569552D01*
X549194Y569350D01*
X549534Y569229D01*
X549914Y569189D01*
X541914D01*
X542294Y569229D01*
X542634Y569350D01*
X542934Y569552D01*
X543194Y569834D01*
X543414Y570197D01*
X543594Y570640D01*
X543734Y571164D01*
X543834Y571768D01*
X543894Y572454D01*
X543914Y573219D01*
X547914D01*
X547934Y572454D01*
D02*
G37*
G36*
X525580Y608148D02*
X524530Y603712D01*
X524417Y602981D01*
X524287Y601674D01*
X524271Y601098D01*
X520271Y598433D01*
X520228Y599196D01*
X520098Y599899D01*
X519882Y600541D01*
X519578Y601124D01*
X519189Y601645D01*
X518712Y602106D01*
X518149Y602506D01*
X517500Y602846D01*
X516763Y603126D01*
X515941Y603345D01*
X525887Y609191D01*
X525580Y608148D01*
D02*
G37*
G36*
X524291Y572454D02*
X524351Y571768D01*
X524451Y571164D01*
X524591Y570640D01*
X524771Y570197D01*
X524991Y569834D01*
X525251Y569552D01*
X525551Y569350D01*
X525891Y569229D01*
X526271Y569189D01*
X518271D01*
X518651Y569229D01*
X518991Y569350D01*
X519291Y569552D01*
X519551Y569834D01*
X519771Y570197D01*
X519951Y570640D01*
X520091Y571164D01*
X520191Y571768D01*
X520251Y572454D01*
X520271Y573219D01*
X524271D01*
X524291Y572454D01*
D02*
G37*
G36*
X501037Y609604D02*
X500810Y607227D01*
X500649Y602989D01*
X500629Y600411D01*
X496628Y598987D01*
X496589Y599769D01*
X496469Y600471D01*
X496270Y601091D01*
X495992Y601629D01*
X495634Y602086D01*
X495196Y602462D01*
X494679Y602756D01*
X494083Y602969D01*
X493406Y603101D01*
X492650Y603151D01*
X501133Y610244D01*
X501037Y609604D01*
D02*
G37*
G36*
X500648Y572454D02*
X500709Y571768D01*
X500808Y571164D01*
X500948Y570640D01*
X501129Y570197D01*
X501348Y569834D01*
X501609Y569552D01*
X501908Y569350D01*
X502248Y569229D01*
X502629Y569189D01*
X494628D01*
X495009Y569229D01*
X495349Y569350D01*
X495648Y569552D01*
X495909Y569834D01*
X496129Y570197D01*
X496309Y570640D01*
X496449Y571164D01*
X496549Y571768D01*
X496609Y572454D01*
X496628Y573219D01*
X500629D01*
X500648Y572454D01*
D02*
G37*
G36*
X475029Y607224D02*
X475069Y607179D01*
X476400Y605829D01*
X473571Y603000D01*
X472158Y604383D01*
X475017Y607242D01*
X475029Y607224D01*
D02*
G37*
G36*
X477006Y572454D02*
X477066Y571768D01*
X477166Y571164D01*
X477306Y570640D01*
X477486Y570197D01*
X477706Y569834D01*
X477966Y569552D01*
X478266Y569350D01*
X478606Y569229D01*
X478986Y569189D01*
X470986D01*
X471366Y569229D01*
X471706Y569350D01*
X472006Y569552D01*
X472266Y569834D01*
X472486Y570197D01*
X472666Y570640D01*
X472806Y571164D01*
X472906Y571768D01*
X472966Y572454D01*
X472986Y573219D01*
X476986D01*
X477006Y572454D01*
D02*
G37*
G36*
X450860Y608958D02*
X450820Y608455D01*
X450843Y607953D01*
X450928Y607452D01*
X451076Y606952D01*
X451286Y606454D01*
X451560Y605956D01*
X451896Y605460D01*
X452295Y604965D01*
X452757Y604471D01*
X449929Y601643D01*
X449435Y602105D01*
X448940Y602504D01*
X448444Y602840D01*
X447946Y603114D01*
X447448Y603324D01*
X446948Y603472D01*
X446447Y603558D01*
X445945Y603580D01*
X445442Y603540D01*
X444938Y603436D01*
X450964Y609462D01*
X450860Y608958D01*
D02*
G37*
G36*
X453363Y572454D02*
X453423Y571768D01*
X453523Y571164D01*
X453663Y570640D01*
X453843Y570197D01*
X454063Y569834D01*
X454323Y569552D01*
X454623Y569350D01*
X454963Y569229D01*
X455343Y569189D01*
X447343D01*
X447723Y569229D01*
X448063Y569350D01*
X448363Y569552D01*
X448623Y569834D01*
X448843Y570197D01*
X449023Y570640D01*
X449163Y571164D01*
X449263Y571768D01*
X449323Y572454D01*
X449343Y573219D01*
X453343D01*
X453363Y572454D01*
D02*
G37*
G36*
X431320Y532741D02*
X430980Y532621D01*
X430680Y532421D01*
X430420Y532141D01*
X430200Y531781D01*
X430020Y531340D01*
X429880Y530821D01*
X429780Y530220D01*
X429720Y529540D01*
X429700Y528781D01*
X425700D01*
X425680Y529540D01*
X425620Y530220D01*
X425520Y530821D01*
X425380Y531340D01*
X425200Y531781D01*
X424980Y532141D01*
X424720Y532421D01*
X424420Y532621D01*
X424080Y532741D01*
X423700Y532780D01*
X431700D01*
X431320Y532741D01*
D02*
G37*
G36*
X407677D02*
X407337Y532621D01*
X407037Y532421D01*
X406777Y532141D01*
X406557Y531781D01*
X406377Y531340D01*
X406237Y530821D01*
X406137Y530220D01*
X406077Y529540D01*
X406057Y528781D01*
X402057D01*
X402037Y529540D01*
X401977Y530220D01*
X401877Y530821D01*
X401737Y531340D01*
X401557Y531781D01*
X401337Y532141D01*
X401077Y532421D01*
X400777Y532621D01*
X400437Y532741D01*
X400057Y532780D01*
X408057D01*
X407677Y532741D01*
D02*
G37*
G36*
X419230Y509781D02*
X419180Y510202D01*
X419030Y510579D01*
X418781Y510912D01*
X418430Y511201D01*
X417980Y511445D01*
X417430Y511645D01*
X416781Y511800D01*
X416129Y511897D01*
X415477Y511800D01*
X414827Y511645D01*
X414277Y511445D01*
X413827Y511201D01*
X413477Y510912D01*
X413227Y510579D01*
X413077Y510202D01*
X413027Y509781D01*
Y519220D01*
X413077Y518798D01*
X413227Y518420D01*
X413477Y518088D01*
X413827Y517799D01*
X414277Y517555D01*
X414827Y517355D01*
X415477Y517200D01*
X416129Y517103D01*
X416781Y517200D01*
X417430Y517355D01*
X417980Y517555D01*
X418430Y517799D01*
X418781Y518088D01*
X419030Y518420D01*
X419180Y518798D01*
X419230Y519220D01*
Y509781D01*
D02*
G37*
G36*
X454963Y532740D02*
X454623Y532620D01*
X454323Y532420D01*
X454063Y532140D01*
X453843Y531780D01*
X453663Y531340D01*
X453523Y530821D01*
X453423Y530220D01*
X453363Y529540D01*
X453343Y528781D01*
X449343D01*
X449323Y529540D01*
X449263Y530220D01*
X449163Y530821D01*
X449023Y531340D01*
X448843Y531780D01*
X448623Y532140D01*
X448363Y532420D01*
X448063Y532620D01*
X447723Y532740D01*
X447343Y532780D01*
X455343D01*
X454963Y532740D01*
D02*
G37*
G36*
X478606D02*
X478266Y532620D01*
X477966Y532420D01*
X477706Y532140D01*
X477486Y531780D01*
X477306Y531340D01*
X477166Y530821D01*
X477066Y530220D01*
X477006Y529540D01*
X476986Y528781D01*
X472986D01*
X472966Y529540D01*
X472906Y530220D01*
X472806Y530821D01*
X472666Y531340D01*
X472486Y531780D01*
X472266Y532140D01*
X472006Y532420D01*
X471706Y532620D01*
X471366Y532740D01*
X470986Y532780D01*
X478986D01*
X478606Y532740D01*
D02*
G37*
G36*
X431320Y482741D02*
X430980Y482621D01*
X430680Y482421D01*
X430420Y482141D01*
X430200Y481781D01*
X430020Y481340D01*
X429880Y480821D01*
X429780Y480220D01*
X429720Y479540D01*
X429700Y478781D01*
X425700D01*
X425680Y479540D01*
X425620Y480220D01*
X425520Y480821D01*
X425380Y481340D01*
X425200Y481781D01*
X424980Y482141D01*
X424720Y482421D01*
X424420Y482621D01*
X424080Y482741D01*
X423700Y482780D01*
X431700D01*
X431320Y482741D01*
D02*
G37*
G36*
X408677D02*
X408337Y482621D01*
X408037Y482421D01*
X407777Y482141D01*
X407557Y481781D01*
X407377Y481340D01*
X407237Y480821D01*
X407137Y480220D01*
X407077Y479540D01*
X407057Y478781D01*
X403057D01*
X403037Y479540D01*
X402977Y480220D01*
X402877Y480821D01*
X402737Y481340D01*
X402557Y481781D01*
X402337Y482141D01*
X402077Y482421D01*
X401777Y482621D01*
X401437Y482741D01*
X401057Y482780D01*
X409057D01*
X408677Y482741D01*
D02*
G37*
G36*
X329192Y580555D02*
X328852Y580435D01*
X328551Y580235D01*
X328292Y579954D01*
X328072Y579594D01*
X327892Y579155D01*
X327752Y578635D01*
X327651Y578035D01*
X327592Y577355D01*
X327571Y576595D01*
X323572D01*
X323551Y577355D01*
X323492Y578035D01*
X323391Y578635D01*
X323252Y579155D01*
X323072Y579594D01*
X322852Y579954D01*
X322592Y580235D01*
X322291Y580435D01*
X321952Y580555D01*
X321572Y580594D01*
X329571D01*
X329192Y580555D01*
D02*
G37*
G36*
X304191D02*
X303852Y580435D01*
X303552Y580235D01*
X303291Y579954D01*
X303071Y579594D01*
X302892Y579155D01*
X302752Y578635D01*
X302652Y578035D01*
X302591Y577355D01*
X302572Y576595D01*
X298571D01*
X298552Y577355D01*
X298491Y578035D01*
X298391Y578635D01*
X298251Y579155D01*
X298071Y579594D01*
X297852Y579954D01*
X297591Y580235D01*
X297292Y580435D01*
X296952Y580555D01*
X296572Y580594D01*
X304571D01*
X304191Y580555D01*
D02*
G37*
G36*
X282952D02*
X282872Y580435D01*
X282802Y580235D01*
X282741Y579954D01*
X282689Y579594D01*
X282614Y578635D01*
X282572Y576595D01*
X278571D01*
X278552Y577355D01*
X278491Y578035D01*
X278391Y578635D01*
X278251Y579155D01*
X278071Y579594D01*
X277852Y579954D01*
X277591Y580235D01*
X277292Y580435D01*
X276952Y580555D01*
X276572Y580594D01*
X283041D01*
X282952Y580555D01*
D02*
G37*
G36*
X431396Y441154D02*
X434007Y438198D01*
X434252Y437796D01*
X434334Y437528D01*
X434252Y437394D01*
X434008Y437395D01*
X433600Y437531D01*
X428558Y435538D01*
X428903Y435726D01*
X429135Y435973D01*
X429251Y436278D01*
X429254Y436641D01*
X429141Y437063D01*
X428915Y437543D01*
X428573Y438081D01*
X428118Y438677D01*
X427547Y439332D01*
X426862Y440045D01*
X430335Y442229D01*
X431396Y441154D01*
D02*
G37*
G36*
X415808Y440190D02*
X416785Y439370D01*
X417266Y439025D01*
X417743Y438725D01*
X418215Y438468D01*
X418682Y438256D01*
X419145Y438087D01*
X419603Y437962D01*
X420056Y437880D01*
X415681Y431843D01*
X415864Y432191D01*
X415944Y432587D01*
X415919Y433031D01*
X415791Y433523D01*
X415559Y434063D01*
X415223Y434651D01*
X414784Y435286D01*
X414240Y435969D01*
X413593Y436701D01*
X412842Y437480D01*
X415313Y440666D01*
X415808Y440190D01*
D02*
G37*
G36*
X402981Y425000D02*
X402941Y425380D01*
X402820Y425720D01*
X402618Y426020D01*
X402336Y426280D01*
X401973Y426500D01*
X401530Y426680D01*
X401006Y426820D01*
X400401Y426920D01*
X399716Y426980D01*
X398951Y427000D01*
Y431000D01*
X399716Y431020D01*
X400401Y431080D01*
X401006Y431180D01*
X401530Y431320D01*
X401973Y431500D01*
X402336Y431720D01*
X402618Y431980D01*
X402820Y432280D01*
X402941Y432620D01*
X402981Y433000D01*
Y425000D01*
D02*
G37*
G36*
X573677Y532740D02*
X573337Y532620D01*
X573037Y532420D01*
X572777Y532140D01*
X572557Y531780D01*
X572377Y531340D01*
X572237Y530821D01*
X572137Y530220D01*
X572077Y529540D01*
X572057Y528781D01*
X568057D01*
X568037Y529540D01*
X567977Y530220D01*
X567877Y530821D01*
X567737Y531340D01*
X567557Y531780D01*
X567337Y532140D01*
X567077Y532420D01*
X566777Y532620D01*
X566437Y532740D01*
X566057Y532780D01*
X574057D01*
X573677Y532740D01*
D02*
G37*
G36*
X549534D02*
X549194Y532620D01*
X548894Y532420D01*
X548634Y532140D01*
X548414Y531780D01*
X548234Y531340D01*
X548094Y530821D01*
X547994Y530220D01*
X547934Y529540D01*
X547914Y528781D01*
X543914D01*
X543894Y529540D01*
X543834Y530220D01*
X543734Y530821D01*
X543594Y531340D01*
X543414Y531780D01*
X543194Y532140D01*
X542934Y532420D01*
X542634Y532620D01*
X542294Y532740D01*
X541914Y532780D01*
X549914D01*
X549534Y532740D01*
D02*
G37*
G36*
X525891D02*
X525551Y532620D01*
X525251Y532420D01*
X524991Y532140D01*
X524771Y531780D01*
X524591Y531340D01*
X524451Y530821D01*
X524351Y530220D01*
X524291Y529540D01*
X524271Y528781D01*
X520271D01*
X520251Y529540D01*
X520191Y530220D01*
X520091Y530821D01*
X519951Y531340D01*
X519771Y531780D01*
X519551Y532140D01*
X519291Y532420D01*
X518991Y532620D01*
X518651Y532740D01*
X518271Y532780D01*
X526271D01*
X525891Y532740D01*
D02*
G37*
G36*
X502248D02*
X501908Y532620D01*
X501609Y532420D01*
X501348Y532140D01*
X501129Y531780D01*
X500948Y531340D01*
X500808Y530821D01*
X500709Y530220D01*
X500648Y529540D01*
X500629Y528781D01*
X496628D01*
X496609Y529540D01*
X496549Y530220D01*
X496449Y530821D01*
X496309Y531340D01*
X496129Y531780D01*
X495909Y532140D01*
X495648Y532420D01*
X495349Y532620D01*
X495009Y532740D01*
X494628Y532780D01*
X502629D01*
X502248Y532740D01*
D02*
G37*
G36*
X484493Y447009D02*
X484115Y447326D01*
X483727Y447559D01*
X483329Y447709D01*
X482920Y447775D01*
X482500Y447758D01*
X482071Y447658D01*
X481631Y447473D01*
X481180Y447206D01*
X480720Y446855D01*
X480248Y446420D01*
X478331Y450159D01*
X483689Y455440D01*
X484493Y447009D01*
D02*
G37*
G36*
X446469Y453985D02*
X447401Y452262D01*
X447728Y451740D01*
X448410Y450777D01*
X448764Y450335D01*
X449499Y449530D01*
X448155Y445216D01*
X447697Y445634D01*
X447229Y445979D01*
X446751Y446251D01*
X446264Y446450D01*
X445768Y446577D01*
X445261Y446631D01*
X444746Y446613D01*
X444221Y446522D01*
X443686Y446358D01*
X443142Y446122D01*
X446177Y454612D01*
X446469Y453985D01*
D02*
G37*
G36*
X560860Y440614D02*
X561015Y438726D01*
X561108Y438194D01*
X561221Y437709D01*
X561355Y437272D01*
X561510Y436883D01*
X561685Y436542D01*
X561881Y436250D01*
X555819D01*
X556015Y436542D01*
X556190Y436883D01*
X556345Y437272D01*
X556479Y437709D01*
X556592Y438194D01*
X556685Y438726D01*
X556809Y439936D01*
X556840Y440614D01*
X556850Y441339D01*
X560850D01*
X560860Y440614D01*
D02*
G37*
G36*
X547927Y440815D02*
X548028Y439525D01*
X548117Y438939D01*
X548231Y438392D01*
X548370Y437885D01*
X548535Y437417D01*
X548725Y436989D01*
X548940Y436600D01*
X549181Y436250D01*
X543119D01*
X543270Y436485D01*
X543405Y436777D01*
X543525Y437127D01*
X543628Y437532D01*
X543716Y437995D01*
X543843Y439090D01*
X543882Y439722D01*
X543914Y441158D01*
X547914Y441520D01*
X547927Y440815D01*
D02*
G37*
G36*
X535460Y440614D02*
X535615Y438726D01*
X535708Y438194D01*
X535821Y437709D01*
X535955Y437272D01*
X536110Y436883D01*
X536285Y436542D01*
X536481Y436250D01*
X530419D01*
X530615Y436542D01*
X530790Y436883D01*
X530945Y437272D01*
X531079Y437709D01*
X531192Y438194D01*
X531285Y438726D01*
X531409Y439936D01*
X531440Y440614D01*
X531450Y441339D01*
X535450D01*
X535460Y440614D01*
D02*
G37*
G36*
X631431Y437631D02*
X631155Y437616D01*
X630878Y437572D01*
X630600Y437499D01*
X630320Y437397D01*
X630038Y437266D01*
X629754Y437106D01*
X629468Y436917D01*
X629181Y436698D01*
X628893Y436450D01*
X628602Y436174D01*
Y441830D01*
X629144Y442400D01*
X629628Y442969D01*
X630056Y443537D01*
X630428Y444104D01*
X630742Y444670D01*
X630999Y445235D01*
X631200Y445799D01*
X631344Y446363D01*
X631431Y446926D01*
X631461Y447487D01*
X631431Y437631D01*
D02*
G37*
G36*
X575059Y428620D02*
X575180Y428280D01*
X575382Y427980D01*
X575664Y427720D01*
X576027Y427500D01*
X576470Y427320D01*
X576994Y427180D01*
X577598Y427080D01*
X578284Y427020D01*
X579049Y427000D01*
Y423000D01*
X578284Y422980D01*
X577598Y422920D01*
X576994Y422820D01*
X576470Y422680D01*
X576027Y422500D01*
X575664Y422280D01*
X575382Y422020D01*
X575180Y421720D01*
X575059Y421380D01*
X575019Y421000D01*
Y429000D01*
X575059Y428620D01*
D02*
G37*
G36*
X536000Y348876D02*
X536005Y348110D01*
X536173Y345291D01*
X536236Y344929D01*
X536308Y344635D01*
X536389Y344409D01*
X536481Y344250D01*
X530419D01*
X530720Y344675D01*
X530988Y345125D01*
X531226Y345601D01*
X531431Y346103D01*
X531605Y346631D01*
X531747Y347184D01*
X531858Y347763D01*
X531937Y348368D01*
X531984Y348999D01*
X532000Y349655D01*
X536000Y348876D01*
D02*
G37*
G36*
X522760Y348614D02*
X522915Y346726D01*
X523008Y346194D01*
X523121Y345709D01*
X523255Y345272D01*
X523410Y344883D01*
X523585Y344542D01*
X523781Y344250D01*
X517719D01*
X517915Y344542D01*
X518090Y344883D01*
X518245Y345272D01*
X518379Y345709D01*
X518492Y346194D01*
X518585Y346726D01*
X518709Y347936D01*
X518740Y348614D01*
X518750Y349339D01*
X522750D01*
X522760Y348614D01*
D02*
G37*
G36*
X497360D02*
X497515Y346726D01*
X497608Y346194D01*
X497721Y345709D01*
X497855Y345272D01*
X498010Y344883D01*
X498185Y344542D01*
X498381Y344250D01*
X492319D01*
X492515Y344542D01*
X492690Y344883D01*
X492845Y345272D01*
X492979Y345709D01*
X493092Y346194D01*
X493185Y346726D01*
X493309Y347936D01*
X493340Y348614D01*
X493350Y349339D01*
X497350D01*
X497360Y348614D01*
D02*
G37*
G36*
X484660D02*
X484815Y346726D01*
X484908Y346194D01*
X485021Y345709D01*
X485155Y345272D01*
X485310Y344883D01*
X485485Y344542D01*
X485681Y344250D01*
X479619D01*
X479815Y344542D01*
X479990Y344883D01*
X480145Y345272D01*
X480279Y345709D01*
X480392Y346194D01*
X480485Y346726D01*
X480609Y347936D01*
X480640Y348614D01*
X480650Y349339D01*
X484650D01*
X484660Y348614D01*
D02*
G37*
G36*
X508980Y348780D02*
X509138Y346948D01*
X509276Y346216D01*
X509454Y345606D01*
X509671Y345118D01*
X509928Y344752D01*
X510224Y344509D01*
X510560Y344388D01*
X510936Y344388D01*
X504670Y343406D01*
X504725Y343579D01*
X504774Y343818D01*
X504818Y344123D01*
X504888Y344931D01*
X504957Y347339D01*
X504960Y348106D01*
X508960Y349878D01*
X508980Y348780D01*
D02*
G37*
G36*
X502360Y321143D02*
X503533Y319389D01*
X503773Y318179D01*
X504777Y316677D01*
X511644Y309810D01*
X511562Y309259D01*
X511192Y308540D01*
X498960D01*
Y296622D01*
X498551Y296039D01*
X497299Y294566D01*
X494672Y291939D01*
X491800D01*
X491550Y291889D01*
X491300Y291939D01*
X489333Y291548D01*
X487666Y290434D01*
X486310Y289077D01*
X485040Y289603D01*
Y307650D01*
X481374D01*
X481360Y307686D01*
X481259Y308062D01*
X481171Y308594D01*
X481139Y308964D01*
Y312950D01*
X480748Y314916D01*
X479634Y316584D01*
X479211Y317006D01*
X480021Y317993D01*
X480293Y317810D01*
X482650Y317342D01*
X485007Y317810D01*
X487005Y319145D01*
X488340Y321143D01*
X488353Y321209D01*
X489647D01*
X489660Y321143D01*
X490995Y319145D01*
X492993Y317810D01*
X495350Y317342D01*
X497707Y317810D01*
X499705Y319145D01*
X501040Y321143D01*
X501053Y321209D01*
X502347D01*
X502360Y321143D01*
D02*
G37*
G36*
X460180Y321569D02*
X460090Y321301D01*
X460010Y320948D01*
X459941Y320508D01*
X459835Y319369D01*
X459755Y317016D01*
X459750Y316059D01*
X454750D01*
X454745Y317016D01*
X454490Y320948D01*
X454410Y321301D01*
X454320Y321569D01*
X454219Y321750D01*
X460281D01*
X460180Y321569D01*
D02*
G37*
G36*
X478525Y309124D02*
X478600Y308269D01*
X478725Y307514D01*
X478900Y306860D01*
X479125Y306307D01*
X479400Y305854D01*
X479725Y305502D01*
X480100Y305250D01*
X480525Y305099D01*
X481000Y305049D01*
X471000D01*
X471475Y305099D01*
X471900Y305250D01*
X472275Y305502D01*
X472600Y305854D01*
X472875Y306307D01*
X473100Y306860D01*
X473275Y307514D01*
X473400Y308269D01*
X473475Y309124D01*
X473500Y310079D01*
X478500D01*
X478525Y309124D01*
D02*
G37*
G36*
X509101Y292061D02*
X508693Y292318D01*
X508218Y292439D01*
X507677Y292424D01*
X507069Y292272D01*
X506395Y291984D01*
X505655Y291559D01*
X504848Y290997D01*
X503975Y290300D01*
X502030Y288495D01*
X497995Y291530D01*
X499010Y292581D01*
X500602Y294453D01*
X501178Y295275D01*
X501608Y296020D01*
X501891Y296689D01*
X502028Y297281D01*
X502019Y297798D01*
X501863Y298238D01*
X501561Y298602D01*
X509101Y292061D01*
D02*
G37*
G36*
X551514Y295414D02*
X551558Y294870D01*
X551630Y294368D01*
X551731Y293907D01*
X551860Y293488D01*
X552019Y293111D01*
X552206Y292775D01*
X552423Y292481D01*
X552668Y292228D01*
X552942Y292017D01*
X546058D01*
X546332Y292228D01*
X546577Y292481D01*
X546794Y292775D01*
X546981Y293111D01*
X547140Y293488D01*
X547269Y293907D01*
X547370Y294368D01*
X547442Y294870D01*
X547486Y295414D01*
X547500Y296000D01*
X551500D01*
X551514Y295414D01*
D02*
G37*
G36*
X482469Y288141D02*
X482095Y288100D01*
X481760Y287980D01*
X481465Y287780D01*
X481209Y287500D01*
X480992Y287141D01*
X480815Y286700D01*
X480677Y286180D01*
X480579Y285581D01*
X480577Y285562D01*
X480580Y285529D01*
X480680Y284930D01*
X480820Y284410D01*
X481000Y283969D01*
X481220Y283610D01*
X481480Y283330D01*
X481780Y283130D01*
X482120Y283009D01*
X482500Y282969D01*
X474500D01*
X474880Y283009D01*
X475220Y283130D01*
X475520Y283330D01*
X475780Y283610D01*
X476000Y283969D01*
X476180Y284410D01*
X476320Y284930D01*
X476420Y285529D01*
X476423Y285559D01*
X476420Y285589D01*
X476320Y286193D01*
X476180Y286716D01*
X476000Y287160D01*
X475780Y287522D01*
X475520Y287805D01*
X475220Y288007D01*
X474880Y288129D01*
X474500Y288171D01*
X482469Y288141D01*
D02*
G37*
G36*
X487005Y278969D02*
X486329Y278259D01*
X485724Y277549D01*
X485190Y276840D01*
X484727Y276131D01*
X484335Y275424D01*
X484014Y274717D01*
X483764Y274011D01*
X483585Y273306D01*
X483476Y272602D01*
X483439Y271898D01*
X483470Y282969D01*
X483588Y283000D01*
X483759Y283092D01*
X483983Y283246D01*
X484258Y283461D01*
X485397Y284474D01*
X487005Y286041D01*
Y278969D01*
D02*
G37*
G36*
X501561Y265000D02*
X501521Y265380D01*
X501400Y265720D01*
X501198Y266020D01*
X500916Y266280D01*
X500553Y266500D01*
X500110Y266680D01*
X499586Y266820D01*
X498982Y266920D01*
X498296Y266980D01*
X497531Y267000D01*
Y271000D01*
X498296Y271020D01*
X498982Y271080D01*
X499586Y271180D01*
X500110Y271320D01*
X500553Y271500D01*
X500916Y271720D01*
X501198Y271980D01*
X501400Y272280D01*
X501521Y272620D01*
X501561Y273000D01*
Y265000D01*
D02*
G37*
G36*
X633582Y363670D02*
X632930Y364300D01*
X632280Y364864D01*
X631630Y365361D01*
X630981Y365792D01*
X630334Y366157D01*
X629687Y366455D01*
X629042Y366687D01*
X628397Y366853D01*
X627754Y366953D01*
X627112Y366986D01*
X627104Y370986D01*
X627747Y371019D01*
X628390Y371119D01*
X629035Y371285D01*
X629679Y371518D01*
X630325Y371817D01*
X630971Y372182D01*
X631618Y372615D01*
X632266Y373113D01*
X632914Y373678D01*
X633563Y374310D01*
X633582Y363670D01*
D02*
G37*
G36*
X573560Y348614D02*
X573715Y346726D01*
X573808Y346194D01*
X573921Y345709D01*
X574055Y345272D01*
X574210Y344883D01*
X574385Y344542D01*
X574581Y344250D01*
X568519D01*
X568715Y344542D01*
X568890Y344883D01*
X569045Y345272D01*
X569179Y345709D01*
X569292Y346194D01*
X569385Y346726D01*
X569509Y347936D01*
X569540Y348614D01*
X569550Y349339D01*
X573550D01*
X573560Y348614D01*
D02*
G37*
G36*
X635960Y336634D02*
X635234Y336915D01*
X634532Y337113D01*
X633853Y337229D01*
X633198Y337262D01*
X632566Y337213D01*
X631958Y337082D01*
X631373Y336868D01*
X630812Y336571D01*
X630274Y336193D01*
X629760Y335731D01*
X628196Y339824D01*
X628547Y340205D01*
X628905Y340649D01*
X629268Y341157D01*
X630012Y342365D01*
X630393Y343064D01*
X631571Y345545D01*
X631975Y346500D01*
X635960Y336634D01*
D02*
G37*
G36*
X388395Y297401D02*
X389202Y296710D01*
X390015Y296101D01*
X390835Y295572D01*
X391662Y295126D01*
X392496Y294760D01*
X393337Y294476D01*
X394184Y294272D01*
X395039Y294151D01*
X395900Y294110D01*
Y289110D01*
X395039Y289069D01*
X394184Y288948D01*
X393337Y288744D01*
X392496Y288460D01*
X391662Y288094D01*
X390835Y287647D01*
X390015Y287119D01*
X389202Y286510D01*
X388395Y285819D01*
X387595Y285047D01*
Y298172D01*
X388395Y297401D01*
D02*
G37*
G36*
X445561Y270079D02*
X445521Y270349D01*
X445403Y270591D01*
X445205Y270804D01*
X444929Y270989D01*
X444573Y271145D01*
X444139Y271273D01*
X443625Y271372D01*
X443032Y271443D01*
X442361Y271486D01*
X441610Y271500D01*
Y276500D01*
X442361Y276514D01*
X443625Y276628D01*
X444139Y276727D01*
X444573Y276855D01*
X444929Y277011D01*
X445205Y277196D01*
X445403Y277409D01*
X445521Y277651D01*
X445561Y277920D01*
Y270079D01*
D02*
G37*
G36*
X369292Y288500D02*
X370492Y285601D01*
X372402Y283112D01*
X374891Y281202D01*
X377790Y280002D01*
X379698Y279750D01*
Y278470D01*
X377790Y278218D01*
X374891Y277018D01*
X372402Y275108D01*
X370492Y272619D01*
X369292Y269720D01*
X369040Y267812D01*
X367760D01*
X367508Y269720D01*
X366308Y272619D01*
X364398Y275108D01*
X361909Y277018D01*
X359011Y278218D01*
X357102Y278470D01*
Y279750D01*
X359011Y280002D01*
X361909Y281202D01*
X364398Y283112D01*
X366308Y285601D01*
X367508Y288500D01*
X367760Y290408D01*
X369040D01*
X369292Y288500D01*
D02*
G37*
D10*
X249000Y249410D02*
Y308810D01*
X333500D01*
Y249410D01*
X249000D01*
X348271Y382186D02*
Y448686D01*
X274571D01*
Y382186D01*
X348271D01*
D14*
X285072Y324000D02*
Y334000D01*
X284600Y346851D02*
Y356851D01*
X301600Y360851D02*
X267600D01*
Y342851D01*
X301600D01*
Y360851D01*
X289600Y351851D02*
X279600D01*
X301821Y337750D02*
X268321D01*
Y320250D01*
X301821D01*
Y337750D01*
X290072Y329000D02*
X280072D01*
X310250Y330900D02*
Y364400D01*
X327750D01*
Y330900D01*
X310250D01*
X314000Y347650D02*
X324000D01*
X319000Y342650D02*
Y352650D01*
X354000Y329000D02*
X394000D01*
Y379000D01*
X354000D01*
Y329000D01*
X374000Y349000D02*
Y359000D01*
X369000Y354000D02*
X379000D01*
X398500Y341000D02*
Y417000D01*
X579500D01*
Y341000D01*
X398500D01*
X426000Y313750D02*
X472000D01*
Y274250D01*
X426000D01*
Y313750D01*
X444000Y294000D02*
X454000D01*
X449000Y299000D02*
Y289000D01*
X447000Y287610D02*
X481000D01*
Y305610D01*
X447000D01*
Y287610D01*
X448500Y282250D02*
X480500D01*
Y276250D01*
D02*
G03*
X480500Y271750I0J-2250D01*
G01*
Y271752D02*
Y265752D01*
X448500D01*
X448502D02*
Y271752D01*
Y271750D02*
G03*
X448502Y276250I0J2250D01*
G01*
Y282250D01*
X459500Y274000D02*
X469500D01*
X464500Y269000D02*
Y279000D01*
X500500Y268000D02*
X517500D01*
Y300000D01*
X500500D01*
Y268000D01*
X500250Y267250D02*
Y300750D01*
X517750D01*
Y267250D01*
X500250D01*
X499000Y261000D02*
X519000D01*
Y307000D01*
X499000D01*
Y261000D01*
X509000Y279000D02*
Y289000D01*
Y289000D02*
Y279000D01*
X514000Y284000D02*
X504000D01*
X514000D01*
X464000Y291610D02*
Y301610D01*
X459000Y296610D02*
X469000D01*
X484000Y379000D02*
X494000D01*
X489000Y374000D02*
Y384000D01*
X485500Y387000D02*
Y421000D01*
X467500D01*
Y387000D01*
X485500D01*
X476500Y409000D02*
Y399000D01*
X481500Y404000D02*
X471500D01*
X459428D02*
X449428D01*
X454428Y399000D02*
Y409000D01*
X445429Y421000D02*
X463428D01*
Y387000D01*
X445429D01*
Y421000D01*
X390000Y370000D02*
G03*
X390000Y370000I-5000J0D01*
G01*
X508557Y484000D02*
Y518000D01*
X490557D01*
Y484000D01*
X508557D01*
X514057D02*
Y518000D01*
X532057D01*
Y484000D01*
X514057D01*
X518057Y501000D02*
X528057D01*
X523057Y496000D02*
Y506000D01*
X541557Y501000D02*
X551557D01*
X546557Y496000D02*
Y506000D01*
X537557Y484000D02*
Y518000D01*
X555557D01*
Y484000D01*
X537557D01*
X561057D02*
Y518000D01*
X579057D01*
Y484000D01*
X561057D01*
X565057Y501000D02*
X575057D01*
X570057Y496000D02*
Y506000D01*
X626554Y459799D02*
X651447Y459798D01*
X651446D02*
Y328999D01*
X626554D01*
Y459799D01*
X575500Y408000D02*
G03*
X575500Y408000I-5000J0D01*
G01*
X590000Y356000D02*
X608000D01*
Y322000D01*
X590000D01*
Y356000D01*
X594000Y339000D02*
X604000D01*
X599000Y334000D02*
Y344000D01*
X591690Y266500D02*
X671090D01*
Y99600D01*
X591690D01*
Y266500D01*
X504557Y501000D02*
X494557D01*
X499557Y496000D02*
Y506000D01*
X485057Y484000D02*
Y518000D01*
X467057D01*
Y484000D01*
X485057D01*
X461557Y518000D02*
Y484000D01*
X443557D01*
Y518000D01*
X461557D01*
X457557Y501000D02*
X447557D01*
X452557Y496000D02*
Y506000D01*
X432700Y501000D02*
X422700D01*
X432700D01*
X436450Y484250D02*
Y517750D01*
X418950D01*
X436450D01*
Y484250D01*
X418950D01*
Y517750D01*
Y484250D01*
X436450D01*
X471057Y501000D02*
X481057D01*
X476057Y496000D02*
Y506000D01*
X513521Y534250D02*
Y567750D01*
X531021D01*
Y534250D01*
X513521D01*
Y534250D02*
Y567750D01*
X531021D01*
Y534250D01*
X513521D01*
X517271Y551000D02*
X527271D01*
Y551000D02*
X517271D01*
X522271Y556000D02*
Y546000D01*
Y546000D02*
Y556000D01*
X540914Y551000D02*
X550914D01*
Y551000D02*
X540914D01*
X545914Y546000D02*
Y556000D01*
Y556000D02*
Y546000D01*
X537164Y534250D02*
X554664D01*
Y567750D01*
X537164D01*
Y534250D01*
Y534250D02*
Y567750D01*
X554664D01*
Y534250D01*
X537164D01*
X560807D02*
Y567750D01*
X578307D01*
Y534250D01*
X560807D01*
X561307Y534250D02*
X578807D01*
Y567750D01*
X561307D01*
Y534250D01*
X564557Y551000D02*
X574557D01*
X575057Y551000D02*
X565057D01*
X569557Y556000D02*
Y546000D01*
X570057Y546000D02*
Y556000D01*
X507379Y567750D02*
Y534250D01*
X489879D01*
Y567750D01*
X507379D01*
Y567750D02*
Y534250D01*
X489879D01*
Y567750D01*
X507379D01*
X483736D02*
Y534250D01*
X466236D01*
Y567750D01*
X483736D01*
Y567750D02*
Y534250D01*
X466236D01*
Y567750D01*
X483736D01*
X493629Y551000D02*
X503629D01*
Y551000D02*
X493629D01*
X498629Y546000D02*
Y556000D01*
Y556000D02*
Y546000D01*
X460093Y567750D02*
Y534250D01*
X442593D01*
Y567750D01*
X460093D01*
Y568651D02*
Y535151D01*
X442593D01*
Y568651D01*
X460093D01*
X469986Y551000D02*
X479986D01*
Y551000D02*
X469986D01*
X474986Y546000D02*
Y556000D01*
Y556000D02*
Y546000D01*
X437200Y568000D02*
Y534000D01*
X419200D01*
Y568000D01*
X437200D01*
X436450Y567750D02*
Y534250D01*
X418950D01*
Y567750D01*
X436450D01*
X433200Y551000D02*
X423200D01*
X422700D02*
X432700D01*
X446343Y551000D02*
X456343D01*
Y551901D02*
X446343D01*
X451343Y556000D02*
Y546000D01*
Y546901D02*
Y556901D01*
X413557Y568000D02*
Y534000D01*
X395557D01*
Y568000D01*
X413557D01*
X412807Y567750D02*
Y534250D01*
X395307D01*
Y567750D01*
X412807D01*
X409557Y551000D02*
X399557D01*
X399057D02*
X409057D01*
X427700Y546000D02*
Y556000D01*
X428200D02*
Y546000D01*
X413807Y517750D02*
Y484250D01*
X396307D01*
Y517750D01*
X413807D01*
X413307D02*
Y484250D01*
X395807D01*
Y517750D01*
X413307D01*
X410057Y501000D02*
X400057D01*
X399557D02*
X409557D01*
X427700Y496000D02*
Y506000D01*
Y496000D01*
X405057D02*
Y506000D01*
X404557D02*
Y496000D01*
Y546000D02*
Y556000D01*
X404057D02*
Y546000D01*
X334322Y585814D02*
Y619314D01*
X316821D01*
Y585814D01*
X334322D01*
X334072Y586564D02*
Y618564D01*
X317072D01*
Y586564D01*
X334072D01*
X330572Y602564D02*
X320572D01*
X330572D01*
X335572Y579564D02*
Y625564D01*
X315572D01*
Y579564D01*
X335572D01*
X325572Y597564D02*
Y607564D01*
Y597564D01*
X305572Y602564D02*
X295571D01*
X305572D01*
X309072Y586564D02*
Y618564D01*
X292072D01*
Y586564D01*
X309072D01*
X309322Y585814D02*
Y619314D01*
X291821D01*
Y585814D01*
X309322D01*
X310571Y579564D02*
Y625564D01*
X290572D01*
Y579564D01*
X310571D01*
X300571Y597564D02*
Y607564D01*
Y597564D01*
X280571Y602564D02*
X270571D01*
X280571D01*
X284072Y586564D02*
Y618564D01*
X267072D01*
Y586564D01*
X284072D01*
X284322Y585814D02*
Y619314D01*
X266821D01*
Y585814D01*
X284322D01*
X285571Y579564D02*
Y625564D01*
X265572D01*
Y579564D01*
X285571D01*
X275571Y597564D02*
Y607564D01*
Y597564D01*
D17*
X429094Y294000D02*
D03*
D18*
X309500Y328150D02*
Y367150D01*
X328500D01*
Y328150D01*
X309500D01*
X336500Y326500D02*
X411500D01*
Y381500D01*
X336500D01*
Y326500D01*
X393500Y315000D02*
Y443000D01*
X584500D01*
Y315000D01*
X393500D01*
X415105D02*
X482895D01*
Y273000D01*
X415105D01*
Y315000D01*
X444500Y286610D02*
X483500D01*
Y306610D01*
X444500D01*
Y286610D01*
X444500Y284000D02*
X484500D01*
Y264000D01*
X444500D01*
Y284000D01*
X499500Y264500D02*
Y303500D01*
X518500D01*
Y264500D01*
X499500D01*
X589000Y319500D02*
Y358500D01*
X609000D01*
Y319500D01*
X589000D01*
X624300Y326749D02*
Y462049D01*
X653700D01*
Y326749D01*
X624300D01*
X486000Y424000D02*
X467000D01*
Y384000D01*
X486000D01*
Y424000D01*
X463928D02*
X444929D01*
Y384000D01*
X463928D01*
Y424000D01*
X509557Y481500D02*
Y520500D01*
X489557D01*
Y481500D01*
X509557D01*
X513057D02*
Y520500D01*
X533057D01*
Y481500D01*
X513057D01*
X536557D02*
Y520500D01*
X556557D01*
Y481500D01*
X536557D01*
X560057D02*
Y520500D01*
X580057D01*
Y481500D01*
X560057D01*
X560057Y531500D02*
Y570500D01*
X579057D01*
Y531500D01*
X560057D01*
X560557Y531500D02*
X579557D01*
Y570500D01*
X560557D01*
Y531500D01*
X555414Y531500D02*
Y570500D01*
X536414D01*
Y531500D01*
X555414D01*
Y531500D02*
Y570500D01*
X536414D01*
Y531500D01*
X555414D01*
X531771D02*
Y570500D01*
X512771D01*
Y531500D01*
X531771D01*
Y531500D02*
Y570500D01*
X512771D01*
Y531500D01*
X531771D01*
X508129D02*
Y570500D01*
X489128D01*
Y531500D01*
X508129D01*
Y531500D02*
Y570500D01*
X489128D01*
Y531500D01*
X508129D01*
X484486D02*
Y570500D01*
X465486D01*
Y531500D01*
X484486D01*
Y531500D02*
Y570500D01*
X465486D01*
Y531500D01*
X484486D01*
X486057Y520500D02*
Y481500D01*
X466057D01*
Y520500D01*
X486057D01*
X462557D02*
Y481500D01*
X442557D01*
Y520500D01*
X462557D01*
X460843Y531500D02*
Y570500D01*
X441843D01*
Y531500D01*
X460843D01*
Y532401D02*
Y571401D01*
X441843D01*
Y532401D01*
X460843D01*
X438200Y531500D02*
Y570500D01*
X418200D01*
Y531500D01*
X438200D01*
X437200Y531500D02*
Y570500D01*
X418200D01*
Y531500D01*
X437200D01*
Y520500D02*
Y481500D01*
X418200D01*
Y520500D01*
X437200D01*
Y520500D02*
Y481500D01*
X418200D01*
Y520500D01*
X437200D01*
X414557Y520500D02*
Y481500D01*
X395557D01*
Y520500D01*
X414557D01*
X414057Y520500D02*
Y481500D01*
X395057D01*
Y520500D01*
X414057D01*
X414557Y531500D02*
Y570500D01*
X394557D01*
Y531500D01*
X414557D01*
X413557Y531500D02*
Y570500D01*
X394557D01*
Y531500D01*
X413557D01*
X335071Y583064D02*
Y622064D01*
X316072D01*
Y583064D01*
X335071D01*
X310072D02*
Y622064D01*
X291072D01*
Y583064D01*
X310072D01*
X285072D02*
Y622064D01*
X266072D01*
Y583064D01*
X285072D01*
X265100Y361851D02*
X304100D01*
Y341851D01*
X265100D01*
Y361851D01*
X265572Y338500D02*
X304572D01*
Y319500D01*
X265572D01*
Y338500D01*
D19*
X509000Y269000D02*
D03*
Y299000D02*
D03*
X325572Y587564D02*
D03*
Y617564D02*
D03*
X300571D02*
D03*
Y587564D02*
D03*
X275571Y617564D02*
D03*
Y587564D02*
D03*
D20*
X450500Y274000D02*
D03*
X478500D02*
D03*
D21*
X452000Y296610D02*
D03*
X476000D02*
D03*
D22*
X427700Y487500D02*
D03*
Y514500D02*
D03*
X451343Y537500D02*
D03*
X474986D02*
D03*
X498629D02*
D03*
X522271D02*
D03*
X545914D02*
D03*
X569557D02*
D03*
Y564500D02*
D03*
X545914D02*
D03*
X522271D02*
D03*
X498629D02*
D03*
X474986D02*
D03*
X451343D02*
D03*
X427700Y564500D02*
D03*
Y537500D02*
D03*
X404057Y564500D02*
D03*
Y537500D02*
D03*
X404557Y514500D02*
D03*
Y487500D02*
D03*
D23*
X406450Y333000D02*
D03*
X419150D02*
D03*
X431850D02*
D03*
X444550D02*
D03*
X457250D02*
D03*
X469950D02*
D03*
X482650D02*
D03*
X495350D02*
D03*
X508050D02*
D03*
X520750D02*
D03*
X533450D02*
D03*
X546150D02*
D03*
X558850D02*
D03*
X571550D02*
D03*
Y425000D02*
D03*
X558850D02*
D03*
X546150D02*
D03*
X533450D02*
D03*
X520750D02*
D03*
X508050D02*
D03*
X495350D02*
D03*
X482650D02*
D03*
X469950D02*
D03*
X457250D02*
D03*
X444550D02*
D03*
X431850D02*
D03*
X419150D02*
D03*
X406450D02*
D03*
D40*
X406450Y351300D02*
X407001Y351851D01*
X419000D02*
X419150Y351701D01*
X456200Y314000D02*
X457250Y312950D01*
X476000Y296610D02*
X478500Y294110D01*
Y274000D01*
X491800Y269000D02*
X509000D01*
X509000Y269000D01*
X549500Y286800D02*
Y296000D01*
X532550Y312950D01*
X515050D01*
X508050Y319950D01*
Y333000D01*
X506960Y334090D01*
Y366026D01*
X491300Y381686D01*
X474000D01*
X461300Y368986D01*
X430786D01*
X431850Y349701D02*
X434000Y351851D01*
X443801D02*
X444550Y351101D01*
X453601Y351851D02*
X457250Y348202D01*
X482650Y333000D02*
Y359500D01*
X478150Y364000D01*
X495350Y333000D02*
Y362650D01*
X494000Y364000D01*
X520750Y352250D02*
Y333000D01*
Y352250D02*
X514000Y359000D01*
X533450Y333000D02*
X534000Y333550D01*
Y364000D01*
X571550Y352250D02*
X588286Y368986D01*
X634786D01*
X639000Y373200D01*
Y347800D02*
X604150Y312950D01*
X582236D01*
X565050D01*
X558850Y319150D01*
Y333000D01*
X571550D02*
Y352250D01*
X614600Y425000D02*
X639000Y449400D01*
X614600Y425000D02*
X571550D01*
X558850D02*
Y449493D01*
X570057Y460700D01*
Y526000D01*
Y537000D01*
X569557Y537500D01*
Y564500D02*
Y609843D01*
X567750Y611650D01*
X542750D02*
X545914Y608486D01*
Y564500D01*
Y537500D02*
Y526000D01*
Y432236D01*
X533450Y449493D02*
Y425000D01*
X545914Y425236D02*
X546150Y425000D01*
X558850D02*
X559000Y425150D01*
X533450Y449493D02*
X522271Y460672D01*
Y526000D01*
Y537500D01*
Y564500D02*
Y607129D01*
X517750Y611650D01*
X492750D02*
X498629Y605771D01*
Y564500D01*
Y537500D02*
Y526000D01*
Y461371D01*
X520750Y439250D01*
Y425000D01*
X489000Y451693D02*
X482693D01*
X469950Y438950D01*
Y425000D01*
X457250D02*
Y438950D01*
X444257Y451943D01*
X440250D01*
X431850Y437886D02*
Y425000D01*
Y437886D02*
X415736Y454000D01*
X394000D01*
X369000Y479000D01*
Y514136D01*
X325572Y557564D01*
Y587564D01*
X305571Y582564D02*
X300571Y587564D01*
Y557564D01*
X349000Y509136D01*
Y481371D01*
X386371Y444000D01*
X409150D01*
X419150Y434000D01*
Y425000D01*
X419000Y425150D01*
X406450Y429000D02*
X381000D01*
X325572Y484428D01*
Y507429D01*
X280571Y552429D01*
Y586429D01*
X278500Y588500D01*
X300571Y617564D02*
Y642564D01*
X325572Y617564D02*
Y642564D01*
X275571D02*
Y617564D01*
X404557Y487500D02*
X405057Y487000D01*
Y466000D01*
X427700D02*
Y487500D01*
X423493D02*
X425596Y485396D01*
X451343Y526000D02*
Y537500D01*
X474986Y525786D02*
Y537500D01*
Y525786D02*
Y473293D01*
X476000Y472279D01*
X427700Y526000D02*
Y537500D01*
X451343Y564500D02*
Y603057D01*
X442750Y611650D01*
X474986Y604414D02*
X467750Y611650D01*
X474986Y604414D02*
Y564500D01*
X417750Y611650D02*
X427700Y601700D01*
Y564500D01*
X404057Y600343D02*
X392750Y611650D01*
X404057Y600343D02*
Y564500D01*
Y537500D02*
Y526500D01*
X491300Y286800D02*
X491800D01*
D41*
X329825Y351851D02*
X355900Y377926D01*
Y389000D01*
X407001Y351851D02*
X419000D01*
X434000D01*
X443801D01*
X453601D01*
X444550Y351101D02*
Y333000D01*
X431850D02*
Y349701D01*
X452000Y307700D02*
X457250Y312950D01*
Y333000D01*
Y348202D01*
X469950Y333000D02*
Y319000D01*
X476000Y312950D01*
Y296610D01*
X464000Y284610D02*
X452000Y296610D01*
Y307700D01*
X464000Y284610D02*
Y259000D01*
X479000Y244000D01*
X524000D01*
X549000Y269000D01*
X526000Y292000D01*
Y302000D01*
X509000Y299000D02*
X496800Y286800D01*
X491800D01*
X491300D02*
X478500Y274000D01*
X450500D02*
X441610D01*
X424000Y291610D01*
X390000D01*
X406450Y333000D02*
Y351300D01*
X419150Y351701D02*
Y333000D01*
X458000Y390000D02*
X489000D01*
X504000D01*
X519000D01*
X630400D01*
X639000Y398600D01*
X546150Y333000D02*
Y314000D01*
X586444Y273706D01*
X634000D01*
X519000Y390000D02*
X508050Y400950D01*
Y425000D01*
X495350D02*
Y398650D01*
X504000Y390000D01*
X489000D02*
X482650Y396350D01*
Y425000D01*
X458000Y390000D02*
X444550Y403450D01*
Y425000D01*
X427700Y514500D02*
X385060D01*
X259000Y351851D02*
X329825D01*
D42*
X274072Y499000D02*
D03*
X634000Y273706D02*
D03*
Y624000D02*
D03*
D43*
X284172Y385436D02*
D03*
X323572Y415436D02*
D03*
X284172Y445436D02*
D03*
X293571Y415436D02*
D03*
D44*
X639000Y445200D02*
D03*
D45*
X639000Y343600D02*
D03*
Y369000D02*
D03*
Y394400D02*
D03*
Y419800D02*
D03*
D46*
X492750Y636150D02*
D03*
X467750D02*
D03*
X480250Y650150D02*
D03*
D47*
X567750Y611650D02*
D03*
Y636150D02*
D03*
X542750D02*
D03*
Y611650D02*
D03*
X517750Y636150D02*
D03*
Y611650D02*
D03*
X492750D02*
D03*
X467750D02*
D03*
X442750Y636150D02*
D03*
Y611650D02*
D03*
X417750Y636150D02*
D03*
Y611650D02*
D03*
X392750Y636150D02*
D03*
Y611650D02*
D03*
D48*
X440250Y451943D02*
D03*
X489000Y451693D02*
D03*
D49*
X549000Y269000D02*
D03*
X549500Y286800D02*
D03*
D50*
X284100Y266610D02*
D03*
Y291610D02*
D03*
D51*
X355900Y266610D02*
D03*
X380900D02*
D03*
Y291610D02*
D03*
X355900D02*
D03*
D52*
X240000Y240000D02*
D03*
X300000D02*
D03*
X330000Y300000D02*
D03*
X360000Y240000D02*
D03*
X420000D02*
D03*
X480000D02*
D03*
X491800Y269000D02*
D03*
X526000Y302000D02*
D03*
X491800Y286800D02*
D03*
X540000Y240000D02*
D03*
X600000D02*
D03*
X570000Y300000D02*
D03*
X534000Y364000D02*
D03*
X519000Y390000D02*
D03*
X514000Y359000D02*
D03*
X494000Y364000D02*
D03*
X478150D02*
D03*
X453601Y351851D02*
D03*
X456200Y314000D02*
D03*
X430786Y368986D02*
D03*
X420000Y360000D02*
D03*
X390000Y420000D02*
D03*
X355900Y389000D02*
D03*
X427700Y466000D02*
D03*
X405057D02*
D03*
X451343Y526000D02*
D03*
X474986Y525786D02*
D03*
X498629Y526000D02*
D03*
X522271D02*
D03*
X545914D02*
D03*
X570057D02*
D03*
X600000Y480000D02*
D03*
X630000Y540000D02*
D03*
X600000Y600000D02*
D03*
X476000Y472279D02*
D03*
X427700Y526000D02*
D03*
X390000Y540000D02*
D03*
X404057Y526500D02*
D03*
X385060Y514500D02*
D03*
X360000Y600000D02*
D03*
X325572Y642564D02*
D03*
X300571D02*
D03*
X275571D02*
D03*
X240000Y600000D02*
D03*
X270000Y540000D02*
D03*
X330000D02*
D03*
X300000Y600000D02*
D03*
X240000Y480000D02*
D03*
X270000Y420000D02*
D03*
X240000Y360000D02*
D03*
X259000Y351851D02*
D03*
X270000Y300000D02*
D03*
M02*
